<svg xmlns="http://www.w3.org/2000/svg" width="24" height="24" viewBox="0 0 24 24">
  <g id="Group_7826" data-name="Group 7826" transform="translate(0.251 -24)">
    <rect id="Rectangle_3100" data-name="Rectangle 3100" width="24" height="24" transform="translate(-0.251 24)" fill="#fff" opacity="0"/>
    <path id="Path_13474" data-name="Path 13474" d="M-16033.205-21392.75a7.494,7.494,0,0,1-5.335-2.213,7.484,7.484,0,0,1-2.207-5.33v-11.143a.86.86,0,0,1,.856-.861.863.863,0,0,1,.862.861v11.143a5.777,5.777,0,0,0,1.7,4.117,5.794,5.794,0,0,0,4.122,1.707,5.831,5.831,0,0,0,5.824-5.824v-11.143a3.6,3.6,0,0,0-3.595-3.6,3.6,3.6,0,0,0-2.548,1.049,3.591,3.591,0,0,0-1.054,2.547v10.029a1.371,1.371,0,0,0,1.372,1.367,1.369,1.369,0,0,0,1.367-1.367v-5.785a.863.863,0,0,1,.862-.863.86.86,0,0,1,.856.863v5.785a3.09,3.09,0,0,1-3.086,3.084,3.092,3.092,0,0,1-3.09-3.084v-10.029a5.284,5.284,0,0,1,1.559-3.76,5.276,5.276,0,0,1,3.761-1.553,5.319,5.319,0,0,1,5.313,5.313v11.143A7.552,7.552,0,0,1-16033.205-21392.75Z" transform="translate(16044.953 21440.75)" fill="#a5a29b"/>
  </g>
</svg>
