<svg xmlns="http://www.w3.org/2000/svg" width="12.675" height="11.891" viewBox="0 0 12.675 11.891">
  <path id="Crown" d="M-16177.187-20535.531a.634.634,0,0,1-.643-.631.633.633,0,0,1,.643-.623h9.494a.635.635,0,0,1,.643.623.637.637,0,0,1-.643.631Zm-.059-2.213a.674.674,0,0,1-.672-.551l-.986-5.584a.667.667,0,0,1,.262-.643.689.689,0,0,1,.707-.064l3.148,1.754,1.619-4.273a.715.715,0,0,1,1.188,0l1.615,4.273,3.148-1.754a.681.681,0,0,1,.7.064.658.658,0,0,1,.266.643l-.986,5.584a.674.674,0,0,1-.668.551Z" transform="translate(16178.913 20547.422)" fill="#fff"/>
</svg>
