<svg xmlns="http://www.w3.org/2000/svg" width="29" height="29" viewBox="0 0 29 29">
  <g id="earth" transform="translate(-0.001 0)">
    <g id="Group_8048" data-name="Group 8048" transform="translate(0.001 0)">
      <path id="Path_13797" data-name="Path 13797" d="M27.4,7.9A14.493,14.493,0,0,0,7.9,1.6,14.493,14.493,0,1,0,21.105,27.4,14.493,14.493,0,0,0,27.4,7.9ZM12.341,27.111a12.8,12.8,0,0,1-10.28-15.6l1.455.692a11.509,11.509,0,0,0,.032,1.2c.129,1.538.635,2.407,1.5,2.585a6.517,6.517,0,0,0,1.3.139,4.008,4.008,0,0,0,3.887-2.469c.119-.27.223-.344.242-.348.067-.013.373.055.885.534a1.3,1.3,0,0,1,.41.96,1.751,1.751,0,0,1-.725,1.637,4.579,4.579,0,0,0-2.329,3.473,2.025,2.025,0,0,0,.912,1.829,8.273,8.273,0,0,1,2.311,2.273A3.186,3.186,0,0,1,12.341,27.111Zm2.151.184c-.137,0-.274,0-.411-.007a4.923,4.923,0,0,0-.7-4.185,10.054,10.054,0,0,0-2.815-2.784c-.053-.034-.15-.1-.143-.357A2.912,2.912,0,0,1,11.9,17.914a3.4,3.4,0,0,0,1.58-3.1,3,3,0,0,0-.947-2.216,2.759,2.759,0,0,0-2.386-.959,2.058,2.058,0,0,0-1.456,1.327c-.533,1.21-1.613,1.671-3.208,1.369a3.1,3.1,0,0,1-.258-1.331,10.842,10.842,0,0,1,.014-1.264l.048-.585L2.574,9.87A12.8,12.8,0,0,1,21.692,3.917a4.938,4.938,0,0,0-1.7,3.215c-.014.408-.225.556-1.058.93a3.673,3.673,0,0,0-2.056,1.683,4.212,4.212,0,0,0,.027,3.213,2.2,2.2,0,0,0,3.991.345,4.054,4.054,0,0,1,.661.8A10.474,10.474,0,0,0,22.67,16.91a5.907,5.907,0,0,0,1.847,2,4.224,4.224,0,0,0,1.737.643A12.826,12.826,0,0,1,14.492,27.3Zm12.344-9.4a3.138,3.138,0,0,1-2.686-1.819,8.763,8.763,0,0,1-.966-2.463l-.028-.144-.075-.126a6.806,6.806,0,0,0-.606-.84,2.271,2.271,0,0,0-1.745-1,1.5,1.5,0,0,0-1.3.938l-.015.03a.476.476,0,0,1-.471.264A.487.487,0,0,1,18.5,12.4a2.706,2.706,0,0,1-.1-1.921c.179-.376.579-.577,1.217-.863.848-.38,2.009-.9,2.061-2.422a3.624,3.624,0,0,1,1.364-2.209A12.817,12.817,0,0,1,26.836,17.894Z" transform="translate(-0.001 0)"/>
    </g>
  </g>
</svg>
