<svg xmlns="http://www.w3.org/2000/svg" width="14" height="21" viewBox="0 0 14 21">
  <path id="Path_40497" data-name="Path 40497" d="M15.676-3.542a9.393,9.393,0,0,1-4.351,1.049q-6.586,0-7.844-6.972H1.676v-2.31H3.2a6.783,6.783,0,0,1-.059-.978,11.945,11.945,0,0,1,.089-1.36H1.676v-2.281H3.555a9.5,9.5,0,0,1,2.982-5.215,7.917,7.917,0,0,1,5.335-1.885,8.768,8.768,0,0,1,3.8.794v2.848a6.477,6.477,0,0,0-3.7-1.105,4.575,4.575,0,0,0-3.152,1.24A6.6,6.6,0,0,0,6.9-16.394h6.882v2.281H6.515A12.382,12.382,0,0,0,6.5-11.775h7.281v2.31H6.826q1.021,4.449,4.987,4.449a7.417,7.417,0,0,0,3.863-1.233Z" transform="translate(-1.676 23.493)" fill="#ff6474"/>
</svg>
