<svg xmlns="http://www.w3.org/2000/svg" width="36" height="36" viewBox="0 0 36 36">
  <path id="whatsapp" d="M31,5.232A17.942,17.942,0,0,0,.4,17.838a17.741,17.741,0,0,0,2.393,8.918L.25,36l9.5-2.481a17.974,17.974,0,0,0,8.566,2.171h.008A17.908,17.908,0,0,0,36.25,17.852,17.686,17.686,0,0,0,31,5.232ZM18.325,32.678h-.006a14.934,14.934,0,0,1-7.583-2.067l-.544-.321L4.554,31.762l1.505-5.471L5.7,25.73A14.822,14.822,0,0,1,18.331,3.013a14.833,14.833,0,1,1-.006,29.665Zm8.172-11.1c-.448-.223-2.65-1.3-3.06-1.45s-.709-.223-1.007.223-1.157,1.45-1.418,1.747-.522.335-.97.112a12.246,12.246,0,0,1-3.6-2.212,13.455,13.455,0,0,1-2.492-3.088c-.261-.446,0-.664.2-.91a12.611,12.611,0,0,0,1.12-1.525.816.816,0,0,0-.038-.781c-.112-.223-1.007-2.417-1.381-3.31-.364-.869-.733-.751-1.008-.765s-.56-.016-.858-.016a1.649,1.649,0,0,0-1.194.558,4.989,4.989,0,0,0-1.567,3.718,8.65,8.65,0,0,0,1.829,4.611c.224.3,3.158,4.8,7.651,6.73a25.715,25.715,0,0,0,2.553.939,6.168,6.168,0,0,0,2.821.177c.861-.128,2.65-1.078,3.023-2.119a3.708,3.708,0,0,0,.261-2.12c-.112-.186-.41-.3-.858-.521Zm0,0" transform="translate(-0.25)" fill="#e2ad42" fill-rule="evenodd"/>
</svg>
