<svg xmlns="http://www.w3.org/2000/svg" width="821.527" height="761.784" viewBox="0 0 821.527 761.784"><defs><style>.a,.t{fill:#263238;}.b,.n{fill:#ffe163;}.c{fill:#3f434d;}.d{fill:#f5f5f5;}.e{fill:#fdfcfc;}.f{fill:#a2a09e;}.g{fill:#d8d8d8;}.h{fill:#ebebeb;}.i{fill:#e0e0e0;}.j{fill:#a0a0a0;}.k{fill:#dbdbdb;}.l{fill:#a6a6a6;}.m{fill:#c95f50;}.n,.t{opacity:0.5;}.o{fill:#3a3f49;}.p{fill:#efd1db;}.q{fill:#ebd05c;}.r{fill:#fff;}.s{fill:#d2a8b4;}.u{fill:#37474f;}.v{fill:#ffc727;}</style></defs><g transform="translate(77.732)"><g transform="translate(22.574 695.465)"><path class="a" d="M33.15,446.173c0,.233,161.457.433,360.594.433s360.627-.2,360.627-.433-161.424-.433-360.627-.433S33.15,445.923,33.15,446.173Z" transform="translate(-33.15 -445.74)"/></g><g transform="translate(532.416 411.916)"><path class="b" d="M370.632,327.2a91.3,91.3,0,0,0,1.789,35.219,96.335,96.335,0,0,0,5.39,15.565c2.811,6.458,5.738,12.731,5.018,19.793-.674.441,1.649.372,1.742-.3,18.841-10.733,43-12.707,57.5-30.2a60.4,60.4,0,0,0,11.964-29.364c1.789-11.476,2.323-24.161-.674-35.451-2.486-9.478-8.084-18.771-17.168-23.417s-21.419-4.414-31.177-1.394C384.083,284.131,373.606,306.921,370.632,327.2Z" transform="translate(-264.602 -275.455)"/><path class="a" d="M383.28,454.875q3.833-12.847,7.783-25.671c5.157-16.75,10.524-33.43,16.494-49.924q5.343-14.8,11.267-29.341a179.6,179.6,0,0,0-2.323-18.213c-1.58-7.295-3.856-14.357-5.994-21.489-.139-.441.581-.674.767-.256,4.228,9.85,9.757,22.441,9.873,34.1q6.969-16.448,14.822-32.408a138.238,138.238,0,0,0-.7-26.995.325.325,0,0,1,.627-.116,95.9,95.9,0,0,1,1.858,23.812q6.064-11.987,12.847-23.673c.418-.7,1.371,0,1.022.72-7.085,13.637-13.637,27.552-19.816,41.654a90.414,90.414,0,0,1,29.55-17.1c.465-.186.813.511.348.7a107.489,107.489,0,0,0-31.966,21.164q-6.621,15.472-12.661,31.223c11.8-11.616,27.878-19.166,43.535-23.231.534-.139.674.674.163.813-18.074,5.436-32.082,15.681-45.835,27.878-1.58,4.251-3.159,8.5-4.646,12.754q-8.712,24.207-16.61,48.786-3.81,11.616-7.481,23.51c-2.625,8.456-4.646,17.377-8.131,25.554-.325.767-1.719.6-1.533-.349a241.62,241.62,0,0,1,6.74-23.9Z" transform="translate(-286.914 -263.671)"/><path class="a" d="M394.912,290.764a47.179,47.179,0,0,1,6.784,16.912c0,.163-.209.256-.279,0a144.532,144.532,0,0,0-7.341-16.587C393.774,290.625,394.587,290.277,394.912,290.764Z" transform="translate(-267.3 -255.512)"/><path class="a" d="M375.325,310.772a49.434,49.434,0,0,1,16.889-5.692c.163,0,.255.209,0,.279-2.718,1.115-5.576,1.9-8.317,2.974s-5.459,2.323-8.247,3.322a.488.488,0,0,1-.325-.883Z" transform="translate(-214.098 -236.258)"/><path class="a" d="M376.011,289.139a33.021,33.021,0,0,1,5.436-3.369.3.3,0,0,1,.325.488,34.119,34.119,0,0,1-5.366,3.461C376.058,289.929,375.663,289.348,376.011,289.139Z" transform="translate(-205.328 -261.831)"/><path class="b" d="M450.939,383.859c13.567,4.019,27.2,7.736,40.771,11.732,1.185.348,24.114-43.605,15.821-66.256a73.783,73.783,0,0,0-46.114-43.7c-9.687-3.3-21.582-6.063-31.827-3.81-9.107,2.021-15.518,9.455-18.585,18.027-4.019,11.616-2.672,25.554-.488,37.379a65.258,65.258,0,0,0,13.358,30.5C431.169,376.239,440.369,380.722,450.939,383.859Z" transform="translate(-408.423 -268.109)"/><path class="a" d="M408.069,326.724A178.45,178.45,0,0,0,434.692,337.2a112.046,112.046,0,0,1,17.749,6.435c-5.738-12.777-12.011-25.276-18.7-37.681-8.758-2.532-17.981-6.482-24.579-12.684a.379.379,0,0,1,.488-.581c7.225,5.111,15.216,8.177,23.232,11.616-1.812-3.345-3.624-6.667-5.483-9.989-.511-.929.744-1.835,1.371-.952a286.091,286.091,0,0,1,19.282,32.384,147.153,147.153,0,0,0,1.394-29.666c0-.255.349-.279.4,0a99.035,99.035,0,0,1-.325,32.524c4.646,9.5,9.083,19.236,12.986,29.086,1.533-5.924,3.554-11.755,4.9-17.726a81.657,81.657,0,0,0,1.951-26.112c0-.256.348-.279.4,0a92.2,92.2,0,0,1-5.924,48c2.323,5.924,4.437,11.871,6.412,17.842a355.433,355.433,0,0,1,18.028,94.133.581.581,0,0,1-1.161,0A466.571,466.571,0,0,0,466.89,380.9c-3.926-11.825-8.456-23.231-13.428-34.591-8.015-2.323-16.006-5.576-23.882-8.294a75.2,75.2,0,0,1-22-10.8.345.345,0,1,1,.488-.488Z" transform="translate(-385.16 -252.768)"/><path class="a" d="M437.287,301.812c8.294,2.95,16.262,7.086,24.439,10.082.395.139.163.743-.209.674-8.781-1.812-17.47-4.53-24.556-10.291C436.706,302.068,436.985,301.7,437.287,301.812Z" transform="translate(-427.086 -240.61)"/><path class="a" d="M416.86,294.363c-.116-.441.534-.7.674-.232,2.323,7.643,3.833,15.774,1.626,23.58,0,.3-.581.325-.581,0C418.185,309.789,418.626,302.122,416.86,294.363Z" transform="translate(-338.894 -251.072)"/><path class="a" d="M432.536,286.622a20.4,20.4,0,0,1,3.6,13.01c0,.279-.488.441-.558.116-1.022-4.391-2.718-8.363-4.065-12.615a.581.581,0,0,1,1.022-.511Z" transform="translate(-388.858 -260.987)"/><path class="b" d="M452.034,349.147c-3.973,12.638-13.428,30.085-28.389,30.2-9.711,0-19.468-1.068-29.2-1.208-10.408-.163-20.908-.139-31.246.488-.86,0,1.255-31.2,26.275-46.463,6.969-4.275,15.588-5.622,23.557-7.341a108.957,108.957,0,0,1,27.878-2.9c5.761.232,10.547,1.44,12.591,7.341S453.962,343.06,452.034,349.147Z" transform="translate(-248.13 -214.023)"/><path class="a" d="M471.484,330.218c-6.087,1.557-12.22,3.369-18.33,5.3a67.376,67.376,0,0,1,5.041-4.925c2.625-2.161,5.506-3.9,8.317-5.831.232-.139,0-.6-.209-.488a34.22,34.22,0,0,0-14.752,11.755c-7.62,2.439-15.147,5.157-22.4,8.131a85.958,85.958,0,0,0-14.357,7.55,57.854,57.854,0,0,1,5.2-9.014c3.322-4.321,7.806-6.714,12.15-9.757a.395.395,0,0,0-.4-.674,35.637,35.637,0,0,0-19.514,21.164,84.157,84.157,0,0,0-14.194,12.893c-16.564,18.817-29.62,43.861-29.666,69.392,0,.6.976.79,1.092.139a141.71,141.71,0,0,1,31.6-67.835,53.553,53.553,0,0,1,3.647-3.973,111.891,111.891,0,0,1,13.7-1.025c5.32,0,10.617.79,15.913,1.208,8.735.72,18.4.813,26.3-3.578.348-.186,0-.79-.279-.65-17.586,6.389-36.009-1.719-53.618,2.091a82.238,82.238,0,0,1,25.973-16.75l1.626-.65c11.267,1.347,23.231,4.3,34.15.627a.265.265,0,0,0-.139-.511c-10.617,2.648-20.792-.7-31.269-1.231,11.407-4.437,23.045-7.968,34.475-12.382C472.507,330.822,472.53,329.939,471.484,330.218Z" transform="translate(-278.337 -210.891)"/><path class="a" d="M382.991,331.6a155.348,155.348,0,0,1-16.424,1.255.1.1,0,0,0,0,.209,33.964,33.964,0,0,0,16.564-1.046C383.386,331.951,383.247,331.556,382.991,331.6Z" transform="translate(-184.872 -201.171)"/><path class="a" d="M390.524,326.948a26.783,26.783,0,0,0-8.131,5.645.34.34,0,0,0,.418.534c1.371-1,2.788-1.951,4.228-2.857a45.563,45.563,0,0,0,3.949-2.509.488.488,0,0,0-.465-.813Z" transform="translate(-229.482 -207.342)"/><path class="b" d="M490.128,367.3c.186.4-.418.79-.65.348h0a.6.6,0,0,1-.395.256,253.516,253.516,0,0,1-30.573,5.343c-8.27.743-17.819,1.185-25.067-3.6-9.827-6.528-16.262-23.928-10.965-34.986,6.273-13.126,25.206-5.994,34.708-1.324A69.694,69.694,0,0,1,490.128,367.3Z" transform="translate(-417.481 -207.043)"/><path class="a" d="M469.871,369.027a96.988,96.988,0,0,0-18.26-13.939A62.722,62.722,0,0,0,433.026,336.2c-.372-.256-.674.325-.349.581a84.122,84.122,0,0,1,15.611,16.4,171.161,171.161,0,0,0-22.906-10.408,30.551,30.551,0,0,0-12.313-12.336s-.232,0-.139.162a50.433,50.433,0,0,1,11.128,11.616c-4.646-1.719-9.293-3.345-14.055-4.9-.418-.139-.581.511-.186.65,8.363,3.276,16.912,6.714,25.206,10.686a96.8,96.8,0,0,1-30.526,0c-.279,0-.395.349,0,.418a60.123,60.123,0,0,0,32.385.488,152.077,152.077,0,0,1,15.356,8.6,38.166,38.166,0,0,0-12.406,1.022,94.618,94.618,0,0,1-21.814,2.463.256.256,0,0,0,0,.511c12.661,2.16,24.625-3.578,37.17-2.091a95.969,95.969,0,0,1,13.056,10.686,97.567,97.567,0,0,1,19.05,26.879c5.3,10.756,8.154,22.139,12.429,33.244a.4.4,0,1,0,.766-.209C496.727,408.776,485.831,384.638,469.871,369.027Z" transform="translate(-389.883 -202.704)"/><path class="a" d="M440.979,337.944a14.682,14.682,0,0,0-3.252-3.926,12.22,12.22,0,0,0-3.74-2.788c-.116,0-.186,0-.116.209,1.046,1.162,2.486,2.044,3.6,3.16s2.068,2.462,3.206,3.578a.19.19,0,1,0,.3-.232Z" transform="translate(-399.161 -201.658)"/><path class="a" d="M454.4,338.483c-1.882-.465-3.856-.441-5.761-.836a51.748,51.748,0,0,1-5.6-1.673.232.232,0,0,0-.186.418,18.586,18.586,0,0,0,11.616,2.672C454.7,339.017,454.679,338.552,454.4,338.483Z" transform="translate(-433.467 -195.391)"/><path class="c" d="M461.282,361.97l-1.649,18.864-5.645,63.7h-49.9l-7.039-63.7L394.98,361.97Z" transform="translate(-329.14 -160.985)"/><path class="a" d="M461.282,361.97l-1.649,18.864H397.048L394.98,361.97Z" transform="translate(-329.14 -160.985)"/><rect class="c" width="76.199" height="15.309" transform="translate(60.868 195.827)"/></g><g transform="translate(217.327)"><path class="d" d="M455.433,37.035c-55.249.062-200.057-.018-266.791-.085a42.141,42.141,0,0,0-28.888,11.313,37.381,37.381,0,0,0-11.918,27.254l-.126,618.608c-.04,21.259,18.208,38.528,40.77,38.584l266.791.153a42.141,42.141,0,0,0,28.888-11.313A37.381,37.381,0,0,0,496.077,694.3L496.2,75.67a37.392,37.392,0,0,0-11.885-27.281,42.154,42.154,0,0,0-28.882-11.354Z" transform="translate(-147.71 -36.95)"/><path class="e" d="M431.86,37.033H384.01a11.9,11.9,0,0,0-11.671,12.188v8.72a11.9,11.9,0,0,1-11.671,12.188H267.3a11.921,11.921,0,0,1-11.671-12.188V49.154a11.921,11.921,0,0,0-11.671-12.2H185.507a37.713,37.713,0,0,0-37.68,37.8L147.71,681a37.747,37.747,0,0,0,37.647,37.813l246.353.15a37.713,37.713,0,0,0,37.68-37.8L469.507,74.9A37.73,37.73,0,0,0,431.86,37.033Z" transform="translate(-134.685 -23.043)"/><path class="f" d="M432.029,37.182h1.3a28.241,28.241,0,0,1,3.818.3,35.562,35.562,0,0,1,14.155,5,36.68,36.68,0,0,1,8.586,7,37.685,37.685,0,0,1,7.136,11.3,39.1,39.1,0,0,1,2.8,15.322q0,8.353,0,17.79c0,50.3,0,123.093.1,213.025s0,197.036,0,315.945V679.45c0,1.9-.117,3.851-.2,5.785a41.664,41.664,0,0,1-1.084,5.719,38.346,38.346,0,0,1-12.288,19.54,40.965,40.965,0,0,1-10,6.136,38.47,38.47,0,0,1-11.521,2.7l-2.985.15H188.377a39.445,39.445,0,0,1-24.509-6.835,38.515,38.515,0,0,1-14.839-20.674,41.885,41.885,0,0,1-1.551-12.755V76.029c0-1.517.117-3.051.167-4.568a34.084,34.084,0,0,1,.667-4.5,39.2,39.2,0,0,1,7.669-16.106,38.18,38.18,0,0,1,30.729-14.09h56.5a12.088,12.088,0,0,1,12.238,7.753,13.534,13.534,0,0,1,.834,3.7c.1,1.284,0,2.484,0,3.718v7.3a12.171,12.171,0,0,0,2.618,6.436,11.354,11.354,0,0,0,5.685,3.8,26.194,26.194,0,0,0,6.869.434h90.515a10.821,10.821,0,0,0,4.652-1.667,11.971,11.971,0,0,0,5.369-7.586,19.257,19.257,0,0,0,.333-4.585V51.753a27.6,27.6,0,0,1,.183-4.4,12.136,12.136,0,0,1,1.367-4.051,11.954,11.954,0,0,1,5.935-5.4,18.106,18.106,0,0,1,7.469-.834l24.509.117H387.3a18.023,18.023,0,0,0-7.369.85,11.67,11.67,0,0,0-5.785,5.285,12.27,12.27,0,0,0-1.317,3.951,28.771,28.771,0,0,0-.167,4.352v4.518a20.01,20.01,0,0,1-.317,4.652,12.371,12.371,0,0,1-5.5,7.819,11.287,11.287,0,0,1-4.818,1.667c-1.667.117-3.434,0-5.185,0H268.055a12.619,12.619,0,0,1-3.535-.45,11.955,11.955,0,0,1-5.952-3.968,12.921,12.921,0,0,1-2.751-6.669c-.133-2.468,0-4.868,0-7.353v-3.67A12.373,12.373,0,0,0,255,44.618a11.5,11.5,0,0,0-11.671-7.386H186.71A37.6,37.6,0,0,0,156.7,51.12a38.73,38.73,0,0,0-7.536,15.839c-.233,1.467-.5,2.934-.634,4.418a36.812,36.812,0,0,0-.167,4.518V679.074a40.966,40.966,0,0,0,1.517,12.5,37.58,37.58,0,0,0,14.505,20.207,38.5,38.5,0,0,0,24.008,6.669H431.8l2.918-.15a37.323,37.323,0,0,0,11.271-2.651,39.143,39.143,0,0,0,9.853-5.985A37.263,37.263,0,0,0,467.9,690.741a39.786,39.786,0,0,0,1.067-5.585c0-1.9.233-3.785.2-5.7V622.871c0-118.909.1-226,.15-315.945S469.446,144.2,469.5,93.9V76.112a39.03,39.03,0,0,0-2.684-15.239,37.832,37.832,0,0,0-7.069-11.237,36.066,36.066,0,0,0-8.52-7,35.662,35.662,0,0,0-14.055-5,30.25,30.25,0,0,0-3.818-.35Z" transform="translate(-134.854 -23.191)"/><rect class="g" width="160.253" height="53.686" rx="5.77" transform="translate(129.748 354.948)"/><path class="a" d="M176.2,190.153v.9h-6.97V181.2H176v.9h-5.735v3.5h5.1v.9h-5.1v3.651Z" transform="translate(-120.325 73.208)"/><path class="a" d="M174.26,184.56h3.685v.884H174.26Z" transform="translate(-116.969 75.45)"/><path class="a" d="M190.041,185.818V190.1h-1v-4.185c0-1.567-.784-2.384-2.118-2.384a2.4,2.4,0,0,0-2.484,2.684V190.1h-1v-4.185c0-1.567-.784-2.384-2.134-2.384a2.4,2.4,0,0,0-2.484,2.684V190.1h-1v-7.4h.95v1.35a3.034,3.034,0,0,1,2.718-1.417,2.668,2.668,0,0,1,2.634,1.567,3.334,3.334,0,0,1,2.934-1.567,2.8,2.8,0,0,1,2.984,3.184Z" transform="translate(-114.593 74.159)"/><path class="a" d="M192.622,185.525v4.585h-.95v-1.15a2.784,2.784,0,0,1-2.551,1.234c-1.667,0-2.7-.884-2.7-2.167s.717-2.1,2.851-2.1h2.351v-.45c0-1.267-.717-1.951-2.1-1.951a3.818,3.818,0,0,0-2.467.867l-.45-.75a4.735,4.735,0,0,1,3.018-1,2.634,2.634,0,0,1,3,2.884Zm-1,2.367v-1.217H189.3c-1.434,0-1.9.567-1.9,1.334s.684,1.384,1.867,1.384a2.351,2.351,0,0,0,2.351-1.5Z" transform="translate(-108.855 74.151)"/><path class="a" d="M191.64,181.554a.734.734,0,1,1,.734.734.717.717,0,0,1-.734-.734Zm.217,2.351h1.017v7.4h-1.017Z" transform="translate(-105.372 72.955)"/><path class="a" d="M194.05,180.84h1v10.454h-1Z" transform="translate(-103.764 72.968)"/><rect class="h" width="246.253" height="53.269" rx="7.01" transform="translate(43.52 274.932)"/><path class="f" d="M400.745,246.962h.367a5.2,5.2,0,0,0,1.117-.1,11.271,11.271,0,0,0,4.1-1.384,11.669,11.669,0,0,0,4.768-5,11.384,11.384,0,0,0,1.134-4.318v-5.168c0-7.319,0-16.306-.133-26.676a11.57,11.57,0,0,0-3.334-6.986,11.387,11.387,0,0,0-7.519-3.335H382.572l-204.739.133a11.3,11.3,0,0,0-10.771,7.953,26.39,26.39,0,0,0-.5,7.2V234.69a11.817,11.817,0,0,0,.383,3.435,11.2,11.2,0,0,0,3.568,5.7,11.337,11.337,0,0,0,6.119,2.651c2.251.117,4.635,0,6.936,0H223.9l92.016.083,62.039.15h0l-62.039.133-92.016.1H176.583a12.071,12.071,0,0,1-10.42-8.6,12.991,12.991,0,0,1-.4-3.651V205.6a13.806,13.806,0,0,1,.534-3.768,12.188,12.188,0,0,1,11.671-8.57l204.689.117h18.69A11.9,11.9,0,0,1,412.7,204.1c.1,10.454,0,19.374,0,26.676v5.185a11.754,11.754,0,0,1-1.2,4.418,11.57,11.57,0,0,1-4.918,5.1A10.968,10.968,0,0,1,402.4,246.8a10,10,0,0,1-1.655.162Z" transform="translate(-122.643 81.255)"/><path class="i" d="M402.8,422.5a10.07,10.07,0,0,0,1.5-.167,9.653,9.653,0,0,0,4-1.667,9.47,9.47,0,0,0,3.785-5.819,23.329,23.329,0,0,0,.184-4.535c0-1.667,0-3.335,0-5.235,0-7.386,0-16.406-.083-26.876a9.387,9.387,0,0,0-3.334-6.919,9.12,9.12,0,0,0-3.668-1.867,15.757,15.757,0,0,0-4.285-.3h-18.84l-206.223.117a9.253,9.253,0,0,0-6.469,2.668,9.086,9.086,0,0,0-2.718,6.419v33.028a15.916,15.916,0,0,0,.217,3.484,9.153,9.153,0,0,0,3.7,5.552,9.3,9.3,0,0,0,3.068,1.4,13.54,13.54,0,0,0,3.418.284h47.667l92.716.1,62.505.134,16.989.083h0l-16.989.083-62.555.35-92.716.1H177.005a13.443,13.443,0,0,1-3.618-.3,9.67,9.67,0,0,1-3.334-1.517A10,10,0,0,1,166,415.027a16.2,16.2,0,0,1-.233-3.668V378.314a10,10,0,0,1,10-10l206.223.133h18.84a15.78,15.78,0,0,1,4.418.334,9.718,9.718,0,0,1,3.868,1.984,10,10,0,0,1,3.5,7.3v32.128a24.055,24.055,0,0,1-.217,4.585,9.753,9.753,0,0,1-3.951,5.919,9.623,9.623,0,0,1-4.085,1.667,7.444,7.444,0,0,1-1.567.133Z" transform="translate(-122.649 198.058)"/><path class="i" d="M317.262,384.884c0,.233-24.925.434-55.669.434s-55.653-.2-55.653-.434,24.909-.434,55.653-.434S317.262,384.65,317.262,384.884Z" transform="translate(-95.83 208.827)"/><path class="i" d="M427.579,153.393c0,.25-58.637.433-130.946.433s-130.963-.183-130.963-.433,58.621-.433,130.963-.433S427.579,153.16,427.579,153.393Z" transform="translate(-122.701 54.365)"/><path class="i" d="M427.579,351.023c0,.234-58.637.434-130.946.434s-130.963-.2-130.963-.434,58.621-.433,130.963-.433S427.579,350.79,427.579,351.023Z" transform="translate(-122.701 186.234)"/><g transform="translate(62.21 295.364)"><path class="j" d="M184.029,210.731v4.235h-1v-4.2A2.084,2.084,0,0,0,180.8,208.4a2.434,2.434,0,0,0-2.584,2.684v3.885h-1V207.63h.95V209a3.118,3.118,0,0,1,2.818-1.434,2.851,2.851,0,0,1,3.051,3.168Z" transform="translate(-177.21 -204.57)"/><path class="j" d="M188.779,210.483V215h-.967v-1.15a2.768,2.768,0,0,1-2.551,1.234c-1.667,0-2.7-.884-2.7-2.167s.733-2.1,2.851-2.1h2.368v-.45c0-1.267-.717-1.951-2.1-1.951a3.751,3.751,0,0,0-2.467.867l-.45-.75a4.668,4.668,0,0,1,3.018-1,2.634,2.634,0,0,1,3,2.951Zm-1,2.367v-1.184h-2.334c-1.434,0-1.9.567-1.9,1.317s.684,1.4,1.867,1.4a2.384,2.384,0,0,0,2.368-1.534Z" transform="translate(-173.64 -204.605)"/><path class="j" d="M200.158,210.731v4.235h-1v-4.2c0-1.551-.8-2.368-2.134-2.368a2.4,2.4,0,0,0-2.484,2.684v3.885h-1v-4.2c0-1.551-.784-2.368-2.134-2.368a2.4,2.4,0,0,0-2.484,2.684v3.885h-1V207.63h.95v1.35a3.034,3.034,0,0,1,2.718-1.417,2.7,2.7,0,0,1,2.651,1.567,3.234,3.234,0,0,1,2.918-1.567,2.8,2.8,0,0,1,3,3.168Z" transform="translate(-170.064 -204.57)"/><path class="j" d="M203.631,211.635h-6.2a2.718,2.718,0,0,0,2.918,2.568,2.918,2.918,0,0,0,2.268-.967l.567.65a3.918,3.918,0,0,1-6.669-2.567,3.607,3.607,0,1,1,7.2,0Zm-6.2-.75h5.252a2.634,2.634,0,0,0-5.252,0Z" transform="translate(-164.334 -204.574)"/><path class="j" d="M214.635,212.268c0,2.4-.884,3.818-2.334,3.818a1.5,1.5,0,0,1-1.584-1.551,3.134,3.134,0,0,1-2.818,1.551,3.651,3.651,0,0,1,0-7.286,3.151,3.151,0,0,1,2.784,1.484v-1.417h.917v5.4c0,.784.4,1.067.867,1.067.884,0,1.45-1.084,1.45-2.984a5.368,5.368,0,0,0-5.8-5.5,5.669,5.669,0,1,0,0,11.321,6.318,6.318,0,0,0,2.7-.617l.233.684a6.669,6.669,0,0,1-2.934.65,6.386,6.386,0,1,1,0-12.771,6.1,6.1,0,0,1,6.519,6.152Zm-3.935.167a2.684,2.684,0,1,0-2.684,2.818,2.634,2.634,0,0,0,2.684-2.818Z" transform="translate(-160.849 -205.54)"/><path class="j" d="M222.978,210.731v4.235h-1v-4.2c0-1.551-.784-2.368-2.134-2.368a2.384,2.384,0,0,0-2.468,2.684v3.885h-1v-4.2c0-1.551-.8-2.368-2.151-2.368a2.4,2.4,0,0,0-2.484,2.684v3.885h-1V207.63h.967v1.35a3.018,3.018,0,0,1,2.718-1.417,2.668,2.668,0,0,1,2.634,1.567,3.334,3.334,0,0,1,2.934-1.567,2.8,2.8,0,0,1,2.984,3.168Z" transform="translate(-154.837 -204.57)"/><path class="j" d="M225.559,210.483V215h-.967v-1.15a2.767,2.767,0,0,1-2.551,1.234c-1.667,0-2.7-.884-2.7-2.167s.734-2.1,2.868-2.1h2.351v-.45c0-1.267-.717-1.951-2.1-1.951a3.751,3.751,0,0,0-2.467.867l-.45-.75a4.736,4.736,0,0,1,3.018-1,2.634,2.634,0,0,1,3,2.951Zm-1,2.367v-1.184h-2.334c-1.434,0-1.9.567-1.9,1.317s.7,1.4,1.884,1.4a2.384,2.384,0,0,0,2.351-1.534Z" transform="translate(-149.099 -204.605)"/><path class="j" d="M224.57,206.474a.717.717,0,1,1,.216.513.717.717,0,0,1-.216-.513Zm.217,2.351h1v7.336h-1Z" transform="translate(-145.609 -205.765)"/><path class="j" d="M227,205.77h1v10.387h-1Z" transform="translate(-143.987 -205.761)"/><path class="j" d="M228.86,211.927a.75.75,0,0,1,.75-.767.767.767,0,0,1,.75.767.784.784,0,0,1-.75.784.767.767,0,0,1-.75-.784Z" transform="translate(-142.746 -202.165)"/><path class="j" d="M230.471,211.33a3.651,3.651,0,0,1,3.818-3.768,3.335,3.335,0,0,1,2.9,1.467l-.75.517a2.5,2.5,0,0,0-2.151-1.1,2.884,2.884,0,0,0,0,5.769,2.484,2.484,0,0,0,2.151-1.084l.75.517a3.334,3.334,0,0,1-2.9,1.467,3.668,3.668,0,0,1-3.818-3.785Z" transform="translate(-141.673 -204.569)"/><path class="j" d="M235.151,211.321a3.768,3.768,0,1,1,3.768,3.785,3.651,3.651,0,0,1-3.768-3.785Zm6.519,0a2.751,2.751,0,1,0-2.751,2.884,2.7,2.7,0,0,0,2.751-2.884Z" transform="translate(-138.55 -204.561)"/><path class="j" d="M253.138,210.731v4.235h-1v-4.2c0-1.551-.8-2.368-2.134-2.368a2.4,2.4,0,0,0-2.484,2.684v3.885h-1v-4.2c0-1.551-.784-2.368-2.134-2.368a2.4,2.4,0,0,0-2.484,2.684v3.885h-1V207.63h.95v1.35a3.034,3.034,0,0,1,2.718-1.417,2.7,2.7,0,0,1,2.651,1.567,3.234,3.234,0,0,1,2.918-1.567,2.8,2.8,0,0,1,3,3.168Z" transform="translate(-134.713 -204.57)"/></g><path class="f" d="M175.356,83.808a.75.75,0,0,1-.533-.217l-7.836-6.869a.817.817,0,0,1,0-1.25l7.836-6.5a.8.8,0,0,1,1.15.1.817.817,0,0,1-.1,1.167l-7,5.885,7.1,6.236a.817.817,0,0,1,.083,1.167.867.867,0,0,1-.7.283Z" transform="translate(-122.016 -1.81)"/><path class="f" d="M311.63,74.955a4.185,4.185,0,1,1-4.185-4.185A4.185,4.185,0,0,1,311.63,74.955Z" transform="translate(-30.893 -0.477)"/><path class="f" d="M318.87,74.955a4.185,4.185,0,1,1-1.232-2.965,4.185,4.185,0,0,1,1.232,2.965Z" transform="translate(-26.062 -0.477)"/><path class="f" d="M326.11,74.955a4.185,4.185,0,1,1-4.168-4.185A4.185,4.185,0,0,1,326.11,74.955Z" transform="translate(-21.231 -0.477)"/><path d="M-66.365,2.8l2.105-1.418V-8.98l3.395-.859V3.19L-64.5,5.618Zm8.293.011L-53.818,0h-.87a4.094,4.094,0,0,1-2.068-.655,5.325,5.325,0,0,1-1.778-1.783,4.681,4.681,0,0,1-.709-2.524,4.875,4.875,0,0,1,.671-2.5,5,5,0,0,1,1.815-1.821,4.847,4.847,0,0,1,2.5-.671h5.006V1.021L-56.192,5.64Zm5.425-6.2V-6.6h-1.611a1.531,1.531,0,0,0-.806.22,1.652,1.652,0,0,0-.58.585A1.54,1.54,0,0,0-55.859-5a1.589,1.589,0,0,0,.215.811,1.6,1.6,0,0,0,.58.585,1.56,1.56,0,0,0,.806.215Zm2.288,0h2.191l.6,1.7L-48.168,0h-2.191Zm1.59,1.7.6-1.7h4.136l.6,1.74L-44.032,0h-4.136Zm4.136,0,.6-1.7H-39.9l.6,1.74L-39.9,0h-4.136Zm4.136,0,.6-1.7h4.136l.6,1.74L-35.761,0H-39.9ZM-35.8,0l-.559-1.687.569-1.7h.032a1.569,1.569,0,0,0,.8-.215,1.625,1.625,0,0,0,.591-.585A1.559,1.559,0,0,0-34.149-5v-4l3.384-.838V-5a1.589,1.589,0,0,0,.215.811,1.6,1.6,0,0,0,.58.585,1.54,1.54,0,0,0,.795.215l.612,1.7L-29.176,0a4.682,4.682,0,0,1-1.789-.349,4.683,4.683,0,0,1-1.5-.972,4.828,4.828,0,0,1-1.5.972A4.669,4.669,0,0,1-35.761,0Zm-.849,2.2h2.761V4.855h-2.761Zm6.875-3.889.6-1.7h1.332V-5a4.827,4.827,0,0,1,.671-2.487A5,5,0,0,1-25.352-9.3a4.875,4.875,0,0,1,2.5-.671h2.986v3.384h-2.986a1.54,1.54,0,0,0-.795.215,1.609,1.609,0,0,0-.58.58A1.54,1.54,0,0,0-24.438-5v1.611h4.716V0h-9.453ZM-17.316,2.8l2.105-1.418V-8.98l3.395-.859V3.19l-3.631,2.428Zm7.09-2.8a2.634,2.634,0,0,1-1.66-.693,5.683,5.683,0,0,1-1.391-1.7,3.962,3.962,0,0,1-.548-1.869L-11.816-5a1.589,1.589,0,0,0,.215.811,1.6,1.6,0,0,0,.58.585,1.54,1.54,0,0,0,.795.215l.591,1.7Zm-4.522-14.674h2.761v2.653h-2.761ZM-10.291,0l-.548-1.7.559-1.687h.043a1.539,1.539,0,0,0,.8-.22,1.668,1.668,0,0,0,.591-.591,1.539,1.539,0,0,0,.22-.8v-5h4.984a4.875,4.875,0,0,1,2.5.671A4.989,4.989,0,0,1,.682-7.5,4.875,4.875,0,0,1,1.354-5a4.875,4.875,0,0,1-.671,2.5A4.989,4.989,0,0,1-1.139-.671,4.875,4.875,0,0,1-3.642,0,4.56,4.56,0,0,1-5.43-.36a4.836,4.836,0,0,1-1.5-.983,4.794,4.794,0,0,1-1.509.988,4.647,4.647,0,0,1-1.8.354Zm6.649-3.384a1.531,1.531,0,0,0,.806-.22,1.638,1.638,0,0,0,.58-.591A1.569,1.569,0,0,0-2.041-5a1.569,1.569,0,0,0-.215-.8,1.6,1.6,0,0,0-.58-.585A1.56,1.56,0,0,0-3.642-6.6h-1.59V-5a1.569,1.569,0,0,0,.215.8,1.638,1.638,0,0,0,.58.591A1.511,1.511,0,0,0-3.642-3.384ZM1.525,2.8,3.631,1.386V-8.98L7.025-9.84V3.19L3.395,5.618Zm14.889,3.33a4.875,4.875,0,0,1-2.5-.671A4.989,4.989,0,0,1,12.09,3.642a4.875,4.875,0,0,1-.671-2.5V-5.049L14.8-5.887V1.139A1.6,1.6,0,0,0,16.414,2.75h6.134a1.54,1.54,0,0,0,.795-.215,1.612,1.612,0,0,0,.795-1.4,1.169,1.169,0,0,0-.247-.73,1.064,1.064,0,0,0-.6-.408h-5.6l.7-3.384h10.28l.6,1.7L28.671,0h-1.3a4.323,4.323,0,0,1,.161,1.139,4.875,4.875,0,0,1-.671,2.5,5,5,0,0,1-1.815,1.821,4.847,4.847,0,0,1-2.5.671Zm11.655-7.82.591-1.7h1.547a1.569,1.569,0,0,0,.8-.215,1.584,1.584,0,0,0,.585-.585A1.589,1.589,0,0,0,31.808-5v-4l3.384-.838V-5a4.875,4.875,0,0,1-.671,2.5A5,5,0,0,1,32.7-.671a4.847,4.847,0,0,1-2.5.671H28.66ZM30.422,2.2h2.761V4.855H30.422ZM42.249,0a4.847,4.847,0,0,1-2.5-.671,5,5,0,0,1-1.815-1.821A4.875,4.875,0,0,1,37.265-5v-9.539l3.373-.849V-5a1.559,1.559,0,0,0,.22.811,1.625,1.625,0,0,0,.591.585,1.569,1.569,0,0,0,.8.215l.6,1.7Zm-.086,0-.516-1.687.559-1.7h.043a1.54,1.54,0,0,0,.795-.215,1.6,1.6,0,0,0,.58-.585A1.589,1.589,0,0,0,43.839-5v-4l3.405-.838V-5a4.875,4.875,0,0,1-.671,2.5A4.989,4.989,0,0,1,44.752-.671a4.875,4.875,0,0,1-2.5.671Zm3.416,4.813h-5.79V2.2h5.79ZM47.416,2.8l2.105-1.418V-8.98l3.395-.859V3.19L49.285,5.618ZM50-14.674h2.761v2.653H50ZM60.07,0a4.847,4.847,0,0,1-2.5-.671,5,5,0,0,1-1.815-1.821A4.875,4.875,0,0,1,55.086-5v-9.539l3.373-.849V-5a1.559,1.559,0,0,0,.22.811,1.625,1.625,0,0,0,.591.585,1.569,1.569,0,0,0,.8.215l.6,1.7Zm.118,0-.516-1.687.559-1.7h.043a1.54,1.54,0,0,0,.795-.215,1.6,1.6,0,0,0,.58-.585A1.589,1.589,0,0,0,61.864-5v-4l3.405-.838V-5a4.875,4.875,0,0,1-.671,2.5A4.989,4.989,0,0,1,62.777-.671a4.875,4.875,0,0,1-2.5.671Zm-.795,2.2h2.761V4.855H59.394Z" transform="translate(177.808 173.877)"/></g><g transform="translate(-77.731 189.872)"><path class="k" d="M193.9,329.51l-5,30.043-33.949,183.3H149.48l24.681-183.3,3.652-30.043Z" transform="translate(-9.968 -0.622)"/><path class="l" d="M153.132,329.51H169.22l-5,30.043H149.48Z" transform="translate(14.713 -0.622)"/><path class="k" d="M143.411,542.852h-5.468l-33.949-183.3-5-30.043h16.088l3.652,30.043Z" transform="translate(147.119 -0.622)"/><path class="l" d="M126.768,329.51l3.652,30.043H115.684l-5-30.043Z" transform="translate(135.429 -0.622)"/><path class="k" d="M95.191,542.852H89.723l-33.949-183.3-5-30.043H66.858l3.652,30.043Z" transform="translate(297.144 -0.622)"/><path class="l" d="M82.2,359.553H67.464l-5-30.043H78.548Z" transform="translate(285.454 -0.622)"/><path class="k" d="M303.586,421.812H54.88v-26.2h93.106L179.275,259.14H294.106Z" transform="translate(80.072 -78.821)"/><path class="l" d="M77.28,421.812H63.726L54.88,259.14H67.8Z" transform="translate(306.377 -78.821)"/><path class="m" d="M109.892,521.06c4.687.591,132.735-29.283,136.894-33.315.507-.443-3.99-25.229-3.99-25.229C240.684,452.4,205.891,370,205.891,370l-83.8,20.648,35.554,76.47s-15.961,10.809-29.684,21.112a185.089,185.089,0,0,0-17.355,13.892C106.535,507.1,105.205,520.511,109.892,521.06Z" transform="translate(26.96 44.372)"/><path class="h" d="M246.8,455.918c-4.223,4.032-132.228,33.907-136.915,33.315s-3.357-13.955.7-18.832a186.184,186.184,0,0,1,17.354-13.871h0c13.7-10.3,29.663-21.112,29.663-21.112L149.744,418.4l81.114-19.761c6.144,15.307,11.19,28.481,11.929,32.154C242.787,430.71,247.306,455.475,246.8,455.918Z" transform="translate(26.968 76.199)"/><path class="b" d="M109.528,482.17c4.835.507,133.938-28.418,138.139-32.64,1.626-1.583-1.5-20.606-5.933-43.492a1.263,1.263,0,0,0-.148-.718l-83.479,17.735.338,1.415S114,457.616,109.887,462.746,104.778,481.684,109.528,482.17Z" transform="translate(26.859 83.622)"/><path class="a" d="M109.894,454.413c21.64-5.4,109.426-25.187,131.236-28.9.169,0,.19,0,0,.127-21.324,5.848-109.279,24.913-131.193,29.135C109.45,454.856,109.45,454.519,109.894,454.413Z" transform="translate(26.937 106.058)"/><path class="a" d="M140.735,416.422c8.213-3.526,19-4.56,26.876,0,.317.19,0,.612-.253.591a123.553,123.553,0,0,0-26.349.422.57.57,0,0,1-.274-1.013Z" transform="translate(35.111 92.576)"/><path class="a" d="M143.275,418.843c8.192-3.526,19-4.56,26.876,0,.317.19,0,.612-.253.591a124.939,124.939,0,0,0-26.348.4.549.549,0,0,1-.274-.992Z" transform="translate(27.23 95.265)"/><path class="a" d="M145.774,421.244c8.192-3.5,19-4.539,26.876,0,.317.19,0,.612-.253.591a123.562,123.562,0,0,0-26.348.4.57.57,0,0,1-.275-.992Z" transform="translate(19.39 97.952)"/><path class="a" d="M146.484,409.35c2.322-5.384,9.057-4.708,13.3-2.512a46.7,46.7,0,0,1,17.587,16.637.211.211,0,0,1-.127.338,1.077,1.077,0,0,1-1.1,1.372c-7.664-1.013-15.982-1.182-23.1-4.518C148.912,418.7,144.288,414.438,146.484,409.35Zm18.368,11.908c3.758.591,7.516,1.013,11.253,1.752a139.657,139.657,0,0,0-10.556-9.5,51.21,51.21,0,0,0-5.637-3.864c-3.061-1.752-14.251-4.412-10.556,4.624,1.963,4.982,11,6.27,15.5,6.988Z" transform="translate(14.035 83.498)"/><path class="a" d="M156.633,418.553c-6.334,4.581-14.547,6.334-21.873,8.656a1.1,1.1,0,0,1-1.351-1.14.228.228,0,0,1-.19-.317,46.785,46.785,0,0,1,14.251-19.571c3.779-2.935,10.282-4.813,13.554,0S160.349,415.872,156.633,418.553Zm2.491-6.967c1.9-9.543-8.614-4.9-11.316-2.618a49.994,49.994,0,0,0-4.835,4.856,138.271,138.271,0,0,0-8.572,11.232c3.526-1.415,7.157-2.491,10.725-3.758C149.413,419.778,158.069,416.864,159.124,411.586Z" transform="translate(56.055 81.304)"/><path class="n" d="M194.98,451.978c-20.289,4.434-36.018,7.6-37.644,7.432-4.856-.486-3.779-14.335.338-19.445a184.768,184.768,0,0,1,16.89-14.145Z" transform="translate(-20.844 106.403)"/><path class="o" d="M155.957,574.387l88.863-20.944s-74.147-169.977-67.56-178.612c3.272-4.328,86.012-5.6,112.319-27.89,34.181-28.966,11.253-73.218,11.253-73.218L208.337,271s1.119,19.3-2.491,22.189c-2.365,1.942-112.467,11.211-124.564,48.3C66.461,386.992,155.957,574.387,155.957,574.387Z" transform="translate(23.057 -65.642)"/><path class="a" d="M114.133,419.06c2.322-1.1,25.335-7.854,30.508-9.163,10.387-2.66,20.817-5.278,31.268-7.664,5.468-1.246,17.165-3.948,17.882-3.821.338,0,.4.633,0,.739-10.134,3.336-20.416,6.165-30.7,9.036S117.4,419.567,114.3,419.778C114.07,419.8,113.69,419.208,114.133,419.06Z" transform="translate(64.923 75.941)"/><path class="a" d="M86.529,362.422A14.251,14.251,0,0,1,93.5,360.31l40.114-6.693c12.478-2.111,25.039-3.948,37.454-6.334,10.282-1.985,20.754-4.666,29.558-10.24a42.9,42.9,0,0,0,18.174-23.75,76.785,76.785,0,0,0,2.344-30.444c-.232-2.491-.7-4.961-1.161-7.411a.15.15,0,0,1,.3,0c3.4,19,3.695,40.874-10.556,55.969-6.925,7.347-16.426,11.654-26.116,14.462A297.078,297.078,0,0,1,150,352.393l-40.114,6.672c-6.334,1.077-12.942,1.9-19.318,3.23a6.65,6.65,0,0,0-3.462,1.541,4.919,4.919,0,0,0-.57,4.624c.633,3.146,1.5,6.334,2.386,9.332C96.2,402.641,149.951,529.38,151.386,532.1a.253.253,0,0,1-.443.232C138.7,510.547,98.478,410.79,90.392,387.292a150.235,150.235,0,0,1-5.236-18.283C84.924,366.6,84.565,364.09,86.529,362.422Z" transform="translate(97.911 -60.896)"/><path class="m" d="M167.594,512.675c4.476,1.5,132.629-.3,137.506-3.42,5.341-5.088,7.622-126,7.622-126l-82.444-.676-5.151,86.815s-17.8,7.41-33.295,14.779h0a186.3,186.3,0,0,0-19.761,10.155C167.066,498.319,163.118,511.2,167.594,512.675Z" transform="translate(-162.906 58.352)"/><path class="h" d="M311.563,416.78c-1.224,27.172-2.977,52.232-5.363,54.47-4.877,3.125-133.009,4.94-137.527,3.42s-.528-14.335,4.434-18.3a185.211,185.211,0,0,1,19.782-10.155h0c15.5-7.368,33.295-14.779,33.295-14.779l.866-14.61Z" transform="translate(-163.986 96.357)"/><path class="b" d="M168.768,469.154c4.645,1.541,136.936.908,141.94-2.322,1.942-1.182,2.977-20.437,3.547-43.745v-.739l-85.337-.528v1.436S178.4,446.12,173.244,450.237,164.145,467.655,168.768,469.154Z" transform="translate(-166.72 101.957)"/><path class="a" d="M171.561,442.2c22.295-.654,112.3-1.182,134.381-.148.19,0,.19.148,0,.148-22.084,1.14-112.086.929-134.381.38C171.1,442.6,171.1,442.216,171.561,442.2Z" transform="translate(-168.035 123.787)"/><path class="a" d="M199.612,422.351c8.762-1.668,19.508-.38,26.243,5.827.253.253,0,.612-.38.528a123.637,123.637,0,0,0-25.842-5.236.57.57,0,0,1-.021-1.119Z" transform="translate(-146.915 101.807)"/><path class="a" d="M202.6,424.121c8.783-1.668,19.508-.38,26.243,5.827.274.253,0,.612-.359.528a123.636,123.636,0,0,0-25.842-5.236.57.57,0,0,1-.042-1.119Z" transform="translate(-156.235 103.773)"/><path class="a" d="M205.589,425.941c8.783-1.668,19.508-.38,26.243,5.827.274.253,0,.612-.359.528a123.633,123.633,0,0,0-25.842-5.236.57.57,0,0,1-.042-1.119Z" transform="translate(-165.538 105.796)"/><path class="a" d="M205.49,414.409c3.42-4.771,9.86-2.66,13.533.4A46.743,46.743,0,0,1,232.641,434.8a.232.232,0,0,1-.211.317,1.077,1.077,0,0,1-1.372,1.1c-7.263-2.639-15.349-4.56-21.577-9.353C205.849,424.057,202.239,418.906,205.49,414.409Zm15.37,15.56c3.547,1.393,7.136,2.6,10.556,4.117A133.764,133.764,0,0,0,223.2,422.58a49.788,49.788,0,0,0-4.666-5c-2.618-2.365-12.984-7.368-11.4,2.238C208.087,425.113,216.659,428.322,220.86,429.969Z" transform="translate(-164.299 90.6)"/><path class="a" d="M214.489,429.613c-7.2,3.1-15.518,3-23.224,3.779a1.14,1.14,0,0,1-1.077-1.415.232.232,0,0,1,0-.359A46.787,46.787,0,0,1,208.3,415.573c4.328-2.111,11.063-2.512,13.216,2.935S218.712,427.8,214.489,429.613Zm3.948-6.334c3.906-8.931-7.368-6.629-10.556-4.983a51.366,51.366,0,0,0-5.764,3.695,139.343,139.343,0,0,0-10.788,9.142c3.758-.612,7.516-.887,11.3-1.372,4.56-.507,13.66-1.5,15.813-6.418Z" transform="translate(-123.874 93.405)"/><path class="o" d="M73.53,590.99h92.9s-1.161-167.781,6.123-177.071c9.712-12.414,145.677-12.14,174.833-52.591,26.18-36.356,4.075-87.786,4.075-87.786L248.489,270.48a214.709,214.709,0,0,0,9.543,32.387S134.017,325.731,99.266,363.713C75.916,389.386,73.53,590.99,73.53,590.99Z" transform="translate(-15.892 -66.22)"/><path class="a" d="M114.9,282.491a50.507,50.507,0,0,1,8.72,2.787q4.434,1.71,8.719,3.8a174.009,174.009,0,0,1,16.278,9.205c.169,0,0,.317-.169.232-5.553-2.892-11.316-5.489-17.08-7.959l-8.318-3.589a85.314,85.314,0,0,1-8.445-3.716.422.422,0,0,1,.3-.76Z" transform="translate(109.227 -52.875)"/><path class="a" d="M121.356,270.639c1.182,4.687,2.111,9.416,3.568,14.082a57.121,57.121,0,0,0,2.111,6.334c.676,1.731,1.71,3.737,3.737,4.117s3-1.541,2.808-3.463-.76-4.223-1.182-6.334c-.486-2.428-.992-4.877-1.436-7.3-.211-1.224-.443-2.449-.654-3.673a31.22,31.22,0,0,0-.443-3.336.1.1,0,0,1-.127.106h0s-.148,0-.148-.127a.424.424,0,0,1,.127-.359c.127-.127.127,0,.211,0,.443.253.464.866.612,1.309.38,1.182.76,2.386,1.119,3.568.654,2.238,1.288,4.5,1.858,6.756s1.119,4.518,1.668,6.777a10.556,10.556,0,0,1,.464,5.215,4.011,4.011,0,0,1-3.7,3.019l.253.443c.211.464.359.95.528,1.436s.338.971.486,1.457a4.511,4.511,0,0,1,.127.739v.8c0,.274-.528.676-.739.274a7.445,7.445,0,0,0-.443-.676,4.351,4.351,0,0,1-.338-.781,13.82,13.82,0,0,1-.4-1.415c-.1-.486-.274-.95-.359-1.436a5.725,5.725,0,0,1,0-.866,5.279,5.279,0,0,1-2.724-1.035,9.078,9.078,0,0,1-2.808-4.223c-.7-1.942-1.246-3.969-1.795-5.975a85.907,85.907,0,0,1-3-15.117C120.47,270.28,121.23,270.09,121.356,270.639Z" transform="translate(108.94 -66.399)"/><path class="a" d="M83.019,276c.422,2.322.7,4.687,1.246,6.988s1.14,4.518,1.879,6.714a23.815,23.815,0,0,0,2.871,6.059,22.635,22.635,0,0,0,4.56,4.645,38.767,38.767,0,0,0,11.042,6.123,50.9,50.9,0,0,0,6.123,1.795,31.024,31.024,0,0,0,3.272.591,6.884,6.884,0,0,1,2.639.591.549.549,0,0,1,0,.929,9.774,9.774,0,0,1-4.877.148,39.012,39.012,0,0,1-5.215-.908,38,38,0,0,1-9.86-4.222,30.89,30.89,0,0,1-8.361-6.672,23.223,23.223,0,0,1-4.413-9.648,47.187,47.187,0,0,1-1.436-13.09C82.6,275.788,82.976,275.746,83.019,276Z" transform="translate(208.504 -60.275)"/><path class="a" d="M80.651,470.082q1.372-21.915,3.631-43.724c.38-3.589.739-7.2,1.182-10.767A33.081,33.081,0,0,1,87.28,407.4c2.111-5.468,6.693-8.234,12.2-9.606,6.5-1.647,13.238-2.639,19.846-3.7s13.554-2.111,20.353-3.019c13.744-1.921,27.446-3.7,41.191-6A326.169,326.169,0,0,0,221.3,376c12.161-3.674,24.638-8.213,34.371-16.637,20.965-18.136,21.725-48.559,19.17-73.894-.359-3.589-.8-7.157-1.246-10.746a.15.15,0,0,1,.3,0c1.647,14.314,3.589,28.734,2.111,43.154a70.579,70.579,0,0,1-11.443,33.442c-7.094,10.155-17.608,16.721-28.945,21.3A228.168,228.168,0,0,1,197.045,383.7c-27.172,5.7-54.893,8.107-82.233,12.773-3.378.57-6.735,1.182-10.092,1.837a42.5,42.5,0,0,0-9.12,2.457c-6.207,2.766-7.917,8.8-8.677,15.053-1.795,14.483-3,29.051-4.054,43.619-2.111,29.325-3.23,58.82-3.188,88.229v19.487c0,.317-.486.275-.486,0C78.413,537.516,78.793,499.492,80.651,470.082Z" transform="translate(56.602 -61.685)"/><path class="a" d="M168.362,415.866c21.113-1.436,81.621-.844,82.339-.549.317.148.232.718-.106.739-10.556.76-79.066,1.119-82.128.57C168.13,416.563,168,415.887,168.362,415.866Z" transform="translate(-106.375 94.315)"/><path class="a" d="M261.128,286.011a346.423,346.423,0,0,0-56.159,11.506,393.263,393.263,0,0,0-54.2,19.614c-9.859,4.413-19.4,9.353-28.84,14.547-.19.105,0,.38.169.3a435.313,435.313,0,0,1,52.781-22.991,427.152,427.152,0,0,1,54.893-15.919c10.556-2.28,21.113-4.054,31.669-5.806C262.036,287.024,261.846,285.821,261.128,286.011Z" transform="translate(-19.537 -48.984)"/><path class="a" d="M139.638,382.049c.654-10.092,1.71-20.184,3.357-30.191.676-4.033.844-9.247,5.088-11.253,1.963-.95,41.359-7.791,47.018-7.685a.275.275,0,0,1,.127.507c-.528.232-38,7.3-42.732,8.445a7.473,7.473,0,0,0-5.257,2.745,19.213,19.213,0,0,0-1.584,6.482,416.248,416.248,0,0,0-5.236,59.3q-.232,8.276-.274,16.489c0,5.658.19,11.38-.232,17a.465.465,0,1,1-.929,0c-.422-5.109-.274-10.324-.3-15.454s0-10.3,0-15.475C138.709,402.634,138.942,392.331,139.638,382.049Z" transform="translate(11.38 3.167)"/><path class="p" d="M240.626,238.246c-26.623,35.406-89.855,85.189-104.7,73.6-18.241-14.23-14.779-66.589-15.243-73.324-.4-7.2,59.411-5.384,57,1.963-1.414,4.349-2.111,9.015-.95,8.572,3.526-1.393,11.359-8.445,45.329-27.446C240.963,210.99,258.255,214.811,240.626,238.246Z" transform="translate(-3.236 -126.775)"/><path class="b" d="M119.177,242.571l14,13.744,17.566,17.228s19.994-19.381,28.65-35.364c6.334-11.76,6.545-21.683.253-23.836a14.1,14.1,0,0,0-9.374.887C147.615,223.7,119.177,242.571,119.177,242.571Z" transform="translate(63.658 -129.073)"/><path class="a" d="M133.482,225.8c5.6,5.109,25.863,24.047,27.446,27.446,0,0-.148.253-.232.232-3.294-1.6-22.422-21.683-27.552-27.235C133.06,226.03,133.376,225.713,133.482,225.8Z" transform="translate(57.524 -115.889)"/><path class="q" d="M119.177,256.092l17.566,17.228s19.994-19.381,28.65-35.363c6.334-11.76,6.545-21.683.253-23.836Z" transform="translate(77.656 -128.85)"/><path class="p" d="M153.087,221.443c-3.378,11.464-1.119,37.622,1.837,43.724s47.588,3.758,51.557-1.985,12.372-45.223,7.748-56.518S156.634,209.557,153.087,221.443Z" transform="translate(-35.701 -141.726)"/><path class="p" d="M153.263,202.05c1.921-5.194,11.3-20.078,15.813-18.347s.486,13.512-1.288,18.241c-3.7,9.733-3.568,24.11-3.4,31.078s-16.109,0-16.109,0S148.238,215.541,153.263,202.05Z" transform="translate(15.321 -162.805)"/><path class="p" d="M211.354,230.977s.633,12.266-5.89,14.779-8.8-7.3-8.994-7.981c0,.633.317,11.929-6.524,13.808s-7.938-8.234-7.98-8.888c-.169.612-2.512,8.8-8,9.057-9.48.422-4.075-20.669-8.255-27.109,0,0-11.717,5.848-12.076,5.954,0,0,4.729-20.184,13.7-25.335a6.608,6.608,0,0,1,8.213,1.161s.8-6.672,6.144-8.318c2.723-.845,6.5,2.787,6.5,2.787a8.276,8.276,0,0,1,5.7-6.482c3.842-.95,7.558,2.766,8.445,4.413C209.707,211.512,211.354,230.977,211.354,230.977Z" transform="translate(-36.204 -150.922)"/><path class="a" d="M153.556,195.94h.169a58.967,58.967,0,0,1,9.839,33.653.35.35,0,0,1-.7,0,120.638,120.638,0,0,0-9.308-33.653Z" transform="translate(11.756 -149.052)"/><path class="a" d="M160.27,197.394c0-.106.148-.211.232,0a55.167,55.167,0,0,1,8.445,37.39c0,.464-.612.781-.549.253C169.18,226.044,164.852,207.4,160.27,197.394Z" transform="translate(-8.281 -147.572)"/><path class="a" d="M172.373,237.06c1.562-12.794-1.119-24.807-5.658-36.736,0-.169.169-.232.253-.127,3.8,5.257,5.912,13.153,7.009,19.466a33.78,33.78,0,0,1-1.161,17.46C172.732,237.334,172.331,237.334,172.373,237.06Z" transform="translate(-27.076 -144.379)"/><path class="a" d="M199.257,214.917a38.868,38.868,0,0,1-.929,7.009,13.069,13.069,0,0,1-2.935,6.123,4.223,4.223,0,0,1-2.766,1.288,6.124,6.124,0,0,1-3.082-.612,7.516,7.516,0,0,1-3.568-5.025l-1.246-5.067-.591,5.173a20.8,20.8,0,0,1-1.837,6.65,7.664,7.664,0,0,1-4.434,4.349,4.349,4.349,0,0,1-5.151-1.816,13.09,13.09,0,0,1-1.816-6.334l-.38-6.144-1.647,5.89a20.455,20.455,0,0,1-1.985,4.708,8.149,8.149,0,0,1-3.357,3.357,3.863,3.863,0,0,1-4.1-.422,8.445,8.445,0,0,1-2.238-4.222,66.468,66.468,0,0,1-1.436-10.556c-.169-1.8-.338-3.589-.591-5.384a12.667,12.667,0,0,0-1.562-5.173,13.828,13.828,0,0,1,1.077,5.236c.106,1.773.127,3.568.148,5.384a59.51,59.51,0,0,0,.908,10.873,10.219,10.219,0,0,0,2.533,5.236,5.574,5.574,0,0,0,6.038.844,10.071,10.071,0,0,0,4.223-4.075,21.576,21.576,0,0,0,2.28-5.194l-2.111-.232a15.243,15.243,0,0,0,2.111,7.5,6.334,6.334,0,0,0,3.357,2.639,7.115,7.115,0,0,0,4.223,0,9.585,9.585,0,0,0,5.637-5.489,24.026,24.026,0,0,0,1.9-7.347l-1.837.127a9.036,9.036,0,0,0,4.729,6,7.874,7.874,0,0,0,3.864.57,5.573,5.573,0,0,0,3.462-1.816,13.365,13.365,0,0,0,2.724-6.777,32.346,32.346,0,0,0,.385-7.271Z" transform="translate(-24.107 -134.862)"/><path class="p" d="M169.207,251.85s32.344-39.1,10.873-44.336c-6.334-1.541-34.413-.211-34.266,5.426.211,7.263,12.013,8.909,19.592,8.741,0,0-12.879,11.76-7.368,23.224a12.668,12.668,0,0,0,11.169,6.946Z" transform="translate(4.233 -136.853)"/><path class="a" d="M185.651,208.442a26.368,26.368,0,0,0-7.558-1.583,59.6,59.6,0,0,0-7.769-.169,89.52,89.52,0,0,0-15.454,1.858,13.618,13.618,0,0,0-3.864,1.414,5.342,5.342,0,0,0-1.795,1.541,4.223,4.223,0,0,0-.591,1.161,4.493,4.493,0,0,0-.148,1.267,6.608,6.608,0,0,0,1.752,4.222,12.541,12.541,0,0,0,3.441,2.491,23.647,23.647,0,0,0,7.727,2.111,54.1,54.1,0,0,0,7.833.3l-.591-1.583a31.2,31.2,0,0,0-3.842,4.56,30.084,30.084,0,0,0-2.892,5.152,20.626,20.626,0,0,0-1.478,5.7,15.328,15.328,0,0,0,.486,5.806,17.186,17.186,0,0,1,.127-5.7,20.228,20.228,0,0,1,1.9-5.32,28.107,28.107,0,0,1,3.04-4.771,31.985,31.985,0,0,1,3.842-4.075l1.752-1.5H169.2a55.781,55.781,0,0,1-7.537-.528,23.225,23.225,0,0,1-7.052-1.985c-2.111-1.056-3.969-2.787-3.99-4.771s2.428-2.787,4.75-3.4a71.561,71.561,0,0,1,7.453-1.457c2.512-.4,5.046-.781,7.579-1.013a49.215,49.215,0,0,1,15.243.274Z" transform="translate(0.415 -137.17)"/><path class="a" d="M168.819,231.65l-1.752,5-1.689,5.025-3.42,9.986c-1.14,3.336-2.3,6.65-3.526,9.944-.612,1.647-1.225,3.294-1.9,4.919s-1.372,3.251-2.111,4.9a67.56,67.56,0,0,0,5.088-9.332c1.478-3.23,2.724-6.566,3.906-9.9s2.111-6.735,3.061-10.155a92.284,92.284,0,0,0,2.343-10.387Z" transform="translate(4.685 -109.37)"/><path class="b" d="M73.178,364.051c3.167,2.534,128.554,3.948,129.082,3.061,1.436-2.407-32.577-116.795-86.034-152.348-9.416-6.334-23.773-1.921-29.98,2.935-3.125,2.449-12.182,20.965-13.428,36.1S71.172,362.426,73.178,364.051Z" transform="translate(145.675 -131.627)"/><path class="r" d="M81.6,293.9v.929c.591-.359,1.2-.76,1.773-1.182a52.146,52.146,0,0,0,11.612-12.668c3.294-4.666,6.334-9.543,9.247-14.357a131.02,131.02,0,0,1,13.977-19.381l.654-.7a53.416,53.416,0,0,1,6.756-5.975,36.482,36.482,0,0,1,31.943-5.553,34.708,34.708,0,0,1,12.668,7.432l-1.541-2.576a34.5,34.5,0,0,0-10.788-5.827,37.517,37.517,0,0,0-17.1-1.056,36.863,36.863,0,0,0-15.708,6.946,53.589,53.589,0,0,0-7.347,6.629c-.232.253-.464.486-.676.739a132.842,132.842,0,0,0-13.554,19c-3,4.835-5.933,9.691-9.184,14.335a51.793,51.793,0,0,1-11.38,12.393C82.468,293.33,82.046,293.626,81.6,293.9Zm11.823,5.4a43.133,43.133,0,0,0,17.207-4.222c10.873-5.173,19.614-13.723,28.333-21.978,3.167-3,6.334-6,9.648-8.825l.528-.464c1.1-.929,2.111-1.837,3.378-2.724a41.845,41.845,0,0,1,16.13-8.234,26.219,26.219,0,0,1,7.031-.633l.486.844a25.338,25.338,0,0,0-7.347.591,41.212,41.212,0,0,0-15.771,8.128c-1.1.844-2.111,1.71-3.209,2.6a5.79,5.79,0,0,0-.549.464c-3.336,2.829-6.524,5.89-9.712,8.91-8.677,8.276-17.46,16.89-28.5,22.21a43.619,43.619,0,0,1-17.629,4.391A45.67,45.67,0,0,1,81.6,299.115c0-.359,0-.7,0-1.056A45.52,45.52,0,0,0,93.425,299.3ZM81.687,269.747c1.288-2.111,2.618-4.223,4.032-6.334a47.482,47.482,0,0,1,11.865-12.351,28.016,28.016,0,0,1,16.362-4.729,21.945,21.945,0,0,1,3.716.211l1.182.148a35.883,35.883,0,0,1,3.652.676,42.476,42.476,0,0,1,8.044,3.019,97.9,97.9,0,0,1,18.6,13.385c.232.19.464.4.7.57,2.618,2.259,5.257,4.476,7.959,6.566a70.047,70.047,0,0,0,14.42,8.91,46.811,46.811,0,0,0,16.4,3.927h2.618c0,.19.169.38.232.57l-2.892-.106a47.46,47.46,0,0,1-16.594-3.927,72.064,72.064,0,0,1-14.589-8.931c-2.766-2.111-5.447-4.37-8.107-6.629l-.676-.57a95.172,95.172,0,0,0-18.41-13.174,40.832,40.832,0,0,0-7.9-2.935,33.622,33.622,0,0,0-4.223-.739h-1.2c-1.013-.106-2.111-.148-3.04-.169a27.446,27.446,0,0,0-15.9,4.645,46.447,46.447,0,0,0-11.612,12.161c-1.689,2.428-3.251,4.919-4.771,7.474a9.986,9.986,0,0,0,.148-1.752Z" transform="translate(135.858 -108.472)"/><path class="s" d="M136.833,252.237c7.347-.317,16.193-14.209,18.452-24.047.148-.676-8.91-23.372-10.24-28.059-.274-.95-27.446,15.5-27.446,15.5a77.227,77.227,0,0,1,7.938,17.165C125.791,233.468,129.718,252.553,136.833,252.237Z" transform="translate(95.955 -144.439)"/><path class="t" d="M149.242,200.23c.655,7.959.823,29.114-15.053,34.033a18.394,18.394,0,0,1-2.935.633c-.317-1.288-.507-2.111-.528-2.28a77.378,77.378,0,0,0-7.938-17.143h0a2.114,2.114,0,0,1,.443-.275h0c.19-.148.443-.274.739-.464l.317-.19c.169-.127.38-.232.591-.359l.76-.464,1.267-.739.464-.3.971-.591,3.843-2.28,1.457-.866c.633-.359,1.267-.718,1.879-1.119l1.879-1.077.232-.127,3.188-1.858,1.056-.612,2.111-1.14,1.372-.76,2.7-1.436.612-.3Z" transform="translate(90.829 -144.285)"/><path class="p" d="M166.328,188.173c6.925,8.952,12.668,40.114,7.917,49.467-6.862,13.406-23.625,20.8-36.419,11.3-12.414-9.205-19.17-50.079-13.364-59.115C133.013,176.772,156.089,174.957,166.328,188.173Z" transform="translate(65.213 -167.761)"/><path class="a" d="M135.07,197.58s.19,0,.19.148c.464,2.111,1.351,4.518,3.441,4.75v.127C136.294,202.858,135.154,199.691,135.07,197.58Z" transform="translate(75.655 -147.23)"/><path class="a" d="M135.8,196.373c3.357-1.1,5.32,5.679,2.111,6.714S133,197.3,135.8,196.373Z" transform="translate(76.25 -148.704)"/><path class="a" d="M142.625,198.78s-.148.148,0,.232c.676,2.111,1.119,4.56-.57,5.827h0C144.23,203.931,143.66,200.638,142.625,198.78Z" transform="translate(56.066 -145.896)"/><path class="a" d="M144.06,198.02c-3.441.76-1.689,7.6,1.5,6.9S146.952,197.408,144.06,198.02Z" transform="translate(52.098 -146.784)"/><path class="a" d="M137.634,205.832c-.338.654-.612,1.478-1.33,1.795a5.489,5.489,0,0,1-2.407.232s-.127.106,0,.148a2.977,2.977,0,0,0,3.019.232,2.343,2.343,0,0,0,1.013-2.386.15.15,0,0,0-.3-.021Z" transform="translate(78.981 -138.212)"/><path class="a" d="M139.844,213.933s.443,3.272.844,4.75a33.4,33.4,0,0,1,8.931-1.119c.718,0,.57-.507-.3-.739a13.069,13.069,0,0,0-7.706.211c-.232-.38-.591-5.046-.823-4.983a13.279,13.279,0,0,0-3.167,1.689c-1.1-6.777-1.119-13.7-2.322-20.437a.211.211,0,0,0-.4,0,110.208,110.208,0,0,0,1.562,22.1C136.571,216.319,139.21,214.356,139.844,213.933Z" transform="translate(64.737 -152.14)"/><path class="a" d="M140.775,193.8c-.971-.148-1.879-.148-2.85-.211a4.729,4.729,0,0,0-2.956.359,1.478,1.478,0,0,0-.486,1.731,3.674,3.674,0,0,0,3.23,1.795,5.4,5.4,0,0,0,3.758-.887,1.562,1.562,0,0,0-.7-2.787Z" transform="translate(73.729 -151.769)"/><path class="a" d="M144.01,196.156a26.069,26.069,0,0,1,2.259-1.773,4.6,4.6,0,0,1,2.618-1.372,1.436,1.436,0,0,1,1.372,1.14,3.631,3.631,0,0,1-1.647,3.315,5.321,5.321,0,0,1-3.61,1.372,1.562,1.562,0,0,1-.992-2.681Z" transform="translate(46.214 -152.308)"/><path class="r" d="M134.564,202.356c-2.6.992-3.082-4.434-3.209-6.334a33.571,33.571,0,0,0-1.457-5.743,31.8,31.8,0,0,0,2.787,5.236C133.888,196.973,137.16,201.322,134.564,202.356Z" transform="translate(89.737 -155.342)"/><path class="a" d="M186.334,223.838s4.961-22,.4-32.239c-2.111-4.624-9.648-5.658-9.648-5.658a11.4,11.4,0,0,0-7.052-9.733c-7.432-3.441-20.732,2.344-20.732,2.344s-13.153-9.86-24-.591,2.111,20.8,2.111,20.8-2.428,8.065,10.556,9.416c12.668,1.33,33.4-11.063,33.4-11.063a82.15,82.15,0,0,0,8.107,23.1,7.453,7.453,0,0,0,6.862,3.631Z" transform="translate(55.469 -173.446)"/><path class="a" d="M126.219,179.724a23.223,23.223,0,0,1,8.3-4.56,24.7,24.7,0,0,1,8.445-1.415,13.913,13.913,0,0,1,12.668,6.8,9.754,9.754,0,0,1,.57,7.537c0,.106-.19,0-.148,0,1.689-4.581-1.71-9.648-5.7-11.654a20.9,20.9,0,0,0-14.779-.464,40.557,40.557,0,0,0-8.931,4.054.259.259,0,1,1-.422-.3Z" transform="translate(76.441 -173.732)"/><path class="a" d="M140.4,186.97a11.379,11.379,0,0,1,5.151-9.353,19.275,19.275,0,0,1,12.034-3.547,24.131,24.131,0,0,1,12.119,3.948v.148a21.366,21.366,0,0,0-21.83-.739,10.556,10.556,0,0,0-2.808,17.418,21.894,21.894,0,0,0,10.788,5.384v.148a22.19,22.19,0,0,1-10.345-4.223A12.667,12.667,0,0,1,140.4,186.97Z" transform="translate(33.399 -173.377)"/><path class="a" d="M126.78,199.39a40.219,40.219,0,0,0,16.7-2.555A81.6,81.6,0,0,0,159.357,189c2.914-1.816,5.764-3.758,8.572-5.743,0,0,.169,0,0,.148a89.606,89.606,0,0,1-15.243,10.936,44.928,44.928,0,0,1-16.468,5.32,38,38,0,0,1-9.543-.148S126.7,199.369,126.78,199.39Z" transform="translate(64.078 -163.143)"/><path class="p" d="M119.756,201.656s3.272-11.907,8.445-11.063,5.088,16.425.676,20.12a5.468,5.468,0,0,1-7.812-.211Z" transform="translate(114.552 -155.043)"/><path class="a" d="M126.607,192.68v.127c-3.04,2.723-3.737,6.672-3.842,10.556a3.04,3.04,0,0,1,4.011-2.3v.211a3.4,3.4,0,0,0-3.1,2.365,16.89,16.89,0,0,0-.676,3.42c0,.38-.676.422-.7,0h0C120.632,202.476,121.9,194.876,126.607,192.68Z" transform="translate(116.019 -152.675)"/><path class="p" d="M236.85,233.548c6.186,34.54,2.47,106.956-13.259,119.1-18.22,14.04-97.983,16.89-115.718,11.7-7.073-2.111,9.754-48.833,17.608-48.77,33,.232,60.783-3.568,63.612-7.474,4.349-5.975,15.729-48.094,23.5-74.485C222.324,200.465,234.084,218.052,236.85,233.548Z" transform="translate(35.671 -128.116)"/><path class="a" d="M207.189,239.929l50.67,33.1a2.111,2.111,0,0,1,.317,3.547l-23.562,17.692a4.751,4.751,0,0,1-5.088,0l-50.67-33.1a2.111,2.111,0,0,1-.317-3.568L202.1,239.929a4.75,4.75,0,0,1,5.088,0Z" transform="translate(-134.646 -100.991)"/><path class="u" d="M206.159,239.229l50.67,33.1a2.111,2.111,0,0,1,.317,3.547l-23.562,17.692a4.75,4.75,0,0,1-5.088,0l-50.67-33.1a2.111,2.111,0,0,1-.317-3.568l23.562-17.671a4.75,4.75,0,0,1,5.088,0Z" transform="translate(-131.442 -101.768)"/><path class="r" d="M205.8,240.86l46.448,30.36c1.436.929,1.626,2.407.443,3.293l-21.113,15.813a4.5,4.5,0,0,1-4.729,0L180.4,259.945c-2.914-1.879-2.6-3.019-1.415-3.906l4.223-3.167a1.1,1.1,0,0,1,1.14.127h.169a1.372,1.372,0,0,0,1.9-.148l9.775-7.326c.549-.422.971-.76,0-1.351l-.148-.106c-.4-.253-.507-.591-.253-.781l4.223-3.167C201.306,239.276,203.08,239.128,205.8,240.86Z" transform="translate(-130.03 -100.634)"/><path class="r" d="M210.506,243.387l-2.66,2.111a.359.359,0,0,1-.359,0h0a.169.169,0,0,1,0-.253l2.681-1.985a.275.275,0,0,1,.338,0h0C210.591,243.218,210.591,243.324,210.506,243.387Z" transform="translate(-148.984 -96.532)"/><path class="v" d="M227.366,256.806l-17.9,13.428L189.49,257.229l17.924-13.449Z" transform="translate(-127.904 -95.89)"/><path class="l" d="M203.1,254.01l-10.451,7.854-1.182-.781,10.451-7.833Z" transform="translate(-107.822 -85.366)"/><path class="l" d="M202.613,253.72l-12.372,9.29-.591-.38,12.393-9.29Z" transform="translate(-103.489 -85.266)"/><path class="l" d="M202.1,254.05l-12.372,9.289-.591-.38,12.393-9.289Z" transform="translate(-101.903 -84.9)"/><path class="l" d="M201.593,254.4l-12.372,9.268-.591-.38L201,254Z" transform="translate(-100.316 -84.533)"/><path class="l" d="M211.952,247.647l-2.238,1.668L209.25,249l2.217-1.668Z" transform="translate(-154.209 -91.945)"/><path class="l" d="M211.532,247.917l-2.217,1.668-.486-.317,2.217-1.668Z" transform="translate(-152.902 -91.645)"/><path class="l" d="M211.112,248.187l-2.238,1.689-.464-.317,2.217-1.689Z" transform="translate(-151.596 -91.345)"/><path class="v" d="M190.459,251.328a1.625,1.625,0,0,1,0,.823,3.971,3.971,0,0,1-1.2,0c-.781,0-1.372-.507-.95-.844a.949.949,0,0,1,.992,0s-.486-.4-.127-.655S190.311,250.779,190.459,251.328Z" transform="translate(-88.253 -88.342)"/><path class="v" d="M201.295,257.408,186.854,268.26l-4.624-3,14.462-10.852Z" transform="translate(-86.505 -84.077)"/><path class="p" d="M251.894,322.807c-3.885,0-36.567-8.107-46.448-13.66a110.67,110.67,0,0,1-28.417-21.7c-12.921-13.85-20.543-24.659-20.8-30.634-.274-6.946,0-8.171,26.116,13.132,14.779,12.034,24.279,10.556,31.88,7.685,31.247-11.908,61.353-3.779,61.353-3.779S266.841,322.764,251.894,322.807Z" transform="translate(-105.815 -86.434)"/><path class="p" d="M185.7,278.8c7.959-2.724-23.583-9.522-27.214-18.41s6.27-9.205,14.927-6.672c30.4,9.015,48.242,1.626,66.5,14.124,1.942,1.309,7.664,4.223,7.769,5.151C248.553,281.738,185.7,278.8,185.7,278.8Z" transform="translate(-81.151 -86.366)"/><path class="a" d="M162.919,255.759a66.7,66.7,0,0,1,16.89.486,40.893,40.893,0,0,1,14.314,6.165c.19.105,0,.422-.169.317-9.374-5.637-20.416-6.186-31.035-6.714a.127.127,0,1,1,0-.253Z" transform="translate(-38.376 -82.936)"/><path class="b" d="M147.9,280.818l-19.212-3.61-24.195-4.539s5.679-26.94,12.668-43.745c7.136-17.27,19-22.907,25.525.823C149.02,253.076,147.9,280.818,147.9,280.818Z" transform="translate(130.933 -129.086)"/><path class="a" d="M143.487,245.113c-7.389-1.668-34.519-7.453-38.129-6.883,0,0-.127.274,0,.317,3.188,1.795,30.613,6,38.108,7.009C143.551,245.578,143.635,245.156,143.487,245.113Z" transform="translate(133.636 -102.1)"/><path class="a" d="M104.25,264.015c1.14.338,2.28.633,3.42.929h.317v-.359c.3-3.019.338-6.059.338-9.078s-.148-6.059-.359-9.078-.486-6.038-.908-9.036-.866-5.975-1.5-8.952c0,3.04.211,6.038.359,9.057s.338,6.017.507,9.036c.317,6,.739,12.013.992,18.03l.338-.253C106.615,264.247,105.432,264.1,104.25,264.015Z" transform="translate(171.1 -112.937)"/><path class="a" d="M105.634,231.65a35.617,35.617,0,0,0-1.351,5.616c-.148.95-.3,1.9-.38,2.85a26.658,26.658,0,0,0-.148,2.914,22.762,22.762,0,0,0,1.562-5.595A24.025,24.025,0,0,0,105.634,231.65Z" transform="translate(174.783 -109.37)"/><path class="a" d="M123.018,258.038l-1.562-.464.127.211c.823-2.512,1.478-5.046,2.217-7.558l1.963-7.6c1.267-5.067,2.449-10.134,3.547-15.286a62.152,62.152,0,0,0-2.85,7.347,69.381,69.381,0,0,0-2.111,7.558c-.57,2.533-1.225,5.109-1.731,7.685s-.95,5.151-1.267,7.769v.19h.169a13.317,13.317,0,0,0,1.5.148Z" transform="translate(114.013 -114.159)"/><path class="a" d="M123.777,229.75a14.272,14.272,0,0,0-.718,4.391,13.282,13.282,0,0,0,.148,2.238,7.873,7.873,0,0,0,.57,2.111,31.227,31.227,0,0,0,.338-4.391,20.948,20.948,0,0,0-.338-4.349Z" transform="translate(115.598 -111.481)"/></g></g></svg>