<svg xmlns="http://www.w3.org/2000/svg" width="623.203" height="83.094" viewBox="0 0 623.203 83.094"><defs><style>.a{fill:#e2ad42;}</style></defs><g transform="translate(-852 -39.25)"><path d="M13387.173,372.186a1.367,1.367,0,0,1-1.229-.836l-2.9-7.077a1.337,1.337,0,0,0-1.227-.836h-16.246a1.369,1.369,0,0,0-1.23.836l-2.9,7.05a1.334,1.334,0,0,1-1.227.836h-7.131a1.337,1.337,0,0,1-1.227-1.852l17.551-41.792a1.181,1.181,0,0,1,1.2-.758h6.136a1.334,1.334,0,0,1,1.227.809l17.605,41.765a1.33,1.33,0,0,1-1.227,1.855Zm-14.68-27.635-3.4,8.229a1.356,1.356,0,0,0,1.229,1.855h6.791a1.34,1.34,0,0,0,1.227-1.855l-3.37-8.229a1.34,1.34,0,0,0-1.249-.823A1.3,1.3,0,0,0,13372.493,344.552Zm104.162,27.584a1.339,1.339,0,0,1-1.332-1.332V329.039a1.339,1.339,0,0,1,1.332-1.335h6.74a1.381,1.381,0,0,1,1.359,1.335v32.829a1.335,1.335,0,0,0,1.331,1.332h17.945a1.336,1.336,0,0,1,1.329,1.332V370.8a1.336,1.336,0,0,1-1.329,1.332Zm-39.02,0a1.339,1.339,0,0,1-1.332-1.332V329.039a1.339,1.339,0,0,1,1.332-1.335h16.9c5.249,0,9.455,1.359,12.563,4.023,3.16,2.745,4.78,6.584,4.753,11.443,0,5.015-1.644,9.01-4.885,11.806-3.16,2.742-7.444,4.124-12.721,4.124h-7.209a1.339,1.339,0,0,0-1.332,1.332V370.8a1.339,1.339,0,0,1-1.332,1.332Zm8.1-34.165v10.838a1.336,1.336,0,0,0,1.332,1.332h7.209c7.132,0,8.045-3.656,8.072-6.87a5.925,5.925,0,0,0-1.96-4.909,9.519,9.519,0,0,0-6.112-1.723h-7.209A1.339,1.339,0,0,0,13445.731,337.971Zm-47.119,34.165a1.339,1.339,0,0,1-1.332-1.332V329.039a1.339,1.339,0,0,1,1.332-1.335h16.9c5.249,0,9.455,1.359,12.564,4.023,3.187,2.745,4.807,6.584,4.753,11.443,0,5.015-1.645,9.01-4.882,11.806-3.163,2.742-7.444,4.124-12.721,4.124h-7.209a1.336,1.336,0,0,0-1.332,1.332V370.8a1.339,1.339,0,0,1-1.332,1.332Zm8.1-34.165v10.838a1.337,1.337,0,0,0,1.336,1.332h7.206c7.158,0,8.072-3.656,8.072-6.87a5.914,5.914,0,0,0-1.961-4.909,9.516,9.516,0,0,0-6.111-1.723h-7.206A1.339,1.339,0,0,0,13406.708,337.971Zm106.959,34.138a1.339,1.339,0,0,1-1.332-1.332V355.522a1.284,1.284,0,0,0-.18-.679l-14.892-25.151a1.332,1.332,0,0,1,1.152-2.011h7.756a1.329,1.329,0,0,1,1.148.68l8.646,14.966a1.348,1.348,0,0,0,2.324,0l8.541-14.942a1.444,1.444,0,0,1,1.148-.7h7.76a1.331,1.331,0,0,1,1.148,2.011L13522,354.843a1.254,1.254,0,0,0-.184.679v15.255a1.339,1.339,0,0,1-1.332,1.332Z" transform="translate(-12380.582 -269.062)"/><path class="a" d="M13155.6,366.074c-3.866-4.257-5.77-9.561-5.77-15.932q0-9.637,5.874-16.013t15.517-6.374a25.82,25.82,0,0,1,5.587.577,19.222,19.222,0,0,1,4.339,1.384,26.575,26.575,0,0,1,2.923,1.644,14.179,14.179,0,0,1,1.83,1.384l.5.574-3.5,4.494c-.341-.341-.783-.756-1.384-1.253a17.063,17.063,0,0,0-3.916-1.985,16.5,16.5,0,0,0-6.374-1.256,14.042,14.042,0,0,0-11.128,4.808,19.289,19.289,0,0,0-.077,23.95,13.753,13.753,0,0,0,10.969,4.808,12.556,12.556,0,0,0,9.584-3.788,13.733,13.733,0,0,0,3.606-9.9v-.287h-12.826a1.338,1.338,0,0,1-1.33-1.334v-2.532a1.338,1.338,0,0,1,1.33-1.334H13189a1.338,1.338,0,0,1,1.333,1.334v2.218q0,9.677-5.172,15.439c-3.447,3.812-8.177,5.746-14.156,5.746C13164.585,372.448,13159.463,370.332,13155.6,366.074Zm110.039,5.408a1.419,1.419,0,0,1-1.069-.523l-9.9-13.113a1.328,1.328,0,0,0-1.07-.523h-9.611a1.339,1.339,0,0,0-1.334,1.334V370.1a1.337,1.337,0,0,1-1.33,1.33h-3.187a1.338,1.338,0,0,1-1.334-1.33V330a1.339,1.339,0,0,1,1.334-1.334h15.776c5.095,0,9.088,1.256,11.988,3.737s4.335,6.006,4.335,10.523a14.2,14.2,0,0,1-2.479,8.491,13.559,13.559,0,0,1-6.924,4.858v.287l10.473,13.764v1.151Zm-22.984-36.124v15.3a1.339,1.339,0,0,0,1.334,1.334h10.213a11.069,11.069,0,0,0,7.262-2.245c1.8-1.489,2.714-3.71,2.714-6.661,0-3.032-.914-5.277-2.768-6.793s-4.413-2.272-7.7-2.272h-9.717A1.339,1.339,0,0,0,13242.652,335.359Zm190.1,36.07a1.338,1.338,0,0,1-1.33-1.334v-14.7a1.258,1.258,0,0,0-.182-.679L13417,330.656a1.334,1.334,0,0,1,1.151-2.012h3.578a1.327,1.327,0,0,1,1.148.682l10.058,17.394a.214.214,0,0,1,.05.132l1.334,2.924h.128l1.411-2.951c.027-.027.027-.051.055-.078l9.926-17.4a1.348,1.348,0,0,1,1.175-.679h3.578a1.332,1.332,0,0,1,1.148,2.012l-14.234,24.055a1.273,1.273,0,0,0-.186.682V370.1a1.338,1.338,0,0,1-1.33,1.334Zm-26.718,0a1.324,1.324,0,0,1-1.043-.5l-23.251-28.967a1.336,1.336,0,0,0-2.377.837v27.3a1.335,1.335,0,0,1-1.33,1.33h-3.187a1.337,1.337,0,0,1-1.33-1.33V330a1.338,1.338,0,0,1,1.33-1.334h2.377a1.374,1.374,0,0,1,1.047.5l23.166,28.707a1.336,1.336,0,0,0,2.377-.837V330a1.338,1.338,0,0,1,1.334-1.334h3.237a1.339,1.339,0,0,1,1.334,1.334V370.1a1.3,1.3,0,0,1-1.307,1.33Zm-43.855,0a1.341,1.341,0,0,1-1.229-.834l-3.106-7.549a1.365,1.365,0,0,0-1.229-.837h-19.956a1.336,1.336,0,0,0-1.226.837l-3.109,7.549a1.361,1.361,0,0,1-1.229.834h-3.238a1.328,1.328,0,0,1-1.226-1.853l16.847-40.094a1.336,1.336,0,0,1,1.226-.81h3.866a1.312,1.312,0,0,1,1.229.81l16.9,40.094a1.341,1.341,0,0,1-1.229,1.853Zm-16.769-32.569-6.766,16.323a1.343,1.343,0,0,0,1.256,1.853h13.478a1.338,1.338,0,0,0,1.225-1.853l-6.711-16.323a1.3,1.3,0,0,0-1.23-.823A1.342,1.342,0,0,0,13345.407,338.86Zm-30.01,32.569a1.338,1.338,0,0,1-1.334-1.33V343.532a1.374,1.374,0,0,0-2.454-.807l-10.6,13.66a1.414,1.414,0,0,1-1.047.523h-.624a1.262,1.262,0,0,1-1.047-.523l-10.6-13.558a1.331,1.331,0,0,0-2.377.837V370.1a1.337,1.337,0,0,1-1.33,1.33h-3.24a1.335,1.335,0,0,1-1.331-1.33l.078-40.094a1.338,1.338,0,0,1,1.33-1.334h2.3a1.253,1.253,0,0,1,1.047.523l14.521,18.649a1.355,1.355,0,0,0,2.117,0l14.446-18.649a1.309,1.309,0,0,1,1.043-.523h2.3a1.338,1.338,0,0,1,1.333,1.334V370.1a1.338,1.338,0,0,1-1.333,1.33Zm-115.895,0a1.338,1.338,0,0,1-1.33-1.33V330a1.338,1.338,0,0,1,1.33-1.334h27.479a1.338,1.338,0,0,1,1.333,1.334v2.664a1.338,1.338,0,0,1-1.333,1.334h-21.651a1.335,1.335,0,0,0-1.333,1.33v10.527a1.335,1.335,0,0,0,1.333,1.33h18.076a1.338,1.338,0,0,1,1.33,1.334v2.535a1.305,1.305,0,0,1-1.307,1.357h-18.076a1.338,1.338,0,0,0-1.33,1.33v11.023a1.338,1.338,0,0,0,1.33,1.334h21.654a1.338,1.338,0,0,1,1.334,1.33V370.1a1.338,1.338,0,0,1-1.334,1.33Z" transform="translate(-11976.725 -269.218)"/><path class="a" d="M18168.609-14815.906h-80.121a1.485,1.485,0,0,1-1.488-1.477v-80.129a1.5,1.5,0,0,1,1.488-1.488h80.121a1.492,1.492,0,0,1,1.484,1.488v36.336h-33.754v7.43h33.754v36.363A1.482,1.482,0,0,1,18168.609-14815.906Z" transform="translate(-17235 14938.25)"/></g></svg>