<svg xmlns="http://www.w3.org/2000/svg" width="197.078" height="30.224" viewBox="0 0 197.078 30.224">
  <g id="Logo" transform="translate(-327.922 -30.659)">
    <path id="mortarboard_1_" data-name="mortarboard (1)" d="M32.926,44.684l-15.3-6.549L2.4,44.657l-.06.027a4.175,4.175,0,0,0,.023,7.507l3.308,1.394H5.578v9.558a2.756,2.756,0,1,0,2.755.081V54.708l9.3,3.918,8.922-3.759a22.258,22.258,0,0,1,2.013,5.53,41.708,41.708,0,0,0-10.935,4.656,38.609,38.609,0,0,0-5.963-2.989c-.3-.115-.556-.211-.783-.291a5.547,5.547,0,0,1,1.507,3.619,34.155,34.155,0,0,1,4.488,2.466l.751.492.751-.492a39.174,39.174,0,0,1,12.118-5.1l1.246-.308-.216-1.273a25.86,25.86,0,0,0-2.423-7.386l3.737-1.574.06-.027a4.175,4.175,0,0,0,.023-7.507Zm-1.181,4.989L17.631,55.619,11.173,52.9l9.214-3.939-3.523-1.508L7.621,51.4,3.516,49.673a1.392,1.392,0,0,1-.008-2.478L17.631,41.15l14.123,6.045a1.392,1.392,0,0,1-.008,2.478Z" transform="translate(327.923 -7.476)" fill="#ffe163"/>
    <text id="apply_germany" data-name="apply germany" transform="translate(448 52)" fill="#ffe163" font-size="20" font-family="GalanoGrotesque-SemiBold, Galano Grotesque" font-weight="600"><tspan x="-76.37" y="0">Apply Germany</tspan></text>
  </g>
</svg>
