<svg xmlns="http://www.w3.org/2000/svg" width="32" height="32" viewBox="0 0 32 32">
  <g id="_1" data-name="1" transform="translate(-16 -16)">
    <rect id="Rectangle_6018" data-name="Rectangle 6018" width="30" height="30" rx="5" transform="translate(17 17)" fill="none" stroke="#fff" stroke-width="2"/>
    <path id="Rectangle_6019" data-name="Rectangle 6019" d="M1,0H29a1,1,0,0,1,1,1V16a5,5,0,0,1-5,5H5a5,5,0,0,1-5-5V1A1,1,0,0,1,1,0Z" transform="translate(17 26)" fill="none" stroke="#fff" stroke-width="2"/>
    <g id="Ellipse_1587" data-name="Ellipse 1587" transform="translate(20 20)" fill="none" stroke="#fff" stroke-width="2">
      <circle cx="1.5" cy="1.5" r="1.5" stroke="none"/>
      <circle cx="1.5" cy="1.5" r="0.5" fill="none"/>
    </g>
    <g id="Ellipse_1588" data-name="Ellipse 1588" transform="translate(24 20)" fill="none" stroke="#fff" stroke-width="2">
      <circle cx="1.5" cy="1.5" r="1.5" stroke="none"/>
      <circle cx="1.5" cy="1.5" r="0.5" fill="none"/>
    </g>
    <g id="Ellipse_1589" data-name="Ellipse 1589" transform="translate(28 20)" fill="none" stroke="#fff" stroke-width="2">
      <circle cx="1.5" cy="1.5" r="1.5" stroke="none"/>
      <circle cx="1.5" cy="1.5" r="0.5" fill="none"/>
    </g>
    <path id="Path_40480" data-name="Path 40480" d="M-18.4-1.289a.805.805,0,0,0,.591-.207.758.758,0,0,0,.2-.577h1.7A2.009,2.009,0,0,1-16.594-.5a2.547,2.547,0,0,1-1.764.612,2.579,2.579,0,0,1-2-.795,3.132,3.132,0,0,1-.73-2.2v-.075a3.54,3.54,0,0,1,.325-1.555,2.366,2.366,0,0,1,.937-1.037,2.8,2.8,0,0,1,1.45-.363,2.515,2.515,0,0,1,1.8.628,2.229,2.229,0,0,1,.666,1.7h-1.7a.994.994,0,0,0-.22-.693.76.76,0,0,0-.591-.242q-.7,0-.822.9a6.329,6.329,0,0,0-.038.784,2.486,2.486,0,0,0,.209,1.214A.725.725,0,0,0-18.4-1.289Zm3.029-1.67a3.43,3.43,0,0,1,.338-1.55,2.42,2.42,0,0,1,.972-1.045,2.928,2.928,0,0,1,1.488-.365,2.672,2.672,0,0,1,2.057.808,3.1,3.1,0,0,1,.752,2.2v.064A3.01,3.01,0,0,1-10.519-.69a2.679,2.679,0,0,1-2.044.8,2.71,2.71,0,0,1-1.993-.744,2.91,2.91,0,0,1-.811-2.017Zm1.81.113a2.162,2.162,0,0,0,.252,1.182.841.841,0,0,0,.747.376q.967,0,.988-1.488v-.183q0-1.563-1-1.563-.908,0-.983,1.348Zm6.306-2.965.059.682a2,2,0,0,1,1.66-.79,1.471,1.471,0,0,1,1.488.875,1.934,1.934,0,0,1,1.708-.875q1.767,0,1.815,2.138V0H-2.342V-3.668a1.108,1.108,0,0,0-.15-.65.64.64,0,0,0-.548-.2.858.858,0,0,0-.8.478l.005.075V0H-5.65V-3.658A1.164,1.164,0,0,0-5.8-4.318a.638.638,0,0,0-.553-.2.868.868,0,0,0-.795.478V0h-1.81V-5.812Z" transform="translate(42.807 39.406)" fill="#fff"/>
  </g>
</svg>
