<svg xmlns="http://www.w3.org/2000/svg" width="30.407" height="30.406" viewBox="0 0 30.407 30.406">
  <g id="_4" data-name="4" transform="translate(-13.797 -20.264)">
    <path id="Path_40485" data-name="Path 40485" d="M15952.912,10972c-11.131,0-13.913-5.134-13.913-9a2.026,2.026,0,0,1,2-2h4a3,3,0,0,1,3,3v2c1.192,1.192,8.674,1.328,10,0v-2a3,3,0,0,1,3-3h4a2.027,2.027,0,0,1,2,2C15967,10966.865,15964.043,10972,15952.912,10972Z" transform="translate(-3496.988 -18999.494) rotate(45)" fill="none" stroke="#d9d9d9" stroke-width="2"/>
    <line id="Line_1078" data-name="Line 1078" x2="8" y2="8" transform="translate(32.5 23.5)" fill="none" stroke="#d9d9d9" stroke-linecap="round" stroke-width="2"/>
    <line id="Line_1079" data-name="Line 1079" x2="4" y2="4" transform="translate(37.5 22.5)" fill="none" stroke="#d9d9d9" stroke-linecap="round" stroke-width="2"/>
  </g>
</svg>
