<svg xmlns="http://www.w3.org/2000/svg" width="28" height="30.414" viewBox="0 0 28 30.414">
  <g id="_6" data-name="6" transform="translate(-16 -17)">
    <path id="Path_40489" data-name="Path 40489" d="M3,0H23a3,3,0,0,1,3,3V20a3,3,0,0,1-3,3H18l-5,5L8,23H3a3,3,0,0,1-3-3V3A3,3,0,0,1,3,0Z" transform="translate(17 18)" fill="none" stroke="#d9d9d9" stroke-width="2"/>
    <path id="Path_40487" data-name="Path 40487" d="M-7.478-5.675a5.947,5.947,0,0,1,.336-2.206A4.526,4.526,0,0,1-5.911-9.5,6.292,6.292,0,0,0-4.72-10.8a2.036,2.036,0,0,0,.3-1.054q0-1.673-1.542-1.673a1.562,1.562,0,0,0-1.171.451,1.771,1.771,0,0,0-.46,1.243h-2.866a3.812,3.812,0,0,1,1.221-2.958,4.753,4.753,0,0,1,3.277-1.069,4.773,4.773,0,0,1,3.252,1.014,3.607,3.607,0,0,1,1.156,2.864,3.487,3.487,0,0,1-.376,1.588A6.542,6.542,0,0,1-3.247-8.732l-.8.762a2.714,2.714,0,0,0-.86,1.692l-.04.6Zm-.287,3.03a1.439,1.439,0,0,1,.45-1.089,1.6,1.6,0,0,1,1.152-.429,1.6,1.6,0,0,1,1.152.429,1.439,1.439,0,0,1,.45,1.089A1.427,1.427,0,0,1-5-1.571a1.6,1.6,0,0,1-1.161.424,1.6,1.6,0,0,1-1.161-.424A1.427,1.427,0,0,1-7.764-2.645Z" transform="translate(36.155 38.856)" fill="#d9d9d9"/>
  </g>
</svg>
