<svg xmlns="http://www.w3.org/2000/svg" width="23.315" height="33.158" viewBox="0 0 23.315 33.158">
  <g id="_7" data-name="7" transform="translate(-15936.998 -10961.001)" fill="none">
    <path d="M15952.481,10993.946l-3.825-2.96-3.825,2.96a1,1,0,0,1-1.61-.789v-7.49a1,1,0,0,1,2,0v5.451l2.823-2.187a1,1,0,0,1,1.226,0l2.824,2.187v-5.451a1,1,0,0,1,2,0v7.49a1,1,0,0,1-.557.9,1.016,1.016,0,0,1-.44.1A.98.98,0,0,1,15952.481,10993.946Zm-.561-10.751-3.265-1.994-3.265,1.994a2,2,0,0,1-3.032-1.47l-.437-3.705-3.581-1.242a2,2,0,0,1-.749-3.312l2.656-2.623-1.23-3.5a2,2,0,0,1,1.879-2.664,1.812,1.812,0,0,1,.221.013l3.8.4,2.055-3.181a2,2,0,0,1,3.357,0l2.055,3.181,3.8-.4a1.858,1.858,0,0,1,.221-.013,2,2,0,0,1,1.879,2.664l-1.23,3.5,2.656,2.623a2,2,0,0,1-.749,3.313l-3.577,1.242-.44,3.705a2,2,0,0,1-3.032,1.47Zm-2.224-3.7,3.269,2,.44-3.705a2.02,2.02,0,0,1,1.33-1.654l3.577-1.241-2.655-2.624a2.009,2.009,0,0,1-.481-2.087l1.234-3.5-3.81.4a1.68,1.68,0,0,1-.212.013,1.987,1.987,0,0,1-1.679-.914l-2.055-3.18-2.055,3.18a1.989,1.989,0,0,1-1.679.914,1.658,1.658,0,0,1-.212-.013l-3.806-.4,1.229,3.5a2.007,2.007,0,0,1-.48,2.087l-2.651,2.624,3.573,1.241a2.011,2.011,0,0,1,1.329,1.654l.441,3.705,3.268-2a2,2,0,0,1,2.083,0Z" stroke="none"/>
    <path d="M 15953.0947265625 10994.1591796875 C 15952.8740234375 10994.1591796875 15952.6572265625 10994.0869140625 15952.4814453125 10993.9462890625 L 15948.65625 10990.986328125 L 15944.8310546875 10993.9462890625 C 15944.5322265625 10994.1826171875 15944.1220703125 10994.22265625 15943.77734375 10994.0546875 C 15943.4365234375 10993.88671875 15943.220703125 10993.5380859375 15943.220703125 10993.1572265625 L 15943.220703125 10985.6669921875 C 15943.220703125 10985.1142578125 15943.6650390625 10984.669921875 15944.2177734375 10984.669921875 C 15944.7705078125 10984.669921875 15945.2197265625 10985.1142578125 15945.2197265625 10985.6669921875 L 15945.2197265625 10991.1181640625 L 15948.04296875 10988.931640625 C 15948.404296875 10988.650390625 15948.9072265625 10988.650390625 15949.2685546875 10988.931640625 L 15952.0927734375 10991.1181640625 L 15952.0927734375 10985.6669921875 C 15952.0927734375 10985.1142578125 15952.5419921875 10984.669921875 15953.0947265625 10984.669921875 C 15953.6474609375 10984.669921875 15954.091796875 10985.1142578125 15954.091796875 10985.6669921875 L 15954.091796875 10993.1572265625 C 15954.091796875 10993.5380859375 15953.875 10993.88671875 15953.53515625 10994.0546875 C 15953.39453125 10994.123046875 15953.2421875 10994.1591796875 15953.0947265625 10994.1591796875 Z M 15952.9619140625 10983.4921875 C 15952.59765625 10983.4921875 15952.2373046875 10983.3876953125 15951.9208984375 10983.1953125 L 15948.65625 10981.201171875 L 15945.3916015625 10983.1953125 C 15945.0751953125 10983.3876953125 15944.71484375 10983.4921875 15944.3505859375 10983.4921875 C 15943.3369140625 10983.4921875 15942.4794921875 10982.7353515625 15942.359375 10981.7255859375 L 15941.9228515625 10978.0205078125 L 15938.341796875 10976.7783203125 C 15937.689453125 10976.55078125 15937.2041015625 10976.009765625 15937.0478515625 10975.3291015625 C 15936.8955078125 10974.65234375 15937.1005859375 10973.955078125 15937.5927734375 10973.4658203125 L 15940.2490234375 10970.8427734375 L 15939.0185546875 10967.341796875 C 15938.802734375 10966.728515625 15938.89453125 10966.0517578125 15939.271484375 10965.5234375 C 15939.6435546875 10964.994140625 15940.2568359375 10964.677734375 15940.8974609375 10964.677734375 C 15940.9736328125 10964.677734375 15941.0458984375 10964.681640625 15941.1181640625 10964.6904296875 L 15944.9228515625 10965.0947265625 L 15946.9775390625 10961.9140625 C 15947.3466796875 10961.341796875 15947.9755859375 10961.0009765625 15948.65625 10961.0009765625 C 15949.3369140625 10961.0009765625 15949.9658203125 10961.341796875 15950.3349609375 10961.9140625 L 15952.3896484375 10965.0947265625 L 15956.1943359375 10964.6904296875 C 15956.2666015625 10964.681640625 15956.3427734375 10964.677734375 15956.4150390625 10964.677734375 C 15957.0556640625 10964.677734375 15957.6689453125 10964.994140625 15958.041015625 10965.5234375 C 15958.41796875 10966.0517578125 15958.509765625 10966.728515625 15958.2939453125 10967.341796875 L 15957.0634765625 10970.8427734375 L 15959.7197265625 10973.4658203125 C 15960.2119140625 10973.955078125 15960.416015625 10974.65234375 15960.2646484375 10975.3291015625 C 15960.1083984375 10976.009765625 15959.623046875 10976.55078125 15958.970703125 10976.7783203125 L 15955.3935546875 10978.0205078125 L 15954.953125 10981.7255859375 C 15954.8330078125 10982.7353515625 15953.9755859375 10983.4921875 15952.9619140625 10983.4921875 Z M 15948.65625 10979.2021484375 C 15949.0244140625 10979.2021484375 15949.384765625 10979.302734375 15949.697265625 10979.494140625 L 15952.9658203125 10981.4892578125 L 15953.40625 10977.7841796875 C 15953.4951171875 10977.03125 15954.01953125 10976.3818359375 15954.736328125 10976.1298828125 L 15958.3134765625 10974.888671875 L 15955.658203125 10972.2646484375 C 15955.109375 10971.7197265625 15954.9208984375 10970.90234375 15955.1767578125 10970.177734375 L 15956.4111328125 10966.6767578125 L 15952.6015625 10967.0810546875 C 15952.533203125 10967.08984375 15952.4609375 10967.09375 15952.3896484375 10967.09375 C 15951.7080078125 10967.09375 15951.0791015625 10966.7529296875 15950.7109375 10966.1796875 L 15948.65625 10963 L 15946.6015625 10966.1796875 C 15946.232421875 10966.7529296875 15945.603515625 10967.09375 15944.9228515625 10967.09375 C 15944.8505859375 10967.09375 15944.7783203125 10967.08984375 15944.7109375 10967.0810546875 L 15940.9052734375 10966.6767578125 L 15942.134765625 10970.177734375 C 15942.3916015625 10970.90234375 15942.203125 10971.7197265625 15941.654296875 10972.2646484375 L 15939.0029296875 10974.888671875 L 15942.576171875 10976.1298828125 C 15943.296875 10976.3818359375 15943.8173828125 10977.03125 15943.9052734375 10977.7841796875 L 15944.3466796875 10981.4892578125 L 15947.6142578125 10979.494140625 C 15947.9267578125 10979.302734375 15948.2880859375 10979.2021484375 15948.65625 10979.2021484375 Z" stroke="none" fill="#d9d9d9"/>
  </g>
</svg>
