<svg xmlns="http://www.w3.org/2000/svg" width="29.76" height="29.999" viewBox="0 0 29.76 29.999">
  <g id="_8" data-name="8" transform="translate(-15935.881 -10960.001)" fill="#fff">
    <path d="M 15944.0703125 10984.31640625 C 15943.62109375 10984.31640625 15943.255859375 10983.921875 15943.255859375 10983.4365234375 C 15943.255859375 10982.9560546875 15943.62109375 10982.5654296875 15944.0703125 10982.5654296875 C 15944.5244140625 10982.5654296875 15944.8935546875 10982.9560546875 15944.8935546875 10983.4365234375 C 15944.8935546875 10983.921875 15944.5244140625 10984.31640625 15944.0703125 10984.31640625 Z M 15957.4091796875 10969.0615234375 C 15957.3212890625 10969.0615234375 15957.26953125 10969.05078125 15957.24609375 10969.0439453125 L 15957.240234375 10969.0419921875 L 15957.2333984375 10969.0400390625 C 15956.8740234375 10968.943359375 15956.658203125 10968.5732421875 15956.75390625 10968.21484375 C 15956.8310546875 10967.923828125 15957.10546875 10967.7119140625 15957.4052734375 10967.7119140625 C 15957.458984375 10967.7119140625 15957.51953125 10967.7197265625 15957.5859375 10967.736328125 C 15957.7578125 10967.7841796875 15957.8974609375 10967.892578125 15957.9912109375 10968.05078125 C 15958.08203125 10968.2109375 15958.10546875 10968.388671875 15958.05859375 10968.5654296875 C 15957.9794921875 10968.857421875 15957.712890625 10969.0615234375 15957.4091796875 10969.0615234375 Z M 15944.0703125 10967.439453125 C 15943.62109375 10967.439453125 15943.255859375 10967.046875 15943.255859375 10966.5634765625 C 15943.255859375 10966.0810546875 15943.62109375 10965.6884765625 15944.0703125 10965.6884765625 C 15944.5244140625 10965.6884765625 15944.8935546875 10966.0810546875 15944.8935546875 10966.5634765625 C 15944.8935546875 10967.046875 15944.5244140625 10967.439453125 15944.0703125 10967.439453125 Z" stroke="none"/>
    <path d="M 15957.4892578125 10990 C 15957.2734375 10990 15957.052734375 10989.9677734375 15956.8408203125 10989.912109375 L 15953.8955078125 10989.123046875 L 15953.8955078125 10987.3916015625 L 15957.2734375 10988.296875 C 15957.341796875 10988.3173828125 15957.4130859375 10988.3251953125 15957.4853515625 10988.3251953125 C 15957.8662109375 10988.3251953125 15958.19921875 10988.068359375 15958.298828125 10987.7001953125 L 15963.9326171875 10966.671875 C 15964.052734375 10966.2275390625 15963.7880859375 10965.7666015625 15963.34375 10965.642578125 L 15953.8955078125 10963.1142578125 L 15953.8955078125 10961.38671875 L 15953.931640625 10961.390625 C 15953.9833984375 10961.4033203125 15954.02734375 10961.4150390625 15954.0673828125 10961.4267578125 L 15963.7763671875 10964.02734375 C 15964.42578125 10964.2001953125 15964.966796875 10964.6162109375 15965.302734375 10965.197265625 C 15965.6396484375 10965.7822265625 15965.7275390625 10966.4599609375 15965.5517578125 10967.1044921875 L 15959.91796875 10988.13671875 C 15959.625 10989.234375 15958.6279296875 10990 15957.4892578125 10990 Z M 15949.5400390625 10990 L 15938.61328125 10990 C 15937.1064453125 10990 15935.880859375 10988.73828125 15935.880859375 10987.19140625 L 15935.880859375 10962.8134765625 C 15935.880859375 10961.2626953125 15937.1064453125 10960.0009765625 15938.61328125 10960.0009765625 L 15949.5400390625 10960.0009765625 C 15951.04296875 10960.0009765625 15952.2685546875 10961.2626953125 15952.2685546875 10962.8134765625 L 15952.2685546875 10987.19140625 C 15952.2685546875 10988.73828125 15951.04296875 10990 15949.5400390625 10990 Z M 15938.61328125 10961.8759765625 C 15938.1083984375 10961.8759765625 15937.7001953125 10962.296875 15937.7001953125 10962.8134765625 L 15937.7001953125 10987.19140625 C 15937.7001953125 10987.7080078125 15938.1083984375 10988.12890625 15938.61328125 10988.12890625 L 15949.5400390625 10988.12890625 C 15950.037109375 10988.12890625 15950.4453125 10987.7080078125 15950.4453125 10987.19140625 L 15950.4453125 10962.8134765625 C 15950.4453125 10962.296875 15950.037109375 10961.8759765625 15949.5400390625 10961.8759765625 L 15938.61328125 10961.8759765625 Z M 15944.0703125 10985.31640625 C 15943.0654296875 10985.31640625 15942.255859375 10984.474609375 15942.255859375 10983.4365234375 C 15942.255859375 10982.4033203125 15943.0654296875 10981.5654296875 15944.0703125 10981.5654296875 C 15945.080078125 10981.5654296875 15945.8935546875 10982.4033203125 15945.8935546875 10983.4365234375 C 15945.8935546875 10984.474609375 15945.080078125 10985.31640625 15944.0703125 10985.31640625 Z M 15955.4541015625 10979.021484375 C 15955.166015625 10979.021484375 15954.873046875 10978.9814453125 15954.5888671875 10978.9052734375 C 15954.3447265625 10978.8369140625 15954.1123046875 10978.7490234375 15953.8955078125 10978.6328125 L 15953.8955078125 10976.2763671875 C 15954.087890625 10976.7734375 15954.5087890625 10977.150390625 15955.021484375 10977.2861328125 C 15955.166015625 10977.322265625 15955.3095703125 10977.3427734375 15955.4501953125 10977.3427734375 C 15956.2119140625 10977.3427734375 15956.880859375 10976.833984375 15957.0732421875 10976.1005859375 C 15957.189453125 10975.671875 15957.12890625 10975.21875 15956.904296875 10974.833984375 C 15956.6806640625 10974.4453125 15956.3193359375 10974.1689453125 15955.88671875 10974.052734375 C 15955.7470703125 10974.0126953125 15955.6025390625 10973.9921875 15955.4580078125 10973.9921875 C 15954.7685546875 10973.9921875 15954.1396484375 10974.42578125 15953.8955078125 10975.0625 L 15953.8955078125 10972.7060546875 C 15954.3759765625 10972.4541015625 15954.9130859375 10972.322265625 15955.4501953125 10972.322265625 C 15955.7470703125 10972.322265625 15956.0390625 10972.3623046875 15956.3232421875 10972.4384765625 C 15957.189453125 10972.666015625 15957.91015625 10973.2236328125 15958.359375 10973.9970703125 C 15958.8037109375 10974.76953125 15958.923828125 10975.671875 15958.69140625 10976.533203125 C 15958.294921875 10978 15956.96484375 10979.021484375 15955.4541015625 10979.021484375 Z M 15944.0703125 10978.7490234375 C 15942.0634765625 10978.7490234375 15940.4326171875 10977.0703125 15940.4326171875 10974.998046875 C 15940.4326171875 10972.9306640625 15942.0634765625 10971.251953125 15944.0703125 10971.251953125 C 15946.0859375 10971.251953125 15947.712890625 10972.9306640625 15947.712890625 10974.998046875 C 15947.712890625 10977.0703125 15946.0859375 10978.7490234375 15944.0703125 10978.7490234375 Z M 15944.0703125 10973.126953125 C 15943.0693359375 10973.126953125 15942.255859375 10973.96875 15942.255859375 10974.998046875 C 15942.255859375 10976.0361328125 15943.0693359375 10976.8779296875 15944.0703125 10976.8779296875 C 15945.080078125 10976.8779296875 15945.8935546875 10976.0361328125 15945.8935546875 10974.998046875 C 15945.8935546875 10973.96875 15945.080078125 10973.126953125 15944.0703125 10973.126953125 Z M 15957.4091796875 10970.0615234375 C 15957.26171875 10970.0615234375 15957.11328125 10970.0458984375 15956.97265625 10970.005859375 C 15956.0830078125 10969.765625 15955.55078125 10968.84765625 15955.787109375 10967.9580078125 C 15955.9833984375 10967.224609375 15956.65234375 10966.7119140625 15957.4052734375 10966.7119140625 C 15957.5498046875 10966.7119140625 15957.6943359375 10966.732421875 15957.837890625 10966.7685546875 C 15958.271484375 10966.884765625 15958.6318359375 10967.1650390625 15958.8564453125 10967.5498046875 C 15959.080078125 10967.9384765625 15959.140625 10968.390625 15959.0244140625 10968.82421875 C 15958.828125 10969.552734375 15958.1630859375 10970.0615234375 15957.4091796875 10970.0615234375 Z M 15944.0703125 10968.439453125 C 15943.0654296875 10968.439453125 15942.255859375 10967.59765625 15942.255859375 10966.5634765625 C 15942.255859375 10965.5263671875 15943.0654296875 10964.6884765625 15944.0703125 10964.6884765625 C 15945.080078125 10964.6884765625 15945.8935546875 10965.5263671875 15945.8935546875 10966.5634765625 C 15945.8935546875 10967.59765625 15945.080078125 10968.439453125 15944.0703125 10968.439453125 Z" stroke="none" fill="#d9d9d9"/>
  </g>
</svg>
