<svg xmlns="http://www.w3.org/2000/svg" width="76" height="76" viewBox="0 0 76 76"><defs><style>.a,.b{fill:#fff;}.a{opacity:0;}</style></defs><g transform="translate(-258 -2910)"><rect class="a" width="76" height="76" transform="translate(258 2910)"/><path class="b" d="M-82,136.918c.977.322,1.961.624,2.931.968q7.716,2.732,15.426,5.481c.139.05.27.12.479.214-.336.673-.656,1.324-.983,1.97a5.767,5.767,0,0,0,1.622,7.464,4.679,4.679,0,0,0,2.617,1.012c.88.043,1.761.151,2.64.136a4.428,4.428,0,0,0,4.341-3.091c.661-1.741,1.2-3.526,1.815-5.286a.591.591,0,0,0-.2-.7c-1.372-1.36-2.727-2.739-4.11-4.09-.289-.283-.285-.467-.068-.792q5.573-8.323,11.12-16.663c.1-.15.207-.3.359-.511.159.208.293.365.407.535l11.121,16.664a.5.5,0,0,1-.065.758q-2.072,2.028-4.1,4.1a.784.784,0,0,0-.221.621c.541,1.713,1.078,3.429,1.7,5.112A5.042,5.042,0,0,0-31,154.208a6.9,6.9,0,0,0,5.933-1.552,5.657,5.657,0,0,0,1.21-7.14c-.323-.633-.638-1.27-.981-1.954,1.185-.423,2.293-.82,3.4-1.214q7.454-2.648,14.912-5.293c.17-.061.352-.092.528-.137v.2c-.1.3-.216.589-.294.891q-1.293,4.977-2.575,9.956-1.458,5.63-2.921,11.26c-.874,3.366-1.733,6.737-2.628,10.1a15.753,15.753,0,0,0-.653,4.57c.072,2.715.02,5.434.02,8.15v.579H-72.937V172.291a3.016,3.016,0,0,0-.072-.742q-1.758-6.841-3.532-13.679-2.358-9.113-4.728-18.223c-.221-.849-.486-1.686-.731-2.529Zm38.028-5.868c-.142.176-.222.26-.285.355l-5.546,8.312c-.194.289-.131.459.093.68,1.174,1.159,2.334,2.331,3.5,3.5.182.182.317.328.209.642-.873,2.551-1.686,5.123-2.586,7.664a9.2,9.2,0,0,1-5.962,6.018,12.643,12.643,0,0,1-6.8.13A10.236,10.236,0,0,1-69.16,146.6c.068-.346-.023-.478-.325-.583-1.386-.486-2.763-.986-4.145-1.47-.6-.213-1.207-.419-1.888-.655.036.248.044.412.084.566q1.835,7.079,3.678,14.156c.887,3.419,1.78,6.827,2.647,10.246.1.39.284.449.626.448,4.751-.007,9.5,0,14.251-.018a1.156,1.156,0,0,0,.728-.315q3.747-3.71,7.461-7.454c.667-.67,1.307-1.366,1.976-2.068.206.179.323.268.426.372q4.577,4.576,9.16,9.145a1.155,1.155,0,0,0,.727.319c4.767.019,9.534.011,14.3.02a.5.5,0,0,0,.578-.446c.768-3.015,1.562-6.024,2.343-9.036q1.838-7.079,3.666-14.16c.146-.563.274-1.13.434-1.789-2.133.757-4.138,1.469-6.142,2.177-.246.086-.3.211-.259.485a9.884,9.884,0,0,1-3.949,9.994,11.09,11.09,0,0,1-8.648,2.092,9.308,9.308,0,0,1-7.959-6.4c-.905-2.5-1.688-5.05-2.552-7.568a.643.643,0,0,1,.182-.782c1.151-1.134,2.279-2.293,3.44-3.417a.55.55,0,0,0,.075-.845c-1.361-2.014-2.7-4.042-4.054-6.064C-42.837,132.734-43.384,131.928-43.972,131.05Zm24.454,42.736c-.153-.014-.266-.033-.379-.033q-6.948,0-13.9.01a.953.953,0,0,0-.605.253c-1.3,1.27-2.576,2.559-3.857,3.845a2.654,2.654,0,0,0-.224.309h18.961Zm-29.958,4.4a1.647,1.647,0,0,0-.15-.233c-1.329-1.333-2.654-2.67-4-3.986a.963.963,0,0,0-.622-.21q-6.849-.018-13.7-.008c-.162,0-.324.016-.492.025v4.412Zm5.481-.953a3.728,3.728,0,0,0,.313-.251c1.707-1.7,3.408-3.415,5.122-5.114.235-.233.283-.388.023-.646q-2.589-2.564-5.151-5.153c-.2-.2-.355-.247-.578-.023q-2.581,2.6-5.184,5.191c-.239.237-.212.387.013.611,1.725,1.71,3.438,3.431,5.158,5.148C-44.2,177.073-44.106,177.139-44,177.234Z" transform="translate(340 2795.172)"/></g></svg>