<svg xmlns="http://www.w3.org/2000/svg" width="191" height="315" viewBox="0 0 191 315">
  <g id="SVG" transform="translate(-3.55 -0.013)">
    <path id="Path_4128" data-name="Path 4128" d="M203.262,265.54l-2.069.321a.294.294,0,0,1,0-.087l-3.816-58.728a4.431,4.431,0,0,0-4.825-4.13l-29.295,2.6a4.428,4.428,0,0,0-4.051,4.7l3.886,61.6-2.069.321v-.1l-3.886-61.687a6.485,6.485,0,0,1,5.946-6.941l29.295-2.6a6.542,6.542,0,0,1,7.093,6.073Z" transform="translate(-35.399 -46.207)" fill="#26262e"/>
    <path id="Path_4129" data-name="Path 4129" d="M176.081,182.567l-29.886,2.317-1.034-4.893,31.051-3.34Z" transform="translate(-18.51 -24.115)" fill="#565565"/>
    <path id="Path_4130" data-name="Path 4130" d="M78.467,29.883v.278a7.838,7.838,0,0,0-.965.174c-2.243.512-7.545,2.516-7.041,9.873l-3.286-1.258a7.007,7.007,0,0,0-.73,3.731,10.684,10.684,0,0,0,1.652,5l1.443-.286-.113,3.644v1.18L69.314,55.6s-6.163,2.88-12.17-.1a11.872,11.872,0,0,1-1.356-.781C55.57,54.575,57,44,52.58,36.39a7.933,7.933,0,0,1,1.53-3.037c2.851-3.774,8.936-7.808,13.665-10.567a7.178,7.178,0,0,1,10.692,7.1Z" transform="translate(-21.734 -21.786)" fill="#524a50"/>
    <path id="Path_4131" data-name="Path 4131" d="M82.391,46.8a103.737,103.737,0,0,1-3.668,10.481L76.3,56.026,71.43,53.51V52.33l.113-3.644-1.434.286c-3.112-5.11-.93-8.728-.93-8.728L72.5,41.493c-.5-7.357,4.8-9.361,7.041-9.873C79.54,31.629,81.253,39.923,82.391,46.8Z" transform="translate(-23.807 -23.081)" fill="#efd1db"/>
    <path id="Path_4132" data-name="Path 4132" d="M75.623,68.924l-.739,2.325h0c-.339-.078-10.97-2.6-18.325-2.317V63.05l1.061.113c2.964.356,11.492,1.622,16.855,4.963C74.876,68.377,75.258,68.646,75.623,68.924Z" transform="translate(-22.255 -27.242)" fill="#e6e5e3"/>
    <path id="Path_4133" data-name="Path 4133" d="M74.9,59.366,74.625,67.3c-5.364-3.34-13.909-4.607-16.855-4.963v-2.2c5.989,2.976,12.17.1,12.17.1l.113-3.384Z" transform="translate(-22.413 -26.421)" fill="#d2a8b4"/>
    <path id="Path_4134" data-name="Path 4134" d="M102.615,177.461l-2.295.39-2.521.434a.1.1,0,0,1,0-.043c-.5-.668-6.528-8.928-7.685-12.511l-.1.5-2.738,12.875s-3.66.347-9.406.373h-2.33c-1.478,0-3.06-.052-4.72-.113h-.452a133.972,133.972,0,0,1-18.733-2.056l-.869-.173-.565-.113c-1.869-.373-3.747-.8-5.616-1.293a78.215,78.215,0,0,1-10.431-3.47c-.478-.2-.956-.4-1.426-.616l.183-.434h0c.869-1.987,1.791-4.685,2.79-7.7,3.477-10.507,7.432-24.874,7.719-26.584a81.811,81.811,0,0,1-12.109-52.49c7.432-7.2,21.88-14.628,21.88-14.628,7.345-.286,17.986,2.238,18.325,2.317h0l8.415,5.4,3.616,2.317.93.6s1.982,7.357,4.173,17.933c1.669,8.077,3.477,18.02,4.59,27.989a149.7,149.7,0,0,1,1.087,21.742c0,.156,0,.3,0,.451l.1.356h0c.417,1.458.817,2.837,1.191,4.156.1.321.191.642.278.963a1.483,1.483,0,0,0,.113.382l.382,1.336q.183.659.365,1.275l.452,1.579c.148.5.287,1,.426,1.484.061.2.113.39.174.581s.165.59.252.868.156.564.243.868h0c.078.295.156.581.243.868.156.564.313,1.1.461,1.622a1.654,1.654,0,0,0,.113.39c.252.868.5,1.735.713,2.473l.078.278c.13.442.252.868.365,1.267.052.182.1.347.148.521.13.434.243.868.356,1.241l.13.46c.1.373.209.729.3,1.058l.052.182v.087a.89.89,0,0,0,.061.217c.322,1.119.565,1.952.739,2.6a.951.951,0,0,0,.1.3Z" transform="translate(-18.891 -28.135)" fill="#fff"/>
    <path id="Path_4135" data-name="Path 4135" d="M164.4,169.97a19.262,19.262,0,0,1-.687,2c-.122.3-.261.625-.417.972a22.294,22.294,0,0,1-3.973,6.073,15.955,15.955,0,0,1-3.6,2.9c-10.492-4.737-52.3-27.147-52.3-27.147l-1.165-.052h-.748l-.426-4.164-.087-.8h0L81.76,110.279a52.059,52.059,0,0,1,2.382-15.287c2.79-8.676,7.015-12.9,7.015-12.9h0c.269.1,17.62,6.793,21.1,51.753,0,0,1.313,0,1.443.278a8.666,8.666,0,0,1-.782,2.16s2.086-.1,2.217.286-.574,1.8-.574,1.8,15.178,7.487,26.079,18.506C146.053,161.5,164.4,169.97,164.4,169.97Z" transform="translate(-25.549 -29.763)" fill="#fff"/>
    <path id="Path_4137" data-name="Path 4137" d="M95.9,327.751l-3.069,13.431,1.052,3.713a15.657,15.657,0,0,1-4.146,2.186,17.416,17.416,0,0,1-13.335-.564l-.574-.26C67.66,329.087,65.6,275.729,65.6,275.729s-1.269-.243,1.078-.694c1.365-11-.452-31.546-2.112-46.218-1.1-9.726-2.147-16.927-2.147-16.927l-1.991-.694.817-1.735H59.254l-.139-5.18C50.892,200.6,47.449,192.7,46.58,190.347c2.364.625,4.738,1.145,7.093,1.579a145.326,145.326,0,0,0,35.641,1.822l2.834-13.379c1.2,3.739,7.719,12.554,7.719,12.554l2.521-.434c0,12.962-11.24,67.613-11.24,67.613l.869,2.716c-3.242,13.943-1.539,61.878-1.539,61.878Z" transform="translate(-20.95 -42.774)" fill="#595964"/>
    <path id="Path_4138" data-name="Path 4138" d="M52.448,265.977c-4.807,10.151-11.431,35.945-11.431,35.945l2.269,1.978c-.409,1.969-2.834,32.7-2.834,32.7l3.807,4.65a12.5,12.5,0,0,1-3.538,8.182h0a11.707,11.707,0,0,1-1.539,1.406l-1.921-.13H33.741l-.869-.061-.635-.043-1.713-.373h-.391l-3.1-.217a24.519,24.519,0,0,1-.574-3.8c0-1.267,2.121-6.342,2.121-6.342l-7.4-62.338s5.433-20.163,11.692-35.069a277.473,277.473,0,0,1-1.513-41.7,17.119,17.119,0,0,1-.756-1.588c-.113-.364,1.443-.98,1.443-.98a7.9,7.9,0,0,1-.869-1.909c0-.364.869-.434.869-.434l.748-7.947a79.524,79.524,0,0,0,10.431,3.47c.869,2.343,4.346,10.246,12.544,13.882l.113,5.206h1.991l-.817,1.735,1.991.7s1.1,7.184,2.2,16.91L50.753,262.6Z" transform="translate(-17.63 -43.772)" fill="#34343d"/>
    <path id="Path_4139" data-name="Path 4139" d="M122.189,382.893H79.29a38.7,38.7,0,0,1,1.365-11.279A17.466,17.466,0,0,0,98.162,370s20.359,7.878,25.548,8.728a3.3,3.3,0,0,1-1.521,4.164Z" transform="translate(-25.226 -67.879)" fill="#29262b"/>
    <path id="Path_4140" data-name="Path 4140" d="M38.8,383.518H26.41c0-6.941,1.3-8.8,1.3-8.8l3.1.217h.391l1.686.113.635.043.869.061h3.521C39.519,378.1,38.8,383.518,38.8,383.518Z" transform="translate(-18.314 -68.504)" fill="#29262b"/>
    <path id="Path_4141" data-name="Path 4141" d="M56.09,380.769l-.939,2.664H40.529s.722-5.414-.869-8.077l1.921.13a11.707,11.707,0,0,0,1.539-1.406h0Z" transform="translate(-20.046 -68.42)" fill="#333134"/>
    <path id="Path_4142" data-name="Path 4142" d="M42.8,139.11c-.287,1.735-4.233,16.077-7.719,26.584-2.956-6.75-7.172-23.3-7.172-23.3l-1.026-.46.461-1.57-.748-.278.722-2.343c-2.66-10.22.078-31.676.078-31.676l-1.287-2,1.939-2.36c-.617-5.431,1.591-15.027,1.591-15.027h1.052A81.811,81.811,0,0,0,42.8,139.11Z" transform="translate(-18.274 -30.37)" fill="#fff"/>
    <path id="Path_4143" data-name="Path 4143" d="M190.581,252.46l-2.921,96.7H127.3l-.687-86.778,15.1-2.343,2.069-.321,38.1-5.917,2.06-.321Z" transform="translate(-16.085 -34.151)" fill="#43434e"/>
    <path id="Path_4144" data-name="Path 4144" d="M199.752,252.46h20.063l-5.294,96.7H196.84Z" transform="translate(-25.265 -34.151)" fill="#26262e"/>
    <path id="Path_4148" data-name="Path 4148" d="M207.841,252.46l-4.181,96.7h1.113l5.989-96.7Z" transform="translate(-26.157 -34.151)" fill="#403f48"/>
    <g id="Group_8404" data-name="Group 8404" transform="translate(134.587 142.953)">
      <path id="Path_4136" data-name="Path 4136" d="M191.421,208.243h-.673l-4.593-9.284L184.8,211.581h-.968l-.336-11.44-3.846,10.817-.96-.566,1.862-9.571-4.1,8.6-.7-.394,2.46-10.661-2.887-3.854L171,192.341a1.265,1.265,0,0,0,.139-.156h0a21.528,21.528,0,0,0,4-6.5c1.64.533,9.636,3.125,11.367,3.584,1.944,4.609,4.806,18.4,4.921,18.953Z" transform="translate(-170.861 -185.69)" fill="#efd1db"/>
      <path id="Path_4149" data-name="Path 4149" d="M191.119,208.246h-.32l-5.651-17.222s-5.6-1.952-8.308-2.616c-1.722,2.362-4.921,3.477-6.011,3.8a21.478,21.478,0,0,0,3.994-6.5c1.64.533,9.644,3.125,11.375,3.584,1.944,4.609,4.806,18.4,4.921,18.953Z" transform="translate(-170.83 -185.694)" fill="#d2a8b4"/>
      <path id="Path_4150" data-name="Path 4150" d="M159.877,176.556l7.955-1.976.7.992L162,178.229l.3.541-3.149,10.563-.3-.164,2.46-10.694Z" transform="translate(-154.219 -165.83)" fill="#d2a8b4"/>
    </g>
    <path id="Path_4151" data-name="Path 4151" d="M64.238,196.043c4.155,9.153,13.1,23.859,19.237,30.366s-11.127.573-12.848,0-1.043,14.359,6.189,20.866-6.189,2.108-7.154.764,4.72,29.1,7.154,32.353-4.277-1.666-5.807-4.182-3.242,16.433,3.156,23.13S83.98,343,89.387,347.1h0a17.417,17.417,0,0,1-13.335-.564l-.574-.26c-8.171-17.17-10.232-70.528-10.232-70.528s-1.278-.252,1.1-.72c1.356-11-.452-31.546-2.112-46.218-1.113-9.717-2.156-16.918-2.156-16.918l-1.991-.694.826-1.735H58.927l-.122-5.154c-8.223-3.679-11.675-11.583-12.535-13.934,2.356.625,4.729,1.145,7.085,1.579A145.334,145.334,0,0,0,89,193.778L91.847,180.4l-.73,15.669S80.685,198.42,64.238,196.043Z" transform="translate(-20.91 -42.778)" fill="#48484e"/>
    <path id="Path_4152" data-name="Path 4152" d="M102.609,179l-2.295.39-2.269.39-.261.043s-5.972-8.077-7.528-12.051c-.07-.174-.13-.347-.183-.5l-2.851,13.379s-3.529.33-9.11.373H75.817c-1.556,0-3.234-.043-5.016-.113h-.156l-.269-.078c-1.739-.226-10.536-1.058-19.368-2.2l-.565-.113c-1.869-.373-3.747-.8-5.616-1.293a78.213,78.213,0,0,1-10.431-3.47c-.478-.2-.956-.4-1.426-.616l.183-.434h0c3.8-.564,10.71.13,12.014.13,5.842,0,11.9.486,17.707,0,5.633-.486,9.936-4.165,12.17-9.179.956-2.169.661-4.538.661-6.941,0-1.666-.765-5.362,0-6.681-3.425.069-5.876,0-8.615,2.169-2.078,1.648-3.634,3.323-6.52,2.438-1.843-.564-1.921-.607-1.174-2.724a15.946,15.946,0,0,1,1.652-2.985c1.739-2.82,3.79-5.483,5.007-8.468,1.547-3.791,2.99-17.621-4.5-14.472-1.252.521-3.712,2.507-5.216,1.015s1.043-4.694,1.739-5.813c2.973-4.65,7.18-9.032,6.954-14.958a15.292,15.292,0,0,0-3.9.633c-1.739.625-2.738,2.048-4.468,2.421-3.938.868-3.816-1.943-2.373-4.7,1.365-2.6,11.44-13.066,14.491-15.721,5.894-5.1,8.919-5.8,14.656-7.47l.921.6s-9.041,9.127-9.275,28.18l19.237,39.476v.451l.1.356h0l.443,4.112h.748c.1.321.183.642.278.963a1.205,1.205,0,0,0,.113.382c.13.46.252.868.382,1.336s.243.868.365,1.275L97.2,160.1c.148.5.287,1,.426,1.484.061.2.113.39.165.581s.174.59.252.868.165.564.243.868h0c.087.295.165.581.252.868.156.564.313,1.1.461,1.622a1.326,1.326,0,0,0,.113.39c.252.868.487,1.735.713,2.473l.078.278c.122.442.243.868.365,1.267.043.174.1.347.148.521.122.434.243.868.356,1.241l.13.46c.1.373.209.729.3,1.058l.052.182v.087a1.578,1.578,0,0,0,.061.217c.322,1.119.565,1.952.739,2.6a1.216,1.216,0,0,0,.087.3Z" transform="translate(-19.171 -29.67)" fill="#e6e5e3"/>
    <path id="Path_4153" data-name="Path 4153" d="M128.655,145.443c-1.982-1.831-8.6-5.535-11.083-6.941l-.869-.486-.113-.069.052-.113a5.075,5.075,0,0,0,.3-1.735,12.558,12.558,0,0,0-1.791-.191h-.191l.07-.182a7.485,7.485,0,0,0,.53-1.969,2.508,2.508,0,0,0-1.33-.087h-.156v-.148c-1.156-20.71-6.511-33.507-10.8-40.6-4.633-7.678-9.058-10.5-9.1-10.524l.148-.243c.052,0,4.52,2.872,9.188,10.594,4.346,7.106,9.666,19.912,10.849,40.6.556,0,1.347-.052,1.478.286a5.8,5.8,0,0,1-.461,1.987c1.669.1,1.739.26,1.817.312a4.183,4.183,0,0,1-.226,1.9l.748.425c2.495,1.4,9.136,5.11,11.136,6.941Z" transform="translate(-27.171 -29.772)" fill="#665f4d"/>
    <path id="Path_4154" data-name="Path 4154" d="M163.421,173.943a5.409,5.409,0,0,1-.122.972,22.293,22.293,0,0,1-3.973,6.073,15.954,15.954,0,0,1-3.6,2.9c-10.492-4.737-52.3-27.147-52.3-27.147l-1.165-.052h-.748l-.426-4.164-.087-.8h0L81.76,112.247A52.059,52.059,0,0,1,84.142,96.96c4.138,7.652,22.6,41.966,24.862,48.838,1.486,4.954-3.173,0-4.407-1.085s-1.591,10.012,4.407,11.982,48.063,23.347,48.063,23.347Z" transform="translate(-25.549 -31.731)" fill="#e6e5e3"/>
    <path id="Path_4155" data-name="Path 4155" d="M131.2,169.979h-.061c-14.048-7.34-29.252-15.478-30.017-15.886l-1.878-.1a.139.139,0,0,1-.139-.13l-.53-4.893L79.319,109.506a.164.164,0,0,1,0-.069A52.527,52.527,0,0,1,81.71,94.106c2.764-8.615,7.006-12.919,7.05-12.962a.148.148,0,0,1,.2,0,.139.139,0,0,1,0,.208s-4.233,4.338-6.954,12.841a52.05,52.05,0,0,0-2.373,15.218l19.22,39.433a.165.165,0,0,1,0,.061l.522,4.807,1.791.087a.087.087,0,0,1,.061,0c.156.078,15.7,8.407,30.034,15.895a.139.139,0,0,1,.061.2A.157.157,0,0,1,131.2,169.979Z" transform="translate(-25.229 -29.632)" fill="#665f4d"/>
    <path id="Path_4156" data-name="Path 4156" d="M38.622,176.113h-.043c-1.739-.564-3.373-1.189-4.946-1.839l-1.434-.616a.147.147,0,0,1-.07-.191l.183-.434c.774-1.865,1.739-4.468,2.808-7.739,3.477-10.585,7.363-24.666,7.7-26.505a82.391,82.391,0,0,1-12.1-52.482.1.1,0,0,1,.043-.087c.722-.7,1.547-1.44,2.443-2.186a.139.139,0,0,1,.2,0,.147.147,0,0,1,0,.208c-.869.729-1.678,1.44-2.391,2.126a82.157,82.157,0,0,0,12.057,52.291.173.173,0,0,1,0,.1c-.313,1.831-4.346,16.389-7.728,26.61-1.087,3.271-2.034,5.882-2.816,7.756a.891.891,0,0,1-.122.3l1.3.555c1.565.651,3.225,1.267,4.929,1.839a.147.147,0,0,1,.087.182A.139.139,0,0,1,38.622,176.113Z" transform="translate(-18.816 -30.014)" fill="#665f4d"/>
    <path id="Path_4157" data-name="Path 4157" d="M78.579,29.877v.278a7.838,7.838,0,0,0-.965.174c-2.243.512-7.545,2.516-7.041,9.873l-3.286-1.258a7.008,7.008,0,0,0-.73,3.731,9.218,9.218,0,0,0-.991.521c-.574-.642-1.034-2.082-2.052-1.735s-1.973,2.837-1.939,3.765c-2.191-1.857-2.5-4.668-2.608-7.314-.869-.061-1.739.868-2.495,1.18-.635-1.119-.148-3.045-.235-4.338-.939.13-1.939,1.345-2.79,1.267-.122-.807.5-1.648.713-2.4l.087-.321c2.851-3.774,8.936-7.808,13.665-10.567a7.178,7.178,0,0,1,10.666,7.149Z" transform="translate(-21.846 -21.78)" fill="#3d383c"/>
    <path id="Path_4158" data-name="Path 4158" d="M225.359,369.689h0a.148.148,0,0,1-.139-.148l4.842-95.333a.148.148,0,0,1,.148-.139.156.156,0,0,1,.139.156l-4.842,95.333a.139.139,0,0,1-.148.13Z" transform="translate(-44.3 -55.909)" fill="#4c4c55"/>
    <path id="Path_24160" data-name="Path 24160" d="M-22426.672-12405.146a3.446,3.446,0,0,1-.35-.012c-.111-.006-.225-.017-.332-.033s-.213-.034-.32-.057-.2-.051-.3-.079-.2-.067-.291-.106-.182-.085-.271-.13-.168-.1-.248-.152a2.522,2.522,0,0,1-.23-.186,2.239,2.239,0,0,1-.207-.2,1.734,1.734,0,0,1-.186-.236,1.912,1.912,0,0,1-.158-.254c-.051-.1-.1-.186-.141-.287s-.074-.2-.107-.31-.057-.225-.078-.343-.035-.242-.045-.366-.018-.259-.018-.4.006-.26.018-.378a3.09,3.09,0,0,1,.051-.359,3.062,3.062,0,0,1,.078-.333,2.484,2.484,0,0,1,.107-.314c.045-.1.09-.191.141-.287a2.747,2.747,0,0,1,.162-.26,2.1,2.1,0,0,1,.186-.236,2.692,2.692,0,0,1,.209-.214c.072-.062.146-.124.23-.186a1.577,1.577,0,0,1,.248-.157c.084-.051.174-.1.26-.141s.191-.079.287-.113.2-.062.3-.09a2.646,2.646,0,0,1,.311-.062c.1-.018.213-.028.32-.04s.221-.011.332-.011c.074,0,.146,0,.215.006s.141,0,.207.011.137.017.2.022l.186.034c.063.011.119.028.176.039s.111.028.162.045a1.6,1.6,0,0,1,.152.057.927.927,0,0,1,.135.056c.045.023.086.046.125.068s.072.045.111.067.063.051.09.078a1.066,1.066,0,0,1,.08.085.637.637,0,0,1,.057.09.31.31,0,0,1,.045.09.553.553,0,0,1,.027.091.458.458,0,0,1,.006.09.5.5,0,0,1-.006.1c-.006.033-.012.062-.018.09a.307.307,0,0,1-.039.085.362.362,0,0,1-.045.078.864.864,0,0,0-.057.067.531.531,0,0,1-.061.063.381.381,0,0,1-.062.057c-.023.017-.045.027-.068.045l-.135-.085a1.4,1.4,0,0,0-.152-.079c-.051-.027-.105-.05-.162-.078s-.113-.051-.176-.073a1.7,1.7,0,0,0-.2-.062c-.068-.017-.137-.033-.215-.045s-.152-.022-.236-.028-.164,0-.254,0c-.072,0-.146,0-.213,0s-.141.018-.209.028-.129.028-.2.045-.123.04-.186.063a1.665,1.665,0,0,0-.18.079c-.057.027-.107.062-.164.1a1.265,1.265,0,0,0-.146.112,1.3,1.3,0,0,0-.141.124,1.409,1.409,0,0,0-.123.141,1.5,1.5,0,0,0-.107.157,1.547,1.547,0,0,0-.1.175,1.115,1.115,0,0,0-.084.191c-.023.067-.045.135-.068.208s-.033.141-.045.214-.021.158-.027.236-.006.158-.006.248,0,.175.006.259.018.169.027.248.029.151.045.225.045.141.068.209a1.15,1.15,0,0,0,.084.191,1.1,1.1,0,0,0,.1.168,1.074,1.074,0,0,0,.107.158,1.409,1.409,0,0,0,.123.141,1.556,1.556,0,0,0,.141.124,1.442,1.442,0,0,0,.146.1,1.644,1.644,0,0,0,.164.09,1.716,1.716,0,0,0,.174.073c.063.017.125.033.186.051s.125.027.191.039.137.017.2.022.141.012.209.012c.045,0,.1-.006.141-.006a1.046,1.046,0,0,0,.135-.012,1.147,1.147,0,0,0,.129-.011.731.731,0,0,1,.119-.022c.039-.012.078-.018.111-.028s.068-.017.1-.028.057-.017.086-.028.051-.022.072-.033v-1.38h-1.271a.314.314,0,0,1-.023-.045.157.157,0,0,1-.021-.051.129.129,0,0,1-.023-.051.384.384,0,0,0-.021-.062l-.018-.067c-.006-.022-.006-.045-.012-.067a.335.335,0,0,1-.006-.073.36.36,0,0,1-.006-.079.823.823,0,0,1,.012-.124.533.533,0,0,1,.023-.1.353.353,0,0,1,.039-.09.326.326,0,0,1,.051-.073.558.558,0,0,1,.066-.056.46.46,0,0,1,.074-.04.243.243,0,0,1,.09-.022.47.47,0,0,1,.09-.011h1.666a.709.709,0,0,1,.119.011.647.647,0,0,1,.105.022.5.5,0,0,1,.092.045.535.535,0,0,1,.078.063.457.457,0,0,1,.063.073.963.963,0,0,1,.045.09.783.783,0,0,1,.027.107.717.717,0,0,1,.006.118v2.088a.792.792,0,0,1-.006.118.309.309,0,0,1-.018.1.791.791,0,0,1-.033.09.307.307,0,0,1-.045.073c-.018.022-.039.045-.057.067l-.078.063a.487.487,0,0,1-.09.062c-.033.022-.068.039-.107.063-.021.011-.045.027-.068.039a.783.783,0,0,1-.078.033.371.371,0,0,1-.084.04c-.027.011-.057.017-.09.028l-.1.033c-.033.012-.068.018-.1.028s-.072.017-.113.028a.937.937,0,0,0-.111.022.852.852,0,0,0-.119.022l-.117.017-.119.018c-.045,0-.084.011-.123.017a.954.954,0,0,1-.125.011c-.045.006-.084.006-.123.012s-.084.006-.129.006Zm22.686-.067a.878.878,0,0,1-.141-.023.68.68,0,0,1-.123-.045.619.619,0,0,1-.107-.056.463.463,0,0,1-.078-.073.527.527,0,0,1-.062-.09.538.538,0,0,1-.033-.1.745.745,0,0,1-.012-.118v-.057a.219.219,0,0,0,.006-.062.2.2,0,0,0,.012-.057c.006-.017.01-.039.016-.057s.012-.039.018-.062.018-.039.023-.062.016-.046.021-.068.018-.05.023-.073c.016-.045.027-.1.045-.146s.027-.1.045-.158.039-.118.061-.175.041-.123.063-.19.045-.13.068-.2.045-.141.072-.209.045-.146.074-.219.045-.152.072-.226.051-.157.078-.236.057-.152.08-.23.057-.164.084-.242.063-.163.09-.242.063-.163.09-.248.057-.157.084-.236.057-.157.086-.236.057-.157.084-.23.051-.158.078-.231.057-.146.08-.219.055-.142.078-.209.057-.141.078-.208.051-.13.074-.191.051-.124.072-.18a1.36,1.36,0,0,1,.063-.164c.018-.056.039-.106.057-.151.021-.012.045-.022.072-.034s.057-.022.086-.033a.562.562,0,0,1,.105-.04c.035-.011.074-.022.119-.033a.932.932,0,0,1,.123-.028.99.99,0,0,1,.129-.022.931.931,0,0,1,.125-.012.993.993,0,0,1,.129-.006,1.537,1.537,0,0,1,.17.006l.162.018c.057.011.107.022.158.033s.1.028.146.045a.72.72,0,0,1,.129.063.694.694,0,0,1,.107.073.576.576,0,0,1,.078.1.325.325,0,0,1,.051.1c.035.091.068.187.1.287s.074.2.107.3.072.208.113.32.078.226.117.344l.119.36c.039.118.078.236.117.36s.084.247.125.365.078.254.117.378.084.247.123.377.08.247.119.365.078.248.113.372.078.242.117.36.074.242.113.354.066.226.1.332.066.214.1.315.061.2.09.3a.252.252,0,0,1-.057.051.486.486,0,0,1-.062.051.779.779,0,0,1-.072.045c-.023.012-.051.028-.08.04l-.09.033c-.033.006-.066.017-.1.022a.646.646,0,0,1-.105.012.709.709,0,0,1-.113.006,1.429,1.429,0,0,1-.164-.006c-.051-.006-.1-.018-.135-.022s-.078-.028-.107-.04a.53.53,0,0,1-.09-.056.828.828,0,0,1-.066-.073c-.018-.022-.039-.057-.057-.085a.44.44,0,0,1-.051-.106.884.884,0,0,1-.045-.13l-.3-.99h-2.223c-.018.062-.035.123-.057.186s-.033.124-.057.191-.039.124-.057.191-.039.129-.062.2-.039.129-.061.191-.035.118-.051.169-.033.106-.051.157-.029.09-.039.135a.2.2,0,0,0-.051.022l-.051.018-.057.017a.193.193,0,0,1-.057.011l-.062.018c-.021,0-.039.006-.066.006a.351.351,0,0,1-.074,0,.326.326,0,0,1-.078.006C-22403.885-12405.2-22403.936-12405.208-22403.986-12405.213Zm2.156-4.932c-.016.045-.033.09-.051.135s-.033.1-.051.146l-.051.146c-.016.051-.033.107-.051.157s-.033.1-.055.158-.035.106-.057.163-.033.107-.051.163-.039.112-.062.163-.039.113-.057.169-.039.113-.055.169-.041.118-.062.175-.039.112-.057.169-.039.112-.057.169-.039.106-.057.163-.039.112-.055.169h1.723l-.8-2.539h-.051C-22401.8-12410.229-22401.818-12410.184-22401.83-12410.145Zm-12,4.92a.891.891,0,0,1-.123-.022.547.547,0,0,1-.107-.045.62.62,0,0,1-.1-.062.894.894,0,0,1-.078-.073.828.828,0,0,1-.084-.09c-.023-.028-.051-.062-.08-.1s-.051-.072-.078-.112l-1.121-1.672h-.922v2.089a.116.116,0,0,1-.051.011.172.172,0,0,1-.057.012l-.068.017a.422.422,0,0,0-.078.012.428.428,0,0,1-.084.011.379.379,0,0,1-.084.012.543.543,0,0,1-.092,0h-.09c-.066,0-.123,0-.174,0a1.056,1.056,0,0,1-.146-.028.865.865,0,0,1-.123-.039c-.029-.023-.062-.04-.086-.062a.244.244,0,0,1-.066-.084.284.284,0,0,1-.051-.1.844.844,0,0,1-.029-.13c0-.045-.01-.1-.01-.151v-4.977a.434.434,0,0,1,.006-.09.3.3,0,0,1,.021-.079.2.2,0,0,1,.029-.062.18.18,0,0,1,.045-.057.466.466,0,0,1,.055-.051c.018-.011.041-.028.063-.039a.46.46,0,0,1,.074-.04.422.422,0,0,1,.084-.027.733.733,0,0,1,.168-.051,1.36,1.36,0,0,1,.176-.045l.2-.034c.066-.012.135-.017.207-.028l.221-.017.219-.017c.072,0,.146-.006.225-.006s.146-.006.227-.006a5.251,5.251,0,0,1,.613.034,3.563,3.563,0,0,1,.529.1,2.586,2.586,0,0,1,.449.169,2.106,2.106,0,0,1,.371.236,2.021,2.021,0,0,1,.287.3,1.725,1.725,0,0,1,.2.349,1.833,1.833,0,0,1,.119.395,2.418,2.418,0,0,1,.045.45,1.681,1.681,0,0,1-.023.3,1.674,1.674,0,0,1-.061.281,1.942,1.942,0,0,1-.1.26,1.522,1.522,0,0,1-.141.242,2.372,2.372,0,0,1-.182.219,2.117,2.117,0,0,1-.213.191,2.462,2.462,0,0,1-.236.163,2.514,2.514,0,0,1-.271.136c.068.1.141.191.215.281s.141.181.209.271.141.18.207.265.135.174.2.259.129.169.191.242.113.146.158.214.1.129.141.186.078.112.111.157c-.016.045-.027.085-.045.124a.661.661,0,0,1-.066.107.6.6,0,0,1-.074.09.475.475,0,0,1-.09.079c-.033.027-.072.045-.1.067l-.111.045a.917.917,0,0,1-.107.022.794.794,0,0,1-.119.012A1.141,1.141,0,0,1-22413.832-12405.225Zm-2.178-5.19c-.033,0-.062.006-.1.006s-.062.006-.1.012-.057,0-.09,0a.434.434,0,0,1-.084.012c-.029.006-.057.006-.086.011s-.055.006-.078.012v1.942h.811a1.953,1.953,0,0,0,.27-.018,1.564,1.564,0,0,0,.242-.045,1.1,1.1,0,0,0,.209-.079.956.956,0,0,0,.186-.106.868.868,0,0,0,.152-.141.827.827,0,0,0,.107-.175.738.738,0,0,0,.061-.2,1.016,1.016,0,0,0,.023-.236,1.066,1.066,0,0,0-.084-.439.823.823,0,0,0-.248-.31,1.219,1.219,0,0,0-.422-.191,2.553,2.553,0,0,0-.586-.062h-.1A.558.558,0,0,1-22416.01-12410.415Zm26.807,5.179c-.062,0-.123,0-.174,0a1.056,1.056,0,0,1-.146-.028.682.682,0,0,1-.119-.039.722.722,0,0,1-.084-.062.275.275,0,0,1-.068-.084.519.519,0,0,1-.045-.1.5.5,0,0,1-.027-.124,1.141,1.141,0,0,1-.012-.146v-1.564l-.135-.2c-.045-.067-.09-.135-.141-.208s-.1-.141-.141-.214-.1-.152-.146-.23l-.152-.237c-.045-.073-.1-.151-.146-.23s-.1-.157-.146-.236-.1-.157-.141-.236-.1-.158-.141-.236-.1-.158-.141-.236-.084-.158-.129-.236-.084-.152-.125-.231-.084-.151-.123-.225-.072-.146-.107-.214-.066-.136-.1-.2a1.764,1.764,0,0,1-.09-.2c.012-.022.029-.045.045-.073a.576.576,0,0,1,.057-.067.373.373,0,0,1,.068-.067.909.909,0,0,1,.078-.062.467.467,0,0,1,.09-.057.768.768,0,0,1,.1-.039c.033-.006.072-.018.107-.022a.865.865,0,0,1,.123-.006,1.083,1.083,0,0,1,.141.006.757.757,0,0,1,.119.027.361.361,0,0,1,.111.04.411.411,0,0,1,.09.056c.029.022.063.046.092.073a1.082,1.082,0,0,1,.084.1c.027.039.057.079.084.124s.057.1.084.146c.012.022.029.051.045.078s.035.068.057.107.045.079.074.124.051.1.078.151.057.107.09.164.057.112.09.169.063.112.09.168.063.119.1.181a1.933,1.933,0,0,1,.1.175c.035.056.063.112.1.169s.057.112.09.169.057.106.086.157a1.263,1.263,0,0,0,.084.146c.021.045.045.084.066.124s.035.067.051.1.029.05.045.073h.045c.035-.062.063-.124.1-.181s.063-.118.092-.18.061-.113.084-.169.063-.113.09-.169.057-.113.084-.169.051-.107.08-.163.055-.107.084-.164.051-.106.078-.163.051-.106.078-.157.051-.112.08-.163.051-.113.078-.163.051-.113.074-.169.051-.113.078-.169.051-.113.078-.169.057-.113.086-.175.055-.118.084-.175c.016-.011.039-.022.057-.033s.045-.017.066-.028.051-.017.074-.022.045-.012.072-.017.051-.006.074-.012.051-.006.078-.011.045-.006.068-.006h.072a.907.907,0,0,1,.129.006.641.641,0,0,1,.113.027.658.658,0,0,1,.107.046c.033.017.061.039.09.056a.494.494,0,0,1,.078.079.515.515,0,0,1,.057.1.408.408,0,0,1,.027.1.419.419,0,0,1,.012.123.244.244,0,0,1-.006.063.56.56,0,0,1-.021.084.372.372,0,0,1-.035.1.7.7,0,0,1-.045.118c-.016.045-.039.091-.061.141s-.051.1-.08.158-.055.112-.09.175-.066.129-.107.2-.078.141-.123.22-.09.158-.135.242-.1.175-.158.265-.111.186-.168.287-.125.2-.186.31-.137.22-.209.332-.146.23-.225.354-.158.254-.242.383v2.089a.136.136,0,0,1-.045.011.172.172,0,0,1-.057.012l-.068.017a.368.368,0,0,0-.072.012.521.521,0,0,1-.084.011.433.433,0,0,1-.086.012.474.474,0,0,1-.084,0Zm-4.465,0a1.353,1.353,0,0,1-.141,0,1.024,1.024,0,0,1-.141-.018l-.135-.033a1.248,1.248,0,0,1-.123-.045.736.736,0,0,1-.119-.067.827.827,0,0,1-.111-.091,1.467,1.467,0,0,1-.1-.124.868.868,0,0,1-.1-.151l-1.43-2.567c-.035-.056-.068-.118-.1-.174s-.062-.124-.1-.187-.062-.123-.1-.186-.057-.129-.09-.191-.062-.129-.086-.191-.061-.124-.084-.18-.057-.118-.078-.175-.051-.112-.074-.163l-.061.011c.01.091.016.181.021.276s.018.18.023.275.006.187.01.282.006.19.012.286.006.191.006.282.006.186.006.275v2.781a.1.1,0,0,1-.045.011.13.13,0,0,1-.051.012l-.068.017a.368.368,0,0,0-.072.012.387.387,0,0,1-.078.011.433.433,0,0,1-.086.012.474.474,0,0,1-.084,0h-.09c-.062,0-.119,0-.168,0s-.1-.018-.143-.022-.084-.028-.117-.045a.324.324,0,0,1-.084-.057.289.289,0,0,1-.068-.079,1.037,1.037,0,0,1-.045-.1.758.758,0,0,1-.027-.123,1.156,1.156,0,0,1-.012-.146v-5.286a.656.656,0,0,1,.063-.067.343.343,0,0,1,.072-.057.5.5,0,0,1,.09-.051.489.489,0,0,1,.1-.045.576.576,0,0,1,.107-.033c.039-.012.072-.018.111-.028a.848.848,0,0,1,.125-.012.865.865,0,0,1,.123-.006,1.324,1.324,0,0,1,.152.006,1.4,1.4,0,0,1,.141.022.621.621,0,0,1,.135.034.954.954,0,0,1,.125.045.6.6,0,0,1,.117.067c.039.028.074.063.113.1s.068.079.1.124a1.131,1.131,0,0,1,.1.152l1.43,2.566c.033.063.066.118.1.181s.061.123.1.186.061.118.09.18.063.13.1.191.063.124.09.187.057.123.084.18.051.118.074.169.051.112.072.163l.039-.006c-.006-.1-.016-.2-.021-.292l-.018-.287c-.006-.1-.012-.187-.012-.282s-.01-.186-.01-.275-.006-.186-.006-.276-.006-.18-.006-.27-.006-.181-.006-.271v-2.521a.17.17,0,0,0,.045-.012.232.232,0,0,0,.057-.011.264.264,0,0,0,.066-.012.389.389,0,0,0,.074-.011.414.414,0,0,0,.084-.012c.029,0,.057-.006.084-.006s.057-.006.08-.006h.084a1.666,1.666,0,0,1,.174.006,1.154,1.154,0,0,1,.141.028.632.632,0,0,1,.119.039.544.544,0,0,1,.09.063.344.344,0,0,1,.068.079.484.484,0,0,1,.045.1.455.455,0,0,1,.027.124.571.571,0,0,1,.012.146v5.354a.735.735,0,0,1-.062.051.335.335,0,0,1-.072.045.339.339,0,0,1-.08.039l-.1.034c-.033.011-.072.017-.105.028l-.119.017c-.039.006-.078.006-.123.011Zm-12.4,0a1.138,1.138,0,0,1-.129,0,.844.844,0,0,1-.113-.018c-.039-.011-.072-.022-.107-.033a.489.489,0,0,1-.1-.045.641.641,0,0,1-.09-.062.483.483,0,0,1-.061-.09.344.344,0,0,1-.041-.106.37.37,0,0,1-.021-.136c-.006-.1-.018-.2-.023-.31s-.01-.2-.016-.31l-.018-.3c-.006-.1-.012-.2-.018-.3s-.01-.2-.01-.3l-.018-.287c0-.1-.006-.186-.012-.281s-.006-.181-.006-.271-.01-.175-.01-.259-.006-.175-.012-.254-.006-.163-.012-.242-.006-.157-.006-.23-.012-.146-.012-.22,0-.135-.01-.2-.006-.124-.006-.186-.006-.118-.006-.169h-.051c-.023.073-.051.157-.084.247s-.068.181-.1.282-.074.2-.119.31-.084.225-.129.343-.1.248-.146.383-.107.287-.168.439-.119.315-.187.489-.129.35-.2.541c-.018.011-.035.022-.057.033s-.039.022-.057.034-.045.022-.072.033-.045.018-.074.028-.051.012-.084.018l-.084.017c-.035.006-.062.006-.1.011h-.227a.969.969,0,0,0-.111-.011c-.039-.012-.074-.017-.1-.022s-.068-.018-.1-.028a.324.324,0,0,1-.078-.039l-.068-.051a.822.822,0,0,1-.057-.067l-.039-.073c-.068-.169-.135-.332-.2-.49s-.117-.3-.174-.45-.113-.281-.164-.411-.1-.259-.146-.377-.09-.23-.135-.344-.078-.219-.119-.32-.072-.2-.105-.287-.062-.186-.09-.271h-.051c0,.112-.006.22-.012.326s-.012.209-.012.31-.012.2-.016.3-.012.191-.012.281-.012.186-.012.275-.012.187-.012.276-.012.18-.012.271-.01.174-.01.264-.006.175-.012.265-.006.181-.012.271-.006.181-.012.271,0,.18-.01.27-.012.187-.012.276-.012.191-.018.293-.012.2-.016.3-.012.208-.018.315c-.018.006-.039.006-.057.012l-.057.017a.262.262,0,0,1-.066.011l-.068.018a.429.429,0,0,1-.078.011.329.329,0,0,1-.08.012.42.42,0,0,1-.078,0h-.084a1.15,1.15,0,0,1-.293-.027.53.53,0,0,1-.2-.1.373.373,0,0,1-.129-.152.614.614,0,0,1-.039-.22v-.09a.7.7,0,0,1,.006-.107v-.135c0-.051,0-.1.01-.157s.006-.113.006-.169.006-.124.012-.191.006-.13.012-.2.006-.141.012-.214,0-.152.01-.226l.018-.236c0-.084.006-.163.012-.247s.01-.169.016-.259.012-.175.018-.265.012-.175.018-.265.016-.175.021-.265.012-.181.018-.265.012-.181.016-.271.012-.175.018-.265.012-.175.018-.265.016-.174.021-.259.012-.175.018-.253.012-.169.018-.248.016-.157.021-.236.006-.157.012-.23a.356.356,0,0,1,.051-.051.38.38,0,0,1,.063-.051c.027-.017.055-.034.084-.051a1.067,1.067,0,0,1,.1-.051.79.79,0,0,1,.117-.045c.039-.012.08-.022.125-.034l.146-.017a1.446,1.446,0,0,1,.162-.006,1.762,1.762,0,0,1,.18.006,1.623,1.623,0,0,1,.164.022.985.985,0,0,1,.141.04.785.785,0,0,1,.123.056.643.643,0,0,1,.113.067c.033.028.063.063.1.1a.649.649,0,0,1,.078.113,1.08,1.08,0,0,1,.068.135,1.318,1.318,0,0,1,.063.157c.021.051.045.107.066.164s.051.112.074.174.045.118.066.181.051.118.074.18.051.13.072.191.051.124.074.186.051.13.072.191.051.13.074.2.051.124.072.186.051.13.074.191.051.124.072.187.051.123.074.186l.066.174c.023.063.045.119.068.175s.045.112.066.163h.041c.055-.151.111-.31.168-.461s.107-.3.164-.456.111-.3.168-.445.113-.292.164-.438.111-.287.162-.423.1-.259.152-.383.1-.241.141-.354.084-.22.129-.32a.627.627,0,0,1,.063-.028c.023-.006.045-.017.074-.022a.3.3,0,0,1,.078-.022.432.432,0,0,1,.09-.022.276.276,0,0,1,.1-.018.638.638,0,0,1,.1-.011.534.534,0,0,1,.1-.012h.1a1.666,1.666,0,0,1,.174.006l.152.017a.985.985,0,0,1,.141.04.789.789,0,0,1,.119.045.614.614,0,0,1,.1.062.351.351,0,0,1,.078.073.5.5,0,0,1,.057.09.425.425,0,0,1,.033.1.579.579,0,0,1,.023.107c.006.045.016.09.021.141s.012.1.023.163.016.124.021.191.018.135.029.208.016.152.021.231.018.157.023.241.016.169.027.254.018.18.023.271.016.18.027.275.012.186.023.281.016.2.021.293.018.2.029.3.016.19.021.286.012.191.023.282.01.186.016.281.018.18.023.271.012.169.016.253.012.169.018.248l.018.236c0,.073.006.146.01.214s.012.129.012.191.006.112.012.163a1.038,1.038,0,0,0,.006.141.407.407,0,0,1-.068.039l-.066.034a.338.338,0,0,0-.068.028l-.072.017a.171.171,0,0,1-.074.017l-.084.018c-.033,0-.062,0-.1,0Zm-16.41-.045a1.157,1.157,0,0,1-.15-.011.932.932,0,0,1-.137-.04,1.061,1.061,0,0,1-.117-.056.434.434,0,0,1-.1-.085.451.451,0,0,1-.084-.1.627.627,0,0,1-.057-.118c-.012-.046-.023-.091-.033-.136a1.15,1.15,0,0,1-.012-.151v-4.661a1.141,1.141,0,0,1,.012-.146c.01-.051.021-.09.033-.136a.865.865,0,0,1,.057-.118.451.451,0,0,1,.084-.1.455.455,0,0,1,.1-.084,1.285,1.285,0,0,1,.117-.057.519.519,0,0,1,.137-.033,1.148,1.148,0,0,1,.15-.012h3.283a.391.391,0,0,1,.021.045.378.378,0,0,1,.023.045c.006.018.016.04.021.057s.012.039.018.062a.151.151,0,0,1,.018.068.42.42,0,0,1,.016.067c0,.022.006.051.006.073s.006.051.006.078a.8.8,0,0,1-.012.124,1.045,1.045,0,0,1-.021.107c-.012.028-.023.062-.035.09a.64.64,0,0,1-.055.079.336.336,0,0,1-.062.056.345.345,0,0,1-.078.045.421.421,0,0,1-.086.028.58.58,0,0,1-.1.006h-2.4v1.407h2.42a.469.469,0,0,1,.021.045.181.181,0,0,1,.023.045c.012.018.018.04.027.057a.249.249,0,0,0,.023.057l.018.067c0,.022.01.045.016.067s.006.045.006.073v.079a.75.75,0,0,1-.027.23.391.391,0,0,1-.086.169.32.32,0,0,1-.141.1.536.536,0,0,1-.2.033h-2.1v1.537h2.758a.194.194,0,0,0,.021.039.213.213,0,0,1,.023.051c.012.017.018.04.027.057s.012.045.018.062a.354.354,0,0,1,.023.073.4.4,0,0,1,.01.067.369.369,0,0,1,.012.079v.079a.774.774,0,0,1-.027.23.391.391,0,0,1-.086.169.357.357,0,0,1-.141.1.557.557,0,0,1-.2.033Zm1.3-12.316a.694.694,0,0,1-.158-.012.557.557,0,0,1-.141-.022.756.756,0,0,1-.123-.039.585.585,0,0,1-.1-.062.61.61,0,0,1-.084-.073.3.3,0,0,1-.057-.091.4.4,0,0,1-.039-.1.681.681,0,0,1-.012-.118c0-.018.006-.04.006-.057a.23.23,0,0,1,.006-.062.237.237,0,0,1,.012-.056.2.2,0,0,1,.016-.057c.006-.017.012-.039.018-.056l.018-.068a.449.449,0,0,0,.021-.067.269.269,0,0,0,.023-.073c.016-.045.027-.1.045-.146s.033-.1.051-.157.039-.112.055-.175.041-.124.063-.191.045-.129.068-.2.051-.142.072-.209.051-.146.074-.22.051-.146.078-.225.051-.152.078-.23.051-.158.08-.237l.084-.241c.027-.079.057-.164.09-.242l.084-.242c.029-.085.063-.163.09-.242s.057-.157.08-.236.057-.158.084-.23.057-.152.084-.231.051-.146.08-.22.051-.141.078-.208.051-.141.078-.2.051-.136.074-.2.045-.118.066-.181.045-.112.063-.163.039-.1.057-.151c.021-.012.045-.022.072-.034l.09-.034c.029-.011.068-.022.1-.033a1.221,1.221,0,0,0,.119-.04c.045-.011.084-.017.129-.027s.084-.018.125-.022a.958.958,0,0,1,.129-.012.949.949,0,0,1,.129-.006,1.647,1.647,0,0,1,.17.006c.055.006.111.012.162.022a.713.713,0,0,1,.152.034,1.5,1.5,0,0,1,.152.045.854.854,0,0,1,.129.056.5.5,0,0,1,.1.079.3.3,0,0,1,.078.09.322.322,0,0,1,.057.107c.029.09.068.18.1.281s.068.2.107.3.072.214.107.321.078.226.117.344.078.241.119.36.084.241.123.359.078.248.119.372.078.248.123.371.078.254.119.378l.117.371c.039.124.078.242.119.366s.078.242.111.365.08.236.113.35.072.225.107.338.066.214.1.314.061.2.09.293a.175.175,0,0,1-.051.057.5.5,0,0,1-.062.045c-.027.017-.051.034-.072.045s-.057.028-.086.039-.061.022-.09.034-.066.017-.1.022a.718.718,0,0,1-.111.012.85.85,0,0,1-.113,0c-.057,0-.113,0-.158,0s-.1-.018-.141-.022a.739.739,0,0,1-.107-.04.331.331,0,0,1-.084-.056.4.4,0,0,1-.066-.068.46.46,0,0,1-.062-.09c-.018-.033-.033-.067-.051-.106a1.121,1.121,0,0,1-.045-.124l-.3-1h-2.217c-.018.063-.041.124-.057.187s-.039.129-.057.191-.039.129-.062.191-.039.129-.057.2-.045.13-.061.191a1.424,1.424,0,0,1-.057.169c-.018.057-.033.107-.045.158s-.029.1-.045.135a.149.149,0,0,1-.051.022l-.051.017c-.018.006-.033.012-.057.018s-.033.011-.057.017-.039.006-.057.012-.045,0-.066.011-.051.006-.074.006Zm2-4.937a.907.907,0,0,0-.045.135c-.016.045-.033.09-.051.141s-.033.1-.051.152-.033.1-.055.151-.035.107-.051.158-.041.106-.057.163-.039.106-.057.163-.039.112-.057.169-.039.112-.057.169-.039.112-.061.169-.041.112-.057.169-.045.112-.062.169-.039.112-.057.169-.039.112-.057.168-.039.107-.055.164h1.723l-.8-2.539h-.051C-22419.15-12422.625-22419.162-12422.58-22419.18-12422.534Zm21.555,4.9a.878.878,0,0,1-.141-.023,1.025,1.025,0,0,1-.117-.045.316.316,0,0,1-.09-.062.442.442,0,0,1-.068-.079.581.581,0,0,1-.045-.106.541.541,0,0,1-.027-.124,1.141,1.141,0,0,1-.012-.146v-1.564c-.045-.068-.09-.136-.135-.2s-.092-.141-.137-.209-.1-.146-.146-.219-.1-.152-.145-.231-.1-.151-.146-.23-.1-.157-.146-.236-.1-.158-.146-.236-.1-.158-.146-.236-.1-.158-.141-.236l-.135-.237c-.047-.078-.092-.157-.131-.23s-.09-.157-.129-.23-.078-.158-.119-.231-.072-.141-.111-.214-.062-.135-.1-.2-.062-.13-.09-.191a.521.521,0,0,1,.045-.073.294.294,0,0,1,.057-.073l.066-.067c.023-.017.051-.039.08-.062a.253.253,0,0,1,.09-.05.707.707,0,0,1,.1-.04.8.8,0,0,1,.113-.028c.039,0,.078,0,.125,0a1.044,1.044,0,0,1,.135.011.451.451,0,0,1,.123.022.582.582,0,0,1,.107.04.807.807,0,0,1,.1.056.52.52,0,0,1,.084.079,1.014,1.014,0,0,1,.084.1c.029.039.057.079.086.124a1.509,1.509,0,0,1,.084.146.727.727,0,0,1,.051.084c.016.028.033.062.057.1a1.422,1.422,0,0,1,.066.129,1.571,1.571,0,0,0,.084.146c.029.057.057.107.086.163s.061.113.09.169.061.113.1.175.061.112.1.175.061.118.09.174.063.119.1.169.063.113.09.169.063.107.09.163.057.1.078.146.051.085.068.118a.635.635,0,0,0,.057.1.414.414,0,0,0,.039.073h.051c.027-.062.063-.118.09-.18s.063-.118.09-.181.063-.112.09-.169.057-.112.086-.168.055-.113.084-.164.057-.112.084-.169.051-.106.078-.163.057-.106.08-.157.051-.107.078-.163.057-.107.078-.163.057-.107.08-.164.051-.112.078-.169.051-.106.074-.163l.084-.174c.027-.057.051-.113.078-.169s.057-.118.084-.181c.023-.011.041-.022.063-.033s.045-.018.068-.022a.254.254,0,0,1,.066-.022.362.362,0,0,1,.074-.023.358.358,0,0,0,.078-.011c.023-.006.051-.006.074-.012a.37.37,0,0,0,.072,0h.068a.882.882,0,0,1,.129.011.99.99,0,0,1,.117.022.783.783,0,0,1,.1.045.522.522,0,0,1,.1.063.881.881,0,0,1,.074.073.6.6,0,0,1,.057.1.757.757,0,0,1,.033.106.766.766,0,0,1,.006.118.3.3,0,0,1-.006.067.491.491,0,0,1-.018.079c-.012.028-.021.063-.033.1s-.033.073-.051.112-.039.09-.062.141-.045.1-.072.158-.062.112-.1.174-.068.13-.107.2-.078.146-.117.22-.092.157-.143.242-.1.175-.15.265-.113.191-.176.287-.117.2-.186.31-.135.22-.207.332-.146.236-.221.36l-.248.377v2.094a.191.191,0,0,0-.045.012.328.328,0,0,0-.057.011.272.272,0,0,0-.061.012.376.376,0,0,1-.08.011l-.084.018c-.027,0-.057.006-.084.006a.485.485,0,0,1-.084,0,.444.444,0,0,1-.09.006C-22397.512-12417.626-22397.568-12417.632-22397.625-12417.637Zm-11.512,0a1.094,1.094,0,0,1-.146-.023,1.025,1.025,0,0,1-.117-.045.429.429,0,0,1-.09-.062.442.442,0,0,1-.068-.079.581.581,0,0,1-.045-.106.684.684,0,0,1-.033-.13,1.226,1.226,0,0,1-.006-.152v-4.976a.429.429,0,0,1,.006-.09.27.27,0,0,1,.016-.073.2.2,0,0,1,.035-.068.16.16,0,0,1,.039-.056.266.266,0,0,1,.057-.045.524.524,0,0,1,.066-.045c.023-.012.045-.022.074-.04a.312.312,0,0,1,.084-.028c.021-.011.051-.017.078-.027a.754.754,0,0,0,.09-.022l.086-.018a.834.834,0,0,1,.1-.022l.1-.017a.3.3,0,0,1,.1-.017l.1-.018a.741.741,0,0,1,.107-.011l.1-.018c.033,0,.068,0,.1,0s.072-.006.107-.012a.673.673,0,0,0,.105-.006h.1a.721.721,0,0,1,.1,0h.191a5.235,5.235,0,0,1,.613.033,3.743,3.743,0,0,1,.535.1,2.75,2.75,0,0,1,.451.18,1.9,1.9,0,0,1,.371.242,2.332,2.332,0,0,1,.287.3,1.613,1.613,0,0,1,.2.354,1.834,1.834,0,0,1,.123.405,2.369,2.369,0,0,1,.045.45,2.983,2.983,0,0,1-.039.45,2.028,2.028,0,0,1-.123.405,1.888,1.888,0,0,1-.2.354,2.159,2.159,0,0,1-.281.3,2.04,2.04,0,0,1-.355.247,2.477,2.477,0,0,1-.434.181,3.165,3.165,0,0,1-.5.1,4.649,4.649,0,0,1-.574.04h-.771v1.992a.16.16,0,0,0-.051.012.232.232,0,0,0-.057.011.368.368,0,0,0-.072.012.324.324,0,0,1-.074.011l-.084.018c-.029,0-.057.006-.084.006a.566.566,0,0,1-.09,0,.536.536,0,0,1-.1.006C-22409.023-12417.626-22409.08-12417.632-22409.137-12417.637Zm1.289-5.174c-.066.006-.129.006-.186.012s-.123.011-.174.017-.107.017-.158.028v2.021h.7c.1,0,.191-.006.281-.011a1.692,1.692,0,0,0,.254-.051c.074-.022.146-.051.215-.079a1.7,1.7,0,0,0,.186-.112.991.991,0,0,0,.152-.146.741.741,0,0,0,.105-.186.782.782,0,0,0,.063-.214,1.155,1.155,0,0,0,.023-.248,1.524,1.524,0,0,0-.018-.242.967.967,0,0,0-.062-.208.836.836,0,0,0-.1-.181.858.858,0,0,0-.141-.146,1.113,1.113,0,0,0-.18-.112,1.715,1.715,0,0,0-.213-.079,1.67,1.67,0,0,0-.254-.05c-.09-.006-.186-.018-.293-.018C-22407.713-12422.816-22407.779-12422.811-22407.848-12422.811Zm-6.98,5.174a1.094,1.094,0,0,1-.146-.023,1.025,1.025,0,0,1-.117-.045.487.487,0,0,1-.09-.062.442.442,0,0,1-.068-.079.4.4,0,0,1-.045-.106.479.479,0,0,1-.033-.13,1.226,1.226,0,0,1-.006-.152v-4.976a.429.429,0,0,1,.006-.09.175.175,0,0,1,.016-.073.2.2,0,0,1,.035-.068.16.16,0,0,1,.039-.056.2.2,0,0,1,.057-.045.524.524,0,0,1,.066-.045c.018-.012.045-.022.074-.04a.312.312,0,0,1,.084-.028c.023-.011.051-.017.078-.027a.558.558,0,0,0,.086-.022l.09-.018a.834.834,0,0,1,.1-.022l.1-.017a.3.3,0,0,1,.1-.017l.1-.018a.741.741,0,0,1,.107-.011l.1-.018c.033,0,.068,0,.1,0s.072-.006.107-.012a.6.6,0,0,0,.1-.006h.105a.721.721,0,0,1,.1,0h.191a5.235,5.235,0,0,1,.613.033,3.743,3.743,0,0,1,.535.1,2.75,2.75,0,0,1,.451.18,1.9,1.9,0,0,1,.371.242,2.332,2.332,0,0,1,.287.3,1.613,1.613,0,0,1,.2.354,1.736,1.736,0,0,1,.123.405,2.22,2.22,0,0,1,.045.45,2.749,2.749,0,0,1-.039.45,2.32,2.32,0,0,1-.123.405,1.888,1.888,0,0,1-.2.354,1.949,1.949,0,0,1-.281.3,2.04,2.04,0,0,1-.355.247,2.477,2.477,0,0,1-.434.181,3.165,3.165,0,0,1-.5.1,4.6,4.6,0,0,1-.574.04h-.771v1.992a.16.16,0,0,0-.051.012.232.232,0,0,0-.057.011.368.368,0,0,0-.072.012.324.324,0,0,1-.074.011l-.084.018c-.027,0-.057.006-.084.006a.566.566,0,0,1-.09,0,.536.536,0,0,1-.1.006C-22414.715-12417.626-22414.771-12417.632-22414.828-12417.637Zm1.289-5.174c-.066.006-.129.006-.186.012s-.123.011-.174.017-.107.017-.158.028v2.021h.7c.1,0,.191-.006.283-.011a1.715,1.715,0,0,0,.252-.051c.074-.022.146-.051.215-.079a1.7,1.7,0,0,0,.186-.112,1.208,1.208,0,0,0,.152-.146.741.741,0,0,0,.105-.186.782.782,0,0,0,.063-.214,1.155,1.155,0,0,0,.023-.248,1.524,1.524,0,0,0-.018-.242.967.967,0,0,0-.062-.208.836.836,0,0,0-.1-.181.858.858,0,0,0-.141-.146,1.113,1.113,0,0,0-.18-.112,1.985,1.985,0,0,0-.213-.079,1.67,1.67,0,0,0-.254-.05c-.09-.006-.186-.018-.293-.018C-22413.4-12422.816-22413.471-12422.811-22413.539-12422.811Zm10.268,5.134c-.051,0-.1-.006-.15-.011a.854.854,0,0,1-.131-.04.532.532,0,0,1-.117-.056.572.572,0,0,1-.1-.085.413.413,0,0,1-.078-.1.474.474,0,0,1-.057-.118.454.454,0,0,1-.035-.135.71.71,0,0,1-.01-.146v-5.348a.191.191,0,0,0,.045-.012.255.255,0,0,0,.057-.011c.021-.006.045-.006.066-.012l.084-.017c.029-.006.057-.006.086-.011a.4.4,0,0,1,.084-.006c.027-.006.057-.006.084-.012h.09a1.44,1.44,0,0,1,.164.012.884.884,0,0,1,.141.022.756.756,0,0,1,.123.039.505.505,0,0,1,.1.057.475.475,0,0,1,.074.079.337.337,0,0,1,.051.106.551.551,0,0,1,.033.13,1.331,1.331,0,0,1,.012.163v4.447h2.549a.165.165,0,0,0,.023.045.465.465,0,0,1,.021.051.482.482,0,0,1,.029.056.4.4,0,0,0,.021.063.269.269,0,0,1,.023.073.271.271,0,0,1,.012.067.2.2,0,0,1,.01.073.378.378,0,0,1,.006.078.914.914,0,0,1-.006.13c-.01.039-.016.073-.027.107a.329.329,0,0,1-.039.1.269.269,0,0,1-.051.078.736.736,0,0,1-.068.067c-.027.018-.051.028-.078.046a.678.678,0,0,1-.1.022.635.635,0,0,1-.1.011Zm-7.2-14.85a19,19,0,0,1-2.234-1.357,15.661,15.661,0,0,1-1.932-1.57c-.506-.5-.822-.939-.822-1.227a.585.585,0,0,1,.006-.1.458.458,0,0,1,.023-.1.467.467,0,0,1,.039-.1.3.3,0,0,1,.051-.1h-.006a.006.006,0,0,1-.006.006v0h-.006l.5-3.057,6.328,3.845,6.445-3.845.557,2.82c.018.091.027.163.045.231s.023.118.033.163.012.084.018.118a.662.662,0,0,1,.012.1c0,.287-.355.726-.918,1.227a17.511,17.511,0,0,1-2.127,1.57,22.405,22.405,0,0,1-2.437,1.357,5.165,5.165,0,0,1-1.824.574A4.554,4.554,0,0,1-22410.471-12432.526Zm-7.937-3.9s.033-.417.084-1.042.125-1.469.2-2.324.141-1.74.2-2.437.1-1.216.113-1.362a.63.63,0,0,1,.021-.1.192.192,0,0,1,.041-.085.168.168,0,0,1,.061-.067.392.392,0,0,1,.074-.057.583.583,0,0,1,.078-.039.39.39,0,0,1,.078-.028.486.486,0,0,1,.092-.022.541.541,0,0,1,.09-.017l8.854-2.826,9.908,3.124-9.936,6.046-9.041-5.562.23,6.795-.551,1.97Zm.906-7h8.354a.59.59,0,0,0,.1.073.351.351,0,0,0,.113.05.829.829,0,0,0,.129.04,1.055,1.055,0,0,0,.141.011.9.9,0,0,0,.248-.039.683.683,0,0,0,.2-.1.458.458,0,0,0,.135-.146.353.353,0,0,0,.051-.18.358.358,0,0,0-.051-.186.529.529,0,0,0-.135-.146,1.1,1.1,0,0,0-.2-.1.9.9,0,0,0-.248-.034.734.734,0,0,0-.191.022.559.559,0,0,0-.168.057.569.569,0,0,0-.135.09.426.426,0,0,0-.09.118h-7.381Z" transform="translate(22551.66 12697.723)" fill="#737284"/>
  </g>
</svg>
