<svg xmlns="http://www.w3.org/2000/svg" width="40" height="40" viewBox="0 0 40 40">
    <defs>
        <style>.a{fill:#e2ad42;}</style>
    </defs>
    <path class="a"
          d="M-22863.244-7172.75a19.866,19.866,0,0,1-14.141-5.854,19.833,19.833,0,0,1-5.863-14.141,19.838,19.838,0,0,1,5.863-14.143,19.869,19.869,0,0,1,14.141-5.862,19.864,19.864,0,0,1,14.133,5.862,19.833,19.833,0,0,1,5.863,14.143,19.829,19.829,0,0,1-5.863,14.141A19.861,19.861,0,0,1-22863.244-7172.75Zm0-36.516a16.545,16.545,0,0,0-16.527,16.521,16.545,16.545,0,0,0,16.527,16.52,16.539,16.539,0,0,0,16.523-16.52A16.539,16.539,0,0,0-22863.244-7209.266Zm.563,26.646c-4.027,0-6.469-2.223-7.273-6.61h-1.668v-2.537h1.367a5.473,5.473,0,0,1-.039-.759c0-.352.039-.76.07-1.109h-1.4v-2.517h1.75a9.158,9.158,0,0,1,2.723-4.895,7.211,7.211,0,0,1,4.957-1.838,7.89,7.89,0,0,1,3.535.771l.09.05v3.145l-.27-.188a5.506,5.506,0,0,0-3.258-1.019,3.919,3.919,0,0,0-2.742,1.129,6,6,0,0,0-1.641,2.846h6.2v2.517h-6.6a11.417,11.417,0,0,0-.023,1.868h6.625v2.537h-6.266c.617,2.6,2.027,3.865,4.3,3.865a6.413,6.413,0,0,0,3.418-1.139l.258-.17v2.986l-.09.05A8.488,8.488,0,0,1-22862.682-7182.62Z"
          transform="translate(22883.248 7212.75)"/>
</svg>