<svg xmlns="http://www.w3.org/2000/svg" width="107.998" height="108.001" viewBox="0 0 107.998 108.001"><defs><style>.a{fill:#fff;}</style></defs><path class="a" d="M-14081.774,2280h-.447c-.039,0-.078,0-.117,0l.015-2c.639,0,1.288,0,1.927-.025l.06,2h-.01c-.036,0-.071,0-.106,0h-.11a.036.036,0,0,0-.018,0h-.128l-.024,0h-.128a.061.061,0,0,0-.025,0h-.177c-.011,0-.021,0-.032,0h-.2c-.011,0-.018,0-.025,0h-.394a.081.081,0,0,0-.028,0Zm-3.136-.078a.171.171,0,0,1-.043,0h-.042a.054.054,0,0,1-.021,0h-.043s-.014,0-.021,0h-.042s-.015,0-.018,0h-.047a.207.207,0,0,0-.021,0h-.039a.083.083,0,0,0-.028,0h-.039a.055.055,0,0,0-.025,0h-.018a.045.045,0,0,1-.021,0h-.042a.065.065,0,0,0-.025,0h-.039a.049.049,0,0,0-.024,0h-.018c-.008,0-.015,0-.021,0h-.043a.066.066,0,0,0-.024,0h-.021c-.007,0-.011,0-.018,0h-.046a.046.046,0,0,0-.021,0h-.021c-.007,0-.015,0-.021,0h-.024a.031.031,0,0,1-.018,0h-.047s-.011,0-.018,0h-.021a.207.207,0,0,1-.021,0h-.043l0,0h-.031c-.008,0-.018,0-.028,0h-.019c-.014,0-.028,0-.046,0l-.248-.021.159-1.994c.636.053,1.285.092,1.923.117l-.085,2C-14084.527,2279.941-14084.719,2279.934-14084.91,2279.923Zm6.438-2.04c.639-.042,1.284-.1,1.92-.167l.205,1.99c-.156.018-.315.032-.475.05a.178.178,0,0,0-.043,0c-.021,0-.043,0-.063,0a.187.187,0,0,1-.043,0,.031.031,0,0,1-.018,0h0c-.014,0-.024,0-.042,0a.034.034,0,0,0-.019,0h-.024c-.007,0-.011,0-.018,0h-.025a.036.036,0,0,1-.021,0h-.019a.064.064,0,0,1-.024,0h-.018a.054.054,0,0,1-.021,0h-.024a.034.034,0,0,1-.019,0c-.007,0-.018,0-.021,0h-.025a.032.032,0,0,0-.018,0h-.024a.045.045,0,0,0-.021,0h-.018a.061.061,0,0,0-.025,0h-.018a.049.049,0,0,0-.021,0h-.024a.031.031,0,0,0-.018,0h-.021a.047.047,0,0,0-.021,0h-.021a.046.046,0,0,0-.021,0h-.038a.1.1,0,0,1-.029,0h-.018s-.011,0-.018,0h-.024a.042.042,0,0,1-.018,0,.167.167,0,0,0-.043,0h-.021c-.014,0-.028,0-.042,0h0a.337.337,0,0,1-.061,0c-.146.014-.291.021-.437.032Zm-10.912,1.618h0c-.014,0-.024,0-.039-.007s-.014,0-.021,0a.041.041,0,0,1-.021,0h-.021a.042.042,0,0,0-.018,0,.061.061,0,0,0-.025,0l-.018,0a.045.045,0,0,1-.021,0,.049.049,0,0,1-.021,0h-.021a.028.028,0,0,0-.019,0h-.007s-.014,0-.018,0a.177.177,0,0,0-.018,0h-.018a.165.165,0,0,0-.039-.007h0s-.007,0-.014,0a.178.178,0,0,1-.047-.007l-.511-.074.309-1.976c.628.1,1.271.185,1.909.259l-.234,1.987C-14088.678,2279.593-14089.033,2279.547-14089.384,2279.5Zm14.744-2.019c.631-.089,1.27-.191,1.9-.3l.355,1.969c-.011,0-.021,0-.036.007h0c-.008,0-.008,0-.015,0h0c-.014,0-.024,0-.039.007h0c-.621.11-1.245.209-1.873.3Zm-19.591,1.128.451-1.951c.62.146,1.256.28,1.884.4l-.38,1.965C-14092.932,2278.9-14093.585,2278.76-14094.23,2278.611Zm23.38-1.809c.624-.135,1.256-.284,1.873-.443l.5,1.933c-.061.018-.121.032-.178.046a.036.036,0,0,1-.018,0l-.018.007a.032.032,0,0,0-.018,0h0a.026.026,0,0,1-.018,0v0c-.3.075-.6.146-.895.217-.007,0-.01,0-.018,0h0l-.018.007h0a.023.023,0,0,0-.015,0h-.007s-.011,0-.014,0h0a.032.032,0,0,1-.018,0l-.018.007a.041.041,0,0,0-.019,0l-.667.149Zm-25.323,1.32s-.008,0-.011,0-.011,0-.019,0a.1.1,0,0,0-.018,0s-.014,0-.018-.007h-.007l-.018-.007h0c-.007,0-.007,0-.014,0h0l-.018-.007h0l-.035-.011h0l-.72-.2c-.008,0-.015,0-.021-.007l-.039-.011c-.007,0-.015,0-.018-.007h0l-.035-.011a.05.05,0,0,1-.021-.007h0l-.035-.01a.177.177,0,0,1-.018,0s0,0-.007,0l-.015,0s0,0-.007,0a.028.028,0,0,1-.015,0,.14.14,0,0,0-.018,0l-.018-.007s-.007,0-.015,0-.01,0-.018-.007h-.007a.013.013,0,0,0-.011,0s0,0-.007,0l-.039-.011h0s-.007,0-.011,0-.031-.011-.046-.014-.039-.011-.061-.018l-.535-.163.592-1.912c.61.192,1.235.373,1.853.539l-.525,1.93Zm29.052-2.281c.609-.181,1.228-.38,1.834-.582l.642,1.891a.025.025,0,0,1-.014.007h0l-.018.007h0c-.617.209-1.237.408-1.865.6Zm-34.739.39.734-1.859c.6.234,1.2.461,1.806.674l-.667,1.887C-14100.616,2276.709-14101.244,2276.475-14101.861,2276.23Zm38.383-1.625c.6-.227,1.2-.472,1.787-.72l.781,1.841c-.334.142-.667.28-1,.415-.015,0-.025.011-.039.014l-.019.007h0a.019.019,0,0,1-.015.007h0c-.008,0-.011.007-.018.007s0,0,0,0l-.015,0a0,0,0,0,1,0,0,.032.032,0,0,0-.011,0,.01.01,0,0,0-.007,0l-.019.007h0s-.011,0-.015.007a.012.012,0,0,0-.007,0h-.007s-.008,0-.011.007l-.025.011h0l-.015,0,0,0c-.2.078-.405.16-.61.234Zm-40.408.777a.312.312,0,0,1-.036-.018s-.007,0-.007,0a.014.014,0,0,1-.011,0s0,0-.007,0a.01.01,0,0,1-.007,0c-.015,0-.025-.011-.039-.014v0q-.772-.341-1.529-.709l.873-1.8c.574.28,1.163.553,1.749.809l-.806,1.831C-14103.767,2275.436-14103.826,2275.407-14103.887,2275.382Zm43.952-2.281c.578-.273,1.16-.561,1.728-.851l.919,1.777q-.889.457-1.795.883Zm-47.38.61s-.007,0-.01,0,0,0-.008,0-.007,0-.011-.007a0,0,0,0,1,0,0l-.018-.007a.014.014,0,0,0-.008,0s0,0-.007,0-.007,0-.011-.007,0,0,0,0a.013.013,0,0,1-.011,0l0,0-.021-.011h0s-.008,0-.011-.007,0,0,0,0c-.018-.007-.035-.018-.053-.025l0,0s-.007,0-.011-.007h0c-.01-.007-.024-.014-.035-.021h0s-.007,0-.014-.007l-.039-.021c-.007,0-.011-.007-.015-.007l-.057-.032c-.018-.01-.035-.018-.053-.028a.38.38,0,0,0-.054-.028s0,0,0,0a.016.016,0,0,1-.011-.007h0a.371.371,0,0,1-.035-.021h-.007s-.008,0-.008-.007,0,0-.007,0-.007,0-.011,0l0,0c-.008,0-.011-.007-.019-.01s0,0-.007,0a.01.01,0,0,1-.007,0,.01.01,0,0,1-.007,0,.015.015,0,0,0-.011,0s-.008,0-.008-.007-.007,0-.011,0a.043.043,0,0,0-.01-.007.012.012,0,0,0-.008,0s-.007,0-.011-.007,0,0-.007,0-.007,0-.011,0a0,0,0,0,0,0,0l-.019-.011a.012.012,0,0,1-.007,0,.01.01,0,0,0-.007,0,.01.01,0,0,1-.007,0s-.008,0-.011-.007a.009.009,0,0,1-.007,0s-.008,0-.015-.007,0,0,0,0a.025.025,0,0,1-.014-.007h0a.026.026,0,0,0-.014-.007s0,0,0,0-.021-.011-.032-.018a0,0,0,0,1,0,0,.029.029,0,0,1-.015-.007h0c-.008,0-.011-.007-.019-.011a.069.069,0,0,0-.018-.011s-.011,0-.014-.007l0,0c-.007,0-.011,0-.015-.007h0a.092.092,0,0,0-.018-.011l-.015-.011h0c-.008,0-.011-.007-.019-.01l-.031-.018h0a.041.041,0,0,1-.014-.01h0a.335.335,0,0,0-.054-.029v0c-.018-.007-.031-.018-.053-.028s-.035-.018-.054-.029v0c-.018-.007-.031-.018-.053-.028a.063.063,0,0,1-.015-.011h0a.238.238,0,0,1-.032-.018s0,0-.007,0l-.011-.007s0,0,0,0a.016.016,0,0,1-.014-.007h0a.041.041,0,0,1-.014-.01s-.008,0-.008,0-.007,0-.011,0,0,0-.007,0l-.007-.007a.01.01,0,0,1-.007,0,.014.014,0,0,1-.008,0l-.018-.011s0,0-.007,0a.01.01,0,0,1-.007,0s0,0-.008,0l-.049-.029c-.093-.053-.182-.106-.273-.156l1-1.731c.554.323,1.121.635,1.685.937l-.939,1.763S-14107.314,2273.715-14107.314,2273.711Zm50.8-2.377c.558-.312,1.114-.642,1.661-.976l1.046,1.7q-.467.287-.939.564c-.019.011-.032.021-.05.032h0a.4.4,0,0,1-.053.028v0c-.011,0-.019.01-.029.014s-.018.01-.021.014,0,0-.008,0a.074.074,0,0,0-.021.014s-.008,0-.008,0l-.021.011,0,0-.025.011s0,0-.007.007-.011,0-.014.007-.008,0-.008.007a.055.055,0,0,0-.021.01c-.008,0-.008,0-.011.007a.018.018,0,0,0-.015.007s-.011,0-.014.007l-.015.01a.023.023,0,0,0-.014.007.014.014,0,0,0-.008,0l-.024.014s0,0-.007,0a.051.051,0,0,0-.015.011h0c-.124.071-.244.142-.368.209Zm-54.261.372-.015-.01a.01.01,0,0,1-.007,0,.1.1,0,0,0-.021-.014.012.012,0,0,0-.007,0l-.019-.011s-.007,0-.007-.007l-.021-.011s-.007,0-.01-.007l-.011-.01s-.008,0-.011,0a.062.062,0,0,1-.021-.014s0,0-.007,0-.011-.007-.019-.01,0,0-.007,0a.066.066,0,0,0-.021-.014s0,0-.007-.007-.011-.007-.014-.01a.012.012,0,0,1-.011,0,.05.05,0,0,1-.018-.014s-.008,0-.011,0a.093.093,0,0,0-.018-.01s0,0-.008-.007l-.018-.011s0,0-.007,0a.079.079,0,0,0-.021-.014s0,0-.007,0a.2.2,0,0,1-.018-.014s0,0-.008,0a.069.069,0,0,1-.021-.014s0,0-.008,0a.069.069,0,0,0-.018-.011.014.014,0,0,0-.007,0,.074.074,0,0,0-.021-.014l0,0c-.007,0-.014-.011-.021-.014s0,0,0,0a.155.155,0,0,1-.024-.014l0,0a.076.076,0,0,1-.018-.011s0,0-.008,0a.074.074,0,0,0-.021-.014s0,0-.008,0a.069.069,0,0,0-.021-.014v0a.056.056,0,0,1-.025-.014l0,0a.133.133,0,0,1-.025-.014.09.09,0,0,0-.024-.014s0,0,0,0-.018-.011-.024-.018a.171.171,0,0,0-.025-.014s0,0,0,0-.015-.01-.021-.014,0,0,0,0a.1.1,0,0,1-.021-.014h0a.19.19,0,0,1-.025-.018h0c-.008-.007-.015-.011-.021-.018h0a.151.151,0,0,0-.024-.014v0a.2.2,0,0,1-.025-.014v0c-.011,0-.018-.011-.028-.014v0c-.018-.01-.031-.021-.05-.032h0a.45.45,0,0,1-.05-.036h0a.479.479,0,0,0-.05-.032v0l-.049-.032h0a.267.267,0,0,0-.05-.035.132.132,0,0,1-.024-.018h0a.144.144,0,0,0-.024-.018.09.09,0,0,1-.025-.018c-.018-.011-.035-.021-.05-.032s0,0,0,0l-.05-.032,0,0-.046-.032h-.007c-.008-.007-.015-.01-.021-.018h0a.062.062,0,0,0-.021-.014s0,0,0,0a.156.156,0,0,0-.025-.018l0,0-.018-.011a.014.014,0,0,0-.008,0,.069.069,0,0,0-.021-.014s0,0-.008-.007-.011-.007-.014-.011a.014.014,0,0,1-.008,0c-.007,0-.014-.01-.021-.014s-.008,0-.011-.007-.007,0-.011-.007a.069.069,0,0,1-.018-.01s-.008-.007-.011-.007a.047.047,0,0,0-.015-.011l-.007-.007a.122.122,0,0,0-.024-.014s0,0,0,0,0,0-.007,0l1.128-1.653c.528.362,1.067.717,1.61,1.057l-1.067,1.692S-14110.77,2271.707-14110.772,2271.707Zm57.543-2.384c.532-.355,1.064-.724,1.586-1.1l1.167,1.625c-.539.39-1.089.77-1.643,1.139Zm-61.236-.167,0,0c-.014-.011-.032-.021-.05-.035a.057.057,0,0,0-.024-.018v0a.321.321,0,0,1-.046-.035h0l-.046-.035,0,0-.046-.035s0,0,0,0-.014-.01-.024-.018a.1.1,0,0,1-.021-.018h0a.111.111,0,0,0-.024-.018v0a.291.291,0,0,1-.024-.018c-.008-.007-.019-.01-.025-.018a.057.057,0,0,0-.024-.018.194.194,0,0,0-.025-.021.439.439,0,0,0-.05-.036v0c-.018-.011-.031-.025-.049-.035-.231-.181-.462-.358-.688-.543l1.249-1.561c.5.4,1.014.791,1.525,1.171l-1.188,1.611C-14114.2,2269.355-14114.335,2269.255-14114.466,2269.156Zm64.361-2.086c.5-.394,1.012-.8,1.5-1.21l1.288,1.532c-.22.185-.439.365-.663.546-.015.011-.028.025-.043.035s-.007,0-.007.007a.033.033,0,0,0-.018.014s-.008,0-.011.007l-.015.01-.011.011s-.007,0-.011.007-.01.007-.018.014l0,0c-.008.007-.015.01-.021.018h0c-.007.007-.014.011-.021.018s0,0,0,0a.375.375,0,0,0-.046.039c-.221.174-.44.348-.664.521Zm-68.58-1.444,1.359-1.465c.468.433.95.866,1.437,1.281l-1.306,1.519Q-14117.95,2266.305-14118.685,2265.626Zm71.532-1.032c.476-.426.947-.869,1.4-1.316l1.395,1.433c-.237.23-.479.461-.72.688l0,0a.415.415,0,0,1-.043.039s0,0,0,0l-.021.021h0c0,.007-.011.01-.014.018a.014.014,0,0,0-.008,0c-.007.007-.01.014-.018.018l-.007.007a.04.04,0,0,0-.014.014s0,0-.008,0a.039.039,0,0,1-.018.018s0,.007-.007.007a.047.047,0,0,1-.015.011s-.007.007-.007.01-.011.011-.015.014-.007,0-.01.007l-.011.01-.018.018s0,0-.008,0-.007.007-.011.011l-.007.007a.136.136,0,0,1-.024.021v0c-.149.135-.3.273-.447.408Zm-50.42-1.735a39.855,39.855,0,0,1-12.715-8.575,39.871,39.871,0,0,1-8.571-12.715A39.734,39.734,0,0,1-14122,2226a39.751,39.751,0,0,1,3.143-15.571,39.871,39.871,0,0,1,8.571-12.715,39.855,39.855,0,0,1,12.715-8.575A39.749,39.749,0,0,1-14082,2186a39.726,39.726,0,0,1,15.566,3.143,39.812,39.812,0,0,1,12.715,8.575,39.819,39.819,0,0,1,8.575,12.715A39.822,39.822,0,0,1-14042,2226a39.8,39.8,0,0,1-3.144,15.567,39.819,39.819,0,0,1-8.575,12.715,39.812,39.812,0,0,1-12.715,8.575A39.726,39.726,0,0,1-14082,2266,39.749,39.749,0,0,1-14097.572,2262.859Zm8.586-30.808a18.814,18.814,0,0,0-5.062,2.026,15,15,0,0,0-3.428,2.753,14.492,14.492,0,0,0-2.107,2.987,3.329,3.329,0,0,0-.4,1.937,3.248,3.248,0,0,0,.717,1.671,4.243,4.243,0,0,0,1.543,1.174,5.046,5.046,0,0,0,2.09.44h27.327a4.982,4.982,0,0,0,2.083-.451,4.162,4.162,0,0,0,1.528-1.188,3.345,3.345,0,0,0,.714-1.682,3.347,3.347,0,0,0-.38-1.927,14.174,14.174,0,0,0-2.1-2.969,14.917,14.917,0,0,0-3.428-2.75,19,19,0,0,0-5.062-2.022,29.328,29.328,0,0,0-7.024-.788A29.216,29.216,0,0,0-14088.986,2232.051Zm3.657-24.38a8.63,8.63,0,0,0-2.738,1.823,8.473,8.473,0,0,0-1.849,2.71,8.388,8.388,0,0,0-.678,3.321,8.414,8.414,0,0,0,.678,3.321,8.417,8.417,0,0,0,1.849,2.707,8.553,8.553,0,0,0,2.738,1.831,8.617,8.617,0,0,0,3.349.671,8.671,8.671,0,0,0,3.36-.671,8.646,8.646,0,0,0,2.742-1.831,8.559,8.559,0,0,0,1.849-2.707,8.47,8.47,0,0,0,.674-3.321,8.444,8.444,0,0,0-.674-3.321,8.616,8.616,0,0,0-1.849-2.71,8.691,8.691,0,0,0-2.742-1.823,8.609,8.609,0,0,0-3.36-.67A8.555,8.555,0,0,0-14085.329,2207.671Zm-35.349,56.014a.386.386,0,0,1-.039-.042s0,0,0,0a.075.075,0,0,0-.021-.018s0,0,0,0a.047.047,0,0,0-.018-.018s0,0,0,0a.112.112,0,0,0-.018-.021l0,0a.054.054,0,0,1-.014-.018s0,0-.008,0a.041.041,0,0,0-.018-.018l-.007-.007s-.007-.01-.015-.014,0,0,0-.007-.011-.01-.018-.018a.008.008,0,0,1-.008-.007l-.011-.01c0-.007-.007-.007-.011-.011l-.014-.014a.016.016,0,0,1-.007-.011l-.011-.01c-.008,0-.011-.011-.015-.014l-.011-.011-.007-.007-.014-.014-.011-.011-.011-.01s-.008-.007-.008-.011-.01-.01-.018-.014,0-.007-.007-.011l-.011-.01s0,0-.011-.007a.055.055,0,0,0-.014-.018l-.008-.007-.01-.014a.008.008,0,0,1-.008-.007c-.007,0-.011-.011-.018-.018s0,0-.007-.007l-.015-.014-.007-.007-.014-.014s0-.007-.008-.007a.041.041,0,0,0-.018-.018s0,0,0,0a.037.037,0,0,0-.018-.018s0,0,0-.007-.011-.014-.018-.018v0l-.021-.021c-.1-.1-.188-.2-.28-.295l1.465-1.366c.437.468.887.933,1.338,1.387l-1.412,1.416C-14120.312,2264.058-14120.493,2263.874-14120.678,2263.686Zm76.285-1.777c.443-.461.884-.937,1.306-1.416l1.5,1.327-.263.294a.044.044,0,0,0-.014.014c-.008.011-.019.018-.025.028l0,0-.015.014a.161.161,0,0,1-.021.025l-.007.007-.011.01c0,.007-.011.011-.014.018l-.011.011s-.008.007-.008.01-.007,0-.011.007-.01.011-.014.018,0,.007-.007.007a.056.056,0,0,1-.015.014s0,0,0,.007l-.019.018s0,0,0,.007-.015.01-.018.018l0,0c-.007.007-.011.014-.018.018s0,0,0,.007a.075.075,0,0,1-.021.018v0a.041.041,0,0,1-.018.018s0,0,0,.007-.011.01-.019.018l0,0c-.008.007-.011.014-.018.021h0a.112.112,0,0,1-.018.021v0l-.021.021-.021.021s0,0,0,0a.515.515,0,0,1-.039.042v0l-.043.042v0c-.142.153-.284.305-.426.454h0a.314.314,0,0,1-.039.046h0c-.015.014-.025.029-.039.043l0,0c-.014.014-.024.028-.039.043s0,0,0,0l-.021.021a.081.081,0,0,0-.018.021s0,0,0,0a.129.129,0,0,0-.021.018v0Zm-78.907-1.114a.413.413,0,0,0-.039-.046l0,0c-.01-.014-.024-.028-.035-.046,0,0,0,0,0,0a.112.112,0,0,1-.018-.021h0a.112.112,0,0,0-.018-.021v0a.09.09,0,0,1-.019-.021s0,0,0,0-.011-.014-.018-.018,0,0,0-.007l-.018-.018s0-.007,0-.007a.073.073,0,0,1-.014-.018l0,0c-.007-.007-.011-.014-.018-.021a.01.01,0,0,0,0-.007.049.049,0,0,1-.014-.014s0,0,0,0-.011-.014-.018-.021,0,0,0-.007l-.018-.018s0,0,0-.007a.111.111,0,0,1-.014-.018s0,0-.007,0-.011-.014-.015-.021a0,0,0,0,1,0,0,.072.072,0,0,1-.014-.018s0,0-.007-.007a.076.076,0,0,0-.015-.018l-.007-.007a.059.059,0,0,0-.015-.018s0,0,0,0-.011-.014-.015-.021,0,0-.007-.007-.007-.01-.015-.014,0,0,0-.007-.011-.01-.018-.018a.012.012,0,0,0,0-.007c0-.007-.011-.011-.015-.018s0,0,0,0-.011-.014-.018-.021,0,0,0-.007-.024-.028-.035-.042l0,0c-.007-.007-.011-.014-.018-.021a.084.084,0,0,1-.018-.021s0,0,0,0l-.035-.046,0,0c-.078-.1-.156-.192-.234-.291l1.562-1.252c.4.5.813,1,1.23,1.479l-1.511,1.309C-14123,2261.142-14123.15,2260.968-14123.3,2260.794Zm81.465-1.767c.4-.493.81-1,1.2-1.508l1.589,1.213c-.035.05-.074.1-.113.145v0c-.007.007-.011.014-.018.021v0c-.008.007-.011.014-.019.021s0,0-.007.007a.12.12,0,0,0-.011.018s0,0,0,0a.2.2,0,0,0-.015.018s-.007.007-.007.01a.051.051,0,0,0-.011.014l-.015.014a.016.016,0,0,1-.007.01s0,.007-.007.011-.007,0-.007.007-.011.014-.018.021,0,0,0,.007a.375.375,0,0,0-.035.046c-.156.2-.31.394-.465.589a.507.507,0,0,0-.036.046s0,0,0,0a.068.068,0,0,0-.018.021l-.008.007a.037.037,0,0,1-.011.014s0,0-.007.007-.007.011-.011.014a.035.035,0,0,1-.011.014s-.007.007-.007.011l-.014.014s0,.007-.008.007a.033.033,0,0,1-.014.018s0,0,0,.007-.011.014-.018.021v0a.09.09,0,0,0-.018.021h0c-.1.121-.2.241-.294.362Zm-83.707-1.082a.276.276,0,0,1-.035-.05h0a.169.169,0,0,0-.018-.025.154.154,0,0,1-.018-.025v0a.216.216,0,0,1-.036-.046s0,0,0,0-.011-.014-.018-.021v0c0-.007-.011-.014-.015-.021s0,0,0,0-.011-.014-.019-.021,0,0,0-.007-.008-.01-.015-.018a.013.013,0,0,1,0-.007c0-.007-.011-.01-.015-.018s0,0,0-.007-.01-.011-.014-.018a.013.013,0,0,1,0-.007.081.081,0,0,0-.014-.018s0-.007-.008-.01a.05.05,0,0,1-.01-.014l-.008-.007a.051.051,0,0,0-.011-.018.02.02,0,0,0-.007-.011.047.047,0,0,1-.011-.014s0-.007-.007-.01a.056.056,0,0,0-.015-.018l0-.007a.047.047,0,0,0-.011-.014s-.007-.011-.011-.014a.017.017,0,0,1-.007-.011.167.167,0,0,1-.011-.014s0-.007-.007-.011a.052.052,0,0,1-.011-.018l-.011-.011s0-.007-.008-.011-.007-.007-.007-.01-.011-.011-.014-.018,0-.007-.008-.01a.017.017,0,0,0-.007-.011s-.007-.007-.007-.011a.074.074,0,0,0-.015-.018s0-.007-.007-.011-.007-.01-.011-.014a.035.035,0,0,0-.011-.014.017.017,0,0,0-.007-.011s0-.007-.007-.01a.059.059,0,0,0-.015-.018.017.017,0,0,0-.007-.011s0-.007-.007-.014,0,0-.008-.007-.01-.014-.014-.021l-.007-.007-.008-.014-.007-.007c0-.007-.011-.014-.014-.021s0-.007-.008-.011,0-.007-.007-.011a.016.016,0,0,1-.007-.01.079.079,0,0,1-.015-.018s0-.007-.007-.01a.017.017,0,0,1-.007-.011s-.008-.007-.008-.011a.072.072,0,0,1-.014-.018s0-.007-.007-.011-.008-.007-.008-.01a.056.056,0,0,0-.014-.018s0-.007-.007-.011,0-.007-.008-.01a.094.094,0,0,0-.007-.014.059.059,0,0,1-.014-.018.029.029,0,0,1-.008-.011s0-.007-.007-.01a.017.017,0,0,1-.007-.011.058.058,0,0,1-.015-.018.016.016,0,0,0-.007-.011.017.017,0,0,1-.007-.014l-.011-.011a.073.073,0,0,1-.011-.018s0,0-.007-.007a.052.052,0,0,1-.011-.018s0,0-.008-.007-.007-.011-.01-.018l-.008-.007a.065.065,0,0,0-.014-.021.01.01,0,0,0,0-.007.081.081,0,0,1-.011-.018s0,0,0,0a.157.157,0,0,1-.019-.025v0c-.007,0-.01-.01-.018-.018v0a.169.169,0,0,0-.018-.025,0,0,0,0,0,0,0,.065.065,0,0,0-.014-.021v0a.146.146,0,0,1-.018-.025c-.015-.018-.025-.035-.036-.05l1.65-1.135c.358.529.737,1.054,1.117,1.568l-1.6,1.192C-14125.418,2258.116-14125.481,2258.031-14125.542,2257.946Zm86.042-1.98c.369-.521.734-1.057,1.082-1.593l1.678,1.093c-.142.217-.287.437-.433.649v0a.444.444,0,0,0-.035.05.589.589,0,0,1-.032.05,0,0,0,0,0,0,0,.175.175,0,0,0-.014.025s0,0,0,0a.078.078,0,0,0-.015.018s0,0,0,.007-.011.014-.015.021l0,.007a.017.017,0,0,0-.011.014s0,.007-.007.007-.011.014-.015.021,0,.007-.007.011,0,.007-.008.01a.083.083,0,0,0-.01.018s-.008.007-.008.01-.007.011-.011.011,0,.007,0,.011a.068.068,0,0,0-.018.021s0,.007,0,.007-.007.007-.011.014a.012.012,0,0,1,0,.007.107.107,0,0,1-.018.025s0,0,0,0a.173.173,0,0,0-.011.018.182.182,0,0,0-.021.032c-.015.018-.021.032-.035.05v0c-.121.174-.241.348-.366.521Zm-88.139-1.085a.012.012,0,0,0,0-.007.032.032,0,0,1-.01-.018l-.008-.007a.217.217,0,0,0-.011-.021l-.007-.007a.053.053,0,0,0-.011-.018s0,0,0-.007-.011-.014-.015-.021,0,0,0-.007-.01-.014-.014-.021a0,0,0,0,0,0,0,.217.217,0,0,0-.011-.021s0,0,0-.007a.067.067,0,0,1-.015-.021s0,0,0,0a.217.217,0,0,1-.011-.021s0,0-.008,0a.148.148,0,0,0-.014-.025l0,0a.217.217,0,0,0-.011-.021l0,0c0-.007-.011-.014-.015-.021s0,0,0-.007a.217.217,0,0,1-.011-.021l0,0c0-.007-.011-.014-.014-.021s0,0,0-.007-.011-.014-.015-.021v0a.065.065,0,0,1-.014-.021s0,0,0-.007a.065.065,0,0,1-.014-.021.147.147,0,0,0-.019-.025v0a.416.416,0,0,0-.031-.05s0,0,0,0c-.011-.018-.021-.036-.028-.05l0,0c-.01-.018-.021-.036-.031-.053-.22-.355-.433-.713-.643-1.072l1.728-1.008c.319.55.656,1.1,1,1.643l-1.688,1.072A.069.069,0,0,1-14127.639,2254.88Zm90.246-2.139c.326-.55.648-1.11.957-1.671l1.753.969c-.053.1-.11.2-.167.3l-.021.042s-.008.007-.008.011l0,0s0,.007-.008.011v.007a.072.072,0,0,0-.011.014.013.013,0,0,1,0,.007.012.012,0,0,0,0,.011s0,0-.007.007,0,0,0,.007a.016.016,0,0,1-.007.01v0l-.011.018v0a.08.08,0,0,0-.011.014v0s0,.007-.007.01l0,0a.319.319,0,0,1-.018.035h0c0,.007,0,.011-.008.018a.209.209,0,0,1-.021.035c0,.007-.007.011-.01.018s-.019.035-.028.053l-.032.053a.033.033,0,0,0-.007.018h0c-.007.011-.011.025-.018.036a.17.17,0,0,0-.011.018l-.021.036a.033.033,0,0,0-.007.018h0c0,.007,0,.011-.007.014s0,0,0,0a.133.133,0,0,1-.007.018h0a.017.017,0,0,1-.007.014s0,0,0,0a.017.017,0,0,1-.007.014v0a.173.173,0,0,1-.011.018.037.037,0,0,1-.011.014v.007s-.007.007-.007.01,0,0,0,0a.026.026,0,0,0-.008.014l0,0-.008.014a.012.012,0,0,0,0,.007s0,.007-.008.007,0,.007,0,.01,0,0,0,.007-.007.007-.007.01l-.007.011s0,.007,0,.01a0,0,0,0,0,0,0s0,.007-.007.01,0,0,0,0c-.01.018-.018.035-.028.053-.12.206-.241.412-.365.617Zm-93.158-3.072,1.795-.876c.28.575.574,1.149.88,1.714l-1.764.944C-14129.955,2250.864-14130.261,2250.268-14130.551,2249.669Zm95.017-.3c.287-.571.567-1.153.834-1.735l1.816.834c-.259.564-.525,1.125-.806,1.678v0a.094.094,0,0,1-.007.014,0,0,0,0,1,0,0c0,.007,0,.01,0,.014l0,0a.133.133,0,0,0-.007.018s0,0,0,.007,0,0,0,.007,0,.007-.008.011v0c-.007.014-.014.025-.021.039Zm-96.2-2.292c-.007-.018-.014-.035-.021-.053v0a.13.13,0,0,0-.007-.018h0a.212.212,0,0,0-.015-.039.133.133,0,0,1-.007-.018c-.008-.014-.011-.025-.018-.035v-.007a.054.054,0,0,0-.008-.011v-.007a.112.112,0,0,1-.007-.014v0a.025.025,0,0,1-.007-.014s0,0,0-.007,0-.007,0-.01,0,0,0-.007,0-.011-.007-.011v-.007c0-.007,0-.011-.008-.014a.013.013,0,0,0,0-.007.012.012,0,0,0,0-.011.013.013,0,0,0,0-.007s0-.007,0-.01,0,0,0-.007,0-.011-.007-.014a.012.012,0,0,0,0-.01s0-.007,0-.007a.012.012,0,0,0,0-.011s0,0,0-.007,0-.007,0-.007v0c0-.007-.008-.014-.011-.021v-.007a.012.012,0,0,1,0-.01s0,0,0-.007-.011-.025-.019-.036v0s0-.007,0-.011,0,0,0-.007-.014-.035-.021-.053v0a.332.332,0,0,1-.024-.053v0c-.063-.153-.124-.309-.188-.461l1.859-.741c.234.593.486,1.188.745,1.774l-1.827.809C-14131.509,2247.6-14131.623,2247.338-14131.736,2247.075Zm97.806-1.206c.241-.592.479-1.2.7-1.8l1.873.7q-.346.942-.731,1.862Zm-99.586-3.622,1.908-.6c.191.61.4,1.224.613,1.827l-1.884.671C-14133.1,2243.517-14133.314,2242.882-14133.517,2242.247Zm100.924.01c.2-.606.39-1.224.567-1.841l1.919.557c-.011.035-.021.074-.031.11,0,.007,0,.014,0,.021a.365.365,0,0,1-.014.039.133.133,0,0,1,0,.018v0c0,.01-.007.025-.011.035l0,0a.037.037,0,0,1,0,.018v0a.228.228,0,0,0-.011.035l0,0a.037.037,0,0,1,0,.018v0a.228.228,0,0,0-.011.035v0l-.008.014v.007c0,.011-.007.021-.01.035a0,0,0,0,1,0,0s0,.01,0,.014v0c0,.007,0,.014-.007.018v0c0,.007,0,.01,0,.018s0,0,0,0a.02.02,0,0,1,0,.014v0c0,.014-.007.025-.011.036s0,0,0,.007a.02.02,0,0,1,0,.014v0c0,.014-.007.025-.011.036s0,0,0,.007,0,.01,0,.014v0c0,.014-.008.021-.011.035l0,0c0,.007,0,.011,0,.018v0a.08.08,0,0,0-.011.035l0,0c0,.007,0,.011,0,.014v.007c0,.01-.007.021-.01.035a0,0,0,0,0,0,0s0,.011,0,.014,0,0,0,0a.025.025,0,0,1,0,.018.179.179,0,0,0-.007.021v0c0,.007,0,.007,0,.014a0,0,0,0,0,0,0c0,.014-.007.025-.01.039s0,.011-.008.018v0c0,.014-.007.025-.011.039a.133.133,0,0,1-.007.018v0c0,.011-.007.025-.011.035v0a.133.133,0,0,1-.007.018.163.163,0,0,1-.015.039.037.037,0,0,1,0,.018v0c-.007.014-.007.025-.015.039s0,.01,0,.018v0c-.008.018-.015.039-.021.057s-.007.028-.011.039a.179.179,0,0,0-.007.021c-.008.021-.011.039-.018.057v0a.449.449,0,0,0-.019.057l0,0a.03.03,0,0,1,0,.018c0,.014-.011.025-.014.039a.047.047,0,0,1-.008.021l-.011.039a.147.147,0,0,1-.007.018v0c0,.011-.007.021-.011.035s0,0,0,0,0,.01,0,.014,0,0,0,.007a.046.046,0,0,1,0,.018c0,.007,0,.01-.008.018v0s0,.011,0,.014l0,0a.037.037,0,0,0,0,.018s0,0,0,0,0,.01,0,.014,0,0,0,.007a.013.013,0,0,1,0,.011v.007a.012.012,0,0,0,0,.01.025.025,0,0,0,0,.014.012.012,0,0,0,0,.011s0,0,0,.007,0,0,0,.007,0,.007,0,.011v.007a.13.13,0,0,1-.007.018.012.012,0,0,1,0,.007.015.015,0,0,1,0,.011v.007a.159.159,0,0,0-.015.039.038.038,0,0,0,0,.018c-.008.014-.011.028-.019.042Zm-101.938-3.7a.3.3,0,0,1-.011-.039v0s0-.011,0-.014l0,0a.038.038,0,0,0,0-.018v-.007s0-.007,0-.01a.012.012,0,0,0,0-.011v-.007s0-.007,0-.011v0a.161.161,0,0,1-.007-.028.02.02,0,0,0,0-.014l1.947-.458c.146.621.306,1.249.476,1.866l-1.93.529C-14134.241,2239.742-14134.394,2239.154-14134.531,2238.561Zm103,0c.155-.621.3-1.252.429-1.877l1.959.408q-.208.985-.447,1.951Zm-103.546-2.54v0c0-.007,0-.01,0-.018v0s0-.01,0-.018a.038.038,0,0,1,0-.018s0,0,0-.007v-.014l0,0v-.018a.011.011,0,0,1,0-.007.012.012,0,0,0,0-.011v-.018a.18.18,0,0,1-.007-.039l0,0v-.018c-.085-.447-.159-.9-.23-1.352l1.977-.312c.1.632.209,1.27.333,1.895l-1.965.387C-14135.021,2236.294-14135.05,2236.156-14135.074,2236.017Zm104.333-1.228c.106-.631.2-1.27.287-1.905l1.983.262q-.133,1-.3,1.976Zm-104.883-2.366v-.014s0-.007,0-.007v-.018a.012.012,0,0,0,0-.011v-.025c0-.014,0-.029-.007-.043-.071-.6-.128-1.2-.178-1.813l1.99-.163c.054.639.117,1.281.2,1.916l-1.986.238C-14135.621,2232.466-14135.621,2232.445-14135.624,2232.424Zm105.387-1.451c.061-.639.11-1.284.149-1.923l1.993.117c-.018.309-.039.617-.061.922v.025s0,.014,0,.018v.039a.013.013,0,0,0,0,.011v0a.062.062,0,0,1,0,.025v.021c-.025.309-.05.621-.078.929Zm-105.728-2.937v-.05a.019.019,0,0,1,0-.014v-.1s0-.007,0-.011v-.106s0-.01,0-.014v-.067a.041.041,0,0,0,0-.021v-.025c-.011-.376-.018-.752-.021-1.132l2-.018c.008.642.021,1.288.054,1.926l-2,.092C-14135.951,2228.344-14135.958,2228.188-14135.965,2228.035Zm105.951-.908q.01-.564.011-1.128c0-.266,0-.536,0-.8l2-.032c0,.035,0,.071,0,.106v.156a.474.474,0,0,0,0,.074v1.015a.012.012,0,0,0,0,.011v.238a.159.159,0,0,0,0,.043v.153c0,.067,0,.138,0,.209Zm-105.969-2.629c0-.082.007-.167.011-.248v-.117s0,0,0-.007v-.042c.015-.419.036-.83.057-1.249v0c0-.014,0-.025,0-.039v-.018s0,0,0-.007v-.053c0-.071.011-.142.014-.213l2,.128c-.042.639-.07,1.284-.088,1.927Zm105.777-3.15,1.99-.174c.06.66.106,1.327.138,1.994l-1.993.1C-14030.106,2222.632-14030.148,2221.986-14030.205,2221.348Zm-105.522-.841c.05-.486.106-.976.171-1.458v-.018a.1.1,0,0,0,0-.028v0a.012.012,0,0,1,0-.011v-.018s0,0,0-.007v-.018s0-.007,0-.011v-.018s0-.007,0-.007v-.025a.026.026,0,0,0,0-.014v0c0-.007,0-.011,0-.018v0c0-.007,0-.011,0-.018v-.021l0,0c.011-.092.025-.188.036-.284l1.982.277c-.088.632-.166,1.274-.23,1.912Zm105.04-2.98,1.972-.323c.019.1.032.2.047.291,0,0,0,0,0,0v.018a.041.041,0,0,1,0,.021s0,0,0,.007v.018a.013.013,0,0,0,0,.007v.021a.029.029,0,0,1,0,.018l0,0v.021a.139.139,0,0,1,.008.039.053.053,0,0,1,0,.021c.075.482.143.965.2,1.451a.139.139,0,0,1,.008.039l-1.983.252C-14030.493,2218.8-14030.585,2218.158-14030.687,2217.527Zm-104.49-.979c.1-.568.21-1.128.327-1.688,0-.007,0-.011,0-.018a.163.163,0,0,0,.008-.042l0,0c0-.018.007-.039.011-.057v0a.02.02,0,0,0,0-.014.156.156,0,0,1,.007-.028v0s0-.007,0-.01v0c0-.007,0-.011,0-.014v0a.141.141,0,0,1,.007-.028v-.014l0,0a.012.012,0,0,1,0-.01v-.018l1.954.422c-.131.625-.259,1.26-.368,1.891Zm103.728-2.792,1.943-.472c.156.649.3,1.3.434,1.955l-1.962.4C-14031.16,2215.008-14031.3,2214.376-14031.45,2213.756Zm-102.887-1.117q.25-.974.529-1.93l1.919.564c-.181.614-.352,1.238-.507,1.859Zm101.844-2.59,1.9-.614q.3.953.575,1.916l-1.927.543C-14032.11,2211.276-14032.3,2210.655-14032.493,2210.048Zm-100.712-1.249q.319-.947.671-1.884l1.873.709c-.228.6-.443,1.206-.649,1.813Zm99.4-2.37,1.852-.752q.186.452.362.9v0a.172.172,0,0,1,0,.018.173.173,0,0,1,.011.018.031.031,0,0,0,.007.018v.007s0,.007,0,.01,0,0,0,.007l0,.007c0,.007,0,.014.008.021v0s0,.007.007.011v0c.106.277.209.553.313.834l-1.881.685C-14033.334,2207.625-14033.568,2207.022-14033.81,2206.43Zm-97.983-1.369s0-.01.007-.014,0-.01.008-.014v0a.168.168,0,0,1,.018-.039v0a.015.015,0,0,0,0-.01s0,0,0-.007a.013.013,0,0,0,0-.011s0,0,0-.007,0-.007.008-.014,0,0,0-.007,0-.007,0-.011,0,0,0-.007a.012.012,0,0,1,0-.007c0-.007,0-.014.007-.018s0-.01.008-.018,0,0,0,0,0-.01,0-.014a0,0,0,0,0,0,0,.224.224,0,0,1,.014-.035.049.049,0,0,0,.007-.018v0c.132-.3.263-.6.4-.9a.319.319,0,0,1,.018-.035v0a.027.027,0,0,1,.008-.014v0c0-.007,0-.011.007-.014s0,0,0,0a.034.034,0,0,1,.007-.018v-.007s0,0,0-.007,0-.007.008-.011a.012.012,0,0,1,0-.007.348.348,0,0,0,.015-.035l0,0s0-.007,0-.011,0,0,0,0c.07-.159.146-.319.22-.482l1.813.848c-.27.578-.532,1.171-.78,1.76Zm96.4-2.139,1.791-.89q.447.894.855,1.809l-1.824.819C-14034.832,2204.078-14035.108,2203.492-14035.392,2202.921Zm-94.713-1.487a.1.1,0,0,0,.015-.028.112.112,0,0,0,.007-.014s0,0,0,0a.025.025,0,0,1,.007-.014.012.012,0,0,0,0-.01s0,0,0-.007,0-.007.008-.011,0,0,0,0q.431-.846.895-1.671l1.745.976c-.312.557-.617,1.128-.908,1.7Zm92.875-1.9,1.721-1.018c.039.06.074.124.109.188l.025.035v0s0,.007.007.01,0,0,0,.007,0,.007,0,.011a0,0,0,0,1,0,0,.15.15,0,0,0,.011.018.014.014,0,0,1,0,.007l.008.007s0,0,0,.007a.012.012,0,0,0,0,.007s0,.007,0,.011.007.007.007.011,0,.007.007.01a.013.013,0,0,1,0,.007s0,0,0,.007,0,.007.008.007,0,.007,0,.011,0,0,0,.007a.08.08,0,0,1,.011.014s0,0,0,0a.027.027,0,0,0,.008.014v0l.007.011s0,0,0,.007a.05.05,0,0,1,.01.014v0s0,.007.008.01a.013.013,0,0,0,0,.007s0,.007.008.011,0,0,0,.007,0,.007.008.014.007.011.01.018a0,0,0,0,0,0,0s0,.007,0,.011,0,0,0,.007.008.007.008.011l0,0a.034.034,0,0,1,.007.018,0,0,0,0,1,0,0,.017.017,0,0,1,.007.011s0,0,0,.007,0,.007.007.01a0,0,0,0,0,0,0,.133.133,0,0,1,.007.018h0c0,.007,0,.01.007.014s0,0,0,.007a.016.016,0,0,0,.007.01v0a.182.182,0,0,0,.021.032v0c0,.007,0,.011.007.014l0,0a.133.133,0,0,0,.007.018h0a.033.033,0,0,0,.007.018s0,0,0,0a.048.048,0,0,0,.008.01s0,0,0,0a.026.026,0,0,0,.008.014v0a.17.17,0,0,0,.011.018c0,.007.007.011.007.014s0,0,0,.007.008.007.008.011l0,0c0,.007,0,.01.008.018h0a.02.02,0,0,0,.007.014s0,0,0,.007l.007.011v0a.17.17,0,0,1,.011.018.027.027,0,0,1,.008.014s0,0,0,.007.007.007.007.011l0,0a.032.032,0,0,0,.007.014v0a.035.035,0,0,1,.011.018l0,0a.033.033,0,0,1,0,.011l.007.007a.041.041,0,0,1,0,.011l0,0a.112.112,0,0,0,.007.014s0,.007.008.007a.015.015,0,0,0,0,.011s0,0,0,.007a.012.012,0,0,1,0,.007s0,.007.008.011a.041.041,0,0,1,0,.01s.008,0,.008.007,0,.007,0,.011,0,.007.008.007,0,.007,0,.007a.012.012,0,0,1,0,.011s0,0,0,.007a.052.052,0,0,1,.011.018l0,0s0,.007,0,.01,0,0,0,0,0,.007.007.011,0,0,0,.007,0,.007,0,.01,0,0,0,0a.065.065,0,0,1,.014.021s0,0,0,.007,0,.007,0,.011,0,0,0,0a.3.3,0,0,1,.021.035v0s0,.007.007.011a0,0,0,0,0,0,0s0,.007,0,.01l0,0a.145.145,0,0,1,.018.035l0,0s0,.007.007.014.015.025.021.039,0,0,0,0a.1.1,0,0,0,0,.014s0,0,0,0,.018.035.028.053l.032.053a.352.352,0,0,0,.028.053c.031.057.06.11.089.167l-1.757.954C-14036.584,2200.651-14036.9,2200.087-14037.229,2199.537Zm-90.92-1.593c.124-.206.248-.408.376-.61l.032-.053h0c0-.01.011-.018.015-.028a.065.065,0,0,0,.014-.021s0,0,0-.007a.092.092,0,0,0,.015-.021l0,0a.069.069,0,0,0,.015-.021.014.014,0,0,0,0-.007.092.092,0,0,1,.015-.021.013.013,0,0,0,0-.007l.01-.014s0-.007,0-.01a.041.041,0,0,0,.015-.018s0-.007.007-.01,0-.007.007-.014,0-.007.007-.01a.173.173,0,0,0,.011-.018s0-.007.008-.01,0-.007.007-.011.011-.014.014-.021a.013.013,0,0,0,0-.007c0-.007.007-.007.011-.014s0,0,0-.007a.11.11,0,0,0,.014-.025s0,0,.007-.007,0-.007.008-.014l0,0a.3.3,0,0,1,.018-.025s0-.007,0-.007.021-.032.028-.046,0,0,0-.007.021-.032.031-.046v0a.371.371,0,0,0,.032-.05s0,0,0,0a.362.362,0,0,0,.031-.046v0c.011-.018.021-.032.032-.05h0a.135.135,0,0,1,.018-.032l0,0s0-.011.007-.014,0,0,0,0a.19.19,0,0,0,.019-.028.014.014,0,0,0,0-.007l.011-.011a.012.012,0,0,1,0-.01c0-.007.011-.014.014-.021s0-.007.008-.007,0-.01.007-.014a.073.073,0,0,0,.011-.018l.011-.011a.017.017,0,0,1,.007-.011c0-.007,0-.007,0-.01a.087.087,0,0,0,.014-.021l.007-.007a.173.173,0,0,0,.011-.018s0,0,0,0,.011-.018.014-.025l0,0c.011-.018.021-.032.032-.05s.024-.036.035-.053l1.668,1.1c-.352.536-.7,1.082-1.033,1.625Zm88.837-1.646,1.64-1.142.081.114v0c.011.018.025.032.032.046s0,0,0,.007l.032.042s0,0,0,.007a.13.13,0,0,1,.018.025s0,0,0,.007a.072.072,0,0,1,.011.014l0,0a.146.146,0,0,0,.018.025s0,0,0,.007a.025.025,0,0,1,.007.014.007.007,0,0,1,.007.007.07.07,0,0,1,.015.021s0,.007.007.007l.008.014.007.007c0,.007.011.018.014.025s0,0,.008.007,0,.007.007.01a.012.012,0,0,1,0,.007l.019.025s0,0,0,.007a.167.167,0,0,1,.011.014.19.19,0,0,0,.021.028.013.013,0,0,0,0,.007c.011.014.021.032.031.046a.01.01,0,0,0,0,.007l.032.043v.007a.08.08,0,0,1,.021.028.035.035,0,0,1,.011.018l0,0a.193.193,0,0,0,.021.029v0c.216.323.429.646.642.972l-1.682,1.082C-14038.589,2197.362-14038.947,2196.823-14039.312,2196.3Zm-86.634-1.689c.142-.2.28-.39.422-.582a.416.416,0,0,0,.036-.05l0,0,.036-.046s0,0,0,0,.011-.014.015-.021l0,0c0-.007.011-.014.015-.021a0,0,0,0,0,0,0c.007-.007.01-.014.018-.021s0,0,0-.007a.053.053,0,0,0,.011-.018s0,0,.007,0,.011-.014.015-.021a.012.012,0,0,1,0-.007c0-.007.011-.011.014-.018l0,0a.065.065,0,0,0,.014-.021l.008-.007a.054.054,0,0,1,.014-.018,0,0,0,0,1,0,0c0-.007.011-.014.014-.021s0,0,0-.007a.065.065,0,0,0,.014-.021h0a.1.1,0,0,0,.015-.021l.007-.007c0-.007.011-.014.014-.021l0,0a.076.076,0,0,1,.015-.018s0,0,0-.007.011-.014.018-.021a0,0,0,0,1,0,0,.035.035,0,0,1,.015-.018s0-.007,0-.007.011-.014.015-.021,0,0,0,0a.069.069,0,0,0,.015-.021,0,0,0,0,0,0,0c.007-.007.01-.014.018-.021s0,0,0,0,.011-.014.015-.021l0,0a.086.086,0,0,1,.019-.021v0c.007-.007.011-.014.018-.021v0c.007-.007.011-.014.018-.021l0,0c.01-.014.024-.032.035-.046v0c.081-.106.167-.213.248-.319l1.582,1.22c-.394.507-.78,1.029-1.149,1.547Zm84.313-1.387,1.555-1.263c.046.057.088.114.135.17l0,0c.008.007.011.014.018.021s.011.014.019.021,0,0,0,.007.011.014.018.018a.013.013,0,0,0,0,.007.051.051,0,0,0,.011.014s0,.007.011.01a.153.153,0,0,1,.011.018l.011.011a.007.007,0,0,0,.007.007l.032.042,0,0c.323.4.639.809.947,1.22l-1.6,1.206C-14040.831,2194.229-14041.228,2193.719-14041.633,2193.222Zm-81.865-1.778c.185-.223.376-.447.563-.667a.531.531,0,0,1,.043-.046v0c.014-.014.024-.028.039-.046a.545.545,0,0,0,.039-.046h0c.008-.007.011-.018.019-.025h0c.007-.007.011-.014.018-.021v0l.021-.021,0,0a.084.084,0,0,1,.018-.021.112.112,0,0,0,.018-.021,0,0,0,0,0,0,0c.014-.014.024-.028.039-.042s0,0,0,0a.507.507,0,0,0,.036-.046h0l.021-.021v0c.007-.007.011-.014.018-.021s.015-.018.021-.025.028-.032.043-.046c.109-.124.22-.248.333-.373l1.486,1.334c-.426.475-.852.969-1.259,1.458Zm79.329-1.121,1.454-1.37q.687.724,1.345,1.479l-1.5,1.316C-14043.3,2191.271-14043.732,2190.788-14044.169,2190.323Zm-78.56.216h0Zm1.9-2.072s.007,0,.007-.007l.011-.011.011-.011.007-.007.019-.018s0,0,.007-.007l.011-.011s0-.007.007-.011.011-.01.018-.014,0-.007.007-.01l.011-.011s.008,0,.008-.007l.018-.018.007-.007.011-.01a.017.017,0,0,0,.007-.011.064.064,0,0,0,.018-.014s.008-.007.008-.011l.011-.01s.007,0,.01-.007l.019-.018s0,0,0-.007a.328.328,0,0,0,.039-.039l0,0,.021-.021s0,0,0-.007a.047.047,0,0,0,.015-.01l0,0,.025-.025s0,0,0,0a.035.035,0,0,0,.011-.014h0l.024-.025a0,0,0,0,1,0,0c.015-.014.025-.029.039-.043h0c.014-.014.024-.028.039-.042h0c.132-.135.263-.266.4-.4h0a.2.2,0,0,1,.039-.039,0,0,0,0,1,0,0c.008-.007.008-.011.015-.014a.167.167,0,0,1,.024-.025s0,0,.008-.007l.011-.011.014-.014.011-.011.011-.01.007-.007c.007,0,.011-.011.018-.018l.008-.007s.01-.007.014-.014l0,0c.007-.007.014-.01.021-.018s0,0,0,0l.043-.042c.1-.1.2-.188.291-.284l1.387,1.444c-.461.444-.922.9-1.366,1.359Zm73.912-.844,1.352-1.476.412.38,0,0a.308.308,0,0,1,.039.039s0,0,.007,0l.019.018s0,0,0,0,.011.011.018.014,0,0,.008.007.011.011.018.018l.007.007.011.011s.007,0,.007.007.015.01.018.018a.017.017,0,0,1,.011.007l.011.011.008.007.018.018s.007,0,.011.007,0,.007.007.007l.018.018.007.007s.011.007.011.01l.007.007.021.021s0,0,.008,0a.05.05,0,0,1,.01.014h0l.024.025a0,0,0,0,1,0,0,.063.063,0,0,1,.015.011v0a.2.2,0,0,1,.028.025l0,0,.039.039h0l.043.042c.191.185.383.369.57.557l-1.4,1.423C-14045.972,2188.5-14046.443,2188.053-14046.915,2187.624Zm-71.027-1.926c.329-.294.663-.582,1-.869,0,0,0,0,0,0a.518.518,0,0,0,.039-.035s.007,0,.011-.007l.01-.011s.011-.007.019-.014l.007-.007s.011-.007.014-.011l.008-.007a.075.075,0,0,1,.018-.014l.007-.007c.007,0,.015-.011.021-.014v0a.116.116,0,0,0,.021-.018l0,0a.414.414,0,0,0,.047-.039c.1-.078.191-.16.287-.238l1.277,1.54c-.493.408-.983.83-1.462,1.256Zm68.094-.568,1.238-1.572.415.33c.014.014.031.025.046.039l0,0,.046.036,0,0a.08.08,0,0,1,.021.018c.007.007.015.01.021.018s0,0,0,0a.084.084,0,0,1,.021.018s0,0,.008,0,.011.007.014.014a.01.01,0,0,1,.007,0c.008,0,.015.01.021.014a.013.013,0,0,0,0,.007.037.037,0,0,1,.018.014s0,0,.007,0,.011.01.019.018a.014.014,0,0,1,.007,0c.007,0,.011.01.018.014a0,0,0,0,1,0,0,.1.1,0,0,1,.021.018s0,0,.008,0a.075.075,0,0,0,.018.014,0,0,0,0,0,0,0l.019.018s0,0,.007,0,.014.011.021.018,0,0,0,0a.05.05,0,0,1,.018.014.014.014,0,0,0,.008,0c0,.007.011.011.018.018s0,0,.007,0a.093.093,0,0,0,.018.014l0,0c.007.007.014.011.021.018l0,0a.083.083,0,0,1,.019.014s0,0,.007,0,.014.011.021.018,0,0,0,0l.018.018h0a.091.091,0,0,0,.021.018s0,0,0,0a.129.129,0,0,0,.021.018.069.069,0,0,0,.025.018s0,0,0,.007.015.011.021.014,0,0,0,0a.033.033,0,0,0,.018.014.012.012,0,0,0,0,.007.1.1,0,0,1,.021.018s0,0,0,0,.015.007.018.014a.01.01,0,0,1,.007,0c.008.007.015.011.019.018s0,0,.007,0a.049.049,0,0,1,.014.014.014.014,0,0,1,.008,0c.007.007.014.011.021.018a.014.014,0,0,0,.008,0c0,.007.011.011.014.014s0,0,.007,0l.019.018a.008.008,0,0,1,.007.007.045.045,0,0,1,.014.011l.011.011a.047.047,0,0,1,.015.01s.007.007.011.007l.011.011a.06.06,0,0,1,.018.014s0,0,.007.007a.047.047,0,0,0,.015.011l0,0a.285.285,0,0,0,.025.018s0,0,0,.007a.451.451,0,0,0,.047.035v0c.035.028.07.057.106.089l-1.295,1.522C-14048.849,2185.935-14049.349,2185.523-14049.849,2185.13Zm-65.015-1.983c.178-.135.354-.27.535-.4a0,0,0,0,1,0,0l.043-.032s0,0,.007-.007a.092.092,0,0,1,.018-.011l.011-.01s.007,0,.011-.007.007-.007.011-.007a.045.045,0,0,0,.014-.011.047.047,0,0,0,.015-.011.017.017,0,0,1,.011-.007s.011-.007.014-.01.008,0,.011-.007a.084.084,0,0,1,.018-.014.014.014,0,0,1,.008,0,.05.05,0,0,1,.018-.014l0,0a.1.1,0,0,1,.021-.014l.007-.007c.008,0,.015-.01.021-.014v0c.008,0,.015-.01.021-.014s0,0,.007,0,.015-.011.021-.018h0c.007-.007.014-.01.021-.018a.2.2,0,0,0,.024-.018l0,0c.007,0,.014-.01.021-.014v0a.065.065,0,0,0,.025-.018h0l.047-.035h0a.45.45,0,0,1,.05-.036v0a.447.447,0,0,0,.05-.035h0l.046-.036h0a.088.088,0,0,1,.021-.018l0,0c.007,0,.014-.011.021-.014l0,0a.075.075,0,0,0,.021-.018h0a.139.139,0,0,0,.021-.018h0a.19.19,0,0,1,.025-.018,0,0,0,0,0,0,0,.052.052,0,0,0,.018-.014h.008c0-.007.014-.011.021-.018a.01.01,0,0,1,.007,0l.014-.014a.014.014,0,0,0,.008,0,.1.1,0,0,0,.018-.014s.007,0,.011-.007.011-.007.014-.011.011-.007.015-.007l.011-.011s.007,0,.011-.007.007,0,.01-.007a.1.1,0,0,1,.021-.014s0,0,.007-.007l.047-.032c.031-.021.06-.042.089-.064l1.159,1.632c-.521.369-1.043.756-1.55,1.142Zm61.9-.287,1.117-1.66c.163.114.326.224.489.337a.062.062,0,0,1,.025.018h0a.1.1,0,0,1,.021.018h0a.073.073,0,0,0,.021.014l0,0c.008,0,.015.01.021.014s.007,0,.007.007.011.007.019.01.007,0,.011.007a.167.167,0,0,0,.014.011s.007,0,.011.007a.055.055,0,0,0,.014.011s.011.007.015.01.007,0,.011.007.007,0,.014.007.008,0,.011.007.011.011.019.014a.014.014,0,0,1,.007,0s.011.007.014.011l.032.021s0,0,0,0c.018.011.031.021.046.032s0,0,0,0c.019.01.032.021.05.032.249.177.5.358.749.539l-1.178,1.618C-14051.9,2183.586-14052.432,2183.214-14052.96,2182.859Zm-58.644-2.029.036-.025.028-.018s0,0,.007,0a.047.047,0,0,1,.015-.011s.007,0,.011-.007a.166.166,0,0,1,.014-.01.029.029,0,0,0,.015-.007s.007,0,.01-.007a.156.156,0,0,0,.021-.014l0,0,.018-.011a.01.01,0,0,0,.007,0,.087.087,0,0,1,.021-.014l0,0a.151.151,0,0,1,.024-.014c.27-.177.543-.351.816-.521l.053-.032h0a.132.132,0,0,1,.024-.018.2.2,0,0,1,.025-.014s0,0,0,0,.032-.018.047-.028,0,0,.007,0a.062.062,0,0,1,.021-.014s0,0,.007,0a.041.041,0,0,0,.014-.01s.011,0,.011-.007a.078.078,0,0,0,.019-.011s.01-.007.014-.007.007,0,.011-.007.007,0,.011-.007l.018-.011.015-.01a.011.011,0,0,0,.01,0c.015-.01.028-.018.047-.028l0,0,.05-.028c.074-.05.152-.1.228-.142l1.035,1.714c-.546.33-1.092.674-1.628,1.025Zm55.372-.007.994-1.735.039.025s0,0,.007,0,.007,0,.014.007.008,0,.011.007l.018.007a.057.057,0,0,0,.015.011s0,0,.007,0l.025.014a.177.177,0,0,0,.024.014s0,0,0,0c.333.192.663.387.993.585h0c.008.007.015.011.021.018h0a.087.087,0,0,1,.021.014s0,0,.007,0a.078.078,0,0,1,.021.014s0,0,.007,0l.018.011s.007,0,.011,0l.011.011.021.01a.01.01,0,0,0,.007,0l.015.01h0l.028.018,0,0,.358.22-1.058,1.7C-14055.121,2181.472-14055.678,2181.142-14056.231,2180.823Zm-51.952-2.061c.21-.117.419-.23.628-.344l0,0s.007,0,.015-.007a.175.175,0,0,1,.039-.018s0,0,0,0,.007,0,.011-.007h0a.119.119,0,0,1,.035-.018s0,0,0-.007a.015.015,0,0,0,.011,0s0,0,.007,0a.01.01,0,0,0,.007,0c.007,0,.011-.007.018-.007s0,0,0,0,.007,0,.011-.007,0,0,.007,0,.007,0,.011,0,0,0,0,0l.018-.01.018-.007a0,0,0,0,1,0,0s.007,0,.01-.007h.008a.174.174,0,0,1,.031-.018v0c.008,0,.011,0,.019-.007h0a.409.409,0,0,1,.054-.029c.259-.138.521-.273.784-.408l.9,1.785c-.567.287-1.143.592-1.7.9Zm48.54.277.861-1.806q.905.431,1.788.894l-.926,1.774C-14058.487,2179.6-14059.065,2179.315-14059.644,2179.038Zm-44.975-2.09c.171-.078.338-.153.5-.227v0l.057-.021v0l.019-.007h0a.11.11,0,0,1,.036-.014s0,0,0,0,.007,0,.015-.007h0a.312.312,0,0,1,.036-.018c.007,0,.011,0,.014-.007h.007c.008,0,.011-.007.015-.007h0s.011-.007.014-.011h.007s.008,0,.011-.007h.008a.017.017,0,0,1,.014-.007l0,0a.026.026,0,0,0,.014-.007h0c.007,0,.011,0,.014-.007h0c.007,0,.011-.007.018-.007v0a.025.025,0,0,0,.018-.007h0c.007,0,.011,0,.015-.007h0a.036.036,0,0,1,.018-.007v0c.015,0,.025-.01.039-.014a.282.282,0,0,1,.057-.025c.008,0,.011-.007.019-.007v0l.837-.358.77,1.848c-.589.245-1.181.507-1.76.773Zm41.44.564.724-1.866c.089.035.174.067.26.1h0a.058.058,0,0,1,.015.007h0l.019.007s0,0,.01,0a.014.014,0,0,0,.008,0s.007,0,.011,0l0,0c.008,0,.011,0,.018,0v0c.008,0,.011,0,.019.007h0l.018.007c.493.2.979.4,1.466.606l-.795,1.838C-14061.981,2177.988-14062.581,2177.743-14063.178,2177.513Zm-37.75-2.1c.624-.234,1.252-.454,1.887-.667l.632,1.9c-.606.2-1.217.419-1.816.642Zm34.114.844.581-1.916v0l.039.011a.164.164,0,0,0,.019,0s0,0,.007,0,.007,0,.007,0l.039.011c.007,0,.015,0,.018.007.525.16,1.043.326,1.558.5h0s.011,0,.014.007h0c.007,0,.014,0,.018.007h0l.014,0s0,0,.007,0,.008,0,.011,0a.014.014,0,0,1,.008,0s.007,0,.011,0,.01,0,.018,0a0,0,0,0,0,0,0s.008,0,.011,0h.007l.086.032-.653,1.891C-14065.59,2176.64-14066.2,2176.438-14066.813,2176.253Zm-30.318-2.1.365-.106h0a.034.034,0,0,1,.019,0v0c.007,0,.014,0,.021,0l.019-.007a.132.132,0,0,1,.018,0,.012.012,0,0,0,.007,0,.028.028,0,0,0,.015,0c.007,0,.01,0,.018,0l.018-.007h.011l.028-.011h0s.008,0,.011,0h0l.061-.018.465-.128c.007,0,.011,0,.014,0h0l.042-.01a.034.034,0,0,1,.019,0v0l.039-.011h.007s.007,0,.011,0h0l.039-.011a.177.177,0,0,1,.018,0l.019-.007h.007a.028.028,0,0,1,.018,0s.011,0,.018-.007a.177.177,0,0,1,.018,0,.036.036,0,0,1,.019,0s.01,0,.018-.007l.018,0h0c.007,0,.014,0,.021-.007s.011,0,.018,0h0l.018-.007.039-.01h0l.415-.106.489,1.941c-.62.156-1.245.326-1.858.5Zm26.593,1.117.44-1.951c.652.149,1.3.3,1.943.475l-.511,1.933C-14069.286,2175.562-14069.914,2175.409-14070.539,2175.267Zm-22.716-2.093c.653-.138,1.306-.262,1.966-.379l.344,1.972c-.631.11-1.267.231-1.895.365Zm18.931,1.391.295-1.98c.348.05.691.106,1.035.163.015,0,.028,0,.043.007h0c.007,0,.01,0,.018,0a.014.014,0,0,1,.011,0h.011c.007,0,.014,0,.024,0a.031.031,0,0,0,.018,0s.007,0,.007,0h.019a.049.049,0,0,0,.021,0,.049.049,0,0,0,.021,0h0a.031.031,0,0,0,.018,0,.043.043,0,0,0,.021,0s0,0,0,0a.149.149,0,0,1,.039.007h.021v0c.213.035.426.074.635.114l-.365,1.965C-14073.051,2174.763-14073.689,2174.657-14074.324,2174.565Zm-14.989-2.075c.327-.042.653-.085.983-.121a.041.041,0,0,1,.021,0c.008,0,.015,0,.021,0h.018a.046.046,0,0,1,.021,0c.007,0,.015,0,.021,0h.018a.031.031,0,0,1,.018,0,.056.056,0,0,0,.025,0h.018c.273-.032.55-.06.823-.089l.2,1.99c-.636.064-1.281.138-1.913.224Zm11.161,1.65.149-1.994c.152.011.309.025.465.036l0,0h.043a.021.021,0,0,0,.014,0h.008c.014,0,.024,0,.039,0h.018a.043.043,0,0,0,.021,0h.021a.164.164,0,0,1,.019,0h.018c.007,0,.014,0,.021,0h.021c.008,0,.015,0,.025,0h.018a.049.049,0,0,0,.024,0h.021a.032.032,0,0,0,.018,0h0c.015,0,.028,0,.043,0,.376.032.752.071,1.128.114l-.22,1.987C-14076.868,2174.245-14077.514,2174.188-14078.152,2174.139Zm-7.181-2.036c.224-.014.447-.028.671-.039h.046a.047.047,0,0,0,.021,0h.054c.007,0,.018,0,.024,0h.061c.011,0,.014,0,.021,0h.042c.352-.018.706-.029,1.061-.036l.047,2c-.639.018-1.288.043-1.927.082Zm3.332,1.9v-2h.34c.008,0,.011,0,.019,0h.174c.443,0,.887.014,1.326.028h.018a.1.1,0,0,1,.032,0h.093l-.075,2C-14080.714,2174.011-14081.362,2174-14082,2174Z" transform="translate(14136 -2172)"/></svg>