<svg xmlns="http://www.w3.org/2000/svg" width="76" height="76" viewBox="0 0 76 76"><defs><style>.a,.b{fill:#000;}.a{opacity:0;}</style></defs><g transform="translate(3 -44.133)"><rect class="a" width="76" height="76" transform="translate(-3 44.133)"/><path class="b" d="M355.082,147.563c-.13.495-.25.993-.392,1.484a9.094,9.094,0,0,1-8.508,6.479,13.547,13.547,0,0,1-1.6-.011c-.529-.056-.741.156-.823.651a11.851,11.851,0,0,1-.335,1.224,2.035,2.035,0,0,0,.339.039,8.821,8.821,0,0,1,5.107,1.279c1.025.589,2.03,1.213,3.023,1.854a2.018,2.018,0,0,1,.693,2.944c-.747,1.221-1.49,2.449-2.321,3.612a9,9,0,0,1-12.14,2.151c-.615-.4-1.252-.762-1.865-1.162a.551.551,0,0,0-.717.028c-.728.518-1.479,1-2.267,1.533.145.1.254.194.374.268a8.745,8.745,0,0,1,4.2,6.16c.222,1.262.384,2.535.533,3.808a2.065,2.065,0,0,1-1.934,2.428c-1.19.151-2.377.316-3.569.446a8.932,8.932,0,0,1-9.63-6.74,40.812,40.812,0,0,1-.687-4.538,2.01,2.01,0,0,1,1.41-2.311q2.466-1.027,4.937-2.038a17.994,17.994,0,0,0,10.668-11.2,16.623,16.623,0,0,0,.671-7.747,118.511,118.511,0,0,0-2.716-13.044,9.151,9.151,0,0,1,6.335-10.863q1.88-.506,3.779-.937a1.9,1.9,0,0,1,2.291,1.231,33.329,33.329,0,0,1,1.158,4.95,9.031,9.031,0,0,1-7.209,9.844c-1.086.239-1.077.264-.849,1.359.159.764.311,1.531.477,2.355a3.28,3.28,0,0,0,.355-.22A8.853,8.853,0,0,1,349.4,140.9c1.016-.032,2.035.031,3.049-.027a2.373,2.373,0,0,1,2.629,1.593Zm-4.144-2.514c-4.417-.6-6.937,2.545-6.313,6.326C348.482,151.9,351.476,149.425,350.938,145.049ZM334.1,178.406a20.835,20.835,0,0,0-.545-2.5,4.906,4.906,0,0,0-5.34-3.146c-1.36.146-1.33.112-1.189,1.462C327.34,177.239,330.213,179.577,334.1,178.406Zm12.44-50.5a.754.754,0,0,0-.142-.008c-.228.048-.454.1-.682.15a5.208,5.208,0,0,0-3.574,2.333,5.589,5.589,0,0,0-.306,5,.39.39,0,0,0,.337.167,5.969,5.969,0,0,0,3.67-1.842c1.492-1.773,1.438-3.729.7-5.8Zm-3.648,38.7a5.012,5.012,0,0,0,4.44-2.41c.771-1.192.764-1.182-.453-1.916a5.014,5.014,0,0,0-3.785-.628,5.6,5.6,0,0,0-3.732,3.26.342.342,0,0,0,.078.322,6,6,0,0,0,3.452,1.379Z" transform="translate(-285.082 -70.934)"/><path class="b" d="M-52,142.419a2.357,2.357,0,0,1,1.5-1.493,1.128,1.128,0,0,1,.289-.07c1.714.03,3.432-.007,5.139.122a7.931,7.931,0,0,1,4.3,1.851c.089.069.189.124.352.23.233-1.117.463-2.18.658-3.25.015-.082-.205-.262-.344-.307-.744-.238-1.517-.4-2.243-.677a9.036,9.036,0,0,1-5.481-10.52c.284-1.181.573-2.361.9-3.532a1.949,1.949,0,0,1,2.427-1.446,32.764,32.764,0,0,1,4.98,1.418,8.859,8.859,0,0,1,5.094,10.213c-.707,3.269-1.483,6.524-2.179,9.795a25.228,25.228,0,0,0-.644,7.34,17.3,17.3,0,0,0,3.891,9.515,19.076,19.076,0,0,0,8.513,5.9c1.307.492,2.589,1.054,3.878,1.592a2.093,2.093,0,0,1,1.5,2.5,21.451,21.451,0,0,1-.959,5.345,8.84,8.84,0,0,1-6.423,5.608,12.721,12.721,0,0,1-4.911-.053c-.561-.07-1.123-.142-1.683-.224a1.964,1.964,0,0,1-1.844-2.109,43.321,43.321,0,0,1,.891-5.409,8.071,8.071,0,0,1,3.793-4.836c.125-.079.25-.16.432-.277-.127-.1-.217-.186-.318-.252-.557-.365-1.139-.7-1.668-1.1a.723.723,0,0,0-.964-.051,27.532,27.532,0,0,1-3.152,1.82,8.936,8.936,0,0,1-11.044-3.2c-.745-1.1-1.443-2.24-2.12-3.386a1.933,1.933,0,0,1,.515-2.633c1.455-.93,2.949-1.81,4.477-2.61a7.013,7.013,0,0,1,3.689-.707c.131.007.263,0,.469,0-.179-.656-.33-1.276-.535-1.878-.032-.1-.3-.143-.468-.155a28.593,28.593,0,0,1-3.623-.271,8.963,8.963,0,0,1-6.943-7.231,3.982,3.982,0,0,0-.141-.472Zm10.481,8.914c.6-4.272-2.375-6.939-6.313-6.32C-48.41,148.965-45.774,151.865-41.519,151.333ZM-44.872,163.2a18.673,18.673,0,0,0,1.6,2.106,5.175,5.175,0,0,0,1.756,1.093c1.961.763,3.678.082,5.275-1.062a.378.378,0,0,0,.078-.361,7.374,7.374,0,0,0-1.864-2.375C-40.061,161.127-42.638,161.318-44.872,163.2Zm13.983,15.238a6.97,6.97,0,0,0,3.246.074,4.956,4.956,0,0,0,3.731-4.5c.138-1.108.16-1.092-.929-1.265C-28.262,172.207-31.042,174.7-30.889,178.442ZM-43.48,127.874c-.1.367-.2.7-.281,1.041a5.049,5.049,0,0,0,1.061,4.818,6.022,6.022,0,0,0,3.648,1.783c.093.018.282-.133.327-.246a7.816,7.816,0,0,0,.235-.865C-37.68,131.359-39.51,128.218-43.48,127.874Z" transform="translate(52 -70.89)"/><path class="b" d="M140.919,225.66c.181-.939.4-2.067.617-3.194.339-1.749.67-3.5,1.027-5.244a.778.778,0,0,0-.282-.824c-2-1.842-3.974-3.7-5.965-5.547a2.071,2.071,0,0,1-.75-2.269,2.012,2.012,0,0,1,1.877-1.47c2.5-.3,4.989-.64,7.489-.9a1.768,1.768,0,0,0,1.7-1.179c.991-2.326,2.119-4.594,3.177-6.892a2.053,2.053,0,0,1,1.911-1.364,2.031,2.031,0,0,1,1.982,1.33c1.159,2.508,2.336,5.007,3.494,7.516a.687.687,0,0,0,.618.465c2.778.331,5.552.693,8.329,1.031a1.994,1.994,0,0,1,1.809,1.424,2.065,2.065,0,0,1-.679,2.256c-2.014,1.869-4.02,3.748-6.04,5.612a.77.77,0,0,0-.269.823c.544,2.709,1.053,5.425,1.585,8.137a2.006,2.006,0,0,1-.806,2.2,2.067,2.067,0,0,1-2.353.034c-2.384-1.329-4.776-2.646-7.153-3.989a.847.847,0,0,0-.955.015q-3.569,2.008-7.158,3.98A2.081,2.081,0,0,1,140.919,225.66Zm1.405-15.009-.064.174c.14.114.287.22.418.342q1.776,1.65,3.546,3.305a2.044,2.044,0,0,1,.675,1.94c-.181,1.016-.4,2.025-.594,3.038-.156.795-.306,1.59-.479,2.495.254-.127.415-.2.568-.284,1.354-.75,2.722-1.477,4.055-2.262a2.4,2.4,0,0,1,2.634,0c1.338.776,2.7,1.51,4.055,2.259.148.082.306.143.553.258-.34-1.752-.628-3.39-.982-5.013a2.451,2.451,0,0,1,.77-2.61c1.14-1,2.229-2.057,3.34-3.094.15-.14.289-.293.476-.484a2.579,2.579,0,0,0-.365-.113c-1.586-.2-3.17-.417-4.76-.571a2.386,2.386,0,0,1-2.155-1.508c-.6-1.371-1.253-2.72-1.886-4.077-.1-.216-.214-.425-.365-.723-.132.261-.217.42-.293.582-.675,1.448-1.358,2.891-2.02,4.345a2.147,2.147,0,0,1-1.785,1.34c-.848.107-1.719.208-2.578.314l-2.761.347Z" transform="translate(-116.719 -137.055)"/></g></svg>