<svg xmlns="http://www.w3.org/2000/svg" width="76" height="76" viewBox="0 0 76 76"><defs><style>.a,.b{fill:#fff;}.a{opacity:0;}</style></defs><g transform="translate(-25.489 6.01)"><rect class="a" width="76" height="76" transform="translate(25.489 -6.01)"/><path class="b" d="M14.385,402.326a4.909,4.909,0,0,1-.882-.62,1.72,1.72,0,0,1-.367-1.944,1.839,1.839,0,0,1,1.61-1.176,5.868,5.868,0,0,1,.65-.01H34.738l-.006-.029c-1.323-.23-2.659-.4-3.967-.7a16.291,16.291,0,0,1-11.407-8.759,31.071,31.071,0,0,1-2.873-9.361c-.548-3.3-.671-6.627-.89-9.95a5.859,5.859,0,0,0-.537-2.456,1.822,1.822,0,0,1,1.629-2.6c.15-.007.3,0,.45,0q20.3,0,40.6-.005a1.943,1.943,0,0,1,1.962,1.1,1.908,1.908,0,0,1-.1,1.771,9.423,9.423,0,0,0-.439,1.368c.774-.139,1.4-.292,2.041-.36a7.41,7.41,0,0,1,8.537,6.121,11.326,11.326,0,0,1-2,9.1,15.6,15.6,0,0,1-8.868,6.113c-1.32.386-2.7.563-4.047.867a1.23,1.23,0,0,0-.679.4,17.33,17.33,0,0,1-10.694,6.748c-1.165.252-2.352.4-3.537.64H59.6a2.091,2.091,0,0,1,1.668.638,1.855,1.855,0,0,1-.321,2.764,6.652,6.652,0,0,1-.657.351Zm4.875-33.85c.037.409.074.754.1,1.1.209,2.84.362,5.685.637,8.518a26.118,26.118,0,0,0,2,8.01,13.146,13.146,0,0,0,8.547,7.76,23.752,23.752,0,0,0,13.7.007,12.591,12.591,0,0,0,7.438-5.774,22.618,22.618,0,0,0,2.9-8.959c.354-2.756.522-5.536.759-8.306.067-.773.09-1.551.134-2.339H35.495c0,1.49-.016,2.939.014,4.387a1.463,1.463,0,0,0,.307.788c.675.887,1.422,1.721,2.071,2.626a6.036,6.036,0,0,1,1.356,3.532c0,1.8.008,3.6,0,5.4a1.884,1.884,0,0,1-2.024,1.986q-3.574.006-7.149,0a1.921,1.921,0,0,1-2.072-2.1c0-1.633.026-3.266-.01-4.9a5.09,5.09,0,0,1,.828-3.036c.783-1.154,1.643-2.258,2.509-3.353a1.613,1.613,0,0,0,.432-1.11c-.03-1.215-.011-2.432-.011-3.648v-.594Zm37.4,18.1a1.451,1.451,0,0,0,.258,0,13.133,13.133,0,0,0,6.913-3.853,8.181,8.181,0,0,0,2.283-7.057,3.739,3.739,0,0,0-3.3-3.369,6.287,6.287,0,0,0-3.525.7.725.725,0,0,0-.309.493c-.07.51-.075,1.029-.111,1.544A40.584,40.584,0,0,1,57,385.568c-.113.321-.213.644-.343,1.012Zm-21.163-3.143c0-.991-.054-1.939.012-2.878.114-1.617-1.072-2.5-1.886-3.735-.485.658-.9,1.214-1.308,1.775a2.758,2.758,0,0,0-.581,1.857c.048.812.01,1.629.013,2.444,0,.174.018.349.029.537Z" transform="translate(22 -338.339)"/><path class="b" d="M279.921,100.881a4.928,4.928,0,0,1,.948.7,1.865,1.865,0,0,1-.066,2.471,15.24,15.24,0,0,0-1.091,1.54,1.633,1.633,0,0,0,.007,1.847c.446.679.993,1.291,1.437,1.971a18.991,18.991,0,0,1,1.6,2.692,5.28,5.28,0,0,1-.458,5.025,13.962,13.962,0,0,1-1.443,1.965,1.839,1.839,0,0,1-2.68.176,1.9,1.9,0,0,1-.125-2.66,17.9,17.9,0,0,0,1.16-1.676,1.486,1.486,0,0,0,.022-1.576c-.373-.644-.8-1.261-1.226-1.872s-.958-1.2-1.358-1.848a5.574,5.574,0,0,1-.068-6.146A13.252,13.252,0,0,1,278,101.567a4.622,4.622,0,0,1,1.021-.687Z" transform="translate(-214.437 -100.89)"/><path class="b" d="M166.615,138.22a2.011,2.011,0,0,1,1.9,1.028,1.819,1.819,0,0,1-.183,2.021c-.307.414-.643.806-.943,1.225a2.187,2.187,0,0,0-.058,2.694c.314.469.671.909,1,1.37a23.237,23.237,0,0,1,1.631,2.382,5.583,5.583,0,0,1-.52,6.039,11.219,11.219,0,0,1-1.2,1.525,1.849,1.849,0,0,1-2.645.1,1.886,1.886,0,0,1-.082-2.654c.33-.395.639-.81.928-1.236a2.05,2.05,0,0,0-.017-2.474,13.729,13.729,0,0,0-.935-1.23,11.288,11.288,0,0,1-1.918-3.02,5.052,5.052,0,0,1,.114-4.445,16.461,16.461,0,0,1,1.856-2.7A3.059,3.059,0,0,1,166.615,138.22Z" transform="translate(-113.119 -134.496)"/></g></svg>