<svg xmlns="http://www.w3.org/2000/svg" xmlns:xlink="http://www.w3.org/1999/xlink" width="343" height="415" viewBox="0 0 343 415"><defs><style>.a{fill:#e2ad42;}.a,.aa,.ab,.ac,.ad,.ae,.af,.ag,.ah,.as,.b,.bb,.bc,.bd,.be,.bf,.bg,.bh,.bj,.bk,.bl,.bm,.c,.e,.f,.g,.h,.j,.l,.n,.q,.r,.s,.u,.v,.x,.z{fill-rule:evenodd;}.b,.c{fill:#a46f3a;}.ax,.b,.bc,.h,.q{opacity:0.5;}.d{fill:url(#a);}.e{fill:url(#b);}.bl,.f,.g{opacity:0.2;}.f{fill:url(#c);}.g{fill:url(#d);}.h{fill:url(#e);}.i{fill:url(#f);}.j{fill:url(#g);}.k{fill:#ff926d;}.l{fill:#c2444b;opacity:0.45;}.m{fill:url(#h);}.bb,.n,.r,.s,.z{opacity:0.6;}.n{fill:url(#i);}.o{fill:#ff8974;}.p{fill:url(#j);}.q{fill:#34343a;}.r{fill:url(#k);}.s{fill:url(#l);}.t{fill:url(#m);}.u{fill:url(#n);}.v{fill:#d5a54e;}.w{fill:url(#o);}.x{fill:#414043;}.y{fill:url(#p);}.z{fill:url(#q);}.aa{fill:#c52c2c;opacity:0.4;}.ab{fill:#e46551;}.ac{fill:url(#r);}.ad{fill:url(#s);}.ae{fill:url(#t);}.af,.bk{fill:#cdcdcd;}.ag{fill:#838288;}.ah,.bi{fill:#efefef;}.ai{fill:url(#u);}.aj{fill:url(#v);}.ak{fill:#77485e;}.al{fill:#c44a4c;}.am{fill:url(#w);}.an{fill:url(#x);}.ao{fill:url(#y);}.ap{fill:#522f2e;}.aq{fill:url(#z);}.ar{fill:#fff;}.as{fill:#dd6668;}.at{fill:#f58e6f;}.au{fill:url(#aa);}.av{fill:#731f35;opacity:0.91;}.aw{fill:#ffebed;}.ax{fill:#ffa000;}.ay{fill:#e1e1e1;}.az{fill:#f1f1f1;}.ba{fill:#d3d3d3;}.bb{fill:#7f2b3d;}.bc{fill:#444448;}.bd{fill:#d29a3f;}.be{fill:#d6a64f;}.bf{opacity:0.3;fill:url(#ab);}.bg{fill:url(#ac);}.bh{fill:#ff3434;}.bj{opacity:0.27;fill:url(#ad);}.bk{opacity:0.24;}.bl{fill:#5c317e;}.bm{fill:url(#ae);}.bn{fill:url(#af);}.bo{fill:url(#ag);}.bp{fill:url(#ah);}.bq{fill:url(#ai);}.br{fill:url(#aj);}</style><linearGradient id="a" x1="0.403" y1="0.634" x2="0.808" y2="-0.092" gradientUnits="objectBoundingBox"><stop offset="0" stop-color="#ffa878"/><stop offset="1" stop-color="#e36655"/></linearGradient><linearGradient id="b" x1="-3.526" y1="1" x2="-3.526" y2="-0.001" gradientUnits="objectBoundingBox"><stop offset="0" stop-color="#e2ad42"/><stop offset="1" stop-color="#fae380"/></linearGradient><linearGradient id="c" x1="-75.061" y1="1" x2="-75.061" gradientUnits="objectBoundingBox"><stop offset="0.01" stop-color="#be6888"/><stop offset="1" stop-color="#8e81f4"/></linearGradient><linearGradient id="d" x1="-102.868" y1="1" x2="-102.868" y2="0" xlink:href="#c"/><linearGradient id="e" x1="-4.793" y1="1" x2="-4.793" y2="0.002" gradientUnits="objectBoundingBox"><stop offset="0" stop-color="#be6888"/><stop offset="0.01" stop-color="#a46f3a"/><stop offset="1" stop-color="#d1a34f"/></linearGradient><linearGradient id="f" x1="-17.02" y1="1" x2="-17.02" y2="-0.001" gradientUnits="objectBoundingBox"><stop offset="0.01" stop-color="#512438"/><stop offset="0.99" stop-color="#5e1a31"/></linearGradient><linearGradient id="g" x1="-3.512" y1="1" x2="-3.512" gradientUnits="objectBoundingBox"><stop offset="0" stop-color="#57575a"/><stop offset="1" stop-color="#44423c"/></linearGradient><linearGradient id="h" x1="1" y1="1.14" x2="0.196" y2="0.071" gradientUnits="objectBoundingBox"><stop offset="0.02" stop-color="#ffae78"/><stop offset="1" stop-color="#ff957c"/></linearGradient><linearGradient id="i" x1="0.093" x2="0.931" y2="1.062" gradientUnits="objectBoundingBox"><stop offset="0" stop-color="#d16078"/><stop offset="1" stop-color="#fda26e"/></linearGradient><linearGradient id="j" x1="-3.659" y1="1" x2="-3.659" gradientUnits="objectBoundingBox"><stop offset="0.01" stop-color="#512438"/><stop offset="0.99" stop-color="#832e31"/></linearGradient><linearGradient id="k" x1="-11.822" y1="1" x2="-11.822" gradientUnits="objectBoundingBox"><stop offset="0" stop-color="#77282e"/><stop offset="1" stop-color="#6b1d30"/></linearGradient><linearGradient id="l" x1="-29.837" y1="1.004" x2="-29.837" gradientUnits="objectBoundingBox"><stop offset="0" stop-color="#85494f"/><stop offset="1" stop-color="#75242f"/></linearGradient><linearGradient id="m" x1="-6.54" y1="1.004" x2="-6.54" gradientUnits="objectBoundingBox"><stop offset="0.01" stop-color="#6f2e45"/><stop offset="0.99" stop-color="#a6453d"/></linearGradient><linearGradient id="n" x1="-4.541" y1="1" x2="-4.541" y2="0" xlink:href="#b"/><linearGradient id="o" x1="-10.933" y1="1.001" x2="-10.933" y2="0.004" gradientUnits="objectBoundingBox"><stop offset="0" stop-color="#994c46"/><stop offset="1" stop-color="#6f2e45"/></linearGradient><linearGradient id="p" x1="0.857" y1="0.208" x2="0.228" y2="0.946" gradientUnits="objectBoundingBox"><stop offset="0" stop-color="#ffae78"/><stop offset="1" stop-color="#ff957c"/></linearGradient><linearGradient id="q" x1="0.981" y1="0.5" x2="0.062" y2="0.978" gradientUnits="objectBoundingBox"><stop offset="0" stop-color="#f2866e"/><stop offset="1" stop-color="#f37b63"/></linearGradient><linearGradient id="r" x1="-2.447" y1="1" x2="-2.447" y2="0" xlink:href="#b"/><linearGradient id="s" x1="-3.182" y1="1" x2="-3.182" y2="0.001" xlink:href="#b"/><linearGradient id="t" x1="-3.006" y1="1" x2="-3.006" y2="0" xlink:href="#b"/><linearGradient id="u" x1="-20.42" y1="1" x2="-20.42" y2="-0.002" gradientUnits="objectBoundingBox"><stop offset="0" stop-color="#d0c7f8"/><stop offset="1" stop-color="#fff"/></linearGradient><linearGradient id="v" x1="-42.392" y1="1" x2="-42.392" y2="0" xlink:href="#u"/><linearGradient id="w" x1="-20.004" y1="1.002" x2="-20.004" y2="-0.002" gradientUnits="objectBoundingBox"><stop offset="0.01" stop-color="#4f223a"/><stop offset="0.99" stop-color="#7d363d"/></linearGradient><linearGradient id="x" x1="-53.958" y1="1" x2="-53.958" y2="0" xlink:href="#w"/><linearGradient id="y" x1="-11.549" y1="80.079" x2="-11.549" y2="79.076" gradientUnits="objectBoundingBox"><stop offset="0.01" stop-color="#c2862e"/><stop offset="0.98" stop-color="#74422f"/></linearGradient><linearGradient id="z" x1="-208.735" y1="82.491" x2="-208.735" y2="81.465" xlink:href="#y"/><linearGradient id="aa" x1="-13.81" y1="1" x2="-13.81" gradientUnits="objectBoundingBox"><stop offset="0" stop-color="#bd5042"/><stop offset="0.99" stop-color="#812545"/></linearGradient><linearGradient id="ab" x1="0.5" x2="0.5" y2="1" gradientUnits="objectBoundingBox"><stop offset="0" stop-color="#ff3434" stop-opacity="0"/><stop offset="1" stop-color="#ff3434"/></linearGradient><linearGradient id="ac" x1="-338.252" y1="0.5" x2="-337.252" y2="0.5" gradientUnits="objectBoundingBox"><stop offset="0" stop-color="#16dbfe"/><stop offset="1" stop-color="#e781ff"/></linearGradient><linearGradient id="ad" x1="0.64" y1="1.016" x2="0.077" y2="0.054" gradientUnits="objectBoundingBox"><stop offset="0" stop-color="#be89ee"/><stop offset="1" stop-color="#fffffb"/></linearGradient><linearGradient id="ae" x1="-605.243" y1="1.125" x2="-605.057" y2="-0.125" gradientUnits="objectBoundingBox"><stop offset="0"/><stop offset="1" stop-color="lime"/></linearGradient><linearGradient id="af" x1="-42.978" y1="55.089" x2="-42.978" y2="54.184" gradientUnits="objectBoundingBox"><stop offset="0" stop-color="#ffb195"/><stop offset="0.98" stop-color="#ffae78"/></linearGradient><linearGradient id="ag" x1="-50.112" y1="1" x2="-50.112" y2="0" xlink:href="#af"/><linearGradient id="ah" x1="-62.466" y1="1.01" x2="-62.466" y2="0.005" xlink:href="#af"/><linearGradient id="ai" x1="-91.011" y1="1.005" x2="-91.011" y2="0.003" xlink:href="#af"/><linearGradient id="aj" x1="-29.479" y1="1" x2="-29.479" y2="0" xlink:href="#af"/></defs><path class="a" d="M415.69,413.065A531.214,531.214,0,0,0,394,361.909a2.694,2.694,0,0,0-.228-.424C367.681,309.307,303.959,218,295.937,212.19l-.457-.294-1.272-.848h0a25.162,25.162,0,0,0-3.261-1.6,54.886,54.886,0,0,0-16.958-3.261l-10.468,1.859h-.652l-5.674,1.011-8.348,1.468-1.631.293-1.435.261-6.164,1.076,2.511,19.893,6.2,48.689s.163,4.533.391,12.294c.632,22.962,1.553,74.189-.743,120.02Z" transform="translate(-142.863 1.935)"/><path class="b" d="M383.039,398.861c-10.078.213-76.376,0-172.8,0V257.273l62.287-44.843S357.972,331.208,383.039,398.861Z" transform="translate(-114.988 16.044)"/><path class="c" d="M285.9,219.543s4.892-35.122-17.415-50.613c0,0-5.87,13.338-2.055,25.306S285.9,219.543,285.9,219.543Z" transform="translate(9.188 -82.315)"/><path class="d" d="M259.49,249.653s20.773-34.959,24.1-47.091c0,0-5.446-10.338-3.261-18.817.522-2.055,11.349-12,12.621-15.066s8.544-16.6,8.544-16.6a10.339,10.339,0,0,0,2.315,3.261c1.533,1.435.228,6.751-.554,11.251s-8.968,9.457-9.49,10.631S295.3,181.3,295.3,181.3a106.263,106.263,0,0,0,13.534-9.033c8.805-7.37,14.349-8.022,14.349-8.022a9.783,9.783,0,0,1,2.413,10.044c-5.639,1.057-3.6-1.712-7.07,2.856l1.044.457a38.9,38.9,0,0,1,11.863-4.552,20.54,20.54,0,0,1,4.142,3.065c2.185,2.055,2.022,8.022,2.022,8.022l-1.794,2.8,2.12,1.989a14.088,14.088,0,0,1,1.859,8.707A25.143,25.143,0,0,1,330,203.084l6.131-1.141s4.044.881,3.261,7.925c0,0-13.436,1.924-18.947,3.457s-11.871,6.522-14.936,8.055-13.045-.294-13.045-.294-8.577,31.959-13.7,43.993C278.731,265.045,263.73,258,259.49,249.653Z" transform="translate(-3.598 -120.414)"/><path class="e" d="M224.56,290.316l16.306,17.251,23.056,24.491s35.611-43.829,48.917-48.917c11.577-4.37,18.067-7.37,19.567-8.055h.261c11.544-11.968,23.187-33.981,29.676-47.351h0l.294-.62c2.478-5.12,4.142-8.838,4.7-10.11v-.391h0a37.442,37.442,0,0,0,10.24,2.968,132.534,132.534,0,0,1-14.707-31.437c-4.109-15.132-2.707-19.175-2.707-19.175h-2.674v3.979l-3.587,5.9c-9.49,15.425-35.09,56.678-46.373,68.81-13.99,15.066-52.015,38.775-52.015,38.775l-8.316-5.511s-10.37,10.37-13.044,10.892a36.068,36.068,0,0,1-9.588-1.5Z" transform="translate(-82.579 -82.224)"/><path class="f" d="M271.953,170.15s-5.087,32.611-9.523,45.493c0,0,5.772-28.959,5.935-39.59Z" transform="translate(3.036 -79.556)"/><path class="g" d="M273.344,188.763a10.566,10.566,0,0,1-7.174-7.533s2.055,14.805,1.989,18.751Z" transform="translate(11.507 -54.503)"/><path class="h" d="M224.56,216.74l16.306,17.251,23.056,24.491s35.611-43.83,48.917-48.917c11.577-4.37,18.067-7.37,19.567-8.055a490.266,490.266,0,0,1-50.971,17.251l-25.828-5.87,18.98,14.186s-32.611-5.381-40.242-8.805A36.069,36.069,0,0,1,224.56,216.74Z" transform="translate(-82.606 -8.647)"/><path class="i" d="M218.41,170.054a29.35,29.35,0,0,1,25.6,7.957,26.971,26.971,0,0,0-10.5,0,31.242,31.242,0,0,1,4.957,25.5s-8.805-13.044-15.719-14.74Z" transform="translate(-96.526 -80.764)"/><path class="j" d="M210,214.729l2.381,15.735,9.1,60.921a48.839,48.839,0,0,1,4.272,8.47c2.413,5.538,5.283,13.031,8.251,21.306,9.131,25.02,19.208,56.458,19.371,57.533.261,1.6-5.642,8.08-5.8,9.285a14.13,14.13,0,0,0,2.544,7.461c1.4,1.3,0,11.109,0,11.109l1.794,1.824V411.4h78.1c-.847-1.329-1.909-2.853-3.034-4.331,0,0,5.87-5.9,5.087-7.916s-11.251-15.638-11.251-15.638-.359-9.611-1.174-23.326v-.456c-.75-13.031-1.826-29.516-3.261-45.186a342.59,342.59,0,0,0-5.479-39.876c-.522-2.215-1.044-4.2-1.6-5.8-4.044-11.793-17.48-27.692-29.611-40.43-2.739-2.9-5.479-5.669-7.99-8.145-7.99-7.949-14.055-13.39-14.055-13.39H247.438l-8.9.228-8.577.228H212.935Z" transform="translate(-115.54 3.563)"/><path class="k" d="M210,198.67a312.724,312.724,0,0,1,17.773,35.872s17.414,15.36,29.709,17.088a32.613,32.613,0,0,0-1.533-13.044,148.513,148.513,0,0,1-11.61-25.632Z" transform="translate(-115.547 -15.069)"/><path class="l" d="M246.138,218.306a49.374,49.374,0,0,1-28.633-5.772L210.2,199l34.568,15.621Z" transform="translate(-115.095 -14.323)"/><path class="m" d="M202.193,208.713a29.972,29.972,0,0,0,1.207,8.936,88.214,88.214,0,0,0,14.806,27.622,68.221,68.221,0,0,0,19.371,18.1h0c17.48,9.62,40.079,11.186,45.232,7.729,1.4-.946,2.185-5.413,2.837-8.479s6.522-13.6,5.674-23.839-6.131-16.6-9.033-21.523h0c-2.739-4.761-5.185-26.089-14.577-35.448h0a20.641,20.641,0,0,0-1.826-1.6c-5.642-4.239-16.306-5.8-25.143-6.261a139.669,139.669,0,0,0-16.012,0A27.621,27.621,0,0,0,210.476,185.3,44.678,44.678,0,0,0,206.2,192.6h0a41.88,41.88,0,0,0-2.87,8.251A33.952,33.952,0,0,0,202.193,208.713Z" transform="translate(-133.212 -71.485)"/><path class="n" d="M201.9,210.22l.946,2.381c2.478,6.229,9.555,23.48,16.012,36.557a68.223,68.223,0,0,0,19.371,18.1,50.971,50.971,0,0,1-8.381-19.893,12.554,12.554,0,0,1,1.044-6.685,57.071,57.071,0,0,0,27.654-11.186A76.735,76.735,0,0,0,247.458,196.1c15.686-2.511,21.491,4.468,21.491,4.468-2.87,20.969,5.283,22.632,5.283,22.632a41.61,41.61,0,0,0,13.273,5.283l-4.533-7.4c-.326-1.109-5.642-18.686-7.011-24.2a27.785,27.785,0,0,0-7.566-11.251h0L256.524,172l-15.164,5.642L211.1,189.088l-1.989.75-2.283,6.522h0l-2.87,8.251Z" transform="translate(-133.866 -75.373)"/><path class="o" d="M221.986,197.817a21.2,21.2,0,0,0-15.523-4.6c-8.218,1.533-4.794,17.806,5.968,23.513s15.556-.62,15.719-3.522S221.986,197.817,221.986,197.817Z" transform="translate(-133.866 -27.652)"/><path class="p" d="M226.111,259.69a39.754,39.754,0,0,0-9.359-12.294c-6.979-6.522-13.044-20.578-11.773-28.4a17.089,17.089,0,0,0-9.229,6.522s.62-4.7,8.8-9.783a41.386,41.386,0,0,0,10.37-7.794s-8.316-12.294-14.349-14.479c0,0,8.479,1.924,11.675,5.25a15.2,15.2,0,0,1,3.555,8.446s3.881-3.457,6.946-13.7,12.034-22.176,16.306-24.85c0,0-4.076,8.348-2.968,14.251a30.916,30.916,0,0,1,12.327-15.164c9.783-5.283,25.078-3.75,25.078-3.75l-9.457,15.295a10.012,10.012,0,0,0-9.229,3.065,34.271,34.271,0,0,0-6.164,8.577l13.6-10.24s15.49.261,18.556,6.522,3.979,20.056-6.522,26.839c0,0-13.566-11.186-19.338-12.621s-12.849,3.457-12.849,3.457a37.828,37.828,0,0,1,21.426,6.685,115.608,115.608,0,0,0-34.568-2.968s-4.5,7.827-3.587,13.86a41.452,41.452,0,0,0,4.859,12.653,47.321,47.321,0,0,0-1.272,14.74c.881,6.522,7.762,15.979,7.762,15.979S230.611,259.918,226.111,259.69Z" transform="translate(-147.79 -94.057)"/><path class="q" d="M223.031,266.352c9.131,25.045,19.208,56.515,19.371,57.591.261,1.6-5.642,8.088-5.8,9.294a14.154,14.154,0,0,0,2.544,7.468c1.4,1.3,0,11.12,0,11.12l1.794,1.826s21.132,1.076,47.808,1.6,27.3-2.9,27.3-2.9,5.87-5.9,5.087-7.925a179.35,179.35,0,0,1-30.394,3.261c-10.925-.522-33.068-8.9-33.068-8.9,15.1,1.011,44.351,2.576,46.047.848a72.521,72.521,0,0,0,6.131-10.729c-.489.457-8.577,8.055-11.251,8.316s-30.752.88-38.938-5.772-20.089-42.786-20.089-50.874c0-10.729,11.805-49.341,11.805-49.341l-12.229,5.414-24.361,8.479C217.193,250.5,220.063,258.036,223.031,266.352Z" transform="translate(-104.729 58.553)"/><path class="r" d="M241.988,163.811s-16.306-.261-23.219,5.12a30.59,30.59,0,0,0-9.1,15.816l24.165-7.761Z" transform="translate(-116.294 -93.893)"/><path class="s" d="M217,165.24a52.6,52.6,0,0,0-9.783,17.154,39.135,39.135,0,0,0-1.728,13.044l7.957-8.414S210.478,179.2,217,165.24Z" transform="translate(-125.814 -90.658)"/><path class="t" d="M204.71,193.706s14.316-19.338,27.622-24.687c8.9-3.587,24.23.326,24.23.326s7.174,18.98.587,32.611L255,195.989a19.924,19.924,0,0,1-1.337,7.762s-12.131-14.023-19.828-15.2S204.71,193.706,204.71,193.706Z" transform="translate(-127.512 -85.535)"/><path class="u" d="M269.274,411.47a641.142,641.142,0,0,0-4.073-90.157c-2.772-26.089-6.522-49.765-9.783-68.484v-.652c-4.859-25.339-8.805-41.645-8.805-41.645s1.207-.424,3.066-.881c.456,0,.946-.228,1.5-.294s.978-.2,1.5-.293V208.9l.815-1.272.457-.75h-4.011A40.377,40.377,0,0,0,244,207.7h0a10.044,10.044,0,0,0-5.674,2.674c-1.891,2.576-1.663,7.6-3.718,9.783s-9.588.359-13.045,1.7-1.891,8.544-1.891,8.544a532.227,532.227,0,0,1,16.306,52.341c.424,1.663.815,3.261,1.174,4.957h0c1.6,6.946,2.968,13.827,3.848,20.317,2.165,16.129,2.177,55.832-1.975,103.5C251.186,411.505,257.461,411.47,269.274,411.47Z" transform="translate(-146.881 3.495)"/><path class="v" d="M244.479,363.188a287.885,287.885,0,0,0-4.859-54.656c-5.283-25.111-19.11-57.3-19.11-57.3s.489-16.99,8.088-24.85l-20.969-12.131,5.055-3.033-7.4,3.946s16.795,9.164,18.915,15.164a108.3,108.3,0,0,0-4.5,22.437C219.4,261.474,241.315,300.607,244.479,363.188Z" transform="translate(-126.223 13.308)"/><path class="w" d="M222.465,175s1.174,10.142-3.261,16.306-17.61,2.968-23.154,6.327A15.458,15.458,0,0,1,206.616,186.9,41.514,41.514,0,0,0,222.465,175Z" transform="translate(-147.111 -68.59)"/><path class="x" d="M231.33,213.51v4.631s32.416,61.472,33.426,73.017,6.2,51.591,6.522,54.1h0v-.424L268.018,299.6a343.29,343.29,0,0,0-5.479-39.916c-.522-2.217-1.044-4.207-1.6-5.8C256.865,242.208,243.461,226.294,231.33,213.51Z" transform="translate(-67.302 18.486)"/><path class="c" d="M215.783,231.72s4.011,30.981-7.6,47.547a111.17,111.17,0,0,1-2.381-29.024C206.75,235.894,215.783,231.72,215.783,231.72Z" transform="translate(-125.347 59.661)"/><path class="y" d="M201.58,278.781a157.648,157.648,0,0,0,17.48-3.685c10.86-2.87,19.991-6.066,19.991-6.066s13.631,4.011,16.6,2.022a85.223,85.223,0,0,0,9.783-10.859,19.567,19.567,0,0,0,4.076,2.8,28.958,28.958,0,0,0,12.718-13.044h0c-.359-2.8-4.6-6.751-5.348-7.5s-2.837-4.076-3.489-4.924a49.077,49.077,0,0,0-3.946-6.914,42.383,42.383,0,0,0-4.044-3.261,18.268,18.268,0,0,0-2.576-5.283,33.914,33.914,0,0,0-16.306,3.261,181.32,181.32,0,0,1-10.7,27.556,22.828,22.828,0,0,1-10.827,2.511,37.188,37.188,0,0,1-6.522-.359C213.353,258.04,201.58,278.781,201.58,278.781Z" transform="translate(-134.59 37.744)"/><path class="z" d="M206.13,261.624l2.642,11.023c10.86-2.87,19.991-6.066,19.991-6.066s13.631,4.011,16.6,2.022a85.2,85.2,0,0,0,9.783-10.86,19.564,19.564,0,0,0,4.076,2.8A28.959,28.959,0,0,0,271.939,247.5c-6.914,3.718-19.306,3.848-19.306,3.848l-.522-4.4-7.6-11.675a67.253,67.253,0,0,0-3.979-5.935c-.717-.62-4.24-6.229-4.24-6.229a181.332,181.332,0,0,1-10.7,27.557s8.479,6.522,5.577,9.783-12.36,2.707-12.36,2.707c-3.261-2.348-4.044-10.11-4.044-10.11Z" transform="translate(-124.299 40.193)"/><path class="aa" d="M221.18,237.235l7.794-5.055s-5.74,4.761-6,6.522a3.032,3.032,0,0,1-1.794-1.467Z" transform="translate(-90.263 60.701)"/><path class="ab" d="M40.293,82.31l-.783,2.381,2.055.685Z" transform="translate(89.352 179.754)"/><path class="ac" d="M181.2,299.06c1.174,3.065,32.285,11.088,70.375,8.87a56.287,56.287,0,0,0,12.295,11.088s1.728-34.307,7.6-47.547l-1.989-2.315s0,.848-7.272,1.859a38.184,38.184,0,0,1-11.153,0h0a4.735,4.735,0,0,1-.881-.163,37.959,37.959,0,0,1,21.458-4.272s3.261-20.545,0-31.6a31.861,31.861,0,0,0-17.512-20.839s-9.783,8.87-12.621,12.294S232.069,243,226.46,247.795c-3.457,2.935-13.044,8.12-21.2,13.044h0a72.432,72.432,0,0,0-12.588,9C186.152,276.493,179.989,295.962,181.2,299.06Z" transform="translate(-181.043 19.911)"/><path class="ad" d="M185.44,275.168c10.6-8.675,31.633-13.044,31.633-13.044l2.707,5.609a156.78,156.78,0,0,0,21.165,3.261,4.741,4.741,0,0,1-.881-.163,37.96,37.96,0,0,1,21.458-4.272s3.261-20.545,0-31.6A31.861,31.861,0,0,0,244.01,214.12s-9.783,8.87-12.621,12.295-9.425,16.566-15.034,21.36c-3.457,2.935-13.044,8.12-21.2,13.044h0A65.224,65.224,0,0,0,185.44,275.168Z" transform="translate(-171.102 19.866)"/><path class="ae" d="M226.337,208.684h5.707s65.222,70.832,109.835,163.252c7.232,15.2,11.48,25.392,17.544,41.208h2.933c-13.941-38.279-31.108-76.243-57.295-115.333,0,0-11.251-29.187-14.838-35.09s-30.752-30.491-30.752-30.491h7.174s-17.936-19.306-34.5-26.089H221.25l.978,2.413Z" transform="translate(-90.087 1.822)"/><path class="af" d="M213.058,210.573a5.534,5.534,0,0,0,0,.717c0,.489,0,.978,0,1.5a.358.358,0,0,0,0,.163,38.276,38.276,0,0,0,.881,6.066,195.438,195.438,0,0,0,20.48,16.306h0c2.87,2.022,5.968,4.044,9.229,6.033a132.567,132.567,0,0,0,20.023,10.175,48.913,48.913,0,0,0-1.761-13.958A47.258,47.258,0,0,0,259.986,232a35.867,35.867,0,0,0-4.076-7.142l-1.794-4.533-.946-2.446-1.435-3.685-7.207-3.652h0l-4.7-2.413.978,2.413a96.725,96.725,0,0,0,7.5,16.632l.848,1.239,1.533,7.109a74.452,74.452,0,0,1-16.86-20.121v-.294a41.022,41.022,0,0,1-2.12-4.337v-.326l-2.739-.457-12.555-1.957-.293-.587-1.011-2.022h-2.055a39.678,39.678,0,0,0,0,5.152Z" transform="translate(-108.819 0.194)"/><path class="ag" d="M238.544,232.671l-8.87-6.294-4.435-17.023-1.109-1.3S233.685,214.409,238.544,232.671Z" transform="translate(-83.59 6.141)"/><path class="ah" d="M212.43,218.241c5.413,8.707,24.361,21.393,24.361,21.393q-.587-2.25-1.076-4.4h0a117.816,117.816,0,0,1-3-23.643l2.413,3.816v-.293l-2.25-4.4v-.326a15.683,15.683,0,0,0-2.087-.554c-4.011-.978-10.5-1.989-13.5-2.446l-1.6-.228-1.109-1.794h0a27,27,0,0,0-1.174,5.153v.685a4.518,4.518,0,0,1-.228,1.728v.2A36.485,36.485,0,0,0,212.43,218.241Z" transform="translate(-110.052 0.058)"/><path class="ah" d="M245.215,236.9s-2.478-16.306-13.045-25.893l-10.99-4.826,9.49,6.1S241.855,224.605,245.215,236.9Z" transform="translate(-90.261 1.912)"/><path class="ag" d="M229.5,211.5l1.076,15.066a60.2,60.2,0,0,1-9.359-20.382Z" transform="translate(-90.172 1.912)"/><path class="ai" d="M231.3,194.628c0,2.218-1.761,2.772-5.511,2.576a67.47,67.47,0,0,0-13.436.978c-1.109-1.272,1.826-12.784,8.218-13.794C227.644,183.345,231.3,190.878,231.3,194.628Z" transform="translate(-110.755 -47.584)"/><path class="aj" d="M233.737,196.217c-.293.62-2.772.815-5.218.815-1.468,0-2.576,1.37-3.783.424-3.261-2.446-1.631-14.414,1.533-14.969S234.1,190.738,233.737,196.217Z" transform="translate(-86.252 -51.716)"/><path class="ak" d="M228.5,189.1s-2.544-4.37-4.826-5.218-9.783,1.337-11.447,12.066c0,0,3.587-9.783,9.359-10.37A8.055,8.055,0,0,1,228.5,189.1Z" transform="translate(-110.505 -48.874)"/><path class="al" d="M226.8,181.81a20.479,20.479,0,0,0-3.522,13.044,10.044,10.044,0,0,0,7.044,9.946s-5.544-.522-7.435-8.446a40.34,40.34,0,0,1,0-16.045Z" transform="translate(-88.22 -56.583)"/><path class="am" d="M227.381,179a11.381,11.381,0,0,1,1.435,8.218,41.743,41.743,0,0,0-14.9,5.772,30.58,30.58,0,0,0-3.75,3.261,10.892,10.892,0,0,1,2.381-7.664C213.912,186.794,224.315,179.294,227.381,179Z" transform="translate(-115.254 -59.545)"/><path class="an" d="M230.556,185.535a5.609,5.609,0,0,0-4.142.391,13.046,13.046,0,0,0-3.913,4.044,18.816,18.816,0,0,1,.391-7.892s1.663-3.685,4.663-3.587C227.556,178.491,231.208,182.372,230.556,185.535Z" transform="translate(-87.833 -60.7)"/><path class="ao" d="M214.513,192.495a5.74,5.74,0,1,0,.794-6.2,5.74,5.74,0,0,0-.794,6.2Z" transform="translate(-106.624 -47.636)"/><path class="ap" d="M214.973,190.486a4.011,4.011,0,1,0,2.511-5.576,4.337,4.337,0,0,0-2.511,5.577Z" transform="translate(-104.931 -46.54)"/><path class="aq" d="M223.81,190.161c1.011,3.489,3.555,5.837,5.609,5.25s2.935-3.946,1.924-7.468-3.555-5.837-5.642-5.25S222.8,186.639,223.81,190.161Z" transform="translate(-85.293 -51.4)"/><path class="ap" d="M224.247,188.354c.717,2.478,2.478,4.109,3.946,3.685s2.055-2.739,1.3-5.218-2.478-4.109-3.913-3.685S223.4,185.908,224.247,188.354Z" transform="translate(-84.132 -50.344)"/><path class="ar" d="M213.92,187.944a1.044,1.044,0,1,0,1.044-1.044,1.044,1.044,0,0,0-1.044,1.044Z" transform="translate(-106.684 -41.682)"/><path class="ar" d="M223.58,186.314a1.044,1.044,0,1,0,1.044-1.044,1.044,1.044,0,0,0-1.044,1.044Z" transform="translate(-84.835 -45.368)"/><path class="ak" d="M231.361,186.776s-2.087-4.076-3.848-4.729-6.033,6.783-4.174,13.6c0,0-1.109-9.783,4.142-11.186C227.48,184.461,229.4,183.417,231.361,186.776Z" transform="translate(-86.419 -52.744)"/><path class="as" d="M230.708,189.1a27.166,27.166,0,0,0-18.327,1.174S223.663,189.1,230.708,189.1Z" transform="translate(-110.166 -39.119)"/><path class="as" d="M232.314,187.9a5.152,5.152,0,0,0-4.761-1.3c-3.457.424-3.652,2.609-3.652,2.609v.554a23.35,23.35,0,0,1,8.414-1.859Z" transform="translate(-84.111 -42.683)"/><path class="as" d="M242.062,189.63s1.207,3.457-5.544,7.957a7.175,7.175,0,0,1-4.826,0,9.261,9.261,0,0,0-4.5-1.663,18.944,18.944,0,0,0-3.75.359,6.523,6.523,0,0,1-3.261-2.478A69.136,69.136,0,0,0,242.062,189.63Z" transform="translate(-92.523 -35.509)"/><path class="al" d="M227.548,192.583a7.4,7.4,0,0,0-6.1-.717A24.787,24.787,0,0,0,227.548,192.583Z" transform="translate(-89.652 -31.255)"/><path class="as" d="M248.755,193.942s2.315,1.467,2.576,2.185a4.044,4.044,0,0,0-2.055,1.4v-.522a66.006,66.006,0,0,1-15.229,2.446,27.556,27.556,0,0,1-13.892-2.674l-1.3-.848a2.675,2.675,0,0,0-1.631,1.076,9.522,9.522,0,0,1,2.674-4.337l1.011,1.109-.685,1.011s3.62,6.751,19.828,5.772C250.94,199.714,248.755,193.942,248.755,193.942Z" transform="translate(-99.217 -28.636)"/><path class="at" d="M241.994,193.978a13.045,13.045,0,0,0-12.2-6.229c-8.218.783-9.588,10.4-9.588,10.4S234.559,199.1,241.994,193.978Z" transform="translate(-92.456 -39.857)"/><path class="au" d="M217.72,193.38c.717.913,3.881,4.826,5.9,7.631h0l1.3,1.859c1.794,2.772,7.305,8.414,11.414,8.805s8.022-.457,8.642-1.989a24.992,24.992,0,0,0,.75-4.99c.2-2.087.359-4.207.522-5.153a11.316,11.316,0,0,1,2.9-4.826l-.359-.391s-1.859.489-3.261.946a36.584,36.584,0,0,1-6.685,1.7,64.535,64.535,0,0,1-17.316-1.7,10.012,10.012,0,0,1-3.815-1.891Z" transform="translate(-98.087 -27.03)"/><path class="av" d="M217.72,193.38c.717.913,3.881,4.826,5.9,7.631h0s2.576-2.055,12.392,0A20.48,20.48,0,0,1,245.8,204.7c.2-2.087.359-4.207.522-5.153a11.317,11.317,0,0,1,2.9-4.826l-.359-.391s-1.859.489-3.261.946a36.6,36.6,0,0,1-6.685,1.7,64.534,64.534,0,0,1-17.317-1.7,10.011,10.011,0,0,1-3.881-1.891Z" transform="translate(-98.087 -27.03)"/><path class="aw" d="M238.255,194.06a11.218,11.218,0,0,1-2.478,4.011,23.512,23.512,0,0,1-15.2-3.261,73.372,73.372,0,0,0,11.61.62,21.1,21.1,0,0,0,6.066-1.37Z" transform="translate(-91.619 -25.493)"/><path class="aw" d="M233.817,199.483a5.12,5.12,0,0,0-2.935-1.044,69.34,69.34,0,0,0-7.957,0c-.293,0-.685.522-.685.522a7.925,7.925,0,0,0,5.479,1.631,13.6,13.6,0,0,0,6.1-1.109Z" transform="translate(-87.865 -15.849)"/><path class="as" d="M220.013,200.8s-6.522-6.1-12.523-5.674S204,205.593,204,205.593a2.707,2.707,0,0,1,2.609-1.468,20.577,20.577,0,0,0,8.9,5.837s-7.142-4.011-7.99-7.435c0,0,4.924,6.522,9.783,5.348S220.013,200.8,220.013,200.8Z" transform="translate(-130.296 -23.133)"/><path class="ax" d="M270.718,180.03a68.483,68.483,0,0,1,8.61,27.328,98.825,98.825,0,0,1-13.045.913,19.99,19.99,0,0,1-10.175-6.522,4.207,4.207,0,0,0-5.185.913,84.393,84.393,0,0,1-4.4,8.9s-18.23,7.142-31.894,5.185A187.023,187.023,0,0,1,207.55,193.3S237.846,176.247,270.718,180.03Z" transform="translate(-121.087 -58.455)"/><path class="ay" d="M221.05,192.709s-6.066,11.218-7.272,12.49-3.587,2.478-4.5,3.62a16.306,16.306,0,0,0-1.7,4.533,12.391,12.391,0,0,0-4.892,1.011L218.833,184.1Z" transform="translate(-132.083 -48.013)"/><path class="az" d="M252.177,193.17a58.245,58.245,0,0,1-5.185,9.783c-1.891,2.152-21.882,7.142-32.383,5.739a72.135,72.135,0,0,1-7.6-22.208l1.794-2.8a117.926,117.926,0,0,0,7.794,23.513,75.883,75.883,0,0,0,29.611-4.761A36.721,36.721,0,0,0,252.177,193.17Z" transform="translate(-122.31 -48.963)"/><path class="ba" d="M221.56,186.4a3.424,3.424,0,0,1,2.9,1.37,55.439,55.439,0,0,0,8.609,5.12,20.545,20.545,0,0,1-7.729-6.522,5.936,5.936,0,0,0-3.783.033Z" transform="translate(-89.403 -43.559)"/><path class="az" d="M237.542,207.129l-1.728.2s-3.1-17.121-9.783-27.785l2.8.261S236.074,188.834,237.542,207.129Z" transform="translate(-79.293 -58.324)"/><path class="az" d="M271.374,179.853l-2.152.881s-27.752-2.413-61.961,15.2l1.044-2.8a117.4,117.4,0,0,1,63.07-13.273Z" transform="translate(-121.743 -58.278)"/><path class="az" d="M239.984,188.746l-.685-1.076a70.763,70.763,0,0,1-14.349,1.272s1.272,1.076,5.642.717S239.984,188.746,239.984,188.746Z" transform="translate(-81.735 -39.941)"/><path class="bb" d="M255.591,198.034s-1.435-15.2-3.979-20.415-16.5-11.577-27.752-6.783a46.406,46.406,0,0,0-18.36,16.077s11.447-14.251,19.339-15.425a23.382,23.382,0,0,1,19.567,7.011C248.351,182.576,255.591,198.034,255.591,198.034Z" transform="translate(-125.725 -81.84)"/><path class="bc" d="M46.17,99.76,68.933,144.7l14.349,12.621L61.758,144.7Z" transform="translate(104.419 219.21)"/><path class="bd" d="M222.231,237.589l-11.838-9.229a174.736,174.736,0,0,0-21.523,8.12,83.39,83.39,0,0,1,21.263-5.283l1.891,4.4Z" transform="translate(-163.346 52.064)"/><path class="c" d="M221.053,245.161l-2.511-3.261s-2.8,2.968-24,3.261A221.013,221.013,0,0,0,221.053,245.161Z" transform="translate(-150.526 82.68)"/><path class="be" d="M258.025,231.72a173.688,173.688,0,0,1-28.176,14.349c-14.316,5.446-45.069,5.968-45.069,5.968a368.126,368.126,0,0,0,40.927-10.175C243.969,235.894,258.025,231.72,258.025,231.72Z" transform="translate(-172.594 59.661)"/><path class="be" d="M233.212,223a213.441,213.441,0,0,1-35.872,7.174,87.656,87.656,0,0,0,20.708.717C222.875,230.272,233.212,223,233.212,223Z" transform="translate(-144.183 39.944)"/><path class="bf" d="M153.971,116.34l1.6-9.262L126.577,58.716V6.081l2.218-.652V2.07H108.413l.815,3.359,2.12.652V58.814l-28.7,48.265,2.837,8.87Z" transform="translate(186.939 -1.679)"/><path class="bg" d="M285.921,174.468l-2.511-3.848Z" transform="translate(50.489 -78.493)"/><path class="bh" d="M321.444,167.54a158.2,158.2,0,0,1-45.362,4.142L263.69,190.857l2.837,8.87,68.484.391,1.6-9.262-6.1-9.425Z" transform="translate(5.899 -85.458)"/><path class="bi" d="M335.134,257.488a.456.456,0,0,0,.457-.391l1.6-9.262a.392.392,0,0,0,0-.326l-28.926-48.232V147.1l1.924-.554a.456.456,0,0,0,.293-.359l.685-3.261a.424.424,0,0,0,0-.391.392.392,0,0,0-.326-.163h-21.1a.522.522,0,0,0-.359.163.555.555,0,0,0,0,.391l.783,3.261a.456.456,0,0,0,.326.326l1.794.587v52.178l-28.6,48.134a.424.424,0,0,0,0,.391l2.837,8.87a.424.424,0,0,0,.424.294l68.484.424Zm1.141-9.62-1.533,8.707-67.733-.391-2.674-8.348L292.9,199.864a.459.459,0,0,0,0-.228v-52.9a.457.457,0,0,0-.326-.424l-1.859-.587-.62-2.511h19.925l-.489,2.511-1.957.587a.456.456,0,0,0-.326.424v52.667a.326.326,0,0,0,0,.228l22.828,38.97h0Z" transform="translate(5.775 -142.37)"/><path class="bj" d="M123.025,107.078,98.371,59.727V5.429l3.163-.717.783-2.642H95.143V4.288L94.36,5.429V60.64l11.186,46.438Z" transform="translate(213.417 -1.679)"/><path class="bk" d="M106.679,3.3H91.45v6.914l15.229-4.566Z" transform="translate(206.837 1.103)"/><path class="bl" d="M263.69,174.69a139.512,139.512,0,0,0,72.919,0l-1.6,9.262-68.484-.391Z" transform="translate(5.899 -69.291)"/><path class="bm" d="M284.972,171.914l-1.4-1.044Z" transform="translate(50.85 -77.928)"/><path class="bn" d="M276.883,164.931a17.709,17.709,0,0,1,7.6-9.131s8.381.717,4.99,10.4c0,0-6.2,5.642-9.783,5.707a5.772,5.772,0,0,1-2.8-6.979Z" transform="translate(35.035 -112.003)"/><path class="bo" d="M288.294,158.5a8.087,8.087,0,0,1,6.066,4.99,11.773,11.773,0,0,1,0,7.468,39.4,39.4,0,0,1-13.338,7.5,4.957,4.957,0,0,1-2.413-5.12c.685-3.424,10.794-12.392,10.794-12.392A2.772,2.772,0,0,0,288.294,158.5Z" transform="translate(39.474 -105.898)"/><path class="bp" d="M293.134,172.716a29.349,29.349,0,0,1-9.783,3.913s-3.261-.261-3.261-6.522A51.036,51.036,0,0,1,290.3,163.03a10.24,10.24,0,0,1,2.837,9.686Z" transform="translate(42.982 -95.655)"/><path class="bq" d="M288.279,167a7.239,7.239,0,0,1,1.435,9.066s-6.979,1.4-8.055-2.087C280.224,169.315,288.279,167,288.279,167Z" transform="translate(46.141 -86.679)"/><path class="br" d="M265.86,183.7s6.522,4.7,14.969-2.315c0,0-1.37-3.489-.913-4.337a72.654,72.654,0,0,0,8.74-8.218c2.479-3.587,2.479-13.305,2.479-13.305s-1.989-3.261-4.109-3.489a118.562,118.562,0,0,1-7.109,11.544C277.568,166.183,266.317,180.337,265.86,183.7Z" transform="translate(10.806 -120.528)"/></svg>