<svg xmlns="http://www.w3.org/2000/svg" width="745" height="748.418" viewBox="0 0 745 748.418">
  <g id="Vector" transform="translate(0 12.039)">
    <g id="Background_Complete" data-name="Background Complete" transform="translate(542.37 129.103)">
      <path id="Path_13234" data-name="Path 13234" d="M468.329,127.99,450.22,113.33" transform="translate(-295.986 -113.33)" fill="#fff"/>
      <g id="Group_7740" data-name="Group 7740" transform="translate(0 184.821)">
        <path id="Path_13237" data-name="Path 13237" d="M399.937,344.893a59.008,59.008,0,0,0-25.206-8.68c-4.115-.416-8.63-.3-11.928,2.2a2.482,2.482,0,0,0-1.233,2.182,2.682,2.682,0,0,0,1.166,1.483c10.262,7.83,25.772,8.813,37.2,2.815" transform="translate(-355.023 -149.844)" fill="#e0e0e0"/>
        <path id="Path_13238" data-name="Path 13238" d="M394.937,356.71A122.193,122.193,0,0,1,378.661,342.4a41.367,41.367,0,0,1-10.212-18.875,7.68,7.68,0,0,1,.8-6.314c12.978,10.129,23.173,23.323,25.689,39.5" transform="translate(-350.672 -162.376)" fill="#e0e0e0"/>
        <path id="Path_13239" data-name="Path 13239" d="M384.855,356.88a58.687,58.687,0,0,1,.3-21.374,28.888,28.888,0,0,1,11.379-17.626c2.249,5.231,1.283,11.279-.3,16.76a80.737,80.737,0,0,1-11.3,23.757" transform="translate(-340.074 -161.929)" fill="#e0e0e0"/>
        <path id="Path_13240" data-name="Path 13240" d="M404.85,355c-7.713.933-14.444,5-20.208,10.229a38.2,38.2,0,0,0-11.562,19.758c7.58-.467,13.994-5.814,18.659-11.8s7.9-12.561,13.011-18.159" transform="translate(-347.358 -137.209)" fill="#e0e0e0"/>
        <path id="Path_13241" data-name="Path 13241" d="M395.2,376.007a49.829,49.829,0,0,1,5.764-47.147c4.4,15.643,2.782,33.319-5.764,47.147" transform="translate(-334.937 -154.618)" fill="#e0e0e0"/>
        <path id="Path_13242" data-name="Path 13242" d="M417.878,369.209a36,36,0,0,0-34.469,19.842,2.649,2.649,0,0,0-.233,2.7,2.515,2.515,0,0,0,2.282.666c6.8-.433,12.811-4.515,17.792-9.179s9.3-10,14.777-14.044" transform="translate(-340.81 -127.794)" fill="#e0e0e0"/>
        <path id="Path_13243" data-name="Path 13243" d="M404.735,387.611a64.176,64.176,0,0,1-.65-35.851c1.266-4.615,3.332-9.479,7.664-11.662a1.466,1.466,0,0,1,1.166-.2,1.483,1.483,0,0,1,.733.85,21.659,21.659,0,0,1,1.816,10.3,64.958,64.958,0,0,1-1.666,10.412c-1.349,6.364-2.066,13.211-5.547,18.692a37.7,37.7,0,0,0-2.233,4.115c-.65,1.383-.65,1.883-1.266,2.982" transform="translate(-328.201 -147.296)" fill="#e0e0e0"/>
        <path id="Path_13244" data-name="Path 13244" d="M430.78,388.292c-3.332-12.528.2-27.738,8.113-38.017.583-.75,1.349-1.566,2.3-1.483,1.449.133,1.833,2.083,1.766,3.532a68.622,68.622,0,0,1-12.178,35.968" transform="translate(-309.765 -141.347)" fill="#e0e0e0"/>
        <path id="Path_13245" data-name="Path 13245" d="M432.69,379.406c15.243,3.965,32.7.1,45.381-9.229a36.651,36.651,0,0,0-24.573-3.015c-8.2,1.866-15.693,5.548-20.808,12.245" transform="translate(-307.66 -129.711)" fill="#e0e0e0"/>
        <path id="Path_13246" data-name="Path 13246" d="M434.72,378.663c8.53-13.911,24.889-22.99,41.183-23.823-1.866,6.664-7.314,11.778-13.461,14.894s-13.011,4.465-19.775,5.781c-2.632.516-6.231,1.083-7.947,3.149" transform="translate(-306.307 -137.316)" fill="#e0e0e0"/>
        <path id="Path_13247" data-name="Path 13247" d="M433.12,364a119.061,119.061,0,0,0,5.348-24.123c.633-8.213-.533-16.793-4.8-23.857-7.963,15.427-8.78,33.436-.7,48.813" transform="translate(-311.256 -163.169)" fill="#e0e0e0"/>
        <path id="Path_13248" data-name="Path 13248" d="M446.9,349.62c9.313-16.943,28.321-30.47,47.563-32.369-7.414,18.492-27.655,32.769-47.563,32.369" transform="translate(-298.197 -162.349)" fill="#e0e0e0"/>
        <path id="Path_13249" data-name="Path 13249" d="M443.38,339.785c13.894,2.116,25.739,11,38.734,16.376a17.394,17.394,0,0,0,8.746,1.666,6.864,6.864,0,0,0,4.3-12.128,18.678,18.678,0,0,0-6.364-3.848c-14.144-5.9-29.321-6.047-44.214-2.466" transform="translate(-300.541 -149.2)" fill="#e0e0e0"/>
        <path id="Path_13250" data-name="Path 13250" d="M438.55,344.789c3.149.9,4.215,2.532,6.664,4.665a72.451,72.451,0,0,0,29.371,15.077c1.116.283,2.6.4,3.149-.616s-.133-1.966-.766-2.749a40.484,40.484,0,0,0-17.676-12.045c-6.781-2.516-12.645-5.564-20.741-4.914" transform="translate(-303.758 -144.457)" fill="#e0e0e0"/>
        <path id="Path_13251" data-name="Path 13251" d="M433.1,309.779a55.56,55.56,0,0,0,42.615,14.51,2.9,2.9,0,0,0,1.932-.7c1.083-1.166-.2-2.966-1.449-3.948-12.528-9.763-27.7-13.811-43.1-9.862" transform="translate(-307.387 -168.322)" fill="#e0e0e0"/>
        <path id="Path_13252" data-name="Path 13252" d="M439.56,311.44a59.458,59.458,0,0,1,53.177-8.78A42.2,42.2,0,0,1,467.4,313.788a80.53,80.53,0,0,1-27.838-2.349" transform="translate(-303.085 -173.915)" fill="#e0e0e0"/>
        <path id="Path_13253" data-name="Path 13253" d="M439.869,305.635c-1.216-12.511-.433-22.374-1.3-34.985,0-1-.283-2.216-1.216-2.582-1.316-.5-2.4,1.116-2.832,2.449a39.983,39.983,0,0,0,5.331,34.785" transform="translate(-307.658 -195.165)" fill="#e0e0e0"/>
        <path id="Path_13254" data-name="Path 13254" d="M436.45,307.127a73.624,73.624,0,0,0,20.724-20.141c4.082-5.6,7.53-12.295,6.664-19.175a19.875,19.875,0,0,0-14.994,7.43,41.647,41.647,0,0,0-7.63,15.327c-1.666,5.5-2.815,11.145-4.764,16.56" transform="translate(-305.156 -195.275)" fill="#e0e0e0"/>
        <path id="Path_13255" data-name="Path 13255" d="M448.777,300.49A167.31,167.31,0,0,0,499.755,270.5c-6.1-2.449-13.061-.983-19.159,1.483-13.894,5.614-25.273,15.094-32.086,28.438" transform="translate(-297.125 -194.319)" fill="#e0e0e0"/>
        <path id="Path_13256" data-name="Path 13256" d="M439.89,301.418c9.413,1.016,18.975,1.666,28.321.133s17.842-5.181,26.422-8.78a3.131,3.131,0,0,0,1.8-1.366,2.066,2.066,0,0,0-.65-2.266,5.481,5.481,0,0,0-2.249-1.049c-9.329-2.616-19.392-1.383-28.555,1.666a131.708,131.708,0,0,0-25.073,11.662" transform="translate(-302.865 -182.719)" fill="#e0e0e0"/>
        <path id="Path_13257" data-name="Path 13257" d="M409.529,326c-6.431-12.961-6.014-28.088-.467-41.433,3.9,5.948,4.382,13.511,3.665,20.591s-2.865,14.377-3,21.491" transform="translate(-326.231 -184.112)" fill="#e0e0e0"/>
        <path id="Path_13258" data-name="Path 13258" d="M409.408,301.682a57.725,57.725,0,0,0-42.948,18.325c8,1.25,16.243-.816,23.523-4.365a118.778,118.778,0,0,0,20.141-13.494" transform="translate(-351.766 -172.72)" fill="#e0e0e0"/>
        <path id="Path_13259" data-name="Path 13259" d="M398.039,298.52c-7.847-.633-15.393-1.666-22.923.716a27.422,27.422,0,0,0-17.476,14.81,41.33,41.33,0,0,0,21.491-4.065,121.616,121.616,0,0,0,18.908-11.462" transform="translate(-357.64 -175.339)" fill="#e0e0e0"/>
        <path id="Path_13260" data-name="Path 13260" d="M415.584,303.183c-7.047-4.615-14.294-9.329-22.507-11.245s-17.726-.5-23.457,5.7c6.664,3.9,14.71,4.365,22.424,4.348s17.159,0,24.423,2.482" transform="translate(-349.662 -179.735)" fill="#e0e0e0"/>
        <path id="Path_13261" data-name="Path 13261" d="M402.716,318.312c-12.062-11.845-16.66-33.119-11.778-49.312a75.1,75.1,0,0,1,11.778,49.312" transform="translate(-336.744 -194.482)" fill="#e0e0e0"/>
        <path id="Path_13262" data-name="Path 13262" d="M417.15,294.014c2.266-5.281,3.865-10.829,5.914-16.21a46.414,46.414,0,0,1,8.43-14.994,22.191,22.191,0,0,1,14.994-7.73,60.141,60.141,0,0,1-28.988,39" transform="translate(-318.009 -203.752)" fill="#e0e0e0"/>
        <path id="Path_13263" data-name="Path 13263" d="M426.007,291.147c-3.765-5.181-8.113-12.211-13.211-16.076s-11.745-6.214-17.976-4.731a41.882,41.882,0,0,0,31.187,20.808" transform="translate(-332.88 -193.889)" fill="#e0e0e0"/>
        <path id="Path_13264" data-name="Path 13264" d="M416.838,294.24a89.458,89.458,0,0,1-5.947-19.259,30.1,30.1,0,0,1,3.015-19.592c6.664,12.511,8.763,25.939,3.332,39" transform="translate(-322.512 -203.546)" fill="#e0e0e0"/>
        <path id="Path_13265" data-name="Path 13265" d="M417.18,265.981c3.748-12.411,15.11-21.541,27.372-25.739a10.361,10.361,0,0,1,4.8-.716,4.182,4.182,0,0,1,3.549,2.949c.45,2.116-1.3,4.015-2.932,5.414a93.411,93.411,0,0,1-32.786,18.092" transform="translate(-317.989 -214.137)" fill="#e0e0e0"/>
        <path id="Path_13266" data-name="Path 13266" d="M417.353,265.969c.483-8,.983-16.11,3.582-23.69s7.613-14.694,14.91-18.009c1.249,8.08-2.316,16.11-6.664,23.074S419.7,260.854,417.12,268.6" transform="translate(-318.029 -224.27)" fill="#e0e0e0"/>
        <path id="Path_13267" data-name="Path 13267" d="M426.443,269.955c-3.1-9.029-3.432-20.524-8.846-28.321-3.782-5.514-9.846-9.263-13.094-15.094a22.941,22.941,0,0,0,.75,17.126,49.649,49.649,0,0,0,10,14.344c4,4.265,7.43,7.5,11.162,12.011" transform="translate(-327.302 -222.758)" fill="#e0e0e0"/>
        <path id="Path_13268" data-name="Path 13268" d="M417.367,520.112c-.233,0-.45-60.308-.466-134.693s.167-134.71.417-134.71.45,60.308.466,134.71S417.617,520.112,417.367,520.112Z" transform="translate(-318.176 -206.662)" fill="#e0e0e0"/>
        <path id="Path_13269" data-name="Path 13269" d="M469.923,304a15.136,15.136,0,0,1-2.266.85l-6.247,2.1c-5.264,1.8-12.495,4.4-20.325,7.613s-15.094,6.031-19.275,9.646a14.094,14.094,0,0,0-3.865,5.114c-.6,1.416-.716,2.283-.783,2.283s0-.233,0-.633a9.711,9.711,0,0,1,.45-1.766,13.526,13.526,0,0,1,3.782-5.464,33.663,33.663,0,0,1,8.33-5.181c3.332-1.566,7.064-3.2,11-4.815,7.863-3.215,15.144-5.731,20.475-7.38,2.649-.833,4.831-1.433,6.331-1.849A12.258,12.258,0,0,1,469.923,304Z" transform="translate(-318.021 -171.173)" fill="#e0e0e0"/>
        <path id="Path_13270" data-name="Path 13270" d="M485.536,278.512a4.239,4.239,0,0,1-.633.667l-1.932,1.816-7.23,6.564-24.057,21.424c-9.379,8.33-17.493,16.327-23.107,22.34-2.816,3-5,5.5-6.547,7.23-.716.8-1.282,1.466-1.749,2s-.633.683-.65.65a3.348,3.348,0,0,1,.516-.766c.367-.483.9-1.2,1.666-2.1,1.433-1.816,3.582-4.365,6.347-7.43a304.911,304.911,0,0,1,23.007-22.574c9.413-8.33,17.992-15.827,24.207-21.224l7.413-6.364,2.049-1.666C485.219,278.662,485.519,278.478,485.536,278.512Z" transform="translate(-316.357 -188.15)" fill="#e0e0e0"/>
        <path id="Path_13271" data-name="Path 13271" d="M432.8,310.251c-.25-.117,1.666-4.648,3.665-10.362s2.915-10.562,3.165-10.529a35.744,35.744,0,0,1-2.332,10.8,70.192,70.192,0,0,1-2.915,7.247,11.654,11.654,0,0,1-1.582,2.849Z" transform="translate(-307.602 -180.923)" fill="#e0e0e0"/>
        <path id="Path_13272" data-name="Path 13272" d="M431.212,341.418a10.7,10.7,0,0,1-1.449-1.666l-3.715-4.681c-3.115-4.031-7.413-9.579-12.228-15.66s-9.263-11.529-12.478-15.477l-3.815-4.765a11.673,11.673,0,0,1-1.316-1.8,11.655,11.655,0,0,1,1.566,1.583c.966,1.033,2.332,2.582,4,4.5,3.332,3.848,7.864,9.246,12.695,15.344s9.046,11.662,12.045,15.827c1.5,2.049,2.682,3.732,3.482,4.915a13.583,13.583,0,0,1,1.216,1.882Z" transform="translate(-331.954 -175.588)" fill="#e0e0e0"/>
        <path id="Path_13273" data-name="Path 13273" d="M412.673,322.2a21.091,21.091,0,0,1-4.848-9.063,26.406,26.406,0,0,1-1.1-9.13h.383c-.167.7-.283,1.066-.367,1.05s0-.4,0-1.116h.383a41.455,41.455,0,0,0,1.533,8.88,67.222,67.222,0,0,0,4.015,9.379Z" transform="translate(-324.978 -171.213)" fill="#e0e0e0"/>
        <path id="Path_13274" data-name="Path 13274" d="M411.736,305.145a14.783,14.783,0,0,0-3.332-1.966,22.442,22.442,0,0,0-9.379-.75,57.268,57.268,0,0,0-9.446,1.533,30.9,30.9,0,0,1-3.9.933,12.979,12.979,0,0,1,3.732-1.533,43.149,43.149,0,0,1,9.546-1.8,20.309,20.309,0,0,1,9.679,1.05,5.832,5.832,0,0,1,3.1,2.532Z" transform="translate(-338.967 -172.918)" fill="#e0e0e0"/>
        <path id="Path_13275" data-name="Path 13275" d="M413.864,303.128c0,.133-1.966-.8-5.181-1.883a52.564,52.564,0,0,0-12.911-2.666,53.682,53.682,0,0,0-13.178.666c-3.332.6-5.364,1.233-5.414,1.083a4.418,4.418,0,0,1,1.383-.583,33.63,33.63,0,0,1,3.9-1.1,46.117,46.117,0,0,1,26.439,2.016,33.132,33.132,0,0,1,3.7,1.666,4.833,4.833,0,0,1,1.266.8Z" transform="translate(-344.627 -175.449)" fill="#e0e0e0"/>
        <path id="Path_13276" data-name="Path 13276" d="M419.834,299.929a105.515,105.515,0,0,1-3.782-13.111,107.912,107.912,0,0,1-2.932-13.328,109.967,109.967,0,0,1,3.782,13.128,108.063,108.063,0,0,1,2.932,13.311Z" transform="translate(-320.693 -191.492)" fill="#e0e0e0"/>
        <path id="Path_13277" data-name="Path 13277" d="M421.426,295.041a65.358,65.358,0,0,0-4.182-7.846,34.782,34.782,0,0,0-6.164-6.364,5.868,5.868,0,0,1,2.382,1.233,19.608,19.608,0,0,1,4.5,4.632,17.41,17.41,0,0,1,3.465,8.346Z" transform="translate(-322.051 -186.604)" fill="#e0e0e0"/>
        <path id="Path_13278" data-name="Path 13278" d="M439.256,428.309c-.083,0-.266-1.449-.95-4.015a56.642,56.642,0,0,0-4.031-10.429c-4.165-8.513-11.745-19.325-21.374-30.137-4.781-5.448-9.413-10.6-13.328-15.527a107.6,107.6,0,0,1-9.529-13.744,64.726,64.726,0,0,1-4.814-10.212c-.45-1.266-.767-2.232-.95-2.915a4.091,4.091,0,0,1-.25-1.05c.083,0,.516,1.383,1.516,3.848a72.191,72.191,0,0,0,5,10,111.6,111.6,0,0,0,9.629,13.561c3.948,4.881,8.58,10,13.328,15.46,9.663,10.845,17.226,21.774,21.291,30.437a52.689,52.689,0,0,1,3.8,10.629,28.074,28.074,0,0,1,.533,3.015A4.676,4.676,0,0,1,439.256,428.309Z" transform="translate(-340.065 -147.012)" fill="#e0e0e0"/>
        <path id="Path_13279" data-name="Path 13279" d="M464.81,360.83a19.539,19.539,0,0,1-2.5,1.4,53.963,53.963,0,0,0-6.464,4.282,74.6,74.6,0,0,0-8.513,7.763c-2.982,3.149-6.048,6.814-9.2,10.729-6.264,7.88-12.128,14.844-15.643,20.391-1.783,2.765-3.082,5.1-3.932,6.664a20.762,20.762,0,0,1-1.383,2.516,2.882,2.882,0,0,1,.233-.7c.183-.45.433-1.133.833-1.966a67.272,67.272,0,0,1,3.715-6.88c3.415-5.7,9.246-12.761,15.493-20.625,3.149-3.915,6.264-7.6,9.3-10.745a70.7,70.7,0,0,1,8.713-7.68,44.853,44.853,0,0,1,6.664-4.1c.816-.417,1.5-.666,1.949-.85a2.428,2.428,0,0,1,.733-.2Z" transform="translate(-317.989 -133.327)" fill="#e0e0e0"/>
        <path id="Path_13280" data-name="Path 13280" d="M459.489,371.334a39.115,39.115,0,0,1-5.281.766,69.629,69.629,0,0,0-12.511,2.466,37.432,37.432,0,0,0-11.2,5.881c-2.582,1.982-3.8,3.632-3.932,3.548a4.348,4.348,0,0,1,.783-1.216,19.831,19.831,0,0,1,2.749-2.816,34.038,34.038,0,0,1,11.328-6.231,56.9,56.9,0,0,1,12.728-2.249A29.035,29.035,0,0,1,459.489,371.334Z" transform="translate(-311.735 -126.371)" fill="#e0e0e0"/>
        <path id="Path_13281" data-name="Path 13281" d="M427.509,384.906c-.283-.167,2.1-3.8,3.948-8.68s2.132-9.246,2.449-9.2a8.9,8.9,0,0,1-.1,2.832,30,30,0,0,1-1.533,6.664,31.412,31.412,0,0,1-3.065,6.114,8.8,8.8,0,0,1-1.7,2.266Z" transform="translate(-311.125 -129.198)" fill="#e0e0e0"/>
        <path id="Path_13282" data-name="Path 13282" d="M480.167,332.71a3.56,3.56,0,0,1-.85.45l-2.482,1.116c-1.083.466-2.4,1.066-3.882,1.849s-3.232,1.566-5,2.649l-2.866,1.666c-1,.583-2,1.249-3.049,1.916-2.116,1.283-4.248,2.866-6.514,4.5a112.24,112.24,0,0,0-25.089,25.956c-1.549,2.332-3.049,4.5-4.265,6.664-.616,1.083-1.266,2.082-1.816,3.1l-1.533,2.949c-1.016,1.833-1.749,3.6-2.482,5.115a41.928,41.928,0,0,0-1.666,3.948c-.4,1.1-.766,1.866-1.033,2.516a3.221,3.221,0,0,1-.433.866,4.73,4.73,0,0,1,.267-.916c.233-.683.516-1.533.883-2.582s.883-2.482,1.583-4.015,1.366-3.332,2.366-5.214l1.5-2.982c.516-1.033,1.166-2.049,1.766-3.149,1.2-2.182,2.7-4.4,4.231-6.747A107.175,107.175,0,0,1,455.094,346.2a78.844,78.844,0,0,1,6.664-4.465c1.066-.65,2.066-1.316,3.082-1.883l2.932-1.666c1.833-1.05,3.6-1.816,5.115-2.549a37.974,37.974,0,0,1,3.965-1.666l2.549-.983a3.492,3.492,0,0,1,.766-.283Z" transform="translate(-317.969 -152.054)" fill="#e0e0e0"/>
        <path id="Path_13283" data-name="Path 13283" d="M432.4,350.388a6.131,6.131,0,0,1,2.082-3.082,13.077,13.077,0,0,1,8.33-3.215,23.321,23.321,0,0,1,8.8,1.666,12.4,12.4,0,0,1,3.332,1.666,20.555,20.555,0,0,1-3.532-1.033,26.441,26.441,0,0,0-8.546-1.416,13.53,13.53,0,0,0-7.98,2.8A25,25,0,0,0,432.4,350.388Z" transform="translate(-307.853 -144.475)" fill="#e0e0e0"/>
        <path id="Path_13284" data-name="Path 13284" d="M429,357.667a31.649,31.649,0,0,0,2.382-7.713,32,32,0,0,0-.533-8.063,5.312,5.312,0,0,1,.966,2.249,15.96,15.96,0,0,1-1.349,11.561C429.766,357.067,429.117,357.716,429,357.667Z" transform="translate(-310.117 -145.94)" fill="#e0e0e0"/>
        <path id="Path_13285" data-name="Path 13285" d="M392.18,398.31c1.3,23.057,8.247,46.5,18.925,70.187h46.464c10.179-23.457,16.66-46.864,17.792-70.187Z" transform="translate(-334.638 -108.367)" fill="#e0e0e0"/>
        <path id="Path_13286" data-name="Path 13286" d="M464.9,420.873c0,.233-15.293.433-34.152.433s-34.169-.2-34.169-.433,15.293-.433,34.169-.433S464.9,420.623,464.9,420.873Z" transform="translate(-331.707 -93.629)" fill="#fafafa"/>
        <path id="Path_13287" data-name="Path 13287" d="M462.606,425.883c0,.233-14.344.433-32.02.433s-32.036-.2-32.036-.433,14.344-.433,32.036-.433S462.606,425.65,462.606,425.883Z" transform="translate(-330.396 -90.293)" fill="#fafafa"/>
        <path id="Path_13288" data-name="Path 13288" d="M404.173,407.39a132.487,132.487,0,0,1,0,21.407,132.459,132.459,0,0,1,0-21.407Z" transform="translate(-326.939 -102.32)" fill="#fafafa"/>
        <path id="Path_13289" data-name="Path 13289" d="M419.1,407.39a142.082,142.082,0,0,1,0,22.174,142.082,142.082,0,0,1,0-22.174Z" transform="translate(-316.996 -102.32)" fill="#fafafa"/>
        <path id="Path_13290" data-name="Path 13290" d="M433.173,407.28a147.7,147.7,0,0,1,0,22.607,147.68,147.68,0,0,1,0-22.607Z" transform="translate(-307.626 -102.393)" fill="#fafafa"/>
        <path id="Path_13291" data-name="Path 13291" d="M473.263,407.563c0,.25-17.942.45-40.066.45s-40.066-.2-40.066-.45,17.926-.433,40.066-.433S473.263,407.33,473.263,407.563Z" transform="translate(-334.005 -102.493)" fill="#fafafa"/>
      </g>
    </g>
    <g id="Floor" transform="translate(1.783 682.885)">
      <path id="Path_13292" data-name="Path 13292" d="M753.811,446.173c0,.233-161.332.433-360.314.433s-360.347-.2-360.347-.433,161.3-.433,360.347-.433S753.811,445.923,753.811,446.173Z" transform="translate(-33.15 -445.74)" fill="#263238"/>
    </g>
    <g id="Screen" transform="translate(179.619 -12.039)">
      <path id="Path_13442" data-name="Path 13442" d="M455.195,37.035c-55.206.062-199.9-.018-266.584-.085a42.109,42.109,0,0,0-28.866,11.3,37.352,37.352,0,0,0-11.908,27.233l-.126,618.128c-.04,21.242,18.193,38.5,40.738,38.554l266.584.153a42.108,42.108,0,0,0,28.866-11.3,37.352,37.352,0,0,0,11.909-27.233l.126-618.145a37.362,37.362,0,0,0-11.875-27.26A42.121,42.121,0,0,0,455.195,37.035Z" transform="translate(-147.71 -36.95)" fill="#f5f5f5"/>
      <path id="Path_13293" data-name="Path 13293" d="M431.639,37.033H383.826a11.895,11.895,0,0,0-11.662,12.178v8.713A11.895,11.895,0,0,1,360.5,70.1H267.209a11.912,11.912,0,0,1-11.662-12.178v-8.78A11.912,11.912,0,0,0,243.886,36.95H185.477a37.684,37.684,0,0,0-37.651,37.767l-.117,605.776a37.717,37.717,0,0,0,37.617,37.784l246.162.15A37.684,37.684,0,0,0,469.14,680.66l.117-605.793a37.7,37.7,0,0,0-37.617-37.834Z" transform="translate(-134.695 -23.054)" fill="#fdfcfc"/>
      <path id="Path_13294" data-name="Path 13294" d="M431.808,37.181h1.3a28.217,28.217,0,0,1,3.815.3,35.535,35.535,0,0,1,14.144,5,36.652,36.652,0,0,1,8.58,7,37.656,37.656,0,0,1,7.13,11.3,39.065,39.065,0,0,1,2.8,15.31q0,8.346,0,17.776c0,50.262,0,123,.1,212.86s0,196.883,0,315.7v56.542c0,1.9-.116,3.848-.2,5.781a41.632,41.632,0,0,1-1.083,5.715,38.316,38.316,0,0,1-12.278,19.525,40.933,40.933,0,0,1-10,6.131,38.435,38.435,0,0,1-11.512,2.7l-2.982.149H188.345a39.414,39.414,0,0,1-24.49-6.83,38.485,38.485,0,0,1-14.827-20.658,41.851,41.851,0,0,1-1.549-12.745V76c0-1.516.117-3.049.167-4.565a34.058,34.058,0,0,1,.666-4.5,39.167,39.167,0,0,1,7.663-16.093,38.151,38.151,0,0,1,30.7-14.077h56.459a12.078,12.078,0,0,1,12.228,7.747,13.523,13.523,0,0,1,.833,3.7c.1,1.283,0,2.482,0,3.715v7.3a12.162,12.162,0,0,0,2.616,6.431,11.345,11.345,0,0,0,5.681,3.8,26.174,26.174,0,0,0,6.864.433H361.8a10.813,10.813,0,0,0,4.648-1.666,11.961,11.961,0,0,0,5.364-7.58,19.242,19.242,0,0,0,.333-4.581V51.742a27.59,27.59,0,0,1,.183-4.4A12.127,12.127,0,0,1,373.7,43.3a11.945,11.945,0,0,1,5.931-5.4,18.092,18.092,0,0,1,7.464-.833l24.49.117H387.111a18.009,18.009,0,0,0-7.364.85,11.662,11.662,0,0,0-5.781,5.281,12.26,12.26,0,0,0-1.316,3.948,28.756,28.756,0,0,0-.167,4.348v4.515a20,20,0,0,1-.317,4.648,12.361,12.361,0,0,1-5.5,7.813,11.278,11.278,0,0,1-4.815,1.666c-1.666.117-3.432,0-5.181,0H267.961a12.609,12.609,0,0,1-3.532-.45,11.946,11.946,0,0,1-5.948-3.965,12.911,12.911,0,0,1-2.749-6.664c-.133-2.466,0-4.865,0-7.347V48.16a12.361,12.361,0,0,0-.816-3.549,11.5,11.5,0,0,0-11.662-7.38H186.679a37.567,37.567,0,0,0-29.987,13.877,38.7,38.7,0,0,0-7.53,15.827c-.233,1.466-.5,2.932-.633,4.415a36.789,36.789,0,0,0-.167,4.515V678.576a40.935,40.935,0,0,0,1.516,12.495,37.551,37.551,0,0,0,14.494,20.192,38.468,38.468,0,0,0,23.99,6.663H431.575l2.915-.15a37.292,37.292,0,0,0,11.262-2.649,39.115,39.115,0,0,0,9.846-5.981,37.233,37.233,0,0,0,12.045-18.909,39.747,39.747,0,0,0,1.066-5.581c0-1.9.233-3.782.2-5.7V622.416c0-118.816.1-225.821.15-315.7s.133-162.6.183-212.86V76.081a39,39,0,0,0-2.682-15.227A37.8,37.8,0,0,0,459.5,49.626a36.039,36.039,0,0,0-8.513-7,35.635,35.635,0,0,0-14.044-5,30.225,30.225,0,0,0-3.815-.35Z" transform="translate(-134.863 -23.202)" fill="#a2a09e"/>
      <rect id="Rectangle_3051" data-name="Rectangle 3051" width="246.062" height="53.644" rx="5.77" transform="translate(43.486 453.092)" fill="#d8d8d8"/>
      <path id="Path_13301" data-name="Path 13301" d="M176.194,190.146v.9H169.23V181.2h6.764v.9h-5.731v3.5h5.1v.9h-5.1v3.648Z" transform="translate(-120.363 73.011)" fill="#263238"/>
      <path id="Path_13302" data-name="Path 13302" d="M174.26,184.56h3.682v.883H174.26Z" transform="translate(-117.013 75.248)" fill="#263238"/>
      <path id="Path_13303" data-name="Path 13303" d="M190.032,185.815V190.1h-1v-4.182c0-1.566-.783-2.382-2.116-2.382a2.4,2.4,0,0,0-2.482,2.682V190.1h-1v-4.182c0-1.566-.783-2.382-2.133-2.382a2.4,2.4,0,0,0-2.482,2.682V190.1h-1v-7.4h.95v1.349a3.032,3.032,0,0,1,2.715-1.416,2.665,2.665,0,0,1,2.632,1.566,3.332,3.332,0,0,1,2.932-1.566,2.8,2.8,0,0,1,2.982,3.182Z" transform="translate(-114.643 73.96)" fill="#263238"/>
      <path id="Path_13304" data-name="Path 13304" d="M192.617,185.523V190.1h-.95v-1.149a2.782,2.782,0,0,1-2.549,1.233c-1.666,0-2.7-.883-2.7-2.166s.716-2.1,2.849-2.1h2.349v-.45c0-1.266-.716-1.949-2.1-1.949a3.815,3.815,0,0,0-2.466.866l-.45-.75a4.731,4.731,0,0,1,3.015-1,2.632,2.632,0,0,1,3,2.882Zm-1,2.366v-1.216H189.3c-1.433,0-1.9.566-1.9,1.333s.683,1.383,1.866,1.383a2.349,2.349,0,0,0,2.349-1.5Z" transform="translate(-108.915 73.952)" fill="#263238"/>
      <path id="Path_13305" data-name="Path 13305" d="M191.64,181.553a.733.733,0,1,1,.733.733.717.717,0,0,1-.733-.733Zm.217,2.349h1.016v7.4h-1.016Z" transform="translate(-105.439 72.758)" fill="#263238"/>
      <path id="Path_13306" data-name="Path 13306" d="M194.05,180.84h1v10.446h-1Z" transform="translate(-103.834 72.771)" fill="#263238"/>
      <path id="Path_13307" data-name="Path 13307" d="M174.663,242.845c0,2.1-1.516,3.332-4.032,3.332h-2.649v3.115H167V239.43h3.682C173.147,239.463,174.663,240.746,174.663,242.845Zm-1.033,0c0-1.566-1.05-2.466-3.015-2.466h-2.632v5h2.632c1.966,0,3.049-.983,3.049-2.532Z" transform="translate(-121.848 111.789)"/>
      <path id="Path_13308" data-name="Path 13308" d="M178.624,243.783v4.581h-.95v-1.15a2.765,2.765,0,0,1-2.549,1.216c-1.666,0-2.716-.866-2.716-2.149s.733-2.1,2.866-2.1h2.349v-.45c0-1.266-.716-1.949-2.1-1.949a3.815,3.815,0,0,0-2.466.866l-.45-.75a4.732,4.732,0,0,1,3.015-1,2.632,2.632,0,0,1,3,2.882Zm-1,2.366v-1.216h-2.316c-1.449,0-1.916.566-1.916,1.316s.7,1.4,1.883,1.4a2.365,2.365,0,0,0,2.349-1.566Z" transform="translate(-118.245 112.751)"/>
      <path id="Path_13309" data-name="Path 13309" d="M177.16,247.5l.45-.783a4.415,4.415,0,0,0,2.632.833c1.4,0,1.983-.483,1.983-1.216,0-1.932-4.8-.4-4.8-3.332,0-1.216,1.033-2.116,2.915-2.116a5,5,0,0,1,2.632.7l-.45.8a3.765,3.765,0,0,0-2.182-.633c-1.333,0-1.916.516-1.916,1.216,0,2,4.8.5,4.8,3.332,0,1.283-1.133,2.1-3.065,2.1a4.832,4.832,0,0,1-3-.9Z" transform="translate(-115.082 112.761)"/>
      <path id="Path_13310" data-name="Path 13310" d="M181.29,247.5l.45-.783a4.415,4.415,0,0,0,2.632.833c1.416,0,1.983-.483,1.983-1.216,0-1.932-4.8-.4-4.8-3.332,0-1.216,1.05-2.116,2.932-2.116a5,5,0,0,1,2.616.7l-.433.8a3.832,3.832,0,0,0-2.183-.633c-1.349,0-1.932.516-1.932,1.216,0,2,4.8.5,4.8,3.332,0,1.283-1.116,2.1-3.049,2.1a4.849,4.849,0,0,1-3.015-.9Z" transform="translate(-112.332 112.762)"/>
      <path id="Path_13311" data-name="Path 13311" d="M197.335,240.93l-2.8,7.4h-.95l-2.332-6.064-2.332,6.064h-.95l-2.782-7.4h.95l2.332,6.281,2.382-6.281h.85l2.366,6.281,2.349-6.281Z" transform="translate(-109.734 112.788)"/>
      <path id="Path_13312" data-name="Path 13312" d="M192.811,244.668a3.782,3.782,0,1,1,3.782,3.765,3.648,3.648,0,0,1-3.782-3.765Zm6.531,0a2.766,2.766,0,1,0-2.749,2.882,2.7,2.7,0,0,0,2.749-2.882Z" transform="translate(-104.661 112.748)"/>
      <path id="Path_13313" data-name="Path 13313" d="M202.292,240.9v.966h-.233a2.4,2.4,0,0,0-2.5,2.732v3.765h-1v-7.4h.966v1.449A2.749,2.749,0,0,1,202.292,240.9Z" transform="translate(-100.831 112.755)"/>
      <path id="Path_13314" data-name="Path 13314" d="M208.93,239.1v10.446h-.966v-1.466a3.2,3.2,0,0,1-2.849,1.533,3.765,3.765,0,1,1,0-7.53,3.332,3.332,0,0,1,2.815,1.466V239.1Zm-.983,6.747a2.765,2.765,0,1,0-2.749,2.882,2.7,2.7,0,0,0,2.749-2.882Z" transform="translate(-98.973 111.57)"/>
      <rect id="Rectangle_3052" data-name="Rectangle 3052" width="246.062" height="53.227" rx="7.01" transform="translate(43.486 274.719)" fill="#ebebeb"/>
      <path id="Path_13321" data-name="Path 13321" d="M400.563,246.921h.367a5.194,5.194,0,0,0,1.116-.1,11.262,11.262,0,0,0,4.1-1.383,11.66,11.66,0,0,0,4.765-5,11.376,11.376,0,0,0,1.133-4.315c0-1.666,0-3.332,0-5.164,0-7.314,0-16.293-.133-26.655a11.561,11.561,0,0,0-3.332-6.98,11.378,11.378,0,0,0-7.514-3.332H382.4l-204.58.133a11.3,11.3,0,0,0-10.762,7.947,26.368,26.368,0,0,0-.5,7.2v25.389a11.807,11.807,0,0,0,.383,3.432,11.194,11.194,0,0,0,3.565,5.7,11.329,11.329,0,0,0,6.114,2.649c2.249.117,4.631,0,6.93,0h40.3l91.944.083,61.99.15h0l-61.99.133-91.944.1h-47.28a12.062,12.062,0,0,1-10.412-8.6,12.979,12.979,0,0,1-.4-3.648V205.588a13.8,13.8,0,0,1,.533-3.765,12.178,12.178,0,0,1,11.662-8.563l204.53.117h18.675a11.9,11.9,0,0,1,11.345,10.712c.1,10.446,0,19.358,0,26.655v5.181a11.746,11.746,0,0,1-1.2,4.415,11.561,11.561,0,0,1-4.915,5.1,10.959,10.959,0,0,1-4.181,1.316A10,10,0,0,1,400.563,246.921Z" transform="translate(-122.677 81.042)" fill="#a2a09e"/>
      <rect id="Rectangle_3053" data-name="Rectangle 3053" width="246.062" height="53.227" rx="7.01" transform="translate(43.486 370.778)" fill="#ebebeb"/>
      <path id="Path_13322" data-name="Path 13322" d="M400.563,304.581h.367a9.779,9.779,0,0,0,1.116-.117,11.5,11.5,0,0,0,4.1-1.366,11.779,11.779,0,0,0,4.765-5,11.377,11.377,0,0,0,1.133-4.315c0-1.666,0-3.332,0-5.181,0-7.3,0-16.293-.133-26.655a11.462,11.462,0,0,0-3.332-6.964,11.312,11.312,0,0,0-7.514-3.249H382.4l-204.58.05a11.312,11.312,0,0,0-10.762,7.963,26.2,26.2,0,0,0-.5,7.18v25.389a11.661,11.661,0,0,0,.383,3.432,11.194,11.194,0,0,0,3.565,5.7,11.327,11.327,0,0,0,6.114,2.649c2.249.133,4.631,0,6.93,0h40.3l91.944.1,61.99.133,16.859.083h0l-16.859.083-61.99.15-91.944.083H183.589c-2.332,0-4.6.083-7.014,0a12.062,12.062,0,0,1-10.412-8.7,12.911,12.911,0,0,1-.4-3.648V263.265a13.912,13.912,0,0,1,.533-3.782,12.178,12.178,0,0,1,11.662-8.563l204.53.117,18.575.017a11.829,11.829,0,0,1,7.864,3.432,11.977,11.977,0,0,1,3.482,7.28c.1,10.446,0,19.359,0,26.655v5.2a11.811,11.811,0,0,1-6.114,9.513,11.179,11.179,0,0,1-4.182,1.3A10.011,10.011,0,0,1,400.563,304.581Z" transform="translate(-122.677 119.441)" fill="#a2a09e"/>
      <path id="Path_13323" data-name="Path 13323" d="M402.618,422.454a10.065,10.065,0,0,0,1.5-.167,9.646,9.646,0,0,0,4-1.666,9.463,9.463,0,0,0,3.782-5.814,23.314,23.314,0,0,0,.184-4.531c0-1.666,0-3.332,0-5.231,0-7.38,0-16.393-.083-26.855a9.379,9.379,0,0,0-3.332-6.914A9.113,9.113,0,0,0,405,369.409a15.746,15.746,0,0,0-4.281-.3H381.893l-206.063.116a9.246,9.246,0,0,0-6.464,2.666,9.079,9.079,0,0,0-2.716,6.414v33a15.905,15.905,0,0,0,.217,3.482,9.146,9.146,0,0,0,3.7,5.548,9.3,9.3,0,0,0,3.065,1.4,13.529,13.529,0,0,0,3.415.283h47.63l92.644.1,62.457.133,16.976.083h0l-16.976.083-62.507.35-92.644.1H177a13.432,13.432,0,0,1-3.615-.3,9.663,9.663,0,0,1-3.332-1.516A10,10,0,0,1,166,414.99a16.19,16.19,0,0,1-.233-3.665V378.306a10,10,0,0,1,10-10l206.063.133h18.825a15.767,15.767,0,0,1,4.415.333,9.711,9.711,0,0,1,3.865,1.982,10,10,0,0,1,3.5,7.3v32.1a24.035,24.035,0,0,1-.217,4.581,9.746,9.746,0,0,1-3.948,5.914,9.614,9.614,0,0,1-4.082,1.666,7.436,7.436,0,0,1-1.566.133Z" transform="translate(-122.682 197.618)" fill="#e0e0e0"/>
      <path id="Path_13324" data-name="Path 13324" d="M317.176,384.883c0,.233-24.906.433-55.626.433s-55.61-.2-55.61-.433,24.889-.433,55.61-.433S317.176,384.65,317.176,384.883Z" transform="translate(-95.916 208.367)" fill="#e0e0e0"/>
      <path id="Path_13328" data-name="Path 13328" d="M427.375,153.393c0,.25-58.592.433-130.844.433s-130.861-.183-130.861-.433,58.575-.433,130.861-.433S427.375,153.16,427.375,153.393Z" transform="translate(-122.734 54.204)" fill="#e0e0e0"/>
      <path id="Path_13329" data-name="Path 13329" d="M427.375,351.023c0,.233-58.592.433-130.844.433s-130.861-.2-130.861-.433,58.575-.433,130.861-.433S427.375,350.79,427.375,351.023Z" transform="translate(-122.734 185.817)" fill="#e0e0e0"/>
      <g id="Group_7745" data-name="Group 7745" transform="translate(60.52 390.798)">
        <path id="Path_13330" data-name="Path 13330" d="M183.933,268.942l3.718,2.1-.967,1.667-3.8-2.234v4.268H181v-4.268l-3.785,2.234-.984-1.667,3.768-2.1-3.768-2.067.984-1.667L181,267.425V263.19h1.884v4.235l3.8-2.217.967,1.667Z" transform="translate(-176.23 -263.19)" fill="#cecece"/>
        <path id="Path_13331" data-name="Path 13331" d="M191.826,268.942l3.751,2.1-.984,1.667-3.785-2.234v4.268h-1.9v-4.268l-3.8,2.234-.967-1.667,3.751-2.1-3.751-2.068.967-1.667,3.8,2.217V263.19h1.884v4.235l3.785-2.217.984,1.667Z" transform="translate(-170.952 -263.19)" fill="#cecece"/>
        <path id="Path_13332" data-name="Path 13332" d="M199.746,268.915l3.735,2.1-.967,1.667-3.851-2.167v4.268h-1.884v-4.268l-3.8,2.234-.967-1.667,3.768-2.1-3.768-2.068.967-1.667,3.8,2.217V263.23h1.884v4.235l3.8-2.217.967,1.667Z" transform="translate(-165.701 -263.163)" fill="#cecece"/>
        <path id="Path_13333" data-name="Path 13333" d="M207.626,268.942l3.735,2.1-.967,1.667-3.8-2.234v4.268h-1.884v-4.268l-3.785,2.234-.984-1.667,3.768-2.1-3.668-2.068.984-1.667,3.785,2.217V263.19h1.9v4.235l3.8-2.217.967,1.667Z" transform="translate(-160.41 -263.19)" fill="#cecece"/>
      </g>
      <g id="Group_7744" data-name="Group 7744" transform="translate(62.136 295.13)">
        <path id="Path_13334" data-name="Path 13334" d="M184.029,210.731v4.235h-1v-4.2a2.084,2.084,0,0,0-2.234-2.368,2.434,2.434,0,0,0-2.584,2.684v3.885h-1V207.63h.95V209a3.118,3.118,0,0,1,2.818-1.434,2.851,2.851,0,0,1,3.051,3.168Z" transform="translate(-177.21 -204.57)" fill="#a0a0a0"/>
        <path id="Path_13335" data-name="Path 13335" d="M188.779,210.483V215h-.967v-1.15a2.768,2.768,0,0,1-2.551,1.234c-1.667,0-2.7-.884-2.7-2.167s.733-2.1,2.851-2.1h2.368v-.45c0-1.267-.717-1.951-2.1-1.951a3.751,3.751,0,0,0-2.467.867l-.45-.75a4.668,4.668,0,0,1,3.018-1,2.634,2.634,0,0,1,3,2.951Zm-1,2.367v-1.184h-2.334c-1.434,0-1.9.567-1.9,1.317s.684,1.4,1.867,1.4a2.384,2.384,0,0,0,2.368-1.534Z" transform="translate(-173.64 -204.605)" fill="#a0a0a0"/>
        <path id="Path_13336" data-name="Path 13336" d="M200.158,210.731v4.235h-1v-4.2c0-1.551-.8-2.368-2.134-2.368a2.4,2.4,0,0,0-2.484,2.684v3.885h-1v-4.2c0-1.551-.784-2.368-2.134-2.368a2.4,2.4,0,0,0-2.484,2.684v3.885h-1V207.63h.95v1.35a3.034,3.034,0,0,1,2.718-1.417,2.7,2.7,0,0,1,2.651,1.567,3.234,3.234,0,0,1,2.918-1.567,2.8,2.8,0,0,1,3,3.168Z" transform="translate(-170.064 -204.57)" fill="#a0a0a0"/>
        <path id="Path_13337" data-name="Path 13337" d="M203.631,211.635h-6.2a2.718,2.718,0,0,0,2.918,2.568,2.918,2.918,0,0,0,2.268-.967l.567.65a3.918,3.918,0,0,1-6.669-2.567,3.607,3.607,0,1,1,7.2,0Zm-6.2-.75h5.252a2.634,2.634,0,0,0-5.252,0Z" transform="translate(-164.334 -204.574)" fill="#a0a0a0"/>
        <path id="Path_13338" data-name="Path 13338" d="M214.635,212.268c0,2.4-.884,3.818-2.334,3.818a1.5,1.5,0,0,1-1.584-1.551,3.134,3.134,0,0,1-2.818,1.551,3.651,3.651,0,0,1,0-7.286,3.151,3.151,0,0,1,2.784,1.484v-1.417h.917v5.4c0,.784.4,1.067.867,1.067.884,0,1.45-1.084,1.45-2.984a5.368,5.368,0,0,0-5.8-5.5,5.669,5.669,0,1,0,0,11.321,6.318,6.318,0,0,0,2.7-.617l.233.684a6.669,6.669,0,0,1-2.934.65,6.386,6.386,0,0,1,0-12.771,6.1,6.1,0,0,1,6.519,6.152Zm-3.935.167a2.684,2.684,0,1,0-2.684,2.818,2.634,2.634,0,0,0,2.684-2.818Z" transform="translate(-160.849 -205.54)" fill="#a0a0a0"/>
        <path id="Path_13339" data-name="Path 13339" d="M222.978,210.731v4.235h-1v-4.2c0-1.551-.784-2.368-2.134-2.368a2.384,2.384,0,0,0-2.468,2.684v3.885h-1v-4.2c0-1.551-.8-2.368-2.151-2.368a2.4,2.4,0,0,0-2.484,2.684v3.885h-1V207.63h.967v1.35a3.018,3.018,0,0,1,2.718-1.417,2.668,2.668,0,0,1,2.634,1.567,3.334,3.334,0,0,1,2.934-1.567,2.8,2.8,0,0,1,2.984,3.168Z" transform="translate(-154.837 -204.57)" fill="#a0a0a0"/>
        <path id="Path_13340" data-name="Path 13340" d="M225.559,210.483V215h-.967v-1.15a2.767,2.767,0,0,1-2.551,1.234c-1.667,0-2.7-.884-2.7-2.167s.734-2.1,2.868-2.1h2.351v-.45c0-1.267-.717-1.951-2.1-1.951a3.751,3.751,0,0,0-2.467.867l-.45-.75a4.736,4.736,0,0,1,3.018-1,2.634,2.634,0,0,1,3,2.951Zm-1,2.367v-1.184h-2.334c-1.434,0-1.9.567-1.9,1.317s.7,1.4,1.884,1.4a2.384,2.384,0,0,0,2.351-1.534Z" transform="translate(-149.099 -204.605)" fill="#a0a0a0"/>
        <path id="Path_13341" data-name="Path 13341" d="M224.57,206.474a.717.717,0,1,1,.216.513A.717.717,0,0,1,224.57,206.474Zm.217,2.351h1v7.336h-1Z" transform="translate(-145.609 -205.765)" fill="#a0a0a0"/>
        <path id="Path_13342" data-name="Path 13342" d="M227,205.77h1v10.387h-1Z" transform="translate(-143.987 -205.761)" fill="#a0a0a0"/>
        <path id="Path_13343" data-name="Path 13343" d="M228.86,211.927a.75.75,0,0,1,.75-.767.767.767,0,0,1,.75.767.784.784,0,0,1-.75.784A.767.767,0,0,1,228.86,211.927Z" transform="translate(-142.746 -202.165)" fill="#a0a0a0"/>
        <path id="Path_13344" data-name="Path 13344" d="M230.471,211.33a3.651,3.651,0,0,1,3.818-3.768,3.335,3.335,0,0,1,2.9,1.467l-.75.517a2.5,2.5,0,0,0-2.151-1.1,2.884,2.884,0,0,0,0,5.769,2.484,2.484,0,0,0,2.151-1.084l.75.517a3.334,3.334,0,0,1-2.9,1.467,3.668,3.668,0,0,1-3.818-3.785Z" transform="translate(-141.673 -204.569)" fill="#a0a0a0"/>
        <path id="Path_13345" data-name="Path 13345" d="M235.151,211.321a3.768,3.768,0,1,1,3.768,3.785,3.651,3.651,0,0,1-3.768-3.785Zm6.519,0a2.751,2.751,0,1,0-2.751,2.884,2.7,2.7,0,0,0,2.751-2.884Z" transform="translate(-138.55 -204.561)" fill="#a0a0a0"/>
        <path id="Path_13346" data-name="Path 13346" d="M253.138,210.731v4.235h-1v-4.2c0-1.551-.8-2.368-2.134-2.368a2.4,2.4,0,0,0-2.484,2.684v3.885h-1v-4.2c0-1.551-.784-2.368-2.134-2.368a2.4,2.4,0,0,0-2.484,2.684v3.885h-1V207.63h.95v1.35a3.034,3.034,0,0,1,2.718-1.417,2.7,2.7,0,0,1,2.651,1.567,3.234,3.234,0,0,1,2.918-1.567,2.8,2.8,0,0,1,3,3.168Z" transform="translate(-134.713 -204.57)" fill="#a0a0a0"/>
      </g>
      <path id="Path_13347" data-name="Path 13347" d="M175.349,83.8a.749.749,0,0,1-.533-.217l-7.83-6.864a.816.816,0,0,1,0-1.249l7.83-6.5a.8.8,0,0,1,1.149.1.816.816,0,0,1-.1,1.166l-7,5.881,7.1,6.231a.816.816,0,0,1,.083,1.166.866.866,0,0,1-.7.283Z" transform="translate(-122.051 -1.862)" fill="#a2a09e"/>
      <path id="Path_13348" data-name="Path 13348" d="M311.623,74.952a4.182,4.182,0,1,1-4.182-4.182A4.182,4.182,0,0,1,311.623,74.952Z" transform="translate(-31.105 -0.531)" fill="#a2a09e"/>
      <path id="Path_13349" data-name="Path 13349" d="M318.863,74.952a4.181,4.181,0,1,1-1.231-2.963A4.181,4.181,0,0,1,318.863,74.952Z" transform="translate(-26.283 -0.531)" fill="#a2a09e"/>
      <path id="Path_13350" data-name="Path 13350" d="M326.1,74.952a4.182,4.182,0,1,1-4.165-4.182A4.182,4.182,0,0,1,326.1,74.952Z" transform="translate(-21.462 -0.531)" fill="#a2a09e"/>
      <text id="بازیابی_شد" data-name="بازیابی شد" transform="translate(173.69 178.877)" font-size="30" font-family="IRANSansXFaNum-Bold, IRANSansXFaNum" font-weight="700"><tspan x="-64.815" y="0">بازیابی شد</tspan></text>
    </g>
    <g id="Plant" transform="translate(0 297.264)">
      <path id="Path_13359" data-name="Path 13359" d="M52.1,219.63c19.658,10.179,34.719,27.705,45.547,47s17.826,40.466,24.74,61.491l6.047,108.4c-22.857-38.883-41.216-84.664-46.164-129.462l15.21-1.35c-10.2-1.566-18.759-8.946-24.206-17.709s-8.33-18.875-11-28.821L80.838,261.9A68.788,68.788,0,0,1,52.1,219.63Z" transform="translate(-18.747 -210.7)" fill="#afa167"/>
      <path id="Path_13361" data-name="Path 13361" d="M103.963,465.5s49.629-59.391,49.062-116.1H133.034s21.774-14.327,19.991-22.341-2.3-38.317-2.3-38.317L132.4,293.32s13.744-6.88,15.46-17.759-4-61.291-4-61.291-22.34,23.49-29.221,47.546-24.989,52.111-19.608,125.43S103.963,465.5,103.963,465.5Z" transform="translate(9.189 -214.27)" fill="#ffe163"/>
      <path id="Path_13362" data-name="Path 13362" d="M119.993,445.278s-53.76-35.818-65.705-81.532l16.11-4.4S49.772,352.6,49.389,345.787s-6.547-31.353-6.547-31.353l15.743-.333s-12.561-2.515-16.326-10.9S32.08,253.06,32.08,253.06,55.17,267.054,65.966,284.9s31.437,36.451,43.215,96.542S119.993,445.278,119.993,445.278Z" transform="translate(-32.08 -188.438)" fill="#ffe163"/>
      <path id="Path_13363" data-name="Path 13363" d="M127.1,245.33a3.623,3.623,0,0,1-.083.633l-.35,1.849c-.333,1.666-.8,4.048-1.416,7.08s-1.383,6.831-2.2,11.212-1.816,9.346-2.782,14.86c-2.049,11.029-4.232,24.19-6.481,38.85s-4.4,30.787-6.4,47.78-3.465,33.219-4.681,48-2.032,28.1-2.549,39.3c-.317,5.6-.5,10.662-.683,15.11s-.317,8.33-.4,11.412-.2,5.514-.25,7.214a11.9,11.9,0,0,1-.083,1.883,3.8,3.8,0,0,1,0,.633,3.675,3.675,0,0,1,0-.633c0-.467,0-1.083,0-1.883v-7.214c0-3.1.117-6.98.267-11.428s.267-9.529.55-15.127c.45-11.212,1.266-24.54,2.366-39.333s2.682-31.02,4.631-48.029,4.215-33.153,6.447-47.813,4.548-27.8,6.664-38.817c1-5.531,2.032-10.5,2.915-14.86s1.666-8.113,2.349-11.179,1.2-5.4,1.566-7.047l.433-1.833a3.636,3.636,0,0,1,.167-.616Z" transform="translate(12.307 -193.585)" fill="#263238"/>
      <path id="Path_13364" data-name="Path 13364" d="M104.09,442.275S149.5,390.746,163.6,359.61l-10.646-4.548c7.713,1.266,15.627-2.049,21.658-7.08s10.379-11.662,14.677-18.192l-14.061-2.3a52.178,52.178,0,0,0,30.637-23.74c-16.56,2.732-31.52,11.812-43.865,23.174a219.156,219.156,0,0,0-26.572,30.72,104.376,104.376,0,0,0-10.312,16.976C117.484,390.4,104.057,423.366,104.09,442.275Z" transform="translate(15.876 -154.68)" fill="#ffe163"/>
      <path id="Path_13365" data-name="Path 13365" d="M45,271.06a3.34,3.34,0,0,1,.3.483c.183.383.45.85.766,1.466.7,1.333,1.666,3.232,2.915,5.648,2.532,4.9,6.081,12.045,10.329,20.958s9.146,19.575,14.361,31.52S84.35,356.357,89.8,370.384s10.246,27.555,14.477,39.9,7.747,23.54,10.579,32.986,5,17.126,6.464,22.457l1.666,6.131.416,1.666a2.363,2.363,0,0,1,.1.55,1.666,1.666,0,0,1-.183-.533c-.133-.383-.3-.916-.5-1.566-.416-1.449-1.016-3.5-1.783-6.1-1.533-5.3-3.815-12.945-6.664-22.357s-6.547-20.575-10.762-32.919S94.5,384.812,89.081,370.768,78.169,343.5,73.038,331.518s-10-22.657-14.194-31.653-7.613-16.11-10-21.058l-2.766-5.714c-.3-.633-.533-1.116-.7-1.5A2.942,2.942,0,0,1,45,271.06Z" transform="translate(-23.476 -176.45)" fill="#263238"/>
      <path id="Path_13366" data-name="Path 13366" d="M101.78,435.429a4.7,4.7,0,0,1,0-.966c0-.733.167-1.666.267-2.765s.3-2.666.566-4.348.516-3.632.933-5.748c.733-4.248,1.849-9.263,3.332-14.777s3.332-11.478,5.664-17.643,4.9-11.895,7.414-17.009,5-9.6,7.3-13.328c1.083-1.866,2.166-3.482,3.1-5a36.534,36.534,0,0,1,2.449-3.632c.783-.983,1.183-1.666,1.666-2.249a4.035,4.035,0,0,1,.616-.766,5.214,5.214,0,0,1-.466.866l-1.483,2.332c-.666,1.016-1.449,2.249-2.332,3.715s-1.933,3.1-2.982,5c-2.166,3.7-4.6,8.213-7.1,13.328s-5,10.829-7.314,16.96-4.182,12.095-5.714,17.559-2.649,10.462-3.465,14.677c-.45,2.1-.75,4.015-1.05,5.7s-.533,3.132-.716,4.332-.317,2.016-.433,2.732a4.4,4.4,0,0,1-.25,1.033Z" transform="translate(14.321 -125.744)" fill="#263238"/>
      <path id="Path_13367" data-name="Path 13367" d="M120.012,368.32l-10.745,68.188H49.209L39.18,368.32Z" transform="translate(26.092 -50.489)" fill="#3f434d"/>
      <path id="Path_12664" data-name="Path 12664" d="M394.98,361.97l2.011,16.18h76.3l2.521-16.18Z" transform="translate(-329.707 -46.276)" fill="#263238"/>
      <rect id="Rectangle_3054" data-name="Rectangle 3054" width="99.391" height="20.275" transform="translate(56.176 297.556)" fill="#3f434d"/>
    </g>
    <g id="Character" transform="translate(422.631 283.414)">
      <path id="Path_13369" data-name="Path 13369" d="M378.748,415.685s119.466-62.24,145.371-27.9-26.006,61.307-36.035,67.371-111.5,40.533-111.5,40.533L349.81,467.113Z" transform="translate(-243.116 -91.75)" fill="#3f434d"/>
      <path id="Path_13370" data-name="Path 13370" d="M401.141,420.39l47.63,25.639,43.531,9.429a5.564,5.564,0,0,1,4.148,6.964h0a5.463,5.463,0,0,1-3.482,3.682c-10.812,3.765-50.612,17.409-53.994,15.344-3.915-2.4-52.045-23.723-52.045-23.723Z" transform="translate(-218.396 -63.152)" fill="#c5c5c5"/>
      <g id="Group_7736" data-name="Group 7736" transform="translate(217.33 399.204)" opacity="0.6">
        <path id="Path_13371" data-name="Path 13371" d="M476.944,445.647,416.22,462.939l2.032,1.05a8.33,8.33,0,0,0,5.731.683c5.148-1.216,19.309-5,49.4-15.26a5.531,5.531,0,0,0,3.565-3.832Z" transform="translate(-416.22 -445.58)" fill="#fff"/>
      </g>
      <g id="Group_7737" data-name="Group 7737" transform="translate(205.183 398.456)" opacity="0.6">
        <path id="Path_13372" data-name="Path 13372" d="M410.563,445.5a3.332,3.332,0,0,1,4.315,1.166,3.232,3.232,0,0,1-1.116,4.3,3.548,3.548,0,0,1-4.565-1.266,3.332,3.332,0,0,1,1.666-4.332" transform="translate(-408.929 -445.132)" fill="#fff"/>
      </g>
      <path id="Path_13373" data-name="Path 13373" d="M437.8,450.7c.267-.2-1.666-2.582-1.666-6.131s2.032-5.881,1.766-6.1-.783.317-1.516,1.366a8.7,8.7,0,0,0-1.433,4.715,8.6,8.6,0,0,0,1.3,4.748C437.017,450.364,437.7,450.8,437.8,450.7Z" transform="translate(-186.418 -51.144)" fill="#263238"/>
      <path id="Path_13374" data-name="Path 13374" d="M442.063,449.829c.333-.117-.45-2.466.1-5.314s2.066-4.781,1.8-5-2.382,1.533-2.966,4.8S441.813,450.029,442.063,449.829Z" transform="translate(-182.484 -50.426)" fill="#263238"/>
      <path id="Path_13375" data-name="Path 13375" d="M430.4,453.589c.333-.117-.883-3.715-.4-8.23s2.3-7.83,1.983-8-2.716,3.032-3.165,7.88S430.152,453.756,430.4,453.589Z" transform="translate(-190.548 -51.853)" fill="#263238"/>
      <path id="Path_13376" data-name="Path 13376" d="M420.751,448.257c.35,0,.583-3.2,2.232-6.664s3.865-5.848,3.632-6.114-3,1.8-4.715,5.614S420.435,448.307,420.751,448.257Z" transform="translate(-196.025 -53.119)" fill="#263238"/>
      <path id="Path_13377" data-name="Path 13377" d="M412.31,443.941c.35,0,.117-3.515,2.149-7.08s5-5.281,4.848-5.581-.933.1-2.132.883a11.762,11.762,0,0,0-3.765,4.115,11.96,11.96,0,0,0-1.5,5.381C411.894,443.091,412.16,443.958,412.31,443.941Z" transform="translate(-201.761 -55.966)" fill="#263238"/>
      <path id="Path_13378" data-name="Path 13378" d="M416.6,438.169a6.432,6.432,0,0,0-1.783-1,14.2,14.2,0,0,0-5.514-.983,6.348,6.348,0,0,0-3.915,1.033,2.282,2.282,0,0,0-.7,2.466,3.681,3.681,0,0,0,1.8,1.883,7.83,7.83,0,0,0,9.563-2.832,9.063,9.063,0,0,0-.183-10.112,3.133,3.133,0,0,0-2.266-1.333,2.2,2.2,0,0,0-2.066,1.516,7.73,7.73,0,0,0,0,4.015,15.691,15.691,0,0,0,2.066,5.2,6.827,6.827,0,0,0,1.3,1.666,24.987,24.987,0,0,1-2.532-6.947,7.113,7.113,0,0,1,0-3.5,1.149,1.149,0,0,1,1.116-.833,2.133,2.133,0,0,1,1.449.966,8.08,8.08,0,0,1,0,8.763,6.8,6.8,0,0,1-8.08,2.516,2.683,2.683,0,0,1-1.316-1.249,1.216,1.216,0,0,1,.367-1.366,5.7,5.7,0,0,1,3.332-.95,20.939,20.939,0,0,1,7.364,1.083Z" transform="translate(-206.648 -58.557)" fill="#263238"/>
      <path id="Path_13379" data-name="Path 13379" d="M485.074,458.46s-112.569-68.2-127.779-76.634c-13.078-7.28-54.394-23.323-68.954,16.243s63.839,98.025,63.839,98.025l66.538,2.982,22.207-8.48,25.223,7.763Z" transform="translate(-285.253 -95.125)" fill="#3f434d"/>
      <path id="Path_13380" data-name="Path 13380" d="M396.1,463.215,345.637,482.79l-35.452,26.939a5.548,5.548,0,0,1-8-1.366h0a5.531,5.531,0,0,1-.533-5c4.165-10.645,19.692-49.762,23.457-50.978,4.365-1.416,51.861-24.106,51.861-24.106Z" transform="translate(-275.428 -57.898)" fill="#c5c5c5"/>
      <g id="Group_7738" data-name="Group 7738" transform="translate(25.775 392.956)" opacity="0.6">
        <path id="Path_13381" data-name="Path 13381" d="M302.224,499.256l26.305-57.426-2.116.866a8.33,8.33,0,0,0-4.248,3.9c-2.416,4.715-8.813,17.892-20.541,47.463a5.563,5.563,0,0,0,.6,5.2Z" transform="translate(-301.238 -441.83)" fill="#fff"/>
      </g>
      <g id="Group_7739" data-name="Group 7739" transform="translate(67.157 392.772)" opacity="0.6">
        <path id="Path_13382" data-name="Path 13382" d="M332.345,445.519a3.332,3.332,0,0,1-3.7,2.516,3.215,3.215,0,0,1-2.532-3.632,3.548,3.548,0,0,1,3.932-2.649,3.332,3.332,0,0,1,2.216,4.081" transform="translate(-326.078 -441.72)" fill="#fff"/>
      </g>
      <path id="Path_13383" data-name="Path 13383" d="M312.11,464.1c0,.35,3.065.383,5.7,2.782s3.148,5.364,3.482,5.3.267-.8,0-2.032a8.813,8.813,0,0,0-7.1-6.247C312.876,463.763,312.11,464,312.11,464.1Z" transform="translate(-268.223 -34.205)" fill="#263238"/>
      <path id="Path_13384" data-name="Path 13384" d="M309,467.852c-.117.333,2.166,1.266,3.965,3.548s2.316,4.665,2.649,4.615.383-2.8-1.666-5.365S309,467.536,309,467.852Z" transform="translate(-270.297 -31.598)" fill="#263238"/>
      <path id="Path_13385" data-name="Path 13385" d="M315.622,457.941c-.133.333,3.332,1.749,6.514,5s4.448,6.831,4.781,6.664-.533-4.031-3.932-7.53S315.655,457.641,315.622,457.941Z" transform="translate(-265.887 -38.18)" fill="#263238"/>
      <path id="Path_13386" data-name="Path 13386" d="M324.538,453.6c-.25.25,2.049,2.532,3.665,6.081s1.932,6.747,2.282,6.664.566-3.448-1.2-7.23S324.7,453.333,324.538,453.6Z" transform="translate(-259.959 -41.052)" fill="#263238"/>
      <path id="Path_13387" data-name="Path 13387" d="M333.335,449.941c-.217.267,2.6,2.349,4,6.231s.716,7.247,1.066,7.314.533-.766.733-2.2a11.661,11.661,0,0,0-.7-5.531,11.9,11.9,0,0,0-3.1-4.648C334.251,450.157,333.418,449.808,333.335,449.941Z" transform="translate(-254.096 -43.49)" fill="#263238"/>
      <path id="Path_13388" data-name="Path 13388" d="M337.526,457a4.5,4.5,0,0,0,1.916-.716,14.081,14.081,0,0,0,4.332-3.548,6.231,6.231,0,0,0,1.749-3.648,2.2,2.2,0,0,0-1.416-2.132,3.615,3.615,0,0,0-2.582.15,7.846,7.846,0,0,0-4.082,9.113,9.1,9.1,0,0,0,7.813,6.431,3.149,3.149,0,0,0,2.482-.866,2.2,2.2,0,0,0,.183-2.549,7.546,7.546,0,0,0-3.065-2.582,16.162,16.162,0,0,0-5.3-1.816,5,5,0,0,0-2.049,0,25.507,25.507,0,0,1,6.93,2.582,7.2,7.2,0,0,1,2.616,2.332,1.133,1.133,0,0,1-.1,1.383,2.149,2.149,0,0,1-1.666.483,8.13,8.13,0,0,1-6.664-5.664,6.814,6.814,0,0,1,3.332-7.78,2.564,2.564,0,0,1,1.8-.183,1.2,1.2,0,0,1,.8,1.166,5.682,5.682,0,0,1-1.416,3.115A20.928,20.928,0,0,1,337.526,457Z" transform="translate(-251.54 -45.572)" fill="#263238"/>
      <path id="Path_13389" data-name="Path 13389" d="M357.92,477.595c1.416-.733,58.409-23.94,58.409-23.94L359.686,425.6,325.6,443.276Z" transform="translate(-259.24 -59.682)" fill="#3f434d"/>
      <path id="Path_13390" data-name="Path 13390" d="M302.75,432.282l.783.233,2.249.75,8.613,2.982,31.653,11.112,104.372,36.834,5,1.549-.516.233,19.008-39.767.167.516-65.655-40.15L389.53,394.915l-5-3.132-1.283-.833c-.283-.183-.433-.283-.416-.3l.45.25,1.333.766,5.081,3.015,19.025,11.445,65.805,39.883.316.2-.15.333-18.959,39.816-.166.333-.35-.117-5-1.549c-2.615-.75-5.115-1.666-7.63-2.582l-7.5-2.666-14.71-5.248-27.672-9.879-46.864-16.659-31.57-11.379-8.563-3.132-2.216-.833a6.562,6.562,0,0,1-.75-.367Z" transform="translate(-274.457 -82.958)" fill="#7e7e7e"/>
      <path id="Path_13391" data-name="Path 13391" d="M358.239,475.39a23.559,23.559,0,0,1-2.116-2.016l-5.531-5.714c-4.648-4.848-11.028-11.662-18.042-19.075l-7.047-7.547-.383-.416.5-.25,17.293-8.33,5-2.366a13.317,13.317,0,0,1,1.849-.766,9.366,9.366,0,0,1-1.666,1.016l-4.848,2.466-17.159,8.663.117-.666,7.08,7.53c7.014,7.48,13.328,14.294,17.859,19.259l5.331,5.9a15.887,15.887,0,0,1,1.766,2.316Z" transform="translate(-259.559 -57.478)" fill="#7e7e7e"/>
      <path id="Path_13392" data-name="Path 13392" d="M439.174,390.493c.1.217-13.927,6.314-31.32,13.594S376.3,417.115,376.2,416.9s13.928-6.314,31.32-13.611S439.174,390.259,439.174,390.493Z" transform="translate(-225.542 -83.067)" fill="#7e7e7e"/>
      <path id="Path_13393" data-name="Path 13393" d="M392.421,287.451c-1.183,0-42.282-.383-50.579,7.913S316.32,430.724,316.32,430.724c8.863,1.666,14.627,5,19.991,7.63l69.854,40.733,30.237-15.71a7.6,7.6,0,0,0,2.132-11.545h0L478.768,306.41a74.268,74.268,0,0,0-19.592-10.662C447.4,291.416,392.421,287.451,392.421,287.451Z" transform="translate(-265.419 -151.686)" fill="#ffe163"/>
      <path id="Path_13394" data-name="Path 13394" d="M410.618,295.55s12.361,2.732,17.093,10.362c11.1,17.876,45.181,81.366,50.912,96.626,6.064,16.11-.45,25.273-4.831,32.07-4.715,7.314-30.62,7.3-42.365-5.248-5-5.4-33.086-30.837-33.086-30.837Z" transform="translate(-210.798 -146.29)" fill="#ffe163"/>
      <path id="Path_13395" data-name="Path 13395" d="M430.186,309.7a8.437,8.437,0,0,1-.466,1.25l-1.516,3.532c-1.25,3.082-3,7.564-5,13.161-4.032,11.212-8.963,26.889-14.194,44.281s-9.779,33.136-13.161,44.631c-1.666,5.714-3.1,10.329-4.115,13.494l-1.2,3.648a7.1,7.1,0,0,1-.466,1.249,8.533,8.533,0,0,1,.3-1.3q.4-1.383,1.049-3.7c.933-3.332,2.232-7.9,3.848-13.561,3.232-11.462,7.7-27.288,12.911-44.714s10.262-33.069,14.444-44.231c2.082-5.6,3.931-10,5.281-13.095l1.666-3.465A6.658,6.658,0,0,1,430.186,309.7Z" transform="translate(-216.305 -136.867)" fill="#263238"/>
      <path id="Path_13396" data-name="Path 13396" d="M364.155,291.657s-12.978,7.38-17.726,11.662-53.794,74.268-60.075,96.076c-3.648,12.628,10.262,38.75,25.256,37.484,19.608-1.666,93.177-29.871,93.177-29.871l-16.51-35.935-41.649,6.664,30.237-30.387L365.588,290.84" transform="translate(-285.767 -149.427)" fill="#ffe163"/>
      <path id="Path_13397" data-name="Path 13397" d="M462.2,367.457a3.882,3.882,0,0,1-.733-.45l-2.032-1.4-7.38-5.265c-6.2-4.5-14.727-10.779-24.123-17.759l-6.281-4.681.583-.083c-5.981,7.813-11.312,14.627-15.194,19.442a57.64,57.64,0,0,1-6.481,7.48l6.047-7.83L421.6,337.3l.25-.333.333.25,6.3,4.665c9.4,6.98,17.859,13.327,23.973,17.976l7.147,5.481,1.933,1.533A3.948,3.948,0,0,1,462.2,367.457Z" transform="translate(-209.319 -118.706)" fill="#263238"/>
      <path id="Path_13398" data-name="Path 13398" d="M348.776,294.63,315.79,309.424l13.161,28.6L349.576,324.4Z" transform="translate(-212.328 -85.712)" fill="#efd1db"/>
      <path id="Path_13399" data-name="Path 13399" d="M397.355,339.329l22.074-14.993a4.064,4.064,0,0,1,2.649-.7l28.855,2.465a2.216,2.216,0,0,1,2.032,2.266,3.931,3.931,0,0,1-1.216,3.065l-46.863,32.6L369.9,358.488Z" transform="translate(-229.737 -127.596)" fill="#83837c"/>
      <path id="Path_13400" data-name="Path 13400" d="M367.67,335.267s11.912-8.83,14.71-9.313,15.377-.433,15.377-.433l10.6,6.048-6.564,4.448c-4.548-1-5.848-2.765-5.848-2.765l-7.33.483Z" transform="translate(-231.222 -126.332)" fill="#efd1db"/>
      <path id="Path_13401" data-name="Path 13401" d="M381.078,329.07l18.809,6.547,27.055,3.815a5.914,5.914,0,0,1-5.4,6.081c-3.332.35-8.963.733-8.963.733s-1.383,5-5.6,6.081a13.808,13.808,0,0,1-4.065,4.814,3.338,3.338,0,0,1-.833.367c-2.6.749-7.78,7.8-11.245,8.746s-22.39-3.515-22.39-3.515l-.8-29.754Z" transform="translate(-231.236 -123.967)" fill="#efd1db"/>
      <path id="Path_13402" data-name="Path 13402" d="M379,338.294c0-.083,1.5.317,3.882.8a71.9,71.9,0,0,0,9.479,1.233,68.913,68.913,0,0,0,9.529,0c2.449-.167,3.948-.383,3.965-.3a5,5,0,0,1-1.049.25c-.666.133-1.666.283-2.882.417a56.451,56.451,0,0,1-9.6.167,55.8,55.8,0,0,1-9.513-1.4c-1.2-.283-2.166-.55-2.816-.766A4.862,4.862,0,0,1,379,338.294Z" transform="translate(-223.677 -117.832)" fill="#d2a8b4"/>
      <path id="Path_13403" data-name="Path 13403" d="M385.016,342.92a4.234,4.234,0,0,1-.183,1.866,3.95,3.95,0,0,1-1.016,1.816,3.332,3.332,0,0,1-2.449.816,6.4,6.4,0,0,1-2.432-.7c-.683-.35-1.25-.716-1.749-.983-.966-.583-1.666-.8-1.666-.883a3.881,3.881,0,0,1,1.766.55,11.182,11.182,0,0,0,4.048,1.5,2.865,2.865,0,0,0,2.1-.65,3.679,3.679,0,0,0,.983-1.583A15.932,15.932,0,0,1,385.016,342.92Z" transform="translate(-225.995 -114.744)" fill="#d2a8b4"/>
      <path id="Path_13404" data-name="Path 13404" d="M395.284,344.008a8.179,8.179,0,0,1-2.066.533,46.761,46.761,0,0,1-5,.616,45.368,45.368,0,0,1-5.115,0,8.335,8.335,0,0,1-2.116-.233c0-.167,3.232,0,7.2-.35S395.251,343.907,395.284,344.008Z" transform="translate(-222.352 -114.032)" fill="#d2a8b4"/>
      <path id="Path_13405" data-name="Path 13405" d="M383.584,348.727a6.664,6.664,0,0,1-6.464,1.016c0-.167,1.5.117,3.332-.167S383.584,348.593,383.584,348.727Z" transform="translate(-224.929 -110.888)" fill="#d2a8b4"/>
      <path id="Path_13406" data-name="Path 13406" d="M386.715,348.562a4.812,4.812,0,0,1-2.016.533,4.547,4.547,0,0,1-2.1,0,4.482,4.482,0,0,1,2.032-.533C385.765,348.429,386.7,348.412,386.715,348.562Z" transform="translate(-221.28 -111.057)" fill="#d2a8b4"/>
      <path id="Path_13407" data-name="Path 13407" d="M393.919,335.69a51.094,51.094,0,0,1-8.813-2.949c-2.4-.933-4.548-1.816-6.081-2.516a10.835,10.835,0,0,1-2.416-1.266,19.575,19.575,0,0,1,2.549.933l6.131,2.366,6.114,2.382A8.6,8.6,0,0,1,393.919,335.69Z" transform="translate(-225.269 -124.04)" fill="#d2a8b4"/>
      <path id="Path_13408" data-name="Path 13408" d="M413.073,339.117s-2.083-.716.167-4,8.546.7,8.546.7l8.046,4.781s1.8,4.182-.433,5.3l-1.666,2.033s3.148,3.182,1.883,5.964a4.332,4.332,0,0,1-4.382,2.4s.367,5.631-1.466,7.8a6.146,6.146,0,0,1-3.5,2.366,10,10,0,0,1-6.947,6.048c-5.4,1.383-8.23,1.483-9.7-.8a24.85,24.85,0,0,1-2.382-5.148s-11.579-6.081-11.828-9.163.283-3.332.283-3.332a5.781,5.781,0,0,1,.233-4.448c1.166-1.883,5.764-.233,5.764-.233l14.777,3.465s-11.828-5.548-13.228-7.363.1-4.048,4.848-3.482,19.092,3.249,19.092,3.249a4.4,4.4,0,0,0-1.666-1.832c-.95-.4-3.915-2.116-3.915-2.116Z" transform="translate(-216.784 -120.803)" fill="#efd1db"/>
      <path id="Path_13409" data-name="Path 13409" d="M416.332,353.4c0,.133-6.031-1.4-13.328-3.415s-13.328-3.782-13.244-3.915,6.031,1.4,13.327,3.415S416.366,353.27,416.332,353.4Z" transform="translate(-216.512 -112.649)" fill="#d2a8b4"/>
      <path id="Path_13410" data-name="Path 13410" d="M404.81,356.5a17.022,17.022,0,0,1-4.315-1.1,30.344,30.344,0,0,1-2.949-1.133,5.516,5.516,0,0,1-.866-.466,1.126,1.126,0,0,1-.2-.183V353.5c0,.033,1.832.633,4.148,1.4A22.924,22.924,0,0,1,404.81,356.5Z" transform="translate(-212.036 -107.7)" fill="#d2a8b4"/>
      <path id="Path_13411" data-name="Path 13411" d="M414.255,347.43c0,.133-2.915-.45-6.481-1.033a65.218,65.218,0,0,1-6.464-1.116,30.4,30.4,0,0,1,6.547.617A29.347,29.347,0,0,1,414.255,347.43Z" transform="translate(-208.82 -113.174)" fill="#d2a8b4"/>
      <path id="Path_13412" data-name="Path 13412" d="M413.628,342.9c-.1.133-1.266-.7-2.9-1.283s-3.049-.733-3.049-.883a5.464,5.464,0,0,1,3.232.4A5.548,5.548,0,0,1,413.628,342.9Z" transform="translate(-204.577 -116.257)" fill="#d2a8b4"/>
      <path id="Path_13413" data-name="Path 13413" d="M438.619,327.785h-.533l-1.549-.183c-1.333-.183-3.332-.433-5.648-.7-4.781-.55-11.412-1.133-18.759-1.3a10.4,10.4,0,0,0-5.131.6,21.632,21.632,0,0,0-2.1,1.383l-2,1.416-6.914,4.881-4.681,3.249-1.3.866c-.283.2-.45.283-.466.267a4.558,4.558,0,0,1,.417-.35l1.233-.933,4.6-3.332,6.847-5,1.983-1.433a24.1,24.1,0,0,1,2.149-1.433,6.048,6.048,0,0,1,2.649-.666h2.732a180.555,180.555,0,0,1,18.775,1.449c2.4.316,4.332.633,5.647.866l1.533.283a1.669,1.669,0,0,1,.516.067Z" transform="translate(-216.658 -126.598)" fill="#263238"/>
      <path id="Path_13414" data-name="Path 13414" d="M409.357,328.483a1.4,1.4,0,0,0-1.383-.533h-.233a1.966,1.966,0,0,0-1.133.633,1.2,1.2,0,0,0,0,1.516,1.383,1.383,0,0,0,.816.383,2.032,2.032,0,0,0,1.666-.417A1.4,1.4,0,0,0,409.357,328.483Z" transform="translate(-205.471 -124.73)" fill="#504949"/>
      <path id="Path_13415" data-name="Path 13415" d="M390.358,233.249l-3.2-1.666a6.8,6.8,0,0,0-4.881-1.133c-1.583.45-2.682,1.966-4.315,2.132-1.9.217-3.465-1.5-5.364-1.4s-3.215,1.666-5,1.666c-1.333,0-2.749-.95-3.9-.3-.233.133-.433.317-.65.467a4.732,4.732,0,0,1-4.431-.25A6.114,6.114,0,0,0,354.19,232a7.048,7.048,0,0,0-2.3,1.849,3.181,3.181,0,0,1-2.682,1.1c-.55-.117-1-.466-1.549-.6-1.666-.433-3.149,1.4-4.9,1.866s-3.5-.366-5,.367a2.549,2.549,0,0,0-1.233,3.132,3.865,3.865,0,0,0,2.9,2.182,8.029,8.029,0,0,0,3.915-.283,9.495,9.495,0,0,1,3.149-.716c2.482.083,4.431,2.649,6.864,2.116a8.564,8.564,0,0,0,3-1.9,8.33,8.33,0,0,1,4.831-1.566,9.329,9.329,0,0,0,3.415-.183c1.316-.533,2.066-1.916,3.432-2.282s2.932.516,4.448.367c.983-.083,1.9-.633,2.9-.683,1.416-.083,2.7.833,4.115.716s2.666-1.316,4.115-1.2a9.769,9.769,0,0,1,1.666.45,1.8,1.8,0,0,0,1.666-.25c.316-.3.417-.783.8-1a1.664,1.664,0,0,1,.966-.1l4.7.483Z" transform="translate(-252.061 -189.695)" fill="#524a50"/>
      <path id="Path_13416" data-name="Path 13416" d="M393.908,232.7c-1.583-1.166-3.7-2.382-5.481-1.4-.65.35-1.133.933-1.783,1.25-1.5.7-3.332-.217-4.9.217-1.349.383-2.249,1.666-3.5,2.249-2.016,1-5,.417-6.231,2.182-.683.966-.8,2.516-1.982,2.782a2.95,2.95,0,0,1-1.266-.15,10.564,10.564,0,0,0-4.4-.133,4.68,4.68,0,0,0-2.282.966c-1.2,1.083-1.233,2.932-2.382,4.065-1.666,1.666-4.781.883-6.98,1.966a13.663,13.663,0,0,0-2.682,2.216,30.425,30.425,0,0,1-5.664,3.449,12.3,12.3,0,0,0-5,4.215,4.464,4.464,0,0,0,.633,5.714,2.266,2.266,0,0,0,2.816.133c.25-.233.416-.567.65-.833a5.51,5.51,0,0,1,1.949-.983c.683-.266,1.4-.783,1.4-1.482,0-.433-.25-.95.1-1.25a1.05,1.05,0,0,1,.516-.167c1.766-.183,3.932-.1,4.881-1.533a10.2,10.2,0,0,0,.716-2.116,3.965,3.965,0,0,1,2.866-2.366c1.083-.25,2.3-.083,3.165-.75s1.016-2.182,1.9-3.015c1.483-1.4,4.415-.383,5.747-1.9.333-.383.516-.866.933-1.15,1.2-.783,2.649.833,4.065.566s1.666-1.666,2.515-2.466a14.546,14.546,0,0,1,4.115-1.9c1.749-.85,3.015-2.5,4.865-3.049,1.666-.483,3.565-.15,4.748-1.283.45-.433.766-1.049,1.383-1.249a2.715,2.715,0,0,1,1.1,0,8.33,8.33,0,0,0,5.281-1.066Z" transform="translate(-250.563 -189.316)" fill="#524a50"/>
      <path id="Path_13417" data-name="Path 13417" d="M382.783,234.618a13.327,13.327,0,0,0-11.3,3.332,8.91,8.91,0,0,1-2.132,1.666,11.96,11.96,0,0,1-4.165.466,8.2,8.2,0,0,0-6.88,5.564c-.633,1.916-.866,4.431-2.716,5.1a5.694,5.694,0,0,0-1.016.366c-1.233.766-.383,2.732-.4,4.248,0,2.5-2.8,4.215-2.9,6.664a6.464,6.464,0,0,0,.65,2.649q1.449,3.582,3.182,7c.516,1.016,1.2,2.149,2.3,2.3,1.666.217,2.565-1.666,3.032-3.332a4.848,4.848,0,0,0,.1-3.482c-.466-.883-1.416-1.4-1.832-2.316-.65-1.449.4-3.065,1.149-4.448a13.325,13.325,0,0,0,1.283-9.179c1.666-.316,2.549-2.682,4.281-3.015a10.457,10.457,0,0,0,1.45-.183c1.149-.467,1.283-2.216,2.3-2.932s3.332-.167,3.9-1.583c.167-.45.083-.983.367-1.349a1.416,1.416,0,0,1,.916-.483l4.2-1.05a4.847,4.847,0,0,0,2.232-.983c1.083-1.033,1.25-3,2.616-3.532Z" transform="translate(-242.137 -186.998)" fill="#524a50"/>
      <path id="Path_13418" data-name="Path 13418" d="M390.189,239.7c-.167-2.466-.633-5.431-2.815-6.431-1.283-.6-2.849-.283-4.115-.933-2.432-1.216-2.632-5.148-5-6.4s-5.531.683-7.43-1.149c-.983-.95-1.116-2.532-1.916-3.648a5.564,5.564,0,0,0-4.282-1.833,13.478,13.478,0,0,1-4.7-.633c-2.5-1.1-4.1-4.2-6.78-4.415-2.282-.167-4.065,1.833-5.5,3.665a3.517,3.517,0,0,0-.816,1.533,2.682,2.682,0,0,0,1.483,2.516c1.816,1.066,4.148.9,5.831,2.149a16.684,16.684,0,0,0,1.816,1.466c.966.516,2.182.4,3.115.983,1.816,1.116,1.783,4.165,3.6,5.3s3.932-.2,5.9.25c2.665.633,4.131,4.348,6.864,4.448a26.273,26.273,0,0,0,3.532-.783,3.915,3.915,0,0,1,3.782,2.232c.433.933.5,2.032,1.016,2.932a4.248,4.248,0,0,0,3.149,1.983,11.949,11.949,0,0,0,3.765-.217Z" transform="translate(-245.096 -200.43)" fill="#524a50"/>
      <path id="Path_13419" data-name="Path 13419" d="M395.765,240.853c-1.666-3.149-3.715-6.514-7.13-7.98a44.261,44.261,0,0,1-5.3-1.849c-1.366-.8-2.332-2.082-3.615-3-2.982-2.116-7.1-1.982-10.762-1.4s-7.447,1.5-11.045.616c-3.232-.8-6.047-2.982-9.363-3.182a16.127,16.127,0,0,0-5.314.916l-6.031,1.666a2.8,2.8,0,0,0-1.666,1c-.65,1.083.616,2.332,1.816,2.832a11.062,11.062,0,0,0,6.231.666,15.293,15.293,0,0,1,5-.75,32.8,32.8,0,0,1,3.332,1.066,12.494,12.494,0,0,0,4.315,0l6.664-.7a9.346,9.346,0,0,1,5.081.433c1.2.583,2.149,1.666,3.482,1.833s2.9-.933,4.382-.716c1.766.283,2.649,2.249,4.265,3,1.9.883,4.4-.15,6.231.866,1.25.683,1.783,2.082,2.582,3.232a8.064,8.064,0,0,0,2.549,2.366,17.324,17.324,0,0,0,4.282,1.566Z" transform="translate(-252.737 -193.9)" fill="#524a50"/>
      <path id="Path_13420" data-name="Path 13420" d="M385.426,238.915c-.8-1.1-2.016-2.216-1.666-3.549.167-.65.7-1.183.816-1.849.2-1.2-1.016-2.132-1.466-3.332s0-3-.766-4.231-2.532-1.483-4-1.849a5,5,0,0,1-3.732-2.915,17.167,17.167,0,0,1-.2-3.332,6.3,6.3,0,0,0-6.047-5.165,6.564,6.564,0,0,1-2.5-.283c-1.416-.666-1.666-2.482-2.549-3.832a5.3,5.3,0,0,0-5.448-2.549c-1,.2-2.1,1.249-1.516,2.082.233.333.666.466.983.733,1.133.966.317,2.915.983,4.232s2.8,1.666,3.449,3.065c.5,1.083-.083,2.432.383,3.532.583,1.349,2.332,1.666,3.8,1.666s3.215.4,3.765,1.666a8.047,8.047,0,0,1,.283,1.9,3.715,3.715,0,0,0,1.916,2.649c1.416.716,3.332.583,4.248,1.933s-.417,3.665.433,5.248c.616,1.149,2.1,1.449,3.215,2.149a1.266,1.266,0,0,1,.583.666,1.417,1.417,0,0,1-.2.883c-.883,1.8-2,3.865-1.15,5.664a7.445,7.445,0,0,0,1.533,1.866,15.778,15.778,0,0,1,3.865,6.664l1.549-6.78A6.947,6.947,0,0,0,385.426,238.915Z" transform="translate(-238.866 -205.956)" fill="#524a50"/>
      <path id="Path_13421" data-name="Path 13421" d="M383.053,214.26a4.548,4.548,0,0,0-1.966-5.248,3.582,3.582,0,0,0-5,1.883c-.666,2.216,1.2,4.815,0,6.814a7.08,7.08,0,0,0-1.016,1.583c-.417,1.466,1.416,2.7,1.433,4.231s-2.116,2.616-2.549,4.248,1.383,3.848.7,5.664a6.664,6.664,0,0,1-.883,1.366c-1.949,2.865-.95,6.664.117,10l4.415-.65c-.816-3.065,3.5-6.131,2.032-8.93-.7-1.333-2.616-2.3-2.182-3.748a2.848,2.848,0,0,1,.666-1l4.115-4.5a4.149,4.149,0,0,0,1.316-2.282c.183-1.949-2.249-3.215-2.566-5.165C381.553,216.992,382.6,215.643,383.053,214.26Z" transform="translate(-227.897 -204.192)" fill="#524a50"/>
      <path id="Path_13422" data-name="Path 13422" d="M388.91,227.687c-.416-1.449-2.3-1.883-3.782-1.666-4.1.633-7.1,4.065-9.712,7.264a86.62,86.62,0,0,0-8.1,11.012,7.294,7.294,0,0,0-1.133,2.8,2.832,2.832,0,0,0,1.033,2.7,1.782,1.782,0,0,0,2.582-.6l1.216-.3a59.4,59.4,0,0,1,15.56-17.359C387.86,230.536,389.343,229.186,388.91,227.687Z" transform="translate(-232.238 -192.629)" fill="#ffe163"/>
      <path id="Path_13423" data-name="Path 13423" d="M366.9,286.768a142.739,142.739,0,0,1-1.516-24.423,49.6,49.6,0,0,1,6.53-23.324c.65-1.066,5.748-8,6.93-7.647.85.25-2.766,6.947-2.466,7.78,2.766,7.98,2.216,16.826,0,24.989a110.106,110.106,0,0,1-9.429,22.674" transform="translate(-232.77 -189.037)" fill="#524a50"/>
      <path id="Path_13424" data-name="Path 13424" d="M405.978,342.923c1.166-5.648,2.1-10.1,2.149-10.1s19.808,1.833,24.839-17.176c2.432-9.179,5.881-28.488,8.813-46a36.651,36.651,0,0,0-27.188-41.649l-1.849-.466c-20.125-3.815-34.619,11.129-37.884,31.353l-13.677,70.37,31.353,32.953Z" transform="translate(-235.545 -191.981)" fill="#efd1db"/>
      <path id="Path_13425" data-name="Path 13425" d="M398.543,295.928A47.464,47.464,0,0,1,375.57,282.35s2.565,15.394,22.007,18.459Z" transform="translate(-225.962 -155.081)" fill="#d2a8b4"/>
      <path id="Path_13426" data-name="Path 13426" d="M405.945,262.951a2.8,2.8,0,0,1-3.332,2.082,2.682,2.682,0,0,1-2.182-3.165,2.816,2.816,0,0,1,3.332-2.083,2.665,2.665,0,0,1,2.182,3.165Z" transform="translate(-209.44 -170.151)" fill="#263238"/>
      <path id="Path_13427" data-name="Path 13427" d="M410.194,258.481c-.416.267-2.1-1.766-5-2.5s-5.448.2-5.681-.25c-.1-.2.4-.75,1.5-1.2a7.863,7.863,0,0,1,4.665-.233,7.4,7.4,0,0,1,3.9,2.432C410.327,257.648,410.41,258.364,410.194,258.481Z" transform="translate(-210.023 -173.927)" fill="#263238"/>
      <path id="Path_13428" data-name="Path 13428" d="M389.995,259.876a2.815,2.815,0,0,1-3.332,2.1,2.682,2.682,0,0,1-2.182-3.165,2.8,2.8,0,0,1,3.332-2.082,2.665,2.665,0,0,1,2.182,3.149Z" transform="translate(-220.062 -172.19)" fill="#263238"/>
      <path id="Path_13429" data-name="Path 13429" d="M392.8,254.86c-.433.267-2.116-1.766-5-2.5s-5.448.2-5.681-.25c-.117-.183.383-.75,1.5-1.183a7.664,7.664,0,0,1,4.648-.25,7.264,7.264,0,0,1,3.9,2.432C392.862,254.028,393,254.711,392.8,254.86Z" transform="translate(-221.613 -176.338)" fill="#263238"/>
      <path id="Path_13430" data-name="Path 13430" d="M391.43,278.079a19.986,19.986,0,0,1,5,.333c.766.117,1.516.15,1.766-.333a3.884,3.884,0,0,0,0-2.349c-.25-1.982-.5-4.065-.783-6.247-1.033-8.88-1.566-16.11-1.216-16.143s1.483,7.13,2.516,16.01c.25,2.182.466,4.265.683,6.264a4.466,4.466,0,0,1-.35,3.032,1.983,1.983,0,0,1-1.5.783,4.4,4.4,0,0,1-1.316-.15,19.8,19.8,0,0,1-4.8-1.2Z" transform="translate(-215.399 -174.401)" fill="#263238"/>
      <path id="Path_13431" data-name="Path 13431" d="M386.416,268.113c.483.083-.317,3.332,1.849,6.214s5.631,3.432,5.531,3.882-.9.433-2.349.117a8.23,8.23,0,0,1-4.665-3.082,7.08,7.08,0,0,1-1.349-5.148C385.567,268.729,386.117,268.029,386.416,268.113Z" transform="translate(-219.432 -164.567)" fill="#263238"/>
      <path id="Path_13432" data-name="Path 13432" d="M395.7,247.526c-.5.733-3.332-.383-6.864-.833s-6.564-.217-6.831-1.05c-.117-.383.55-1.016,1.866-1.5a11.9,11.9,0,0,1,10.429,1.433C395.433,246.393,395.916,247.176,395.7,247.526Z" transform="translate(-221.684 -180.931)" fill="#263238"/>
      <path id="Path_13433" data-name="Path 13433" d="M410.633,252.492c-.683.533-2.532-.65-5-1.3s-4.6-.683-4.9-1.5c-.117-.383.367-.966,1.433-1.383a7.447,7.447,0,0,1,7.93,2.266C410.833,251.476,410.932,252.226,410.633,252.492Z" transform="translate(-209.213 -177.984)" fill="#263238"/>
      <path id="Path_13434" data-name="Path 13434" d="M374.35,255.691c-.3-.217-12.128-7.164-14.994,5.964s10.929,13.328,11.029,12.928S374.35,255.691,374.35,255.691Z" transform="translate(-237.019 -174.186)" fill="#d2a8b4"/>
      <path id="Path_13435" data-name="Path 13435" d="M366.066,267.092a3.658,3.658,0,0,1-.683.2,2.3,2.3,0,0,1-1.666-.333c-1.283-.816-1.966-3.332-1.516-5.648a7.532,7.532,0,0,1,1.35-3.132,2.682,2.682,0,0,1,2.1-1.383,1.183,1.183,0,0,1,1.216.916,1.332,1.332,0,0,1,0,.683c0,.033.333-.15.35-.716a1.5,1.5,0,0,0-.333-.933,1.747,1.747,0,0,0-1.2-.616,3.332,3.332,0,0,0-2.832,1.516,8.1,8.1,0,0,0-1.666,3.482c-.483,2.666.333,5.448,2.116,6.414a2.549,2.549,0,0,0,2.166.1C365.966,267.409,366.1,267.125,366.066,267.092Z" transform="translate(-235.633 -172.543)" fill="#77676d"/>
      <path id="Path_13436" data-name="Path 13436" d="M434.847,247.17c2.382-.733-2.582-8.963-7.313-12.428-7.164-5.231-18.792-10-26.522-9.413-9.3.65-17.509,3.5-23.573,10.579a52.894,52.894,0,0,0-11.329,25.223,16.06,16.06,0,0,0,.183,8.43c1.233,3.332,4.382,5.864,3.332,9.846a5.6,5.6,0,0,0,.533,4.3c1.866,3.065,5.314,1.266,7.18-.866,3.965-4.548,5.564-10.629,7.047-16.493a38.782,38.782,0,0,0,1.783-12.678c-.183-2.332-.783-4.631-.85-6.964a8.13,8.13,0,0,1,2.316-6.381,9.985,9.985,0,0,1,1.283-.85,13.994,13.994,0,0,1,14.161.25c6.864,4.165,18.709,10.712,22.54,8.9,5.514-2.632,7.147-4.748,7.147-4.748Z" transform="translate(-232.578 -193.087)" fill="#524a50"/>
      <path id="Path_13437" data-name="Path 13437" d="M334.538,395.676a5.253,5.253,0,0,1,1.066-.466l3.115-1.216,11.762-4.4L391.2,374.6l-.233.566c-3.332-7.347-7.064-15.344-10.9-23.623L374.454,339.3l.45.233L334.122,345.8h0a82.511,82.511,0,0,0-21.074,9.263c-2.332,1.433-4.082,2.665-5.281,3.5l-1.333.966a1.668,1.668,0,0,1-.483.3l.417-.383,1.283-1.033c1.15-.9,2.882-2.182,5.2-3.665a79.759,79.759,0,0,1,21.091-9.579h0L374.7,338.8h.317l.15.283c1.816,3.982,3.715,8.08,5.631,12.245,3.8,8.33,7.48,16.276,10.845,23.64l.2.4-.433.167-40.833,14.66-11.828,4.182-3.165,1.083Z" transform="translate(-272.325 -117.488)" fill="#263238"/>
      <path id="Path_13438" data-name="Path 13438" d="M347.842,328a28.56,28.56,0,0,1-3.332,4.1c-2.166,2.449-5.2,5.781-8.646,9.4s-6.664,6.8-9.08,8.979a27.035,27.035,0,0,1-3.032,2.449c-.417.233-.7.467-1.066.4a.25.25,0,0,1,0-.333s0-.083,0-.083,0,.216.1.25a2.349,2.349,0,0,0,.8-.5c.683-.566,1.666-1.483,2.8-2.616,2.316-2.3,5.448-5.548,8.88-9.146l8.83-9.213A32.31,32.31,0,0,1,347.842,328Z" transform="translate(-261.223 -124.68)" fill="#263238"/>
      <path id="Path_13439" data-name="Path 13439" d="M348.923,334.749c-.183,0,.35-2.615.35-6.83a43.868,43.868,0,0,0-.633-7.33,45.417,45.417,0,0,0-6.431-16.743,46.018,46.018,0,0,0-4.465-5.881c-2.832-3.115-5-4.681-4.832-4.814a7.635,7.635,0,0,1,1.533,1.033,16.417,16.417,0,0,1,1.666,1.383,27.5,27.5,0,0,1,2.082,1.983,41.18,41.18,0,0,1,4.681,5.864,46.224,46.224,0,0,1,4.2,8.163,47.651,47.651,0,0,1,2.366,8.88,40.677,40.677,0,0,1,.45,7.48,27.309,27.309,0,0,1-.217,2.865,14.989,14.989,0,0,1-.317,2.149A7.651,7.651,0,0,1,348.923,334.749Z" transform="translate(-254.375 -147.889)" fill="#263238"/>
      <path id="Path_13440" data-name="Path 13440" d="M368,396.8a52.222,52.222,0,0,1,5.464,0,49.713,49.713,0,0,0,24.856-7.33c2.865-1.666,4.5-3.065,4.6-2.949s-.333.416-1.05,1.049a33.689,33.689,0,0,1-3.215,2.416,44.974,44.974,0,0,1-12.028,5.631,44.465,44.465,0,0,1-13.161,1.8,31.36,31.36,0,0,1-4.015-.283A5.317,5.317,0,0,1,368,396.8Z" transform="translate(-231.003 -85.711)" fill="#263238"/>
      <path id="Path_13441" data-name="Path 13441" d="M396.519,370.612a7.216,7.216,0,0,1-1.116,1.416c-.75.883-1.883,2.116-3.332,3.632-2.849,3.015-6.93,7.064-11.662,11.278s-9.179,7.847-12.495,10.346c-1.666,1.249-3.015,2.249-3.982,2.9a6.668,6.668,0,0,1-1.533.95,7.49,7.49,0,0,1,1.333-1.216l3.8-3.115c3.2-2.615,7.6-6.281,12.311-10.5s8.829-8.18,11.795-11.079l3.5-3.432A6.8,6.8,0,0,1,396.519,370.612Z" transform="translate(-234.732 -96.305)" fill="#263238"/>
    </g>
  </g>
</svg>
