<svg xmlns="http://www.w3.org/2000/svg" width="102" height="124.543" viewBox="0 0 102 124.543">
  <g id="Group_7764" data-name="Group 7764" transform="translate(-1412 -138)">
    <path id="mortarboard_1_" data-name="mortarboard (1)" d="M55.652,49.2,29.8,38.135,4.049,49.158l-.1.046a7.056,7.056,0,0,0,.039,12.688l5.591,2.356H9.429V80.4a4.658,4.658,0,1,0,4.656.136V66.147L29.8,72.769l15.08-6.353a37.621,37.621,0,0,1,3.4,9.347A70.5,70.5,0,0,0,29.8,83.633,65.258,65.258,0,0,0,19.721,78.58c-.5-.194-.94-.357-1.323-.493A9.376,9.376,0,0,1,20.944,84.2a57.727,57.727,0,0,1,7.585,4.168l1.27.832,1.27-.832a66.213,66.213,0,0,1,20.481-8.617l2.105-.52-.365-2.152A43.708,43.708,0,0,0,49.2,64.6l6.317-2.661.1-.045A7.056,7.056,0,0,0,55.652,49.2Zm-2,8.432L29.8,67.686l-10.915-4.6L34.458,56.43,28.5,53.881,12.882,60.559,5.943,57.636a2.353,2.353,0,0,1-.013-4.188L29.8,43.231,53.67,53.448a2.352,2.352,0,0,1-.013,4.188Z" transform="translate(1433.7 99.865)" fill="#ffe163"/>
    <text id="apply_germany" data-name="apply
germany" transform="translate(1463 229.543)" fill="#fff" font-size="22" font-family="GalanoGrotesque-ExtraBold, Galano Grotesque" font-weight="800"><tspan x="-32.439" y="0">Apply</tspan><tspan x="-50.809" y="25">Germany</tspan></text>
  </g>
</svg>
