<svg xmlns="http://www.w3.org/2000/svg" width="795.089" height="739.251" viewBox="0 0 795.089 739.251"><defs><style>.a{fill:#fff;}.b{fill:#e0e0e0;}.c{fill:#fafafa;}.d{fill:#263238;}.e{fill:#f5f5f5;}.f{fill:#fdfcfc;}.g{fill:#a2a09e;}.h{fill:#d8d8d8;}.i{fill:#ebebeb;}.j{fill:#cecece;}.k{fill:#a0a0a0;}.l{fill:#afa167;}.m{fill:#ffe163;}.n{fill:#3f434d;}.o{fill:#c5c5c5;}.p{opacity:0.6;}.q{fill:#7e7e7e;}.r{fill:#efd1db;}.s{fill:#83837c;}.t{fill:#d2a8b4;}.u{fill:#504949;}.v{fill:#524a50;}.w{fill:#77676d;}</style></defs><g transform="translate(40.533 2.871)"><g transform="translate(-40.533 129.103)"><path class="a" d="M468.329,127.99,450.22,113.33" transform="translate(-295.986 -113.33)"/><g transform="translate(0 184.821)"><path class="b" d="M399.937,344.893a59.008,59.008,0,0,0-25.206-8.68c-4.115-.416-8.63-.3-11.928,2.2a2.482,2.482,0,0,0-1.233,2.182,2.682,2.682,0,0,0,1.166,1.483c10.262,7.83,25.772,8.813,37.2,2.815" transform="translate(-355.023 -149.844)"/><path class="b" d="M394.937,356.71a122.19,122.19,0,0,1-16.276-14.31,41.367,41.367,0,0,1-10.212-18.875,7.68,7.68,0,0,1,.8-6.314c12.978,10.129,23.173,23.323,25.689,39.5" transform="translate(-350.672 -162.376)"/><path class="b" d="M384.855,356.88a58.688,58.688,0,0,1,.3-21.374,28.888,28.888,0,0,1,11.379-17.626c2.249,5.231,1.283,11.279-.3,16.76a80.737,80.737,0,0,1-11.3,23.757" transform="translate(-340.074 -161.929)"/><path class="b" d="M404.85,355c-7.713.933-14.444,5-20.208,10.229a38.2,38.2,0,0,0-11.562,19.758c7.58-.467,13.994-5.814,18.659-11.8s7.9-12.561,13.011-18.159" transform="translate(-347.358 -137.209)"/><path class="b" d="M395.2,376.007a49.829,49.829,0,0,1,5.764-47.147c4.4,15.643,2.782,33.319-5.764,47.147" transform="translate(-334.937 -154.618)"/><path class="b" d="M417.878,369.209a36,36,0,0,0-34.469,19.842,2.649,2.649,0,0,0-.233,2.7,2.515,2.515,0,0,0,2.282.666c6.8-.433,12.811-4.515,17.792-9.179s9.3-10,14.777-14.044" transform="translate(-340.81 -127.794)"/><path class="b" d="M404.735,387.611a64.176,64.176,0,0,1-.65-35.851c1.266-4.615,3.332-9.479,7.664-11.662a1.466,1.466,0,0,1,1.166-.2,1.483,1.483,0,0,1,.733.85,21.659,21.659,0,0,1,1.816,10.3A64.961,64.961,0,0,1,413.8,361.46c-1.349,6.364-2.066,13.211-5.547,18.692a37.687,37.687,0,0,0-2.233,4.115c-.65,1.383-.65,1.883-1.266,2.982" transform="translate(-328.201 -147.296)"/><path class="b" d="M430.78,388.292c-3.332-12.528.2-27.738,8.113-38.017.583-.75,1.349-1.566,2.3-1.483,1.449.133,1.833,2.083,1.766,3.532a68.622,68.622,0,0,1-12.178,35.968" transform="translate(-309.765 -141.347)"/><path class="b" d="M432.69,379.406c15.243,3.965,32.7.1,45.381-9.229a36.651,36.651,0,0,0-24.573-3.015c-8.2,1.866-15.693,5.548-20.808,12.245" transform="translate(-307.66 -129.711)"/><path class="b" d="M434.72,378.663c8.53-13.911,24.889-22.99,41.183-23.823-1.866,6.664-7.314,11.778-13.461,14.894s-13.011,4.465-19.775,5.781c-2.632.516-6.231,1.083-7.947,3.149" transform="translate(-306.307 -137.316)"/><path class="b" d="M433.12,364a119.06,119.06,0,0,0,5.348-24.123c.633-8.213-.533-16.793-4.8-23.857-7.963,15.427-8.78,33.436-.7,48.813" transform="translate(-311.256 -163.169)"/><path class="b" d="M446.9,349.62c9.313-16.943,28.321-30.47,47.563-32.369-7.414,18.492-27.655,32.769-47.563,32.369" transform="translate(-298.197 -162.349)"/><path class="b" d="M443.38,339.785c13.894,2.116,25.739,11,38.734,16.376a17.393,17.393,0,0,0,8.746,1.666,6.864,6.864,0,0,0,4.3-12.128,18.679,18.679,0,0,0-6.364-3.848c-14.144-5.9-29.321-6.047-44.214-2.466" transform="translate(-300.541 -149.2)"/><path class="b" d="M438.55,344.789c3.149.9,4.215,2.532,6.664,4.665a72.451,72.451,0,0,0,29.371,15.077c1.116.283,2.6.4,3.149-.616s-.133-1.966-.766-2.749a40.484,40.484,0,0,0-17.676-12.045c-6.781-2.516-12.645-5.564-20.741-4.914" transform="translate(-303.758 -144.457)"/><path class="b" d="M433.1,309.779a55.56,55.56,0,0,0,42.615,14.51,2.9,2.9,0,0,0,1.932-.7c1.083-1.166-.2-2.966-1.449-3.948-12.528-9.763-27.7-13.811-43.1-9.862" transform="translate(-307.387 -168.322)"/><path class="b" d="M439.56,311.44a59.458,59.458,0,0,1,53.177-8.78A42.2,42.2,0,0,1,467.4,313.788a80.529,80.529,0,0,1-27.838-2.349" transform="translate(-303.085 -173.915)"/><path class="b" d="M439.869,305.635c-1.216-12.511-.433-22.374-1.3-34.985,0-1-.283-2.216-1.216-2.582-1.316-.5-2.4,1.116-2.832,2.449a39.983,39.983,0,0,0,5.331,34.785" transform="translate(-307.658 -195.165)"/><path class="b" d="M436.45,307.127a73.624,73.624,0,0,0,20.724-20.141c4.082-5.6,7.53-12.3,6.664-19.175a19.875,19.875,0,0,0-14.994,7.43,41.647,41.647,0,0,0-7.63,15.327c-1.666,5.5-2.815,11.145-4.764,16.56" transform="translate(-305.156 -195.275)"/><path class="b" d="M448.777,300.49a167.31,167.31,0,0,0,50.978-29.99c-6.1-2.449-13.061-.983-19.159,1.483-13.894,5.614-25.273,15.094-32.086,28.438" transform="translate(-297.125 -194.319)"/><path class="b" d="M439.89,301.418c9.413,1.016,18.975,1.666,28.321.133s17.842-5.181,26.422-8.78a3.131,3.131,0,0,0,1.8-1.366,2.066,2.066,0,0,0-.65-2.266,5.481,5.481,0,0,0-2.249-1.049c-9.329-2.616-19.392-1.383-28.555,1.666a131.707,131.707,0,0,0-25.073,11.662" transform="translate(-302.865 -182.719)"/><path class="b" d="M409.529,326c-6.431-12.961-6.014-28.088-.467-41.433,3.9,5.948,4.382,13.511,3.665,20.591s-2.865,14.377-3,21.491" transform="translate(-326.231 -184.112)"/><path class="b" d="M409.408,301.682a57.725,57.725,0,0,0-42.948,18.325c8,1.25,16.243-.816,23.523-4.365a118.775,118.775,0,0,0,20.141-13.494" transform="translate(-351.766 -172.72)"/><path class="b" d="M398.039,298.52c-7.847-.633-15.393-1.666-22.923.716a27.422,27.422,0,0,0-17.476,14.81,41.33,41.33,0,0,0,21.491-4.065,121.616,121.616,0,0,0,18.908-11.462" transform="translate(-357.64 -175.339)"/><path class="b" d="M415.584,303.183c-7.047-4.615-14.294-9.329-22.507-11.245s-17.726-.5-23.457,5.7c6.664,3.9,14.71,4.365,22.424,4.348s17.159,0,24.423,2.482" transform="translate(-349.662 -179.735)"/><path class="b" d="M402.716,318.312c-12.062-11.845-16.66-33.119-11.778-49.312a75.1,75.1,0,0,1,11.778,49.312" transform="translate(-336.744 -194.482)"/><path class="b" d="M417.15,294.014c2.266-5.281,3.865-10.829,5.914-16.21a46.413,46.413,0,0,1,8.43-14.994,22.191,22.191,0,0,1,14.994-7.73,60.141,60.141,0,0,1-28.988,39" transform="translate(-318.009 -203.752)"/><path class="b" d="M426.007,291.147c-3.765-5.181-8.113-12.211-13.211-16.076s-11.745-6.214-17.976-4.731a41.882,41.882,0,0,0,31.187,20.808" transform="translate(-332.88 -193.889)"/><path class="b" d="M416.838,294.24a89.459,89.459,0,0,1-5.947-19.259,30.1,30.1,0,0,1,3.015-19.592c6.664,12.511,8.763,25.939,3.332,39" transform="translate(-322.512 -203.546)"/><path class="b" d="M417.18,265.981c3.748-12.411,15.11-21.541,27.372-25.739a10.362,10.362,0,0,1,4.8-.716,4.182,4.182,0,0,1,3.549,2.949c.45,2.116-1.3,4.015-2.932,5.414a93.411,93.411,0,0,1-32.786,18.092" transform="translate(-317.989 -214.137)"/><path class="b" d="M417.353,265.969c.483-8,.983-16.11,3.582-23.69s7.613-14.694,14.91-18.009c1.249,8.08-2.316,16.11-6.664,23.074S419.7,260.854,417.12,268.6" transform="translate(-318.029 -224.27)"/><path class="b" d="M426.443,269.955c-3.1-9.029-3.432-20.524-8.846-28.321-3.782-5.514-9.846-9.263-13.094-15.094a22.941,22.941,0,0,0,.75,17.126,49.649,49.649,0,0,0,10,14.344c4,4.265,7.43,7.5,11.162,12.011" transform="translate(-327.302 -222.758)"/><path class="b" d="M417.367,520.112c-.233,0-.45-60.308-.466-134.693s.167-134.71.417-134.71.45,60.308.466,134.71S417.617,520.112,417.367,520.112Z" transform="translate(-318.176 -206.662)"/><path class="b" d="M469.923,304a15.126,15.126,0,0,1-2.266.85l-6.247,2.1c-5.264,1.8-12.495,4.4-20.325,7.613s-15.094,6.031-19.275,9.646a14.094,14.094,0,0,0-3.865,5.114c-.6,1.416-.716,2.283-.783,2.283s0-.233,0-.633a9.717,9.717,0,0,1,.45-1.766,13.526,13.526,0,0,1,3.782-5.464,33.664,33.664,0,0,1,8.33-5.181c3.332-1.566,7.064-3.2,11-4.815,7.863-3.215,15.144-5.731,20.475-7.38,2.649-.833,4.831-1.433,6.331-1.849A12.258,12.258,0,0,1,469.923,304Z" transform="translate(-318.021 -171.173)"/><path class="b" d="M485.536,278.512a4.238,4.238,0,0,1-.633.667l-1.932,1.816-7.23,6.564-24.057,21.424c-9.379,8.33-17.493,16.327-23.107,22.34-2.816,3-5,5.5-6.547,7.23-.716.8-1.282,1.466-1.749,2s-.633.683-.65.65a3.349,3.349,0,0,1,.516-.766c.367-.483.9-1.2,1.666-2.1,1.433-1.816,3.582-4.365,6.347-7.43a304.913,304.913,0,0,1,23.007-22.574c9.413-8.33,17.992-15.827,24.207-21.224l7.413-6.364,2.049-1.666C485.219,278.662,485.519,278.478,485.536,278.512Z" transform="translate(-316.357 -188.15)"/><path class="b" d="M432.8,310.251c-.25-.117,1.666-4.648,3.665-10.362s2.915-10.562,3.165-10.529a35.743,35.743,0,0,1-2.332,10.8,70.181,70.181,0,0,1-2.915,7.247,11.657,11.657,0,0,1-1.582,2.849Z" transform="translate(-307.602 -180.923)"/><path class="b" d="M431.212,341.418a10.7,10.7,0,0,1-1.449-1.666l-3.715-4.681c-3.115-4.031-7.413-9.579-12.228-15.66s-9.263-11.529-12.478-15.477l-3.815-4.765a11.679,11.679,0,0,1-1.316-1.8,11.654,11.654,0,0,1,1.566,1.583c.966,1.033,2.332,2.582,4,4.5,3.332,3.848,7.864,9.246,12.7,15.344s9.046,11.662,12.045,15.827c1.5,2.049,2.682,3.732,3.482,4.915a13.58,13.58,0,0,1,1.216,1.882Z" transform="translate(-331.954 -175.588)"/><path class="b" d="M412.673,322.2a21.09,21.09,0,0,1-4.848-9.063,26.4,26.4,0,0,1-1.1-9.13h.383c-.167.7-.283,1.066-.367,1.05s0-.4,0-1.116h.383a41.457,41.457,0,0,0,1.533,8.88,67.229,67.229,0,0,0,4.015,9.379Z" transform="translate(-324.978 -171.213)"/><path class="b" d="M411.736,305.145a14.781,14.781,0,0,0-3.332-1.966,22.443,22.443,0,0,0-9.379-.75,57.275,57.275,0,0,0-9.446,1.533,30.89,30.89,0,0,1-3.9.933,12.977,12.977,0,0,1,3.732-1.533,43.151,43.151,0,0,1,9.546-1.8,20.309,20.309,0,0,1,9.679,1.05,5.832,5.832,0,0,1,3.1,2.532Z" transform="translate(-338.967 -172.918)"/><path class="b" d="M413.864,303.128c0,.133-1.966-.8-5.181-1.883a52.563,52.563,0,0,0-12.911-2.666,53.682,53.682,0,0,0-13.178.666c-3.332.6-5.364,1.233-5.414,1.083a4.418,4.418,0,0,1,1.383-.583,33.639,33.639,0,0,1,3.9-1.1,46.117,46.117,0,0,1,26.439,2.016,33.139,33.139,0,0,1,3.7,1.666,4.833,4.833,0,0,1,1.266.8Z" transform="translate(-344.627 -175.449)"/><path class="b" d="M419.834,299.929a105.522,105.522,0,0,1-3.782-13.111,107.9,107.9,0,0,1-2.932-13.328,109.971,109.971,0,0,1,3.782,13.128,108.067,108.067,0,0,1,2.932,13.311Z" transform="translate(-320.693 -191.492)"/><path class="b" d="M421.426,295.041a65.358,65.358,0,0,0-4.182-7.846,34.782,34.782,0,0,0-6.164-6.364,5.868,5.868,0,0,1,2.382,1.233,19.608,19.608,0,0,1,4.5,4.632,17.41,17.41,0,0,1,3.465,8.346Z" transform="translate(-322.051 -186.604)"/><path class="b" d="M439.256,428.309c-.083,0-.266-1.449-.95-4.015a56.642,56.642,0,0,0-4.031-10.429c-4.165-8.513-11.745-19.325-21.374-30.137-4.781-5.448-9.413-10.6-13.328-15.527a107.6,107.6,0,0,1-9.529-13.744,64.724,64.724,0,0,1-4.814-10.212c-.45-1.266-.767-2.232-.95-2.915a4.091,4.091,0,0,1-.25-1.05c.083,0,.516,1.383,1.516,3.848a72.19,72.19,0,0,0,5,10,111.609,111.609,0,0,0,9.629,13.561c3.948,4.881,8.58,10,13.328,15.46,9.663,10.845,17.226,21.774,21.291,30.437a52.682,52.682,0,0,1,3.8,10.629,28.074,28.074,0,0,1,.533,3.015,4.677,4.677,0,0,1,.129,1.079Z" transform="translate(-340.065 -147.012)"/><path class="b" d="M464.81,360.83a19.541,19.541,0,0,1-2.5,1.4,53.974,53.974,0,0,0-6.464,4.282,74.6,74.6,0,0,0-8.513,7.763c-2.982,3.149-6.048,6.814-9.2,10.729-6.264,7.88-12.128,14.844-15.643,20.391-1.783,2.765-3.082,5.1-3.932,6.664a20.764,20.764,0,0,1-1.383,2.516,2.882,2.882,0,0,1,.233-.7c.183-.45.433-1.133.833-1.966a67.278,67.278,0,0,1,3.715-6.88c3.415-5.7,9.246-12.761,15.493-20.625,3.149-3.915,6.264-7.6,9.3-10.745a70.7,70.7,0,0,1,8.713-7.68,44.851,44.851,0,0,1,6.664-4.1c.816-.417,1.5-.666,1.949-.85a2.426,2.426,0,0,1,.733-.2Z" transform="translate(-317.989 -133.327)"/><path class="b" d="M459.489,371.334a39.113,39.113,0,0,1-5.281.766,69.632,69.632,0,0,0-12.511,2.466,37.431,37.431,0,0,0-11.2,5.881c-2.582,1.982-3.8,3.632-3.932,3.548a4.347,4.347,0,0,1,.783-1.216,19.831,19.831,0,0,1,2.749-2.816,34.036,34.036,0,0,1,11.328-6.231,56.9,56.9,0,0,1,12.728-2.249,29.033,29.033,0,0,1,5.336-.149Z" transform="translate(-311.735 -126.371)"/><path class="b" d="M427.509,384.906c-.283-.167,2.1-3.8,3.948-8.68s2.132-9.246,2.449-9.2a8.9,8.9,0,0,1-.1,2.832,30,30,0,0,1-1.533,6.664,31.411,31.411,0,0,1-3.065,6.114,8.8,8.8,0,0,1-1.7,2.266Z" transform="translate(-311.125 -129.198)"/><path class="b" d="M480.167,332.71a3.563,3.563,0,0,1-.85.45l-2.482,1.116c-1.083.466-2.4,1.066-3.882,1.849s-3.232,1.566-5,2.649l-2.866,1.666c-1,.583-2,1.249-3.049,1.916-2.116,1.283-4.248,2.866-6.514,4.5a112.238,112.238,0,0,0-25.089,25.956c-1.549,2.332-3.049,4.5-4.265,6.664-.616,1.083-1.266,2.082-1.816,3.1l-1.533,2.949c-1.016,1.833-1.749,3.6-2.482,5.115a41.941,41.941,0,0,0-1.666,3.948c-.4,1.1-.766,1.866-1.033,2.516a3.219,3.219,0,0,1-.433.866,4.731,4.731,0,0,1,.267-.916c.233-.683.516-1.533.883-2.582s.883-2.482,1.583-4.015,1.366-3.332,2.366-5.214l1.5-2.982c.516-1.033,1.166-2.049,1.766-3.149,1.2-2.182,2.7-4.4,4.231-6.747A107.173,107.173,0,0,1,455.094,346.2a78.844,78.844,0,0,1,6.664-4.465c1.066-.65,2.066-1.316,3.082-1.883l2.932-1.666c1.833-1.05,3.6-1.816,5.115-2.549a37.981,37.981,0,0,1,3.965-1.666l2.549-.983a3.492,3.492,0,0,1,.766-.283Z" transform="translate(-317.969 -152.054)"/><path class="b" d="M432.4,350.388a6.131,6.131,0,0,1,2.082-3.082,13.077,13.077,0,0,1,8.33-3.215,23.321,23.321,0,0,1,8.8,1.666,12.4,12.4,0,0,1,3.332,1.666,20.555,20.555,0,0,1-3.532-1.033,26.44,26.44,0,0,0-8.546-1.416,13.53,13.53,0,0,0-7.98,2.8,24.992,24.992,0,0,0-2.486,2.614Z" transform="translate(-307.853 -144.475)"/><path class="b" d="M429,357.667a31.651,31.651,0,0,0,2.382-7.713,32,32,0,0,0-.533-8.063,5.312,5.312,0,0,1,.966,2.249,15.96,15.96,0,0,1-1.349,11.561C429.766,357.067,429.117,357.716,429,357.667Z" transform="translate(-310.117 -145.94)"/><path class="b" d="M392.18,398.31c1.3,23.057,8.247,46.5,18.925,70.187h46.464c10.179-23.457,16.66-46.864,17.792-70.187Z" transform="translate(-334.638 -108.367)"/><path class="c" d="M464.9,420.873c0,.233-15.293.433-34.152.433s-34.169-.2-34.169-.433,15.293-.433,34.169-.433S464.9,420.623,464.9,420.873Z" transform="translate(-331.707 -93.629)"/><path class="c" d="M462.606,425.883c0,.233-14.344.433-32.02.433s-32.036-.2-32.036-.433,14.344-.433,32.036-.433S462.606,425.65,462.606,425.883Z" transform="translate(-330.396 -90.293)"/><path class="c" d="M404.173,407.39a132.492,132.492,0,0,1,0,21.407,132.45,132.45,0,0,1,0-21.407Z" transform="translate(-326.939 -102.32)"/><path class="c" d="M419.1,407.39a142.077,142.077,0,0,1,0,22.174,142.088,142.088,0,0,1,0-22.174Z" transform="translate(-316.996 -102.32)"/><path class="c" d="M433.173,407.28a147.7,147.7,0,0,1,0,22.607A147.683,147.683,0,0,1,433.173,407.28Z" transform="translate(-307.626 -102.393)"/><path class="c" d="M473.263,407.563c0,.25-17.942.45-40.066.45s-40.066-.2-40.066-.45,17.926-.433,40.066-.433S473.263,407.33,473.263,407.563Z" transform="translate(-334.005 -102.493)"/></g></g><g transform="translate(1.783 682.885)"><path class="d" d="M753.811,446.173c0,.233-161.332.433-360.314.433s-360.347-.2-360.347-.433,161.3-.433,360.347-.433S753.811,445.923,753.811,446.173Z" transform="translate(-33.15 -445.74)"/></g><g transform="translate(172.658 -4.323)"><path class="e" d="M304.826,10.907c-12.907-.457-31.108-1.115-52.193-1.885-21.183-.773-45.3-1.659-69.9-2.567-24.725-.911-49.933-1.845-73.079-2.7C86.392,2.886,65.236,2.1,48.8,1.481a44.683,44.683,0,0,0-7.918.418,43.194,43.194,0,0,0-7.566,1.784,41.034,41.034,0,0,0-7,3.083,38.542,38.542,0,0,0-6.221,4.315,36.123,36.123,0,0,0-5.128,5.36,34.162,34.162,0,0,0-3.8,6.138A32.9,32.9,0,0,0,8.79,29.308a32.5,32.5,0,0,0-.858,7.131L.493,664.809a39.037,39.037,0,0,0,12.435,29.239,41.2,41.2,0,0,0,13.8,8.515,43.822,43.822,0,0,0,16.946,2.682l275.956-10.69a41.532,41.532,0,0,0,33.517-19.422,40.7,40.7,0,0,0,5.631-14.717,40.092,40.092,0,0,0,.562-7.921L343.633,47.524a33.425,33.425,0,0,0-.891-6.935,35.119,35.119,0,0,0-2.3-6.65,37.111,37.111,0,0,0-3.623-6.182,39.125,39.125,0,0,0-4.86-5.53,40.877,40.877,0,0,0-5.882-4.606,42.3,42.3,0,0,0-21.25-6.713Z"/><path class="f" d="M281.241,9.7,236.2,8.122A11.392,11.392,0,0,0,234,8.3a11.028,11.028,0,0,0-2.086.591A10.685,10.685,0,0,0,230,9.873a10.411,10.411,0,0,0-1.672,1.35,10.263,10.263,0,0,0-2.882,5.592,10.579,10.579,0,0,0-.136,2.159l.116,8.059a10.626,10.626,0,0,1-.136,2.165,10.334,10.334,0,0,1-2.89,5.622,10.521,10.521,0,0,1-1.681,1.364,10.8,10.8,0,0,1-1.921,1,11.132,11.132,0,0,1-2.1.6,11.482,11.482,0,0,1-2.223.187l-89.928-2.854a12.229,12.229,0,0,1-8.149-3.7,11.823,11.823,0,0,1-1.417-1.78,11.489,11.489,0,0,1-1.028-1.98,11.14,11.14,0,0,1-.615-2.121,10.826,10.826,0,0,1-.178-2.2l-.015-8.218a10.8,10.8,0,0,0-.175-2.2,11.1,11.1,0,0,0-.612-2.117,11.456,11.456,0,0,0-1.025-1.977,11.807,11.807,0,0,0-1.413-1.778,12.1,12.1,0,0,0-1.739-1.49,12.323,12.323,0,0,0-6.411-2.228L85.6,2.758,44.477,1.314a38.8,38.8,0,0,0-7.306.438,37.932,37.932,0,0,0-6.979,1.777,36.861,36.861,0,0,0-6.456,3.05A35.741,35.741,0,0,0,18,10.836a34.762,34.762,0,0,0-4.725,5.279A33.832,33.832,0,0,0,6.8,35.766L.421,651.607A40.518,40.518,0,0,0,3.4,667.475a38.725,38.725,0,0,0,8.493,12.774A37.818,37.818,0,0,0,24.6,688.613a38.282,38.282,0,0,0,15.612,2.664l254.83-9.864a36.291,36.291,0,0,0,7.419-1.075,37,37,0,0,0,7.018-2.55,37.98,37.98,0,0,0,6.419-3.925,39.079,39.079,0,0,0,5.624-5.2,40.172,40.172,0,0,0,4.55-6.238,41.052,41.052,0,0,0,3.279-6.962,41.636,41.636,0,0,0,2.456-15.247L317.218,45.608a34.766,34.766,0,0,0-.827-6.823,35.916,35.916,0,0,0-2.134-6.538,36.947,36.947,0,0,0-3.36-6.072,37.712,37.712,0,0,0-4.506-5.426,38.126,38.126,0,0,0-11.584-7.913,37.608,37.608,0,0,0-6.627-2.206,36.754,36.754,0,0,0-6.939-.93Z" transform="translate(13.996 13.559)"/><path class="g" d="M281.7,10.066h.078l.232.008.381.013.526.018q.449.02.9.056t.9.085q.448.05.894.115t.892.144a35.007,35.007,0,0,1,3.5.743,35.715,35.715,0,0,1,9.832,4.294q1.135.686,2.216,1.45t2.1,1.6q1.023.838,1.983,1.746t1.854,1.884q1.087,1.173,2.067,2.428t1.846,2.583q.866,1.327,1.615,2.721t1.373,2.845q.723,1.7,1.272,3.442t.921,3.523a36.192,36.192,0,0,1,.564,3.579,35.669,35.669,0,0,1,.2,3.608q.047,1.92.1,3.905l.1,4.034q.051,2.049.1,4.161l.106,4.288c.288,11.621.608,24.577.962,38.8q.532,21.4,1.164,46.6.634,25.253,1.369,54.152.738,28.99,1.578,61.489.844,32.621,1.74,68.626.9,36.161,1.867,75.575.972,39.605,2.016,82.333,1.052,42.955,2.188,88.9l1.457,58.814q.018.746.018,1.5t-.011,1.515q-.011.76-.027,1.522t-.028,1.523q-.066.761-.157,1.518t-.207,1.512q-.116.754-.258,1.5t-.307,1.5a42.206,42.206,0,0,1-1.764,5.9,41.753,41.753,0,0,1-2.581,5.529,41.085,41.085,0,0,1-3.349,5.068,40.251,40.251,0,0,1-4.066,4.513q-1.11,1.038-2.286,1.99t-2.413,1.812q-1.237.861-2.53,1.628T309.99,678.6q-1.37.644-2.78,1.176t-2.853.947q-1.443.415-2.912.714t-2.959.476l-3,.277-69.809,2.75-101.959,4.02-53.029,2.09L43.7,692.1a40.9,40.9,0,0,1-6.9.088,40.143,40.143,0,0,1-6.736-1.065,39.515,39.515,0,0,1-12.426-5.464,38.6,38.6,0,0,1-5.289-4.345,39.009,39.009,0,0,1-4.429-5.188,39.673,39.673,0,0,1-3.48-5.906,40.508,40.508,0,0,1-2.45-6.508q-.452-1.676-.774-3.385T.7,656.887q-.19-1.731-.248-3.48t.017-3.5L.61,636.115.75,622.4l.139-13.633.138-13.547L1.17,581.75l.272-26.642.269-26.289.265-25.94.261-25.6L2.749,427.2q.252-24.626.5-48.594l.481-47.085.47-45.55.45-44,.433-42.432L5.495,158.7l.4-39.213L6.089,100.5l.19-18.571L6.465,63.77l.181-17.752.09-8.833c0-.36.015-.722.03-1.083s.035-.723.057-1.085l.066-1.084c.022-.361.042-.722.058-1.081s.052-.718.1-1.074.111-.712.179-1.066.142-.707.216-1.058.147-.7.213-1.052A35.42,35.42,0,0,1,12.814,17a34.044,34.044,0,0,1,8.922-8.965,37.021,37.021,0,0,1,7.4-3.974A38.3,38.3,0,0,1,37.313,1.81a39.321,39.321,0,0,1,8.644-.41L78.295,2.537l23.042.81a12.381,12.381,0,0,1,3.8.442,12.523,12.523,0,0,1,3.416,1.528,12.264,12.264,0,0,1,2.789,2.455A11.71,11.71,0,0,1,113.257,11q.165.422.3.852t.236.867q.1.437.173.878t.109.887c.025.3.038.6.043.888s0,.581,0,.868-.014.573-.021.858-.013.572-.012.86V24.79a11.21,11.21,0,0,0,.293,1.638,11.446,11.446,0,0,0,.531,1.581,11.706,11.706,0,0,0,.76,1.5,11.975,11.975,0,0,0,.978,1.393,11.381,11.381,0,0,0,1.161,1.228,11.7,11.7,0,0,0,4.387,2.512q.825.183,1.659.313t1.67.208q.837.077,1.676.1t1.677,0l13.235.42,47.99,1.525,20.991.667,1.216.039,1.242.039,1.242.039,1.215.039a10.356,10.356,0,0,0,1.169-.16,10.162,10.162,0,0,0,1.133-.29,9.979,9.979,0,0,0,1.084-.416,9.807,9.807,0,0,0,1.025-.539,10.643,10.643,0,0,0,1.787-1.3,10.391,10.391,0,0,0,3.222-5.567q.1-.521.162-1.047t.1-1.056q.032-.53.031-1.063t-.034-1.066l-.058-3.991q-.027-.51-.034-1.019t0-1.017q.014-.508.05-1.014t.091-1.009q.068-.489.181-.967t.269-.942q.156-.463.354-.91t.438-.874a10.3,10.3,0,0,1,2.327-2.88,10.525,10.525,0,0,1,1.515-1.086A10.774,10.774,0,0,1,232.54,9a16.9,16.9,0,0,1,1.722-.4,17.2,17.2,0,0,1,1.759-.221,17.492,17.492,0,0,1,1.782-.04,17.75,17.75,0,0,1,1.79.142L262.7,9.4l14.09.495,4.8.168-.294-.01-.89-.031-1.5-.053-2.114-.074L262.7,9.4l-23.093-.811a17.657,17.657,0,0,0-1.767-.132,17.4,17.4,0,0,0-1.758.046,17.117,17.117,0,0,0-1.735.224,16.832,16.832,0,0,0-1.7.4,10.516,10.516,0,0,0-1.666.8A10.268,10.268,0,0,0,229.5,10.99a10.051,10.051,0,0,0-2.267,2.817q-.229.418-.419.855t-.34.889q-.15.452-.26.918t-.178.942q-.052.5-.084,1t-.045,1q-.013.5-.005,1t.034,1.007L226,25.6q.035.541.037,1.081t-.027,1.078q-.03.538-.092,1.072t-.157,1.063a10.742,10.742,0,0,1-3.3,5.735,10.991,10.991,0,0,1-1.831,1.342,10.244,10.244,0,0,1-1.066.542,10.423,10.423,0,0,1-1.124.417,10.622,10.622,0,0,1-1.172.287,10.816,10.816,0,0,1-1.208.155c-.4.014-.8.015-1.208.007s-.82-.024-1.234-.044-.832-.043-1.25-.065-.837-.042-1.255-.055L125.575,35.5q-.435-.008-.87-.045t-.865-.1q-.431-.067-.858-.162t-.847-.22a12.32,12.32,0,0,1-3.2-1.535,12.179,12.179,0,0,1-1.39-1.09,11.994,11.994,0,0,1-1.217-1.281,12.7,12.7,0,0,1-1.015-1.446,12.436,12.436,0,0,1-.794-1.554,12.159,12.159,0,0,1-.562-1.638,11.9,11.9,0,0,1-.321-1.7c-.034-.579-.051-1.153-.058-1.725s0-1.142,0-1.712.018-1.14.027-1.713.016-1.149.015-1.729V14.422q-.036-.428-.1-.852t-.169-.844q-.1-.419-.233-.832t-.3-.816A11.142,11.142,0,0,0,110.993,8a11.672,11.672,0,0,0-2.66-2.341A11.918,11.918,0,0,0,105.074,4.2a11.781,11.781,0,0,0-3.623-.416l-55.5-1.948a38.7,38.7,0,0,0-8.452.45,37.688,37.688,0,0,0-7.985,2.235A36.433,36.433,0,0,0,22.3,8.43,34.244,34.244,0,0,0,11.43,20.815,34.712,34.712,0,0,0,8.5,28.634q-.093.519-.189,1.038t-.186,1.04c-.06.347-.116.7-.167,1.044s-.1.7-.133,1.05-.071.7-.1,1.057-.054.709-.074,1.065S7.62,35.644,7.614,36s-.006.723,0,1.088l-.831,82.163-.4,39.2L5.97,199.276q-.211,20.846-.429,42.424l-.445,44L3.165,477.127l-.259,25.58L2.644,528.64l-.266,26.29-.27,26.652-.136,13.433L1.836,608.55,1.7,622.19l-.139,13.745-.139,13.772q-.074,1.721-.018,3.435t.242,3.411q.186,1.7.5,3.372t.759,3.318A39.526,39.526,0,0,0,5.3,669.6a38.709,38.709,0,0,0,3.4,5.776,38.053,38.053,0,0,0,4.33,5.069,37.646,37.646,0,0,0,5.172,4.244,38.564,38.564,0,0,0,12.17,5.345,39.182,39.182,0,0,0,6.6,1.035,39.912,39.912,0,0,0,6.759-.1l27.016-1.061,53.023-2.082,101.942-4,48.855-1.919,20.845-.819,2.931-.274q1.457-.173,2.9-.465t2.849-.7q1.411-.407,2.79-.929t2.718-1.155q1.326-.646,2.6-1.391t2.494-1.585q1.218-.84,2.376-1.772t2.249-1.952A39.1,39.1,0,0,0,323.3,666.5a39.907,39.907,0,0,0,3.283-4.906,40.528,40.528,0,0,0,2.539-5.359,40.962,40.962,0,0,0,1.746-5.72q.165-.728.3-1.461t.254-1.47q.115-.737.2-1.477t.154-1.484c-.012-.5-.01-.995,0-1.491s.025-.994.039-1.491.028-.995.033-1.493,0-1-.02-1.5l-.3-11.966-.293-11.858-.29-11.761q-.145-5.854-.288-11.665t-.286-11.569q-1.133-45.914-2.179-88.9-1.039-42.7-1.994-82.336-.95-39.383-1.819-75.58-.865-35.976-1.653-68.638-.784-32.474-1.479-61.5-.691-28.868-1.292-54.153-.6-25.158-1.105-46.593-.505-21.334-.919-38.8l-.106-4.288-.1-4.161q-.051-2.049-.1-4.034t-.1-3.9A35.875,35.875,0,0,0,316.8,39.8q-.357-1.762-.89-3.494t-1.239-3.426q-.62-1.44-1.363-2.825t-1.6-2.7q-.858-1.319-1.828-2.568t-2.046-2.417q-.884-.976-1.836-1.885t-1.967-1.746q-1.015-.837-2.09-1.6t-2.2-1.448q-1.519-.957-3.119-1.756t-3.263-1.431a35.526,35.526,0,0,0-3.381-1.1,35.125,35.125,0,0,0-3.471-.751q-.445-.083-.892-.153t-.894-.125q-.448-.056-.9-.1t-.9-.07Z" transform="translate(13.537 13.195)"/><path class="h" d="M6.358,2.81,243.1.066A5.569,5.569,0,0,1,245.318.5a5.74,5.74,0,0,1,1.828,1.224,5.915,5.915,0,0,1,1.743,4.09l.852,42.62a5.993,5.993,0,0,1-.4,2.292,5.875,5.875,0,0,1-1.185,1.888,5.69,5.69,0,0,1-1.788,1.291,5.54,5.54,0,0,1-2.212.5L6.017,58.6A5.835,5.835,0,0,1,.5,55.006a5.948,5.948,0,0,1-.457-2.341l.3-43.814a6.01,6.01,0,0,1,.48-2.33A6.157,6.157,0,0,1,4.028,3.306a6.035,6.035,0,0,1,2.33-.5Z" transform="translate(47.962 444.855)"/><path class="d" d="M7.064,8.925v.891L0,9.753.06,0,6.91.069v.89L1.1.9,1.08,4.364l5.165.05V5.3l-5.17-.049L1.053,8.87Z" transform="translate(55.095 246.525)"/><path class="d" d="M0,0,3.73.035V.909L0,.874Z" transform="translate(63.606 252.148)"/><path class="d" d="M12.347,3.271,12.334,7.5l-1.008-.009.014-4.133a3.319,3.319,0,0,0-.14-1.019,1.973,1.973,0,0,0-.416-.74,1.757,1.757,0,0,0-.669-.453,2.54,2.54,0,0,0-.9-.159,2.457,2.457,0,0,0-1.024.167,2.42,2.42,0,0,0-.458.239,2.386,2.386,0,0,0-.4.334A2.288,2.288,0,0,0,6.7,3.613L6.684,7.452l-1.01-.009L5.69,3.307a3.31,3.31,0,0,0-.14-1.022,1.965,1.965,0,0,0-.418-.741,1.766,1.766,0,0,0-.674-.453A2.592,2.592,0,0,0,3.547.932,2.462,2.462,0,0,0,2.521,1.1a2.422,2.422,0,0,0-.458.239,2.39,2.39,0,0,0-.4.334A2.33,2.33,0,0,0,1.026,3.56L1.011,7.4,0,7.391.033.074l.96.009L.987,1.417A2.987,2.987,0,0,1,1.511.809,3.042,3.042,0,0,1,2.17.365,3.1,3.1,0,0,1,3.736.044,2.745,2.745,0,0,1,5.313.423a2.7,2.7,0,0,1,.625.51,2.647,2.647,0,0,1,.449.685A3.278,3.278,0,0,1,6.951.956,3.335,3.335,0,0,1,7.66.469,3.4,3.4,0,0,1,9.351.1a2.879,2.879,0,0,1,1.788.482,2.836,2.836,0,0,1,.48.406,2.794,2.794,0,0,1,.376.5,2.756,2.756,0,0,1,.251.562,2.713,2.713,0,0,1,.1,1.221Z" transform="translate(69.591 249.018)"/><path class="d" d="M6.254,2.932l-.01,4.524-.956-.009V6.312a2.736,2.736,0,0,1-.5.55,2.783,2.783,0,0,1-.618.393,2.839,2.839,0,0,1-1.454.252A3.9,3.9,0,0,1,1.587,7.34a2.565,2.565,0,0,1-.855-.446,1.942,1.942,0,0,1-.54-.681,2.013,2.013,0,0,1-.186-.871,2.3,2.3,0,0,1,.149-.857,1.552,1.552,0,0,1,.485-.65,2.3,2.3,0,0,1,.887-.407A5.458,5.458,0,0,1,2.882,3.3l2.365.022V2.873a2.365,2.365,0,0,0-.132-.829,1.547,1.547,0,0,0-.4-.606,1.746,1.746,0,0,0-.66-.375A3.077,3.077,0,0,0,3.14.929a3.9,3.9,0,0,0-1.319.2,3.851,3.851,0,0,0-.61.264,3.811,3.811,0,0,0-.557.367L.2,1.016A4.732,4.732,0,0,1,.891.586,4.8,4.8,0,0,1,2.427.1,4.852,4.852,0,0,1,3.243.059,2.706,2.706,0,0,1,4.98.413a2.672,2.672,0,0,1,.481.365,2.636,2.636,0,0,1,.385.461,2.6,2.6,0,0,1,.266.527,2.556,2.556,0,0,1,.143,1.165ZM5.243,5.258v-1.2L2.914,4.035a3.624,3.624,0,0,0-.908.091,1.575,1.575,0,0,0-.591.27,1.021,1.021,0,0,0-.321.414,1.347,1.347,0,0,0-.1.524,1.172,1.172,0,0,0,.125.534,1.294,1.294,0,0,0,.366.438,1.82,1.82,0,0,0,.59.3,2.809,2.809,0,0,0,.8.114,2.4,2.4,0,0,0,.754-.062,2.375,2.375,0,0,0,.678-.284A2.33,2.33,0,0,0,4.86,5.9a2.286,2.286,0,0,0,.383-.638Z" transform="translate(84.058 249.141)"/><path class="d" d="M.019.722A.7.7,0,0,1,.078.442.716.716,0,0,1,.236.214.73.73,0,0,1,.471.061a.75.75,0,0,1,.807.163.731.731,0,0,1,.157.231.709.709,0,0,1-.159.79.731.731,0,0,1-.234.152.743.743,0,0,1-.287.054A.736.736,0,0,1,.229,1.24.71.71,0,0,1,.019.722ZM.233,3.04l1.022.01-.014,7.3L.218,10.339Z" transform="translate(92.817 246.282)"/><path class="d" d="M.016,0l1,.01L1,10.309,0,10.3Z" transform="translate(96.856 246.356)"/><path d="M7.9,3.452a3.469,3.469,0,0,1-.3,1.422,2.882,2.882,0,0,1-.822,1.06,3.736,3.736,0,0,1-1.3.662,6.146,6.146,0,0,1-1.735.23H1.027l-.02,3.155H0L.066,0H3.839a5.857,5.857,0,0,1,1.7.255A3.7,3.7,0,0,1,6.818.943a2.934,2.934,0,0,1,.8,1.079A3.513,3.513,0,0,1,7.9,3.452Zm-1.058,0a2.653,2.653,0,0,0-.2-1.052,2.018,2.018,0,0,0-.585-.782,2.654,2.654,0,0,0-.96-.49A4.841,4.841,0,0,0,3.764.961h-2.7l-.03,5.058h2.7a4.621,4.621,0,0,0,1.339-.181,2.772,2.772,0,0,0,.982-.514,2.187,2.187,0,0,0,.606-.808,2.669,2.669,0,0,0,.211-1.061Z" transform="translate(50.685 343.536)"/><path d="M6.383,2.94,6.361,7.572H5.389L5.4,6.411A2.859,2.859,0,0,1,2.785,7.645a4,4,0,0,1-1.153-.156,2.594,2.594,0,0,1-.873-.442A1.937,1.937,0,0,1,.2,6.361a2.02,2.02,0,0,1-.19-.887,2.356,2.356,0,0,1,.156-.88,1.627,1.627,0,0,1,.5-.67A2.4,2.4,0,0,1,1.577,3.5a5.559,5.559,0,0,1,1.38-.151h2.4V2.894a2.425,2.425,0,0,0-.132-.847,1.557,1.557,0,0,0-.4-.617,1.741,1.741,0,0,0-.67-.377,3.085,3.085,0,0,0-.93-.131A3.952,3.952,0,0,0,.7,1.8L.241,1.042A4.906,4.906,0,0,1,3.332.03a2.718,2.718,0,0,1,1.211.1,2.677,2.677,0,0,1,1.04.614,2.627,2.627,0,0,1,.8,2.2ZM5.349,5.332,5.355,4.1H2.986a3.757,3.757,0,0,0-.933.1,1.647,1.647,0,0,0-.606.281,1.057,1.057,0,0,0-.329.422,1.35,1.35,0,0,0-.1.528,1.177,1.177,0,0,0,.128.541,1.354,1.354,0,0,0,.376.451,1.859,1.859,0,0,0,.6.308,2.738,2.738,0,0,0,.811.113,2.448,2.448,0,0,0,2.036-.9,2.4,2.4,0,0,0,.38-.675Z" transform="translate(59.925 345.961)"/><path d="M0,6.688.468,5.9a4.486,4.486,0,0,0,.613.368,4.525,4.525,0,0,0,1.356.423,4.551,4.551,0,0,0,.717.048,4.261,4.261,0,0,0,.92-.089A1.9,1.9,0,0,0,4.7,6.4a1.044,1.044,0,0,0,.363-.388,1.081,1.081,0,0,0,.117-.5.974.974,0,0,0-.762-.932A10.542,10.542,0,0,0,2.74,4.2a4.643,4.643,0,0,1-1.682-.559A1.65,1.65,0,0,1,.3,2.141a1.9,1.9,0,0,1,.2-.852A1.945,1.945,0,0,1,1.073.612,2.819,2.819,0,0,1,2.009.164,4.71,4.71,0,0,1,3.285,0,5.147,5.147,0,0,1,5.969.707l-.462.808A3.865,3.865,0,0,0,3.282.877,3.764,3.764,0,0,0,2.4.97a1.844,1.844,0,0,0-.61.257,1.08,1.08,0,0,0-.355.389,1.054,1.054,0,0,0-.117.49,1.016,1.016,0,0,0,.761.975,9.553,9.553,0,0,0,1.683.39,4.877,4.877,0,0,1,1.682.548A1.58,1.58,0,0,1,6.2,5.468a1.842,1.842,0,0,1-.215.878,1.922,1.922,0,0,1-.616.669,3.065,3.065,0,0,1-.985.427,5.426,5.426,0,0,1-1.323.151,4.977,4.977,0,0,1-1.608-.2A4.927,4.927,0,0,1,0,6.688Z" transform="translate(68.023 345.984)"/><path d="M0,6.683l.462-.792a4.481,4.481,0,0,0,.613.367,4.519,4.519,0,0,0,1.354.423,4.544,4.544,0,0,0,.716.047,4.3,4.3,0,0,0,.926-.089A1.879,1.879,0,0,0,4.7,6.39,1.028,1.028,0,0,0,5.06,6a1.1,1.1,0,0,0,.115-.5.974.974,0,0,0-.761-.931A10.526,10.526,0,0,0,2.733,4.2a4.637,4.637,0,0,1-1.68-.559,1.651,1.651,0,0,1-.759-1.5,1.875,1.875,0,0,1,.2-.852A1.954,1.954,0,0,1,1.075.611a2.849,2.849,0,0,1,.94-.447A4.727,4.727,0,0,1,3.291,0,5.127,5.127,0,0,1,5.955.7l-.444.807A3.913,3.913,0,0,0,3.288.876,3.83,3.83,0,0,0,2.4.969a1.856,1.856,0,0,0-.614.257,1.077,1.077,0,0,0-.356.389,1.05,1.05,0,0,0-.116.49,1.016,1.016,0,0,0,.761.974,9.537,9.537,0,0,0,1.681.39,4.869,4.869,0,0,1,1.68.547,1.58,1.58,0,0,1,.759,1.447,1.857,1.857,0,0,1-.211.878,1.9,1.9,0,0,1-.609.669,3.017,3.017,0,0,1-.978.427,5.38,5.38,0,0,1-1.318.151,4.983,4.983,0,0,1-1.614-.2A4.938,4.938,0,0,1,0,6.683Z" transform="translate(75.053 345.979)"/><path d="M12.378,0,9.518,7.458H8.552L6.193,1.347,3.8,7.467H2.835L.024.008H.991L3.348,6.341,5.79,0h.864L9.046,6.333,11.447,0Z" transform="translate(81.682 346.039)"/><path d="M.009,3.831A3.791,3.791,0,0,1,.652,1.709a3.856,3.856,0,0,1,5.91-.6A3.791,3.791,0,0,1,6.809,6.23,3.863,3.863,0,0,1,3.845,7.621a3.718,3.718,0,0,1-2.159-.59,3.653,3.653,0,0,1-1.677-3.2ZM6.64,3.824A2.761,2.761,0,0,0,5.75,1.9,2.82,2.82,0,0,0,1.227,2.916a2.765,2.765,0,0,0,.642,3.023,2.8,2.8,0,0,0,1.977.792,2.755,2.755,0,0,0,2.041-.845A2.714,2.714,0,0,0,6.64,3.821Z" transform="translate(94.603 345.933)"/><path d="M3.787.017V.988H3.55a2.44,2.44,0,0,0-1.919.783A2.4,2.4,0,0,0,1.016,3.74V7.531H0V.086H.98V1.543A2.8,2.8,0,0,1,3.787.017Z" transform="translate(104.333 345.946)"/><path d="M7.669,0l.006,10.5H6.7V9.024A3.246,3.246,0,0,1,3.817,10.57a3.785,3.785,0,1,1,0-7.57A3.369,3.369,0,0,1,6.661,4.471L6.659,0Zm-.99,6.779a2.763,2.763,0,0,0-.89-1.917,2.807,2.807,0,0,0-4.508,1.01A2.766,2.766,0,0,0,1.926,8.89,2.8,2.8,0,0,0,3.9,9.68a2.74,2.74,0,0,0,2.034-.843,2.7,2.7,0,0,0,.747-2.059Z" transform="translate(109.046 342.963)"/><path class="i" d="M7.483.056,237.247,1.874a6.832,6.832,0,0,1,2.645.555,7.075,7.075,0,0,1,3.671,3.644,6.918,6.918,0,0,1,.584,2.65l.764,38.191a6.809,6.809,0,0,1-.481,2.668,6.672,6.672,0,0,1-1.413,2.178,6.6,6.6,0,0,1-4.771,2L7.165,53.26a7.222,7.222,0,0,1-2.784-.56,7.144,7.144,0,0,1-2.268-1.516A7.013,7.013,0,0,1,.592,48.939,6.9,6.9,0,0,1,.048,46.2L.313,6.977A6.827,6.827,0,0,1,.891,4.264,6.971,6.971,0,0,1,2.434,2.058,7.134,7.134,0,0,1,4.708.582,7.225,7.225,0,0,1,7.483.056Z" transform="translate(49.201 266.82)"/><path class="g" d="M234.144,54.184h.562a2.236,2.236,0,0,0,.251-.01c.091-.01.189-.015.293-.028s.215-.032.332-.056q.524-.069,1.037-.189t1.009-.289a10.053,10.053,0,0,0,.975-.387q.475-.218.933-.481a11.018,11.018,0,0,0,4.525-4.882,10.751,10.751,0,0,0,.409-1.009q.179-.515.306-1.044a10.755,10.755,0,0,0,.2-1.072q.073-.542.1-1.091l-.024-1.224-.025-1.239c-.008-.417-.017-.839-.025-1.269l-.026-1.314q-.053-2.677-.115-5.652t-.139-6.228q-.077-3.252-.174-6.776t-.22-7.3a11.507,11.507,0,0,0-1.1-3.673,11.642,11.642,0,0,0-2.25-3.123,11.4,11.4,0,0,0-3.371-2.322,11.236,11.236,0,0,0-1.926-.663,11.082,11.082,0,0,0-2.022-.3l-18.07-.142L12.617.958A11.6,11.6,0,0,0,5.819,3.1a11.346,11.346,0,0,0-2.53,2.476,11.131,11.131,0,0,0-1.654,3.2q-.2.882-.328,1.775t-.2,1.791q-.07.9-.077,1.8t.05,1.805l-.17,25.4q-.019.435,0,.87t.06.867q.046.432.125.86t.189.85a11.1,11.1,0,0,0,1.353,3.14,11.24,11.24,0,0,0,2.252,2.593,11.543,11.543,0,0,0,2.908,1.8,11.679,11.679,0,0,0,3.319.877c.574.031,1.156.047,1.743.053s1.179,0,1.773,0,1.189-.016,1.782-.024,1.184-.014,1.77-.013l40.881.091L151,53.6l60.958.282,16.438.036,4.262.009h0l-4.262-.009-16.438-.036H151l-91.937-.1L18.207,53.7H11.055a12.361,12.361,0,0,1-6.644-2.75,12.131,12.131,0,0,1-2.4-2.642A11.958,11.958,0,0,1,.475,45.02q-.114-.449-.2-.9A8.8,8.8,0,0,1,.15,43.2q-.05-.458-.063-.92t0-.924l.2-29.08q0-.476.042-.95t.109-.944q.071-.47.175-.934t.241-.921a12,12,0,0,1,1.8-3.466A12.235,12.235,0,0,1,5.393,2.388,12.5,12.5,0,0,1,12.757.1l202.9,1.727,18.085.144a11.633,11.633,0,0,1,4.064.951,11.932,11.932,0,0,1,7.1,9.522q.112,3.8.188,7.33t.131,6.775q.056,3.248.1,6.209t.1,5.634l.026,1.321.026,1.282.025,1.246q.012.614.024,1.212-.027.563-.109,1.118t-.217,1.1q-.135.542-.323,1.068t-.427,1.031a10.911,10.911,0,0,1-4.669,4.979,10.41,10.41,0,0,1-4.036,1.281q-.2.037-.4.065t-.4.048q-.2.02-.4.032T234.144,54.184Z" transform="translate(48.785 266.402)"/><path class="i" d="M7.566.6,239.718.017a6.8,6.8,0,0,1,2.671.538,7,7,0,0,1,2.2,1.48,7.093,7.093,0,0,1,2.1,4.9l.78,38.986a7.057,7.057,0,0,1-.485,2.73,6.916,6.916,0,0,1-1.427,2.239,6.766,6.766,0,0,1-2.154,1.52,6.69,6.69,0,0,1-2.665.574L7.242,54.936a7.19,7.19,0,0,1-2.814-.542A7.063,7.063,0,0,1,.049,47.8L.319,7.74A7.079,7.079,0,0,1,.9,4.964,7.312,7.312,0,0,1,7.566.6Z" transform="translate(48.542 362.747)"/><path class="g" d="M236.6,53.451h.36q.138-.008.275-.019t.274-.028q.137-.016.273-.036t.272-.043q.529-.077,1.046-.2a10.075,10.075,0,0,0,1.019-.3q.5-.176.985-.4t.944-.494a11.386,11.386,0,0,0,2.66-2.164,11.527,11.527,0,0,0,1.058-1.357,11.655,11.655,0,0,0,.852-1.512q.232-.507.413-1.035t.309-1.07a10.788,10.788,0,0,0,.2-1.1q.072-.558.1-1.115c-.008-.416-.017-.831-.025-1.249s-.017-.839-.025-1.266l-.026-1.3c-.009-.441-.018-.89-.027-1.351q-.054-2.727-.117-5.763t-.141-6.358q-.079-3.321-.177-6.92t-.224-7.448a11.633,11.633,0,0,0-3.385-6.886,11.342,11.342,0,0,0-1.611-1.311,11.22,11.22,0,0,0-1.8-.984,11.091,11.091,0,0,0-1.943-.635A10.962,10.962,0,0,0,236.1.835L217.843.882,12.757,1.454a11.767,11.767,0,0,0-9.43,4.83,11.574,11.574,0,0,0-1.67,3.293q-.2.9-.332,1.811t-.2,1.827q-.071.916-.077,1.836T1.1,16.89L.92,42.839q-.02.445-.006.889t.06.885q.047.441.126.877t.192.866a11.266,11.266,0,0,0,3.644,5.818A11.482,11.482,0,0,0,7.875,53.98a11.614,11.614,0,0,0,3.354.86c.58.029,1.168.042,1.761.043s1.192-.008,1.792-.021,1.2-.031,1.8-.047,1.2-.029,1.789-.034l41.317-.343,92.9-.671,61.587-.379,16.607-.055,4.306-.036,1.472-.012-1.472.012-4.306.036-16.6.222-61.585.666-92.9.863-41.3.346c-.6.005-1.2.015-1.793.027s-1.191.025-1.789.035-1.2.018-1.805.019-1.22,0-1.843-.021a12.288,12.288,0,0,1-6.738-2.763,12.124,12.124,0,0,1-3.95-6.076q-.116-.457-.2-.921T.153,44.8Q.1,44.329.09,43.857t0-.944L.3,13.16q0-.488.043-.975t.11-.969q.072-.483.177-.96t.244-.947A12.46,12.46,0,0,1,2.684,5.75,12.665,12.665,0,0,1,12.9.575L217.913.188,236.084.159a11.468,11.468,0,0,1,2.135.285,11.6,11.6,0,0,1,2.035.673,11.742,11.742,0,0,1,1.884,1.038,11.862,11.862,0,0,1,1.683,1.381,12.165,12.165,0,0,1,3.537,7.2q.114,3.882.191,7.482t.134,6.916q.057,3.315.1,6.339t.1,5.751l.027,1.349.026,1.31.026,1.276.025,1.247a11.908,11.908,0,0,1-.512,2.9,11.74,11.74,0,0,1-1.184,2.637A11.557,11.557,0,0,1,244.5,50.2a11.4,11.4,0,0,1-2.319,1.755A10.714,10.714,0,0,1,238.1,53.29q-.188.035-.377.063t-.379.048q-.19.02-.381.033T236.6,53.451Z" transform="translate(48.119 362.335)"/><path class="b" d="M243.83,56.481l.1-.006c.064,0,.159-.013.285-.028s.283-.036.469-.066.4-.069.648-.12a9.409,9.409,0,0,0,1.063-.287,9.517,9.517,0,0,0,1.022-.409,9.632,9.632,0,0,0,.972-.526,9.932,9.932,0,0,0,3.3-3.376,10.146,10.146,0,0,0,.788-1.654,10.255,10.255,0,0,0,.483-1.791q.066-.589.1-1.18t.05-1.182q.011-.591-.005-1.183t-.061-1.181l-.026-1.3L253,40.865c-.009-.449-.018-.9-.027-1.372l-.029-1.44q-.057-2.877-.123-6.067t-.142-6.676q-.077-3.486-.17-7.265t-.2-7.833a10.026,10.026,0,0,0-.3-2.025,9.891,9.891,0,0,0-.7-1.892,9.691,9.691,0,0,0-1.061-1.7,9.47,9.47,0,0,0-1.4-1.444A9.039,9.039,0,0,0,248,2.532a8.9,8.9,0,0,0-1.853-.923,8.8,8.8,0,0,0-.994-.293q-.528-.1-1.06-.165t-1.068-.089q-.535-.026-1.072-.014t-1.072.063l-18.807.459L10.972,6.849A9.688,9.688,0,0,0,9.1,7.087a9.881,9.881,0,0,0-1.8.592A10.052,10.052,0,0,0,5.643,8.6a10.175,10.175,0,0,0-1.47,1.238,10.044,10.044,0,0,0-2.687,4.985,9.851,9.851,0,0,0-.212,1.9q-.013,1.98-.026,3.954l-.026,3.944Q1.209,26.6,1.2,28.56t-.03,3.924L1.04,51.949q-.025.469-.025.937t.026.934q.025.466.076.93t.127.923A9.609,9.609,0,0,0,1.781,57.4a9.418,9.418,0,0,0,.841,1.575A9.226,9.226,0,0,0,5.111,61.5q.366.25.753.464t.792.39a8.728,8.728,0,0,0,.826.314q.426.138.855.235a6.525,6.525,0,0,0,.891.136q.448.053.9.078t.9.019q.449,0,.906-.039l49.949-1.524,95.63-2.812,63.36-1.794,17.071-.434,4.429-.135,1.5-.046-1.5.046-4.429.135-17.068.609L157.47,59.454,61.832,62.487,11.877,64.016q-.48.04-.96.048t-.957-.018q-.478-.026-.952-.084t-.943-.15a9.138,9.138,0,0,1-.932-.249q-.459-.149-.9-.338a8.969,8.969,0,0,1-.861-.425,9.532,9.532,0,0,1-.816-.509,10.083,10.083,0,0,1-2.724-2.76,10.3,10.3,0,0,1-.92-1.722,10.5,10.5,0,0,1-.588-1.894q-.082-.483-.137-.972t-.082-.979q-.028-.491-.027-.984t.028-.987l.24-35.242A10.888,10.888,0,0,1,1.2,12.6,11.1,11.1,0,0,1,3.473,9.17a10.963,10.963,0,0,1,3.35-2.354,10.548,10.548,0,0,1,4.085-.932L222,.882,240.806.424q.552-.051,1.106-.062t1.106.019q.552.03,1.1.1t1.092.18a9.413,9.413,0,0,1,2.052.748,9.535,9.535,0,0,1,.95.548,9.645,9.645,0,0,1,.887.657,10.1,10.1,0,0,1,1.463,1.53,10.337,10.337,0,0,1,1.113,1.793,10.536,10.536,0,0,1,.733,1.994,10.679,10.679,0,0,1,.323,2.133l.157,7.843.146,7.27.134,6.678.121,6.067.028,1.42q.014.7.028,1.378l.027,1.34q.013.661.026,1.3.04.6.052,1.195t0,1.2q-.015.6-.058,1.2t-.112,1.192a10.552,10.552,0,0,1-.518,1.828,10.436,10.436,0,0,1-.827,1.685,10.251,10.251,0,0,1-1.111,1.5,10.031,10.031,0,0,1-1.37,1.273,9.725,9.725,0,0,1-.932.647,9.591,9.591,0,0,1-.993.53,9.48,9.48,0,0,1-1.044.407,9.364,9.364,0,0,1-1.085.28q-.193.045-.388.079t-.391.058q-.2.023-.393.036t-.394.014Z" transform="translate(46.702 559.811)"/><path class="b" d="M114.041.453a42.463,42.463,0,0,1-4.426.3c-2.853.132-6.985.295-12.1.477s-11.219.384-18,.594-14.277.429-22.144.646-15.4.411-22.249.575-13.045.3-18.246.4-9.424.168-12.341.193A43.682,43.682,0,0,1,0,3.585a44.012,44.012,0,0,1,4.533-.3c2.917-.135,7.134-.3,12.34-.485s11.385-.388,18.244-.6,14.367-.431,22.247-.647,15.348-.408,22.142-.57,12.886-.3,18-.4,9.25-.163,12.1-.188a42.271,42.271,0,0,1,4.431.053Z" transform="translate(116.937 589.515)"/><path class="b" d="M256.9,4.292c0,.06-3.494.063-9.823.017s-15.524-.139-26.9-.273c-11.407-.134-25.027-.31-40.2-.517-15.222-.208-32.016-.449-49.711-.715-17.763-.267-34.752-.533-50.26-.786-15.561-.254-29.62-.5-41.462-.711C26.673,1.092,17.043.9,10.375.75S0,.486,0,.424,3.7.362,10.373.411,26.665.56,38.534.7c11.839.141,25.9.323,41.457.538,15.508.214,32.5.459,50.269.728,17.7.267,34.5.533,49.721.784,15.172.251,28.791.487,40.2.7,11.377.209,20.562.393,26.9.537S256.9,4.236,256.9,4.292Z" transform="translate(49.451 200.121)"/><path class="b" d="M266.2.443c0,.06-3.617.193-10.168.384s-16.072.439-27.853.728c-11.812.289-25.916.62-41.63.974-15.768.355-33.166.735-51.5,1.121-18.407.388-36.015.746-52.09,1.061-16.131.316-30.709.59-42.987.807-12.311.218-22.3.379-29.214.47S0,6.1,0,6.038s3.833-.2,10.756-.4,16.9-.458,29.2-.758c12.276-.3,26.851-.639,42.982-1,16.075-.36,33.685-.743,52.1-1.129,18.34-.385,35.741-.737,51.51-1.044,15.717-.307,29.82-.57,41.63-.777,11.78-.207,21.289-.358,27.85-.443S266.2.383,266.2.443Z" transform="translate(47.169 529.152)"/><g transform="translate(66.227 383.414)"><path class="j" d="M7.932,5.874l3.8,2.119-1,1.7L6.848,7.442,6.83,11.794l-1.93.012.019-4.353-3.9,2.3-1-1.695L3.9,5.9.039,3.808,1.057,2.1,4.929,4.344,4.948.032,6.879.023,6.861,4.334l3.9-2.277.984,1.692Z" transform="translate(0 0.19)"/><path class="j" d="M7.883,5.865l3.828,2.116L10.7,9.683,6.839,7.431l-.012,4.346-1.945.012.012-4.347L1,9.739.013,8.046l3.846-2.16L.027,3.8l1-1.7L4.9,4.338,4.916.032,6.841.023l-.011,4.3L10.7,2.054l1,1.689Z" transform="translate(13.531 0.126)"/><path class="j" d="M7.9,5.789,11.7,7.9l-.986,1.7L6.8,7.421,6.791,11.76l-1.922.011.006-4.34L.992,9.725.007,8.035,3.856,5.878.016,3.8l.99-1.7L4.879,4.331l.006-4.3L6.8.023v4.3l3.874-2.27.983,1.687Z" transform="translate(26.954 0.131)"/><path class="j" d="M7.82,5.849l3.8,2.11-.981,1.7L6.77,7.41v4.333l-1.916.011V7.421L1,9.711,0,8.023,3.837,5.87.106,3.791l1-1.7,3.85,2.234V.032L6.886.023V4.315l3.86-2.267.983,1.684Z" transform="translate(40.44)"/></g><g transform="translate(68.345 287.726)"><path class="k" d="M6.941,3.2,6.924,7.431H5.909l.017-4.193a2.045,2.045,0,0,0-.075-.921,2.074,2.074,0,0,0-.474-.8,2.108,2.108,0,0,0-.362-.3A2.145,2.145,0,0,0,3.669.859a2.508,2.508,0,0,0-1.533.39,2.458,2.458,0,0,0-.417.338,2.419,2.419,0,0,0-.561.893,2.389,2.389,0,0,0-.125,1.043L1.016,7.4H0L.034.075,1,.08.993,1.444a3.12,3.12,0,0,1,.55-.632A3.164,3.164,0,0,1,2.23.353,3.206,3.206,0,0,1,3.859.029,2.93,2.93,0,0,1,5.67.5a2.884,2.884,0,0,1,.49.4,2.839,2.839,0,0,1,.652,1.065A2.8,2.8,0,0,1,6.941,3.2Z" transform="translate(0 2.522)"/><path class="k" d="M6.317,3,6.3,7.508H5.321V6.36a2.765,2.765,0,0,1-.5.559,2.8,2.8,0,0,1-.623.4,2.839,2.839,0,0,1-1.466.258A3.907,3.907,0,0,1,1.6,7.411a2.563,2.563,0,0,1-.861-.447A1.947,1.947,0,0,1,.2,6.278,2.034,2.034,0,0,1,.008,5.4a2.312,2.312,0,0,1,.153-.867,1.591,1.591,0,0,1,.493-.658,2.348,2.348,0,0,1,.894-.416,5.443,5.443,0,0,1,1.357-.14l2.4.012v-.45a2.393,2.393,0,0,0-.133-.837,1.553,1.553,0,0,0-.4-.611,1.745,1.745,0,0,0-.664-.376A3.08,3.08,0,0,0,3.183.926,3.842,3.842,0,0,0,1.24,1.4a3.8,3.8,0,0,0-.56.376l-.454-.75A4.746,4.746,0,0,1,1.669.272,4.8,4.8,0,0,1,3.288.046a2.706,2.706,0,0,1,1.774.36A2.67,2.67,0,0,1,5.55.783a2.641,2.641,0,0,1,.387.477A2.577,2.577,0,0,1,6.317,3ZM5.3,5.358V4.178L2.936,4.166a3.656,3.656,0,0,0-.914.1,1.6,1.6,0,0,0-.6.273A1.034,1.034,0,0,0,1.1,4.95a1.326,1.326,0,0,0-.1.521A1.181,1.181,0,0,0,1.13,6a1.34,1.34,0,0,0,.368.447,1.826,1.826,0,0,0,.593.308,2.707,2.707,0,0,0,.8.117A2.439,2.439,0,0,0,4.348,6.5a2.4,2.4,0,0,0,.562-.492A2.361,2.361,0,0,0,5.3,5.358Z" transform="translate(9.055 2.484)"/><path class="k" d="M12.376,3.226,12.37,7.442H11.36l.006-4.183a3.257,3.257,0,0,0-.146-1.02A1.977,1.977,0,0,0,10.8,1.5a1.783,1.783,0,0,0-.677-.452,2.554,2.554,0,0,0-.9-.156A2.45,2.45,0,0,0,8.2,1.065a2.425,2.425,0,0,0-.458.243,2.394,2.394,0,0,0-.713.754A2.357,2.357,0,0,0,6.7,3.546v3.87H5.689L5.7,3.231a3.3,3.3,0,0,0-.143-1.02,1.966,1.966,0,0,0-.42-.74,1.767,1.767,0,0,0-.676-.452,2.584,2.584,0,0,0-.92-.161,2.453,2.453,0,0,0-1.486.416,2.4,2.4,0,0,0-.714.754,2.357,2.357,0,0,0-.318,1.49L1.012,7.39,0,7.385.02.076.981.081V1.426A3.018,3.018,0,0,1,1.5.81,3.058,3.058,0,0,1,2.16.359,3.1,3.1,0,0,1,3.728.029,2.765,2.765,0,0,1,5.315.4a2.734,2.734,0,0,1,.631.511A2.694,2.694,0,0,1,6.4,1.6,3.209,3.209,0,0,1,6.957.927a3.251,3.251,0,0,1,.7-.5,3.3,3.3,0,0,1,1.7-.368,2.865,2.865,0,0,1,1.794.468,2.819,2.819,0,0,1,.865.905,2.756,2.756,0,0,1,.365,1.793Z" transform="translate(18.11 2.62)"/><path class="k" d="M7.185,4.1.934,4.067A2.683,2.683,0,0,0,1.2,5.1a2.723,2.723,0,0,0,.656.855,2.774,2.774,0,0,0,2.015.676,2.968,2.968,0,0,0,1.251-.225A2.921,2.921,0,0,0,6.16,5.685l.571.649A3.918,3.918,0,0,1,5.813,7,3.985,3.985,0,0,1,.759,5.831a3.9,3.9,0,0,1-.523-.978,3.856,3.856,0,0,1-.226-1.1,3.511,3.511,0,0,1,1-2.652A3.576,3.576,0,0,1,2.22.285,3.628,3.628,0,0,1,3.66.02,3.608,3.608,0,0,1,5.736.649,3.559,3.559,0,0,1,6.748,1.7,3.49,3.49,0,0,1,7.27,3.779ZM.935,3.321l5.293.027A2.594,2.594,0,0,0,5.963,2.4a2.642,2.642,0,0,0-.579-.768A2.69,2.69,0,0,0,2.6,1.1a2.648,2.648,0,0,0-.82.505,2.61,2.61,0,0,0-.581.762,2.578,2.578,0,0,0-.266.95Z" transform="translate(32.578 2.689)"/><path class="k" d="M12.974,6.19a7.251,7.251,0,0,1-.159,1.6,3.854,3.854,0,0,1-.463,1.189,2.155,2.155,0,0,1-.737.741,1.9,1.9,0,0,1-.981.253,1.525,1.525,0,0,1-1.14-.428,1.5,1.5,0,0,1-.346-.513,1.48,1.48,0,0,1-.107-.606,3.092,3.092,0,0,1-.526.661,3.143,3.143,0,0,1-1.456.786,3.181,3.181,0,0,1-.85.08A3.7,3.7,0,0,1,3.773,8.8a3.653,3.653,0,0,1-.726-1.129,3.582,3.582,0,0,1,.725-3.826A3.645,3.645,0,0,1,4.858,3.06a3.682,3.682,0,0,1,1.347-.344,3.206,3.206,0,0,1,2.268.848A3.161,3.161,0,0,1,9,4.2V2.794h.921l.005,5.363a1.575,1.575,0,0,0,.074.5.869.869,0,0,0,.19.329.733.733,0,0,0,.278.183.96.96,0,0,0,.334.058.994.994,0,0,0,.6-.2,1.558,1.558,0,0,0,.459-.574,3.472,3.472,0,0,0,.292-.929,7.016,7.016,0,0,0,.1-1.258,5.289,5.289,0,0,0-.409-2.187A5.37,5.37,0,0,0,10.57,2.246,5.464,5.464,0,0,0,6.422.778a5.734,5.734,0,0,0-2.977.63,5.656,5.656,0,0,0-1.24.87,5.578,5.578,0,0,0-.975,7,5.685,5.685,0,0,0,.975,1.2,5.769,5.769,0,0,0,4.223,1.546,6.386,6.386,0,0,0,2.716-.6l.235.681a6.756,6.756,0,0,1-2.951.634,6.475,6.475,0,0,1-4.545-1.88A6.4,6.4,0,0,1,.506,8.831a6.265,6.265,0,0,1,1.377-6.95A6.4,6.4,0,0,1,6.422.05a6.205,6.205,0,0,1,4.626,1.662,6.106,6.106,0,0,1,1.435,2.042,6.015,6.015,0,0,1,.491,2.435Zm-3.952.146a2.642,2.642,0,0,0-.26-1.016,2.694,2.694,0,0,0-.608-.82,2.732,2.732,0,0,0-2.948-.48,2.682,2.682,0,0,0-.834.583,2.639,2.639,0,0,0-.52,2.9,2.69,2.69,0,0,0,.581.837,2.722,2.722,0,0,0,1.892.777,2.667,2.667,0,0,0,1.074-.2,2.628,2.628,0,0,0,.9-.607,2.584,2.584,0,0,0,.723-1.984Z" transform="translate(41.357 0.339)"/><path class="k" d="M12.267,3.212l.012,4.2h-1L11.266,3.24a3.3,3.3,0,0,0-.146-1.015,1.971,1.971,0,0,0-.419-.736,1.761,1.761,0,0,0-.672-.45,2.555,2.555,0,0,0-.9-.155,2.4,2.4,0,0,0-1.015.172,2.362,2.362,0,0,0-.844.58,2.334,2.334,0,0,0-.607,1.9L6.672,7.39h-1L5.656,3.211A3.253,3.253,0,0,0,5.507,2.2a1.973,1.973,0,0,0-.425-.737,1.787,1.787,0,0,0-.678-.45,2.579,2.579,0,0,0-.9-.16,2.422,2.422,0,0,0-1.018.172,2.383,2.383,0,0,0-.848.579,2.352,2.352,0,0,0-.621,1.9l0,3.856h-1L0,.074.97.079V1.418A2.968,2.968,0,0,1,1.488.8,3,3,0,0,1,2.139.354,3.038,3.038,0,0,1,3.694.028,2.707,2.707,0,0,1,5.887.91a2.665,2.665,0,0,1,.451.686A3.286,3.286,0,0,1,7.594.437,3.349,3.349,0,0,1,9.272.058,2.831,2.831,0,0,1,11.9,1.432a2.776,2.776,0,0,1,.379,1.161,2.744,2.744,0,0,1-.012.619Z" transform="translate(56.451 2.827)"/><path class="k" d="M6.225,2.983l.017,4.475H5.275V6.318a2.724,2.724,0,0,1-1.1.954,2.776,2.776,0,0,1-1.444.257A3.842,3.842,0,0,1,1.6,7.362a2.543,2.543,0,0,1-.852-.444,1.95,1.95,0,0,1-.54-.681,2.041,2.041,0,0,1-.19-.873A2.3,2.3,0,0,1,.162,4.5a1.562,1.562,0,0,1,.484-.653,2.307,2.307,0,0,1,.884-.413A5.4,5.4,0,0,1,2.878,3.3l2.349.012V2.866a2.4,2.4,0,0,0-.137-.832,1.557,1.557,0,0,0-.4-.607,1.734,1.734,0,0,0-.658-.373A3.029,3.029,0,0,0,3.119.92a3.766,3.766,0,0,0-1.31.2,3.721,3.721,0,0,0-1.153.643L.2,1.02A4.7,4.7,0,0,1,1.623.274,4.757,4.757,0,0,1,3.216.046,2.662,2.662,0,0,1,5.838,1.251a2.614,2.614,0,0,1,.394,1.125,2.581,2.581,0,0,1-.007.606ZM5.234,5.322V4.15L2.9,4.138a3.575,3.575,0,0,0-.9.095,1.566,1.566,0,0,0-.59.267,1.016,1.016,0,0,0-.316.412A1.32,1.32,0,0,0,1,5.434a1.167,1.167,0,0,0,.13.531,1.355,1.355,0,0,0,.372.444,1.848,1.848,0,0,0,.593.306,2.687,2.687,0,0,0,.794.116,2.383,2.383,0,0,0,1.423-.374,2.335,2.335,0,0,0,.921-1.134Z" transform="translate(70.81 2.818)"/><path class="k" d="M0,.7A.7.7,0,0,1,.219.2.708.708,0,0,1,.452.06.716.716,0,0,1,.732.012a.724.724,0,0,1,.71.319.7.7,0,0,1-.134.926.708.708,0,0,1-.171.106.718.718,0,0,1-.4.052A.724.724,0,0,1,.128,1.1.713.713,0,0,1,.018.841.7.7,0,0,1,0,.7ZM.228,3.026l1,.005.03,7.26h-1Z" transform="translate(79.509)"/><path class="k" d="M0,0,1,.006l.047,10.272h-1Z" transform="translate(83.55 0.032)"/><path class="k" d="M0,.759A.734.734,0,0,1,.329.13.743.743,0,0,1,.6.018.751.751,0,0,1,.748,0,.774.774,0,0,1,1.44.474.756.756,0,0,1,1.5.766a.767.767,0,0,1-.451.7.778.778,0,0,1-.293.069.774.774,0,0,1-.7-.482A.755.755,0,0,1,0,.759Z" transform="translate(86.682 8.933)"/><path class="k" d="M.021,3.728A3.569,3.569,0,0,1,2.335.252,3.64,3.64,0,0,1,3.8.024,3.364,3.364,0,0,1,6.7,1.489L5.954,2A2.522,2.522,0,0,0,3.808.9a2.842,2.842,0,0,0-2.026.824A2.8,2.8,0,0,0,.951,3.733a2.842,2.842,0,0,0,.232,1.111A2.907,2.907,0,0,0,3.839,6.6a2.471,2.471,0,0,0,1.209-.255,2.429,2.429,0,0,0,.926-.806l.75.514A3.26,3.26,0,0,1,5.476,7.145a3.316,3.316,0,0,1-1.632.345A3.693,3.693,0,0,1,.285,5.19,3.621,3.621,0,0,1,.021,3.73Z" transform="translate(89.326 3.008)"/><path class="k" d="M.025,3.7A3.675,3.675,0,0,1,2.3.3,3.73,3.73,0,0,1,3.758.02a3.8,3.8,0,0,1,3.455,2.3,3.714,3.714,0,0,1,.3,1.448A3.675,3.675,0,0,1,5.249,7.177a3.729,3.729,0,0,1-1.455.285A3.674,3.674,0,0,1,.281,5.154,3.606,3.606,0,0,1,.025,3.7ZM6.5,3.737A2.717,2.717,0,0,0,6.236,2.7,2.771,2.771,0,0,0,3.67,1.14a2.7,2.7,0,0,0-1.886.83A2.67,2.67,0,0,0,1.04,3.883a2.713,2.713,0,0,0,.233,1.045A2.771,2.771,0,0,0,3.789,6.573a2.683,2.683,0,0,0,1.086-.2A2.622,2.622,0,0,0,6.5,3.737Z" transform="translate(97.089 3.07)"/><path class="k" d="M12.151,3.2l.035,4.175h-.991l-.034-4.143a3.268,3.268,0,0,0-.153-1.01,1.987,1.987,0,0,0-.423-.733,1.771,1.771,0,0,0-.668-.447A2.494,2.494,0,0,0,9.029.879a2.371,2.371,0,0,0-1,.171,2.335,2.335,0,0,0-1.44,2.462l.03,3.833H5.627L5.6,3.195a3.31,3.31,0,0,0-.15-1.011,1.976,1.976,0,0,0-.419-.733A1.755,1.755,0,0,0,4.358,1a2.524,2.524,0,0,0-.9-.154,2.377,2.377,0,0,0-1.006.171A2.337,2.337,0,0,0,1.017,3.484l.027,3.835H.051L0,.075H.943l.01,1.332A2.947,2.947,0,0,1,2.1.356,3,3,0,0,1,3.638.029,2.711,2.711,0,0,1,6.277,1.587,3.135,3.135,0,0,1,7.5.426,3.187,3.187,0,0,1,9.155.058a2.816,2.816,0,0,1,2.878,1.919A2.757,2.757,0,0,1,12.151,3.2Z" transform="translate(106.613 3.097)"/></g><path class="g" d="M8.608,14.55a.781.781,0,0,1-.415-.129.763.763,0,0,1-.114-.092L.334,7.568a.82.82,0,0,1-.122-.127A.794.794,0,0,1,.122,7.3a.77.77,0,0,1-.055-.161.75.75,0,0,1-.018-.17.738.738,0,0,1,.078-.326A.748.748,0,0,1,.218,6.5a.768.768,0,0,1,.123-.119L8.159.428A.766.766,0,0,1,8.29.343.791.791,0,0,1,8.435.285.814.814,0,0,1,8.591.257a.841.841,0,0,1,.591.188.827.827,0,0,1,.211.241.781.781,0,0,1,.064.143A.759.759,0,0,1,9.49.98a.74.74,0,0,1-.18.574.765.765,0,0,1-.115.107L2.21,7.051l7.018,6.135a.823.823,0,0,1,.112.115.8.8,0,0,1,.086.132.777.777,0,0,1,.058.145.757.757,0,0,1,.027.154.742.742,0,0,1-.11.443.754.754,0,0,1-.1.123.823.823,0,0,1-.147.119.849.849,0,0,1-.17.083.876.876,0,0,1-.186.044.9.9,0,0,1-.195,0Z" transform="translate(51.983 64.776)"/><path class="g" d="M7.991,4.117a3.713,3.713,0,0,1-.282,1.5,3.644,3.644,0,0,1-.825,1.212,3.722,3.722,0,0,1-1.243.8A3.909,3.909,0,0,1,4.1,7.893a4.127,4.127,0,0,1-1.548-.35,4.239,4.239,0,0,1-1.275-.87A4.154,4.154,0,0,1,.41,5.411,3.926,3.926,0,0,1,.071,3.888a3.713,3.713,0,0,1,.284-1.5,3.643,3.643,0,0,1,.827-1.211,3.723,3.723,0,0,1,1.244-.8A3.911,3.911,0,0,1,3.96.116a4.127,4.127,0,0,1,1.546.35,4.238,4.238,0,0,1,1.274.869A4.156,4.156,0,0,1,7.651,2.6,3.926,3.926,0,0,1,7.991,4.117Z" transform="translate(272.887 74.427)"/><path class="g" d="M7.976,4.112a3.711,3.711,0,0,1-.279,1.5,3.633,3.633,0,0,1-.82,1.21,3.706,3.706,0,0,1-1.237.8,3.892,3.892,0,0,1-1.53.263,4.115,4.115,0,0,1-1.544-.347A4.234,4.234,0,0,1,1.293,6.67,4.158,4.158,0,0,1,.419,5.413,3.929,3.929,0,0,1,.076,3.894a3.712,3.712,0,0,1,.277-1.5A3.632,3.632,0,0,1,1.171,1.18,3.7,3.7,0,0,1,2.407.38,3.892,3.892,0,0,1,3.935.116a4.077,4.077,0,0,1,.777.1,4.168,4.168,0,0,1,.744.24A4.215,4.215,0,0,1,7.266,1.94a4.107,4.107,0,0,1,.378.68,4,4,0,0,1,.24.733,3.878,3.878,0,0,1,.092.759Z" transform="translate(284.301 74.762)"/><path class="g" d="M7.961,4.107A3.74,3.74,0,0,1,7.813,5.24a3.626,3.626,0,0,1-1.22,1.818,3.7,3.7,0,0,1-.99.564,3.858,3.858,0,0,1-1.129.245,4.041,4.041,0,0,1-1.146-.091,4.178,4.178,0,0,1-1.087-.411,4.222,4.222,0,0,1-.954-.714A4.165,4.165,0,0,1,.574,5.7a4.029,4.029,0,0,1-.4-1.075A3.854,3.854,0,0,1,.091,3.5,3.694,3.694,0,0,1,.354,2.392,3.619,3.619,0,0,1,1.777.7,3.754,3.754,0,0,1,2.8.248,3.917,3.917,0,0,1,3.956.116,4.106,4.106,0,0,1,5.491.47a4.231,4.231,0,0,1,1.264.868,4.16,4.16,0,0,1,.866,1.255,3.931,3.931,0,0,1,.34,1.514Z" transform="translate(295.686 75.096)"/><path d="M1.429-5A4.855,4.855,0,0,1,2.1-7.487,5.03,5.03,0,0,1,3.921-9.313a4.846,4.846,0,0,1,2.5-.677h4.984a4.826,4.826,0,0,1,2.492.677,5.073,5.073,0,0,1,1.826,1.826A4.826,4.826,0,0,1,16.4-5a4.845,4.845,0,0,1-.677,2.5A5.043,5.043,0,0,1,13.906-.671a4.847,4.847,0,0,1-2.5.671,4.847,4.847,0,0,1-2.5-.671A5,5,0,0,1,7.1-2.492,4.875,4.875,0,0,1,6.424-5V-6.6a1.539,1.539,0,0,0-.8.22,1.682,1.682,0,0,0-.591.585,1.511,1.511,0,0,0-.22.8V4.5l-3.384.86Zm9.979,1.611a1.569,1.569,0,0,0,.8-.215,1.584,1.584,0,0,0,.585-.585A1.589,1.589,0,0,0,13.009-5a1.54,1.54,0,0,0-.215-.8,1.638,1.638,0,0,0-.585-.585,1.539,1.539,0,0,0-.8-.22H9.818V-5a1.62,1.62,0,0,0,.209.811A1.555,1.555,0,0,0,10.6-3.6a1.56,1.56,0,0,0,.808.216ZM23.45,0a4.847,4.847,0,0,1-2.5-.671,5,5,0,0,1-1.815-1.821A4.875,4.875,0,0,1,18.466-5v-9.539l3.373-.849V-5a1.559,1.559,0,0,0,.22.811,1.625,1.625,0,0,0,.591.585,1.569,1.569,0,0,0,.8.215l.6,1.7Zm-.086,0-.516-1.687.559-1.7h.043a1.54,1.54,0,0,0,.8-.215,1.6,1.6,0,0,0,.58-.585A1.589,1.589,0,0,0,25.04-5V-9l3.405-.838V-5a4.875,4.875,0,0,1-.671,2.5A4.989,4.989,0,0,1,25.953-.671,4.875,4.875,0,0,1,23.45,0Zm2.277-14.7H28.4v2.653H25.642ZM54.817,0a4.682,4.682,0,0,1-1.789-.349,4.683,4.683,0,0,1-1.5-.972l-.559-3.642,2.256-1.4L53.238-5a1.589,1.589,0,0,0,.215.811,1.609,1.609,0,0,0,.575.585,1.512,1.512,0,0,0,.79.215l.6,1.7ZM37.727,0a4.875,4.875,0,0,1-2.5-.671A4.989,4.989,0,0,1,33.4-2.492,4.875,4.875,0,0,1,32.731-5V-9l3.384-.838V-5a1.559,1.559,0,0,0,.22.811,1.625,1.625,0,0,0,.591.585,1.569,1.569,0,0,0,.8.215H48.243a1.54,1.54,0,0,0,.795-.215,1.638,1.638,0,0,0,.585-.585A1.559,1.559,0,0,0,49.844-5V-9l3.4-.838V-5a4.875,4.875,0,0,1-.671,2.5A4.989,4.989,0,0,1,50.746-.671a4.875,4.875,0,0,1-2.5.671Zm2.4-9.7h5.79v2.61h-5.79ZM54.774,0l-.559-1.687.569-1.7h.032a1.569,1.569,0,0,0,.8-.215,1.625,1.625,0,0,0,.591-.585A1.559,1.559,0,0,0,56.429-5V-9l3.384-.838V-5a1.589,1.589,0,0,0,.215.811,1.6,1.6,0,0,0,.58.585,1.54,1.54,0,0,0,.795.215l.612,1.7L61.4,0a4.682,4.682,0,0,1-1.789-.349,4.683,4.683,0,0,1-1.5-.972,4.828,4.828,0,0,1-1.5.972A4.669,4.669,0,0,1,54.817,0Zm-.849,2.2h2.761V4.855h-2.76ZM60.8-1.687l.591-1.7h1.547a1.569,1.569,0,0,0,.8-.215,1.583,1.583,0,0,0,.585-.585A1.589,1.589,0,0,0,64.539-5V-9l3.384-.838V-5a4.875,4.875,0,0,1-.671,2.5A5,5,0,0,1,65.436-.671a4.847,4.847,0,0,1-2.5.671H61.392Zm1.944-12.977H65.87V-16.8l2.653.859v3.889H62.745Z" transform="translate(145.618 178.329)"/><path class="a" d="M1-12.771H5.968a6.824,6.824,0,0,1,2.6.448,3.559,3.559,0,0,1,1.666,1.314,3.683,3.683,0,0,1,.576,2.087,4.092,4.092,0,0,1-.549,2.206,3.951,3.951,0,0,1-1.7,1.433l2.671,5.16V0H8.024L5.739-4.553H3.981V0H1ZM5.977-6.864A1.862,1.862,0,0,0,7.343-7.33a1.773,1.773,0,0,0,.47-1.318A1.809,1.809,0,0,0,7.339-9.98a1.859,1.859,0,0,0-1.38-.479H3.981v3.6ZM18.334-5.651v-.2A1.6,1.6,0,0,0,17.912-7a1.447,1.447,0,0,0-1.1-.444,1.522,1.522,0,0,0-1.191.545,2.513,2.513,0,0,0-.541,1.547l.026,1.1v.272a2.02,2.02,0,0,0,.343,1.006,2.178,2.178,0,0,0,.822.729,2.406,2.406,0,0,0,1.129.268,2.768,2.768,0,0,0,2.241-.976L20.83-1.477A3.9,3.9,0,0,1,19.27-.268a5.118,5.118,0,0,1-2.14.453,5.321,5.321,0,0,1-2.544-.593A4.269,4.269,0,0,1,12.858-2.07a4.814,4.814,0,0,1-.615-2.448v-.237a5.723,5.723,0,0,1,.545-2.558A4.064,4.064,0,0,1,14.361-9.04a4.721,4.721,0,0,1,2.452-.628,4.468,4.468,0,0,1,2.281.558,3.668,3.668,0,0,1,1.477,1.617,5.713,5.713,0,0,1,.514,2.518v.826H14.238v-1.5Zm9.853-2.777.1-1.055H30.9V-.36a4.593,4.593,0,0,1-.356,1.617,3.889,3.889,0,0,1-1.419,1.7,5.1,5.1,0,0,1-3.015.782,5.332,5.332,0,0,1-2.021-.4,3.734,3.734,0,0,1-1.5-1.028L23.7.677a2.807,2.807,0,0,0,.971.708,3.047,3.047,0,0,0,1.217.233,2.179,2.179,0,0,0,1.564-.527A2.049,2.049,0,0,0,28-.466V-6.935Zm-.062,7.365a2.783,2.783,0,0,1-2.3,1.125A3.537,3.537,0,0,1,23.79-.531a3.839,3.839,0,0,1-1.354-1.683,6.29,6.29,0,0,1-.479-2.549v-.1a6.257,6.257,0,0,1,.483-2.562A3.772,3.772,0,0,1,23.8-9.088a3.616,3.616,0,0,1,2.039-.58,2.877,2.877,0,0,1,2.487,1.2l-.229,1.9a1.506,1.506,0,0,0-1.512-.9,1.439,1.439,0,0,0-1.288.716,3.9,3.9,0,0,0-.453,2.07A3.387,3.387,0,0,0,25.3-2.808a1.428,1.428,0,0,0,1.261.69A1.545,1.545,0,0,0,28.09-3Zm4.649-8.42h2.883V0H32.774ZM34.2-10.538a1.672,1.672,0,0,1-1.156-.4,1.313,1.313,0,0,1-.444-1.028,1.331,1.331,0,0,1,.2-.725,1.4,1.4,0,0,1,.567-.505,1.814,1.814,0,0,1,.831-.185,1.834,1.834,0,0,1,.839.185,1.4,1.4,0,0,1,.567.5,1.331,1.331,0,0,1,.2.725,1.347,1.347,0,0,1-.2.734,1.4,1.4,0,0,1-.567.505,1.834,1.834,0,0,1-.837.189ZM41.186.185A5.429,5.429,0,0,1,39.142-.2a3.792,3.792,0,0,1-1.551-1.1A2.533,2.533,0,0,1,37-2.962h2.514a1.049,1.049,0,0,0,.47.932,2.155,2.155,0,0,0,1.191.3,1.66,1.66,0,0,0,.98-.259.777.777,0,0,0,.365-.655.813.813,0,0,0-.492-.721A5.077,5.077,0,0,0,40.6-3.823q-3.29-.739-3.29-2.857a2.6,2.6,0,0,1,.483-1.542A3.17,3.17,0,0,1,39.16-9.286a5.058,5.058,0,0,1,2.026-.382,5.582,5.582,0,0,1,2.153.387A3.325,3.325,0,0,1,44.785-8.2,2.649,2.649,0,0,1,45.3-6.583H42.53a1.072,1.072,0,0,0-.369-.866,1.5,1.5,0,0,0-1-.312,1.386,1.386,0,0,0-.87.264.778.778,0,0,0-.334.659.755.755,0,0,0,.321.624,2.369,2.369,0,0,0,.791.382q.47.136,1.27.312l.5.105a3.9,3.9,0,0,1,1.8.936A2.311,2.311,0,0,1,45.3-2.742a2.383,2.383,0,0,1-.523,1.516A3.417,3.417,0,0,1,43.313-.189a5.722,5.722,0,0,1-2.127.374ZM51.653-7.5h-5.7V-9.483h5.7ZM50.071-3.07a1.737,1.737,0,0,0,.079.589.536.536,0,0,0,.286.308,1.442,1.442,0,0,0,.593.1,3.351,3.351,0,0,0,.738-.062V-.079a4.953,4.953,0,0,1-1.626.264,3.058,3.058,0,0,1-2.228-.716,2.963,2.963,0,0,1-.734-2.175v-9.167h2.892ZM58.6-5.651v-.2A1.6,1.6,0,0,0,58.175-7a1.447,1.447,0,0,0-1.1-.444,1.522,1.522,0,0,0-1.191.545,2.513,2.513,0,0,0-.541,1.547l.026,1.1v.272a2.02,2.02,0,0,0,.343,1.006,2.178,2.178,0,0,0,.822.729,2.406,2.406,0,0,0,1.129.268A2.768,2.768,0,0,0,59.9-2.953l1.187,1.477a3.9,3.9,0,0,1-1.56,1.208,5.118,5.118,0,0,1-2.14.453,5.321,5.321,0,0,1-2.544-.593A4.269,4.269,0,0,1,53.121-2.07a4.814,4.814,0,0,1-.615-2.448v-.237a5.723,5.723,0,0,1,.545-2.558A4.064,4.064,0,0,1,54.624-9.04a4.721,4.721,0,0,1,2.452-.628,4.468,4.468,0,0,1,2.281.558,3.668,3.668,0,0,1,1.477,1.617,5.713,5.713,0,0,1,.514,2.518v.826H54.5v-1.5Zm3.99-3.832H65.3l.079,1.257A2.3,2.3,0,0,1,67.5-9.668a2.424,2.424,0,0,1,.817.123l-.053,2.672a2.647,2.647,0,0,0-.87-.114,2.2,2.2,0,0,0-1.182.308,1.861,1.861,0,0,0-.743.905V0H62.587Z" transform="translate(138.809 480.452)"/></g><g transform="translate(532.815 297.264)"><path class="l" d="M52.1,219.63c19.658,10.179,34.719,27.705,45.547,47s17.826,40.466,24.74,61.491l6.047,108.4c-22.857-38.883-41.216-84.664-46.164-129.462l15.21-1.35c-10.2-1.566-18.759-8.946-24.206-17.709s-8.33-18.875-11-28.821L80.838,261.9A68.788,68.788,0,0,1,52.1,219.63Z" transform="translate(-18.747 -210.7)"/><path class="m" d="M103.963,465.5s49.629-59.391,49.062-116.1H133.034s21.774-14.327,19.991-22.341-2.3-38.317-2.3-38.317L132.4,293.32s13.744-6.88,15.46-17.759-4-61.291-4-61.291-22.34,23.49-29.221,47.546S89.65,313.927,95.031,387.246,103.963,465.5,103.963,465.5Z" transform="translate(9.189 -214.27)"/><path class="m" d="M119.993,445.278s-53.76-35.818-65.705-81.532l16.11-4.4S49.772,352.6,49.389,345.787s-6.547-31.353-6.547-31.353l15.743-.333s-12.561-2.515-16.326-10.9S32.08,253.06,32.08,253.06s23.09,13.994,33.886,31.84,31.437,36.451,43.215,96.542S119.993,445.278,119.993,445.278Z" transform="translate(-32.08 -188.438)"/><path class="d" d="M127.1,245.33a3.623,3.623,0,0,1-.083.633l-.35,1.849c-.333,1.666-.8,4.048-1.416,7.08s-1.383,6.831-2.2,11.212-1.816,9.346-2.782,14.86c-2.049,11.029-4.232,24.19-6.481,38.85s-4.4,30.787-6.4,47.78-3.465,33.219-4.681,48-2.032,28.1-2.549,39.3c-.317,5.6-.5,10.662-.683,15.11s-.317,8.33-.4,11.412-.2,5.514-.25,7.214a11.9,11.9,0,0,1-.083,1.883,3.8,3.8,0,0,1,0,.633,3.677,3.677,0,0,1,0-.633v-9.1c0-3.1.117-6.98.267-11.428s.267-9.529.55-15.127c.45-11.212,1.266-24.54,2.366-39.333s2.682-31.02,4.631-48.029,4.215-33.153,6.447-47.813,4.548-27.8,6.664-38.817c1-5.531,2.032-10.5,2.915-14.86s1.666-8.113,2.349-11.179,1.2-5.4,1.566-7.047l.433-1.833a3.636,3.636,0,0,1,.167-.616Z" transform="translate(12.307 -193.585)"/><path class="m" d="M104.09,442.275s45.41-51.529,59.51-82.665l-10.646-4.548c7.713,1.266,15.627-2.049,21.658-7.08s10.379-11.662,14.677-18.192l-14.061-2.3a52.178,52.178,0,0,0,30.637-23.74c-16.56,2.732-31.52,11.812-43.865,23.174a219.155,219.155,0,0,0-26.572,30.72,104.373,104.373,0,0,0-10.312,16.976C117.484,390.4,104.057,423.366,104.09,442.275Z" transform="translate(15.876 -154.68)"/><path class="d" d="M45,271.06a3.341,3.341,0,0,1,.3.483c.183.383.45.85.766,1.466.7,1.333,1.666,3.232,2.915,5.648,2.532,4.9,6.081,12.045,10.329,20.958s9.146,19.575,14.361,31.52S84.35,356.357,89.8,370.384s10.246,27.555,14.477,39.9,7.747,23.54,10.579,32.986,5,17.126,6.464,22.457l1.666,6.131.416,1.666a2.363,2.363,0,0,1,.1.55,1.665,1.665,0,0,1-.183-.533c-.133-.383-.3-.916-.5-1.566-.416-1.449-1.016-3.5-1.783-6.1-1.533-5.3-3.815-12.945-6.664-22.357s-6.547-20.575-10.762-32.919-9.11-25.787-14.529-39.831S78.169,343.5,73.038,331.518s-10-22.657-14.194-31.653-7.613-16.11-10-21.058l-2.766-5.714c-.3-.633-.533-1.116-.7-1.5A2.942,2.942,0,0,1,45,271.06Z" transform="translate(-23.476 -176.45)"/><path class="d" d="M101.78,435.429a4.7,4.7,0,0,1,0-.966c0-.733.167-1.666.267-2.765s.3-2.666.566-4.348.516-3.632.933-5.748c.733-4.248,1.849-9.263,3.332-14.777s3.332-11.478,5.664-17.643,4.9-11.895,7.414-17.009,5-9.6,7.3-13.328c1.083-1.866,2.166-3.482,3.1-5a36.539,36.539,0,0,1,2.449-3.632c.783-.983,1.183-1.666,1.666-2.249a4.034,4.034,0,0,1,.616-.766,5.213,5.213,0,0,1-.466.866l-1.483,2.332c-.666,1.016-1.449,2.249-2.332,3.715s-1.933,3.1-2.982,5c-2.166,3.7-4.6,8.213-7.1,13.328s-5,10.829-7.314,16.96-4.182,12.1-5.714,17.559-2.649,10.462-3.465,14.677c-.45,2.1-.75,4.015-1.05,5.7s-.533,3.132-.716,4.332-.317,2.016-.433,2.732a4.4,4.4,0,0,1-.25,1.033Z" transform="translate(14.321 -125.744)"/><path class="n" d="M120.012,368.32l-10.745,68.188H49.209L39.18,368.32Z" transform="translate(26.092 -50.489)"/><path class="d" d="M394.98,361.97l2.011,16.18h76.3l2.521-16.18Z" transform="translate(-329.707 -46.276)"/><rect class="n" width="99.391" height="20.275" transform="translate(56.176 297.556)"/></g><g transform="translate(-14.369 283.414)"><path class="n" d="M378.748,415.685s119.466-62.24,145.371-27.9-26.006,61.307-36.035,67.371-111.5,40.533-111.5,40.533L349.81,467.113Z" transform="translate(-243.116 -91.75)"/><path class="o" d="M401.141,420.39l47.63,25.639,43.531,9.429a5.564,5.564,0,0,1,4.148,6.964h0a5.463,5.463,0,0,1-3.482,3.682c-10.812,3.765-50.612,17.409-53.994,15.344-3.915-2.4-52.045-23.723-52.045-23.723Z" transform="translate(-218.396 -63.152)"/><g class="p" transform="translate(217.33 399.204)"><path class="a" d="M476.944,445.647,416.22,462.939l2.032,1.05a8.33,8.33,0,0,0,5.731.683c5.148-1.216,19.309-5,49.4-15.26a5.531,5.531,0,0,0,3.565-3.832Z" transform="translate(-416.22 -445.58)"/></g><g class="p" transform="translate(205.183 398.456)"><path class="a" d="M410.563,445.5a3.332,3.332,0,0,1,4.315,1.166,3.232,3.232,0,0,1-1.116,4.3A3.548,3.548,0,0,1,409.2,449.7a3.332,3.332,0,0,1,1.666-4.332" transform="translate(-408.929 -445.132)"/></g><path class="d" d="M437.8,450.7c.267-.2-1.666-2.582-1.666-6.131s2.032-5.881,1.766-6.1-.783.317-1.516,1.366a8.7,8.7,0,0,0-1.433,4.715,8.6,8.6,0,0,0,1.3,4.748C437.017,450.364,437.7,450.8,437.8,450.7Z" transform="translate(-186.418 -51.144)"/><path class="d" d="M442.063,449.829c.333-.117-.45-2.466.1-5.314s2.066-4.781,1.8-5-2.382,1.533-2.966,4.8S441.813,450.029,442.063,449.829Z" transform="translate(-182.484 -50.426)"/><path class="d" d="M430.4,453.589c.333-.117-.883-3.715-.4-8.23s2.3-7.83,1.983-8-2.716,3.032-3.165,7.88S430.152,453.756,430.4,453.589Z" transform="translate(-190.548 -51.853)"/><path class="d" d="M420.751,448.257c.35,0,.583-3.2,2.232-6.664s3.865-5.848,3.632-6.114-3,1.8-4.715,5.614S420.435,448.307,420.751,448.257Z" transform="translate(-196.025 -53.119)"/><path class="d" d="M412.31,443.941c.35,0,.117-3.515,2.149-7.08s5-5.281,4.848-5.581-.933.1-2.132.883a11.761,11.761,0,0,0-3.765,4.115,11.96,11.96,0,0,0-1.5,5.381C411.894,443.091,412.16,443.958,412.31,443.941Z" transform="translate(-201.761 -55.966)"/><path class="d" d="M416.6,438.169a6.432,6.432,0,0,0-1.783-1,14.2,14.2,0,0,0-5.514-.983,6.348,6.348,0,0,0-3.915,1.033,2.282,2.282,0,0,0-.7,2.466,3.681,3.681,0,0,0,1.8,1.883,7.83,7.83,0,0,0,9.563-2.832,9.063,9.063,0,0,0-.183-10.112,3.133,3.133,0,0,0-2.266-1.333,2.2,2.2,0,0,0-2.066,1.516,7.729,7.729,0,0,0,0,4.015,15.691,15.691,0,0,0,2.066,5.2,6.827,6.827,0,0,0,1.3,1.666,24.988,24.988,0,0,1-2.532-6.947,7.113,7.113,0,0,1,0-3.5,1.149,1.149,0,0,1,1.116-.833,2.133,2.133,0,0,1,1.449.966,8.08,8.08,0,0,1,0,8.763,6.8,6.8,0,0,1-8.08,2.516,2.683,2.683,0,0,1-1.316-1.249,1.216,1.216,0,0,1,.367-1.366,5.7,5.7,0,0,1,3.332-.95,20.939,20.939,0,0,1,7.364,1.083Z" transform="translate(-206.648 -58.557)"/><path class="n" d="M485.074,458.46S372.505,390.26,357.3,381.826c-13.078-7.28-54.394-23.323-68.954,16.243s63.839,98.025,63.839,98.025l66.538,2.982,22.207-8.48,25.223,7.763Z" transform="translate(-285.253 -95.125)"/><path class="o" d="M396.1,463.215,345.637,482.79l-35.452,26.939a5.548,5.548,0,0,1-8-1.366h0a5.531,5.531,0,0,1-.533-5c4.165-10.645,19.692-49.762,23.457-50.978,4.365-1.416,51.861-24.106,51.861-24.106Z" transform="translate(-275.428 -57.898)"/><g class="p" transform="translate(25.775 392.956)"><path class="a" d="M302.224,499.256l26.3-57.426-2.116.866a8.33,8.33,0,0,0-4.248,3.9c-2.416,4.715-8.813,17.892-20.541,47.463a5.563,5.563,0,0,0,.6,5.2Z" transform="translate(-301.238 -441.83)"/></g><g class="p" transform="translate(67.157 392.772)"><path class="a" d="M332.345,445.519a3.332,3.332,0,0,1-3.7,2.516,3.215,3.215,0,0,1-2.532-3.632,3.548,3.548,0,0,1,3.932-2.649,3.332,3.332,0,0,1,2.216,4.081" transform="translate(-326.078 -441.72)"/></g><path class="d" d="M312.11,464.1c0,.35,3.065.383,5.7,2.782s3.148,5.364,3.482,5.3.267-.8,0-2.032a8.813,8.813,0,0,0-7.1-6.247C312.876,463.763,312.11,464,312.11,464.1Z" transform="translate(-268.223 -34.205)"/><path class="d" d="M309,467.852c-.117.333,2.166,1.266,3.965,3.548s2.316,4.665,2.649,4.615.383-2.8-1.666-5.365S309,467.536,309,467.852Z" transform="translate(-270.297 -31.598)"/><path class="d" d="M315.622,457.941c-.133.333,3.332,1.749,6.514,5s4.448,6.831,4.781,6.664-.533-4.031-3.932-7.53S315.655,457.641,315.622,457.941Z" transform="translate(-265.887 -38.18)"/><path class="d" d="M324.538,453.6c-.25.25,2.049,2.532,3.665,6.081s1.932,6.747,2.282,6.664.566-3.448-1.2-7.23S324.7,453.333,324.538,453.6Z" transform="translate(-259.959 -41.052)"/><path class="d" d="M333.335,449.941c-.217.267,2.6,2.349,4,6.231s.716,7.247,1.066,7.314.533-.766.733-2.2a11.661,11.661,0,0,0-.7-5.531,11.9,11.9,0,0,0-3.1-4.648C334.251,450.157,333.418,449.808,333.335,449.941Z" transform="translate(-254.096 -43.49)"/><path class="d" d="M337.526,457a4.5,4.5,0,0,0,1.916-.716,14.081,14.081,0,0,0,4.332-3.548,6.231,6.231,0,0,0,1.749-3.648,2.2,2.2,0,0,0-1.416-2.132,3.615,3.615,0,0,0-2.582.15,7.846,7.846,0,0,0-4.082,9.113,9.1,9.1,0,0,0,7.813,6.431,3.149,3.149,0,0,0,2.482-.866,2.2,2.2,0,0,0,.183-2.549,7.546,7.546,0,0,0-3.065-2.582,16.162,16.162,0,0,0-5.3-1.816,5,5,0,0,0-2.049,0,25.507,25.507,0,0,1,6.93,2.582,7.2,7.2,0,0,1,2.616,2.332,1.133,1.133,0,0,1-.1,1.383,2.149,2.149,0,0,1-1.666.483,8.13,8.13,0,0,1-6.664-5.664,6.814,6.814,0,0,1,3.332-7.78,2.564,2.564,0,0,1,1.8-.183,1.2,1.2,0,0,1,.8,1.166,5.682,5.682,0,0,1-1.416,3.115A20.927,20.927,0,0,1,337.526,457Z" transform="translate(-251.54 -45.572)"/><path class="n" d="M357.92,477.6c1.416-.733,58.409-23.94,58.409-23.94L359.686,425.6,325.6,443.276Z" transform="translate(-259.24 -59.682)"/><path class="q" d="M302.75,432.282l.783.233,2.249.75,8.613,2.982,31.653,11.112L450.42,484.193l5,1.549-.516.233,19.008-39.767.167.516-65.655-40.15L389.53,394.915l-5-3.132-1.283-.833c-.283-.183-.433-.283-.416-.3l.45.25,1.333.766,5.081,3.015,19.025,11.445,65.8,39.883.316.2-.15.333-18.959,39.816-.166.333-.35-.117-5-1.549c-2.615-.75-5.115-1.666-7.63-2.582l-7.5-2.666-14.71-5.248L392.7,464.65l-46.86-16.659-31.57-11.379-8.563-3.132-2.216-.833a6.571,6.571,0,0,1-.75-.367Z" transform="translate(-274.457 -82.958)"/><path class="q" d="M358.239,475.39a23.56,23.56,0,0,1-2.116-2.016l-5.531-5.714c-4.648-4.848-11.028-11.662-18.042-19.075l-7.047-7.547-.383-.416.5-.25,17.293-8.33,5-2.366a13.326,13.326,0,0,1,1.849-.766,9.369,9.369,0,0,1-1.666,1.016l-4.848,2.466-17.159,8.663.117-.666,7.08,7.53c7.014,7.48,13.328,14.294,17.859,19.259l5.331,5.9a15.889,15.889,0,0,1,1.766,2.316Z" transform="translate(-259.559 -57.478)"/><path class="q" d="M439.174,390.493c.1.217-13.927,6.314-31.32,13.594S376.3,417.115,376.2,416.9s13.928-6.314,31.32-13.611S439.174,390.259,439.174,390.493Z" transform="translate(-225.542 -83.067)"/><path class="m" d="M392.421,287.451c-1.183,0-42.282-.383-50.579,7.913s-25.522,135.36-25.522,135.36c8.863,1.666,14.627,5,19.991,7.63l69.854,40.733,30.237-15.71a7.6,7.6,0,0,0,2.132-11.545h0L478.768,306.41a74.265,74.265,0,0,0-19.592-10.662C447.4,291.416,392.421,287.451,392.421,287.451Z" transform="translate(-265.419 -151.686)"/><path class="m" d="M410.618,295.55s12.361,2.732,17.093,10.362c11.1,17.876,45.181,81.366,50.912,96.626,6.064,16.11-.45,25.273-4.831,32.07-4.715,7.314-30.62,7.3-42.365-5.248-5-5.4-33.086-30.837-33.086-30.837Z" transform="translate(-210.798 -146.29)"/><path class="d" d="M430.186,309.7a8.438,8.438,0,0,1-.466,1.25l-1.516,3.532c-1.25,3.082-3,7.564-5,13.161-4.032,11.212-8.963,26.889-14.194,44.281s-9.779,33.136-13.161,44.631c-1.666,5.714-3.1,10.329-4.115,13.494l-1.2,3.648a7.1,7.1,0,0,1-.466,1.249,8.531,8.531,0,0,1,.3-1.3q.4-1.383,1.049-3.7c.933-3.332,2.232-7.9,3.848-13.561,3.232-11.462,7.7-27.288,12.911-44.714S418.438,338.6,422.62,327.44c2.082-5.6,3.931-10,5.281-13.1l1.666-3.465a6.658,6.658,0,0,1,.619-1.18Z" transform="translate(-216.305 -136.867)"/><path class="m" d="M364.155,291.657s-12.978,7.38-17.726,11.662-53.794,74.268-60.075,96.076c-3.648,12.628,10.262,38.75,25.256,37.484,19.608-1.666,93.177-29.871,93.177-29.871l-16.51-35.935-41.649,6.664,30.237-30.387-11.277-56.51" transform="translate(-285.767 -149.427)"/><path class="d" d="M462.2,367.457a3.882,3.882,0,0,1-.733-.45l-2.032-1.4-7.38-5.265c-6.2-4.5-14.727-10.779-24.123-17.759l-6.281-4.681.583-.083c-5.981,7.813-11.312,14.627-15.194,19.442a57.643,57.643,0,0,1-6.481,7.48l6.047-7.83L421.6,337.3l.25-.333.333.25,6.3,4.665c9.4,6.98,17.859,13.327,23.973,17.976l7.147,5.481,1.933,1.533a3.951,3.951,0,0,1,.664.585Z" transform="translate(-209.319 -118.706)"/><path class="r" d="M348.776,294.63,315.79,309.424l13.161,28.6L349.576,324.4Z" transform="translate(-212.328 -85.712)"/><path class="s" d="M397.355,339.329l22.074-14.993a4.064,4.064,0,0,1,2.649-.7l28.855,2.465a2.216,2.216,0,0,1,2.032,2.266,3.931,3.931,0,0,1-1.216,3.065l-46.863,32.6L369.9,358.488Z" transform="translate(-229.737 -127.596)"/><path class="r" d="M367.67,335.267s11.912-8.83,14.71-9.313,15.377-.433,15.377-.433l10.6,6.048-6.564,4.448c-4.548-1-5.848-2.765-5.848-2.765l-7.33.483Z" transform="translate(-231.222 -126.332)"/><path class="r" d="M381.078,329.07l18.809,6.547,27.055,3.815a5.914,5.914,0,0,1-5.4,6.081c-3.332.35-8.963.733-8.963.733s-1.383,5-5.6,6.081a13.807,13.807,0,0,1-4.065,4.814,3.338,3.338,0,0,1-.833.367c-2.6.749-7.78,7.8-11.245,8.746s-22.39-3.515-22.39-3.515l-.8-29.754Z" transform="translate(-231.236 -123.967)"/><path class="t" d="M379,338.294c0-.083,1.5.317,3.882.8a71.9,71.9,0,0,0,9.479,1.233,68.914,68.914,0,0,0,9.529,0c2.449-.167,3.948-.383,3.965-.3a5,5,0,0,1-1.049.25c-.666.133-1.666.283-2.882.417a56.457,56.457,0,0,1-9.6.167,55.8,55.8,0,0,1-9.513-1.4c-1.2-.283-2.166-.55-2.816-.766A4.863,4.863,0,0,1,379,338.294Z" transform="translate(-223.677 -117.832)"/><path class="t" d="M385.016,342.92a4.236,4.236,0,0,1-.183,1.866,3.95,3.95,0,0,1-1.016,1.816,3.332,3.332,0,0,1-2.449.816,6.4,6.4,0,0,1-2.432-.7c-.683-.35-1.25-.716-1.749-.983-.966-.583-1.666-.8-1.666-.883a3.881,3.881,0,0,1,1.766.55,11.182,11.182,0,0,0,4.048,1.5,2.865,2.865,0,0,0,2.1-.65,3.679,3.679,0,0,0,.983-1.583,15.931,15.931,0,0,1,.6-1.749Z" transform="translate(-225.995 -114.744)"/><path class="t" d="M395.284,344.008a8.179,8.179,0,0,1-2.066.533,46.761,46.761,0,0,1-5,.616,45.368,45.368,0,0,1-5.115,0,8.335,8.335,0,0,1-2.116-.233c0-.167,3.232,0,7.2-.35S395.251,343.907,395.284,344.008Z" transform="translate(-222.352 -114.032)"/><path class="t" d="M383.584,348.727a6.664,6.664,0,0,1-6.464,1.016c0-.167,1.5.117,3.332-.167S383.584,348.593,383.584,348.727Z" transform="translate(-224.929 -110.888)"/><path class="t" d="M386.715,348.562a4.812,4.812,0,0,1-2.016.533,4.547,4.547,0,0,1-2.1,0,4.482,4.482,0,0,1,2.032-.533C385.765,348.429,386.7,348.412,386.715,348.562Z" transform="translate(-221.28 -111.057)"/><path class="t" d="M393.919,335.69a51.09,51.09,0,0,1-8.813-2.949c-2.4-.933-4.548-1.816-6.081-2.516a10.836,10.836,0,0,1-2.416-1.266,19.572,19.572,0,0,1,2.549.933l6.131,2.366,6.114,2.382a8.6,8.6,0,0,1,2.516,1.05Z" transform="translate(-225.269 -124.04)"/><path class="r" d="M413.073,339.117s-2.083-.716.167-4,8.546.7,8.546.7l8.046,4.781s1.8,4.182-.433,5.3l-1.666,2.033s3.148,3.182,1.883,5.964a4.332,4.332,0,0,1-4.382,2.4s.367,5.631-1.466,7.8a6.146,6.146,0,0,1-3.5,2.366,10,10,0,0,1-6.947,6.048c-5.4,1.383-8.23,1.483-9.7-.8a24.85,24.85,0,0,1-2.382-5.148s-11.579-6.081-11.828-9.163.283-3.332.283-3.332a5.781,5.781,0,0,1,.233-4.448c1.166-1.883,5.764-.233,5.764-.233l14.777,3.465s-11.828-5.548-13.228-7.363.1-4.048,4.848-3.482,19.092,3.249,19.092,3.249a4.4,4.4,0,0,0-1.666-1.832c-.95-.4-3.915-2.116-3.915-2.116Z" transform="translate(-216.784 -120.803)"/><path class="t" d="M416.332,353.4c0,.133-6.031-1.4-13.328-3.415s-13.328-3.782-13.244-3.915,6.031,1.4,13.327,3.415S416.366,353.27,416.332,353.4Z" transform="translate(-216.512 -112.649)"/><path class="t" d="M404.81,356.5a17.021,17.021,0,0,1-4.315-1.1,30.343,30.343,0,0,1-2.949-1.133,5.519,5.519,0,0,1-.866-.466,1.125,1.125,0,0,1-.2-.183V353.5c0,.033,1.832.633,4.148,1.4a22.92,22.92,0,0,1,4.182,1.6Z" transform="translate(-212.036 -107.7)"/><path class="t" d="M414.255,347.43c0,.133-2.915-.45-6.481-1.033a65.218,65.218,0,0,1-6.464-1.116,30.4,30.4,0,0,1,6.547.617,29.347,29.347,0,0,1,6.4,1.532Z" transform="translate(-208.82 -113.174)"/><path class="t" d="M413.628,342.9c-.1.133-1.266-.7-2.9-1.283s-3.049-.733-3.049-.883a5.464,5.464,0,0,1,3.232.4,5.548,5.548,0,0,1,2.717,1.766Z" transform="translate(-204.577 -116.257)"/><path class="d" d="M438.619,327.785h-.533l-1.549-.183c-1.333-.183-3.332-.433-5.648-.7-4.781-.55-11.412-1.133-18.759-1.3a10.4,10.4,0,0,0-5.131.6,21.636,21.636,0,0,0-2.1,1.383l-2,1.416-6.914,4.881-4.681,3.249L390,338a1.38,1.38,0,0,1-.466.267,4.57,4.57,0,0,1,.417-.35l1.233-.933,4.6-3.332,6.847-5,1.983-1.433a24.109,24.109,0,0,1,2.149-1.433,6.048,6.048,0,0,1,2.649-.666h2.732a180.559,180.559,0,0,1,18.775,1.449c2.4.316,4.332.633,5.647.866l1.533.283a1.668,1.668,0,0,1,.516.067Z" transform="translate(-216.658 -126.598)"/><path class="u" d="M409.357,328.483a1.4,1.4,0,0,0-1.383-.533h-.233a1.966,1.966,0,0,0-1.133.633,1.2,1.2,0,0,0,0,1.516,1.383,1.383,0,0,0,.816.383,2.032,2.032,0,0,0,1.666-.417A1.4,1.4,0,0,0,409.357,328.483Z" transform="translate(-205.471 -124.73)"/><path class="v" d="M390.358,233.249l-3.2-1.666a6.8,6.8,0,0,0-4.881-1.133c-1.583.45-2.682,1.966-4.315,2.132-1.9.217-3.465-1.5-5.364-1.4s-3.215,1.666-5,1.666c-1.333,0-2.749-.95-3.9-.3-.233.133-.433.317-.65.467a4.732,4.732,0,0,1-4.431-.25A6.114,6.114,0,0,0,354.19,232a7.048,7.048,0,0,0-2.3,1.849,3.181,3.181,0,0,1-2.682,1.1c-.55-.117-1-.466-1.549-.6-1.666-.433-3.149,1.4-4.9,1.866s-3.5-.366-5,.367a2.549,2.549,0,0,0-1.233,3.132,3.865,3.865,0,0,0,2.9,2.182,8.029,8.029,0,0,0,3.915-.283,9.495,9.495,0,0,1,3.149-.716c2.482.083,4.431,2.649,6.864,2.116a8.565,8.565,0,0,0,3-1.9,8.33,8.33,0,0,1,4.831-1.566,9.329,9.329,0,0,0,3.415-.183c1.316-.533,2.066-1.916,3.432-2.282s2.932.516,4.448.367c.983-.083,1.9-.633,2.9-.683,1.416-.083,2.7.833,4.115.716s2.666-1.316,4.115-1.2a9.773,9.773,0,0,1,1.666.45,1.8,1.8,0,0,0,1.666-.25c.316-.3.417-.783.8-1a1.664,1.664,0,0,1,.966-.1l4.7.483Z" transform="translate(-252.061 -189.695)"/><path class="v" d="M393.908,232.7c-1.583-1.166-3.7-2.382-5.481-1.4-.65.35-1.133.933-1.783,1.25-1.5.7-3.332-.217-4.9.217-1.349.383-2.249,1.666-3.5,2.249-2.016,1-5,.417-6.231,2.182-.683.966-.8,2.516-1.982,2.782a2.95,2.95,0,0,1-1.266-.15,10.564,10.564,0,0,0-4.4-.133,4.68,4.68,0,0,0-2.282.966c-1.2,1.083-1.233,2.932-2.382,4.065-1.666,1.666-4.781.883-6.98,1.966a13.663,13.663,0,0,0-2.682,2.216,30.43,30.43,0,0,1-5.664,3.449,12.3,12.3,0,0,0-5,4.215,4.464,4.464,0,0,0,.633,5.714,2.266,2.266,0,0,0,2.816.133c.25-.233.416-.567.65-.833a5.51,5.51,0,0,1,1.949-.983c.683-.266,1.4-.783,1.4-1.482,0-.433-.25-.95.1-1.25a1.051,1.051,0,0,1,.516-.167c1.766-.183,3.932-.1,4.881-1.533a10.2,10.2,0,0,0,.716-2.116,3.965,3.965,0,0,1,2.866-2.366c1.083-.25,2.3-.083,3.165-.75s1.016-2.182,1.9-3.015c1.483-1.4,4.415-.383,5.747-1.9.333-.383.516-.866.933-1.15,1.2-.783,2.649.833,4.065.566s1.666-1.666,2.515-2.466a14.547,14.547,0,0,1,4.115-1.9c1.749-.85,3.015-2.5,4.865-3.049,1.666-.483,3.565-.15,4.748-1.283.45-.433.766-1.049,1.383-1.249a2.715,2.715,0,0,1,1.1,0,8.33,8.33,0,0,0,5.281-1.066Z" transform="translate(-250.563 -189.316)"/><path class="v" d="M382.783,234.618a13.327,13.327,0,0,0-11.3,3.332,8.91,8.91,0,0,1-2.132,1.666,11.96,11.96,0,0,1-4.165.466,8.2,8.2,0,0,0-6.88,5.564c-.633,1.916-.866,4.431-2.716,5.1a5.7,5.7,0,0,0-1.016.366c-1.233.766-.383,2.732-.4,4.248,0,2.5-2.8,4.215-2.9,6.664a6.464,6.464,0,0,0,.65,2.649q1.449,3.582,3.182,7c.516,1.016,1.2,2.149,2.3,2.3,1.666.217,2.565-1.666,3.032-3.332a4.848,4.848,0,0,0,.1-3.482c-.466-.883-1.416-1.4-1.832-2.316-.65-1.449.4-3.065,1.149-4.448a13.325,13.325,0,0,0,1.283-9.179c1.666-.316,2.549-2.682,4.281-3.015a10.459,10.459,0,0,0,1.45-.183c1.149-.467,1.283-2.216,2.3-2.932s3.332-.167,3.9-1.583c.167-.45.083-.983.367-1.349a1.416,1.416,0,0,1,.916-.483l4.2-1.05a4.847,4.847,0,0,0,2.232-.983c1.083-1.033,1.25-3,2.616-3.532Z" transform="translate(-242.137 -186.998)"/><path class="v" d="M390.189,239.7c-.167-2.466-.633-5.431-2.815-6.431-1.283-.6-2.849-.283-4.115-.933-2.432-1.216-2.632-5.148-5-6.4s-5.531.683-7.43-1.149c-.983-.95-1.116-2.532-1.916-3.648a5.564,5.564,0,0,0-4.282-1.833,13.478,13.478,0,0,1-4.7-.633c-2.5-1.1-4.1-4.2-6.78-4.415-2.282-.167-4.065,1.833-5.5,3.665a3.517,3.517,0,0,0-.816,1.533,2.682,2.682,0,0,0,1.483,2.516c1.816,1.066,4.148.9,5.831,2.149a16.676,16.676,0,0,0,1.816,1.466c.966.516,2.182.4,3.115.983,1.816,1.116,1.783,4.165,3.6,5.3s3.932-.2,5.9.25c2.665.633,4.131,4.348,6.864,4.448a26.272,26.272,0,0,0,3.532-.783,3.915,3.915,0,0,1,3.782,2.232c.433.933.5,2.032,1.016,2.932a4.248,4.248,0,0,0,3.149,1.983,11.948,11.948,0,0,0,3.765-.217Z" transform="translate(-245.096 -200.43)"/><path class="v" d="M395.765,240.853c-1.666-3.149-3.715-6.514-7.13-7.98a44.266,44.266,0,0,1-5.3-1.849c-1.366-.8-2.332-2.082-3.615-3-2.982-2.116-7.1-1.982-10.762-1.4s-7.447,1.5-11.045.616c-3.232-.8-6.047-2.982-9.363-3.182a16.127,16.127,0,0,0-5.314.916l-6.031,1.666a2.8,2.8,0,0,0-1.666,1c-.65,1.083.616,2.332,1.816,2.832a11.062,11.062,0,0,0,6.231.666,15.293,15.293,0,0,1,5-.75,32.8,32.8,0,0,1,3.332,1.066,12.494,12.494,0,0,0,4.315,0l6.664-.7a9.346,9.346,0,0,1,5.081.433c1.2.583,2.149,1.666,3.482,1.833s2.9-.933,4.382-.716c1.766.283,2.649,2.249,4.265,3,1.9.883,4.4-.15,6.231.866,1.25.683,1.783,2.082,2.582,3.232a8.064,8.064,0,0,0,2.549,2.366,17.324,17.324,0,0,0,4.282,1.566Z" transform="translate(-252.737 -193.9)"/><path class="v" d="M385.426,238.915c-.8-1.1-2.016-2.216-1.666-3.549.167-.65.7-1.183.816-1.849.2-1.2-1.016-2.132-1.466-3.332s0-3-.766-4.231-2.532-1.483-4-1.849a5,5,0,0,1-3.732-2.915,17.173,17.173,0,0,1-.2-3.332,6.3,6.3,0,0,0-6.047-5.165,6.564,6.564,0,0,1-2.5-.283c-1.416-.666-1.666-2.482-2.549-3.832a5.3,5.3,0,0,0-5.448-2.549c-1,.2-2.1,1.249-1.516,2.082.233.333.666.466.983.733,1.133.966.317,2.915.983,4.232s2.8,1.666,3.449,3.065c.5,1.083-.083,2.432.383,3.532.583,1.349,2.332,1.666,3.8,1.666s3.215.4,3.765,1.666a8.05,8.05,0,0,1,.283,1.9,3.715,3.715,0,0,0,1.916,2.649c1.416.716,3.332.583,4.248,1.933s-.417,3.665.433,5.248c.616,1.149,2.1,1.449,3.215,2.149a1.266,1.266,0,0,1,.583.666,1.417,1.417,0,0,1-.2.883c-.883,1.8-2,3.865-1.15,5.664a7.446,7.446,0,0,0,1.533,1.866,15.778,15.778,0,0,1,3.865,6.664l1.549-6.78a6.947,6.947,0,0,0-.564-6.932Z" transform="translate(-238.866 -205.956)"/><path class="v" d="M383.053,214.26a4.548,4.548,0,0,0-1.966-5.248,3.582,3.582,0,0,0-5,1.883c-.666,2.216,1.2,4.815,0,6.814a7.08,7.08,0,0,0-1.016,1.583c-.417,1.466,1.416,2.7,1.433,4.231s-2.116,2.616-2.549,4.248,1.383,3.848.7,5.664a6.662,6.662,0,0,1-.883,1.366c-1.949,2.865-.95,6.664.117,10l4.415-.65c-.816-3.065,3.5-6.131,2.032-8.93-.7-1.333-2.616-2.3-2.182-3.748a2.847,2.847,0,0,1,.666-1l4.115-4.5a4.149,4.149,0,0,0,1.316-2.282c.183-1.949-2.249-3.215-2.566-5.165C381.553,216.992,382.6,215.643,383.053,214.26Z" transform="translate(-227.897 -204.192)"/><path class="m" d="M388.91,227.687c-.416-1.449-2.3-1.883-3.782-1.666-4.1.633-7.1,4.065-9.712,7.264a86.615,86.615,0,0,0-8.1,11.012,7.294,7.294,0,0,0-1.133,2.8,2.832,2.832,0,0,0,1.033,2.7,1.782,1.782,0,0,0,2.582-.6l1.216-.3a59.4,59.4,0,0,1,15.56-17.359C387.86,230.536,389.343,229.186,388.91,227.687Z" transform="translate(-232.238 -192.629)"/><path class="v" d="M366.9,286.768a142.739,142.739,0,0,1-1.516-24.423,49.6,49.6,0,0,1,6.53-23.324c.65-1.066,5.748-8,6.93-7.647.85.25-2.766,6.947-2.466,7.78,2.766,7.98,2.216,16.826,0,24.989a110.106,110.106,0,0,1-9.429,22.674" transform="translate(-232.77 -189.037)"/><path class="r" d="M405.978,342.923c1.166-5.648,2.1-10.1,2.149-10.1s19.808,1.833,24.839-17.176c2.432-9.179,5.881-28.488,8.813-46A36.651,36.651,0,0,0,414.591,228l-1.849-.466c-20.125-3.815-34.619,11.129-37.884,31.353l-13.677,70.37,31.353,32.953Z" transform="translate(-235.545 -191.981)"/><path class="t" d="M398.543,295.928A47.464,47.464,0,0,1,375.57,282.35s2.565,15.394,22.007,18.459Z" transform="translate(-225.962 -155.081)"/><path class="d" d="M405.945,262.951a2.8,2.8,0,0,1-3.332,2.082,2.682,2.682,0,0,1-2.182-3.165,2.816,2.816,0,0,1,3.332-2.083,2.665,2.665,0,0,1,2.182,3.165Z" transform="translate(-209.44 -170.151)"/><path class="d" d="M410.194,258.481c-.416.267-2.1-1.766-5-2.5s-5.448.2-5.681-.25c-.1-.2.4-.75,1.5-1.2a7.863,7.863,0,0,1,4.665-.233,7.4,7.4,0,0,1,3.9,2.432C410.327,257.648,410.41,258.364,410.194,258.481Z" transform="translate(-210.023 -173.927)"/><path class="d" d="M389.995,259.876a2.815,2.815,0,0,1-3.332,2.1,2.682,2.682,0,0,1-2.182-3.165,2.8,2.8,0,0,1,3.332-2.082,2.665,2.665,0,0,1,2.182,3.149Z" transform="translate(-220.062 -172.19)"/><path class="d" d="M392.8,254.86c-.433.267-2.116-1.766-5-2.5s-5.448.2-5.681-.25c-.117-.183.383-.75,1.5-1.183a7.664,7.664,0,0,1,4.648-.25,7.264,7.264,0,0,1,3.9,2.432C392.862,254.028,393,254.711,392.8,254.86Z" transform="translate(-221.613 -176.338)"/><path class="d" d="M391.43,278.079a19.988,19.988,0,0,1,5,.333c.766.117,1.516.15,1.766-.333a3.884,3.884,0,0,0,0-2.349c-.25-1.982-.5-4.065-.783-6.247-1.033-8.88-1.566-16.11-1.216-16.143s1.483,7.13,2.516,16.01c.25,2.182.466,4.265.683,6.264a4.466,4.466,0,0,1-.35,3.032,1.983,1.983,0,0,1-1.5.783,4.4,4.4,0,0,1-1.316-.15A19.8,19.8,0,0,1,391.43,278.079Z" transform="translate(-215.399 -174.401)"/><path class="d" d="M386.416,268.113c.483.083-.317,3.332,1.849,6.214s5.631,3.432,5.531,3.882-.9.433-2.349.117a8.23,8.23,0,0,1-4.665-3.082,7.08,7.08,0,0,1-1.349-5.148C385.567,268.729,386.117,268.029,386.416,268.113Z" transform="translate(-219.432 -164.567)"/><path class="d" d="M395.7,247.526c-.5.733-3.332-.383-6.864-.833s-6.564-.217-6.831-1.05c-.117-.383.55-1.016,1.866-1.5a11.9,11.9,0,0,1,10.429,1.433C395.433,246.393,395.916,247.176,395.7,247.526Z" transform="translate(-221.684 -180.931)"/><path class="d" d="M410.633,252.492c-.683.533-2.532-.65-5-1.3s-4.6-.683-4.9-1.5c-.117-.383.367-.966,1.433-1.383a7.447,7.447,0,0,1,7.93,2.266C410.833,251.476,410.932,252.226,410.633,252.492Z" transform="translate(-209.213 -177.984)"/><path class="t" d="M374.35,255.691c-.3-.217-12.128-7.164-14.994,5.964s10.929,13.328,11.029,12.928S374.35,255.691,374.35,255.691Z" transform="translate(-237.019 -174.186)"/><path class="w" d="M366.066,267.092a3.658,3.658,0,0,1-.683.2,2.3,2.3,0,0,1-1.666-.333c-1.283-.816-1.966-3.332-1.516-5.648a7.532,7.532,0,0,1,1.35-3.132,2.682,2.682,0,0,1,2.1-1.383,1.183,1.183,0,0,1,1.216.916,1.333,1.333,0,0,1,0,.683c0,.033.333-.15.35-.716a1.5,1.5,0,0,0-.333-.933,1.747,1.747,0,0,0-1.2-.616,3.332,3.332,0,0,0-2.832,1.516,8.1,8.1,0,0,0-1.666,3.482c-.483,2.666.333,5.448,2.116,6.414a2.549,2.549,0,0,0,2.166.1C365.966,267.409,366.1,267.125,366.066,267.092Z" transform="translate(-235.633 -172.543)"/><path class="v" d="M434.847,247.17c2.382-.733-2.582-8.963-7.313-12.428-7.164-5.231-18.792-10-26.522-9.413-9.3.65-17.509,3.5-23.573,10.579a52.894,52.894,0,0,0-11.329,25.223,16.06,16.06,0,0,0,.183,8.43c1.233,3.332,4.382,5.864,3.332,9.846a5.6,5.6,0,0,0,.533,4.3c1.866,3.065,5.314,1.266,7.18-.866,3.965-4.548,5.564-10.629,7.047-16.493a38.782,38.782,0,0,0,1.783-12.678c-.183-2.332-.783-4.631-.85-6.964a8.13,8.13,0,0,1,2.316-6.381,9.989,9.989,0,0,1,1.283-.85,13.994,13.994,0,0,1,14.161.25c6.864,4.165,18.709,10.712,22.54,8.9,5.514-2.632,7.147-4.748,7.147-4.748Z" transform="translate(-232.578 -193.087)"/><path class="d" d="M334.538,395.676a5.251,5.251,0,0,1,1.066-.466l3.115-1.216,11.762-4.4L391.2,374.6l-.233.566c-3.332-7.347-7.064-15.344-10.9-23.623L374.454,339.3l.45.233L334.122,345.8h0a82.514,82.514,0,0,0-21.074,9.263c-2.332,1.433-4.082,2.665-5.281,3.5l-1.333.966a1.668,1.668,0,0,1-.483.3l.417-.383,1.283-1.033c1.15-.9,2.882-2.182,5.2-3.665a79.759,79.759,0,0,1,21.091-9.579h0L374.7,338.8h.317l.15.283c1.816,3.982,3.715,8.08,5.631,12.245,3.8,8.33,7.48,16.276,10.845,23.64l.2.4-.433.167-40.833,14.66-11.828,4.182-3.165,1.083Z" transform="translate(-272.325 -117.488)"/><path class="d" d="M347.842,328a28.556,28.556,0,0,1-3.332,4.1c-2.166,2.449-5.2,5.781-8.646,9.4s-6.664,6.8-9.08,8.979a27.038,27.038,0,0,1-3.032,2.449c-.417.233-.7.467-1.066.4a.25.25,0,0,1,0-.333v-.083s0,.216.1.25a2.348,2.348,0,0,0,.8-.5c.683-.566,1.666-1.483,2.8-2.616,2.316-2.3,5.448-5.548,8.88-9.146l8.83-9.213A32.306,32.306,0,0,1,347.842,328Z" transform="translate(-261.223 -124.68)"/><path class="d" d="M348.923,334.749c-.183,0,.35-2.615.35-6.83a43.866,43.866,0,0,0-.633-7.33,45.417,45.417,0,0,0-6.431-16.743,46.015,46.015,0,0,0-4.465-5.881c-2.832-3.115-5-4.681-4.832-4.814a7.636,7.636,0,0,1,1.533,1.033,16.417,16.417,0,0,1,1.666,1.383,27.491,27.491,0,0,1,2.082,1.983,41.176,41.176,0,0,1,4.681,5.864,46.222,46.222,0,0,1,4.2,8.163,47.652,47.652,0,0,1,2.366,8.88,40.678,40.678,0,0,1,.45,7.48,27.322,27.322,0,0,1-.217,2.865,14.981,14.981,0,0,1-.317,2.149,7.65,7.65,0,0,1-.433,1.8Z" transform="translate(-254.375 -147.889)"/><path class="d" d="M368,396.8a52.237,52.237,0,0,1,5.464,0,49.713,49.713,0,0,0,24.856-7.33c2.865-1.666,4.5-3.065,4.6-2.949s-.333.416-1.05,1.049a33.678,33.678,0,0,1-3.215,2.416,44.974,44.974,0,0,1-12.028,5.631,44.466,44.466,0,0,1-13.161,1.8,31.362,31.362,0,0,1-4.015-.283A5.318,5.318,0,0,1,368,396.8Z" transform="translate(-231.003 -85.711)"/><path class="d" d="M396.519,370.612a7.217,7.217,0,0,1-1.116,1.416c-.75.883-1.883,2.116-3.332,3.632-2.849,3.015-6.93,7.064-11.662,11.278s-9.179,7.847-12.495,10.346c-1.666,1.249-3.015,2.249-3.982,2.9a6.666,6.666,0,0,1-1.533.95,7.492,7.492,0,0,1,1.333-1.216l3.8-3.115c3.2-2.615,7.6-6.281,12.311-10.5s8.829-8.18,11.8-11.079l3.5-3.432a6.8,6.8,0,0,1,1.381-1.18Z" transform="translate(-234.732 -96.305)"/></g></g></svg>