<svg id="Vector" xmlns="http://www.w3.org/2000/svg" width="745.579" height="749" viewBox="0 0 745.579 749">
  <g id="Background_Complete" data-name="Background Complete" transform="translate(0 141.252)">
    <path id="Path_13234" data-name="Path 13234" d="M450.22,128l18.123-14.672" transform="translate(-419.909 -113.33)" fill="#fff"/>
    <g id="Group_7740" data-name="Group 7740" transform="translate(0 184.965)">
      <path id="Path_13237" data-name="Path 13237" d="M361.57,344.9a59.054,59.054,0,0,1,25.226-8.686c4.118-.417,8.636-.3,11.937,2.2a2.484,2.484,0,0,1,1.234,2.184,2.684,2.684,0,0,1-1.167,1.484c-10.27,7.836-25.792,8.82-37.23,2.818" transform="translate(-203.731 -149.699)" fill="#e0e0e0"/>
      <path id="Path_13238" data-name="Path 13238" d="M368.1,356.741a122.289,122.289,0,0,0,16.289-14.322,41.4,41.4,0,0,0,10.22-18.89,7.686,7.686,0,0,0-.8-6.319c-12.988,10.137-23.191,23.342-25.709,39.531" transform="translate(-209.614 -162.255)" fill="#e0e0e0"/>
      <path id="Path_13239" data-name="Path 13239" d="M397.031,356.91a58.734,58.734,0,0,0-.3-21.391,28.911,28.911,0,0,0-11.388-17.64c-2.251,5.235-1.284,11.287.3,16.773a80.8,80.8,0,0,0,11.3,23.775" transform="translate(-239.059 -161.808)" fill="#e0e0e0"/>
      <path id="Path_13240" data-name="Path 13240" d="M373.08,355c7.719.934,14.455,5,20.224,10.237a38.231,38.231,0,0,1,11.571,19.774c-7.586-.467-14-5.819-18.673-11.8s-7.9-12.571-13.021-18.173" transform="translate(-227.829 -137.04)" fill="#e0e0e0"/>
      <path id="Path_13241" data-name="Path 13241" d="M399.87,376.043A49.868,49.868,0,0,0,394.1,328.86c-4.4,15.656-2.784,33.345,5.769,47.183" transform="translate(-257.387 -154.482)" fill="#e0e0e0"/>
      <path id="Path_13242" data-name="Path 13242" d="M383.061,369.209a36.029,36.029,0,0,1,34.5,19.857,2.651,2.651,0,0,1,.233,2.7,2.517,2.517,0,0,1-2.284.667c-6.8-.433-12.821-4.518-17.806-9.187s-9.3-10-14.789-14.055" transform="translate(-257.401 -127.607)" fill="#e0e0e0"/>
      <path id="Path_13243" data-name="Path 13243" d="M412.634,387.648a64.226,64.226,0,0,0,.65-35.879c-1.267-4.618-3.335-9.487-7.67-11.671a1.467,1.467,0,0,0-1.167-.2,1.484,1.484,0,0,0-.734.85,21.676,21.676,0,0,0-1.817,10.3,65.006,65.006,0,0,0,1.667,10.42c1.35,6.369,2.067,13.221,5.552,18.707a37.728,37.728,0,0,1,2.234,4.118c.65,1.384.65,1.884,1.267,2.985" transform="translate(-286.44 -147.146)" fill="#e0e0e0"/>
      <path id="Path_13244" data-name="Path 13244" d="M441.724,388.323c3.334-12.538-.2-27.76-8.12-38.047-.583-.75-1.35-1.567-2.3-1.484-1.451.133-1.834,2.084-1.767,3.534a68.675,68.675,0,0,0,12.188,36" transform="translate(-360.045 -141.186)" fill="#e0e0e0"/>
      <path id="Path_13245" data-name="Path 13245" d="M478.106,379.416c-15.255,3.968-32.728.1-45.416-9.237a36.679,36.679,0,0,1,24.592-3.018c8.2,1.867,15.706,5.552,20.824,12.254" transform="translate(-400.445 -129.527)" fill="#e0e0e0"/>
      <path id="Path_13246" data-name="Path 13246" d="M475.935,378.682c-8.536-13.922-24.909-23.008-41.215-23.842,1.867,6.669,7.319,11.788,13.472,14.905s13.021,4.468,19.79,5.785c2.634.517,6.236,1.084,7.953,3.151" transform="translate(-401.659 -137.147)" fill="#e0e0e0"/>
      <path id="Path_13247" data-name="Path 13247" d="M432.8,364.037a119.152,119.152,0,0,1-5.352-24.142c-.633-8.22.534-16.806,4.8-23.875,7.969,15.439,8.786,33.462.7,48.85" transform="translate(-351.975 -163.05)" fill="#e0e0e0"/>
      <path id="Path_13248" data-name="Path 13248" d="M494.5,349.645c-9.32-16.956-28.343-30.494-47.6-32.395,7.419,18.506,27.676,32.795,47.6,32.395" transform="translate(-440.531 -162.229)" fill="#e0e0e0"/>
      <path id="Path_13249" data-name="Path 13249" d="M497.661,339.788c-13.905,2.118-25.759,11-38.764,16.389a17.407,17.407,0,0,1-8.753,1.667,6.869,6.869,0,0,1-4.3-12.138,18.692,18.692,0,0,1,6.369-3.851c14.155-5.9,29.344-6.052,44.249-2.468" transform="translate(-437.824 -149.054)" fill="#e0e0e0"/>
      <path id="Path_13250" data-name="Path 13250" d="M477.965,344.789c-3.151.9-4.218,2.534-6.669,4.668A72.507,72.507,0,0,1,441.9,364.546c-1.117.284-2.6.4-3.151-.617s.133-1.967.767-2.751a40.516,40.516,0,0,1,17.69-12.054c6.786-2.517,12.655-5.569,20.757-4.918" transform="translate(-410.075 -144.301)" fill="#e0e0e0"/>
      <path id="Path_13251" data-name="Path 13251" d="M478.09,309.78A55.6,55.6,0,0,1,435.442,324.3a2.9,2.9,0,0,1-1.934-.7c-1.084-1.167.2-2.968,1.45-3.951,12.538-9.77,27.726-13.822,43.132-9.87" transform="translate(-401.113 -168.213)" fill="#e0e0e0"/>
      <path id="Path_13252" data-name="Path 13252" d="M492.779,311.448a59.5,59.5,0,0,0-53.219-8.786A42.231,42.231,0,0,0,464.919,313.8a80.593,80.593,0,0,0,27.86-2.351" transform="translate(-426.572 -173.817)" fill="#e0e0e0"/>
      <path id="Path_13253" data-name="Path 13253" d="M432.692,305.664c1.217-12.521.433-22.391,1.3-35.012,0-1,.284-2.217,1.217-2.584,1.317-.5,2.4,1.117,2.834,2.451a40.014,40.014,0,0,1-5.335,34.812" transform="translate(-362.218 -195.108)" fill="#e0e0e0"/>
      <path id="Path_13254" data-name="Path 13254" d="M463.994,307.157A73.681,73.681,0,0,1,443.254,287c-4.085-5.6-7.536-12.3-6.669-19.19a19.89,19.89,0,0,1,15.005,7.436,41.68,41.68,0,0,1,7.636,15.339c1.667,5.5,2.818,11.154,4.768,16.573" transform="translate(-392.602 -195.218)" fill="#e0e0e0"/>
      <path id="Path_13255" data-name="Path 13255" d="M499.528,300.515A167.44,167.44,0,0,1,448.51,270.5c6.1-2.451,13.072-.984,19.174,1.484,13.9,5.619,25.292,15.105,32.111,28.46" transform="translate(-448.51 -194.261)" fill="#e0e0e0"/>
      <path id="Path_13256" data-name="Path 13256" d="M496.587,301.429c-9.42,1.017-18.99,1.667-28.343.133s-17.856-5.185-26.443-8.786a3.134,3.134,0,0,1-1.8-1.367,2.067,2.067,0,0,1,.65-2.268,5.485,5.485,0,0,1,2.251-1.05c9.337-2.618,19.407-1.384,28.577,1.667a131.809,131.809,0,0,1,25.092,11.671" transform="translate(-430.931 -182.638)" fill="#e0e0e0"/>
      <path id="Path_13257" data-name="Path 13257" d="M408.283,326.035c6.436-12.971,6.019-28.11.467-41.465-3.9,5.952-4.385,13.521-3.668,20.607s2.868,14.388,3,21.508" transform="translate(-288.858 -184.034)" fill="#e0e0e0"/>
      <path id="Path_13258" data-name="Path 13258" d="M367.177,301.682a57.77,57.77,0,0,1,42.982,18.34c-8,1.251-16.256-.817-23.542-4.368a118.871,118.871,0,0,1-20.157-13.5" transform="translate(-222.076 -172.62)" fill="#e0e0e0"/>
      <path id="Path_13259" data-name="Path 13259" d="M357.64,298.521c7.853-.634,15.405-1.667,22.941.717a27.443,27.443,0,0,1,17.49,14.822,41.362,41.362,0,0,1-21.508-4.068,121.711,121.711,0,0,1-18.923-11.471" transform="translate(-195.283 -175.244)" fill="#e0e0e0"/>
      <path id="Path_13260" data-name="Path 13260" d="M370.5,303.192c7.053-4.618,14.3-9.337,22.524-11.254s17.74-.5,23.475,5.7c-6.669,3.9-14.722,4.368-22.441,4.351s-17.173,0-24.442,2.484" transform="translate(-233.689 -179.649)" fill="#e0e0e0"/>
      <path id="Path_13261" data-name="Path 13261" d="M389.47,318.351C401.541,306.5,406.142,285.206,401.257,269a75.159,75.159,0,0,0-11.788,49.351" transform="translate(-252.705 -194.424)" fill="#e0e0e0"/>
      <path id="Path_13262" data-name="Path 13262" d="M446.51,294.044c-2.267-5.285-3.868-10.837-5.919-16.222a46.451,46.451,0,0,0-8.436-15.005,22.208,22.208,0,0,0-15.005-7.736,60.188,60.188,0,0,0,29.01,39.031" transform="translate(-342.941 -203.712)" fill="#e0e0e0"/>
      <path id="Path_13263" data-name="Path 13263" d="M394.82,291.164c3.768-5.185,8.12-12.221,13.221-16.089s11.754-6.219,17.99-4.735a41.915,41.915,0,0,1-31.211,20.824" transform="translate(-285.231 -193.83)" fill="#e0e0e0"/>
      <path id="Path_13264" data-name="Path 13264" d="M413.886,294.27A89.527,89.527,0,0,0,419.838,275a30.128,30.128,0,0,0-3.018-19.607c-6.669,12.521-8.77,25.959-3.335,39.03" transform="translate(-305.498 -203.505)" fill="#e0e0e0"/>
      <path id="Path_13265" data-name="Path 13265" d="M453,266c-3.751-12.421-15.122-21.558-27.393-25.759a10.369,10.369,0,0,0-4.8-.717,4.185,4.185,0,0,0-3.551,2.951c-.45,2.117,1.3,4.018,2.934,5.419A93.484,93.484,0,0,0,453,266" transform="translate(-349.478 -214.117)" fill="#e0e0e0"/>
      <path id="Path_13266" data-name="Path 13266" d="M435.879,266c-.483-8-.984-16.122-3.585-23.708s-7.619-14.705-14.922-18.023c-1.25,8.086,2.318,16.122,6.669,23.092s9.487,13.521,12.071,21.274" transform="translate(-332.493 -224.27)" fill="#e0e0e0"/>
      <path id="Path_13267" data-name="Path 13267" d="M403.2,269.988c3.1-9.036,3.435-20.54,8.853-28.343,3.785-5.519,9.853-9.27,13.1-15.105a22.958,22.958,0,0,1-.75,17.139,49.687,49.687,0,0,1-10,14.355c-4,4.268-7.436,7.5-11.171,12.021" transform="translate(-299.626 -222.755)" fill="#e0e0e0"/>
      <path id="Path_13268" data-name="Path 13268" d="M417.317,520.322c.233,0,.45-60.355.467-134.8s-.167-134.814-.417-134.814-.45,60.354-.467,134.814S417.067,520.322,417.317,520.322Z" transform="translate(-313.798 -206.628)" fill="#e0e0e0"/>
      <path id="Path_13269" data-name="Path 13269" d="M417.132,304a15.148,15.148,0,0,0,2.268.85l6.252,2.1c5.269,1.8,12.5,4.4,20.34,7.619s15.105,6.035,19.29,9.653a14.1,14.1,0,0,1,3.868,5.118c.6,1.417.717,2.284.784,2.284s0-.233,0-.634a9.719,9.719,0,0,0-.45-1.767,13.537,13.537,0,0,0-3.785-5.469,33.689,33.689,0,0,0-8.336-5.185c-3.335-1.567-7.069-3.2-11-4.818-7.869-3.218-15.155-5.736-20.491-7.386-2.651-.834-4.835-1.434-6.336-1.851A12.268,12.268,0,0,0,417.132,304Z" transform="translate(-366.365 -171.07)" fill="#e0e0e0"/>
      <path id="Path_13270" data-name="Path 13270" d="M419.629,278.512a4.242,4.242,0,0,0,.634.667L422.2,281l7.236,6.569,24.075,21.441c9.387,8.336,17.506,16.339,23.125,22.358,2.818,3,5,5.5,6.553,7.236.717.8,1.283,1.467,1.751,2s.633.684.65.65a3.349,3.349,0,0,0-.517-.767c-.367-.483-.9-1.2-1.667-2.1-1.434-1.817-3.585-4.368-6.352-7.436a305.142,305.142,0,0,0-23.025-22.591c-9.42-8.336-18.006-15.839-24.225-21.241l-7.419-6.369-2.051-1.667C419.946,278.662,419.646,278.478,419.629,278.512Z" transform="translate(-386.152 -188.079)" fill="#e0e0e0"/>
      <path id="Path_13271" data-name="Path 13271" d="M439.612,310.267c.25-.117-1.667-4.652-3.668-10.37s-2.918-10.57-3.168-10.537a35.773,35.773,0,0,0,2.334,10.8,70.244,70.244,0,0,0,2.918,7.253,11.663,11.663,0,0,0,1.584,2.851Z" transform="translate(-362.119 -180.839)" fill="#e0e0e0"/>
      <path id="Path_13272" data-name="Path 13272" d="M396.21,341.452a10.707,10.707,0,0,0,1.451-1.667l3.718-4.685c3.118-4.035,7.419-9.587,12.238-15.672s9.27-11.537,12.487-15.489l3.818-4.768a11.682,11.682,0,0,0,1.317-1.8,11.665,11.665,0,0,0-1.567,1.584c-.967,1.034-2.334,2.584-4,4.5-3.335,3.851-7.87,9.253-12.7,15.355s-9.053,11.671-12.054,15.839c-1.5,2.051-2.685,3.735-3.485,4.918a13.6,13.6,0,0,0-1.217,1.884Z" transform="translate(-292.757 -175.494)" fill="#e0e0e0"/>
      <path id="Path_13273" data-name="Path 13273" d="M406.686,322.213a21.108,21.108,0,0,0,4.852-9.07,26.426,26.426,0,0,0,1.1-9.137h-.384c.167.7.284,1.067.367,1.05s0-.4,0-1.117h-.384a41.488,41.488,0,0,1-1.534,8.886,67.275,67.275,0,0,1-4.018,9.387Z" transform="translate(-291.662 -171.11)" fill="#e0e0e0"/>
      <path id="Path_13274" data-name="Path 13274" d="M385.68,305.148a14.792,14.792,0,0,1,3.335-1.967,22.459,22.459,0,0,1,9.387-.75,57.317,57.317,0,0,1,9.453,1.534,30.917,30.917,0,0,0,3.9.934,12.989,12.989,0,0,0-3.735-1.534,43.183,43.183,0,0,0-9.553-1.8,20.325,20.325,0,0,0-9.687,1.05,5.837,5.837,0,0,0-3.1,2.534Z" transform="translate(-255.718 -172.818)" fill="#e0e0e0"/>
      <path id="Path_13275" data-name="Path 13275" d="M377.18,303.132c0,.133,1.967-.8,5.185-1.884a52.606,52.606,0,0,1,12.921-2.668,53.724,53.724,0,0,1,13.188.667c3.335.6,5.368,1.234,5.419,1.084a4.421,4.421,0,0,0-1.384-.584,33.654,33.654,0,0,0-3.9-1.1,46.152,46.152,0,0,0-26.46,2.017,33.157,33.157,0,0,0-3.7,1.667,4.837,4.837,0,0,0-1.267.8Z" transform="translate(-243.683 -175.354)" fill="#e0e0e0"/>
      <path id="Path_13276" data-name="Path 13276" d="M413.12,299.949a105.6,105.6,0,0,0,3.785-13.121,108,108,0,0,0,2.934-13.338,110.052,110.052,0,0,0-3.785,13.138,108.15,108.15,0,0,0-2.934,13.321Z" transform="translate(-309.551 -191.428)" fill="#e0e0e0"/>
      <path id="Path_13277" data-name="Path 13277" d="M411.08,295.052a65.409,65.409,0,0,1,4.185-7.853,34.808,34.808,0,0,1,6.169-6.369,5.872,5.872,0,0,0-2.384,1.234,19.624,19.624,0,0,0-4.5,4.635,17.424,17.424,0,0,0-3.468,8.353Z" transform="translate(-307.744 -186.53)" fill="#e0e0e0"/>
      <path id="Path_13278" data-name="Path 13278" d="M384.03,428.378c.083,0,.267-1.451.95-4.018a56.685,56.685,0,0,1,4.035-10.437c4.168-8.519,11.754-19.34,21.391-30.16,4.785-5.452,9.42-10.6,13.338-15.539a107.684,107.684,0,0,0,9.537-13.755,64.779,64.779,0,0,0,4.818-10.22c.45-1.267.767-2.234.951-2.918a4.1,4.1,0,0,0,.25-1.05c-.083,0-.517,1.384-1.517,3.851a72.247,72.247,0,0,1-5,10,111.687,111.687,0,0,1-9.637,13.571c-3.951,4.885-8.586,10-13.338,15.472-9.67,10.854-17.239,21.791-21.308,30.461a52.729,52.729,0,0,0-3.8,10.637,28.094,28.094,0,0,0-.533,3.018A4.68,4.68,0,0,0,384.03,428.378Z" transform="translate(-280.511 -146.862)" fill="#e0e0e0"/>
      <path id="Path_13279" data-name="Path 13279" d="M417.18,360.83a19.551,19.551,0,0,0,2.5,1.4,54,54,0,0,1,6.469,4.285,74.651,74.651,0,0,1,8.519,7.769c2.984,3.151,6.052,6.819,9.2,10.737,6.269,7.886,12.138,14.855,15.656,20.407,1.784,2.768,3.084,5.1,3.935,6.669a20.777,20.777,0,0,0,1.384,2.518,2.884,2.884,0,0,0-.233-.7c-.183-.45-.433-1.134-.834-1.968a67.328,67.328,0,0,0-3.718-6.886c-3.418-5.7-9.253-12.771-15.505-20.641-3.151-3.918-6.269-7.6-9.3-10.754a70.759,70.759,0,0,0-8.72-7.686,44.888,44.888,0,0,0-6.669-4.1c-.817-.417-1.5-.667-1.951-.85a2.429,2.429,0,0,0-.734-.2Z" transform="translate(-361.327 -133.15)" fill="#e0e0e0"/>
      <path id="Path_13280" data-name="Path 13280" d="M426.57,371.334a39.145,39.145,0,0,0,5.285.767,69.682,69.682,0,0,1,12.521,2.468,37.461,37.461,0,0,1,11.2,5.885c2.584,1.984,3.8,3.635,3.935,3.551a4.352,4.352,0,0,0-.784-1.217,19.847,19.847,0,0,0-2.751-2.818,34.064,34.064,0,0,0-11.337-6.236,56.945,56.945,0,0,0-12.738-2.251A29.056,29.056,0,0,0,426.57,371.334Z" transform="translate(-371.651 -126.181)" fill="#e0e0e0"/>
      <path id="Path_13281" data-name="Path 13281" d="M433.957,384.92c.283-.167-2.1-3.8-3.951-8.686s-2.134-9.253-2.451-9.2a8.9,8.9,0,0,0,.1,2.834,30.018,30.018,0,0,0,1.534,6.669,31.435,31.435,0,0,0,3.068,6.119,8.8,8.8,0,0,0,1.7,2.267Z" transform="translate(-347.644 -129.013)" fill="#e0e0e0"/>
      <path id="Path_13282" data-name="Path 13282" d="M417.21,332.71a3.561,3.561,0,0,0,.85.45l2.484,1.117c1.084.467,2.4,1.067,3.885,1.851s3.234,1.567,5,2.651l2.868,1.667c1,.583,2,1.25,3.051,1.917,2.117,1.284,4.252,2.868,6.519,4.5a112.328,112.328,0,0,1,25.109,25.976c1.551,2.334,3.051,4.5,4.268,6.669.617,1.084,1.267,2.084,1.817,3.1l1.534,2.951c1.017,1.834,1.751,3.6,2.484,5.119a41.967,41.967,0,0,1,1.667,3.951c.4,1.1.767,1.867,1.034,2.518a3.223,3.223,0,0,0,.434.867,4.735,4.735,0,0,0-.267-.917c-.233-.683-.517-1.534-.884-2.584s-.884-2.484-1.584-4.018-1.367-3.334-2.367-5.218l-1.5-2.984c-.517-1.034-1.167-2.051-1.767-3.151-1.2-2.184-2.7-4.4-4.235-6.752A107.257,107.257,0,0,0,442.3,346.215a78.9,78.9,0,0,0-6.669-4.468c-1.067-.65-2.067-1.317-3.084-1.884l-2.934-1.667c-1.834-1.05-3.6-1.817-5.119-2.551a38,38,0,0,0-3.968-1.667l-2.551-.984a3.5,3.5,0,0,0-.767-.283Z" transform="translate(-376.746 -151.913)" fill="#e0e0e0"/>
      <path id="Path_13283" data-name="Path 13283" d="M454.958,350.392a6.136,6.136,0,0,0-2.084-3.085,13.087,13.087,0,0,0-8.336-3.218,23.339,23.339,0,0,0-8.8,1.667,12.405,12.405,0,0,0-3.335,1.667,20.571,20.571,0,0,0,3.535-1.034,26.462,26.462,0,0,1,8.553-1.417,13.54,13.54,0,0,1,7.986,2.8A25.014,25.014,0,0,1,454.958,350.392Z" transform="translate(-376.814 -144.32)" fill="#e0e0e0"/>
      <path id="Path_13284" data-name="Path 13284" d="M432.343,357.679a31.672,31.672,0,0,1-2.384-7.719,32.027,32.027,0,0,1,.534-8.069,5.317,5.317,0,0,0-.967,2.251,15.972,15.972,0,0,0,1.351,11.57C431.576,357.079,432.226,357.729,432.343,357.679Z" transform="translate(-348.53 -145.787)" fill="#e0e0e0"/>
      <path id="Path_13285" data-name="Path 13285" d="M475.426,398.31c-1.3,23.075-8.253,46.533-18.94,70.242h-46.5c-10.187-23.475-16.673-46.9-17.806-70.242Z" transform="translate(-330.225 -108.142)" fill="#e0e0e0"/>
      <path id="Path_13286" data-name="Path 13286" d="M396.58,420.874c0,.233,15.305.434,34.179.434s34.2-.2,34.2-.434-15.305-.434-34.2-.434S396.58,420.623,396.58,420.874Z" transform="translate(-327.089 -93.375)" fill="#fafafa"/>
      <path id="Path_13287" data-name="Path 13287" d="M398.55,425.883c0,.233,14.355.433,32.045.433s32.061-.2,32.061-.433-14.355-.434-32.061-.434S398.55,425.65,398.55,425.883Z" transform="translate(-328.075 -90.032)" fill="#fafafa"/>
      <path id="Path_13288" data-name="Path 13288" d="M404.173,407.39a132.588,132.588,0,0,0,0,21.424,132.567,132.567,0,0,0,0-21.424Z" transform="translate(-278.68 -102.083)" fill="#fafafa"/>
      <path id="Path_13289" data-name="Path 13289" d="M419.1,407.39a142.19,142.19,0,0,0,0,22.191,142.2,142.2,0,0,0,0-22.191Z" transform="translate(-318.502 -102.083)" fill="#fafafa"/>
      <path id="Path_13290" data-name="Path 13290" d="M433.173,407.28a147.816,147.816,0,0,0,0,22.625,147.8,147.8,0,0,0,0-22.625Z" transform="translate(-356.03 -102.156)" fill="#fafafa"/>
      <path id="Path_13291" data-name="Path 13291" d="M393.13,407.564c0,.25,17.956.45,40.1.45s40.1-.2,40.1-.45-17.94-.434-40.1-.434S393.13,407.33,393.13,407.564Z" transform="translate(-329.708 -102.256)" fill="#fafafa"/>
    </g>
  </g>
  <g id="Floor" transform="translate(22.574 695.465)">
    <path id="Path_13292" data-name="Path 13292" d="M33.15,446.173c0,.233,161.457.433,360.594.433s360.627-.2,360.627-.433-161.424-.433-360.627-.433S33.15,445.923,33.15,446.173Z" transform="translate(-33.15 -445.74)" fill="#263238"/>
  </g>
  <g id="Screen" transform="translate(217.327)">
    <path id="Path_13442" data-name="Path 13442" d="M455.433,37.035c-55.249.062-200.057-.018-266.791-.085a42.141,42.141,0,0,0-28.888,11.313,37.381,37.381,0,0,0-11.918,27.254l-.126,618.608c-.04,21.259,18.208,38.528,40.77,38.584l266.791.153a42.141,42.141,0,0,0,28.888-11.313A37.381,37.381,0,0,0,496.077,694.3L496.2,75.67a37.392,37.392,0,0,0-11.885-27.281A42.154,42.154,0,0,0,455.433,37.035Z" transform="translate(-147.71 -36.95)" fill="#f5f5f5"/>
    <path id="Path_13293" data-name="Path 13293" d="M431.86,37.033H384.01a11.9,11.9,0,0,0-11.671,12.188v8.72a11.9,11.9,0,0,1-11.671,12.188H267.3a11.921,11.921,0,0,1-11.671-12.188V49.154a11.921,11.921,0,0,0-11.671-12.2H185.507a37.713,37.713,0,0,0-37.68,37.8l-.117,606.247a37.747,37.747,0,0,0,37.647,37.813l246.353.15a37.713,37.713,0,0,0,37.68-37.8L469.507,74.9A37.73,37.73,0,0,0,431.86,37.033Z" transform="translate(-134.685 -23.043)" fill="#fdfcfc"/>
    <path id="Path_13294" data-name="Path 13294" d="M432.029,37.182h1.3a28.239,28.239,0,0,1,3.818.3,35.562,35.562,0,0,1,14.155,5,36.681,36.681,0,0,1,8.586,7,37.685,37.685,0,0,1,7.136,11.3,39.1,39.1,0,0,1,2.8,15.322q0,8.353,0,17.79c0,50.3,0,123.093.1,213.025s0,197.036,0,315.945v56.586c0,1.9-.117,3.851-.2,5.785a41.663,41.663,0,0,1-1.084,5.719,38.346,38.346,0,0,1-12.288,19.54,40.966,40.966,0,0,1-10,6.136,38.467,38.467,0,0,1-11.521,2.7l-2.985.15H188.377a39.445,39.445,0,0,1-24.509-6.835,38.515,38.515,0,0,1-14.839-20.674,41.885,41.885,0,0,1-1.551-12.755V76.029c0-1.517.117-3.051.167-4.568a34.082,34.082,0,0,1,.667-4.5,39.2,39.2,0,0,1,7.669-16.106A38.18,38.18,0,0,1,186.71,36.765h56.5a12.088,12.088,0,0,1,12.238,7.753,13.534,13.534,0,0,1,.834,3.7c.1,1.284,0,2.484,0,3.718v7.3a12.171,12.171,0,0,0,2.618,6.436,11.354,11.354,0,0,0,5.685,3.8,26.194,26.194,0,0,0,6.869.434h90.515a10.821,10.821,0,0,0,4.652-1.667,11.971,11.971,0,0,0,5.369-7.586,19.257,19.257,0,0,0,.333-4.585V51.753a27.607,27.607,0,0,1,.183-4.4,12.136,12.136,0,0,1,1.367-4.051,11.954,11.954,0,0,1,5.935-5.4,18.106,18.106,0,0,1,7.469-.834l24.509.117H387.3a18.023,18.023,0,0,0-7.369.85,11.67,11.67,0,0,0-5.785,5.285,12.269,12.269,0,0,0-1.317,3.951,28.772,28.772,0,0,0-.167,4.352v4.518a20.008,20.008,0,0,1-.317,4.652,12.371,12.371,0,0,1-5.5,7.819,11.287,11.287,0,0,1-4.818,1.667c-1.667.117-3.434,0-5.185,0H268.055a12.619,12.619,0,0,1-3.535-.45,11.955,11.955,0,0,1-5.952-3.968,12.921,12.921,0,0,1-2.751-6.669c-.133-2.468,0-4.868,0-7.353V48.169A12.372,12.372,0,0,0,255,44.618a11.5,11.5,0,0,0-11.671-7.386H186.71A37.6,37.6,0,0,0,156.7,51.12a38.73,38.73,0,0,0-7.536,15.839c-.233,1.467-.5,2.934-.634,4.418a36.816,36.816,0,0,0-.167,4.518V679.074a40.966,40.966,0,0,0,1.517,12.5,37.58,37.58,0,0,0,14.505,20.207,38.5,38.5,0,0,0,24.008,6.669H431.8l2.918-.15a37.321,37.321,0,0,0,11.271-2.651,39.146,39.146,0,0,0,9.853-5.985,37.263,37.263,0,0,0,12.054-18.923,39.78,39.78,0,0,0,1.067-5.585c0-1.9.233-3.785.2-5.7V622.871c0-118.909.1-226,.15-315.945s.133-162.724.183-213.025V76.112a39.03,39.03,0,0,0-2.684-15.239,37.831,37.831,0,0,0-7.069-11.237,36.066,36.066,0,0,0-8.52-7,35.662,35.662,0,0,0-14.055-5,30.249,30.249,0,0,0-3.818-.35Z" transform="translate(-134.854 -23.191)" fill="#a2a09e"/>
    <rect id="Rectangle_3051" data-name="Rectangle 3051" width="246.253" height="53.686" rx="5.77" transform="translate(43.52 453.445)" fill="#d8d8d8"/>
    <path id="Path_13301" data-name="Path 13301" d="M176.2,190.153v.9H169.23V181.2H176v.9h-5.735v3.5h5.1v.9h-5.1v3.651Z" transform="translate(-120.325 73.208)" fill="#263238"/>
    <path id="Path_13302" data-name="Path 13302" d="M174.26,184.56h3.685v.884H174.26Z" transform="translate(-116.969 75.45)" fill="#263238"/>
    <path id="Path_13303" data-name="Path 13303" d="M190.041,185.818V190.1h-1v-4.185c0-1.567-.784-2.384-2.118-2.384a2.4,2.4,0,0,0-2.484,2.684V190.1h-1v-4.185c0-1.567-.784-2.384-2.134-2.384a2.4,2.4,0,0,0-2.484,2.684V190.1h-1v-7.4h.95v1.35a3.034,3.034,0,0,1,2.718-1.417,2.668,2.668,0,0,1,2.634,1.567,3.334,3.334,0,0,1,2.934-1.567,2.8,2.8,0,0,1,2.984,3.184Z" transform="translate(-114.593 74.159)" fill="#263238"/>
    <path id="Path_13304" data-name="Path 13304" d="M192.622,185.525v4.585h-.95v-1.15a2.784,2.784,0,0,1-2.551,1.234c-1.667,0-2.7-.884-2.7-2.167s.717-2.1,2.851-2.1h2.351v-.45c0-1.267-.717-1.951-2.1-1.951a3.818,3.818,0,0,0-2.467.867l-.45-.75a4.735,4.735,0,0,1,3.018-1,2.634,2.634,0,0,1,3,2.884Zm-1,2.367v-1.217H189.3c-1.434,0-1.9.567-1.9,1.334s.684,1.384,1.867,1.384a2.351,2.351,0,0,0,2.351-1.5Z" transform="translate(-108.855 74.151)" fill="#263238"/>
    <path id="Path_13305" data-name="Path 13305" d="M191.64,181.554a.734.734,0,1,1,.734.734.717.717,0,0,1-.734-.734Zm.217,2.351h1.017v7.4h-1.017Z" transform="translate(-105.372 72.955)" fill="#263238"/>
    <path id="Path_13306" data-name="Path 13306" d="M194.05,180.84h1v10.454h-1Z" transform="translate(-103.764 72.968)" fill="#263238"/>
    <path id="Path_13307" data-name="Path 13307" d="M174.669,242.848c0,2.1-1.517,3.335-4.035,3.335h-2.651V249.3H167v-9.87h3.685C173.152,239.463,174.669,240.747,174.669,242.848Zm-1.034,0c0-1.567-1.05-2.467-3.018-2.467h-2.634v5h2.634c1.967,0,3.051-.984,3.051-2.534Z" transform="translate(-121.813 112.062)"/>
    <path id="Path_13308" data-name="Path 13308" d="M178.629,243.785v4.585h-.95v-1.15a2.768,2.768,0,0,1-2.551,1.217c-1.667,0-2.718-.867-2.718-2.151s.734-2.1,2.868-2.1h2.351v-.45c0-1.267-.717-1.951-2.1-1.951a3.818,3.818,0,0,0-2.468.867l-.45-.75a4.735,4.735,0,0,1,3.018-1,2.634,2.634,0,0,1,3,2.884Zm-1,2.367v-1.217h-2.317c-1.451,0-1.917.567-1.917,1.317s.7,1.4,1.884,1.4a2.367,2.367,0,0,0,2.351-1.567Z" transform="translate(-118.203 113.025)"/>
    <path id="Path_13309" data-name="Path 13309" d="M177.16,247.509l.45-.784a4.418,4.418,0,0,0,2.634.834c1.4,0,1.984-.483,1.984-1.217,0-1.934-4.8-.4-4.8-3.334,0-1.217,1.034-2.117,2.918-2.117a5,5,0,0,1,2.634.7l-.45.8a3.768,3.768,0,0,0-2.184-.634c-1.334,0-1.917.517-1.917,1.217,0,2,4.8.5,4.8,3.335,0,1.284-1.134,2.1-3.068,2.1a4.836,4.836,0,0,1-3-.9Z" transform="translate(-115.034 113.036)"/>
    <path id="Path_13310" data-name="Path 13310" d="M181.29,247.509l.45-.784a4.418,4.418,0,0,0,2.634.834c1.417,0,1.984-.483,1.984-1.217,0-1.934-4.8-.4-4.8-3.335,0-1.217,1.05-2.117,2.934-2.117a5,5,0,0,1,2.618.7l-.433.8a3.835,3.835,0,0,0-2.184-.634c-1.35,0-1.934.517-1.934,1.217,0,2,4.8.5,4.8,3.335,0,1.284-1.117,2.1-3.051,2.1a4.852,4.852,0,0,1-3.018-.9Z" transform="translate(-112.278 113.036)"/>
    <path id="Path_13311" data-name="Path 13311" d="M197.344,240.93l-2.8,7.4h-.95l-2.334-6.069-2.334,6.069h-.95l-2.784-7.4h.95l2.334,6.286,2.384-6.286h.85l2.368,6.286,2.351-6.286Z" transform="translate(-109.676 113.063)"/>
    <path id="Path_13312" data-name="Path 13312" d="M192.811,244.671a3.785,3.785,0,1,1,3.785,3.768,3.651,3.651,0,0,1-3.785-3.768Zm6.536,0a2.768,2.768,0,1,0-2.751,2.884,2.7,2.7,0,0,0,2.751-2.884Z" transform="translate(-104.592 113.023)"/>
    <path id="Path_13313" data-name="Path 13313" d="M202.295,240.9v.967h-.233a2.4,2.4,0,0,0-2.5,2.734v3.768h-1v-7.4h.967v1.451A2.751,2.751,0,0,1,202.295,240.9Z" transform="translate(-100.755 113.03)"/>
    <path id="Path_13314" data-name="Path 13314" d="M208.936,239.1v10.454h-.967v-1.467a3.2,3.2,0,0,1-2.851,1.534,3.768,3.768,0,1,1,0-7.536,3.335,3.335,0,0,1,2.818,1.467V239.1Zm-.984,6.752a2.768,2.768,0,1,0-2.751,2.884,2.7,2.7,0,0,0,2.751-2.884Z" transform="translate(-98.893 111.842)"/>
    <path id="Path_13315" data-name="Path 13315" d="M220.56,323.8l.984-2.184a7.317,7.317,0,0,0,4.118,1.3c1.667,0,2.4-.567,2.4-1.334,0-2.334-7.253-.734-7.253-5.369,0-2.117,1.667-3.885,5.252-3.885a8.337,8.337,0,0,1,4.335,1.1l-.884,2.2a7,7,0,0,0-3.468-.984c-1.667,0-2.367.634-2.367,1.417,0,2.3,7.253.717,7.253,5.3,0,2.084-1.667,3.868-5.285,3.868a8.92,8.92,0,0,1-5.085-1.434Z" transform="translate(-86.075 160.704)" fill="#fff"/>
    <path id="Path_13316" data-name="Path 13316" d="M227.7,313.082a1.667,1.667,0,0,1,1.667-1.551,1.551,1.551,0,0,1,1.667,1.484,1.726,1.726,0,0,1-3.451,0Zm.333,2.884h2.784v9.587H228.03Z" transform="translate(-81.391 160.169)" fill="#fff"/>
    <path id="Path_13317" data-name="Path 13317" d="M240.923,318.335v5.485h-2.768v-5c0-1.567-.717-2.267-1.951-2.267a2.282,2.282,0,0,0-2.3,2.584v4.735H231.12v-9.587h2.668V315.4a4.185,4.185,0,0,1,3.168-1.267,3.751,3.751,0,0,1,3.968,4.2Z" transform="translate(-79.029 161.903)" fill="#fff"/>
    <path id="Path_13318" data-name="Path 13318" d="M248.775,314.22v8.019c0,3.568-1.917,5.2-5.385,5.2a7.8,7.8,0,0,1-4.7-1.317l1.1-2a5.7,5.7,0,0,0,3.335,1.1c1.967,0,2.818-.9,2.818-2.634v-.35a3.935,3.935,0,0,1-3.018,1.2,4.652,4.652,0,1,1,0-9.286,3.835,3.835,0,0,1,3.168,1.384V314.3Zm-2.734,4.485a2.534,2.534,0,1,0-2.518,2.367,2.334,2.334,0,0,0,2.518-2.367Z" transform="translate(-74.443 161.916)" fill="#fff"/>
    <path id="Path_13319" data-name="Path 13319" d="M248.887,313.082a1.667,1.667,0,0,1,1.667-1.551,1.551,1.551,0,0,1,1.667,1.484,1.726,1.726,0,1,1-3.451,0Zm.334,2.884H252v9.587h-2.851Z" transform="translate(-67.252 160.169)" fill="#fff"/>
    <path id="Path_13320" data-name="Path 13320" d="M262.064,318.335v5.485H259.3v-5c0-1.567-.717-2.267-1.951-2.267a2.282,2.282,0,0,0-2.3,2.584v4.735H252.26v-9.587h2.651V315.4a4.235,4.235,0,0,1,3.185-1.267,3.751,3.751,0,0,1,3.968,4.2Z" transform="translate(-64.923 161.903)" fill="#fff"/>
    <rect id="Rectangle_3052" data-name="Rectangle 3052" width="246.253" height="53.269" rx="7.01" transform="translate(43.52 274.932)" fill="#ebebeb"/>
    <path id="Path_13321" data-name="Path 13321" d="M400.745,246.962h.367a5.2,5.2,0,0,0,1.117-.1,11.271,11.271,0,0,0,4.1-1.384,11.669,11.669,0,0,0,4.768-5,11.385,11.385,0,0,0,1.134-4.318c0-1.667,0-3.334,0-5.168,0-7.319,0-16.306-.133-26.676a11.57,11.57,0,0,0-3.334-6.986,11.387,11.387,0,0,0-7.519-3.335H382.572l-204.739.133a11.3,11.3,0,0,0-10.771,7.953,26.389,26.389,0,0,0-.5,7.2v25.409a11.817,11.817,0,0,0,.383,3.435,11.2,11.2,0,0,0,3.568,5.7,11.337,11.337,0,0,0,6.119,2.651c2.251.117,4.635,0,6.936,0H223.9l92.016.083,62.039.15h0l-62.039.133-92.016.1H176.583a12.071,12.071,0,0,1-10.42-8.6,12.991,12.991,0,0,1-.4-3.651V205.6a13.805,13.805,0,0,1,.534-3.768,12.188,12.188,0,0,1,11.671-8.57l204.689.117h18.69A11.9,11.9,0,0,1,412.7,204.1c.1,10.454,0,19.374,0,26.676v5.185a11.755,11.755,0,0,1-1.2,4.418,11.57,11.57,0,0,1-4.918,5.1A10.968,10.968,0,0,1,402.4,246.8,10,10,0,0,1,400.745,246.962Z" transform="translate(-122.643 81.255)" fill="#a2a09e"/>
    <rect id="Rectangle_3053" data-name="Rectangle 3053" width="246.253" height="53.269" rx="7.01" transform="translate(43.52 371.066)" fill="#ebebeb"/>
    <path id="Path_13322" data-name="Path 13322" d="M400.746,304.622h.367a9.781,9.781,0,0,0,1.117-.117,11.506,11.506,0,0,0,4.1-1.367,11.789,11.789,0,0,0,4.768-5,11.386,11.386,0,0,0,1.134-4.318c0-1.667,0-3.334,0-5.185,0-7.3,0-16.306-.133-26.676a11.471,11.471,0,0,0-3.335-6.969,11.321,11.321,0,0,0-7.519-3.251H382.573l-204.739.05a11.321,11.321,0,0,0-10.771,7.969,26.222,26.222,0,0,0-.5,7.186v25.409a11.669,11.669,0,0,0,.384,3.435,11.2,11.2,0,0,0,3.568,5.7,11.336,11.336,0,0,0,6.119,2.651c2.251.133,4.635,0,6.936,0H223.9l92.016.1,62.038.133,16.872.083h0l-16.872.083-62.038.15-92.016.083H183.6c-2.334,0-4.6.083-7.019,0a12.071,12.071,0,0,1-10.42-8.7,12.923,12.923,0,0,1-.4-3.651V263.274a13.923,13.923,0,0,1,.534-3.785,12.188,12.188,0,0,1,11.671-8.57l204.689.117,18.59.017a11.838,11.838,0,0,1,7.87,3.435,11.986,11.986,0,0,1,3.484,7.286c.1,10.454,0,19.374,0,26.676v5.2a11.821,11.821,0,0,1-6.119,9.52,11.188,11.188,0,0,1-4.185,1.3A10.016,10.016,0,0,1,400.746,304.622Z" transform="translate(-122.643 119.729)" fill="#a2a09e"/>
    <path id="Path_13323" data-name="Path 13323" d="M402.8,422.5a10.072,10.072,0,0,0,1.5-.167,9.653,9.653,0,0,0,4-1.667,9.47,9.47,0,0,0,3.785-5.819,23.331,23.331,0,0,0,.184-4.535c0-1.667,0-3.335,0-5.235,0-7.386,0-16.406-.083-26.876a9.387,9.387,0,0,0-3.334-6.919,9.12,9.12,0,0,0-3.668-1.867,15.758,15.758,0,0,0-4.285-.3h-18.84l-206.223.117a9.253,9.253,0,0,0-6.469,2.668,9.086,9.086,0,0,0-2.718,6.419v33.028a15.916,15.916,0,0,0,.217,3.484,9.153,9.153,0,0,0,3.7,5.552,9.3,9.3,0,0,0,3.068,1.4,13.54,13.54,0,0,0,3.418.284h47.667l92.716.1,62.505.134,16.989.083h0l-16.989.083-62.555.35-92.716.1H177.005a13.443,13.443,0,0,1-3.618-.3,9.671,9.671,0,0,1-3.334-1.517A10,10,0,0,1,166,415.027a16.2,16.2,0,0,1-.233-3.668V378.314a10,10,0,0,1,10-10l206.223.133h18.84a15.78,15.78,0,0,1,4.418.334,9.718,9.718,0,0,1,3.868,1.984,10,10,0,0,1,3.5,7.3v32.128a24.055,24.055,0,0,1-.217,4.585,9.753,9.753,0,0,1-3.951,5.919,9.622,9.622,0,0,1-4.085,1.667,7.441,7.441,0,0,1-1.567.133Z" transform="translate(-122.649 198.058)" fill="#e0e0e0"/>
    <path id="Path_13324" data-name="Path 13324" d="M317.262,384.884c0,.233-24.925.434-55.669.434s-55.653-.2-55.653-.434,24.909-.434,55.653-.434S317.262,384.65,317.262,384.884Z" transform="translate(-95.83 208.827)" fill="#e0e0e0"/>
    <path id="Path_13328" data-name="Path 13328" d="M427.579,153.393c0,.25-58.637.433-130.946.433s-130.963-.183-130.963-.433,58.621-.433,130.963-.433S427.579,153.16,427.579,153.393Z" transform="translate(-122.701 54.365)" fill="#e0e0e0"/>
    <path id="Path_13329" data-name="Path 13329" d="M427.579,351.023c0,.234-58.637.434-130.946.434s-130.963-.2-130.963-.434,58.621-.433,130.963-.433S427.579,350.79,427.579,351.023Z" transform="translate(-122.701 186.234)" fill="#e0e0e0"/>
    <g id="Group_7745" data-name="Group 7745" transform="translate(60.576 391.106)">
      <path id="Path_13330" data-name="Path 13330" d="M183.933,268.942l3.718,2.1-.967,1.667-3.8-2.234v4.268H181v-4.268l-3.785,2.234-.984-1.667,3.768-2.1-3.768-2.067.984-1.667L181,267.425V263.19h1.884v4.235l3.8-2.217.967,1.667Z" transform="translate(-176.23 -263.19)" fill="#cecece"/>
      <path id="Path_13331" data-name="Path 13331" d="M191.826,268.942l3.751,2.1-.984,1.667-3.785-2.234v4.268h-1.9v-4.268l-3.8,2.234-.967-1.667,3.751-2.1-3.751-2.068.967-1.667,3.8,2.217V263.19h1.884v4.235l3.785-2.217.984,1.667Z" transform="translate(-170.952 -263.19)" fill="#cecece"/>
      <path id="Path_13332" data-name="Path 13332" d="M199.746,268.915l3.735,2.1-.967,1.667-3.851-2.167v4.268h-1.884v-4.268l-3.8,2.234-.967-1.667,3.768-2.1-3.768-2.068.967-1.667,3.8,2.217V263.23h1.884v4.235l3.8-2.217.967,1.667Z" transform="translate(-165.701 -263.163)" fill="#cecece"/>
      <path id="Path_13333" data-name="Path 13333" d="M207.626,268.942l3.735,2.1-.967,1.667-3.8-2.234v4.268h-1.884v-4.268l-3.785,2.234-.984-1.667,3.768-2.1-3.668-2.068.984-1.667,3.785,2.217V263.19h1.9v4.235l3.8-2.217.967,1.667Z" transform="translate(-160.41 -263.19)" fill="#cecece"/>
    </g>
    <g id="Group_7744" data-name="Group 7744" transform="translate(62.21 295.364)">
      <path id="Path_13334" data-name="Path 13334" d="M184.029,210.731v4.235h-1v-4.2a2.084,2.084,0,0,0-2.234-2.368,2.434,2.434,0,0,0-2.584,2.684v3.885h-1V207.63h.95V209a3.118,3.118,0,0,1,2.818-1.434,2.851,2.851,0,0,1,3.051,3.168Z" transform="translate(-177.21 -204.57)" fill="#a0a0a0"/>
      <path id="Path_13335" data-name="Path 13335" d="M188.779,210.483V215h-.967v-1.15a2.768,2.768,0,0,1-2.551,1.234c-1.667,0-2.7-.884-2.7-2.167s.733-2.1,2.851-2.1h2.368v-.45c0-1.267-.717-1.951-2.1-1.951a3.751,3.751,0,0,0-2.467.867l-.45-.75a4.668,4.668,0,0,1,3.018-1,2.634,2.634,0,0,1,3,2.951Zm-1,2.367v-1.184h-2.334c-1.434,0-1.9.567-1.9,1.317s.684,1.4,1.867,1.4a2.384,2.384,0,0,0,2.368-1.534Z" transform="translate(-173.64 -204.605)" fill="#a0a0a0"/>
      <path id="Path_13336" data-name="Path 13336" d="M200.158,210.731v4.235h-1v-4.2c0-1.551-.8-2.368-2.134-2.368a2.4,2.4,0,0,0-2.484,2.684v3.885h-1v-4.2c0-1.551-.784-2.368-2.134-2.368a2.4,2.4,0,0,0-2.484,2.684v3.885h-1V207.63h.95v1.35a3.034,3.034,0,0,1,2.718-1.417,2.7,2.7,0,0,1,2.651,1.567,3.234,3.234,0,0,1,2.918-1.567,2.8,2.8,0,0,1,3,3.168Z" transform="translate(-170.064 -204.57)" fill="#a0a0a0"/>
      <path id="Path_13337" data-name="Path 13337" d="M203.631,211.635h-6.2a2.718,2.718,0,0,0,2.918,2.568,2.918,2.918,0,0,0,2.268-.967l.567.65a3.918,3.918,0,0,1-6.669-2.567,3.607,3.607,0,1,1,7.2,0Zm-6.2-.75h5.252a2.634,2.634,0,0,0-5.252,0Z" transform="translate(-164.334 -204.574)" fill="#a0a0a0"/>
      <path id="Path_13338" data-name="Path 13338" d="M214.635,212.268c0,2.4-.884,3.818-2.334,3.818a1.5,1.5,0,0,1-1.584-1.551,3.134,3.134,0,0,1-2.818,1.551,3.651,3.651,0,0,1,0-7.286,3.151,3.151,0,0,1,2.784,1.484v-1.417h.917v5.4c0,.784.4,1.067.867,1.067.884,0,1.45-1.084,1.45-2.984a5.368,5.368,0,0,0-5.8-5.5,5.669,5.669,0,1,0,0,11.321,6.318,6.318,0,0,0,2.7-.617l.233.684a6.669,6.669,0,0,1-2.934.65,6.386,6.386,0,0,1,0-12.771,6.1,6.1,0,0,1,6.519,6.152Zm-3.935.167a2.684,2.684,0,1,0-2.684,2.818,2.634,2.634,0,0,0,2.684-2.818Z" transform="translate(-160.849 -205.54)" fill="#a0a0a0"/>
      <path id="Path_13339" data-name="Path 13339" d="M222.978,210.731v4.235h-1v-4.2c0-1.551-.784-2.368-2.134-2.368a2.384,2.384,0,0,0-2.468,2.684v3.885h-1v-4.2c0-1.551-.8-2.368-2.151-2.368a2.4,2.4,0,0,0-2.484,2.684v3.885h-1V207.63h.967v1.35a3.018,3.018,0,0,1,2.718-1.417,2.668,2.668,0,0,1,2.634,1.567,3.334,3.334,0,0,1,2.934-1.567,2.8,2.8,0,0,1,2.984,3.168Z" transform="translate(-154.837 -204.57)" fill="#a0a0a0"/>
      <path id="Path_13340" data-name="Path 13340" d="M225.559,210.483V215h-.967v-1.15a2.767,2.767,0,0,1-2.551,1.234c-1.667,0-2.7-.884-2.7-2.167s.734-2.1,2.868-2.1h2.351v-.45c0-1.267-.717-1.951-2.1-1.951a3.751,3.751,0,0,0-2.467.867l-.45-.75a4.736,4.736,0,0,1,3.018-1,2.634,2.634,0,0,1,3,2.951Zm-1,2.367v-1.184h-2.334c-1.434,0-1.9.567-1.9,1.317s.7,1.4,1.884,1.4a2.384,2.384,0,0,0,2.351-1.534Z" transform="translate(-149.099 -204.605)" fill="#a0a0a0"/>
      <path id="Path_13341" data-name="Path 13341" d="M224.57,206.474a.717.717,0,1,1,.216.513A.717.717,0,0,1,224.57,206.474Zm.217,2.351h1v7.336h-1Z" transform="translate(-145.609 -205.765)" fill="#a0a0a0"/>
      <path id="Path_13342" data-name="Path 13342" d="M227,205.77h1v10.387h-1Z" transform="translate(-143.987 -205.761)" fill="#a0a0a0"/>
      <path id="Path_13343" data-name="Path 13343" d="M228.86,211.927a.75.75,0,0,1,.75-.767.767.767,0,0,1,.75.767.784.784,0,0,1-.75.784A.767.767,0,0,1,228.86,211.927Z" transform="translate(-142.746 -202.165)" fill="#a0a0a0"/>
      <path id="Path_13344" data-name="Path 13344" d="M230.471,211.33a3.651,3.651,0,0,1,3.818-3.768,3.335,3.335,0,0,1,2.9,1.467l-.75.517a2.5,2.5,0,0,0-2.151-1.1,2.884,2.884,0,0,0,0,5.769,2.484,2.484,0,0,0,2.151-1.084l.75.517a3.334,3.334,0,0,1-2.9,1.467,3.668,3.668,0,0,1-3.818-3.785Z" transform="translate(-141.673 -204.569)" fill="#a0a0a0"/>
      <path id="Path_13345" data-name="Path 13345" d="M235.151,211.321a3.768,3.768,0,1,1,3.768,3.785,3.651,3.651,0,0,1-3.768-3.785Zm6.519,0a2.751,2.751,0,1,0-2.751,2.884,2.7,2.7,0,0,0,2.751-2.884Z" transform="translate(-138.55 -204.561)" fill="#a0a0a0"/>
      <path id="Path_13346" data-name="Path 13346" d="M253.138,210.731v4.235h-1v-4.2c0-1.551-.8-2.368-2.134-2.368a2.4,2.4,0,0,0-2.484,2.684v3.885h-1v-4.2c0-1.551-.784-2.368-2.134-2.368a2.4,2.4,0,0,0-2.484,2.684v3.885h-1V207.63h.95v1.35a3.034,3.034,0,0,1,2.718-1.417,2.7,2.7,0,0,1,2.651,1.567,3.234,3.234,0,0,1,2.918-1.567,2.8,2.8,0,0,1,3,3.168Z" transform="translate(-134.713 -204.57)" fill="#a0a0a0"/>
    </g>
    <path id="Path_13347" data-name="Path 13347" d="M175.356,83.808a.75.75,0,0,1-.533-.217l-7.836-6.869a.817.817,0,0,1,0-1.25l7.836-6.5a.8.8,0,0,1,1.15.1.817.817,0,0,1-.1,1.167l-7,5.885,7.1,6.236a.817.817,0,0,1,.083,1.167.867.867,0,0,1-.7.283Z" transform="translate(-122.016 -1.81)" fill="#a2a09e"/>
    <path id="Path_13348" data-name="Path 13348" d="M311.63,74.955a4.185,4.185,0,1,1-4.185-4.185A4.185,4.185,0,0,1,311.63,74.955Z" transform="translate(-30.893 -0.477)" fill="#a2a09e"/>
    <path id="Path_13349" data-name="Path 13349" d="M318.87,74.955a4.185,4.185,0,1,1-1.232-2.965A4.185,4.185,0,0,1,318.87,74.955Z" transform="translate(-26.062 -0.477)" fill="#a2a09e"/>
    <path id="Path_13350" data-name="Path 13350" d="M326.11,74.955a4.185,4.185,0,1,1-4.168-4.185A4.185,4.185,0,0,1,326.11,74.955Z" transform="translate(-21.231 -0.477)" fill="#a2a09e"/>
    <text id="ثبت_نام" data-name="ثبت نام" transform="translate(220.825 179)" font-size="30" font-family="IRANSansXFaNum-Bold, IRANSansXFaNum" font-weight="700"><tspan x="-93.18" y="0">ثبت نام</tspan></text>
  </g>
  <g id="Plant" transform="translate(523.667 309.544)">
    <path id="Path_13359" data-name="Path 13359" d="M128.494,219.63c-19.674,10.187-34.746,27.727-45.583,47.033s-17.84,40.5-24.759,61.538L52.1,436.69c22.875-38.914,41.248-84.73,46.2-129.562l-15.222-1.351c10.2-1.567,18.773-8.953,24.225-17.723s8.336-18.89,11-28.844l-18.573,2.718a68.841,68.841,0,0,0,28.76-42.3Z" transform="translate(60.04 -210.693)" fill="#afa167"/>
    <path id="Path_13361" data-name="Path 13361" d="M143.253,465.692S93.586,406.254,94.153,349.5H114.16s-21.791-14.339-20.007-22.358,2.3-38.347,2.3-38.347l18.34,4.585s-13.755-6.886-15.472-17.773,4-61.338,4-61.338,22.358,23.508,29.244,47.583,25.009,52.152,19.624,125.528S143.253,465.692,143.253,465.692Z" transform="translate(-34.582 -214.27)" fill="#ffe163"/>
    <path id="Path_13362" data-name="Path 13362" d="M32.1,445.428s53.8-35.846,65.756-81.6l-16.122-4.4s20.641-6.752,21.024-13.571,6.552-31.378,6.552-31.378l-15.756-.334s12.571-2.517,16.339-10.9S120.08,253.06,120.08,253.06s-23.108,14-33.912,31.861S54.707,321.4,42.92,381.538,32.1,445.428,32.1,445.428Z" transform="translate(101.831 -188.387)" fill="#ffe163"/>
    <path id="Path_13363" data-name="Path 13363" d="M98.732,245.33a3.626,3.626,0,0,0,.083.634l.35,1.851c.333,1.667.8,4.051,1.417,7.086s1.384,6.836,2.2,11.221,1.817,9.353,2.784,14.872c2.051,11.037,4.235,24.209,6.486,38.88s4.4,30.811,6.4,47.817,3.468,33.245,4.685,48.034,2.034,28.127,2.551,39.33c.317,5.6.5,10.67.684,15.122s.317,8.336.4,11.421.2,5.519.25,7.219a11.906,11.906,0,0,0,.083,1.884,3.8,3.8,0,0,0,0,.633,3.679,3.679,0,0,0,0-.633c0-.467,0-1.084,0-1.884V481.6c0-3.1-.117-6.986-.267-11.437s-.267-9.537-.55-15.139c-.45-11.221-1.267-24.559-2.368-39.364s-2.684-31.044-4.635-48.067-4.218-33.178-6.452-47.85-4.552-27.826-6.669-38.847c-1-5.535-2.034-10.5-2.918-14.872s-1.667-8.12-2.351-11.187-1.2-5.4-1.567-7.053l-.434-1.834a3.638,3.638,0,0,0-.167-.617Z" transform="translate(-16.336 -193.545)" fill="#263238"/>
    <path id="Path_13364" data-name="Path 13364" d="M205.943,442.382s-45.449-51.568-59.554-82.729l10.654-4.552c-7.719,1.267-15.639-2.051-21.674-7.086s-10.387-11.671-14.688-18.207l14.072-2.3A52.218,52.218,0,0,1,104.09,303.75c16.573,2.734,31.544,11.821,43.9,23.192a219.326,219.326,0,0,1,26.593,30.744,104.459,104.459,0,0,1,10.32,16.989C192.538,390.464,205.976,423.459,205.943,442.382Z" transform="translate(-104.09 -154.564)" fill="#ffe163"/>
    <path id="Path_13365" data-name="Path 13365" d="M123.561,271.06a3.341,3.341,0,0,0-.3.483c-.183.383-.45.85-.767,1.467-.7,1.334-1.667,3.235-2.918,5.652-2.534,4.9-6.085,12.054-10.337,20.974s-9.153,19.59-14.372,31.545-10.687,25.242-16.139,39.28S68.475,398.038,64.24,410.392,56.487,433.951,53.653,443.4s-5,17.139-6.469,22.475l-1.667,6.135-.417,1.667a2.365,2.365,0,0,0-.1.55,1.667,1.667,0,0,0,.183-.533c.133-.384.3-.917.5-1.567.417-1.451,1.017-3.5,1.784-6.1,1.534-5.3,3.818-12.955,6.669-22.375s6.552-20.591,10.77-32.945,9.12-25.809,14.538-39.864,10.92-27.293,16.056-39.28,10-22.675,14.205-31.678,7.619-16.122,10-21.074l2.768-5.719c.3-.634.534-1.117.7-1.5a2.944,2.944,0,0,0,.383-.533Z" transform="translate(76.81 -176.377)" fill="#263238"/>
    <path id="Path_13366" data-name="Path 13366" d="M135.083,435.5a4.7,4.7,0,0,0,0-.967c0-.734-.167-1.667-.267-2.768s-.3-2.668-.567-4.352-.517-3.635-.934-5.752c-.734-4.251-1.851-9.27-3.335-14.788s-3.334-11.487-5.669-17.656-4.9-11.9-7.419-17.023-5-9.6-7.3-13.338c-1.084-1.867-2.167-3.484-3.1-5a36.56,36.56,0,0,0-2.451-3.635c-.784-.984-1.184-1.667-1.667-2.251a4.038,4.038,0,0,0-.617-.767,5.22,5.22,0,0,0,.467.867l1.484,2.334c.667,1.017,1.451,2.251,2.334,3.718s1.934,3.1,2.984,5c2.167,3.7,4.6,8.22,7.1,13.338s5,10.837,7.319,16.973,4.185,12.1,5.719,17.573,2.651,10.47,3.468,14.689c.45,2.1.75,4.018,1.05,5.7s.534,3.134.717,4.335.317,2.017.433,2.734a4.4,4.4,0,0,0,.25,1.034Z" transform="translate(-29.363 -125.572)" fill="#263238"/>
    <path id="Path_13367" data-name="Path 13367" d="M39.18,368.32l10.754,68.241h60.1l10.037-68.241Z" transform="translate(36.513 -50.242)" fill="#3f434d"/>
    <path id="Path_12664" data-name="Path 12664" d="M475.874,361.97l-2.012,16.192H397.5L394.98,361.97Z" transform="translate(-319.286 -46.03)" fill="#263238"/>
    <rect id="Rectangle_3054" data-name="Rectangle 3054" width="99.468" height="20.29" transform="translate(66.223 297.787)" fill="#3f434d"/>
  </g>
  <g id="Character" transform="translate(34.227 295.683)">
    <path id="Path_13369" data-name="Path 13369" d="M502.466,415.715s-119.559-62.289-145.484-27.926,26.026,61.355,36.063,67.424,111.589,40.564,111.589,40.564l26.793-28.593Z" transform="translate(-349.81 -91.528)" fill="#3f434d"/>
    <path id="Path_13370" data-name="Path 13370" d="M482.528,420.39l-47.667,25.659L391.3,455.486a5.569,5.569,0,0,0-4.151,6.969h0a5.467,5.467,0,0,0,3.484,3.685c10.821,3.768,50.651,17.423,54.036,15.355,3.918-2.4,52.085-23.742,52.085-23.742Z" transform="translate(-377.023 -62.874)" fill="#c5c5c5"/>
    <g id="Group_7736" data-name="Group 7736" transform="translate(10.122 399.514)" opacity="0.6">
      <path id="Path_13371" data-name="Path 13371" d="M416.22,445.647l60.771,17.306L474.958,464a8.337,8.337,0,0,1-5.735.684c-5.152-1.217-19.323-5-49.434-15.272a5.536,5.536,0,0,1-3.568-3.835Z" transform="translate(-416.22 -445.58)" fill="#fff"/>
    </g>
    <g id="Group_7737" data-name="Group 7737" transform="translate(76.694 398.766)" opacity="0.6">
      <path id="Path_13372" data-name="Path 13372" d="M413.649,445.5a3.335,3.335,0,0,0-4.318,1.167,3.235,3.235,0,0,0,1.117,4.3,3.551,3.551,0,0,0,4.568-1.267,3.335,3.335,0,0,0-1.667-4.335" transform="translate(-408.929 -445.132)" fill="#fff"/>
    </g>
    <path id="Path_13373" data-name="Path 13373" d="M435.073,450.707c-.267-.2,1.667-2.584,1.667-6.136s-2.034-5.885-1.767-6.1.784.317,1.517,1.367a8.7,8.7,0,0,1,1.434,4.718,8.6,8.6,0,0,1-1.3,4.752C435.856,450.373,435.173,450.807,435.073,450.707Z" transform="translate(-398.258 -50.843)" fill="#263238"/>
    <path id="Path_13374" data-name="Path 13374" d="M442.787,449.837c-.333-.117.45-2.467-.1-5.318s-2.067-4.785-1.8-5,2.384,1.534,2.968,4.8S443.037,450.037,442.787,449.837Z" transform="translate(-414.175 -50.124)" fill="#263238"/>
    <path id="Path_13375" data-name="Path 13375" d="M430.367,453.6c-.333-.117.884-3.718.4-8.236s-2.3-7.836-1.984-8,2.718,3.034,3.168,7.886S430.617,453.768,430.367,453.6Z" transform="translate(-382.015 -51.554)" fill="#263238"/>
    <path id="Path_13376" data-name="Path 13376" d="M426.409,448.267c-.35,0-.584-3.2-2.234-6.669s-3.868-5.852-3.634-6.119,3,1.8,4.718,5.618S426.726,448.317,426.409,448.267Z" transform="translate(-362.918 -52.822)" fill="#263238"/>
    <path id="Path_13377" data-name="Path 13377" d="M418.918,443.951c-.35,0-.117-3.518-2.151-7.086s-5-5.285-4.852-5.585.934.1,2.134.884a11.771,11.771,0,0,1,3.768,4.118,11.969,11.969,0,0,1,1.5,5.385C419.334,443.1,419.067,443.968,418.918,443.951Z" transform="translate(-341.238 -55.674)" fill="#263238"/>
    <path id="Path_13378" data-name="Path 13378" d="M405.473,438.177a6.437,6.437,0,0,1,1.784-1,14.207,14.207,0,0,1,5.519-.984,6.354,6.354,0,0,1,3.918,1.034,2.284,2.284,0,0,1,.7,2.468,3.684,3.684,0,0,1-1.8,1.884,7.836,7.836,0,0,1-9.57-2.834,9.07,9.07,0,0,1,.183-10.12,3.135,3.135,0,0,1,2.267-1.334,2.2,2.2,0,0,1,2.067,1.517,7.736,7.736,0,0,1,0,4.018,15.7,15.7,0,0,1-2.067,5.2,6.834,6.834,0,0,1-1.3,1.667,25.007,25.007,0,0,0,2.534-6.952,7.119,7.119,0,0,0,0-3.5,1.15,1.15,0,0,0-1.117-.834,2.134,2.134,0,0,0-1.45.967,8.086,8.086,0,0,0,0,8.77,6.8,6.8,0,0,0,8.086,2.518,2.685,2.685,0,0,0,1.317-1.25,1.217,1.217,0,0,0-.367-1.367,5.7,5.7,0,0,0-3.334-.95,20.955,20.955,0,0,0-7.369,1.084Z" transform="translate(-327.194 -58.271)" fill="#263238"/>
    <path id="Path_13379" data-name="Path 13379" d="M286.538,458.527s112.656-68.257,127.878-76.694c13.088-7.286,54.436-23.341,69.008,16.256s-63.889,98.1-63.889,98.1l-66.59,2.984-22.224-8.486-25.242,7.769Z" transform="translate(-198.121 -94.909)" fill="#3f434d"/>
    <path id="Path_13380" data-name="Path 13380" d="M301.291,463.242l50.5,19.59,35.479,26.96a5.552,5.552,0,0,0,8-1.367h0a5.535,5.535,0,0,0,.534-5c-4.168-10.654-19.707-49.8-23.475-51.018-4.368-1.417-51.9-24.125-51.9-24.125Z" transform="translate(-133.663 -57.61)" fill="#c5c5c5"/>
    <g id="Group_7738" data-name="Group 7738" transform="translate(235.285 393.262)" opacity="0.6">
      <path id="Path_13381" data-name="Path 13381" d="M327.564,499.3l-26.326-57.47,2.117.867a8.336,8.336,0,0,1,4.251,3.9c2.418,4.718,8.82,17.906,20.557,47.5a5.568,5.568,0,0,1-.6,5.2Z" transform="translate(-301.238 -441.83)" fill="#fff"/>
    </g>
    <g id="Group_7739" data-name="Group 7739" transform="translate(214.869 393.078)" opacity="0.6">
      <path id="Path_13382" data-name="Path 13382" d="M326.12,445.522a3.334,3.334,0,0,0,3.7,2.518,3.218,3.218,0,0,0,2.534-3.635,3.551,3.551,0,0,0-3.935-2.651,3.334,3.334,0,0,0-2.218,4.085" transform="translate(-326.078 -441.72)" fill="#fff"/>
    </g>
    <path id="Path_13383" data-name="Path 13383" d="M321.522,464.1c0,.35-3.068.383-5.7,2.784s-3.151,5.369-3.484,5.3-.267-.8,0-2.034a8.82,8.82,0,0,1,7.1-6.252C320.755,463.763,321.522,464,321.522,464.1Z" transform="translate(-77.051 -33.872)" fill="#263238"/>
    <path id="Path_13384" data-name="Path 13384" d="M315.791,467.853c.117.333-2.167,1.267-3.968,3.551s-2.318,4.668-2.651,4.618-.383-2.8,1.667-5.369S315.791,467.536,315.791,467.853Z" transform="translate(-66.134 -31.259)" fill="#263238"/>
    <path id="Path_13385" data-name="Path 13385" d="M326.988,457.941c.133.334-3.334,1.751-6.519,5s-4.452,6.836-4.785,6.669.534-4.035,3.935-7.536S326.955,457.641,326.988,457.941Z" transform="translate(-88.369 -37.853)" fill="#263238"/>
    <path id="Path_13386" data-name="Path 13386" d="M330.711,453.6c.25.25-2.051,2.534-3.668,6.086s-1.934,6.752-2.284,6.669-.567-3.451,1.2-7.236S330.544,453.333,330.711,453.6Z" transform="translate(-106.947 -40.731)" fill="#263238"/>
    <path id="Path_13387" data-name="Path 13387" d="M339.2,449.941c.217.267-2.6,2.351-4,6.236s-.717,7.253-1.067,7.319-.533-.767-.734-2.2a11.67,11.67,0,0,1,.7-5.535,11.9,11.9,0,0,1,3.1-4.652C338.286,450.158,339.119,449.807,339.2,449.941Z" transform="translate(-130.111 -43.174)" fill="#263238"/>
    <path id="Path_13388" data-name="Path 13388" d="M347.887,457.012a4.5,4.5,0,0,1-1.917-.717,14.093,14.093,0,0,1-4.335-3.551,6.236,6.236,0,0,1-1.751-3.651,2.2,2.2,0,0,1,1.417-2.134,3.618,3.618,0,0,1,2.584.15,7.853,7.853,0,0,1,4.085,9.12,9.1,9.1,0,0,1-7.819,6.436,3.152,3.152,0,0,1-2.484-.867,2.2,2.2,0,0,1-.183-2.551,7.552,7.552,0,0,1,3.068-2.584,16.175,16.175,0,0,1,5.3-1.817,5,5,0,0,1,2.051,0,25.527,25.527,0,0,0-6.936,2.584,7.2,7.2,0,0,0-2.618,2.334,1.134,1.134,0,0,0,.1,1.384,2.151,2.151,0,0,0,1.667.483,8.136,8.136,0,0,0,6.669-5.669,6.819,6.819,0,0,0-3.335-7.786,2.566,2.566,0,0,0-1.8-.183,1.2,1.2,0,0,0-.8,1.167,5.686,5.686,0,0,0,1.417,3.118A20.944,20.944,0,0,0,347.887,457.012Z" transform="translate(-145.547 -45.26)" fill="#263238"/>
    <path id="Path_13389" data-name="Path 13389" d="M384.054,477.635c-1.417-.734-58.454-23.959-58.454-23.959L382.287,425.6,416.4,443.29Z" transform="translate(-194.418 -59.398)" fill="#3f434d"/>
    <path id="Path_13390" data-name="Path 13390" d="M474.977,432.315l-.784.233-2.251.75-8.62,2.984L431.645,447.4,327.192,484.266l-5,1.55.517.233-19.023-39.8-.167.517,65.706-40.181,18.907-11.671,5-3.135,1.284-.834c.283-.183.433-.283.417-.3l-.45.25-1.334.767-5.085,3.018-19.04,11.454-65.856,39.914-.317.2.15.334,18.973,39.847.167.333.35-.117,5-1.551c2.617-.75,5.119-1.667,7.636-2.584l7.5-2.668,14.722-5.252,27.693-9.887,46.9-16.672,31.595-11.387,8.57-3.134,2.217-.833a6.565,6.565,0,0,0,.75-.367Z" transform="translate(-214.9 -82.718)" fill="#7e7e7e"/>
    <path id="Path_13391" data-name="Path 13391" d="M325.12,475.426a23.579,23.579,0,0,0,2.117-2.017l5.535-5.719c4.651-4.852,11.037-11.671,18.056-19.09l7.052-7.553.384-.417-.5-.25-17.306-8.336-5-2.368a13.329,13.329,0,0,0-1.851-.767,9.373,9.373,0,0,0,1.667,1.017l4.852,2.468,17.173,8.67-.117-.667-7.086,7.536c-7.019,7.486-13.338,14.305-17.873,19.273l-5.335,5.9a15.9,15.9,0,0,0-1.767,2.317Z" transform="translate(-135.485 -57.189)" fill="#7e7e7e"/>
    <path id="Path_13392" data-name="Path 13392" d="M376.2,390.493c-.1.217,13.938,6.319,31.344,13.6s31.578,13.038,31.678,12.821S425.284,410.6,407.878,403.3,376.2,390.259,376.2,390.493Z" transform="translate(-301.605 -82.828)" fill="#7e7e7e"/>
    <path id="Path_13393" data-name="Path 13393" d="M402.734,287.451c1.184,0,42.315-.384,50.618,7.919s25.542,135.464,25.542,135.464c-8.87,1.667-14.638,5-20.007,7.636l-69.908,40.764-30.261-15.722a7.6,7.6,0,0,1-2.134-11.554h0L316.32,306.425a74.325,74.325,0,0,1,19.607-10.67C347.714,291.419,402.734,287.451,402.734,287.451Z" transform="translate(-241.442 -151.58)" fill="#ffe163"/>
    <path id="Path_13394" data-name="Path 13394" d="M468.861,295.55s-12.371,2.734-17.106,10.37c-11.1,17.89-45.216,81.429-50.951,96.7-6.069,16.123.45,25.292,4.835,32.095,4.718,7.319,30.644,7.3,42.4-5.252,5-5.4,33.112-30.861,33.112-30.861Z" transform="translate(-380.444 -146.174)" fill="#ffe163"/>
    <path id="Path_13395" data-name="Path 13395" d="M390.07,309.7a8.442,8.442,0,0,0,.467,1.251l1.517,3.534c1.25,3.085,3,7.569,5,13.171,4.035,11.221,8.97,26.909,14.205,44.316s9.787,33.162,13.171,44.666c1.667,5.719,3.1,10.337,4.118,13.5l1.2,3.651a7.1,7.1,0,0,0,.467,1.25,8.543,8.543,0,0,0-.3-1.3q-.4-1.384-1.05-3.7c-.934-3.335-2.234-7.9-3.851-13.571-3.234-11.471-7.7-27.31-12.921-44.749s-10.27-33.1-14.455-44.266c-2.084-5.6-3.935-10-5.285-13.1l-1.667-3.468A6.666,6.666,0,0,0,390.07,309.7Z" transform="translate(-315.725 -136.733)" fill="#263238"/>
    <path id="Path_13396" data-name="Path 13396" d="M326.431,291.657s12.988,7.386,17.739,11.671,53.836,74.326,60.121,96.151c3.651,12.638-10.27,38.78-25.276,37.513-19.624-1.667-93.25-29.894-93.25-29.894l16.522-35.963L343.97,377.8,313.71,347.393,325,290.84" transform="translate(-116.488 -149.317)" fill="#ffe163"/>
    <path id="Path_13397" data-name="Path 13397" d="M400.56,367.481a3.884,3.884,0,0,0,.734-.45l2.034-1.4,7.386-5.269c6.2-4.5,14.739-10.787,24.142-17.773l6.285-4.685-.583-.083c5.985,7.819,11.321,14.639,15.205,19.457a57.684,57.684,0,0,0,6.486,7.486l-6.052-7.836L441.191,337.3l-.25-.334-.333.25-6.3,4.668c-9.4,6.986-17.873,13.338-23.992,17.99l-7.152,5.485-1.934,1.534A3.95,3.95,0,0,0,400.56,367.481Z" transform="translate(-365.246 -118.537)" fill="#263238"/>
    <path id="Path_13398" data-name="Path 13398" d="M316.59,294.63,349.6,309.435l-13.171,28.626L315.79,324.424Z" transform="translate(-164.751 -85.55)" fill="#efd1db"/>
    <path id="Path_13399" data-name="Path 13399" d="M425.559,339.341l-22.091-15.005a4.067,4.067,0,0,0-2.651-.7L371.94,326.1a2.218,2.218,0,0,0-2.034,2.267,3.934,3.934,0,0,0,1.217,3.068l46.9,32.628,35.012-5.552Z" transform="translate(-304.914 -127.444)" fill="#83837c"/>
    <path id="Path_13400" data-name="Path 13400" d="M408.384,335.274s-11.921-8.837-14.722-9.32-15.389-.434-15.389-.434l-10.6,6.052,6.569,4.451c4.552-1,5.852-2.768,5.852-2.768l7.336.484Z" transform="translate(-256.546 -126.177)" fill="#efd1db"/>
    <path id="Path_13401" data-name="Path 13401" d="M413.553,329.07l-18.823,6.552-27.076,3.818a5.918,5.918,0,0,0,5.4,6.085c3.335.35,8.97.734,8.97.734s1.384,5,5.6,6.086a13.819,13.819,0,0,0,4.068,4.818,3.34,3.34,0,0,0,.834.367c2.6.75,7.786,7.8,11.254,8.753s22.408-3.518,22.408-3.518l.8-29.777Z" transform="translate(-275.118 -123.808)" fill="#efd1db"/>
    <path id="Path_13402" data-name="Path 13402" d="M405.876,338.294c0-.083-1.5.317-3.885.8a71.958,71.958,0,0,1-9.487,1.234,68.973,68.973,0,0,1-9.537,0c-2.451-.167-3.951-.384-3.968-.3a5,5,0,0,0,1.05.25c.667.133,1.667.284,2.884.417a56.5,56.5,0,0,0,9.6.167,55.846,55.846,0,0,0,9.52-1.4c1.2-.284,2.167-.55,2.818-.767A4.865,4.865,0,0,0,405.876,338.294Z" transform="translate(-272.927 -117.66)" fill="#d2a8b4"/>
    <path id="Path_13403" data-name="Path 13403" d="M375.553,342.92a4.237,4.237,0,0,0,.183,1.867,3.952,3.952,0,0,0,1.017,1.817,3.334,3.334,0,0,0,2.451.817,6.4,6.4,0,0,0,2.434-.7c.684-.35,1.251-.717,1.751-.984.967-.583,1.667-.8,1.667-.884a3.884,3.884,0,0,0-1.767.55,11.191,11.191,0,0,1-4.051,1.5,2.867,2.867,0,0,1-2.1-.65,3.682,3.682,0,0,1-.984-1.584A15.941,15.941,0,0,0,375.553,342.92Z" transform="translate(-246.306 -114.566)" fill="#d2a8b4"/>
    <path id="Path_13404" data-name="Path 13404" d="M380.99,344.008a8.184,8.184,0,0,0,2.067.533,46.8,46.8,0,0,0,5,.617,45.411,45.411,0,0,0,5.119,0,8.343,8.343,0,0,0,2.117-.234c0-.167-3.234,0-7.2-.35S381.023,343.907,380.99,344.008Z" transform="translate(-265.664 -113.853)" fill="#d2a8b4"/>
    <path id="Path_13405" data-name="Path 13405" d="M377.12,348.727a6.669,6.669,0,0,0,6.469,1.017c0-.167-1.5.117-3.334-.167S377.12,348.593,377.12,348.727Z" transform="translate(-247.506 -110.703)" fill="#d2a8b4"/>
    <path id="Path_13406" data-name="Path 13406" d="M382.6,348.562a4.815,4.815,0,0,0,2.017.534,4.551,4.551,0,0,0,2.1,0,4.486,4.486,0,0,0-2.034-.533C383.55,348.429,382.617,348.412,382.6,348.562Z" transform="translate(-259.771 -110.872)" fill="#d2a8b4"/>
    <path id="Path_13407" data-name="Path 13407" d="M376.61,335.7a51.133,51.133,0,0,0,8.82-2.951c2.4-.934,4.552-1.817,6.085-2.518a10.843,10.843,0,0,0,2.418-1.267,19.6,19.6,0,0,0-2.551.934l-6.135,2.367-6.119,2.384A8.606,8.606,0,0,0,376.61,335.7Z" transform="translate(-256.999 -123.881)" fill="#d2a8b4"/>
    <path id="Path_13408" data-name="Path 13408" d="M406.808,339.121s2.084-.717-.167-4-8.553.7-8.553.7l-8.053,4.785s-1.8,4.185.433,5.3l1.667,2.034s-3.151,3.184-1.884,5.969a4.335,4.335,0,0,0,4.385,2.4s-.367,5.635,1.467,7.8a6.151,6.151,0,0,0,3.5,2.368,10,10,0,0,0,6.952,6.052c5.4,1.384,8.236,1.484,9.7-.8a24.869,24.869,0,0,0,2.384-5.152s11.588-6.085,11.838-9.17-.284-3.335-.284-3.335a5.785,5.785,0,0,0-.233-4.451c-1.167-1.884-5.769-.233-5.769-.233l-14.789,3.468s11.837-5.552,13.238-7.369-.1-4.052-4.852-3.485-19.107,3.251-19.107,3.251a4.4,4.4,0,0,1,1.667-1.834c.951-.4,3.918-2.117,3.918-2.117Z" transform="translate(-314.857 -120.638)" fill="#efd1db"/>
    <path id="Path_13409" data-name="Path 13409" d="M389.76,353.409c0,.133,6.035-1.4,13.338-3.418s13.338-3.785,13.255-3.918-6.035,1.4-13.338,3.418S389.727,353.276,389.76,353.409Z" transform="translate(-301.343 -112.468)" fill="#d2a8b4"/>
    <path id="Path_13410" data-name="Path 13410" d="M396.48,356.5a17.035,17.035,0,0,0,4.318-1.1,30.361,30.361,0,0,0,2.951-1.134,5.52,5.52,0,0,0,.867-.467,1.127,1.127,0,0,0,.2-.183V353.5c0,.033-1.834.633-4.151,1.4A22.942,22.942,0,0,0,396.48,356.5Z" transform="translate(-301.011 -107.509)" fill="#d2a8b4"/>
    <path id="Path_13411" data-name="Path 13411" d="M401.31,347.432c0,.133,2.918-.45,6.486-1.034a65.272,65.272,0,0,0,6.469-1.117,30.419,30.419,0,0,0-6.552.617A29.369,29.369,0,0,0,401.31,347.432Z" transform="translate(-318.512 -112.993)" fill="#d2a8b4"/>
    <path id="Path_13412" data-name="Path 13412" d="M407.68,342.9c.1.133,1.267-.7,2.9-1.284s3.051-.734,3.051-.884a5.468,5.468,0,0,0-3.235.4A5.552,5.552,0,0,0,407.68,342.9Z" transform="translate(-328.5 -116.083)" fill="#d2a8b4"/>
    <path id="Path_13413" data-name="Path 13413" d="M389.54,327.788h.533l1.551-.183c1.334-.183,3.335-.434,5.652-.7,4.785-.55,11.421-1.134,18.773-1.3a10.4,10.4,0,0,1,5.135.6,21.648,21.648,0,0,1,2.1,1.384l2,1.417,6.919,4.885,4.685,3.251,1.3.867c.283.2.45.283.467.267a4.551,4.551,0,0,0-.417-.35l-1.234-.934-4.6-3.335-6.852-5-1.984-1.434a24.117,24.117,0,0,0-2.151-1.434,6.053,6.053,0,0,0-2.651-.667h-2.734a180.693,180.693,0,0,0-18.79,1.451c-2.4.317-4.335.633-5.652.867l-1.534.283a1.669,1.669,0,0,0-.517.067Z" transform="translate(-323.282 -126.444)" fill="#263238"/>
    <path id="Path_13414" data-name="Path 13414" d="M406.474,328.484a1.4,1.4,0,0,1,1.384-.534h.233a1.967,1.967,0,0,1,1.134.634,1.2,1.2,0,0,1,0,1.517,1.384,1.384,0,0,1-.817.383,2.034,2.034,0,0,1-1.667-.417A1.4,1.4,0,0,1,406.474,328.484Z" transform="translate(-322.125 -124.572)" fill="#504949"/>
    <path id="Path_13415" data-name="Path 13415" d="M339.43,233.251l3.2-1.667a6.8,6.8,0,0,1,4.885-1.134c1.584.45,2.684,1.967,4.318,2.134,1.9.217,3.468-1.5,5.369-1.4s3.218,1.667,5,1.667c1.334,0,2.751-.95,3.9-.3.233.133.433.317.65.467a4.735,4.735,0,0,0,4.435-.25,6.119,6.119,0,0,1,4.435-.767,7.053,7.053,0,0,1,2.3,1.851,3.184,3.184,0,0,0,2.684,1.1c.55-.117,1-.467,1.551-.6,1.667-.434,3.151,1.4,4.9,1.867s3.5-.367,5,.367a2.551,2.551,0,0,1,1.234,3.134,3.868,3.868,0,0,1-2.9,2.184,8.036,8.036,0,0,1-3.918-.284,9.5,9.5,0,0,0-3.151-.717c-2.484.083-4.435,2.651-6.869,2.117a8.571,8.571,0,0,1-3-1.9,8.336,8.336,0,0,0-4.835-1.567,9.336,9.336,0,0,1-3.418-.183c-1.317-.534-2.067-1.917-3.435-2.284s-2.935.517-4.452.367c-.984-.083-1.9-.634-2.9-.684-1.417-.083-2.7.834-4.118.717s-2.668-1.317-4.118-1.2a9.776,9.776,0,0,0-1.667.45,1.8,1.8,0,0,1-1.667-.25c-.317-.3-.417-.784-.8-1a1.665,1.665,0,0,0-.967-.1l-4.7.484Z" transform="translate(-189.442 -189.663)" fill="#524a50"/>
    <path id="Path_13416" data-name="Path 13416" d="M340.445,232.7c1.584-1.167,3.7-2.384,5.485-1.4.65.35,1.134.934,1.784,1.251,1.5.7,3.335-.217,4.9.217,1.35.383,2.251,1.667,3.5,2.251,2.017,1,5,.417,6.235,2.184.683.967.8,2.518,1.984,2.784a2.953,2.953,0,0,0,1.267-.15,10.572,10.572,0,0,1,4.4-.133,4.684,4.684,0,0,1,2.284.967c1.2,1.084,1.234,2.934,2.384,4.068,1.667,1.667,4.785.884,6.986,1.967a13.673,13.673,0,0,1,2.684,2.217,30.449,30.449,0,0,0,5.668,3.451,12.305,12.305,0,0,1,5,4.218,4.468,4.468,0,0,1-.634,5.719,2.268,2.268,0,0,1-2.818.133c-.25-.233-.417-.567-.65-.834a5.514,5.514,0,0,0-1.951-.984c-.683-.267-1.4-.784-1.4-1.484,0-.434.25-.95-.1-1.251a1.051,1.051,0,0,0-.517-.167c-1.767-.183-3.935-.1-4.885-1.534a10.214,10.214,0,0,1-.717-2.117,3.968,3.968,0,0,0-2.868-2.367c-1.084-.25-2.3-.083-3.168-.75s-1.017-2.184-1.9-3.018c-1.484-1.4-4.418-.383-5.752-1.9-.334-.383-.517-.867-.934-1.15-1.2-.784-2.651.834-4.068.567s-1.667-1.667-2.517-2.468a14.557,14.557,0,0,0-4.118-1.9c-1.751-.85-3.018-2.5-4.868-3.051-1.667-.483-3.568-.15-4.752-1.284-.45-.433-.767-1.05-1.384-1.25a2.717,2.717,0,0,0-1.1,0,8.337,8.337,0,0,1-5.285-1.067Z" transform="translate(-195.509 -189.283)" fill="#524a50"/>
    <path id="Path_13417" data-name="Path 13417" d="M351.9,234.618a13.338,13.338,0,0,1,11.3,3.335,8.917,8.917,0,0,0,2.134,1.667,11.969,11.969,0,0,0,4.168.467,8.2,8.2,0,0,1,6.886,5.569c.634,1.917.867,4.435,2.718,5.1a5.7,5.7,0,0,1,1.017.367c1.234.767.384,2.734.4,4.252,0,2.5,2.8,4.218,2.9,6.669a6.469,6.469,0,0,1-.65,2.651q-1.45,3.584-3.184,7c-.517,1.017-1.2,2.151-2.3,2.3-1.667.217-2.567-1.667-3.034-3.335a4.852,4.852,0,0,1-.1-3.485c.467-.884,1.417-1.4,1.834-2.317.65-1.451-.4-3.068-1.15-4.452a13.336,13.336,0,0,1-1.284-9.186c-1.667-.317-2.551-2.684-4.285-3.018a10.465,10.465,0,0,1-1.451-.183c-1.15-.467-1.284-2.218-2.3-2.934s-3.335-.167-3.9-1.584c-.167-.45-.083-.984-.367-1.35a1.417,1.417,0,0,0-.917-.483l-4.2-1.05a4.851,4.851,0,0,1-2.234-.984c-1.084-1.034-1.251-3-2.618-3.535Z" transform="translate(-204.26 -186.961)" fill="#524a50"/>
    <path id="Path_13418" data-name="Path 13418" d="M347.339,239.723c.167-2.468.634-5.435,2.818-6.436,1.284-.6,2.851-.283,4.118-.934,2.434-1.217,2.634-5.152,5-6.4s5.535.684,7.436-1.15c.984-.95,1.117-2.534,1.917-3.651a5.569,5.569,0,0,1,4.285-1.834,13.489,13.489,0,0,0,4.7-.634c2.5-1.1,4.1-4.2,6.786-4.418,2.284-.167,4.068,1.834,5.5,3.668a3.52,3.52,0,0,1,.817,1.534,2.684,2.684,0,0,1-1.484,2.518c-1.817,1.067-4.151.9-5.835,2.151a16.7,16.7,0,0,1-1.817,1.467c-.967.517-2.184.4-3.118.984-1.817,1.117-1.784,4.168-3.6,5.3s-3.935-.2-5.9.25c-2.667.634-4.135,4.352-6.869,4.452a26.292,26.292,0,0,1-3.535-.784,3.918,3.918,0,0,0-3.785,2.234c-.433.934-.5,2.034-1.017,2.934a4.251,4.251,0,0,1-3.151,1.984,11.958,11.958,0,0,1-3.768-.217Z" transform="translate(-204.153 -200.42)" fill="#524a50"/>
    <path id="Path_13419" data-name="Path 13419" d="M335.364,240.866c1.667-3.151,3.718-6.519,7.136-7.986a44.293,44.293,0,0,0,5.3-1.851c1.367-.8,2.334-2.084,3.618-3,2.984-2.117,7.1-1.984,10.77-1.4s7.453,1.5,11.054.617c3.234-.8,6.052-2.984,9.37-3.185a16.139,16.139,0,0,1,5.319.917l6.035,1.667a2.8,2.8,0,0,1,1.667,1c.65,1.084-.617,2.334-1.817,2.834a11.071,11.071,0,0,1-6.236.667,15.3,15.3,0,0,0-5-.75,32.824,32.824,0,0,0-3.335,1.067,12.5,12.5,0,0,1-4.318,0l-6.669-.7a9.353,9.353,0,0,0-5.085.434c-1.2.584-2.151,1.667-3.485,1.834s-2.9-.934-4.385-.717c-1.767.283-2.651,2.251-4.268,3-1.9.884-4.4-.15-6.235.867-1.25.684-1.784,2.084-2.584,3.234a8.07,8.07,0,0,1-2.551,2.367,17.337,17.337,0,0,1-4.285,1.567Z" transform="translate(-190.111 -193.876)" fill="#524a50"/>
    <path id="Path_13420" data-name="Path 13420" d="M357.43,238.941c.8-1.1,2.017-2.217,1.667-3.551-.167-.65-.7-1.184-.817-1.851-.2-1.2,1.017-2.134,1.467-3.335s0-3,.767-4.235,2.534-1.484,4-1.851a5,5,0,0,0,3.735-2.918,17.179,17.179,0,0,0,.2-3.334A6.3,6.3,0,0,1,374.5,212.7a6.569,6.569,0,0,0,2.5-.283c1.417-.667,1.667-2.484,2.551-3.835a5.3,5.3,0,0,1,5.452-2.551c1,.2,2.1,1.25,1.517,2.084-.233.333-.667.467-.984.734-1.134.967-.317,2.918-.984,4.235s-2.8,1.667-3.451,3.068c-.5,1.084.084,2.434-.383,3.535-.583,1.35-2.334,1.667-3.8,1.667s-3.218.4-3.768,1.667a8.053,8.053,0,0,0-.283,1.9,3.718,3.718,0,0,1-1.917,2.651c-1.417.717-3.335.584-4.252,1.934s.417,3.668-.433,5.252c-.617,1.15-2.1,1.45-3.218,2.151a1.268,1.268,0,0,0-.584.667,1.418,1.418,0,0,0,.2.884c.884,1.8,2,3.868,1.15,5.669a7.452,7.452,0,0,1-1.534,1.867,15.79,15.79,0,0,0-3.868,6.669l-1.55-6.786A6.952,6.952,0,0,1,357.43,238.941Z" transform="translate(-215.711 -205.956)" fill="#524a50"/>
    <path id="Path_13421" data-name="Path 13421" d="M373.875,214.265a4.552,4.552,0,0,1,1.967-5.252,3.585,3.585,0,0,1,5,1.884c.667,2.217-1.2,4.818,0,6.819a7.085,7.085,0,0,1,1.017,1.584c.417,1.467-1.417,2.7-1.434,4.235s2.117,2.618,2.551,4.252-1.384,3.851-.7,5.669a6.669,6.669,0,0,0,.884,1.367c1.951,2.868.95,6.669-.117,10l-4.418-.65c.817-3.068-3.5-6.135-2.034-8.936.7-1.334,2.618-2.3,2.184-3.751a2.85,2.85,0,0,0-.667-1l-4.118-4.5a4.152,4.152,0,0,1-1.317-2.284c-.183-1.951,2.251-3.218,2.568-5.169C375.375,217,374.325,215.648,373.875,214.265Z" transform="translate(-240.759 -204.188)" fill="#524a50"/>
    <path id="Path_13422" data-name="Path 13422" d="M366.222,227.688c.417-1.45,2.3-1.884,3.785-1.667,4.1.634,7.1,4.068,9.72,7.269a86.687,86.687,0,0,1,8.1,11.02,7.3,7.3,0,0,1,1.134,2.8,2.834,2.834,0,0,1-1.034,2.7,1.784,1.784,0,0,1-2.584-.6l-1.217-.3a59.451,59.451,0,0,0-15.572-17.373C367.273,230.539,365.789,229.189,366.222,227.688Z" transform="translate(-234.624 -192.603)" fill="#ffe163"/>
    <path id="Path_13423" data-name="Path 13423" d="M377.43,286.811a142.849,142.849,0,0,0,1.517-24.442,49.634,49.634,0,0,0-6.536-23.342c-.65-1.067-5.752-8-6.936-7.653-.85.25,2.768,6.952,2.468,7.786-2.768,7.986-2.217,16.839,0,25.009a110.19,110.19,0,0,0,9.437,22.691" transform="translate(-223.273 -189.004)" fill="#524a50"/>
    <path id="Path_13424" data-name="Path 13424" d="M397.527,343.013c-1.167-5.652-2.1-10.1-2.151-10.1s-19.824,1.834-24.859-17.19c-2.434-9.186-5.885-28.51-8.82-46.033a36.68,36.68,0,0,1,27.21-41.681l1.851-.467c20.14-3.818,34.646,11.137,37.913,31.378l13.688,70.425L410.982,362.32Z" transform="translate(-279.7 -191.954)" fill="#efd1db"/>
    <path id="Path_13425" data-name="Path 13425" d="M375.57,295.938a47.5,47.5,0,0,0,22.991-13.588s-2.567,15.405-22.024,18.473Z" transform="translate(-259.894 -154.982)" fill="#d2a8b4"/>
    <path id="Path_13426" data-name="Path 13426" d="M400.434,262.954a2.8,2.8,0,0,0,3.334,2.084,2.684,2.684,0,0,0,2.184-3.168,2.818,2.818,0,0,0-3.335-2.084,2.668,2.668,0,0,0-2.184,3.168Z" transform="translate(-308.699 -170.081)" fill="#263238"/>
    <path id="Path_13427" data-name="Path 13427" d="M399.607,258.484c.417.267,2.1-1.767,5-2.5s5.452.2,5.685-.25c.1-.2-.4-.75-1.5-1.2a7.869,7.869,0,0,0-4.668-.233,7.4,7.4,0,0,0-3.9,2.434C399.473,257.65,399.39,258.367,399.607,258.484Z" transform="translate(-311.541 -173.865)" fill="#263238"/>
    <path id="Path_13428" data-name="Path 13428" d="M384.48,259.878a2.818,2.818,0,0,0,3.334,2.1A2.684,2.684,0,0,0,390,258.811a2.8,2.8,0,0,0-3.334-2.084,2.667,2.667,0,0,0-2.184,3.151Z" transform="translate(-266.153 -172.124)" fill="#263238"/>
    <path id="Path_13429" data-name="Path 13429" d="M382.185,254.864c.434.267,2.117-1.767,5-2.5s5.452.2,5.685-.25c.117-.183-.384-.75-1.5-1.184a7.67,7.67,0,0,0-4.652-.25,7.27,7.27,0,0,0-3.9,2.434C382.118,254.03,381.985,254.714,382.185,254.864Z" transform="translate(-265.108 -176.28)" fill="#263238"/>
    <path id="Path_13430" data-name="Path 13430" d="M399.521,278.1a20,20,0,0,0-5,.334c-.767.117-1.517.15-1.767-.334a3.887,3.887,0,0,1,0-2.351c.25-1.984.5-4.068.784-6.252,1.034-8.886,1.567-16.122,1.217-16.156s-1.484,7.136-2.518,16.022c-.25,2.184-.467,4.268-.683,6.269a4.47,4.47,0,0,0,.35,3.034,1.985,1.985,0,0,0,1.5.784,4.4,4.4,0,0,0,1.317-.15,19.81,19.81,0,0,0,4.8-1.2Z" transform="translate(-287.296 -174.339)" fill="#263238"/>
    <path id="Path_13431" data-name="Path 13431" d="M392.763,268.113c-.484.083.317,3.335-1.851,6.219s-5.635,3.435-5.535,3.885.9.433,2.351.117a8.236,8.236,0,0,0,4.668-3.085,7.086,7.086,0,0,0,1.351-5.152C393.613,268.73,393.063,268.029,392.763,268.113Z" transform="translate(-271.485 -164.486)" fill="#263238"/>
    <path id="Path_13432" data-name="Path 13432" d="M382.043,247.529c.5.734,3.334-.383,6.869-.834s6.569-.217,6.836-1.05c.117-.383-.55-1.017-1.867-1.5a11.9,11.9,0,0,0-10.437,1.434C382.309,246.4,381.826,247.179,382.043,247.529Z" transform="translate(-267.8 -180.883)" fill="#263238"/>
    <path id="Path_13433" data-name="Path 13433" d="M400.878,252.5c.684.533,2.534-.65,5-1.3s4.6-.684,4.9-1.5c.117-.383-.367-.967-1.434-1.384a7.452,7.452,0,0,0-7.936,2.267C400.678,251.479,400.578,252.229,400.878,252.5Z" transform="translate(-314.062 -177.93)" fill="#263238"/>
    <path id="Path_13434" data-name="Path 13434" d="M358.965,255.693c.3-.217,12.138-7.169,15.005,5.969S363.033,275,362.933,274.6,358.965,255.693,358.965,255.693Z" transform="translate(-208.01 -174.124)" fill="#d2a8b4"/>
    <path id="Path_13435" data-name="Path 13435" d="M362.2,267.1a3.662,3.662,0,0,0,.684.2,2.3,2.3,0,0,0,1.667-.334c1.284-.817,1.967-3.334,1.517-5.652a7.538,7.538,0,0,0-1.351-3.135,2.685,2.685,0,0,0-2.1-1.384,1.184,1.184,0,0,0-1.217.917,1.333,1.333,0,0,0,0,.684c0,.033-.333-.15-.35-.717a1.5,1.5,0,0,1,.333-.934,1.749,1.749,0,0,1,1.2-.617,3.335,3.335,0,0,1,2.835,1.517,8.1,8.1,0,0,1,1.667,3.484c.483,2.668-.333,5.452-2.118,6.419a2.551,2.551,0,0,1-2.167.1C362.3,267.417,362.165,267.134,362.2,267.1Z" transform="translate(-204.34 -172.478)" fill="#77676d"/>
    <path id="Path_13436" data-name="Path 13436" d="M366.252,247.187c-2.384-.734,2.584-8.97,7.319-12.438,7.169-5.235,18.807-10,26.543-9.42,9.3.65,17.523,3.5,23.592,10.587a52.935,52.935,0,0,1,11.337,25.242,16.072,16.072,0,0,1-.183,8.436c-1.234,3.334-4.385,5.869-3.335,9.853a5.6,5.6,0,0,1-.534,4.3c-1.867,3.068-5.319,1.267-7.186-.867-3.968-4.552-5.568-10.637-7.052-16.506a38.813,38.813,0,0,1-1.784-12.688c.183-2.334.784-4.635.85-6.969a8.136,8.136,0,0,0-2.317-6.386,9.99,9.99,0,0,0-1.284-.85,14.005,14.005,0,0,0-14.172.25c-6.869,4.168-18.723,10.72-22.558,8.9-5.519-2.634-7.152-4.752-7.152-4.752Z" transform="translate(-280.286 -193.062)" fill="#524a50"/>
    <path id="Path_13437" data-name="Path 13437" d="M363.3,395.72a5.258,5.258,0,0,0-1.067-.467l-3.118-1.217-11.771-4.4L306.6,374.629l.233.567c3.335-7.352,7.069-15.355,10.9-23.642l5.619-12.254-.45.233L363.72,345.8h0a82.575,82.575,0,0,1,21.091,9.27c2.334,1.434,4.085,2.668,5.285,3.5l1.334.967a1.669,1.669,0,0,0,.484.3l-.417-.383-1.283-1.034c-1.151-.9-2.885-2.184-5.2-3.668a79.821,79.821,0,0,0-21.107-9.587h0l-40.8-6.369h-.317l-.15.283c-1.817,3.985-3.718,8.086-5.635,12.254-3.8,8.336-7.486,16.289-10.854,23.658l-.2.4.434.167,40.864,14.672,11.837,4.185,3.168,1.084Z" transform="translate(-137.172 -117.316)" fill="#263238"/>
    <path id="Path_13438" data-name="Path 13438" d="M322.622,328a28.583,28.583,0,0,0,3.335,4.1c2.167,2.451,5.2,5.785,8.653,9.4s6.669,6.8,9.087,8.986a27.055,27.055,0,0,0,3.034,2.451c.417.234.7.467,1.067.4a.25.25,0,0,0,0-.334s0-.083,0-.083,0,.217-.1.25a2.35,2.35,0,0,1-.8-.5c-.684-.567-1.667-1.484-2.8-2.618-2.318-2.3-5.452-5.552-8.886-9.153l-8.837-9.22A32.336,32.336,0,0,0,322.622,328Z" transform="translate(-120.915 -124.522)" fill="#263238"/>
    <path id="Path_13439" data-name="Path 13439" d="M333.893,334.781c.183,0-.35-2.617-.35-6.836a43.9,43.9,0,0,1,.634-7.336,45.452,45.452,0,0,1,6.436-16.756,46.054,46.054,0,0,1,4.468-5.886c2.835-3.118,5-4.685,4.835-4.818a7.64,7.64,0,0,0-1.534,1.034,16.427,16.427,0,0,0-1.667,1.384,27.528,27.528,0,0,0-2.084,1.984,41.211,41.211,0,0,0-4.685,5.868,46.261,46.261,0,0,0-4.2,8.17,47.69,47.69,0,0,0-2.367,8.886,40.708,40.708,0,0,0-.45,7.486,27.327,27.327,0,0,0,.217,2.867,15,15,0,0,0,.317,2.151A7.659,7.659,0,0,0,333.893,334.781Z" transform="translate(-140.122 -147.776)" fill="#263238"/>
    <path id="Path_13440" data-name="Path 13440" d="M402.96,396.81a52.26,52.26,0,0,0-5.469,0,49.752,49.752,0,0,1-24.876-7.336c-2.867-1.667-4.5-3.068-4.6-2.951s.333.417,1.05,1.05a33.709,33.709,0,0,0,3.218,2.417,45.009,45.009,0,0,0,12.037,5.635,44.5,44.5,0,0,0,13.171,1.8,31.386,31.386,0,0,0,4.018-.283,5.321,5.321,0,0,0,1.451-.333Z" transform="translate(-251.671 -85.477)" fill="#263238"/>
    <path id="Path_13441" data-name="Path 13441" d="M362.4,370.612a7.221,7.221,0,0,0,1.117,1.417c.75.884,1.884,2.117,3.334,3.635,2.851,3.018,6.936,7.069,11.671,11.287s9.186,7.853,12.5,10.354c1.667,1.25,3.018,2.251,3.985,2.9a6.673,6.673,0,0,0,1.534.95,7.5,7.5,0,0,0-1.334-1.217l-3.8-3.118c-3.2-2.617-7.6-6.286-12.321-10.5s-8.836-8.186-11.8-11.087l-3.5-3.435A6.8,6.8,0,0,0,362.4,370.612Z" transform="translate(-235.92 -96.092)" fill="#263238"/>
  </g>
</svg>
