<svg xmlns="http://www.w3.org/2000/svg" xmlns:xlink="http://www.w3.org/1999/xlink" width="516" height="476" viewBox="0 0 516 476"><defs><style>.a{fill:none;}.b{clip-path:url(#a);}.ae,.af,.ag,.ah,.ai,.aj,.ak,.al,.am,.an,.ao,.ap,.aq,.ar,.as,.at,.au,.av,.aw,.ax,.ay,.az,.ba,.bb,.bc,.bd,.be,.bf,.bg,.bh,.bi,.bj,.bk,.bl,.bm,.bn,.bo,.bp,.bq,.br,.bs,.bt,.bu,.bv,.bw,.bx,.by,.bz,.c,.ca,.d,.e,.f,.g,.h,.i,.j,.k,.l,.n,.o,.p,.q,.t,.v,.w,.x,.y,.z{fill-rule:evenodd;}.c{fill:url(#b);}.d{fill:url(#c);}.e{fill:url(#d);}.f{fill:url(#e);}.g{fill:url(#f);}.ae,.ai,.h{fill:#602c8d;}.h{opacity:0.8;}.aa,.ad,.ae,.au,.bm,.bn,.bo,.bp,.bq,.bu,.h,.y{mix-blend-mode:multiply;}.aa,.ad,.ae,.ah,.aj,.au,.bm,.bn,.bo,.bp,.bq,.bu,.by,.ca,.h,.y{isolation:isolate;}.i{fill:url(#g);}.j{fill:url(#h);}.k{fill:url(#i);}.l{fill:url(#j);}.m{fill:url(#k);}.n{fill:url(#l);}.o{fill:url(#m);}.p{fill:url(#n);}.q{fill:url(#o);}.r{fill:url(#p);}.s{fill:url(#q);}.t{fill:url(#r);}.u{fill:url(#s);}.v{fill:url(#t);}.w{fill:url(#u);}.x{fill:url(#v);}.aa,.ad,.y{opacity:0.71;}.y{fill:url(#w);}.z{fill:url(#x);}.aa{fill:url(#y);}.ab{fill:url(#z);}.ac{fill:url(#aa);}.ad{fill:url(#ab);}.ae,.ai,.ar,.ca{opacity:0.5;}.af{fill:url(#ac);}.ag{fill:url(#ad);}.ah,.aj{opacity:0.2;}.ah,.aj,.ca{mix-blend-mode:soft-light;}.ah{fill:url(#ae);}.aj{fill:url(#af);}.ak{fill:#dd6668;}.al{fill:url(#ag);}.am{fill:url(#ah);}.an{fill:url(#ai);}.ao{fill:url(#aj);}.ap{fill:url(#ak);}.aq{fill:url(#al);}.ar{fill:url(#am);}.as{fill:url(#an);}.at{fill:url(#ao);}.au{opacity:0.6;fill:url(#ap);}.av{fill:url(#aq);}.aw{fill:url(#ar);}.ax{fill:url(#as);}.ay{fill:url(#at);}.az{fill:#fff4c9;}.ba{fill:url(#au);}.bb{fill:url(#av);}.bc{fill:url(#aw);}.bd{fill:url(#ax);}.be{fill:url(#ay);}.bf{fill:url(#az);}.bg{fill:#fff;}.bh{fill:url(#ba);}.bi{fill:url(#bb);}.bj{fill:url(#bc);}.bk{fill:url(#bd);}.bl{fill:url(#be);}.bm,.bn,.bo,.bp,.bq,.bu{opacity:0.7;}.bm{fill:url(#bf);}.bn{fill:url(#bg);}.bo{fill:url(#bh);}.bp{fill:url(#bi);}.bq{fill:url(#bj);}.br{fill:url(#bk);}.bs{fill:url(#bl);}.bt{fill:#b85652;}.bu{fill:url(#bm);}.bv{fill:url(#bn);}.bw{fill:url(#bo);}.bx{fill:url(#bp);}.by{mix-blend-mode:screen;fill:url(#bq);}.bz{fill:url(#br);}.ca{fill:url(#bs);}</style><clipPath id="a"><rect class="a" width="516" height="476" transform="translate(-0.218 0.485)"/></clipPath><linearGradient id="b" x1="0.499" y1="1" x2="0.499" gradientUnits="objectBoundingBox"><stop offset="0" stop-color="#120018"/><stop offset="0.99" stop-color="#210038"/></linearGradient><linearGradient id="c" x1="0.5" y1="1" x2="0.5" y2="0" xlink:href="#b"/><linearGradient id="d" x1="0.498" y1="1" x2="0.498" y2="0" xlink:href="#b"/><linearGradient id="e" x1="0.486" y1="0.999" x2="0.502" y2="0.007" gradientUnits="objectBoundingBox"><stop offset="0" stop-color="#ff7f66"/><stop offset="1" stop-color="#ec887e"/></linearGradient><linearGradient id="f" x1="0.5" y1="1" x2="0.5" gradientUnits="objectBoundingBox"><stop offset="0.01" stop-color="#482240"/><stop offset="1" stop-color="#140041"/></linearGradient><linearGradient id="g" x1="0.5" y1="1" x2="0.5" y2="0" xlink:href="#b"/><linearGradient id="h" x1="0.488" y1="1.001" x2="0.508" y2="0.001" xlink:href="#e"/><linearGradient id="i" x1="0.5" y1="1" x2="0.5" y2="0" xlink:href="#e"/><linearGradient id="j" x1="0.499" y1="1.001" x2="0.499" y2="0.001" gradientUnits="objectBoundingBox"><stop offset="0.01" stop-color="#54314d"/><stop offset="1" stop-color="#18044d"/></linearGradient><linearGradient id="k" x1="0.5" y1="0.994" x2="0.5" y2="-0.004" gradientUnits="objectBoundingBox"><stop offset="0" stop-color="#ffd8db"/><stop offset="1" stop-color="#ffe9b7"/></linearGradient><linearGradient id="l" x1="0.5" y1="1" x2="0.5" gradientUnits="objectBoundingBox"><stop offset="0" stop-color="#140041"/><stop offset="0.99" stop-color="#482240"/></linearGradient><linearGradient id="m" x1="0.5" y1="1" x2="0.5" gradientUnits="objectBoundingBox"><stop offset="0" stop-color="#18044d"/><stop offset="0.99" stop-color="#54314d"/></linearGradient><linearGradient id="n" x1="0.512" y1="0.998" x2="0.486" y2="0.002" xlink:href="#e"/><linearGradient id="o" x1="0.5" y1="1.001" x2="0.5" y2="0" xlink:href="#b"/><linearGradient id="p" x1="0.5" y1="1" x2="0.5" y2="0" xlink:href="#k"/><linearGradient id="q" x1="0.5" y1="1" x2="0.5" gradientUnits="objectBoundingBox"><stop offset="0" stop-color="#ffd8db"/><stop offset="1" stop-color="#ffd6b7"/></linearGradient><linearGradient id="r" x1="0.501" y1="1" x2="0.501" y2="-0.001" xlink:href="#e"/><linearGradient id="s" x1="0.498" y1="1" x2="0.498" y2="0" xlink:href="#k"/><linearGradient id="t" x1="0.843" y1="-10.944" x2="0.843" y2="-12.165" xlink:href="#e"/><linearGradient id="u" x1="0.501" y1="1" x2="0.501" gradientUnits="objectBoundingBox"><stop offset="0.01" stop-color="#310926"/><stop offset="0.99" stop-color="#3b161b"/></linearGradient><linearGradient id="v" x1="0.5" y1="1" x2="0.5" gradientUnits="objectBoundingBox"><stop offset="0.01" stop-color="#5b1833"/><stop offset="0.99" stop-color="#592227"/></linearGradient><linearGradient id="w" x1="0.503" y1="1" x2="0.503" gradientUnits="objectBoundingBox"><stop offset="0.01" stop-color="#985e40"/><stop offset="0.99" stop-color="#d195ab"/></linearGradient><linearGradient id="x" x1="0.5" y1="1" x2="0.5" gradientUnits="objectBoundingBox"><stop offset="0" stop-color="#2c1a5c"/><stop offset="0.99" stop-color="#65465f"/></linearGradient><linearGradient id="y" x1="0.501" y1="1.001" x2="0.501" gradientUnits="objectBoundingBox"><stop offset="0.01" stop-color="#d195ab"/><stop offset="0.99" stop-color="#bd5e77"/></linearGradient><linearGradient id="z" x1="0.499" y1="1" x2="0.499" gradientUnits="objectBoundingBox"><stop offset="0" stop-color="#ffeaf1"/><stop offset="1" stop-color="#ffe9d6"/></linearGradient><linearGradient id="aa" x1="0.5" y1="1" x2="0.5" y2="0" xlink:href="#z"/><linearGradient id="ab" x1="0.504" y1="1" x2="0.504" y2="0" xlink:href="#w"/><linearGradient id="ac" x1="0.499" y1="1" x2="0.499" y2="0" xlink:href="#x"/><linearGradient id="ad" x1="0.5" y1="1" x2="0.5" y2="0.001" gradientUnits="objectBoundingBox"><stop offset="0" stop-color="#2c1a5c"/><stop offset="0.99" stop-color="#5a3954"/></linearGradient><linearGradient id="ae" y1="0.501" x2="1" y2="0.501" gradientUnits="objectBoundingBox"><stop offset="0" stop-color="#ffe9b7"/><stop offset="1" stop-color="#ffd8db"/></linearGradient><linearGradient id="af" x1="0" y1="0.5" x2="1" y2="0.5" xlink:href="#ae"/><linearGradient id="ag" x1="0.495" y1="1" x2="0.495" y2="0" xlink:href="#e"/><linearGradient id="ah" y1="0.499" x2="1" y2="0.499" gradientUnits="objectBoundingBox"><stop offset="0" stop-color="#ffa486"/><stop offset="1" stop-color="#ff8b81"/></linearGradient><linearGradient id="ai" x1="0.497" y1="1.002" x2="0.497" y2="0.002" xlink:href="#ah"/><linearGradient id="aj" x1="0.496" y1="0.998" x2="0.496" y2="-0.002" xlink:href="#ah"/><linearGradient id="ak" x1="0" y1="0.493" x2="1" y2="0.493" xlink:href="#ah"/><linearGradient id="al" y1="0.498" x2="1" y2="0.498" gradientUnits="objectBoundingBox"><stop offset="0.01" stop-color="#72222f"/><stop offset="0.99" stop-color="#673439"/></linearGradient><linearGradient id="am" y1="0.5" x2="1" y2="0.5" gradientUnits="objectBoundingBox"><stop offset="0.01" stop-color="#f4a9ab"/><stop offset="0.99" stop-color="#985e98"/></linearGradient><linearGradient id="an" x1="0.376" y1="1.184" x2="0.376" y2="0.21" gradientUnits="objectBoundingBox"><stop offset="0" stop-color="#5a2031"/><stop offset="0.99" stop-color="#5e2f31"/></linearGradient><linearGradient id="ao" x1="0.499" y1="1.002" x2="0.499" y2="0.005" gradientUnits="objectBoundingBox"><stop offset="0" stop-color="#ffa486"/><stop offset="1" stop-color="#ffb886"/></linearGradient><linearGradient id="ap" x1="0.636" y1="1.071" x2="0.339" y2="0.094" gradientUnits="objectBoundingBox"><stop offset="0" stop-color="#ffeadb"/><stop offset="0.99" stop-color="#b060f4"/></linearGradient><linearGradient id="aq" x1="0.46" y1="0.945" x2="0.46" y2="0.018" xlink:href="#an"/><linearGradient id="ar" x1="19.936" y1="-9.75" x2="19.918" y2="-10.732" xlink:href="#e"/><linearGradient id="as" x1="0.486" y1="1.484" x2="0.486" y2="0.615" xlink:href="#an"/><linearGradient id="at" x1="0.397" y1="2.099" x2="0.397" y2="0.94" xlink:href="#an"/><linearGradient id="au" x1="0.523" y1="1.145" x2="0.523" y2="0.102" gradientUnits="objectBoundingBox"><stop offset="0" stop-color="#ce595b"/><stop offset="1" stop-color="#d67261"/></linearGradient><linearGradient id="av" x1="0.623" y1="1.521" x2="0.623" y2="0.502" xlink:href="#au"/><linearGradient id="aw" x1="0.597" y1="1.124" x2="0.597" y2="0.042" gradientUnits="objectBoundingBox"><stop offset="0.03" stop-color="#815447"/><stop offset="1" stop-color="#592c27"/></linearGradient><linearGradient id="ax" x1="0.808" y1="1.824" x2="0.808" y2="0.8" xlink:href="#aw"/><linearGradient id="ay" x1="1.019" y1="0.609" x2="0.051" y2="0.609" gradientUnits="objectBoundingBox"><stop offset="0" stop-color="#592c27"/><stop offset="0.98" stop-color="#814227"/></linearGradient><linearGradient id="az" x1="1.131" y1="1.751" x2="0.168" y2="1.751" xlink:href="#ay"/><linearGradient id="ba" x1="0.6" y1="1.164" x2="0.6" y2="0.204" gradientUnits="objectBoundingBox"><stop offset="0" stop-color="#ef686a"/><stop offset="1" stop-color="#ec887e"/></linearGradient><linearGradient id="bb" x1="2.77" y1="1.699" x2="2.77" y2="0.657" xlink:href="#au"/><linearGradient id="bc" x1="0.578" y1="1.01" x2="0.578" y2="-0.055" xlink:href="#an"/><linearGradient id="bd" x1="0.74" y1="1.15" x2="0.74" y2="-0.01" xlink:href="#au"/><linearGradient id="be" x1="1.259" y1="0.74" x2="1.259" y2="0" xlink:href="#au"/><linearGradient id="bf" x1="0.47" y1="0.889" x2="0.47" y2="-0.007" gradientUnits="objectBoundingBox"><stop offset="0" stop-color="#9054a1"/><stop offset="0.99" stop-color="#d19c79"/></linearGradient><linearGradient id="bg" x1="0.179" y1="1.128" x2="0.179" y2="0.383" xlink:href="#bf"/><linearGradient id="bh" x1="0.09" y1="1.3" x2="0.09" y2="0.317" xlink:href="#bf"/><linearGradient id="bi" x1="0.692" y1="1.19" x2="0.692" y2="0.013" xlink:href="#bf"/><linearGradient id="bj" x1="0.813" y1="0.948" x2="0.813" y2="-0.063" xlink:href="#bf"/><linearGradient id="bk" x1="1.08" y1="1.137" x2="1.057" y2="0.119" xlink:href="#e"/><linearGradient id="bl" x1="0.72" y1="1.261" x2="0.72" y2="0.105" xlink:href="#au"/><linearGradient id="bm" x1="0.245" y1="1.867" x2="0.245" y2="0.988" xlink:href="#bf"/><linearGradient id="bn" x1="0.5" y1="1" x2="0.5" gradientUnits="objectBoundingBox"><stop offset="0" stop-color="#7c6b95"/><stop offset="1" stop-color="#d3c2cc"/></linearGradient><linearGradient id="bo" x1="0.5" y1="1" x2="0.5" gradientUnits="objectBoundingBox"><stop offset="0" stop-color="#624e81"/><stop offset="1" stop-color="#827b9c"/></linearGradient><linearGradient id="bp" x1="0" y1="0.5" x2="1" y2="0.5" xlink:href="#bo"/><radialGradient id="bq" cx="0.52" cy="0.488" r="0.339" gradientTransform="matrix(1.466, -0.101, 0.219, 1.47, 4.646, -1.772)" gradientUnits="objectBoundingBox"><stop offset="0" stop-color="#9f5400"/><stop offset="1"/></radialGradient><linearGradient id="br" x1="0.632" y1="0.955" x2="0.632" y2="-0.049" gradientUnits="objectBoundingBox"><stop offset="0" stop-color="#fff4e9"/><stop offset="1" stop-color="#fff"/></linearGradient><linearGradient id="bs" x1="0.5" y1="1" x2="0.5" gradientUnits="objectBoundingBox"><stop offset="0"/><stop offset="1" stop-color="#6d566a"/></linearGradient></defs><g transform="translate(5.017 -144.478)"><g class="b" transform="translate(-4.8 143.993)"><path class="c" d="M535.3,282.008a69.514,69.514,0,0,1,2.32-25.785,37.615,37.615,0,0,1,11.569-19.183S557.456,268.446,535.3,282.008Z" transform="translate(-303.107 89.656)"/><path class="d" d="M649.067,281.23a37.32,37.32,0,0,1-25.981,10.131c-16.536,0-32.386-23.791-32.386-23.791S638.74,249.269,649.067,281.23Z" transform="translate(-176.707 147.069)"/><path class="e" d="M520,336.917s31.341,19.608,65.361,22.647a46.505,46.505,0,0,0-21.177-22.647C548.987,329.858,520,336.917,520,336.917Z" transform="translate(-337.057 309.065)"/><path class="f" d="M525,331.91a255.078,255.078,0,0,1,5.294,34.706l20.817,10.229L565,372.564a146.451,146.451,0,0,0,0-27.778C563.2,334.884,525,331.91,525,331.91Z" transform="translate(-325.717 304.823)"/><path class="g" d="M744.419,275.475c-3.268,11.9-68.269,61.276-68.269,61.276-38.5-4.444-101.309,1.373-101.309,1.373a106.375,106.375,0,0,1,14.51,30.393c6.536,20.262,15.883,146.734,15.883,146.734a220.579,220.579,0,0,0-24.249-11.013c-10.131-3.529-40.1-6.177-40.1-6.177-3.53-70.524-33.072-191.7-29.968-200.493s33.922-26.9,85.916-30.85c10.915-.85,21.046-1.5,30.229-1.993h0c34.706-1.993,56.308-1.993,56.308-1.993S747.687,263.612,744.419,275.475Z" transform="translate(-358.172 147.922)"/><path class="h" d="M723.463,275.5c-3.268,11.9-68.269,61.276-68.269,61.276-38.5-4.444-101.309,1.373-101.309,1.373a106.377,106.377,0,0,1,14.51,30.393c6.536,20.262,15.883,146.734,15.883,146.734a220.583,220.583,0,0,0-24.249-11.013c-10.131-3.529-40.1-6.177-40.1-6.177,19.183-5.36,27.517-10.2,32.68-27.321,2.222-111.93-27.353-173.205-27.353-173.205,38.857-1.242,98.5-11.046,98.5-11.046a55.556,55.556,0,0,0-17.484-21.8c34.706-1.993,56.308-1.993,56.308-1.993S726.731,263.635,723.463,275.5Z" transform="translate(-337.216 147.899)"/><path class="i" d="M538.85,329.74a69.334,69.334,0,0,1,0,11.046c1.308,8.824,31.962,45.393,41.994,46.275V350.2S546.759,330.59,538.85,329.74Z" transform="translate(-294.305 299.902)"/><path class="j" d="M536,379.146s18.922-42.746,24.673-56.406l34.151,15S578.092,379.6,565.412,398.1l-5.948,4.837Z" transform="translate(-300.768 284.026)"/><path class="k" d="M623.4,272.441l-9.216-1.961s1.634-3.758,0-15c0,0,3.987-19.379,9.216-27.746,0,0-1.634-5.948-9.216-3.758,0,0-10.229,2.614-13.072,11.569s2.647,15.327,2.647,17.288-3.464,4.216-3.464,4.216-22.321-18.987-37.517-24.478a15.686,15.686,0,0,0-9.8,4.837,24.8,24.8,0,0,0-3.758,10.556h-5.85S535.65,244.7,531.238,246a21.113,21.113,0,0,0-7.288,3.922,9.8,9.8,0,0,0-9.02,0C510.977,252.636,504.8,263,504.8,265.61s6.373.882,8.366-.2a6.8,6.8,0,0,0,7.255,5.065c6.177-.229,11.7-7.288,11.7-7.288a64.015,64.015,0,0,0-1.34,9.249c.229,1.765,8.4,4.183,11.9,1.667,0,0,11.536,12.876,21.405,18.17s23.563-2.647,27.321-2.418,20.49,9.052,20.49,9.052S627.645,280.153,623.4,272.441Z" transform="translate(-371.531 58.928)"/><path class="l" d="M754.655,349.751c-31.275,7.941-94.152-.392-94.152-.392s4.052,26.634-21.275,88.237A668.352,668.352,0,0,1,580.959,545.44v.164h0s2.059-11.013-8.954-31.21c-9.8-18.138-32.68-24.968-32.68-24.968l-.425,9.8V488.152s33.464-83.661,41.994-116.276a637.83,637.83,0,0,1,21.471-65.2c17.712-12.516,51.537-23.039,65-26.928h0c3.562-1.013,5.719-1.569,5.719-1.569s24.477-8.17,44.674-13.6c11.471-3.1,21.569-5.36,25.066-4.771a10.557,10.557,0,0,1,4.543,2.026c6.765,4.935,10.327,16.8,10.327,16.8C764.721,311.744,754.655,349.751,754.655,349.751Z" transform="translate(-294.191 141.098)"/><path class="m" d="M563.58,278.493s38.367,4.15,60.524,4.15,21.373-19.608,21.373-19.608L603.94,255.78S570.835,265.944,563.58,278.493Z" transform="translate(-238.216 132.159)"/><path class="n" d="M604.483,202.15a234.856,234.856,0,0,0-8.824,53.432c-.425,25.36,2.647,55.328,2.647,59.707a5.131,5.131,0,0,0-5.719,1.569l-1.993,2.843s-12.778,7.712-41.635-3.53c0,0,2.647,27.321-13.889,44.968a42.484,42.484,0,0,0,16.112-2.614s33.726,23.138,68.106,22.026c0,0,25.458-20.687,24.445-50.458s-11.9-119.871-11.9-119.871Z" transform="translate(-302.878 10.525)"/><path class="o" d="M671.249,185.52h10.588A59.736,59.736,0,0,0,695.4,197.579c9.575,6.536,40.295,12.549,61.8,31.7,0,0-6.275,72.387-19.608,114.054S714.125,404.8,714.125,404.8s13.072,32.157,13.758,50.687c0,0-11.438-13.072-20.033-12.353s-40.524,11.928-59.315,9.249-34.445-25.1-34.445-25.1-10-2.647-33.105,10.556l-9.15.654s4.15-12.549,19.9-29.085a73.629,73.629,0,0,0,2.843-38.007s-21.83-30.785-26.438-52.288,0-71.668,0-71.668a24.313,24.313,0,0,0-10.915-7.615s-2.974-3.268,0-5.621,37.909-11.569,52.648-24.772S671.249,185.52,671.249,185.52Z" transform="translate(-255.622 -27.193)"/><path class="p" d="M610.9,169.89s4.575,25.785,12.19,38.007c0,0-3.268,24.772-14.87,38.661a59.773,59.773,0,0,1-25.785,18.17l-7.843-6.928a87.646,87.646,0,0,0-2.974-23.4C568.549,225.806,610.9,169.89,610.9,169.89Z" transform="translate(-220.342 -62.642)"/><path class="q" d="M577.433,240.28s-3.922,2.582-7.549,14.543,2.876,35.229,7.549,39.216a39.872,39.872,0,0,0,9.15-22.059C587.4,258.973,577.433,240.28,577.433,240.28Z" transform="translate(-226.317 97.004)"/><path class="r" d="M533.69,260.093a19.347,19.347,0,0,0,14.968-22.223l3.595.752s2.451,16.046-5.882,27.68Z" transform="translate(-306.008 91.538)"/><path class="h" d="M672.222,221.47l-8.922,6.536s13.987,5.294,7.059,23.791c-6.34,16.9-31.667,28.857-69.936,30.948l-8.072,8.268L574.083,309.38s-.784,15.1-3.856,18.432L583.3,339.772,565.39,353.106a52.29,52.29,0,0,1,27.288-7.418s14.739,15.915,22.582,20.85c0,0-3.268-9.118-5.262-15.588,0,0,38.367.163,61.177-4.118s26.994-9.085,26.994-9.085l1.961-84.969Z" transform="translate(-234.111 54.343)"/><path class="s" d="M637.419,179.36h5.49s4.967,13.726,10.915,20.131,10.588,11.046,10.588,11.046-35.033,68.629-46.766,98.5-20.981,72.714-20.981,72.714-27.125-38.334-31.733-60.491,2.19-76.929,27.027-95.132a73.942,73.942,0,0,1,6.34,11.863l7.941-8.922a75.163,75.163,0,0,0,22.517-15.033C640.1,203.282,637.419,179.36,637.419,179.36Z" transform="translate(-238.198 -41.164)"/><path class="t" d="M630.944,293.668s-14.935-9.575-21.438-11.177a23.694,23.694,0,0,1-14.477,2.157c-7.713-1.536-9.477-3.987-14.543-4.183s-8.366,2.843-15.2,0-14.118-16.961-16.765-23.6,30.425-23.562,30.425-23.562a58.826,58.826,0,0,1,14.412,0c4.739,1.111,24.51,27.288,27.615,29.053a40.072,40.072,0,0,0,9.8,2.876S635.389,285.6,630.944,293.668Z" transform="translate(-272.704 80.186)"/><path class="u" d="M567.77,267.794s9.314-12.615,7.091-26.5l13.072,2.843s-1.5,18.5-3.889,30.425Z" transform="translate(-228.713 99.295)"/><path class="v" d="M571.47,240.24s.817,3.595-3.954,4.967c0,0-17.386-11.144-28.2,1.8,0,0-3.072,3.1,1.34,9.02,0,0,22.876-3.268,30.131-1.9s10.654,12.876,25.131,10.654C605.261,263.378,571.47,240.24,571.47,240.24Z" transform="translate(-295.617 96.914)"/><path class="w" d="M587.04,338.5c-2.778.556-11.242,18.17-27.092,33.4s-57.517,28.4-57.517,28.4a16.8,16.8,0,0,0-3.954,15.229s43.04,8.464,57.158,6.928c21.177-2.32,29.772-6.928,41.667-9.249l1.667,6.536s17.19-2.418,27.811-4.379l8.2-11.079s.654-29.085-5.294-49.02l-13.562,2.647S605.8,334.871,587.04,338.5Z" transform="translate(-386.907 318.888)"/><path class="x" d="M643.478,405.7l-8.954,14.543a139.641,139.641,0,0,1-27.06.915l-1.634-6.536c-11.9,2.32-20.523,6.961-41.667,9.248a89.29,89.29,0,0,1-17.451-.686c-17.713-1.9-39.739-6.242-39.739-6.242a19.609,19.609,0,0,1,1.373-11.5h0a12.557,12.557,0,0,1,2.582-3.693s41.634-13.072,57.484-28.432a129.418,129.418,0,0,0,15.654-18.268c6.111-8.366,9.8-14.772,11.471-15.131,18.824-3.595,29.085,19.608,29.085,19.608l13.53-2.647a145.422,145.422,0,0,1,4.837,30.752C643.674,397.855,643.478,405.7,643.478,405.7Z" transform="translate(-367.331 322.115)"/><path class="y" d="M573.846,240.547s14.8,1.275,28.1-15.066,13.072-42.811,13.072-42.811a33.271,33.271,0,0,1-2.941-10.85L597.6,183.585,571.46,230.024Z" transform="translate(-220.344 -58.265)"/><path class="z" d="M598.523,194.3s-26.144,18.1-40.393,43.171l10.425,7.059s-8.1,25.719-4.477,47.158,37.615,56.177,37.615,56.177h7.353s-30.752-37.354-32.68-68.4,9.608-69.413,20.817-80.982Z" transform="translate(-250.577 -7.279)"/><path class="aa" d="M654.215,185.52l7.614,8.726S639.509,253.07,631.5,264.508c-3.268,4.608-34.608,14.445-56.8,16.34,0,0,32.68-9.281,50.262-23.824,0,0-29.935-13.268-42.484-10.164s-18.628,47.582-16.111,65.034c0,0-7.647-30.2,1.667-58.563s12.026-25.523,14.216-31.667a35.624,35.624,0,0,1,9.8-12.32l6.536,14.543,7.941-8.922a36.9,36.9,0,0,0,29.576-16.536C641.96,189.507,654.215,185.52,654.215,185.52Z" transform="translate(-238.588 -27.193)"/><path class="ab" d="M576.64,229.067a51.405,51.405,0,0,1,19.608,33.693s28.072-34.314,28.072-63.269a214.526,214.526,0,0,1-10.915-20.131s-2.484,27.059-11.112,36.242S576.64,229.067,576.64,229.067Z" transform="translate(-208.596 -41.164)"/><path class="ac" d="M588.816,211.271l-6.144-5.49s-11.079,4.869-14.9,28.465c0,0,1.8-28.726,13.562-43.105a36.346,36.346,0,0,0,2.353,8.595C585.45,203.755,588.816,211.271,588.816,211.271Z" transform="translate(-228.713 -14.446)"/><path class="ad" d="M580.288,202.267s-.556,4.51-3.268,21.471a624.458,624.458,0,0,0-5.491,72.713A303.4,303.4,0,0,0,576.955,344l3.5.686s-9.477-53.792-7.32-83.563,13.432-66.014,13.432-66.014Z" transform="translate(-220.186 -5.442)"/><path class="ae" d="M649.589,195.11l8.987,20.033L625.9,237.627a135.519,135.519,0,0,1,5.131,45.36c-.981,27.321-57.387,67.877-57.387,67.877L575.5,342.6s47.485-129.446,53.89-135.067a122.816,122.816,0,0,1,20.2-12.418Z" transform="translate(-215.4 -5.442)"/><path class="af" d="M629.643,185.52h10.588a112.878,112.878,0,0,1,18.17,43.759l-30.393,18.628s10,23.693,5.065,47.158S581.6,357.32,574.25,364.346c0,0,8.66-50.1,30.458-94.773a808.215,808.215,0,0,0,32.68-75.393Z" transform="translate(-214.017 -27.193)"/><path class="ag" d="M737.116,257.835c-2.647,10.229-15.2,42.942-15.2,42.942-9.248,56.864-34.38,87.191-34.38,87.191-27.745,10.523-95.524-2.909-101.472-3.268a25.361,25.361,0,0,0-7.517.948,58.561,58.561,0,0,0-7.091,2.255c8.529-21.536,0-53.792,0-53.792a181.084,181.084,0,0,0,67.812,3.268,4.706,4.706,0,0,1,2.974-4.967,15.1,15.1,0,0,1,8.921,0s9.8-34.706,9.8-43.661a51.828,51.828,0,0,0-2.647-16.144s5.621-36.373,23.138-54.87a57.975,57.975,0,0,1,37.68-18.857C731.364,209.6,739.894,247.574,737.116,257.835Z" transform="translate(-220.344 3.108)"/><path class="ae" d="M732.195,222.522c-2.647,10.229-15.2,42.942-15.2,42.942-9.249,56.864-34.38,87.191-34.38,87.191-27.745,10.523-95.524-2.909-101.472-3.268a25.361,25.361,0,0,0-7.517.948l.915-.948c9.445-15.2.458-39.216-.752-42.125a117.359,117.359,0,0,0,21.079,29.968c35.1,3.987,84.969-1.863,84.969-1.863,33.105-24.281,37.844-120.917,37.844-120.917l5.817,22.876Z" transform="translate(-215.423 38.421)"/><path class="ae" d="M595.184,239.77a86.5,86.5,0,0,1,26.9,13.954s-21.308-10.033-29.87-8.987C592.211,244.737,592.112,242.515,595.184,239.77Z" transform="translate(-173.283 95.848)"/><path class="ae" d="M725.466,348.053c-31.275,7.941-94.152-.392-94.152-.392s4.052,26.634-21.275,88.237A668.345,668.345,0,0,1,551.77,543.742c50.36-115.655,62.844-236.67,62.844-236.67C640.759,300.209,672.295,289,672.295,289c-22.876-18.072-33.465-10.784-34.151-10.621,3.562-1.013,5.719-1.569,5.719-1.569s24.477-8.17,44.674-13.6l29.608-2.745c6.765,4.935,10.327,16.8,10.327,16.8C735.531,310.046,725.466,348.053,725.466,348.053Z" transform="translate(-265.002 142.796)"/><path class="ah" d="M558.27,294.386s16.34,1.732,41.569,1.732c0,0,43.138-10.131,57.681-18.072,0,0-15.719-15.883-28.432-12.19S561.865,284.942,558.27,294.386Z" transform="translate(-250.26 153.749)"/><path class="ai" d="M538.85,439.48s52.942-85.557,63.008-158.14c0,0-35.033,89.609-42.975,106.276Z" transform="translate(-294.305 190.13)"/><path class="aj" d="M608,266.637s15.294,15.719,26.144,17.288S662.611,259.97,669.8,238.5s-8.595-37.321-8.595-37.321l-31.9-3.268a43.008,43.008,0,0,0-27.223,26.406,155.053,155.053,0,0,0-7.647,39.216Z" transform="translate(-168.225 0.908)"/><path class="ak" d="M573.486,243.013s-19.249,5.621-22.321,15.262c0,0-12.026,5.915-34.576-1.667l39.216-26.929S566.231,237.262,573.486,243.013Z" transform="translate(-344.791 72.963)"/><path class="al" d="M573.48,233s-10.621,12.386-16.34,15.687c0,0,3.824-.98,8.2-2.484a24.969,24.969,0,0,0,8.2-5.36l1.47-7.092Z" transform="translate(-252.822 80.493)"/><path class="ak" d="M548.08,254.649a109.606,109.606,0,0,0,21.6,0c21.667-2.124,21.8-6.111,23.628-13.889l-6.536-5.36-1.732,2.713-14.575-1.536-13.072,2.647-9.15,9.477A7.976,7.976,0,0,1,548.08,254.649Z" transform="translate(-273.371 85.936)"/><path class="am" d="M597.758,238.179A24.344,24.344,0,0,0,592.5,233.6c-2.157-.98-8.268-2.124-11.242,0a24.7,24.7,0,0,0-7.778-4.15,13.073,13.073,0,0,0-9.575,3.824c-2.32,2.32-4.15,4.412-4.15,4.412a29.938,29.938,0,0,0-10.883,4.346c-3.268,2.811-7.778,15.033-7.778,17.517s7.418,2.32,7.418,2.32-.98,2.81.523,3.791,9.412-.327,11.732-2.124a23.562,23.562,0,0,0,13.072-1.013,37.123,37.123,0,0,0,9.8-8.432s5.229,4.347,9.8,2.647,17.876-14.935,17.876-14.935A16.5,16.5,0,0,0,597.758,238.179Z" transform="translate(-289.224 72.439)"/><path class="ak" d="M560.871,248.045s9.575-12.876,14.183-15.915A111.763,111.763,0,0,0,551.1,256.477a34.94,34.94,0,0,0,9.771-8.432Z" transform="translate(-266.521 78.52)"/><path class="ak" d="M567.6,232.376a81.341,81.341,0,0,0-20.491,29.935s6.765-20.164,16.928-32.321Z" transform="translate(-275.571 73.666)"/><path class="ak" d="M554.6,232a87.673,87.673,0,0,0-11.242,24.183,88.233,88.233,0,0,1,7.32-23.17Z" transform="translate(-284.076 78.225)"/><path class="ak" d="M544.215,235.84a63.792,63.792,0,0,0-11.863,9.8,34.446,34.446,0,0,1-15.752,8.987v-8.072l11.013-14.771,9.118-1.307,4.052,3.529Z" transform="translate(-344.768 74.778)"/><path class="an" d="M538.546,233.069s-8.268-5.1-15.523-1.961c-4.052,1.765-12.157,13.072-15.523,20.36,0,0,1.013,5.131,9.216,4.02a38.79,38.79,0,0,0,12.68-9.346,104.047,104.047,0,0,0,9.151-13.072Z" transform="translate(-365.407 73.888)"/><path class="ao" d="M531.119,231.232s-4.641-.752-5.719,0-10.458,11.013-11.242,15.229a40.529,40.529,0,0,0-1.438,10.752c.555,1.209,8.693,3.268,11.993,0s8.5-21.308,8.5-21.308Z" transform="translate(-353.568 75.725)"/><path class="ap" d="M518.35,241.679v13.072a14.706,14.706,0,0,0,12.843-3.5s.752-12.745,3.954-17.353a20.36,20.36,0,0,1,16.831,3.693A194.288,194.288,0,0,0,532.01,226.45S520.9,223.64,518.35,241.679Z" transform="translate(-340.799 65.278)"/><path class="ak" d="M513.06,248.977s4.706-11.6,11.569-16.863l-2.516-1.634a32.485,32.485,0,0,0-9.052,18.5Z" transform="translate(-352.797 74.778)"/><path class="aq" d="M643.478,360.636l-8.954,14.543a139.638,139.638,0,0,1-27.06.915l-1.634-6.536c-11.9,2.32-20.523,6.961-41.667,9.248-14.118,1.569-57.19-6.928-57.19-6.928a19.609,19.609,0,0,1,1.373-11.5h0c.915.261,36.112,17.68,74.413,5.719,37.452-11.667,57.975-4.281,60.687-5.425Z" transform="translate(-367.331 367.178)"/><path class="ar" d="M617.513,405.7l-8.954,14.543a139.646,139.646,0,0,1-27.06.915l-1.634-6.536c-11.9,2.32-20.523,6.961-41.667,9.248a89.291,89.291,0,0,1-17.451-.686l-2.647-8.366a146.636,146.636,0,0,0,42.779-7.614c20.654-7.451,27.615-30,27.615-30-6.536-15.948-25.2-21.046-30.36-22.157,6.111-8.366,9.8-14.771,11.471-15.131,18.824-3.595,29.085,19.608,29.085,19.608l13.53-2.647a145.421,145.421,0,0,1,4.837,30.752C617.71,397.855,617.513,405.7,617.513,405.7Z" transform="translate(-341.366 322.115)"/><path class="as" d="M561.356,148.58s-11.863,5.262-13.072,15.556,6.8,19.608,16.177,24.118,14.412-26.5,14.412-26.5Z" transform="translate(-273.183 -110.973)"/><path class="at" d="M560.03,156.587s-10.654,21.177-8.366,40.523a102.491,102.491,0,0,0,7.909,18.791c5.294,9.8,4.608,24.183,8.3,37.223s17.451,39.674,33.89,41.635,38.759-14.052,48.2-32.68,8.562-69.119,8.562-69.119-6.307-33.432-18.464-40.785S595.716,134.855,560.03,156.587Z" transform="translate(-265.973 -122.772)"/><path class="au" d="M563.918,225.851a15.131,15.131,0,0,0,13.334-3.66,29.411,29.411,0,0,0-.752-9.8c-1.34-4.706-10.686-16.928-10.686-16.928s17.941-7.026,26.438-5.719c0,0,2.091,20.85,5.882,27.844A48.236,48.236,0,0,0,626.4,206.994l.85-6.144s13.072,7.876,14.608,17.288,0,13.072,0,13.072l12.255-32.68-11.994-32.288-6.83-13.072L617.285,145l-46.144,12.713-18.791,8.726s-1.993,21.34-.49,27.125,9.543,22.223,10.654,25.85A42.722,42.722,0,0,1,563.918,225.851Z" transform="translate(-266.072 -119.093)"/><path class="av" d="M654.632,231.774a31.016,31.016,0,0,0,1.242-13.791,12.15,12.15,0,0,0-2.157-4.575h0c-3.268-4.477-8.954-8.693-13.072-14.771-5.523-8.1-3.628-25.556-3.628-25.556-12.843-2.026-21.242,2.386-37.452,13.236s-28.007,6.079-28.007,6.079a31.111,31.111,0,0,1-10.1-7.092l-.523-.556h0a29.413,29.413,0,0,1-7.353-19.412l-4.935-4.118c.915.327,12.059,4.641,19.608,2.484s9.183-8.5,20.164-16.765,23.53-1.373,23.53-1.373l-.817-8.333a92.586,92.586,0,0,0,28.53,23.4c10.458,4.837,21.569,9.8,26.144,18.759a33.135,33.135,0,0,1,2.353,12.222c0,3.268,0,6.536,0,9.608-.261,8.628-1.176,16.34-1.176,16.34Z" transform="translate(-272.078 -136.716)"/><path class="aw" d="M582.12,178.135s8.432-15.752,19.837-17.255c0,0,5.654.327,11.732,8.922,0,0-1.078,15.654-6.536,25.229s-11.732,9.412-14.739,9.575-7.974-5.49-7.974-5.49S577.708,187.416,582.12,178.135Z" transform="translate(-199.566 -83.077)"/><path class="ak" d="M582.42,181.517s2.941-13.628,21.569-17.647a29.868,29.868,0,0,1-2.909,22.713s5-10.49,1.536-19.608C602.616,166.942,588.5,170.994,582.42,181.517Z" transform="translate(-195.487 -76.295)"/><path class="ak" d="M597.229,165.46a19.607,19.607,0,0,1-1.667,12.843c-3.268,6.536-10.2,3.595-13.072-.392,0,0,7.124,5.882,9.8.392a11.5,11.5,0,0,0-.915-10.915Z" transform="translate(-195.328 -72.689)"/><path class="ax" d="M554.946,170.745a6.536,6.536,0,0,1,6.536-2.418,31.833,31.833,0,0,1,10.883,3.889,27.811,27.811,0,0,0-8.791-11.732l.523,1.765a30.491,30.491,0,0,0-12.516-3.268S550.142,162.706,554.946,170.745Z" transform="translate(-265.89 -87.386)"/><path class="ay" d="M563.08,157.674a15.915,15.915,0,0,0,4.608,10.719s10.1-.948,17.516-1.209a39.217,39.217,0,0,1,13.072,1.634,33.007,33.007,0,0,0-7.909-10.621v1.471a82.123,82.123,0,0,0-27.288-1.993Z" transform="translate(-239.35 -91.178)"/><path class="az" d="M565.66,167.192a13.072,13.072,0,0,0,5.948,4.477,44.577,44.577,0,0,0,16.34-7.843,53.071,53.071,0,0,0-22.288,3.366Z" transform="translate(-233.499 -76.643)"/><path class="az" d="M568.753,166.919a19.053,19.053,0,0,0-14.052,3.268,16.7,16.7,0,0,0,6.242,3.889,22.875,22.875,0,0,0,7.255-3.1,28.211,28.211,0,0,0,.556-4.052Z" transform="translate(-258.356 -69.932)"/><path class="ba" d="M565.889,173.369a13.923,13.923,0,0,1,3.268-12.353S578.6,160.1,588.079,170A45.753,45.753,0,0,0,565.889,173.369Z" transform="translate(-233.728 -82.82)"/><path class="bb" d="M555.574,176.651a22.879,22.879,0,0,1-.686-12.255s5.425-3.268,14.673,5.458a19.944,19.944,0,0,1,0,3.595A21.667,21.667,0,0,0,555.574,176.651Z" transform="translate(-259.132 -76.462)"/><path class="bc" d="M565.66,166.975a10.327,10.327,0,0,0,5.948,4.477,52.857,52.857,0,0,0,5.752-1.863,12.39,12.39,0,0,0-.392-5.752,18.464,18.464,0,0,0-11.307,3.137Z" transform="translate(-233.499 -76.427)"/><path class="bd" d="M554.73,169.9a10.915,10.915,0,0,0,6.242,3.889,25.418,25.418,0,0,0,3.268-1.046,19.607,19.607,0,0,0-1.307-5.948,10.457,10.457,0,0,0-8.2,3.1Z" transform="translate(-258.288 -69.714)"/><path class="be" d="M569.175,169.3l-4.575-.654s6.765-7.909,25.622-4.216a38.171,38.171,0,0,0-20.36,3.595Z" transform="translate(-235.903 -77.249)"/><path class="bf" d="M571.27,167.058s-10.458-2.288-17.68,3.529l4.706.686-.556-.621a28.073,28.073,0,0,1,13.53-3.595Z" transform="translate(-260.874 -70.071)"/><path class="bg" d="M571.23,165.882a1.177,1.177,0,0,1-1.34,1.013,1.274,1.274,0,0,1-1.046-1.373,1.206,1.206,0,0,1,2.386.36Z" transform="translate(-226.29 -74.876)"/><path class="bg" d="M559.454,168.767a1.176,1.176,0,1,1-.225-.883A1.177,1.177,0,0,1,559.454,168.767Z" transform="translate(-252.882 -68.251)"/><path class="bh" d="M556.2,162.388a42.741,42.741,0,0,1,9.248,14.575s-.457,7.582-.457,13.955c0,0,2.124-14.216,2.255-15.981s-5.85-10.2-6.536-11.7S556.2,162.388,556.2,162.388Z" transform="translate(-254.954 -79.977)"/><path class="bi" d="M563.315,177.71s-1.765.294-1.9,4.673a17.256,17.256,0,0,1,3.268-4.477Z" transform="translate(-243.115 -44.906)"/><path class="bj" d="M641.3,204.011a31.964,31.964,0,0,1-6.961-15.294,47.446,47.446,0,0,1,2.909-17.353L634.465,161.2a78.885,78.885,0,0,1-7.908,23.6c-.49.882-1.013,1.732-1.6,2.582-7.157,10.621-15,14.183-18.334,14.412-2.124,0-8.4-1.438-15.229-1.275h0a24.774,24.774,0,0,0-12.027,3.007c-9.8,5.752-14.608,2.582-18.17,6.307s-3.627,17.876-1.7,25.033,16.536,20.785,23.3,22.876a51.667,51.667,0,0,0,22.876-5.033l-2.614,4.477a60.622,60.622,0,0,0,27.778-22.876C641.818,217.083,641.3,204.011,641.3,204.011Zm-47.877,3.824c.588-1.569,6.536-1.993,8.1,3.595s-4.935,14.379-9.8,14.8-5.784-5.425-9.8-3.987-3.856,7.647-3.856,7.647c-6.307.261-9.543-6.765-9.543-6.765-.457-5.327.784-5.621.784-5.621s3.268,5.163,12.157,1.046C595.281,212.214,593.419,207.835,593.419,207.835Z" transform="translate(-250.342 -82.351)"/><path class="bk" d="M561.788,186.49s2.353,4.085,9.51,1.994a25.066,25.066,0,0,0,15.458-13.824l2.124,1.176s-7.222,11.928-17.386,14.412c-8.529,2.059-9.8-2.68-9.8-2.68Z" transform="translate(-242.503 -51.823)"/><path class="bl" d="M568.74,174.571a9.8,9.8,0,0,1,7.451,3.268,40.233,40.233,0,0,0-6.536-.915A3.629,3.629,0,0,1,568.74,174.571Z" transform="translate(-226.513 -52.028)"/><path class="bm" d="M658.258,202.682s-3.954,1.144-13.431-4.052h0c-3.268-4.477-8.954-8.693-13.072-14.771-5.523-8.1-3.627-25.556-3.627-25.556-12.843-2.026-21.242,2.386-37.452,13.236s-28.007,6.079-28.007,6.079a31.11,31.11,0,0,1-10.1-7.092c1.863,1.83,8.693,7.026,21.307,1.994,15.033-6.046,29.935-29.412,41.994-28.759s12.647,10.36,12.647,10.36,14.543,16.83,30.916,22.68c0,0-7.484,0-21.961-8.693a46.178,46.178,0,0,0,22.027,18.3Z" transform="translate(-263.187 -121.937)"/><path class="bn" d="M584.352,141.459l6.863,5.2s-18.1-7.418-30.425-3.824a24.118,24.118,0,0,1,23.562-1.373Z" transform="translate(-244.544 -132.644)"/><path class="bo" d="M554.4,149.37a23.077,23.077,0,0,0,4.935,7.811s-3.791,14.9-3.268,20.621C555.964,177.8,542.107,162.605,554.4,149.37Z" transform="translate(-270.568 -109.182)"/><path class="bp" d="M579.308,176.247a24.771,24.771,0,0,1,12.026-3.007,28.138,28.138,0,0,0-13.464,5.882c-5.817,5.033-10.621,4.9-13.954,8.726a38.921,38.921,0,0,0-5.686,10.033c-.2-6.34.654-13.072,2.909-15.327C564.7,178.992,569.569,182,579.308,176.247Z" transform="translate(-250.415 -55.045)"/><path class="bq" d="M586.566,234.208a57.66,57.66,0,0,1-8.856,10.654c5.261-15.392,6.732-49.02,4.673-60.066a78.89,78.89,0,0,0,7.909-23.6l2.778,10.163a47.445,47.445,0,0,0-2.909,17.353,31.959,31.959,0,0,0,6.961,15.294S597.645,217.083,586.566,234.208Z" transform="translate(-206.169 -82.351)"/><path class="br" d="M568.488,169.7a8.792,8.792,0,0,1,4.347,8.007l-8.464,6.046,5.752-6.111a7.713,7.713,0,0,0-1.634-7.941Z" transform="translate(-236.425 -63.073)"/><path class="bs" d="M559.31,180.371a24.739,24.739,0,0,0,13.268-2.484,47.894,47.894,0,0,1,9.8-5.817,24.379,24.379,0,0,0-6.994,9.8s-1.5,1.961-8.235,2.353a19.086,19.086,0,0,1-7.843-3.856Z" transform="translate(-247.901 -57.698)"/><path class="bt" d="M564.68,177.357s1.471-4.673,5.686-4.837A14.968,14.968,0,0,1,564.68,177.357Z" transform="translate(-235.722 -56.677)"/><path class="bu" d="M550.141,145.82s16.013,6.536,26.863,3.791c0,0-12.19,9.183-25.654,4.445A22.88,22.88,0,0,1,550.141,145.82Z" transform="translate(-268.732 -117.233)"/><g transform="matrix(0.999, -0.035, 0.035, 0.999, -0.336, 196.774)"><path class="bv" d="M22.419,168.99,0,12.484,130.917,0l19.674,169.709Z" transform="translate(0 0)"/><path class="bw" d="M29.085,169.545,6.83,2.516,0,0,19.674,169.709Z" transform="translate(130.917 0)"/><path class="bx" d="M0,1.9,148.042,0V12.157L4.935,11.144Z" transform="translate(155.068 158.401)"/><path class="by" d="M44.719,30.805c1.9,18.236-6.536,34.085-18.726,35.393S2.2,53.747.274,35.478,6.81,1.393,19,.086,42.922,12.57,44.719,30.805Z" transform="translate(52.505 55.928)"/><path class="bz" d="M10.588,11.548c.719,6.7-1.013,12.353-3.856,12.647S1.013,19.326.2,12.627,1.209.306,4.052.012,9.9,4.881,10.588,11.548Z" transform="translate(69.544 76.819)"/><path class="ca" d="M0,8.5,104.838,167.748h14.477L89.217,0Z" transform="translate(20.164 2.058)"/></g></g></g></svg>