<svg xmlns="http://www.w3.org/2000/svg" xmlns:xlink="http://www.w3.org/1999/xlink" width="406.504" height="573.211" viewBox="0 0 406.504 573.211"><defs><style>.a,.aa,.ab,.ac,.ad,.ai,.aj,.ak,.al,.am,.ao,.ap,.b,.d,.f,.h,.i,.l,.m,.o,.r,.s,.v,.w,.x,.y,.z{fill-rule:evenodd;}.a{fill:url(#a);}.aj,.ak,.al,.am,.b{opacity:0.94;}.ae,.aj,.ak,.al,.am,.an,.b,.e,.i,.m,.q,.u{mix-blend-mode:multiply;isolation:isolate;}.b{fill:url(#b);}.c{fill:url(#c);}.d{fill:url(#d);}.an,.e,.q,.u{opacity:0.7;}.e{fill:url(#e);}.f{fill:#2c000e;}.g{fill:url(#f);}.h{fill:#e7e7e7;}.i{fill:url(#g);}.j{fill:url(#h);}.k{fill:#d26366;}.l{fill:#b33d57;}.ae,.m{opacity:0.6;}.m{fill:url(#i);}.n{fill:#e46d70;}.o{fill:#c94c6a;}.p{fill:url(#j);}.q{fill:url(#k);}.r{fill:#830038;}.s{fill:url(#l);}.t{fill:url(#m);}.u{fill:url(#n);}.v{fill:url(#o);}.w{fill:#fff;}.x{fill:#4e133d;}.y{fill:url(#p);}.z{fill:url(#q);}.aa{fill:url(#r);}.ab{fill:#420f2e;}.ac{fill:url(#s);}.ad{fill:url(#t);}.ae{fill:url(#u);}.af{fill:#bf5b71;}.ag{fill:#cf595c;}.ah{fill:#9f425b;}.ai{fill:#9f3345;}.aj{fill:url(#v);}.ak{fill:url(#w);}.al{fill:url(#x);}.am{fill:url(#y);}.an{fill:url(#z);}.ao{fill:url(#aa);}.ap{fill:url(#ab);}</style><linearGradient id="a" x1="0.483" y1="0.242" x2="1.516" y2="0.242" gradientUnits="objectBoundingBox"><stop offset="0" stop-color="#450822"/><stop offset="1" stop-color="#0e0013"/></linearGradient><linearGradient id="b" x1="1.039" y1="0.642" x2="1.039" y2="-0.353" gradientUnits="objectBoundingBox"><stop offset="0.01" stop-color="#5e367e"/><stop offset="0.99" stop-color="#b68b8e"/></linearGradient><linearGradient id="c" x1="1.074" y1="0.764" x2="1.074" y2="-0.222" gradientUnits="objectBoundingBox"><stop offset="0" stop-color="#ff9d72"/><stop offset="1" stop-color="#f58882"/></linearGradient><linearGradient id="d" x1="1.206" y1="0.734" x2="1.206" y2="-0.298" gradientUnits="objectBoundingBox"><stop offset="0" stop-color="#a7141d"/><stop offset="1" stop-color="#b1171b"/></linearGradient><linearGradient id="e" x1="1.028" y1="0.634" x2="1.028" y2="-0.334" gradientUnits="objectBoundingBox"><stop offset="0.01" stop-color="#b6688e"/><stop offset="0.99" stop-color="#6d167e"/></linearGradient><linearGradient id="f" x1="1.225" y1="1.103" x2="1" y2="0.261" gradientUnits="objectBoundingBox"><stop offset="0" stop-color="#ff9d72"/><stop offset="1" stop-color="#ca7c5a"/></linearGradient><linearGradient id="g" x1="1.904" y1="-0.072" x2="1.904" y2="-1.125" gradientUnits="objectBoundingBox"><stop offset="0.01" stop-color="#b68b8e"/><stop offset="0.99" stop-color="#77345e"/></linearGradient><linearGradient id="h" x1="0.924" y1="0.705" x2="0.924" y2="-0.299" gradientUnits="objectBoundingBox"><stop offset="0.01" stop-color="#ff9d72"/><stop offset="1" stop-color="#ef7a8e"/></linearGradient><linearGradient id="i" x1="0.928" y1="0.685" x2="0.928" y2="-0.313" xlink:href="#e"/><radialGradient id="j" cx="0.166" cy="0.479" r="0.35" gradientTransform="matrix(2.06, 0.069, -0.185, 1.297, -1.632, 1.385)" gradientUnits="objectBoundingBox"><stop offset="0.01" stop-color="#c21b18"/><stop offset="1" stop-color="#5d012a"/></radialGradient><linearGradient id="k" x1="1.434" y1="-0.077" x2="1.434" y2="-0.997" xlink:href="#e"/><linearGradient id="l" x1="1.035" y1="0.718" x2="1.035" y2="-0.318" gradientUnits="objectBoundingBox"><stop offset="0" stop-color="#820a23"/><stop offset="1" stop-color="#a8141c"/></linearGradient><linearGradient id="m" x1="0.878" y1="0.75" x2="0.878" y2="-0.223" xlink:href="#h"/><linearGradient id="n" x1="1.024" y1="0.79" x2="1.024" y2="-0.205" xlink:href="#e"/><linearGradient id="o" x1="0.282" y1="0.273" x2="1.325" y2="0.273" gradientUnits="objectBoundingBox"><stop offset="0.01" stop-color="#98253d"/><stop offset="0.44" stop-color="#450822"/><stop offset="1" stop-color="#0e0013"/></linearGradient><linearGradient id="p" x1="2.214" y1="-0.305" x2="3.123" y2="-0.305" gradientUnits="objectBoundingBox"><stop offset="0" stop-color="#450838"/><stop offset="1" stop-color="#1d003a"/></linearGradient><linearGradient id="q" x1="2.375" y1="-2.222" x2="2.375" y2="-3.294" gradientUnits="objectBoundingBox"><stop offset="0" stop-color="#ffa7a3"/><stop offset="1" stop-color="#ffdbb8"/></linearGradient><linearGradient id="r" x1="4.628" y1="-2.788" x2="4.628" y2="-3.813" xlink:href="#q"/><linearGradient id="s" x1="4.636" y1="-4.744" x2="4.636" y2="-5.761" gradientUnits="objectBoundingBox"><stop offset="0.01" stop-color="#98253d"/><stop offset="0.44" stop-color="#450838"/><stop offset="1" stop-color="#1d003a"/></linearGradient><linearGradient id="t" x1="6.351" y1="-3.749" x2="6.351" y2="-4.754" xlink:href="#s"/><linearGradient id="u" x1="2.819" y1="-4.258" x2="3.796" y2="-4.258" gradientUnits="objectBoundingBox"><stop offset="0.01" stop-color="#b060f4"/><stop offset="1" stop-color="#ffeadb"/></linearGradient><linearGradient id="v" x1="3.596" y1="-0.098" x2="3.596" y2="-1.074" xlink:href="#b"/><linearGradient id="w" x1="1.464" y1="0.735" x2="1.464" y2="-0.265" xlink:href="#b"/><linearGradient id="x" x1="1.878" y1="-0.199" x2="1.878" y2="-1.26" xlink:href="#b"/><linearGradient id="y" x1="1.69" y1="-1.43" x2="1.69" y2="-2.317" xlink:href="#b"/><linearGradient id="z" x1="0.893" y1="0.727" x2="0.893" y2="-0.243" xlink:href="#e"/><linearGradient id="aa" x1="1.23" y1="0.695" x2="1.23" y2="-0.27" gradientUnits="objectBoundingBox"><stop offset="0" stop-color="#ffa698"/><stop offset="1" stop-color="#ffcc8d"/></linearGradient><linearGradient id="ab" x1="0.839" y1="0.785" x2="0.839" y2="-0.236" xlink:href="#aa"/></defs><g transform="translate(-211.467)"><path class="a" d="M1210.871,202.711s-5.865,77.829-29.032,90.235-53.34,6.892-53.34,6.892c8.831,19.013,38.253,24.241,38.253,24.241s-24.469,0-39.927-13.689-13.271-39.575-13.271-39.575c-3.223,11.807-8.651,23.148-14.155,32.673l-.067.143a193.023,193.023,0,0,1-18.595,26.722c.542-1.854,12.548-42.446,9.6-94.779a340.775,340.775,0,0,0-7.1-54.548v-.067c-.95-4.459-1.977-8.28-2.852-11.484a103.8,103.8,0,0,0-4.23-12.577c-11.826-51.515,20.914-62.98,20.914-62.98Z" transform="translate(-672.394 -36.134)"/><path class="b" d="M1202.354,214.15l-11.6,66.868s-19.26,18.119-37.465,9.735-37.446-34.993-37.446-34.993-.133,5.076-2.281,16.94c-3.223,11.807-8.651,23.148-14.155,32.673.951-2.367,13.8-33.519,5.371-54.415-8.755-21.741-21.532-68.047-21.532-68.047v-.067c-.951-4.458-1.977-8.28-2.852-11.484a11.52,11.52,0,0,1,.276-1.435c1.9-7.548-6.312-33.643-6.312-33.643l18.518-3.974Z" transform="translate(-672.432 -38.029)"/><path class="c" d="M1032.011,523.152l-.846-.875c-.761-.751-1.9-2-3.536-3.8l-.542-.6c-10.219-11.408-34.46-41.1-53.3-85.624-5.5-13.014-10.685-24.061-15.505-33.529v-.152c-4.344-8.489-8.375-15.667-12.064-21.865-10.409-17.7-18.062-27.464-21.6-35.915-6.227-14.782-27.131-55.042-27.2-59.054s18.785,1.7,25.306,12.358c0,0,22.273,29.213,33.852,30.031s8.071-21.617,10.134-30.2,20.914-18.119,24.916-18.214,6.075,6.978,5.951,8.774-14.393,7.7-18.005,17.625-.276,40-4.306,45.536-12.853,11.807-12.853,11.807,2.491,4.335,6.483,10.78c6.388,10.343,16.646,26.076,26.618,37.864,12.615,14.916,26.323,22.521,33.833,27.825h0a21.719,21.719,0,0,1,4.6,3.964.088.088,0,0,0,0,.057C1038.4,445.865,1053.287,491.486,1032.011,523.152Z" transform="translate(-663.699 -45.107)"/><path class="d" d="M1148.542,363.482a194.357,194.357,0,0,1-20.305,45.507s-6.5,18.357-25.287,49.081l-3.289,5.267-1.9,2.918a384.075,384.075,0,0,1-44.129,55.869,25.792,25.792,0,0,1-9.763,10.457c-5.78-2.129-9.829-12.273-10.077-12.91l.542.6,3.536,3.8.846.875c18.2-33.995,2.576-81.089,1.9-83.171a.086.086,0,0,1,0-.057l-4.6-3.964h0c2.291-7.719,14.773-1.607,14.773-1.607s2.643.8,13.87-11.084c.951-1.008,1.987-2.129,3.09-3.356,13.832-15.372,27.568-73.8,42.065-90.738a46.091,46.091,0,0,1,9.155-8.08l.152-.1c14.383-9.658,31.865-11.265,31.865-11.265C1155.767,328.394,1153.314,347.064,1148.542,363.482Z" transform="translate(-670.43 -46.875)"/><path class="e" d="M1103.8,387.909l-5.19,73.3-3.289,5.267-1.9,2.918a384.059,384.059,0,0,1-44.129,55.869,25.791,25.791,0,0,1-9.763,10.457c-5.78-2.129-9.83-12.273-10.077-12.91l.542.6,3.536,3.8.846.875c17.558-67.6-17.7-87.991-17.7-87.991-38.748-13.889-56.031-36.4-56.031-36.4v-.152L945.88,382.424l2.7-.76,22.682-6.483c6.388,10.343,16.646,26.076,26.618,37.864,12.615,14.915,26.323,22.521,33.833,27.825,2.291-7.719,14.773-1.607,14.773-1.607s2.643.8,13.87-11.084a31.676,31.676,0,0,0,10.742-1.711C1084.474,421.352,1103.8,387.909,1103.8,387.909Z" transform="translate(-666.091 -50.017)"/><path class="f" d="M311.979,263.009l8.47-7.624-33.149-74.8,5.609-2.148L409.2,338.3l-8.632,36.058Z" transform="translate(-71.603 -8.821)"/><path class="g" d="M1188.171,262.91s-.951,21.171-13.822,44.252c0,0-11.861,20.376,8.993,23.909,16.959-.247,40.621-31.371,40.621-31.371l5.637-79.549S1205.587,255.01,1188.171,262.91Z" transform="translate(-677.263 -42.365)"/><path class="h" d="M408.041,286.27,314.47,176.89l15.571,91.527,72.828,43.226Z" transform="translate(-72.944 -8.744)"/><path class="i" d="M1188.761,263.037l-4.591,22.692s24.489,2.148,42.142-10.98,9.259-52.028,9.259-52.028S1210.141,253.749,1188.761,263.037Z" transform="translate(-677.853 -42.492)"/><path class="j" d="M1179.49,44.248c-35.744-5.362-74.6,16.284-92.459,56.221s9.915,84.141,12.358,95.587-1.987,31.561,6.312,42.693,24.831,17.273,31.828,21.161,9.715,6.5,16.313,5.761,55.023-15.372,73.817-54.757S1248.563,54.591,1179.49,44.248Z" transform="translate(-672.764 -33.642)"/><path class="k" d="M1155.829,190.943s-4.126-21.2,6.464-26.618,30.668,16.532,30.668,16.532S1175.669,192.35,1155.829,190.943Z" transform="translate(-676.415 -39.567)"/><path class="k" d="M1102.051,199.973s-6.036-22.521-1.16-24.545,16.161,9.364,18.262,19.963A30.215,30.215,0,0,1,1102.051,199.973Z" transform="translate(-673.648 -40.146)"/><path class="l" d="M1155.048,182.816s.1-14.792,9.117-17.188,26.618,12.929,26.618,12.929-17.492-18.233-27.151-15.334S1155.048,182.816,1155.048,182.816Z" transform="translate(-676.414 -39.539)"/><path class="l" d="M1100.174,191.688s-3-12.748,1.065-15.1,13.956,9.4,13.956,9.4-8.708-13.651-14.754-12.358C1095.412,174.634,1100.174,191.688,1100.174,191.688Z" transform="translate(-673.606 -40.065)"/><path class="m" d="M1235.459,111.245s-18.138-61.3-57.276-64.767-80.386,34.784-91.261,54.12-6.759,48.188-2.139,55.955l15.39,48.216a14.811,14.811,0,0,0,9.792,4.268c6.483.456,10.067-12.292,8.556-24.717s-19.507-35.1-25.382-37.075,6.654-30.183,25.572-30.069,60.974,25.411,60.974,25.411-45.4,6.122-47.323,5.314c0,0,6.322,36.723,18.68,51.971,0,0,17.4,2.367,30.867-6.312s17.045-26.818,17.045-26.818,4.563,31.209-2.985,58.046-23.2,34.8-23.2,34.8,33.272-12.453,50.66-40.877S1235.459,111.245,1235.459,111.245Zm-136.236,67.971c1.9-4.4,11.246,10.809,11.246,10.809s-1.264,2.7-8.631,1.6C1101.866,191.622,1097.369,183.627,1099.223,179.216Zm54.3,3.8s0-20.306,6.654-20.41,10.733,14.687,10.733,14.687c-6.816,5.5-17.387,5.77-17.387,5.77Z" transform="translate(-672.712 -33.781)"/><path class="n" d="M1236.66,173.153s7.358-14.583,26.913-16.3c0,0,9.4,13.509,6.978,30.42s-24.213,30.544-30.335,30.2-10.1-6.2-10.1-6.2S1231.033,185.093,1236.66,173.153Z" transform="translate(-680.121 -39.24)"/><path class="o" d="M1269.149,182.333s-3.175-11.341-8.556-10.9c-9.25.742-20.914,19.013-23.243,29.242,0,0,5.4-9.906,11.949-12.064,0,0,2.539,8.736-.95,14.963s-10.314,3.251-10.314,3.251,3.489,3.669,11.16-1.236,5.019-22.815,5.019-22.815,5.447-6.654,7.672-6.873S1269.149,182.333,1269.149,182.333Z" transform="translate(-680.478 -39.959)"/><path class="p" d="M1087.678,618.918l20.823-64.66c.171-.713.342-1.512.485-2.32l.228-1.179c.741-4.164,1.388-9.212,1.9-14.754.295-3.27.532-6.711.76-10.219V525.7c1.4-24.622.142-53.236-5.628-55.955a26.235,26.235,0,0,1-6.189-4.658c-8.556-8.166-18.965-24.175-19.964-36.467-1.34-15.628,17.368-26.4,38.339-55.451,2.262-3.156,4.468-6.379,6.531-9.6.323-.532.684-1.055,1.036-1.588.589-.894,1.151-1.778,1.7-2.643s1.179-1.835,1.74-2.757,1.112-1.835,1.645-2.766a1.526,1.526,0,0,0,.2-.3A365.2,365.2,0,0,0,1153.2,310.3l18.518-3.489s-13.518,22.863,4.943,24.175,42.7-27.92,42.7-27.92l.523-15.21,13.48,22.815s-.076,1.9-.209,5.39c-.409,9.506-1.378,30.534-2.852,55.764-.951,16.741-2.187,35.335-3.6,53.587-.837,10.989-1.778,21.865-2.795,32.179-.257,2.709-.532,5.371-.8,7.966-6.654,63.141,18.062,139.8,18.062,139.8,4.181,5.027,6.54,9.691,6.532,13.554Z" transform="translate(-672.712 -45.707)"/><path class="q" d="M1080.3,429.31s53.9,27.483,92.877,20.771l-25.467,40.364-49-6.75Z" transform="translate(-672.726 -52.689)"/><path class="r" d="M492.693,328.35l-64.9-130.77-99.57,60.812-4.886,7.415-10.077-1.854,77.078,113.2,10.134.713,4.183-7.767Z" transform="translate(-72.884 -9.766)"/><path class="s" d="M1272.765,381.447c-.133,17.558-22.815,48.825-47.418,77.334-8.023,9.259-16.218,18.214-23.918,26.314-31.371,32.968-85,53.017-88.894,52.1h0c-3.651-.951-4.145-13.309-4.145-13.309l.561.361,4.373,2.747,3.337,2.044a.217.217,0,0,0,.152,0h0c2.985,0,22.264-29.745,12.7-65.594L1126.8,460.6l6.483-4.9v.067l5.371,8.318a14.376,14.376,0,0,0,5.285-6.4l5.989,4.554a97.377,97.377,0,0,0,24.327-17.767,2.057,2.057,0,0,0,.247-.247,87.651,87.651,0,0,0,12.358-15.267s1.568-3.318,3.907-8.708c.237-.57.513-1.131.76-1.721.665-1.588,1.4-3.337,2.2-5.2l.219-.57c5.124-12.358,11.712-29.879,15.305-45.631a2.145,2.145,0,0,1,.076-.314c4.677-20.733,18.328-40.564,25.277-49.642,2.443-3.251,4.059-5.124,4.059-5.124S1272.964,358.194,1272.765,381.447Z" transform="translate(-674.112 -46.901)"/><path class="t" d="M1117.016,511.715h0a71.712,71.712,0,0,1-8.375,16.741s-21.161-9.24-40.877-39.252c-14.878-22.673-31.932-61.116-43.083-81.945-3.593-6.74-6.588-11.664-8.66-13.585-8.556-7.881-55.783-8.318-66.763-12.729-3.926-1.588-10.181-6.949-16.674-13.4-11.579-11.408-23.966-26.3-25.392-29.194a46.168,46.168,0,0,1-3.2-11.027c-4.81-14.155-5.048-24.346-5.048-24.346,3.8-.846,6.892,1.645,9.183,4.63-.371-.865-.589-1.464-.437-1.6a12.075,12.075,0,0,1,8.774-.665c3.717,1.331,23.243,20.914,29.546,24.232s57.124,14.811,60.518,12.529,9.877-20.277,8.755-25.068c-.865-3.726-4.211-9.506-6.455-15.115a34.51,34.51,0,0,1-1.607-4.858c-1.683-7.016,9.649-23.31,12.2-23.481a14.488,14.488,0,0,1,4.316,2.224,3.213,3.213,0,0,1,.951,1.169c.827,1.977-2.139,19.963.76,30.335s13.195,22.283,14.64,32.8-4,35.849-3.223,38.815,9.107,21.732,34.527,42.674,47.684,37.179,47.684,37.179a87.505,87.505,0,0,1-2.053,52.941Z" transform="translate(-663.773 -45.002)"/><path class="u" d="M1242.593,605.354c4.379,5.3,6.527,9.319,6.337,13.293h-30.559l-34.85-36.764,28.519,5.3-6.4-70.613c-11.18,24.279-49.918,52.57-49.918,52.57-12.453-5.3-45.839-14.887-45.839-14.887l.484-2.32.228-1.179s2.446-7.613,1.883-14.633c-3.553-.2-4.136-13.449-4.136-13.449l.561.361,4.373,2.662,3.489,2.167h0l2.139,1.321s12.653-7.339,17.929-28.776c5.171-20.867-3.128-44.556-3.565-45.773l5.371,8.318,5.856,22.492c4-19.612-.57-28.89-.57-28.89l5.989,4.553s22.036,10.78,44.937-.047c14.06-6.654,25.078-20.971,33.272-35.658a210.22,210.22,0,0,0,17.587-43.311c-1.587-4.249-7.425-7.691-13.984-10.276a127.051,127.051,0,0,0-22.435-6.122,2.129,2.129,0,0,0-.076.314c-.875,2.928-8.1,26.8-15.306,45.631l-.218.57c-.7,1.816-1.417,3.536-2.2,5.2-.247.589-.523,1.15-.76,1.721a87.926,87.926,0,0,1-16.218,23.975,1.429,1.429,0,0,0-.247.247c8.375-14.041,15.99-63.873,15.99-63.873l-38.025-17.159-19.555-8.812a1.513,1.513,0,0,1-.2.3c-.532.951-1.084,1.844-1.645,2.766s-1.15,1.835-1.74,2.757-1.112,1.749-1.7,2.643c-.352.532-.713,1.055-1.036,1.588-5.333,7.881-10.894,15.372-11.408,16l10.571-17.777-2.947-40.117.152-.1c14.383-9.659,31.865-11.265,31.865-11.265l18.519-3.489s-11.647,20.985,2.466,23.935c19.118,3.337,45.18-27.681,45.18-27.681l.523-15.21,13.48,22.815s-.076,1.9-.209,5.39c2.443-3.251,4.059-5.124,4.059-5.124s34.318,46.068,34.118,69.321c-.133,17.558-22.815,48.825-47.418,77.334-.257,2.709-.532,5.371-.8,7.966C1217.829,528.695,1242.593,605.354,1242.593,605.354Z" transform="translate(-674.057 -45.707)"/><path class="v" d="M1289.294,272.773c-1.9,22.435-14.459,33.272-21.789,37.778a30.191,30.191,0,0,1-5.3,2.681s-16.208,14.412-33.51,21.646a57.911,57.911,0,0,1-7.3,2.538c1.265-.58,8.461-4.839,2.852-24.926-5.466-19.726-7.843-32.987-2.691-77-3.622,24.5-12.643,71.3-31.248,94.531.513-1.065,10.144-20.867,10.2-51.952.114-31.989,14.821-80.652,9.64-120.351a.086.086,0,0,0,0-.057c-.533-1.055-9.725-18.376-36.172-27.645-27.341-9.554-71.612-44.832-71.612-44.832s-21.741,17.511-25.772,38.662,8.556,41.239,8.556,41.239l7.244,20.1c-.685-1.074-11.531-18.709-26.542-41.3-15.5-23.329-14.107-36.124,19.726-59.89,26.779-18.842,47.446-56.734,100.445-48.15,23.433,3.8,39.927,13.765,51.467,28.985h0a3.018,3.018,0,0,0,.209.342.688.688,0,0,1,.1.181c14.4,19.2,21.152,46.581,24.422,80.586,3.736,38.719,14.554,66.278,21.351,89.36a.363.363,0,0,0,.057.086C1287.7,248.95,1290.311,260.947,1289.294,272.773Z" transform="translate(-671.543 -33.206)"/><path class="w" d="M888.15,216.445,904.767,210s17.007,40.469,13.87,69.34c0,0,55.422-53.521,78.779-59.89l13.128,14.839L918.58,290.453l-3.308,5.01-6.883-.713,6.655-6.122S895.945,234.184,888.15,216.445Z" transform="translate(-663.241 -41.864)"/><path class="x" d="M1128.54,150.37a52.477,52.477,0,0,0,16.9,4.344s2.006,0,16.275-3.888,24.46-1.34,24.46-1.34-11.684-7.111-21.2-6.151S1139.777,151.768,1128.54,150.37Z" transform="translate(-675.107 -38.569)"/><path class="y" d="M1103.216,87.84a55.28,55.28,0,0,0-28.709,31.371c-5.124,14.364,10.457,44.737,10.457,44.737S1068.86,110.4,1103.216,87.84Z" transform="translate(-672.389 -35.834)"/><path class="z" d="M1155.87,191.846s6.768,10.457,15.676,10.562S1191.205,189.26,1193,181.75C1193,181.75,1172.62,193.215,1155.87,191.846Z" transform="translate(-676.456 -40.469)"/><path class="aa" d="M1102.21,201.023s4.687,11.911,10.8,11.969,6.3-16.541,6.3-16.541S1110.718,200.69,1102.21,201.023Z" transform="translate(-673.807 -41.195)"/><path class="ab" d="M1155.313,189.983l-4.753,6.17s26.922-2.025,42.161-14.4c0,0-14.069,7.006-37.132,10.1Z" transform="translate(-676.194 -40.469)"/><path class="ac" d="M1174.419,191.81s2.709,8.328,0,10.714-10.666-.171-15.809-6.873Z" transform="translate(-676.591 -40.966)"/><path class="ad" d="M1103.57,204s4.164,9.573,9.507,9.164.95-13.176.95-13.176A84.354,84.354,0,0,1,1103.57,204Z" transform="translate(-673.874 -41.37)"/><path class="ab" d="M1118.9,196.45s-11.9,9.145-25.1,8.67l7.548-5.884.447,1.787S1112.138,199.977,1118.9,196.45Z" transform="translate(-673.392 -41.195)"/><path class="x" d="M1084.611,164.159a4.915,4.915,0,0,1,4.3-5.542c4.981-.951,19.84,9.953,19.84,9.953s-17.691-21.522-23.081-20.572-2.662,9.231-2.662,9.231Z" transform="translate(-672.825 -38.802)"/><path class="ae" d="M1113.19,227.1a31.278,31.278,0,0,0,15.106-1.559c7.482-2.928,10.609-5.98,10.609-5.98s-3.907,10.086-9.991,13.309C1116.327,233.658,1114.34,230.749,1113.19,227.1Z" transform="translate(-674.349 -42.336)"/><path class="af" d="M1128.794,232.152s-16.361,3.2-17.929-4.173c-1.141-5.39,8.128-14.592,9.421-22.549,0,0,.1,3.584-2.995,10.1s-4.687,8.394-4.221,10.875S1117.139,231.639,1128.794,232.152Z" transform="translate(-674.23 -41.638)"/><path class="ag" d="M1132.386,250.131s-1.1,6.588,4.753,8.1,19.013-5.343,30.211-18.87a167.042,167.042,0,0,1-18.927,4.107C1137.719,245.168,1132.386,250.131,1132.386,250.131Z" transform="translate(-675.293 -43.313)"/><path class="ah" d="M1136.909,227.349a3.146,3.146,0,0,1-.114-3.489c1.064-2.167,5.276-2.205,6.5-4.05A19.7,19.7,0,0,1,1136.909,227.349Z" transform="translate(-675.491 -42.348)"/><path class="ai" d="M1132.276,250.02s-6.132-4.554,2.1-7.852,19.545-1.283,25.591-1.9a24.1,24.1,0,0,0,9.83-3.156s-1.046,3.8-20.1,7.881C1134.833,248.156,1132.276,250.02,1132.276,250.02Z" transform="translate(-675.183 -43.202)"/><path class="aj" d="M1217.049,160.85s-3.289-46.7-19.412-63.36c0,0,2.281,21.694-2.187,30.839C1195.45,128.329,1216.051,148.045,1217.049,160.85Z" transform="translate(-678.41 -36.31)"/><path class="ak" d="M1275.188,267.356c3.442,20.838,2.348,35.506.494,44.794a30.179,30.179,0,0,1-5.3,2.681s-16.209,14.412-33.51,21.646a85.446,85.446,0,0,0,12.121-29.793c5.362-25.943-6.483-93.514-5.324-118.972,0,0-9.877,17.92-11.892,33.6,0,0,2.282-33.054,1.9-70.946-.361-35.544-11.3-56.04-12.644-58.407,1.607,2.386,14.079,21.713,22.91,52.618a121.035,121.035,0,0,0,7.491-44.88c-.533-21.7-4.268-30.525-5.39-32.692,14.4,19.2,21.152,46.581,24.422,80.586,3.736,38.719,14.554,66.278,21.351,89.36-1.065-1.711-18.062-29.413-24.317-47.532a654.011,654.011,0,0,0,7.69,77.943Z" transform="translate(-679.673 -34.805)"/><path class="al" d="M1103.491,86.39s11.636-15.667,21.209-27.92a167.119,167.119,0,0,0-20.353,13.309c-10.79,8.2-25.3,36.847-25.3,36.847S1094.07,89.394,1103.491,86.39Z" transform="translate(-672.664 -34.384)"/><path class="am" d="M1137.94,65.18s37.493-5.827,52.456,27.473C1190.4,92.653,1161.478,70.969,1137.94,65.18Z" transform="translate(-675.571 -34.696)"/><path class="an" d="M1117.471,511.832h0s-2.072-31.038-30.04-60.841c-20.828-22.188-49.157-37.341-62.267-43.625-3.594-6.74-6.588-11.664-8.66-13.585-8.556-7.881-55.784-8.318-66.763-12.729-3.926-1.588-10.181-6.949-16.674-13.4l-19.013-30.42c5.266,7.757,26.741,26.124,26.741,26.124a50.126,50.126,0,0,0-.627-9.611c-.789-3.593-19.593-26.494-20.753-27.949L940.235,346c3.4-3.66,2.633-11.712,2.633-11.712-8.147-13.4-34.708-28.139-34.708-28.139a12.075,12.075,0,0,1,8.774-.665c3.717,1.331,23.243,20.914,29.546,24.232S1003.6,344.529,1007,342.247s9.877-20.277,8.755-25.068c-.865-3.727-4.211-9.507-6.455-15.115,1.588.485,3.441.238,5.428-1.569,4.753-4.373,8.347-19.241,9.506-24.546a3.215,3.215,0,0,1,.951,1.169c.827,1.977-2.139,19.963.76,30.335s13.195,22.283,14.64,32.8-4,35.849-3.223,38.815,9.107,21.732,34.527,42.674,47.684,37.179,47.684,37.179A87.505,87.505,0,0,1,1117.471,511.832Z" transform="translate(-664.229 -45.119)"/><path class="ao" d="M980.776,382.647s-25.667-2.738-34.66-6.873-38.12-34.442-40.944-43.4-1.7-12.938-1.7-12.938-4.981-13.946-3.47-16.665,6.892,1.645,6.892,1.645l1.074-2.1-5.058-6.341,8.48-7.605-33.149-74.8,5.609-2.148,3.6,4.962-3.8-7.89-9.639,4.753,30.3,63.816s-7.843-2.415-9.136.6,6.265,22.368,6.265,22.368a8.75,8.75,0,0,0-3.679-.219c-1.245.418.789,10.5,4.021,21.152,0,0,.352,12.235,2.205,17.463s30.516,38.026,41.391,41.828C958.332,384.843,980.776,382.647,980.776,382.647Z" transform="translate(-662.543 -41.79)"/><path class="ap" d="M1082.734,316.05s10.457-36.181,8.242-95.805c-2.548-68.2-27.141-79.169-28.947-96.718-1.9-18.652,31.884-38.976,31.884-38.976s22.815-37.683,63.617-46.448c45.631-9.782,82.021,26.732,87.278,38.14,0,0-22.6-49.119-82.05-42.494-46.315,5.162-65.08,41.9-73.665,47.636-9.1,6.075-33.12,23.566-32.655,39.927s14.2,30.63,19.707,45.165C1089.094,200.642,1095.625,270.181,1082.734,316.05Z" transform="translate(-671.548 -33.133)"/></g></svg>