<svg xmlns="http://www.w3.org/2000/svg" xmlns:xlink="http://www.w3.org/1999/xlink" width="510" height="480" viewBox="0 0 510 480"><defs><style>.a,.ap,.av,.bj{fill:#fff;}.a{stroke:#707070;}.b{clip-path:url(#a);}.bc,.c,.d,.e,.x{fill:#ffe2ac;}.aa,.ac,.ae,.af,.ag,.am,.an,.ao,.ap,.aq,.ar,.as,.at,.au,.av,.aw,.ax,.ay,.az,.bb,.bd,.bj,.bt,.bu,.bv,.bw,.bx,.c,.e,.f,.g,.h,.j,.k,.l,.m,.n,.o,.p,.q,.r,.s,.t,.u,.v{fill-rule:evenodd;}.e,.o{opacity:0.6;}.bx,.f{fill:#be662a;}.f{opacity:0.71;}.aa,.ac,.ae,.af,.al,.an,.ao,.au,.aw,.az,.ba,.bb,.bc,.bd,.bq,.bu,.bw,.bx,.f,.o,.p{mix-blend-mode:multiply;}.aa,.ac,.ae,.af,.al,.an,.ao,.au,.av,.aw,.az,.ba,.bb,.bc,.bd,.bj,.bq,.bu,.bw,.bx,.f,.o,.p,.q,.x{isolation:isolate;}.g{fill:url(#b);}.h{fill:url(#c);}.i{fill:#603f80;}.j{fill:url(#d);}.k{fill:url(#e);}.l{fill:#404040;}.m{fill:url(#f);}.n{fill:#595959;}.o{fill:#585858;}.p{fill:#999;}.q{fill:#fbf9fa;opacity:0.35;}.av,.bj,.q,.x{mix-blend-mode:soft-light;}.r{fill:url(#g);}.s{fill:url(#h);}.t{fill:url(#i);}.u{fill:url(#j);}.v{fill:url(#k);}.w{fill:url(#l);}.y{fill:#591527;}.z{fill:#f1817b;}.aa,.bd{fill:#7c0477;}.aa{opacity:0.61;}.ab{fill:#ffa584;}.ac,.ae,.af,.al,.an,.aw,.bb{opacity:0.58;}.ac{fill:url(#m);}.ad{fill:url(#n);}.ae{fill:url(#o);}.af{fill:url(#p);}.ag{fill:#ab0540;}.ah{fill:#de676c;}.ai{fill:#752a27;}.aj{fill:#e4dbff;}.ak{fill:#6b2430;}.al{fill:url(#q);}.am{fill:#a64a4c;}.an{fill:url(#r);}.ao,.bd{opacity:0.3;}.ao{fill:url(#s);}.aq{fill:#d34c4c;}.ar{fill:#a63b4c;}.as{fill:#7c2f38;}.at,.au{fill:#680463;}.at,.au,.az,.ba{opacity:0.4;}.av,.bl,.bm,.bs{opacity:0.5;}.aw{fill:url(#t);}.ax{fill:#44315b;}.ay{fill:url(#u);}.az{fill:#900477;}.ba{fill:#600445;}.bb{fill:url(#v);}.be{fill:url(#w);}.bf{fill:#737a93;}.bg{fill:#2c3248;}.bh{fill:#0b0f1e;}.bi,.bq{fill:#2f0a4c;}.bk{fill:#c0cdff;}.bl{fill:url(#x);}.bn{fill:url(#y);}.bo{fill:#343d64;}.bp{fill:#20263e;}.bq{opacity:0.66;}.br{fill:url(#z);}.bs{fill:#292929;}.bt{fill:url(#aa);}.bu{fill:#814f1c;}.bv{fill:#9b6025;}.bw{fill:#a64340;}.bw,.bx{opacity:0.31;}</style><clipPath id="a"><rect class="a" width="510" height="480" transform="translate(0 -22.764)"/></clipPath><radialGradient id="b" cx="-0.522" cy="0.472" r="0.644" gradientTransform="matrix(-0.806, 0, 0, 0.732, -409.291, 1.688)" gradientUnits="objectBoundingBox"><stop offset="0" stop-color="#8177a1"/><stop offset="0.98" stop-color="#775ba3"/></radialGradient><linearGradient id="c" x1="-551.206" y1="0.5" x2="-550.212" y2="0.5" gradientUnits="objectBoundingBox"><stop offset="0" stop-color="#ebd7e3"/><stop offset="0.98" stop-color="#bdafd2"/></linearGradient><linearGradient id="d" x1="-48.243" y1="1" x2="-48.243" y2="0" xlink:href="#c"/><radialGradient id="e" cx="-115.212" cy="7.976" r="2.201" gradientTransform="translate(0.257) scale(0.487 1)" xlink:href="#b"/><linearGradient id="f" x1="-27.46" y1="1.219" x2="-27.46" gradientUnits="objectBoundingBox"><stop offset="0" stop-color="#4f4f4f"/><stop offset="1" stop-color="#151515"/></linearGradient><radialGradient id="g" cx="-0.365" cy="0.549" r="0.573" gradientTransform="matrix(-0.903, 0, 0, 0.824, -460.753, 0.727)" xlink:href="#b"/><linearGradient id="h" x1="-587.635" y1="0.5" x2="-586.64" y2="0.5" xlink:href="#c"/><linearGradient id="i" x1="-77.484" y1="3.547" x2="-77.484" y2="0" xlink:href="#c"/><linearGradient id="j" x1="-51.501" y1="1" x2="-51.501" y2="0" xlink:href="#c"/><radialGradient id="k" cx="0.212" cy="3.648" r="3.326" gradientTransform="matrix(-0.419, 0, 0, 0.824, -175.682, 1.305)" xlink:href="#b"/><radialGradient id="l" cx="0.5" cy="0.5" r="13.033" gradientTransform="translate(4.954) scale(0.027 1)" gradientUnits="objectBoundingBox"><stop offset="0" stop-color="#fff"/><stop offset="0.98" stop-color="#e4e6ff"/></radialGradient><linearGradient id="m" x1="34.066" y1="1" x2="34.066" gradientUnits="objectBoundingBox"><stop offset="0" stop-color="#ffeadb"/><stop offset="0.99" stop-color="#c245ba"/></linearGradient><linearGradient id="n" x1="21.148" y1="1" x2="21.148" gradientUnits="objectBoundingBox"><stop offset="0.01" stop-color="#792c27"/><stop offset="0.99" stop-color="#70132f"/></linearGradient><linearGradient id="o" x1="-77.253" y1="34.022" x2="-77.253" y2="33.061" xlink:href="#m"/><linearGradient id="p" x1="-138.118" y1="56.058" x2="-138.118" y2="55.038" xlink:href="#m"/><linearGradient id="q" x1="-53.54" y1="109.558" x2="-52.492" y2="109.558" xlink:href="#m"/><linearGradient id="r" x1="-377.066" y1="169.091" x2="-375.929" y2="169.091" xlink:href="#m"/><linearGradient id="s" x1="-88.641" y1="193.714" x2="-87.57" y2="193.714" xlink:href="#m"/><linearGradient id="t" x1="49.981" y1="1" x2="49.981" gradientUnits="objectBoundingBox"><stop offset="0.01" stop-color="#c245ba"/><stop offset="1" stop-color="#ffeadb"/></linearGradient><linearGradient id="u" x1="521.283" y1="0.994" x2="521.283" y2="0.001" gradientUnits="objectBoundingBox"><stop offset="0.05" stop-color="#ff3164"/><stop offset="0.98" stop-color="#ff406a"/></linearGradient><linearGradient id="v" x1="45.46" y1="0.5" x2="46.46" y2="0.5" xlink:href="#t"/><linearGradient id="w" x1="16.516" y1="1.652" x2="16.516" y2="0.652" gradientUnits="objectBoundingBox"><stop offset="0" stop-color="#163063"/><stop offset="1" stop-color="#192555"/></linearGradient><linearGradient id="x" x1="45.208" y1="1.293" x2="45.867" y2="1.293" gradientUnits="objectBoundingBox"><stop offset="0" stop-color="#d3d3ff"/><stop offset="1" stop-color="#6552ab"/></linearGradient><linearGradient id="y" x1="22.416" y1="0.5" x2="23.32" y2="0.5" xlink:href="#x"/><linearGradient id="z" x1="63.969" y1="10.702" x2="64.97" y2="10.702" gradientUnits="objectBoundingBox"><stop offset="0" stop-color="#5e4793"/><stop offset="1" stop-color="#6a599f"/></linearGradient><radialGradient id="aa" cx="0.458" cy="0.499" r="14.325" gradientTransform="matrix(-0.027, 0, 0, 1.88, -1.526, 1.51)" gradientUnits="objectBoundingBox"><stop offset="0" stop-color="#ea901a"/><stop offset="0.02" stop-color="#ea901a"/><stop offset="1" stop-color="#d68436"/></radialGradient></defs><g transform="translate(-0.275 22.792)"><g class="b" transform="translate(0.275 -0.028)"><g transform="translate(-393.469 -22.256)"><g transform="translate(0 0.005)"><path class="c" d="M505.9,371.9l-16.939-.849s-8.185,7.495-3.648,17.709H504.9Z" transform="translate(175.337 62.54)"/><path class="c" d="M496.006,380.127c-.279,4.656,1.937,8.423,4.948,8.423s5.691-3.767,5.969-8.423-1.95-8.437-4.961-8.437S496.3,375.471,496.006,380.127Z" transform="translate(179.267 62.749)"/><path class="d" d="M446.775,416.672c1.592-13.623,3.528-22.816,3.528-22.816,31.425-17.457,66.591-19.99,66.591-19.99l3.781-2.176c-50,3.542-79.683,22.166-79.683,22.166-1.088,8.118-1.817,15.706-2.282,22.816Z" transform="translate(160.567 62.749)"/><path class="c" d="M530.408,371.9l-16.939-.849s-52.822.385-104.569,23.148l41.825-.133S472.347,379.871,530.408,371.9Z" transform="translate(150.833 62.54)"/><path class="c" d="M449.226,411.216c.305-7.057.783-14.592,1.5-22.816l-41.825.133s1.074,9.286,3.515,22.683Z" transform="translate(150.833 68.205)"/><path class="c" d="M490.078,465.675H677.116c10.758-33.587,21.33-79.153,17.868-121.495,0,0-16.117-62.784,5.027-119.731,0,0-107.447-6.394-209.35,0,0,0-32.526,69.217,7.959,116.255C498.674,340.7,496.843,406.1,490.078,465.675Z" transform="translate(173.494 13.745)"/><path class="e" d="M493.9,311.39s102.632,9.723,196.323,3.475c0,0-107.076,17.4-197.292,12.058Z" transform="translate(178.27 43.06)"/><path class="c" d="M487.66,225.34S601.78,209.754,699.026,227l-1.459.637S590.478,215.338,487.66,225.34Z" transform="translate(176.549 12.855)"/><path class="c" d="M630,464.424h1.671c9.617-28.1,19-68,21.118-120.009,0,0-18.292-38.575-1.724-118.975,0,0-18.77,52.994-1.207,119.492C649.9,344.932,650.707,402.051,630,464.424Z" transform="translate(223.024 14.997)"/><path class="c" d="M650.464,371.514l-8.277-.464s-8.238,8.423-3.781,19.9h10.506C643.725,385.774,644.242,375.759,650.464,371.514Z" transform="translate(225.337 62.54)"/><path class="d" d="M600.277,416.368c1.526-12.138,3.051-19.977,3.051-19.977,22.086-13.729,45.937-19.234,58.273-21.3a11.309,11.309,0,0,1,1.724-2.467C619.671,378.4,594,396.391,594,396.391c-.875,7-1.539,13.65-2.043,19.977Z" transform="translate(210.604 63.052)"/><path class="c" d="M675,371.514l-8.277-.464s-52.822.438-104.794,26l41.825-.146s18.929-13.875,68.687-23.015A10.693,10.693,0,0,1,675,371.514Z" transform="translate(200.799 62.54)"/><path class="f" d="M602.428,410.517c.345-6.3.8-12.933,1.327-19.977l-41.825.146s.769,7.866,2.494,19.9Z" transform="translate(200.799 68.903)"/><path class="g" d="M504.058,373.759l-16.94-.849s-8.2,7.495-3.661,17.709h19.592Z" transform="translate(174.73 63.147)"/><path class="h" d="M494.156,381.973c-.279,4.656,1.95,8.437,4.961,8.437s5.677-3.781,5.956-8.437-1.937-8.423-4.948-8.423S494.434,377.317,494.156,381.973Z" transform="translate(178.662 63.356)"/><path class="i" d="M445.178,416.065c1.526-12.257,3.237-20.349,3.237-20.349,31.425-17.457,66.591-19.991,66.591-19.991l3.781-2.175c-50.009,3.542-79.7,22.166-79.7,22.166-.955,7.19-1.645,13.955-2.109,20.349Z" transform="translate(160.002 63.356)"/><path class="j" d="M528.561,373.759l-16.939-.849s-52.835.385-104.582,23.134l41.825-.119S470.5,381.718,528.561,373.759Z" transform="translate(150.226 63.147)"/><path class="k" d="M447.5,410.609c.305-6.354.756-13.119,1.326-20.349L407,390.379s.955,8.145,3.077,20.229Z" transform="translate(150.213 68.812)"/><path class="l" d="M654.161,465.436c35.192-121.853,25.867-241.6,25.867-241.6-16.4-4.59-26.782,2.839-26.782,2.839l-25.6,12.933-13.5,225.825Z" transform="translate(217.846 13.985)"/><path class="m" d="M488.477,465.068H676.125c10.479-33.335,20.468-77.72,17.085-119.041,0,0-16.117-62.77,5.027-119.717,0,0-107.447-6.394-209.336,0,0,0-32.526,69.217,7.959,116.242C496.781,342.551,495.017,406.171,488.477,465.068Z" transform="translate(172.92 14.353)"/><path class="n" d="M694.062,232.52s-132.651-9.458-208.262-3.064a289.532,289.532,0,0,1,44-11.939c21.861-3.781,137.837-8.888,192.118,9.073C721.932,226.617,704.7,226.71,694.062,232.52Z" transform="translate(175.942 11.206)"/><path class="o" d="M492.038,313.24s102.632,9.723,196.323,3.475c0,0-107.076,17.417-197.292,12.058Z" transform="translate(177.663 43.664)"/><path class="p" d="M485.81,227.206s114.08-15.6,211.379,1.592l-1.472.65S588.628,217.191,485.81,227.206Z" transform="translate(175.945 13.456)"/><path class="q" d="M554.41,214.044s11.554,7.336,38.071,8.344a139.085,139.085,0,0,0,46.706-6.1S604.711,211.391,554.41,214.044Z" transform="translate(198.344 11.019)"/><path class="p" d="M628.78,463.816h1.711c9.286-27.95,18.213-67.042,20.269-117.542,0,0-18.279-38.588-1.724-118.975,0,0-18.757,52.981-1.207,119.492C647.829,346.792,648.625,402.412,628.78,463.816Z" transform="translate(222.626 15.604)"/><path class="r" d="M657.265,373.865l-16.926-.955s-8.251,8.423-3.794,19.9h19.606Z" transform="translate(224.73 63.147)"/><path class="s" d="M647.307,383.1c-.305,5.226,1.884,9.471,4.895,9.471s5.7-4.245,6.022-9.471-1.884-9.471-4.895-9.471S647.625,377.875,647.307,383.1Z" transform="translate(228.666 63.382)"/><path class="t" d="M598.69,416.039c1.406-10.731,2.653-17.51,2.653-17.51,31.624-19.606,66.829-22.458,66.829-22.458l3.794-2.441c-50.023,3.979-79.856,24.9-79.856,24.9-.756,6.1-1.327,11.939-1.831,17.51Z" transform="translate(210.055 63.382)"/><path class="u" d="M681.8,373.865l-16.926-.955s-52.835.424-104.794,26l41.811-.146S623.646,382.819,681.8,373.865Z" transform="translate(200.195 63.147)"/><path class="v" d="M600.7,409.91c.318-5.558.73-11.381,1.234-17.51l-41.812.146s.65,6.792,2.136,17.364Z" transform="translate(200.208 69.511)"/><rect class="w" width="477.989" height="26.716" transform="translate(412.364 443.684)"/><path class="x" d="M627.243,247.466s-29.077-28.759-42.369-57.743c-12.88-28.188-31.664-57.265-35.816-74.709l-.318-1.326s-15.255-2.175-47.237-7.614-55.713-2.892-65.4,7.76a24.063,24.063,0,0,0-21.3,8.264c-8.9,10.612,13.663,68.408,10.612,114.08-.876,13.663-1.552,26.185-1.751,37.209h0c-.517,25.668,1.326,43.417,7.707,49.93-1.247-.411-21.158-7.707-21.476-32.844-.146-12.217,4.4-24.58,7.813-40.313,3.834-17.8,6.208-39.941-1.327-71.247-7.4-30.576-9.829-43.775-8.6-55.979a64.774,64.774,0,0,1,1.711-9.365,30.418,30.418,0,0,1,3.422-7.866h0c7.667-12.363,25.615-25.456,45.844-41.122,1.817-1.327,3.621-2.8,5.492-4.192a36.39,36.39,0,0,1,4.391-3.1h0a18.779,18.779,0,0,1,2.016-1.247h0c26.53-15.918,62.2-12.947,73.78-7.256,3.9,1.778,9.644,10.095,16.276,21.834h0l1.194,2.229c3.409,6.155,6.977,13.265,10.612,20.64l.146.265c12.734,26.238,25.721,57.995,32.088,78.543C616.8,211.067,627.243,247.466,627.243,247.466Z" transform="translate(150.37 -44.172)"/><path class="y" d="M420.786,278.8a345.819,345.819,0,0,1,5.306-47.051c4.908-27.7,4.484-36.214,4.484-36.214s12.774,103.958,51.23,131.444c0,0,101.717-10.28,117.913-37.315a280.4,280.4,0,0,0,24.54-53.83s-25.31-49.2-46.428-98.162S472.161,74.106,442.54,81.985s-35.033,21.3-35.537,37.7,13.265,53.909,12.138,94.806S420.786,278.8,420.786,278.8Z" transform="translate(150.21 -32.499)"/><path class="z" d="M546.3,129.965s7.548,30.51,22.882,53.18,38.349,37.7,38.349,37.7S578,238.739,535.41,250.571s-64.641,11.5-71.99,0c0,0,4.789-17.245,11.5-23.652s54-16.449,57.358-24.129-6.818-28.692-6.818-28.692S526.92,123.134,546.3,129.965Z" transform="translate(168.635 -16.382)"/><path class="aa" d="M514.289,183.825s21.33,1.406,22.644-35.351l-5.9-18.664L510.19,173.943Z" transform="translate(183.905 -16.227)"/><path class="ab" d="M557.2,172.16c-5.664,12.138-25.5,30.43-36.97,39.729a3.124,3.124,0,0,0-.292.279.264.264,0,0,0-.066.066,84.309,84.309,0,0,1-6.792,5.094c-6.367,3.98-15.308,4.683-17.669,3.807s-36.426-1.884-43.244-11.939c-5.306-7.959-4.377-22.166-4.683-31.372a28,28,0,0,0-.65-6.1c-1.91-7.256-24.076-40.074-23.638-53.06.371-11.236,11.607-43.682,36.054-52.317a35.724,35.724,0,0,1,12.31-2.229,91.848,91.848,0,0,1,34.277,5.81C526.911,77.885,535.878,91.4,535.878,91.4s1.658,3.741,4.046,9.684c4.895,12.111,12.986,33.322,16.595,49.983C558.482,160.221,559.159,167.981,557.2,172.16Z" transform="translate(155.498 -37.685)"/><path class="ac" d="M557.2,171.579c-5.664,12.138-25.5,30.43-36.97,39.729,3.515-3.568,31.345-32.446,26.318-48.869-5.306-17.576-21.927-29.183-21.927-29.183-10.864,23.413-35.816,32.155-35.816,32.155-11.713-6.818-22.736-34-22.736-34s-11.779-3.276-18.823,1.844c-7.959,5.744-2.653,13.265-2.653,13.265,16.29,19.9,11.5,39.53,9.166,39.8-1.99.2-5.306-6.911-6.3-8.967a28,28,0,0,0-.65-6.1c-1.91-7.256-24.076-40.074-23.638-53.06.371-11.236,11.607-43.682,36.055-52.318l46.587,3.582c21.078,7.959,30.045,21.476,30.045,21.476s1.658,3.741,4.046,9.684c-.371,7.76-.2,15.586,1.021,21.224,3.436,15.918,15.573,28.772,15.573,28.772C558.489,159.641,559.165,167.4,557.2,171.579Z" transform="translate(155.491 -37.104)"/><path class="ab" d="M462.558,371.361a32.5,32.5,0,0,1-11.939-6.1h0c-33.428-25.456-73.21-116.627-80.506-130.595-6.115-11.753-30.735-23.24-44.345-28.414-.73-.305-1.393-.517-2.016-.716a43.2,43.2,0,0,0-6.725-2.122.159.159,0,0,0-.106,0,20.243,20.243,0,0,1-7.813-3.1c-10.7-16.82-24.116-23.439-24.938-24.686s1.141-3.674,1.141-3.674c5.425-2.428,11.169.464,11.169.464l-3.462-4.444h0l-7.681-9.723-.464-4.457c-1.751-3.834,0-8.795,0-8.795,11.753.57,21.94,7.707,29.183,14.592a87.686,87.686,0,0,1,11.289,13.451L342.589,185.5l2.547-1.141s-11.859-15.626-13.928-22.551c-.106-.358-.2-.716-.358-1.128-2.335-7.72-8.384-26.53-7.455-28.772a4.271,4.271,0,0,1,3.21-2.653c11.076,2.534,14.074,18.783,15,26.53.159,1.141.265,2.122.318,2.852.464,5.306,3.98,17.125,13.557,20.946.982.424,2.069.836,3.2,1.327h0c9.737,3.781,23.294,8.742,23.294,8.742s1.91-5.306.982-9.418-4.974-7.959-4.656-12.31,9.4-14.8,15.2-15.918,12.111,1.87,12.111,3.834-8.437,11.182-11.023,17.444-2.733,9.1-2.733,12.721,8.171,14.379,7.707,19.818-9.63,12.31-10.4,16.3a17.112,17.112,0,0,0,1.035,8.423c15.732,39.636,55.209,62.041,68.607,69.085C471.9,306.508,472.07,315,472.07,315.409,477.681,359.25,462.558,371.361,462.558,371.361Z" transform="translate(110.042 -16.407)"/><path class="ad" d="M624.9,247.479s-29.09-28.759-42.382-57.743c-12.88-28.188-31.664-57.265-35.816-74.709l-.318-1.327s-15.242-2.242-47.237-7.68-55.713-2.892-65.4,7.76a24.063,24.063,0,0,0-21.317,8.33c-8.9,10.612,13.663,68.408,10.612,114.08-.889,13.663-1.552,26.185-1.764,37.209h0c-.517,25.668,1.326,43.417,7.707,49.93-1.247-.411-21.224-7.707-21.476-32.844-.146-12.217,4.4-24.58,7.813-40.313,3.834-17.8,6.208-39.941-1.326-71.247-7.4-30.576-9.829-43.775-8.6-55.979a64.782,64.782,0,0,1,1.605-9.418,30.421,30.421,0,0,1,3.422-7.866h0c7.654-12.363,25.6-25.456,45.844-41.122,1.8-1.327,3.621-2.8,5.478-4.192a37.478,37.478,0,0,1,4.391-3.1h0A17.707,17.707,0,0,1,468.176,56h0c26.53-15.918,62.2-12.947,73.794-7.256,3.767,1.817,9.564,10.148,16.183,21.887h0l1.194,2.229c3.409,6.155,6.991,13.265,10.612,20.64l.146.265c12.734,26.238,25.721,57.995,32.088,78.543C614.45,211.08,624.9,247.479,624.9,247.479Z" transform="translate(149.593 -44.185)"/><path class="y" d="M499.65,94.71s13.769,11.7,18.08,24.806c0,0-2.547-12.947-.8-22.551Z" transform="translate(180.464 -27.688)"/><path class="ab" d="M511.63,113.478s1.035-18.041,11.037-26.729c0,0,9.9-3.051,16.157,1.658,9.286,7.017,13.371,27.14,8.742,40.512s-20.747,18.266-25.2,14.592S511.63,113.478,511.63,113.478Z" transform="translate(184.376 -30.604)"/><path class="ae" d="M517.34,126.469S522.447,91.29,529.7,89.327s13.384,11.7,15.626,19.8-2.958,18.08-2.958,18.08,3.674-10.44,1.234-18.107-8.039-12.8-10.095-12.933-7.72,7.2-7.176,8.795,6.314,5.969,8.052,11.939-5.306,13.915-7,13.743-3.608-8.649-4.988-8.888S517.34,126.469,517.34,126.469Z" transform="translate(186.24 -29.508)"/><path class="af" d="M521.809,100.54s9.418,5.8,11.408,12.35-3.648,12.323-5.4,12.509-3.98-7.521-5.306-8.211-4.8,2.653-4.8,2.653S520.509,104.825,521.809,100.54Z" transform="translate(186.361 -25.784)"/><path class="y" d="M428.186,96.719s-5.717,11.806-3.754,17.563c0,0-5.306-7.216.7-17.762Z" transform="translate(155.199 -27.097)"/><path class="ag" d="M717.145,404.821l6.274-3.887-.066-.066c-.279-.637-2.772-5.425-14.035-10.188-9.989-4.205-26.875-8.4-55.249-9.538l-2.759,1.685s-2.335-8.224-2.03-9.378,4.789-.769,4.789-.769-7.654-10.864-7.654-12.96a1.592,1.592,0,0,1,.544-1.048c1.645-1.711,6.473-3.263,6.473-3.263s-4.046-31.571-25.2-52.012c0,0-18.744,92.962-13.623,138.288,0,0,8.092,9.551,3.409,14.233,0,0-54.573-8.967-85.334-25.2s-42.7-25.535-42.7-25.535.836-7.243,3.608-8.33,7.455,1.486,7.455,1.486,13.663-16.4,22.8-19.792l-.305-.345c-1.326-1.419-6.951-7.322-7.15-8.6-.212-1.486.637-9.577.637-9.577l-16.117-28.586s-18.889-6.818-20.508-17.51c0,0-35.816,28.162-45.539,34.582s-20.11,15.918-20.043,2.016l5.027,1.791s12.827-20.508,8.33-60.476l-3.263-4.789s.093-.279.305-.743c.677-1.592,2.295-5.16,3.5-6.036,1.592-1.114,9.577,2.149,14.207.4s23.877-38.349,25.5-40.379,14.468-29.125,22.38-33.67c6.735-3.873,52.7-18.939,52.7-18.939s21.383,18.433,67.45,4.683c3.774-2.245,14.035-5.492,16.9-4.855l.345.172c2.321,1.817-.345,17.165-.345,17.165s16.94,10.758,19.5,15.586,5.425,19.9,5.425,19.9,74.139,130.568,73.2,151.315C725.979,391.662,737.109,400.1,717.145,404.821Z" transform="translate(152.766 2.596)"/><path class="ah" d="M442.54,151.852s3.515,7.959,4.7,7.588,3.515-3.515,1.751-15.56Z" transform="translate(161.817 -11.633)"/><path class="ai" d="M449.93,106.207s8.835,2.428,12.668,1.937a91.743,91.743,0,0,1,17.152-7.415c9.166-2.772,22.8-1.923,22.8-1.923s-14.817-6.168-24.607-3.98C463.885,97.956,451.84,106.579,449.93,106.207Z" transform="translate(164.23 -27.803)"/><path class="ai" d="M430.615,125.435a24.66,24.66,0,0,1,12.854,4.285s-6.314-11.275-16.767-12.39C426.7,117.33,425.919,121.814,430.615,125.435Z" transform="translate(156.63 -20.302)"/><path class="ah" d="M472.141,137.508s-4.576-18.757-3.2-21.3,10.227-6.075,19.8-4.908a38.243,38.243,0,0,1,17.152,7.243S484.066,134.683,472.141,137.508Z" transform="translate(170.354 -22.347)"/><path class="ah" d="M472.65,140.206l.862,5.638s22.683-9.153,31.093-29.183Z" transform="translate(171.648 -20.521)"/><path class="ah" d="M451.713,147.781s-11.872-16.356-17.523-15.839l9.458,19.977a8.132,8.132,0,0,0,8.065-4.139Z" transform="translate(159.091 -15.535)"/><path class="aj" d="M471.29,135.669l2.772,6.8s22.551-8.835,30.987-25.774C505.05,116.647,483.534,129.753,471.29,135.669Z" transform="translate(171.204 -20.508)"/><path class="aj" d="M449.385,143.88s1.128,16.422-3.356,11.832-4.709-7.694-4.709-7.694a12.416,12.416,0,0,0,8.065-4.139Z" transform="translate(161.419 -11.633)"/><path class="ak" d="M472.955,135.669l-6.765,1.884s24.182-15.573,40.525-20.853C506.715,116.647,489.948,129.169,472.955,135.669Z" transform="translate(169.539 -20.508)"/><path class="ak" d="M450.574,143.88s-1.671,2.8-7.866,5.027H437.68S442.906,148.311,450.574,143.88Z" transform="translate(160.23 -11.633)"/><path class="ak" d="M484.807,126.25s4.709.239,5.134,4.1a67.467,67.467,0,0,1-15.918,8.954,53.793,53.793,0,0,1-2.772-6.8Z" transform="translate(171.191 -17.39)"/><path class="ak" d="M445.993,145.92a11.753,11.753,0,0,1,3.21,6.261c.318,3.024-1.459,3.98-2.268,3.674a16.276,16.276,0,0,1-5.465-7.614Z" transform="translate(161.468 -10.967)"/><path class="al" d="M450.23,149.183s-3.98,13.053-3.98,15.268,11.169,5.969,15.281,4.165,5.465-6.1,6.858-7.349a12.085,12.085,0,0,1,3.383-1.724c.438-.358,4.059-7.322-.716-10.453,0,0,1.857,2.772.478,4.882s-8.848,2.467-14.592,5.983-8.384,5.916-9.564,5.213S450.23,149.183,450.23,149.183Z" transform="translate(163.029 -9.932)"/><path class="am" d="M466.927,157.037a13.265,13.265,0,0,0-5.837,5.306S463.438,155.817,466.927,157.037Z" transform="translate(167.874 -7.387)"/><path class="an" d="M463.49,148.07s5.837,5.412,3.117,11.05C466.607,159.12,472.126,152.129,463.49,148.07Z" transform="translate(168.658 -10.265)"/><path class="ao" d="M467.462,154.21a47.6,47.6,0,0,0-10,5.757c-5.492,3.98-9.14,4.232-10.32,3.529,0,0,3.1-.464,8.476-4.537A26.53,26.53,0,0,1,467.462,154.21Z" transform="translate(163.319 -8.26)"/><path class="ap" d="M461.157,153.1c.809-1.207-2.587-1.327-4.351.411s-2.083,2.481-1.8,2.839S460.043,154.747,461.157,153.1Z" transform="translate(165.857 -8.917)"/><path class="aq" d="M467.16,177.443s6.526,5.306,9.63,4.948,8.516-6.182,11.607-12.35,2.03-14.711,2.03-14.711a18.877,18.877,0,0,1-6.924,10.28C477.746,170.028,467.16,177.443,467.16,177.443Z" transform="translate(169.856 -7.895)"/><path class="ar" d="M463.49,177.434s1.95-5.677,12.151-10.227a47.263,47.263,0,0,0,15.295-10.347A54.388,54.388,0,0,1,485.921,165c-2.069,2.335-14.1,10.214-15.1,10.785a56.044,56.044,0,0,1-7.336,1.645Z" transform="translate(168.658 -7.395)"/><path class="as" d="M463.49,178.721a47.011,47.011,0,0,0,7.415-.955c1.327-.57,8.384-6.394,14.061-10.7s7.508-14.141,7.508-14.141l-.849.478s-1.433,9.02-7.1,13.424a167.568,167.568,0,0,1-13.942,9.975A21.423,21.423,0,0,1,463.49,178.721Z" transform="translate(168.658 -8.682)"/><path class="ah" d="M483.6,154.082a20.666,20.666,0,0,1,6.5-.862,6.062,6.062,0,0,0-4.417-1.685,1.924,1.924,0,0,0-2.083,2.547Z" transform="translate(175.187 -9.14)"/><path class="at" d="M409.21,90.59Z" transform="translate(150.935 -29.033)"/><path class="at" d="M453.306,53.11a13.12,13.12,0,0,1-2.016,1.327A15.982,15.982,0,0,1,453.306,53.11Z" transform="translate(164.674 -41.27)"/><path class="au" d="M489.451,81c24.355,6.818,65.065,19.566,65.065,19.566l-1.327,1.817c-7.521.743-58.923-20.747-82.243-20.534S442,96.439,442,96.439s29.183-2.056,54.612,2.839,54.6,6.367,54.6,6.367l-2.56,6.407h-2.016c-.106-.464-.212-.942-.305-1.406,0,0-15.281-2.162-47.224-7.588s-55.713-2.945-65.4,7.747a24.076,24.076,0,0,0-21.33,8.33c-8.927,10.532,13.663,68.382,10.612,114.08-.875,13.663-1.552,26.172-1.751,37.209a61.6,61.6,0,0,0-5.969-23.214c3.847-17.775,6.208-39.928-1.326-71.207-7.389-30.589-9.816-43.775-8.569-56.018,8.423-15.825,26.981-13.756,26.981-13.756a147.819,147.819,0,0,1,7.853-28.308c-12.681,6.314-28.6,23.851-29.621,24.938,7.654-12.39,25.6-25.509,45.871-41.122A41.931,41.931,0,0,0,447.666,75c1.008-.769,20.667-15.852,46.64-21.038,26.238-5.306,63.142,13.265,64.123,13.822h0l1.22,2.229s-31.306-16.94-64.3-14.366S447.016,81.41,447.016,81.41,465.1,74.22,489.451,81Z" transform="translate(149.581 -41.302)"/><path class="at" d="M531,127.983s26.013,38.88,32.911,69.987l2.467,3.078S552.3,151.754,532.95,126.67Z" transform="translate(190.7 -17.253)"/><path class="at" d="M537.48,121.558s26.159,32.075,34.741,69.085l-8.185-27.3s-9.63-27.857-25.429-44.053Z" transform="translate(192.816 -19.662)"/><path class="av" d="M433,87.853s9.909-11.328,37.288-7.707,72.64,15.586,72.64,15.586l-.716,1.326s-46.136-6.155-72.56-10.612S433,87.853,433,87.853Z" transform="translate(158.702 -32.676)"/><path class="aw" d="M376.4,205.531c-1.724-18.319-55.422-17.032-55.422-17.032l-5.532-3.409c-4.656-13.265-19.261-18.651-19.261-18.651l-3.475-4.417c.743.5,6.752,4.55,11.236,5.226,4.789.677,5.027-4.125,5.027-4.125-10.254-14.366-24.288-15.2-24.288-15.2,6.274-4.285,25.668,12.642,25.668,12.642,3.608-1.685,3.475-6.778,3.475-6.778A84.124,84.124,0,0,1,325.1,167.248l17.245,12.443,2.534-1.114s-11.806-15.653-13.9-22.551c-.106-.332-.2-.7-.332-1.1a14.146,14.146,0,0,0,1.844-.212c5.439-.968,8.41-6.168,8.41-6.168l.5,1.419c.133,1.181.226,2.162.305,2.865.464,5.306,3.98,17.1,13.557,20.946.968.4,2.056.809,3.2,1.326a17.006,17.006,0,0,0-6.805,1.035c-2.772,1.326-18.319,11.408-18.319,11.408C377.877,187.411,376.4,205.531,376.4,205.531Z" transform="translate(110.278 -10.541)"/><path class="ax" d="M310.89,167.271s9.644-4.205,11.567-13.159L352.649,124.4s9.75-1.525,8.476,6.633l-30.682,30.311s-7.959,2.242-13.9,13.424C316.541,174.726,311.858,168.372,310.89,167.271Z" transform="translate(118.832 -18.031)"/><path class="ay" d="M342.37,124.492a9.06,9.06,0,0,0,8.476,6.633S353.314,121.773,342.37,124.492Z" transform="translate(129.111 -18.125)"/><path class="az" d="M490.245,254.011l4.656-8.636c-.2,1.141-2.162,10.692-9.551,25.2-7.893,15.56-4.948,32.553-4.948,32.553s-35.816,28.162-45.539,34.582-20.11,15.918-20.043,2.016l5.027,1.791s12.827-20.508,8.33-60.476l-3.263-4.789s.093-.279.305-.743c3.17,1.751,9.286,6.434,9.644,16.993,0,0,3.781-15.507-6.142-23.028,1.592-1.114,9.577,2.149,14.207.4s23.877-38.349,25.5-40.379,10.426-20.116,15.815-27.188c2.206-5.4,8.549-7.744,18.858-11.533,11.172-4.107,27.041-9.519,40.746-13.64.077,7.545-33.972,9.26-55.019,36.2S490.245,254.011,490.245,254.011Z" transform="translate(152.766 13.394)"/><path class="az" d="M609.779,303.387s-18.744,92.962-13.623,138.289c0,0,8.092,9.551,3.409,14.233,0,0-54.573-8.967-85.334-25.2s-42.7-25.535-42.7-25.535.836-7.243,3.608-8.33C499.015,417.082,585.769,438.8,585.769,438.8s.172-55.382-9.378-57.982-53.564,3.887-53.564,3.887v8.529l-17.43-14.7-.305-.345-7.15-8.6,24.885,6.633-24.249-16.183-16.183-28.613C500.7,324.213,532.8,325.9,532.8,325.9l-45.393-7.2c28.838-4.683,71.632,2.971,71.632,2.971s32.844-6.778,34.741-23.943-17.881-39.5-17.881-39.5c-22.551,13.265-57.133,23.983-59.295,24.66,38.31-16.634,69.177-63.858,69.177-63.858-12.509,3.82-32.34,7.6-32.34,7.6,48.457-19.672,55.912-39.132,55.912-39.132l.345.172c2.321,1.817-.345,17.165-.345,17.165s16.94,10.758,19.5,15.586,5.426,19.9,5.426,19.9-30.019,19.566-25.761,39.172,38.986,76.7,38.986,76.7l-12.575-.809S630.87,323.829,609.779,303.387Z" transform="translate(171.283 2.606)"/><path class="az" d="M652.313,348.539c-9.989-4.205-26.875-8.4-55.249-9.538l-2.759,1.685s-2.335-8.224-2.03-9.378,4.789-.769,4.789-.769-7.654-10.864-7.654-12.96a1.593,1.593,0,0,1,.544-1.048l1.326.955c41.758,4.046,56.669,18.107,56.669,18.107-9.816-3.409-46.242-.849-46.242-.849C625.093,335.963,641.754,342.569,652.313,348.539Z" transform="translate(209.771 44.738)"/><path class="ba" d="M585.2,279.163l-10.28-17.483s-4.046,20.455-13.69,30.669S546.8,305.455,546.8,305.455s23.028,3.979,35.431-10.121Z" transform="translate(195.859 26.829)"/><path class="ab" d="M710.979,353.334c-34.489,24.633-126.018,27.286-129.321,28.241s-9.14,9.378-13.079,11.2-15.918,2.534-25.27-3S524.9,378.365,524.9,378.365c-5.571,6.752-10.97,9.71-14.883,10.824-3.475,1.021-5.731.584-5.9,0-.305-1.154,8.437-12.987,8.437-12.987h-.133a13.889,13.889,0,0,0-3.807,1.048l-.345.239a12.739,12.739,0,0,0-1.247.982l-.875.7-.411.345c-1.778,1.512-4.205,3.5-6.8,5.386l-.438.345a40.789,40.789,0,0,1-8.4,4.895c-7.256,2.759-16.741,2.016-16.741,2.016s-10.612,1.592-10.453-.743,16.7-16.767,18.757-18.571c-16.2,11.846-28.507,9.179-28.732,7.694s23.6-18.319,32.141-19.367c5.027-.637,22.63,2.162,42.156,3.847,13.53,1.154,28,1.791,39.875.411,28.971-3.409,74.537-31.942,74.537-31.942C695.632,330.677,710.979,353.334,710.979,353.334Z" transform="translate(165.206 50.197)"/><path class="bb" d="M574.573,374.721c-3.3.942-9.14,9.378-13.079,11.2s-15.918,2.534-25.27-3-18.412-11.408-18.412-11.408c-5.571,6.752-10.97,9.71-14.883,10.824l-.332-.159a41.12,41.12,0,0,0,16.4-13.424c1.181-2.772-3.1-6.818-4.391-6.633s-9.14,7.256-9.14,7.256h-.133l-3.807,1.048-.345.239-1.247.982-.876.7-.411.345-6.8,5.386-.438.345,11.2-12.589s-3-2.653-5.8-2.759-18.863,12.549-20.853,14.1l17.245-15.082c-.438-2.016-6.513-3.608-8.2-3.5s-10.254,7.243-10.254,7.243l8.675-9.034c-1.181-2.361-5.465-2.467-5.465-2.467,5.027-.637,22.63,2.162,42.156,3.847,4.258,1.419,8.941,2.772,13.928,3.913a356.368,356.368,0,0,1,40.538,12.628Z" transform="translate(172.331 57.051)"/><path class="aa" d="M595.18,333.605s49.174,4.775,67.785,20.866l1.565-1.074S658.123,329.135,595.18,333.605Z" transform="translate(211.655 50.134)"/><path class="aa" d="M414.82,324.875s12.111-21.078,13.358-58.685c0,0,7.123,28.719-8.33,60.475Z" transform="translate(152.766 28.302)"/><path class="x" d="M569.767,93.485c-1.605-2.653-14.592-24.368-19.9-30.417-5.691-6.473-31.306-18.836-64.269-7.561S437.276,88.06,437.276,88.06C414.9,98.314,406.62,113.568,406.62,113.568a30.419,30.419,0,0,1,3.422-7.866h0c7.654-12.363,25.6-25.456,45.844-41.122,1.8-1.327,3.621-2.8,5.478-4.192a37.467,37.467,0,0,1,4.391-3.1,17.7,17.7,0,0,1,2.03-1.247h0c26.53-15.918,62.2-12.947,73.794-7.256,3.767,1.817,9.564,10.148,16.183,21.887h0l1.194,2.229C562.564,79,566.146,86.043,569.767,93.485Z" transform="translate(150.089 -44.172)"/><path class="x" d="M575.42,200.56s8.622,12.681,19.5,15.586a53.6,53.6,0,0,0-19.5-15.587Z" transform="translate(205.204 6.873)"/><path class="bc" d="M600.393,187.632S571.98,229.59,499.99,232.07c0,0,41.613-2.932,86.634-36.612l-3.475-3.144S593.642,187.022,600.393,187.632Z" transform="translate(180.575 2.636)"/><path class="x" d="M382.446,150.307s-3.356-2.839-13.265.57a25.88,25.88,0,0,0-14.021,11.541c.305-4.3,9.4-14.8,15.2-15.918S382.446,148.344,382.446,150.307Z" transform="translate(133.287 -10.857)"/><path class="d" d="M319.61,154.319s27.95-26.53,30.7-28.347,7.8.836,7.8.836-.531-4.669-8.3-2.653Z" transform="translate(121.68 -18.239)"/><path class="x" d="M313.71,131.98s10.532-1.751,15.334,10.824c0,0-3.223-13.6-12.124-13.464A3.436,3.436,0,0,0,313.71,131.98Z" transform="translate(119.753 -16.381)"/><path class="x" d="M284.458,148.62s-.982-3.449,4.245-4.6S312.248,154.1,312.248,154.1s-12.257-13.623-27.339-12.973a11.276,11.276,0,0,0-.451,7.495Z" transform="translate(110.059 -12.54)"/><path class="bd" d="M440.281,346.269c-33.428-25.456-73.21-116.627-80.506-130.595-6.115-11.753-30.735-23.24-44.345-28.414,13.093,4.457,36.784,13.61,44.345,23.652,10.612,14.021,49.505,108.19,80.041,134.932C439.963,346,440.122,346.1,440.281,346.269Z" transform="translate(120.315 2.531)"/><path class="be" d="M437.083,344.607H605.019L500.862,254.67,328.23,261.289Z" transform="translate(107.17 83.146)"/><path class="bf" d="M565.419,339.159l-2.892,6.725L458.37,255.947l1.512-5.187Z" transform="translate(149.662 81.869)"/><path class="bg" d="M499.885,328.071H446.255l-26.3-22.617,52.49-.544,4.908,4.139,6.182,5.213Z" transform="translate(137.117 99.549)"/><path class="bh" d="M436.568,312.829l-7.375-6.142h45.353l-2.109-1.777-52.477.544L436.17,319.4Z" transform="translate(137.12 99.549)"/><path class="bf" d="M341.052,265.427l-.862,3.582,158.279-5.067,1.021-4.351Z" transform="translate(111.075 84.752)"/><path class="bf" d="M459.51,263.941l88,75.876,6.964,1.592L460.531,259.59Z" transform="translate(150.034 84.752)"/><path class="bi" d="M562.321,320.07,414.15,321.662l.279,1.459,154.857-1.459Z" transform="translate(135.223 104.499)"/><path class="bj" d="M367.95,263.493l6.261,3.847,53.326-1.658-5.359-4.192Z" transform="translate(120.139 85.372)"/><path class="bj" d="M415.67,261.273l4.165,4.3h3.98l-4.789-4.431Z" transform="translate(135.72 85.258)"/><path class="bk" d="M502.374,250.76,328.8,258.971l-.57,3.595,172.632-6.619Z" transform="translate(107.17 81.869)"/><path class="bl" d="M340.19,266.69l98.109,72.4.279,1.459Z" transform="translate(111.075 87.07)"/><g class="bm" transform="translate(460.789 351.518)"><path class="bn" d="M394,359.786l-59.693-45h.65l145.69-5.611,52.782,47.33h-.61Zm-57.769-44.451,58.207,43.775,137.108-3.184L480.08,309.79Z" transform="translate(-334.31 -309.18)"/></g><path class="bo" d="M484.192,313.273l-9.883,8.45-6.261,5.359-25.907,22.166-6.712,5.744H417.92L468.1,315.5l9.6-7.561.305.119Z" transform="translate(136.454 100.539)"/><path class="bp" d="M490.064,307.94l-9.6,7.561-50.182,39.49-50.208.345,57.358-37.779,11.7-7.72Z" transform="translate(124.096 100.539)"/><path class="bq" d="M482.433,313.273l-9.883,8.45-6.208-6.221-43.032,2.056,11.7-7.72,40.936-1.9.305.119Z" transform="translate(138.214 100.539)"/><path class="br" d="M432.7,339.08h68.753l.345,5.744H431.12Z" transform="translate(140.764 110.706)"/><path class="bs" d="M605.019,345.884l2.892-6.725-105.537-88.4L328.8,258.971l-.57,3.595,108.853,83.318h2.6L397,374.006l50.208-.345h88.186l-.345-5.744H471.44l25.734-22.033Z" transform="translate(107.17 81.869)"/><path class="bt" d="M0,338.992v14.565l495.326-2.175v-23Z" transform="translate(403.696 107.213)"/><path class="bu" d="M477.99,366.546V345.72H412.468L0,347.909v18.637Z" transform="translate(412.364 112.874)"/><path class="bv" d="M477.99,364.7V351.37L0,352.842V364.7Z" transform="translate(412.364 114.719)"/><path class="bw" d="M632.008,329.34l-9.776,21.728H601.75l14.18-21.542Z" transform="translate(196.476 107.526)"/><path class="bx" d="M417.081,364.7l5.014-13.331H411.854L407.49,364.7Z" transform="translate(133.049 114.719)"/></g></g></g></g></svg>