<svg xmlns="http://www.w3.org/2000/svg" xmlns:xlink="http://www.w3.org/1999/xlink" width="515" height="568" viewBox="0 0 515 568"><defs><style>.a,.av{fill:#fff;}.a{stroke:#707070;}.b{clip-path:url(#a);}.c{fill:url(#b);}.bn,.d,.n{opacity:0.83;}.aa,.ad,.ah,.an,.au,.aw,.ay,.az,.bb,.bc,.bd,.be,.bf,.bg,.bh,.bi,.bj,.bk,.bl,.br,.bx,.d,.f,.n{mix-blend-mode:multiply;}.aa,.ad,.ah,.an,.au,.aw,.ax,.ay,.az,.bb,.bc,.bd,.be,.bf,.bg,.bh,.bi,.bj,.bk,.bl,.bo,.bp,.bq,.br,.bu,.bv,.bw,.bx,.ch,.d,.f,.h,.i,.m,.n,.v{isolation:isolate;}.d{fill:url(#c);}.e{fill:url(#d);}.bb,.bc,.bd,.be,.bf,.bh,.bi,.bj,.bk,.br,.bx,.f,.i,.v{opacity:0.62;}.f{fill:url(#e);}.g{fill:url(#f);}.h,.i{mix-blend-mode:overlay;}.h{fill:url(#g);}.bk,.i{fill:url(#h);}.j{fill:url(#i);}.k{fill:url(#j);}.l{fill:url(#k);}.ax,.bo,.bp,.bq,.bu,.bv,.bw,.ch,.m,.v{mix-blend-mode:soft-light;}.m{fill:url(#l);}.n{fill:url(#m);}.o{fill:url(#n);}.p{fill:url(#o);}.q{fill:url(#p);}.r{fill:url(#q);}.s{fill:url(#r);}.au,.t{fill:#e87a8d;}.u{fill:url(#s);}.v{fill:url(#t);}.w{fill:url(#u);}.x{fill:url(#v);}.y{fill:url(#w);}.z{fill:url(#x);}.aa{fill:#77485e;}.ab{fill:url(#y);}.ac{fill:url(#z);}.ad,.ah,.az{opacity:0.26;}.ad{fill:url(#aa);}.ae{fill:url(#ab);}.af{fill:url(#ac);}.ag{fill:url(#ad);}.ah{fill:url(#ae);}.ai{fill:url(#af);}.aj{fill:url(#ag);}.ak{fill:#e37e7f;}.al{fill:url(#ah);}.am{fill:url(#ai);}.an{fill:#9f4a8b;}.ao{fill:url(#aj);}.ap{fill:url(#ak);}.aq{fill:url(#al);}.ar{fill:url(#am);}.as{fill:url(#an);}.at{fill:url(#ao);}.aw{opacity:0.31;fill:url(#ap);}.ax{fill:url(#aq);}.ay{opacity:0.43;fill:url(#ar);}.az{fill:url(#as);}.ba{fill:url(#at);}.bb{fill:url(#au);}.bc{fill:url(#av);}.bd{fill:url(#aw);}.be{fill:url(#ax);}.bf{fill:url(#ay);}.bg,.bq{opacity:0.5;}.bg{fill:url(#az);}.bh{fill:url(#ba);}.bi{fill:url(#bc);}.bj{fill:url(#bd);}.bl{fill:url(#bf);}.bm{fill:url(#bg);}.bn{fill:url(#bh);}.bo{fill:url(#bi);}.bp{fill:url(#bj);}.bq{fill:url(#bk);}.br{fill:url(#bl);}.bs{fill:url(#bn);}.bt{fill:url(#bo);}.bu,.bv,.bw{opacity:0.84;}.bu{fill:url(#bp);}.bv{fill:url(#bq);}.bw{fill:url(#br);}.bx{fill:url(#bs);}.by{fill:url(#bt);}.bz{fill:url(#bu);}.ca{fill:url(#bv);}.cb{fill:url(#bw);}.cc{fill:url(#bx);}.cd{fill:url(#by);}.ce{fill:url(#bz);}.cf{fill:#d7e2ff;}.cg,.ch{fill:#d7d9ff;}.ci{fill:url(#ca);}</style><clipPath id="a"><rect class="a" width="515" height="568"/></clipPath><linearGradient id="b" x1="0.501" y1="1" x2="0.501" gradientUnits="objectBoundingBox"><stop offset="0" stop-color="#744fd8"/><stop offset="1" stop-color="#3996f7"/></linearGradient><linearGradient id="c" x1="0.501" y1="1" x2="0.501" gradientUnits="objectBoundingBox"><stop offset="0" stop-color="#9d68c2"/><stop offset="1" stop-color="#ccedff"/></linearGradient><linearGradient id="d" x1="0.5" y1="1" x2="0.5" gradientUnits="objectBoundingBox"><stop offset="0" stop-color="#1c257b"/><stop offset="1" stop-color="#482c83"/></linearGradient><linearGradient id="e" x1="0.5" y1="1" x2="0.5" gradientUnits="objectBoundingBox"><stop offset="0" stop-color="#8b8be0"/><stop offset="1" stop-color="#a177b7"/></linearGradient><linearGradient id="f" x1="0.5" y1="1" x2="0.5" gradientUnits="objectBoundingBox"><stop offset="0.02" stop-color="#ffc2a9"/><stop offset="1" stop-color="#ff9595"/></linearGradient><linearGradient id="g" x1="0.5" y1="1" x2="0.5" gradientUnits="objectBoundingBox"><stop offset="0" stop-color="#d1c8f8"/><stop offset="1" stop-color="#eee5f9"/></linearGradient><linearGradient id="h" x1="0.5" y1="1" x2="0.5" y2="0" xlink:href="#e"/><linearGradient id="i" x1="0.499" y1="1" x2="0.499" gradientUnits="objectBoundingBox"><stop offset="0.02" stop-color="#ffa58b"/><stop offset="1" stop-color="#ff898e"/></linearGradient><linearGradient id="j" x1="0.5" y1="1" x2="0.5" y2="0.001" xlink:href="#b"/><linearGradient id="k" x1="0.501" y1="1" x2="0.501" y2="0" xlink:href="#i"/><linearGradient id="l" x1="0.5" y1="1" x2="0.5" y2="0" xlink:href="#g"/><linearGradient id="m" x1="0.5" x2="0.5" y2="0" xlink:href="#c"/><linearGradient id="n" x1="0.5" y1="1" x2="0.5" y2="-0.002" xlink:href="#f"/><linearGradient id="o" x1="0.5" y1="1" x2="0.5" y2="0.001" xlink:href="#i"/><linearGradient id="p" x1="0.405" y1="0.955" x2="0.574" y2="0.03" gradientUnits="objectBoundingBox"><stop offset="0" stop-color="#d49092"/><stop offset="0.13" stop-color="#d18e92"/><stop offset="0.2" stop-color="#c98991"/><stop offset="0.27" stop-color="#bb7f90"/><stop offset="0.32" stop-color="#a7718f"/><stop offset="0.37" stop-color="#8c5f8d"/><stop offset="0.42" stop-color="#6c498a"/><stop offset="0.46" stop-color="#472f88"/><stop offset="0.47" stop-color="#3e2987"/><stop offset="0.61" stop-color="#352278"/><stop offset="0.85" stop-color="#291762"/><stop offset="1" stop-color="#24135a"/></linearGradient><linearGradient id="q" x1="0.501" y1="1" x2="0.501" y2="0" xlink:href="#f"/><linearGradient id="r" x1="0.5" y1="1" x2="0.5" y2="0" xlink:href="#b"/><linearGradient id="s" x1="0.5" x2="0.5" y2="0" xlink:href="#d"/><linearGradient id="t" x1="0.5" y1="1" x2="0.5" y2="0.001" xlink:href="#e"/><linearGradient id="u" x1="0.5" y1="1" x2="0.5" y2="0.003" xlink:href="#f"/><linearGradient id="v" x1="0.5" y1="1" x2="0.5" y2="0" xlink:href="#f"/><linearGradient id="w" x1="0.5" y1="1.001" x2="0.5" y2="0" xlink:href="#f"/><linearGradient id="x" x1="0.503" x2="0.503" y2="-0.001" xlink:href="#d"/><linearGradient id="y" x1="0.5" y1="1" x2="0.5" gradientUnits="objectBoundingBox"><stop offset="0" stop-color="#d0c7f8"/><stop offset="1" stop-color="#fff"/></linearGradient><linearGradient id="z" x1="0.499" y1="1" x2="0.499" y2="0" xlink:href="#y"/><linearGradient id="aa" x1="1" y1="0.5" x2="0" y2="0.5" gradientUnits="objectBoundingBox"><stop offset="0" stop-color="#cf6074"/><stop offset="1" stop-color="#ff817f"/></linearGradient><radialGradient id="ab" cx="0.488" cy="0.719" r="0.501" gradientTransform="matrix(-0.976, 0, 0, 1, 0.964, 0)" gradientUnits="objectBoundingBox"><stop offset="0" stop-color="#cf95ff"/><stop offset="1" stop-color="#8161ff"/></radialGradient><linearGradient id="ac" x1="0.5" y1="1.002" x2="0.5" gradientUnits="objectBoundingBox"><stop offset="0" stop-color="#8642a0"/><stop offset="1" stop-color="#4e37b7"/></linearGradient><radialGradient id="ad" cx="0.483" cy="0.701" r="0.33" gradientTransform="matrix(-2.018, 0, 0, 1, 1.442, 0)" xlink:href="#ab"/><linearGradient id="ae" x1="1" y1="0.502" x2="0" y2="0.502" xlink:href="#aa"/><linearGradient id="af" x1="0.5" y1="1" x2="0.5" y2="0" xlink:href="#ac"/><linearGradient id="ag" x1="0.499" x2="0.499" y2="-0.001" xlink:href="#d"/><linearGradient id="ah" x1="0.608" y1="0.882" x2="0.432" y2="-0.319" gradientUnits="objectBoundingBox"><stop offset="0" stop-color="#ff8883"/><stop offset="1" stop-color="#e8868d"/></linearGradient><linearGradient id="ai" x1="0.5" y1="1" x2="0.5" gradientUnits="objectBoundingBox"><stop offset="0" stop-color="#ff8883"/><stop offset="1" stop-color="#ffb1a4"/></linearGradient><linearGradient id="aj" x1="0.175" y1="1.542" x2="0.175" y2="0.417" xlink:href="#d"/><linearGradient id="ak" x1="-5.874" y1="1.55" x2="-5.874" y2="0.414" xlink:href="#d"/><linearGradient id="al" x1="-10.217" y1="10.929" x2="-10.217" y2="10.026" xlink:href="#d"/><linearGradient id="am" x1="-0.418" y1="2.074" x2="-0.418" y2="1.148" gradientUnits="objectBoundingBox"><stop offset="0" stop-color="#6a4fac"/><stop offset="1" stop-color="#513689"/></linearGradient><linearGradient id="an" x1="0.5" y1="1" x2="0.5" y2="0" xlink:href="#i"/><linearGradient id="ao" x1="-13.602" y1="0.669" x2="-13.602" y2="-0.376" gradientUnits="objectBoundingBox"><stop offset="0.02" stop-color="#ffac8b"/><stop offset="1" stop-color="#ff9595"/></linearGradient><linearGradient id="ap" x1="1" y1="0.5" x2="0" y2="0.5" xlink:href="#aa"/><linearGradient id="aq" x1="0.5" y1="1" x2="0.5" gradientUnits="objectBoundingBox"><stop offset="0.02" stop-color="#ff997c"/><stop offset="1" stop-color="#ff898e"/></linearGradient><linearGradient id="ar" x1="0.999" y1="0.5" x2="0" y2="0.5" xlink:href="#aa"/><linearGradient id="as" x1="0.5" y1="1" x2="0.5" y2="0" xlink:href="#aa"/><linearGradient id="at" x1="0.5" y1="1" x2="0.5" y2="0" xlink:href="#aa"/><linearGradient id="au" x1="0.499" y1="1" x2="0.499" y2="0" xlink:href="#e"/><linearGradient id="av" x1="0.5" y1="0.999" x2="0.5" y2="-0.004" xlink:href="#e"/><linearGradient id="aw" x1="0.5" y1="1" x2="0.5" y2="0" xlink:href="#e"/><linearGradient id="ax" x1="0.5" y1="1" x2="0.5" y2="0" xlink:href="#e"/><linearGradient id="ay" x1="0.501" y1="0.998" x2="0.501" y2="-0.002" xlink:href="#e"/><linearGradient id="az" x1="0.5" y1="1.002" x2="0.5" y2="0.002" gradientUnits="objectBoundingBox"><stop offset="0" stop-color="#9d68c2"/><stop offset="1" stop-color="#90aeff"/></linearGradient><linearGradient id="ba" x1="0.499" y1="1" x2="0.499" y2="0" xlink:href="#e"/><linearGradient id="bc" x1="0.5" y1="1" x2="0.5" y2="0" xlink:href="#e"/><linearGradient id="bd" x1="0.499" y1="1" x2="0.499" y2="0" xlink:href="#e"/><linearGradient id="bf" x1="0.5" y1="1" x2="0.5" gradientUnits="objectBoundingBox"><stop offset="0" stop-color="#8642a0"/><stop offset="1" stop-color="#6456c0"/></linearGradient><linearGradient id="bg" x1="1.004" y1="0.52" x2="0.004" y2="0.52" xlink:href="#aa"/><linearGradient id="bh" x1="0.5" x2="0.5" y2="0" xlink:href="#c"/><linearGradient id="bi" x1="0.5" y1="1.001" x2="0.5" gradientUnits="objectBoundingBox"><stop offset="0" stop-color="#b9acf4"/><stop offset="1" stop-color="#e1d1f5"/></linearGradient><linearGradient id="bj" x1="0.5" y1="1" x2="0.5" y2="0.001" xlink:href="#bi"/><linearGradient id="bk" x1="0.5" y1="1.001" x2="0.5" y2="-0.001" xlink:href="#bi"/><linearGradient id="bl" x1="0.494" y1="1" x2="0.494" y2="0" xlink:href="#e"/><linearGradient id="bn" x1="0.499" y1="0.998" x2="0.499" gradientUnits="objectBoundingBox"><stop offset="0" stop-color="#3d2cb0"/><stop offset="1" stop-color="#0355c7"/></linearGradient><linearGradient id="bo" x1="0.38" y1="0.947" x2="0.555" y2="0.06" gradientUnits="objectBoundingBox"><stop offset="0" stop-color="#5e3187"/><stop offset="0.38" stop-color="#422271"/><stop offset="0.76" stop-color="#2c1760"/><stop offset="1" stop-color="#24135a"/></linearGradient><linearGradient id="bp" x1="0.497" y1="1" x2="0.497" y2="0" xlink:href="#e"/><linearGradient id="bq" x1="0.499" y1="1" x2="0.499" y2="0" xlink:href="#e"/><linearGradient id="br" x1="0.501" y1="1" x2="0.501" y2="0" xlink:href="#e"/><linearGradient id="bs" x1="0.5" y1="0.999" x2="0.5" gradientUnits="objectBoundingBox"><stop offset="0" stop-color="#f2c7cc"/><stop offset="1" stop-color="#a177b7"/></linearGradient><linearGradient id="bt" x1="0.555" y1="0.991" x2="0.448" y2="-0.033" xlink:href="#d"/><linearGradient id="bu" x1="0.555" y1="0.991" x2="0.448" y2="-0.033" gradientUnits="objectBoundingBox"><stop offset="0" stop-color="#1c257b"/><stop offset="1" stop-color="#65459c"/></linearGradient><linearGradient id="bv" x1="0.628" y1="0.985" x2="0.436" y2="-0.006" xlink:href="#d"/><linearGradient id="bw" x1="0.629" y1="0.985" x2="0.436" y2="-0.006" xlink:href="#bu"/><linearGradient id="bx" x1="0.533" y1="1.147" x2="0.489" y2="-0.115" xlink:href="#bu"/><linearGradient id="by" x1="0.561" y1="1.046" x2="0.44" y2="-0.062" xlink:href="#bu"/><linearGradient id="bz" x1="0.498" y1="1" x2="0.498" y2="0" xlink:href="#bf"/><linearGradient id="ca" x1="0.5" y1="0.998" x2="0.5" y2="-0.005" xlink:href="#i"/></defs><g class="b"><g transform="translate(-0.383 -0.048)"><path class="c" d="M289.756,261.7s4.729-1.426,6.624,2.364,7.825,49.3,6.174,62.095-6.4,8.069-6.4,8.069.469,7.506,3.547,9.72h0l.206-.15.281-.188h0c1.877-1.2,8.125-5.367,13.943-9.383a85.816,85.816,0,0,0,10.9-8.782s-.957-7.506-.957-9.7S339.259,263.2,354.1,247.476c13.924-14.581.244-96.717-1.67-107.808l-.225-1.239s-12.085,3.565-17.3,7.375-23.87,49.991-24.77,73.692-9.383,37.156-9.383,37.156a9.2,9.2,0,0,0-7.6,0Z" transform="translate(-199.194 59.126)"/><path class="d" d="M289.736,343.6c1.877-1.2,8.125-5.367,13.943-9.383a85.813,85.813,0,0,0,10.9-8.782s-.957-7.506-.957-9.7,15.181-52.543,30.025-68.269c13.924-14.581.244-96.717-1.67-107.808l-.225-1.239s-9.833,12.329-14.093,36.855,1.764,72.9,1.764,72.9-8.52,39.107-29.5,39.82c0,0,17.6,25.765,10.659,38.694C309.327,329.19,292.945,341.331,289.736,343.6Z" transform="translate(-188.703 59.117)"/><path class="e" d="M202.97,459.446a55.1,55.1,0,0,0,2.045,10.846h0c1.52,5.236,3.434,9.158,4.485,13.661,1.689,7.131,3.565,34.81,3.565,34.81h49.766a403.437,403.437,0,0,1-7.112-43.8c-2.721-24.489,11.916-108.84,13.136-116.121a1.078,1.078,0,0,1,.094-.488c12.8,53.557,44.211,115.67,47.42,119.217a39.031,39.031,0,0,0,9.589,6.756c3.565,6.756,11.034,34.435,11.034,34.435h57.235c-3.19-14.637-17.771-36.555-22.406-44.737s-22.031-64.009-26.666-100.977c-1.877-15.406-3.415-31.676-4.5-45.431h0c-1.52-19.216-2.252-33.478-2.252-33.478-14.562-14.919-128.487-29.631-128.487-29.631l-3.6,11.691s-4.072.882-4.616,3.753,3.284,5.442,3.284,5.442C192.236,357.868,201.919,447.717,202.97,459.446Z" transform="translate(-61.816 169.641)"/><path class="f" d="M361.741,299.789s-34.453-4.26-56.146,6.061S285.854,334,285.854,334l6.118,24.4L270.9,336.344,228,285.377a64.8,64.8,0,0,0,18.465,7s-14.637-9.064-17.133-16.176l3.6-11.691,128.806,27.473Z" transform="translate(-84.763 169.641)"/><path class="g" d="M357.556,236.407s1.426,16.007-8.182,23.457c0,0-19.741-10.3-29.443-27.135S357.556,236.407,357.556,236.407Z" transform="translate(-250.706 135.968)"/><path class="h" d="M358.082,294.121l.357,2.477s-26.609-6.737-39.407-7.206-26.272,9.7-53.632,4.729S228,269.482,228,269.482l1.633-4.992Z" transform="translate(-81.461 169.623)"/><path class="i" d="M348.1,294.4a523.661,523.661,0,0,0-61.757-10.584c-35.823-4.091-49.391-5.236-52.712-7.994s-5.63-9.289-5.63-9.289l.676-2.045,128.487,29.631.319,2.477Z" transform="translate(-80.504 169.623)"/><path class="j" d="M362.816,204.73s-5.5,4.466-5.536,8.294,9.1,2.045,9.1,2.045Z" transform="translate(-332.003 117.241)"/><path class="k" d="M195.494,248.476l3.9-21.393s9.964,0,24.526,13.511a42.242,42.242,0,0,0,5.348,16.457s16.776,8.088,24.564,19.1,10.734,12.122,18.859,5.874c2.158-1.651,3.622-7.262,4.391-14.9a192.668,192.668,0,0,0-1.276-41.96c-1.651-11.747-4.372-22.162-8.144-27.585a25.146,25.146,0,0,0-3.209-12.929l-.525.357a10.94,10.94,0,0,1-7.281,1.783c-4.035-.713-7.412-6.887-7.412-6.887a5.4,5.4,0,0,0-3.49,1.877,89.567,89.567,0,0,1-26.272-26.272c-10.19-16.439-11.841-18.465-11.841-18.465a34.587,34.587,0,0,0-6.136-1.726,22.969,22.969,0,0,0-9.27,0S142.631,212.071,195.494,248.476Z" transform="translate(106.03 55.986)"/><path class="l" d="M242.927,163.718s6.174-9.214,6.174-30.682l48.077-23.457s-2.421,16.551,5.63,30.907c2.158,3.753,12.2,9.8,12.2,9.8s-43.93,54.176-65.041,48.978-16.889-28.148-16.889-28.148S236.771,172.5,242.927,163.718Z" transform="translate(-46.903 33.837)"/><path class="m" d="M303.824,129.18s-23.813,23.738-44.305,25.071c-21.956,1.426-18.334-16.889-18.334-16.889s-9.927,14-7.112,24.939,24.545,11.5,41.284,4.2,32.708-35.654,32.708-35.654Z" transform="translate(-41.539 51.018)"/><path class="n" d="M195.791,248.433l3.9-21.393s9.964,0,24.526,13.511a42.241,42.241,0,0,0,5.348,16.457s16.776,8.088,24.564,19.1,10.734,12.122,18.859,5.874c2.158-1.651,3.622-7.262,4.391-14.9l-1.276-3.059V225.163c-1.651-11.747-4.372-22.162-8.144-27.585a25.146,25.146,0,0,0-3.209-12.929l-.525.357c-13.793,8.989-18.765,35.429-19.61,55.114-.131-4.992-3.3-24.4-5.63-23.945-3.078.469-8.276,36.03-8.276,36.03-6.155-30.494,13.7-67.274,15.294-70.2a125.277,125.277,0,0,0-21.224,53.857l-28.148-20.642s-16.983-17.077-11.109-46.463,16.345-33.384,16.345-33.384a22.97,22.97,0,0,0-9.27,0S142.929,212.028,195.791,248.433Z" transform="translate(105.732 56.03)"/><path class="o" d="M238.883,183.733a1.032,1.032,0,0,1,.188.206,7.111,7.111,0,0,0,2.158,1.877c10.678,5.461,39.107,4.035,54.514-9.383a65.079,65.079,0,0,0,13.736-17.583h0c5.63-10.19,8.763-20.773,11.841-28.148,4.973-11.841,9.064-31.676,8.05-43.161-.938-10.659-3.078-19.666-17.546-31.9s-50.01-13.136-59.017-.713-8.763,40.064-10.9,46.219-9.721,13.511-11.86,21.805C228.131,130.421,230.2,172.906,238.883,183.733Z" transform="translate(-55.151 -21.87)"/><path class="p" d="M231.063,107.278s.45,7.506,6.23,7.919c4.522.413,7.281-6.268,7.281-6.268s.807-18.109-1.482-27.022L240.934,74.8a20.473,20.473,0,0,1,15.444-5.63c9.233.826,12.554,10.7,12.554,10.7s-8.2,23.494-7.018,34.81a22.931,22.931,0,0,0,16.626,5.217,26.985,26.985,0,0,0,18.127-8.013s6.587,7.694,7.844,14.224c1.5,7.806-1.088,32.539-1.088,32.539s8.294-26.778,10.546-34.6,6.4-42.56,3.922-48.471-9.664-25.3-40.4-29.162-36.5,6.512-36.5,6.512L237.818,68.19v7.881s-2.158,20.323-2.909,23.738a23.948,23.948,0,0,1-3.847,7.469Z" transform="translate(-47.424 -22.296)"/><path class="q" d="M224.143,87.792A55.189,55.189,0,0,1,230.9,67.037,47.4,47.4,0,0,0,248.145,77.7a57.235,57.235,0,0,1-7.262-8.144,79.831,79.831,0,0,0,16.326,9.383S254.6,74.862,254.6,73.08s6.756-9.589,14.581-9.383A37.531,37.531,0,0,1,299.412,83.25c7.506,14.224,0,15.538-4.128,19.253a264,264,0,0,1,1.6,32.389,73.182,73.182,0,0,1-1.22,11.9c-.113.544-.244,1.051-.375,1.539l10.678-9.758a45.224,45.224,0,0,1,4.2-15.857c.45-1.07.976-2.177,1.558-3.321h0l.713-1.37c2.552-4.766,10.4-13.68,9.27-22.762-1.07-8.538-16.607-15.876-20.4-21.58,0,0,11.916,3.753,17.564,9.5a13.905,13.905,0,0,0-5.329-8.369c-4.41-3.021-8.125-1.145-14.543-3.753S283.874,46.883,273.572,38.7s-33.965-6.568-41.6,0a19.291,19.291,0,0,0-4.523,5.836h0A31.319,31.319,0,0,0,224.2,57.054S219.7,75.294,224.143,87.792Z" transform="translate(-33.918 -33.154)"/><path class="r" d="M111.941,243.42l7.506,2.5s34.134-20.267,45.15-69.432c0,0-8.538-14.768-8.895-20.1s5.1-16.476,6.756-30.456-1.651-24.658-1.407-26.272,8.763-1.877,11.128,4.973-1.182,19.2,0,21.562a65.673,65.673,0,0,0,4.035,6.4s12.573-18.953,15.876-20.848,8.538,7.394,10.9,7.844,11.034-11.522,19.385-18.465,23.964-21.655,25.5-21.3a5.93,5.93,0,0,1,3.378,6.042c-.357,2.852-7.112,15.294-17.414,20.267,0,0-12.441,8.538-19.028,20.1,0,0,2.852,4.8,4.8,4.973s13.136-7.281,22.049-10.846,17.058-5.874,18.484-5.329.882,3.753,0,5.874-8.895,8.351-17.6,10.471c0,0-12.986,5.16-17.245,10.49,0,0,.544,5.348,1.877,6.23s12.1-.713,18.672-1.6,14.205.169,15.106,1.07.188,3.9-5.142,5.855-11.747.713-12.817.9-20.436,6.211-22.744,7.638-12.46,16.57-19.741,21.186-17.771,2.271-17.771,2.271-11.672,65.548-17.358,91.632-27.51,53.087-46.463,54.27c0,0-17.077-6.624-18.015-41.716S111.941,243.42,111.941,243.42Z" transform="translate(254.285 7.748)"/><path class="s" d="M229.187,272.824a209.74,209.74,0,0,1-2.139,77.276s-5.63,3.9-6.4,8.876a.343.343,0,0,1,0,.094,29.725,29.725,0,0,0,.375,9.514,35.155,35.155,0,0,0-4.635,6.043,5.63,5.63,0,0,0-.694,2.327,20.249,20.249,0,0,0,1.764,8.332s4.279,11.034,48.79,15.012a577.75,577.75,0,0,1,78.927,12.442s2.684-8.876-2.214-15.632c0,0,7.506-6.756,7.206-9.251s-16.72-30.925-12.46-50.836,20.267-36.067,29.161-74.93c0,0,5.93-1.989,6.286-4.841s-2.608-7.506-2.608-7.506l-1.07,2.027s-20.267-11.616-14.806-60.687,11.259-52.055,21.355-50.667c0,0-8.088-7.506-9.983-7.318s-2.608,3.659-2.608,3.659a21.036,21.036,0,0,1-13.811,0,36.724,36.724,0,0,1-12.479-7.506s-45.037,38.131-64.778,35.786c-22.519-2.665-6.662-27.341-6.662-27.341s-14.149,2.759-21.73,4.522-10.434,0-10.434,0-4.5-6.7-10.434-2.214-13.267,29.124-10.9,68.944S229.187,272.824,229.187,272.824Z" transform="translate(-68.555 51.079)"/><path class="t" d="M266.981,78a16.138,16.138,0,0,1,.582,6.943c-.619,3.284-12.46,6.493-18.071,1.5S266.981,78,266.981,78Z" transform="translate(-29.41 6.156)"/><path class="u" d="M290,171.334c14.693,39.407,55,123.026,55,123.026,53.087,10.19,102.872,1.651,102.872,1.651l2.759-4.579c-18.484-55.921-58.323-128.844-58.323-128.844-48.79-2.608-100.508,5.2-100.508,5.2Z" transform="translate(-290 79.835)"/><path class="v" d="M378.464,205.13s2.252,26.422-3.9,38.844L350.316,191l11.541,2.721-1.52,5.348A30.475,30.475,0,0,1,378.464,205.13Z" transform="translate(-331.419 105.206)"/><path class="w" d="M355.689,191s-3.866,3.078-4.616,5.63-1.877,9.589,6.042,11.728l3.547.957s-2.608,1.182-3.078,2.965,2.5,5.63,7.225,6.624,12.685-.938,15.012-3.078.844-5.085-2.721-5.93c0,0,5.217-1.163,4.973-4.785s-12.2-7.506-24.883-6.343Z" transform="translate(-335.066 105.206)"/><path class="t" d="M280.86,84.177a5.742,5.742,0,0,1-6.155,2.158c-4.241-.9-3.847-8.257-3.078-10.846S280.785,81.794,280.86,84.177Z" transform="translate(-84.836 3.545)"/><path class="x" d="M365.538,181.44s-6.4,5.93-6.4,10.021,9.383,9.251,25.615,11.259a8.37,8.37,0,0,0,0-6.512c-1.52-3.378-9.608-8.125-16.27-9.2Z" transform="translate(-354.523 96.826)"/><path class="y" d="M358.847,207.165s10.978-1.07,10.039,8.97a30.587,30.587,0,0,1-10.659-.45,4.429,4.429,0,0,1-3.547-5.911C355.037,208.592,355.431,207.635,358.847,207.165Z" transform="translate(-329.178 119.346)"/><path class="z" d="M269.823,84.9a23.738,23.738,0,0,0-6.587-11.522c-4.035-4.166-11.822-8.369-17.283-10.509a13.137,13.137,0,0,0-.826,5.1s-.882-3.153-1.651-6.118a21.543,21.543,0,0,0-.863,8.745s4.766,1.689,12.629,3.753A26.028,26.028,0,0,1,269.823,84.9Z" transform="translate(-20.036 -7.991)"/><path class="aa" d="M280.242,85.408s0-15.012-4.354-15.819c-3.641-.694-5.348,7.769-5.348,7.769Z" transform="translate(-83.092 -1.252)"/><path class="aa" d="M268.729,87.286s.15-10.527-8.482-14.262-11.6,8.369-11.6,8.369Z" transform="translate(-30.502 1.167)"/><path class="ab" d="M248.7,86.031c.244,2.2,3.209,6.118,9.608,6.118,5.63,0,11.391-2.852,11.372-6.118a9.608,9.608,0,0,0-.826-3.641,15.407,15.407,0,0,0-6.268-7.131,10.1,10.1,0,0,0-6.174-1.482C249.523,74.49,248.379,83.854,248.7,86.031Z" transform="translate(-31.45 2.423)"/><path class="ac" d="M270.533,80.944c-.094,4.879,2.027,8.595,5.742,8.52a4.091,4.091,0,0,0,3.19-1.22,6.249,6.249,0,0,0,1.182-2.59c.131-.469.263-.976.375-1.52a43.848,43.848,0,0,0-1.614-8.351,17,17,0,0,0-.919-2.252,4.429,4.429,0,0,0-2.214-2.364C273.385,70.116,270.608,76.046,270.533,80.944Z" transform="translate(-83.854 0.059)"/><path class="ad" d="M116.092,101.815a187.42,187.42,0,0,1,11.8,18.765c5.254,9.477,5.63,23.7,5.63,23.7a80.819,80.819,0,0,1,11.56-4.26c4.091-.9-9.964-22.519-9.964-22.519L119.151,99.92Z" transform="translate(341.147 25.37)"/><path class="ae" d="M249.106,81.912a7.412,7.412,0,0,0,14.806,0,.638.638,0,0,0,0-.188,15.407,15.407,0,0,0-6.268-7.131,7.356,7.356,0,0,0-8.52,7.319Z" transform="translate(-26.548 3.089)"/><path class="af" d="M250.3,80.852a5.123,5.123,0,1,0,1.514-3.655,5.123,5.123,0,0,0-1.514,3.655Z" transform="translate(-25.415 4.149)"/><path class="ag" d="M270.53,79.729c0,4.091,2.252,7.394,5.029,7.394a2.965,2.965,0,0,0,.713,0,6.248,6.248,0,0,0,1.182-2.59c.131-.469.263-.976.375-1.52a43.855,43.855,0,0,0-1.614-8.351,17,17,0,0,0-.919-2.252C272.632,72.541,270.53,75.769,270.53,79.729Z" transform="translate(-80.661 1.256)"/><path class="ah" d="M135.683,124s-4.973,1.783-7.206,1.257-3.378-5.367-3.378-5.986,6.38-4.841,6.38-4.841l-8.069,4.072-7.9-9.383a49.372,49.372,0,0,1,10.715-9.852s-6.455,3.9-8.407,2.477a7.506,7.506,0,0,1-2.759-5.423c0-1.332,6.587-8.088,6.587-8.088s-9.927,8.125-10.753,9.383,4.71,21.092,4.71,21.092l10.715,9.683S132.756,125.517,135.683,124Z" transform="translate(361.207 15.123)"/><path class="ai" d="M270.53,78.712c0,2.834,1.557,5.123,3.49,5.123a2.683,2.683,0,0,0,1.351-.394c.131-.469.263-.976.375-1.52a43.855,43.855,0,0,0-1.614-8.351h-.113C272.087,73.57,270.53,75.878,270.53,78.712Z" transform="translate(-78.578 2.273)"/><path class="t" d="M272.063,62.33s3.96,21.092,1.764,31.9c0,0,1.295-16.232-3.641-27.773Z" transform="translate(-76.677 -7.579)"/><path class="aj" d="M278.525,73.967s-.488-7.112-1.539-13.136l-.713,2.477-2.064-5.2s-5.348,3.246-2.083,10.227C272.126,68.318,275.56,67.924,278.525,73.967Z" transform="translate(-82.37 -11.278)"/><path class="t" d="M288,94.06s-.45,4.823-9.383,7.506-16.476,1.051-19.235-2.027a14.562,14.562,0,0,0,8.069,4.391c5.217.938,13.136-.281,16.889-3.153a13.455,13.455,0,0,0,4.917-5.911Z" transform="translate(-71.162 20.233)"/><path class="ak" d="M266.182,96.677A33.777,33.777,0,0,0,258,93.806a20.21,20.21,0,0,1,5.986-.3C265.881,93.994,266.182,96.677,266.182,96.677Z" transform="translate(-45.5 19.661)"/><path class="al" d="M287.758,88.87s-6.174,0-11.86.357S265,88.87,262.856,87.35a12.329,12.329,0,0,0,6.756,10.659,9.27,9.27,0,0,0,5.817,0,14.862,14.862,0,0,1,7.825-3.9S287.983,92.661,287.758,88.87Z" transform="translate(-76.196 14.352)"/><path class="am" d="M276.5,82.424c7.337,1.032,11.259,10.828,11.259,10.828l-13.868,2.364a22.519,22.519,0,0,1-11.034-3.9S269.146,81.392,276.5,82.424Z" transform="translate(-76.2 9.97)"/><path class="an" d="M272.375,91.1s-.694-.657-2.946-.525S265,94.331,265,94.331a16.889,16.889,0,0,1,7.375-3.228Z" transform="translate(-64.829 17.166)"/><path class="ao" d="M118.8,81.962l23.063,42.86s5.967,24.845,16.889,34.622c0,0,1.276,4.748-1.877,11.916L108.344,81.117S114.18,78.678,118.8,81.962Z" transform="translate(342.515 8.124)"/><path class="ap" d="M109.446,89.85l23.063,42.9S149.961,151.513,152.025,166c0,0,3.265,3.753,11.015,4.973L114.513,80.73S109.239,84.183,109.446,89.85Z" transform="translate(336.421 8.549)"/><path class="aq" d="M111.921,127.59l-3.321,1.877s2.834,3.584,3.753,3.059S111.921,127.59,111.921,127.59Z" transform="translate(388.366 49.624)"/><path class="ar" d="M140.875,138.66,127.946,145.6s-1.5-12.5-19.516-33.252L123.893,104a81.911,81.911,0,0,0,16.983,34.66Z" transform="translate(360.481 28.946)"/><path class="as" d="M119.12,120.071s7.506-9.383,14.224-19.835,18.615-27.247,22.706-25.465.525,12.441-3.209,19.2-8.538,9.233-10.659,12.8-8.369,17.208-8.369,17.208S124.168,126.264,119.12,120.071Z" transform="translate(323.426 3.211)"/><path class="at" d="M230.357,95.986S242.1,84.3,249.122,90.919c8.332,7.844,2.439,25.146-6.774,32.633-8.013,6.493-16.626,4.766-18.409-2.965C223.939,120.587,221.5,103.117,230.357,95.986Z" transform="translate(32.059 15.699)"/><path class="au" d="M228.029,101.514s6.924-8.107,12.629-6.024,4.072,11.259,4.072,11.259,0-6.643-3.753-7.656-5.986,3.753-5.986,3.753,1.989.169,1.877,5.78-6.605,10.809-9.214,6.868S228.029,101.514,228.029,101.514Z" transform="translate(34.687 21.187)"/><path class="av" d="M256.22,79.259a1.257,1.257,0,1,0,1.257-1.239,1.257,1.257,0,0,0-1.257,1.239Z" transform="translate(-34.713 6.174)"/><path class="av" d="M273.94,76.967A1.257,1.257,0,1,0,275.2,75.71a1.257,1.257,0,0,0-1.257,1.257Z" transform="translate(-85.685 4.149)"/><path class="aw" d="M292.887,121.909S274.4,157.788,242.22,154.6a104.151,104.151,0,0,0,2.552-21.562s15.012-.394,26.084-4.992c12.517-5.2,21.993-18.465,21.993-18.465Z" transform="translate(-42.593 33.837)"/><path class="ax" d="M131.483,144.78c8.726,2.5,24.939-5.179,26.365-12.554s-9.533-27.379-19.291-26.14-14.468,8.463-12.441,15.012C128.424,128.492,126.51,143.373,131.483,144.78Z" transform="translate(311.063 30.726)"/><path class="ay" d="M141.324,109.464s9.72,16.176,8.839,29.518c0,0,2.552-19.31-6.53-32.952Z" transform="translate(289.137 30.726)"/><path class="az" d="M155.438,138.159s-9.064-1.764-12.8-4.429l10.678,16.195S154.762,143.451,155.438,138.159Z" transform="translate(281.722 55.006)"/><path class="ba" d="M195.436,169.458s-6.343,7.506-10.546,36.855,7.375,46.914,7.375,46.914-11.747-2.214-15.256-36.593S187.968,167,187.968,167Z" transform="translate(178.259 84.169)"/><path class="bb" d="M213.362,383.491s4.279,11.034,48.79,15.012a577.726,577.726,0,0,1,78.928,12.441s2.683-8.876-2.214-15.632c0,0,7.506-6.756,7.206-9.251s-16.72-30.925-12.46-50.836,20.267-36.067,29.162-74.93c0,0,5.93-1.989,6.286-4.841s-2.608-7.506-2.608-7.506l-1.07,2.027s-20.267-11.616-14.806-60.687,11.259-52.055,21.355-50.667c0,0-8.088-7.506-9.983-7.319,0,0-12.047,9.045-20.361,57.7-6.962,40.759-18.54,66.186-18.54,66.186a144.081,144.081,0,0,1-49.522,7.656c-26.684-.9-23.963-4.26-47.4-2.571,0,0,50.667,5.4,69.807,8.876a202.95,202.95,0,0,1,36.724,10.753s-16.27,37.887-13.6,63.108a125,125,0,0,0,8.52,33.177s-3.34,1.314-35.973,0-74.949-18.859-74.949-18.859a.342.342,0,0,1,0,.094,21.749,21.749,0,0,0,.375,9.514s32.6,7.112,62.7,12.8,47.871,15.012,47.871,15.012-6.155,3.434-53.05-1.67-60.444-8.2-62.827-17.733h0A20.247,20.247,0,0,0,213.362,383.491Z" transform="translate(-64.383 52.874)"/><path class="bc" d="M293.529,210.429s-5.63-7.506-18.409-9.5-33.215,2.852-45.75,2.834c0,0,35.054,6.643,48.34,8.538S293.529,210.429,293.529,210.429Z" transform="translate(-19.122 113.493)"/><path class="bd" d="M302.989,137.677s-12.8,22.406-15.181,70.3c0,0-2.12-37.869,10.921-73.692a9.176,9.176,0,0,1,4.26,3.4Z" transform="translate(-138.003 55.488)"/><path class="be" d="M268.46,146.83s3.9,28.148,34.3,68.381c0,0-19.891-16.12-26.872-31.751C268.46,166.871,268.46,146.83,268.46,146.83Z" transform="translate(-101.71 66.489)"/><path class="bf" d="M319.4,243a43.892,43.892,0,0,1-28.148,17.846c-19.2,3.565-44.793-3.077-44.793-3.077s24.639,4.279,43.161-1.877A164.252,164.252,0,0,0,319.4,243Z" transform="translate(-77.064 150.786)"/><path class="bg" d="M232.788,191.81s-14.393-5.949-19.948-16.72c0,0,.863,26.7,15.444,36.4a106.8,106.8,0,0,0,4.5-19.685Z" transform="translate(72.639 91.26)"/><path class="bh" d="M307.272,340.457l-7.506-27.735S286.63,293.637,265.2,284.93l21.074,32.3Z" transform="translate(-100.102 187.54)"/><path class="bd" d="M198.44,448.095a39.032,39.032,0,0,0,9.589,6.756c3.565,6.756,11.034,34.435,11.034,34.435H276.3c-3.19-14.637-17.771-36.555-22.406-44.737s-22.031-64.009-26.666-100.977c-1.877-15.406-3.415-31.676-4.5-45.431,0,1.051-1.877,11.785,3.584,64.009,5.63,53.575,9.57,76.713,9.1,81.442S211.707,459.711,198.44,448.095Z" transform="translate(56.151 199.119)"/><path class="bi" d="M265.27,426.247c1.52,5.236,3.434,9.158,4.485,13.661,1.689,7.112,3.565,34.791,3.565,34.791h49.766a403.442,403.442,0,0,1-7.112-43.8c-2.721-24.489,11.916-108.84,13.136-116.121-1.651,7.769-20.041,95.31-24.207,102.741C295.839,433.64,271.444,439.045,265.27,426.247Z" transform="translate(-122.071 213.704)"/><path class="bj" d="M255.716,376.36a27.285,27.285,0,0,1-23.006,19.816l-3.753-9.889a100.646,100.646,0,0,1-8.407-5.63s5.311,4.035,17.583,2.139S255.716,376.36,255.716,376.36Z" transform="translate(35.242 267.682)"/><path class="bk" d="M313.446,376.713s-8.632,9.7-25.821,11.128c0,0-3.209-8.388-4.485-13.661,0,0,7.187,6.831,15.144,6.831a31.338,31.338,0,0,0,15.162-4.3Z" transform="translate(-139.941 265.771)"/><path class="bl" d="M290,171.334c71.834-9.251,101.033-4.973,101.033-4.973,25.69,44,56.841,129.651,56.841,129.651l2.759-4.579c-18.484-55.921-58.323-128.844-58.323-128.844-48.79-2.608-100.508,5.2-100.508,5.2Z" transform="translate(-290 79.835)"/><path class="bm" d="M354.44,200.77a110.069,110.069,0,0,0,16.476.582,54.587,54.587,0,0,1-17.7.131Z" transform="translate(-328.919 113.77)"/><path class="bn" d="M232.75,138.09a3.928,3.928,0,0,1-.15.432C232.675,138.315,232.731,138.165,232.75,138.09Z" transform="translate(35.596 58.828)"/><path class="bo" d="M346.313,274.769s-17.339.563-53.05-5.8c-37.963-6.756-51.474-22.031-51.474-22.031s-5.461,3.547-6.4,8.876c0,0,32.2,13.6,57.873,16.889S341.115,276.327,346.313,274.769Z" transform="translate(-83.202 154.24)"/><path class="bp" d="M333.757,281.618s-21.505-3.472-45.506-9.383S255.543,260,255.543,260s-3.96,7.713,11.8,12.179S333.757,281.618,333.757,281.618Z" transform="translate(-107.633 165.687)"/><path class="bq" d="M367.37,195.753,290,259.424l3.622,7.506a324.117,324.117,0,0,0,102.872,1.651l2.777-4.466s-17.452-46.67-29.162-70.9Z" transform="translate(-238.639 107.152)"/><path class="br" d="M230.841,308.45a274.279,274.279,0,0,1-3.584,79.641Z" transform="translate(46.137 208.156)"/><path class="bk" d="M289.082,323.541s-13.136,52.149-23.832,74.311c0,0,20.98-28.786,28.617-48.246l4.954-23.194-6.024-24.9Z" transform="translate(-91.745 202.073)"/><path class="bs" d="M273.105,133.776l2.5-.206s-5.142,8.2-6.193,15.012,3.4,11.109,10.359,12.592c0,0-11.259-.638-12.61-8.351S273.105,133.776,273.105,133.776Z" transform="translate(-75.956 54.866)"/><path class="bt" d="M241.829,63.589s11.916,6.868,12.273,15.932-7.3,15.012-7.3,15.012l-1.051-4.9a25.314,25.314,0,0,1-11.372-1.07,26.927,26.927,0,0,1-8.05-4.279s7-4.128,7.168-10.978S221.544,54,221.544,54l10.865,1.276a116.177,116.177,0,0,1,9.42,8.313Z" transform="translate(34.98 -14.881)"/><path class="bu" d="M271.494,69.594S260.572,57.753,258.358,49.44s6.568-12.31,6.568-12.31-3.1,3.434-2.5,11.372S271.494,69.594,271.494,69.594Z" transform="translate(-50.812 -29.668)"/><path class="bv" d="M274.051,62.422s-11.109-19.5-21.543-19.741S239.035,61.653,240.161,64.73c0,0,.3-7.506,13.248-7.975a34.022,34.022,0,0,1,20.642,5.667Z" transform="translate(-19.479 -24.805)"/><path class="bw" d="M279.123,55.864a73.191,73.191,0,0,1-6.756-9.964,84.3,84.3,0,0,0-1.708,11.034s-.826,2.139,6.268,3.209Z" transform="translate(-82.142 -21.981)"/><path class="bx" d="M305.068,105.655,286.021,89.8s-.713,15.012-13.868,17.733-22.969-1.651-26.572-9.946a70.071,70.071,0,0,1-4.26-19.854s-.863-1.351-5.085-1.314a9.27,9.27,0,0,0-5.986,1.708V70.958s8.726-1.351,12.5,1.726c0,0-1.295,23.081,6.924,28.786s15.219,6.455,24.02,1.989c6.812-3.453,9.664-14.449,7.506-20.811l6.4,1.295,18.24,21.43Z" transform="translate(-33.081 -0.276)"/><path class="by" d="M245.515,71.837c3.6-4.785,28.636-.263,35.654,7.506S279.18,102.5,268.033,104.7c-13.023,2.571-19.141-1.633-22.744-7.15C241.5,91.747,242.268,76.172,245.515,71.837Zm.131,23.025c2.927,8.107,13.718,10.828,22.781,8.426,5.63-1.482,15.144-10.171,13-19.948s-31.094-14-34.622-10.265C243.995,76.078,242.756,86.775,245.646,94.862Z" transform="translate(-34.347 -0.967)"/><path class="bz" d="M245.875,71.8c3.6-4.785,28.636-.263,35.654,7.506s-1.989,23.157-13.136,25.352c-13.023,2.571-19.141-1.651-22.744-7.15C241.859,91.707,242.628,76.132,245.875,71.8Zm.169,23.025c2.927,8.107,13.718,10.828,22.781,8.426,5.63-1.482,15.144-10.171,13-19.948s-31.094-14-34.622-10.265c-2.852,3-4.091,13.7-1.163,21.787Z" transform="translate(-35.383 -1.002)"/><path class="ca" d="M271.173,70.583c2.121-3.528,14.3-2.177,17.339,0,1.97,1.407.9,18.465-4.5,25.634a7.506,7.506,0,0,1-9.7,2.44C270.272,95.785,269.109,74.092,271.173,70.583Zm1.689,23.325c1.67,4.616,5.817,5.63,9.871,1.877,3.641-3.378,6.868-19.929,4.5-23.513-1.97-2.984-11.916-3.9-14.768-.769S270.985,88.466,272.862,93.908Z" transform="translate(-91.588 -2.246)"/><path class="cb" d="M271.593,70.583c2.139-3.528,14.318-2.177,17.358,0,1.97,1.407.9,18.465-4.5,25.634a7.506,7.506,0,0,1-9.7,2.439C270.711,95.785,269.473,74.092,271.593,70.583Zm1.726,23.325c1.67,4.616,5.8,5.63,9.871,1.877,3.641-3.378,6.868-19.929,4.5-23.513-1.989-2.984-11.916-3.9-14.768-.769S271.387,88.466,273.32,93.908Z" transform="translate(-92.777 -2.246)"/><path class="cc" d="M275.765,74.08a12.873,12.873,0,0,0-12.235-1.163,6.175,6.175,0,0,0-.3-2.477s4.823-1.426,14.112.807a23.823,23.823,0,0,0-1.576,2.834Z" transform="translate(-66.474 -0.864)"/><path class="cd" d="M228.85,76l6.4,2.064,20.811,22.143a4.785,4.785,0,0,0-2.571.488L234.836,80.954a9.965,9.965,0,0,0-5.329-1.2A8.632,8.632,0,0,0,228.85,76Z" transform="translate(19.323 4.403)"/><path class="ce" d="M236.538,167.15l-.188,3.19,4.279,4.522.206-3.134Z" transform="translate(20.474 -82.15)"/><path class="cf" d="M276.166,70.912l-1.088,1.145a34,34,0,0,0-6.324-.751,10.6,10.6,0,0,0-3.847.338l-.807-1.276a28.6,28.6,0,0,1,12.066.544Z" transform="translate(-66.931 -0.886)"/><path class="cf" d="M284.066,69.7l-.676.882A16.27,16.27,0,0,0,272,69.7l.188-.995a25.971,25.971,0,0,1,11.879.995Z" transform="translate(-89.656 -2.242)"/><path class="cf" d="M270.827,71.058l-.338-.995s-7.975-.844-10.152,1.389a14.75,14.75,0,0,0-2.777,6.943l.995.131s.751-5.01,3.171-6.493S270.827,71.058,270.827,71.058Z" transform="translate(-49.32 -0.938)"/><path class="cg" d="M275.71,87.6s-4.2,5.254-13.811,4.447a17.977,17.977,0,0,1-13.7-7.863,17.865,17.865,0,0,0,13.924,7.412C271.507,91.893,275.71,87.6,275.71,87.6Z" transform="translate(-36.638 11.573)"/><path class="cg" d="M283.775,83.579s-2.608,2.927-5.63,2.515a5.63,5.63,0,0,1-4.016-3.753s1.67,3.415,4.785,3.228a7.356,7.356,0,0,0,4.86-1.989Z" transform="translate(-93.362 9.96)"/><path class="cg" d="M260.715,88.292a5.311,5.311,0,0,1-2.834.619,10.658,10.658,0,0,1-4.241-1.051,33.985,33.985,0,0,0,7.075.432Z" transform="translate(-31.851 14.799)"/><path class="cg" d="M281.709,84.61a6.362,6.362,0,0,1-4.147,0,4.935,4.935,0,0,1-2.252-1.52,2.533,2.533,0,0,0,2.327,2.383,6.755,6.755,0,0,0,4.072-.863Z" transform="translate(-93.51 10.618)"/><path class="ch" d="M276.02,94.6s.357-7.694-8.763-13.136a18.766,18.766,0,0,0-17.527-.788,15.857,15.857,0,0,0,4.616,11.259C259.243,96.631,269.883,96.875,276.02,94.6Z" transform="translate(-39.819 6.928)"/><path class="ch" d="M286.256,86.233S280.1,78.408,273.12,75.95c0,0,.15,10.6,2.552,13.4S282.728,93.083,286.256,86.233Z" transform="translate(-93.947 4.359)"/><path class="ci" d="M240.07,131.239a7.113,7.113,0,0,0,2.158,1.877c10.678,5.461,39.107,4.035,54.514-9.383a65.079,65.079,0,0,0,13.736-17.583,57.892,57.892,0,0,1-27.247,21.862C263.7,135.612,241.44,133.191,240.07,131.239Z" transform="translate(-56.15 30.831)"/></g></g></svg>