<svg xmlns="http://www.w3.org/2000/svg" xmlns:xlink="http://www.w3.org/1999/xlink" width="544" height="554" viewBox="0 0 544 554"><defs><style>.a,.bi{fill:#fff;}.b{clip-path:url(#a);}.c{fill:#fe9083;}.d{fill:#e9e9e9;}.e{fill:#b40b30;}.f{fill:url(#b);}.g{fill:#e21841;}.aa,.ac,.ae,.af,.ag,.ai,.aj,.bd,.g,.w,.y,.z{opacity:0.5;}.h{fill:url(#c);}.i{fill:url(#d);}.j{fill:#c2444b;opacity:0.45;}.k{fill:#ee8183;}.l{fill:url(#e);}.an,.bc,.m{opacity:0.6;}.aa,.ac,.ad,.ae,.ag,.ah,.m,.w,.x,.y,.z{mix-blend-mode:multiply;}.aa,.ac,.ad,.ae,.ag,.ah,.bi,.m,.w,.x,.y,.z{isolation:isolate;}.m{fill:url(#f);}.n{fill:url(#g);}.o{fill:#e28183;}.p{fill:#ef8d70;opacity:0.91;}.q{fill:url(#h);}.r{opacity:0.67;fill:url(#i);}.s{fill:url(#j);}.t{fill:url(#k);}.u{opacity:0.58;fill:url(#l);}.v{fill:#f08166;}.w{fill:url(#m);}.ad,.x,.z{fill:#b30331;}.x{opacity:0.36;}.y{fill:#e21042;}.aa{fill:#e11840;}.ab{fill:#df1b3c;opacity:0.23;}.ac,.af{fill:#c21651;}.ad{opacity:0.76;}.ae{fill:#b40331;}.ag{fill:#d60d3e;}.ah{fill:#d39f50;opacity:0.3;}.ai{fill:url(#n);}.aj{fill:#ab022e;}.ak{fill:url(#o);}.al{fill:url(#p);}.am{fill:url(#q);}.an{fill:url(#r);}.ao{fill:#373f46;}.ap{fill:url(#s);}.aq{fill:url(#t);}.ar{fill:#fbfbfe;}.as{fill:#658946;}.at{fill:#341e58;}.au{fill:#131163;}.av{fill:#c66565;}.aw{fill:#cb5f5f;}.ax{fill:#9f4a4a;}.ay{fill:#ffbcaf;}.az{fill:#ee8b83;opacity:0.48;}.ba{fill:url(#u);}.bb{fill:#d2726c;}.bc{fill:url(#v);}.bd{fill:#292725;}.be{fill:#3f3f3d;}.bf{fill:#dd6668;opacity:0.8;}.bg{fill:#5a5852;}.bh{fill:#ff6389;}.bi{mix-blend-mode:soft-light;}.bj{fill:#ffebed;}</style><clipPath id="a"><rect class="a" width="544" height="554" transform="translate(0 -0.402)"/></clipPath><linearGradient id="b" x1="0.5" y1="1" x2="0.5" gradientUnits="objectBoundingBox"><stop offset="0" stop-color="#c63657"/><stop offset="1" stop-color="#ff1651"/></linearGradient><linearGradient id="c" x1="0.5" y1="1" x2="0.5" gradientUnits="objectBoundingBox"><stop offset="0" stop-color="#f8184b"/><stop offset="1" stop-color="#fe1650"/></linearGradient><linearGradient id="d" x1="1" y1="0.5" x2="0" y2="0.5" gradientUnits="objectBoundingBox"><stop offset="0" stop-color="#f71a4c"/><stop offset="1" stop-color="#fe636a"/></linearGradient><linearGradient id="e" x1="0.501" y1="1" x2="0.501" gradientUnits="objectBoundingBox"><stop offset="0.02" stop-color="#ffc2a9"/><stop offset="1" stop-color="#ff9595"/></linearGradient><linearGradient id="f" x1="0.503" y1="1" x2="0.503" gradientUnits="objectBoundingBox"><stop offset="0" stop-color="#ffeadb"/><stop offset="0.99" stop-color="#c27cb6"/></linearGradient><linearGradient id="g" x1="0.5" y1="1" x2="0.5" y2="-0.001" xlink:href="#e"/><linearGradient id="h" x1="0.5" y1="1" x2="0.5" y2="-0.001" xlink:href="#e"/><linearGradient id="i" x1="0.499" y1="0.999" x2="0.499" y2="-0.002" gradientUnits="objectBoundingBox"><stop offset="0" stop-color="#f09b76"/><stop offset="1" stop-color="#f37c64"/></linearGradient><linearGradient id="j" x1="0.5" y1="1" x2="0.5" gradientUnits="objectBoundingBox"><stop offset="0" stop-color="#ffb0b0"/><stop offset="0.98" stop-color="#ffc2a9"/></linearGradient><linearGradient id="k" x1="0.499" y1="1" x2="0.499" y2="0" xlink:href="#j"/><linearGradient id="l" x1="1" y1="0.5" x2="0" y2="0.5" gradientUnits="objectBoundingBox"><stop offset="0" stop-color="#f59570"/><stop offset="1" stop-color="#eb8870"/></linearGradient><linearGradient id="m" x1="0.567" y1="0.27" x2="0.671" y2="1" gradientUnits="objectBoundingBox"><stop offset="0" stop-color="#ea2156"/><stop offset="1" stop-color="#b30331"/></linearGradient><linearGradient id="n" x1="0.501" y1="1" x2="0.501" gradientUnits="objectBoundingBox"><stop offset="0" stop-color="#dd0150"/><stop offset="1" stop-color="#f92d38"/></linearGradient><linearGradient id="o" x1="0.5" y1="1" x2="0.5" y2="0.001" xlink:href="#e"/><linearGradient id="p" x1="0.5" y1="0.999" x2="0.5" y2="0" xlink:href="#e"/><linearGradient id="q" x1="0.529" y1="0.933" x2="0.483" y2="0.115" gradientUnits="objectBoundingBox"><stop offset="0" stop-color="#dd6668"/><stop offset="1" stop-color="#ef8b71"/></linearGradient><linearGradient id="r" x1="0.5" y1="1" x2="0.5" gradientUnits="objectBoundingBox"><stop offset="0" stop-color="#fda26e"/><stop offset="1" stop-color="#d16078"/></linearGradient><linearGradient id="s" x1="0.499" y1="1" x2="0.499" gradientUnits="objectBoundingBox"><stop offset="0" stop-color="#cf6074"/><stop offset="1" stop-color="#f37270"/></linearGradient><linearGradient id="t" x1="0.501" y1="1" x2="0.501" gradientUnits="objectBoundingBox"><stop offset="0" stop-color="#cf6074"/><stop offset="1" stop-color="#ff817f"/></linearGradient><linearGradient id="u" x1="0.5" y1="1" x2="0.5" gradientUnits="objectBoundingBox"><stop offset="0" stop-color="#444"/><stop offset="1" stop-color="#44423c"/></linearGradient><linearGradient id="v" x1="0.5" y1="1.001" x2="0.5" gradientUnits="objectBoundingBox"><stop offset="0" stop-color="#3a3834"/><stop offset="1" stop-color="#131111"/></linearGradient></defs><g transform="translate(14638.609 11475.152)"><g class="b" transform="translate(-14638.609 -11474.75)"><g transform="translate(-0.375 0.618)"><path class="c" d="M265.322,182.128c-.126.926-.231,1.422-.231,1.422a125.932,125.932,0,0,0,3.483,12.195,100.115,100.115,0,0,0,13.07,26.114,51.051,51.051,0,0,0,5.706,6.852c30.609-9.868,45.693-40.614,51.484-56.019a.8.8,0,0,0,0-.237c1.112-2.887,1.846-5.214,2.308-6.722h0c.357-1.207.525-1.874.525-1.874l-.378-.8v-.108c-.5-1.077-1.007-2.155-1.469-3.232a156.057,156.057,0,0,1-8.392-24.067c-1.489-5.645-2.287-10-2.664-12.3-.189-1.185-.273-1.831-.273-1.831l-14.266,7.735L265.07,155.972a85.233,85.233,0,0,1,1.049,12.8c0,2.693,0,5.106-.189,7.153-.147,2.5-.4,4.482-.587,5.774h0A1.5,1.5,0,0,1,265.322,182.128Z" transform="translate(2.916 23.699)"/><path class="d" d="M279.781,209.706a42.246,42.246,0,0,0,10.154,7.627l.252.151.294-.172h0c1.07-.668,4.72-2.973,9.63-6.765,12.839-9.933,34.28-30.013,40.407-57.075h0a68.784,68.784,0,0,0,1.469-9.89h0c0-.883.126-1.767.147-2.672a139.937,139.937,0,0,1-11.644,21.373c-8.686,13.057-21.714,27.3-37.281,27.385-13.469,0-20.371-9.372-23.875-18.1a50.4,50.4,0,0,1-2.832-9.911c-.147-.776-.252-1.465-.357-2.047h0a1.933,1.933,0,0,0-.1-.8c-.126-.97-.168-1.53-.168-1.53S260.9,190.164,279.781,209.706Z" transform="translate(2.009 46.086)"/><path class="e" d="M279.756,209.694a42.246,42.246,0,0,0,10.154,7.627h.567c1.07-.668,4.72-2.973,9.63-6.765,12.84-9.933,34.28-30.013,40.407-57.075h0a68.8,68.8,0,0,0,1.469-9.89h0c0-.883.126-1.767.147-2.672a139.908,139.908,0,0,1-11.644,21.373s-8.392,23.916-26.812,35.766c-9.189,5.925-16.154,5.063-21.273,1.573a32.439,32.439,0,0,1-10.385-14.091,33.888,33.888,0,0,1-2.685-12.023V171.58a50.4,50.4,0,0,1-2.832-9.911c-.147-.776-.252-1.465-.357-2.047h0a1.935,1.935,0,0,0-.1-.8c-.126-.97-.168-1.53-.168-1.53S260.874,190.152,279.756,209.694Z" transform="translate(2.034 46.098)"/><path class="f" d="M202.7,406.975l.336.172c1.72.215,7.07-.991,14.077-7.218h0c5.874-5.279,12.923-14.091,19.952-28.527,14.056-28.85,18.084-48.112,18.735-51.473v-.517l8.2,13.358c5.559,17.237,16.091,88.23,15.9,91.289s-9.336,17.969-9.147,19.8h0c.252,1.853,4.364,5.925,5.539,10.364.8,2.952-4.783,12.259-8.706,19.219h0a28.62,28.62,0,0,0-3.608,7.713c0,3.253,9.944,19.176,9.944,19.176v8.618l.147.151.462.431.378.323c3.776,3.059,19.784,13.078,69.8,15.836,59.267,3.253,98.75-16.332,98.75-16.332l-2.979-8.381s2.769-2.435,2.979-3.663-2.1-4.094-2.1-4.094,5.958-3.253,5.958-7.347-11.937-16.719-11.539-27.557,9.546-20.4,10.741-26.523-15.5-21.223-15.5-21.223c14.308-46.539,17.1-109,17.1-109l2.958-3.469s17.1,40.011,32.6,59.6c1.846,2.327,3.8,4.632,5.811,6.852A172.105,172.105,0,0,0,502.828,377.8c10.742,9.61,20.5,15.922,22.973,15.427,3.986-.819,19.888-33.073,19.154-66.146-.336-15.728-9.567-33.331-19.154-47.4-1.028-1.508-2.1-2.995-3.1-4.438a224.76,224.76,0,0,0-16.448-20.361c-1.217-1.336-1.909-2.047-1.909-2.047s2.1-7.218,3.671-13.488a3.516,3.516,0,0,1,.1-.452.8.8,0,0,1,0-.215.7.7,0,0,1,0-.151c.881-3.857,1.427-7.2.923-8.015-1.322-2.155-9.021-4.632-10.343-6.248s-6.881-29.13-11.119-32.125-11.224-4.956-35.078-14.587l-3.629-1.465C422.12,165.21,395.875,152,395.875,152L385.8,139.29h-4.49l1.469,3.232v.108c-.713,3.275-1.532,6.464-2.455,9.416a.8.8,0,0,1,0,.237C366.588,197.14,330.922,211.6,330.922,211.6c-24.756-18.766-24.273-48.564-24.273-48.564V158.94l-4.636,1.422-3.168,7.757s-5.371,8.618-26.644,18.185a125.324,125.324,0,0,0-11.686,6.141c-19.469,11.355-41.12,28.914-42.777,32.642a12.327,12.327,0,0,0-.566,1.853h0c-2.287,9.222-6.986,43.759-11.35,56.019a28.18,28.18,0,0,1-10.2,14.134h0a15.816,15.816,0,0,1-4.07,2.155q-.5,2.844-.944,5.623C181.444,364.077,198.752,404.174,202.7,406.975Z" transform="translate(-38.642 44.216)"/><path class="g" d="M198.59,267.155l17.287,5.968,2.769-3.318s17.1,40.011,32.6,59.6c1.846,2.327,3.8,4.632,5.811,6.852A172.063,172.063,0,0,0,270.4,349.5l13.175-58.324L290.27,246.9a224.785,224.785,0,0,0-16.448-20.361c-1.217-1.336-1.909-2.047-1.909-2.047s2.1-7.218,3.671-13.488a3.535,3.535,0,0,1,.1-.453.8.8,0,0,1,0-.215.688.688,0,0,1,0-.151c.881-3.857,1.427-7.2.923-8.015-1.322-2.155-9.021-4.632-10.343-6.248s-6.881-29.13-11.119-32.125c0,0,2.769,26.394-11.937,59.876l-7.154,10.342L215.08,251.254S207.254,262.178,198.59,267.155Z" transform="translate(193.783 72.514)"/><path class="h" d="M176.4,303.978c3.713,28.29,44.77,50.072,44.77,50.072,9.147,0,19.364-16.332,28.637-36.477s9.839-78.017,10.322-81.594,5.664-10.773,5.979-13.789-8.392-9.394-8.392-9.394v-.3c.9-1.982,5.979-13.165,5.623-15.211s-10.112-7.132-10.112-7.132l-.608,11.01S230,196.853,222.345,178.776L221,173.26l-3.776,2.586v23.7s-.776,3.684-1.972,3.684-10.007-4.525-11.853-3.9-3.692,13.294-6.168,14.91-9.021,6.334-10.007,8.618a42.018,42.018,0,0,0-.525,8.942,93.775,93.775,0,0,1-.86,14.953C184.6,253,172.687,275.667,176.4,303.978Z" transform="translate(265.988 83.437)"/><path class="i" d="M342.376,246.114c1.846,2.995,11.119,9.265,13.511,11.721s0,10.493,0,10.493a322.843,322.843,0,0,0,83.666,65.8l.336.172c24.462-16.892,22.364-44.707,14.245-68.149A178.531,178.531,0,0,0,432.484,224.4h0a50.167,50.167,0,0,0-12.42-3.534,7.4,7.4,0,0,0-4.595,1.465c-2.979,1.9-5.5,4.891-7.93,3.641-3.587-1.853-11.6-21.309-17.035-21.847-3.8-.366-9.063,3.6-12.588,5.86-1.532.991-2.727,1.659-3.315,1.487-2.1-.539-8.748-8.855-9.294-9.071s-3.608,2.155-3.608,2.155l2.1,2.758a76.407,76.407,0,0,1-14.2,32.685l-7.28-10.945S340.509,243.119,342.376,246.114Z" transform="translate(-275.5 117.062)"/><path class="j" d="M270.034,180.284a2.318,2.318,0,0,0,.1.84,17.053,17.053,0,0,0,.4,1.724h0c2.5,9.5,12.588,19.219,25.322,14.543,13.909-5.106,40.386-62.7,40.386-62.7l-2.664-12.3-62.938,52.572-.692,4.977Z" transform="translate(-1.901 24.703)"/><path class="k" d="M173.368,183.385s3.839-21.783,2.1-37.834a179.2,179.2,0,0,1,.441-34.3,8.413,8.413,0,0,1,6.588,0c2.79,1.638,9.273,18.249,6.294,31.586s-.671,45.246-.671,45.246H192.5l9.546-13.466,4.636-1.379s26.686,25.855,26.287,41.239l-3.483,13.682-32.875-1.163-21.378-25.015Z" transform="translate(303.993 11.066)"/><path class="l" d="M174.38,139.69a179.425,179.425,0,0,1-4.49,31.845A7.486,7.486,0,0,0,177.38,178l1.678-1.939s1.2,6.83,7.259,7.347l5.769-5.925-1.49,4.891a8.154,8.154,0,0,0,7.553,5.02s9.147-7.347,9.734-16.957l-9.042-7.843V156.56L188.121,148.8l-.21-4.309A24.915,24.915,0,0,0,174.38,139.69Z" transform="translate(336.381 44.677)"/><path class="m" d="M184.986,124.67a15.467,15.467,0,0,0,3.9,5.839,32.627,32.627,0,0,0,8.9,2.887l.294,38.481h4.385l9.546-13.466s-4.846,7.67-5.14,13.466l3.776,1.9,3.273-11.527,1.553,8.3-1.532,10.342a26.005,26.005,0,0,0-15.9-5.214l-1.531,2.866s18.5,15.75,22.784,25.036c0,0-9.147-11.936-30.022-25.1l-1.972-6.313-2.643-15.082S187.251,135.271,184.986,124.67Z" transform="translate(294.012 27.336)"/><path class="n" d="M175.083,185.842c1.72,5.3,19.742,27.342,21.735,32.125a65.962,65.962,0,0,1,3.189,11.01c8.853,19.779,30.357,22.386,30.357,22.386l.986-17.754s11.518-6.808,13.469-10.536h0l.231-.625a152.227,152.227,0,0,0,0-16.332l-20.161-8.381c-8.748-11.635-30.022-25.1-30.022-25.1l-.986-6.1c15.273-7.713,12.714-31.048,10.133-33.913a11.158,11.158,0,0,0-7.343-2.844s-5.58,18.766-9.147,27.557S173.363,180.542,175.083,185.842Z" transform="translate(288.495 33.236)"/><path class="o" d="M188.143,141.87s-2.245,21.438-8.853,31.651a50.852,50.852,0,0,0,9.063-27.255Z" transform="translate(336.191 47.194)"/><path class="o" d="M186.768,147.51s-2.1,17.237-12.588,26.846c0,0,9.168-4.7,12.588-20.813Z" transform="translate(348.497 53.706)"/><path class="p" d="M181.57,168.59s22.721,22.666,37.239,20.21l-.986,17.754a38.678,38.678,0,0,1-31.616-28.01A68.807,68.807,0,0,0,181.57,168.59Z" transform="translate(300.952 78.045)"/><path class="q" d="M369.632,226.469s20.875,39.192,45.316,51.236h8.392l19.28,30.013s12.462-8.037,13.385-34.473a24.241,24.241,0,0,1-5.476-9.911s6.881-5.559,8.749-9.631,2.517-16.332,3.839-21.373,12.588-15.513,15.105-16.87,13.909-2.047,13.909-2.047,1.595-4.309,0-6.248-19.343-9.135-29.015-2.327a45.8,45.8,0,0,1-1.72,7.907c-1.07,2.715-9.546,12.367-10.867,12.367s-7.028-4.891-9.546-8.618a389.889,389.889,0,0,1-18.336-41.627,1.1,1.1,0,0,0,0-.28,2.556,2.556,0,0,0-.126-.431,2.072,2.072,0,0,1,0-.28s0,0,0-.108c-2.392-8.3-16.3-24.217-23.728-28.57a4.385,4.385,0,0,0-4.888,3.253s5.958,17.431,12.189,27.773c1.049,1.745,2.1,3.792,3.357,5.99h0c5.308,10.019,11.287,23.14,12.147,25.058l.1.237-3.315,1.745-8.958-8.726-9.189-8.942-21.084,22.86,2.1,2.715,6.588,8.618-3.336.625-7.762-8.812Z" transform="translate(-367.624 50.977)"/><path class="r" d="M389.8,218.834l6.671,10.062s36.546-28.936,44.5-31.457,10.867-.819,10.867-.819l8.2,10.773s-15.105,13.746-16.427,32.319c0,0,5.035-23.4,22.133-30.487-1.322,0-7.028-4.891-9.546-8.618a389.891,389.891,0,0,1-18.336-41.626,11.045,11.045,0,0,1-.336,7.347c-1.8,3.426-12.42.194-13.049,0h0l12.168,25.058.1.237-3.315,1.745-8.958-8.726,4.49,10.773-32.686,5.925,6.587,8.618-3.336.625Z" transform="translate(-382.841 66.949)"/><path class="s" d="M428.176,166.677s-6.294-.948-10.49,7.5l.923,2.715s-6.294,1.25-12.189,11.57a34.089,34.089,0,0,0,18.42,14.414s6.084-1.767,7.154-7.067l-1.2-3.4,4.762,3.684s5.706,1.767,8.224-6.959Z" transform="translate(-395.747 75.799)"/><path class="t" d="M420.909,187.172a10.137,10.137,0,0,1,5.161-10.342l12.588,14.285a6.556,6.556,0,0,1-5.832,5.58S424.224,193.7,420.909,187.172Z" transform="translate(-420.81 87.558)"/><path class="u" d="M421.61,195.53a93.07,93.07,0,0,1-35.98,24l9.231,14.349,19.238-25.1-1.238-3.62S420.561,199.214,421.61,195.53Z" transform="translate(-329.956 109.149)"/><path class="v" d="M414.841,171.4s6.084,10.342,12.189,15.513l1.2,3.4s-11.832-8.209-16.2-17.668A7.39,7.39,0,0,1,414.841,171.4Z" transform="translate(-391.958 81.289)"/><path class="w" d="M326.577,272.985c1.846,2.995,11.119,9.265,13.511,11.721s0,10.493,0,10.493A322.843,322.843,0,0,0,423.753,361l.336.172c3.189.409,18.693-4.072,34.2-35.917,14.056-28.85,18.084-48.112,18.735-51.473v-.517L473.6,268.5l-5.077-58.777-3.567,11.829c-13.511-16.741-26.245-42.445-26.245-42.445l-.566,1.853h0c-2.287,9.222-6.986,43.759-11.35,56.019a28.179,28.179,0,0,1-10.2,14.134h0c12.441,11.656,18.609,28.419,21.651,41.756a118.592,118.592,0,0,1,2.979,21.546,147.57,147.57,0,0,0-14.308-36.628,78.218,78.218,0,0,0-15.378-19.068,124.108,124.108,0,0,0-12-9.868c-2.979,1.9-5.5,4.891-7.93,3.641,16.364,25.23,15.965,75.173.587,65.65s-18.882-29.733-18.882-29.733c3.629-24.627,2.559-52.4-.357-57.678-3.545,0-13.678,7.433-14.266,7.261A87.1,87.1,0,0,1,346.381,286.6l-8.748-13.9a87.947,87.947,0,0,0,11.79-43.5c-.524-.237-3.608,2.155-3.608,2.155l2.1,2.758a76.422,76.422,0,0,1-14.119,32.75l-7.28-10.945S324.709,269.99,326.577,272.985Z" transform="translate(-259.7 90.191)"/><path class="x" d="M175.69,459.665v8.618l.147.151.462.431.378.323c3.776,3.059,19.784,13.078,69.8,15.836,59.267,3.253,98.75-16.332,98.75-16.332l-2.979-8.381s2.769-2.435,2.979-3.663-2.1-4.094-2.1-4.094,5.958-3.254,5.958-7.347c0-3.684-9.734-14.35-11.308-24.368a14.949,14.949,0,0,1-.231-3.189c.4-10.773,9.462-20.318,10.721-26.437h0c1.2-6.119-15.5-21.223-15.5-21.223,14.308-46.539,17.1-109,17.1-109l2.622-3.447s17.1,40.011,32.6,59.6,38.162,36.391,42.127,35.572c9.147,0,19.364-16.332,28.637-36.477s9.839-78.017,10.322-81.594,5.664-10.773,5.979-13.789c-9.944,17.56-25.784,12.389-25.784,12.389,11.476.259,17.434-21.783,17.434-21.783v-.3l5.6-15.19c-.63.733-13.742,15.793-26.413,6.464-12.986-9.523-19.679-28.01-19.679-28.01v23.7s-.776,3.684-1.972,3.684a296.259,296.259,0,0,0,5.748,37.253c5.9,28.29,13.972,55.61,13.972,55.61s-21.9-12.238-29.6-43.264a134.247,134.247,0,0,1-3.923-37.145,95.531,95.531,0,0,1,1.762-15.534,3.521,3.521,0,0,1,.1-.453.8.8,0,0,1,0-.215h0l-2.1,4.611-4.028,10.256c-4.678,39.817,4.972,99.822,4.972,99.822-14.056-17.969-16.972-57.7-16.364-67.352.273-4.611.629-10.3.86-14.953.315-5.085.524-8.941.524-8.941l-28.763,17.624,5.308-17.237-20.98,17.237s-18.881,23.27-38.162,25.984-90.359,1.1-90.359,1.1,61.743,4.072,79.722,9.523,21.462,11.7,21.462,11.7c-13.028,68.063-85.135,91.009-87.38,91.7,65.414-10.083,95.855-67.2,95.855-67.2s1.07,32.125-3.965,44.363-34.721,42.187-72.883,48.435a85.649,85.649,0,0,1-9.5.991c-32.182,1.551-58.743-15.34-61.554-17.237l-.231-.151h0c1.028,1.616,14.224,20.662,67.512,22.752,3.231.129,6.294.108,9.441,0h0c49.386-2.155,74.54-35.917,74.54-35.917s18.273,10.083,6.609,25.036l-.378.474c-3.441,4.072-11.014,9.049-19.972,14.177l-.734.431c-10.825,6.141-23.518,12.475-33.336,17.711h-.147a123.488,123.488,0,0,0-13.679,8.037h0c-2.769,2.155-3.336,3.4-.629,3.727,13.783,1.637,65.98-10.062,68.1-6.808s-2.581,11.7-2.581,11.7c-47.917,24.39-150.444,12.367-153.675,12,86.142,22.774,156.423-5.882,156.423-5.882L337,464.211a299.7,299.7,0,0,1-83.268,14.694c-45.064,1.077-73.155-10.773-73.155-10.773Z" transform="translate(59.946 84.776)"/><path class="y" d="M356.955,216.87s-34.113,1.918-56.645,8.037l11.6,18.1A153.727,153.727,0,0,1,356.955,216.87Z" transform="translate(-86.304 133.788)"/><path class="z" d="M275.8,261.71s21.294,18.249,42.232,26.674a138.116,138.116,0,0,0,41.078,9.265s-12.042,3.663-41.644-1.228S277.6,275.047,277.6,275.047Z" transform="translate(-37.039 185.559)"/><path class="aa" d="M277.639,310.23h0c39.4,10.45,89.415-4.546,88.995-6.464s-13.7.819-44.5-5.516c-29.854-6.141-40.679-17.043-41.329-17.711.252,1.853,4.364,5.925,5.539,10.363C287.142,293.963,281.562,303.271,277.639,310.23Z" transform="translate(-48.423 207.3)"/><path class="ab" d="M213.21,246.195c33.567,3.512,42.714,13.143,42.714,13.143,9.462,1.228,30.714-23.7,30.714-23.7l2.769-3.275s17.1,40.011,32.6,59.6c1.846,2.327,3.8,4.632,5.811,6.852l-2.2-5.085s-3.608-1.767-4.657-21.223,7.951-48.435,8.014-52.378,1.385-23.894,1.385-23.894L301.6,213.855l5.308-17.237-20.979,17.237s-8.2,12.669-28.91,23.226C237.525,247.1,215.623,246.3,213.21,246.195Z" transform="translate(123.022 109.957)"/><path class="ac" d="M223.032,195.931,217.3,211.423s-5.832,20.9-17.434,21.783S176.94,198.15,176.94,198.15v-23.7S189.276,201.6,202.6,204.614,223.032,195.931,223.032,195.931Z" transform="translate(306.442 84.811)"/><path class="ad" d="M332.905,193.32l-3.567,11.829-3.608,97.064a239.247,239.247,0,0,0,15.588-44.837l-3.336-5.279S332.36,215.512,332.905,193.32Z" transform="translate(-123.997 106.597)"/><path class="ae" d="M400.228,206.58s2.1,47.681-17.707,51.71l-.986,5.214S407.067,262.513,400.228,206.58Z" transform="translate(-301.148 121.907)"/><path class="ac" d="M203.107,196s-9.546,18.077-27.441,12.41c0,0,10.721,7.412,21.462,1.379C197.128,209.725,203.8,197.982,203.107,196Z" transform="translate(328.989 109.692)"/><path class="af" d="M202.835,185.35s-13.133,50.417,21.126,88.338a58.418,58.418,0,0,1-27.273-38.89A85.538,85.538,0,0,1,202.835,185.35Z" transform="translate(266.721 97.396)"/><path class="ag" d="M298.726,166.65s1.469,22.752,12.105,39.084,31.679,27.342,31.679,27.342-26.434-10-38.56-24.067S298.726,166.65,298.726,166.65Z" transform="translate(-64.433 75.805)"/><path class="ag" d="M314.586,150.76a147.552,147.552,0,0,1-5.9,38.416c-5.958,19.391-57.715,53.283-57.715,53.283s53.33-22.774,63.673-43.221S314.586,150.76,314.586,150.76Z" transform="translate(54.919 57.459)"/><path class="ag" d="M259,168.061c1.636,20.038,7.574,34,13.909,43.415,8.727,12.927,18.168,17.344,18.168,17.344a108.571,108.571,0,0,0,24.672-15.276,129.487,129.487,0,0,0,40.364-61.405c-12.588,31.328-31.175,50.309-45.232,61a90.287,90.287,0,0,1-19.742,11.893V215.009a63.965,63.965,0,0,0,6.5-2.93c24.756-12.82,37.763-39.537,43.847-56.816h0a125.356,125.356,0,0,0,4.573-15.922h-4.49l1.469,3.232v.108c-.713,3.275-1.531,6.464-2.455,9.416a.805.805,0,0,1,0,.237c-13.846,44.751-49.511,59.208-49.511,59.208-24.756-18.766-24.273-48.564-24.273-48.564v-4.094l-4.636,1.422Z" transform="translate(1.202 44.273)"/><path class="ah" d="M388.078,203.21s6.734,22.558.357,57.678c0,0-3.168-44.492-5.56-48.37s-9.063-2.047-9.063-2.047a149.774,149.774,0,0,1,14.266-7.261Z" transform="translate(-274.731 118.016)"/><path class="ai" d="M347.486,353.782c5.874-5.279,12.923-14.091,19.952-28.527,14.056-28.85,18.084-48.112,18.735-51.473l-3.336-5.279-4.469-44.384-4.2-2.564a182.3,182.3,0,0,1-26.329-42.445,12.328,12.328,0,0,0-.566,1.853h0c-2.287,9.222-6.986,43.759-11.35,56.019a28.179,28.179,0,0,1-10.2,14.134s25.826,39.343,27.084,67.417C354.031,344.172,348.493,352.489,347.486,353.782Z" transform="translate(-168.851 90.191)"/><path class="aj" d="M234.83,325.081s46.553-7.843,65.561-20.425h0a14.95,14.95,0,0,1-.231-3.189c.4-10.773,9.462-20.318,10.721-26.437-.21.582-1.573,3.814-8.182,9.631a140.387,140.387,0,0,1-19.972,14.177l-.734.431c-13.427,8.144-24.987,13.66-33.336,17.711h-.147c-7.511,3.62-12.378,6.011-13.679,8.037Z" transform="translate(97.143 200.938)"/><path class="z" d="M277.64,280.59c.252,1.853,4.364,5.925,5.539,10.363,0,0,17.077,18.573,80.288,12.928-.42-1.831-13.7.819-44.5-5.516C289.116,292.246,278.29,281.258,277.64,280.59Z" transform="translate(-45.256 207.358)"/><path class="ak" d="M302.877,235.1a64.273,64.273,0,0,0,39.63-5.99c20.791-10.342,38.267-40.937,39.337-48.435s-7.951-27.492-7.951-43.092,7.406-42.187-5.035-56.622-69.694-16.59-88.261,1.918c0,0-5.748,14.823-5.748,23.2a62.608,62.608,0,0,0,.881,8.424c.168,1.271.4,2.629.608,4.029,1.657,10.148,3.944,22.537,2.874,28.01a27.767,27.767,0,0,1-1.658,5.3h0c-2.287,5.429-5.685,9.76-6.294,14.457C270.464,172.5,278.478,216.049,302.877,235.1Z" transform="translate(-50.228 -36.292)"/><path class="al" d="M263.125,106.356s5.14-13.251,18.063-13.466c0,0,7.553,3.081,8.748,8.985,0,0-2.79,21.546-5.958,31.435s-14.853,8.618-14.853,8.618a52,52,0,0,1-6-35.572Z" transform="translate(60.624 -9.357)"/><path class="am" d="M341.869,120.3a11.579,11.579,0,0,0-6.168,1.077c-1.846,1.444-8.6,8.166-17.161,10.019s-14.266-5.645-16.091-6.033-3.818,2.262-3.818,2.262a7.224,7.224,0,0,1,5.224-4.438s1.8,7.045,14.2,4.632,17.644-8.058,17.644-8.058l.629-1.163A33.36,33.36,0,0,1,341.869,120.3Z" transform="translate(-67.694 20.327)"/><path class="an" d="M346.948,109.663l-.168-1.357s-12.357-22.278-36.8-22.882S280,100.506,280,100.506l-4.553-7.024,10.322-21.546,71.834-1.207,17.5,14.479,2.2,35.486-7.783,46.841L350.64,177.877l-5.329-4.848c1.972-15.685,13.322-30.013,13.322-30.013l-8.287-5.9s-21.252,10.557-33.567,7.39c0,0-9.252-27.686-8.706-48.219C308.073,96.283,339.563,101.066,346.948,109.663Z" transform="translate(-54.5 -34.942)"/><path class="ao" d="M330.394,99.108s-1.2-8.015-14.371-11.225C301.337,84.306,289.4,81.29,289.4,81.29s2.6,8.791,7.49,12.087c0,0,15.546-.582,23.413,1.271S330.394,99.108,330.394,99.108Z" transform="translate(-36.855 -22.75)"/><path class="ao" d="M316.7,84.57s7.469,5.9,12.588,19.973c0,0-4.867-6.464-9.336-6.464a2.531,2.531,0,0,0-2.038.941,2.68,2.68,0,0,0-.542,2.227A30.167,30.167,0,0,1,316.7,84.57Z" transform="translate(-91.192 -18.963)"/><path class="ap" d="M314.932,111.463s-.8-16.935-16.888-21.223a35.01,35.01,0,0,0-6.294,16.332S300.226,104.934,314.932,111.463Z" transform="translate(-26.324 -12.417)"/><path class="aq" d="M327.215,113.115s-1.3-13.488-8.832-18.465c0,0-5.14,3.943-4.615,15.233C313.768,109.883,318.257,108.332,327.215,113.115Z" transform="translate(-84.72 -7.325)"/><path class="ar" d="M314.221,102.839s-5.224,6.615-19.867,7.907a24.089,24.089,0,0,1-2.518-12.928S305.3,96.526,314.221,102.839Z" transform="translate(-25.612 -3.793)"/><path class="as" d="M304.5,97.689a18.979,18.979,0,0,1,3.378,11.958,55.793,55.793,0,0,1-7.595,1.293,20.733,20.733,0,0,1-2.518-12.927A19.989,19.989,0,0,1,304.5,97.689Z" transform="translate(-31.538 -3.986)"/><path class="at" d="M306.779,110.167S308.1,101.01,303,97.52l-4.2.539a18.92,18.92,0,0,0,2.517,12.927S305.5,110.469,306.779,110.167Z" transform="translate(-32.604 -4.011)"/><path class="au" d="M318.079,103.146s-9.734-5.817-26.329-2.5l3.084-2.392A27.2,27.2,0,0,1,318.079,103.146Z" transform="translate(-29.471 -4.1)"/><path class="av" d="M312.225,100.55a37.746,37.746,0,0,1-19.7,9.588l-.314-4.525,1.112,1.918S304.966,106.755,312.225,100.55Z" transform="translate(-24.581 -0.513)"/><path class="aw" d="M333.294,113.578a34.065,34.065,0,0,0-10.49,0c-6.755.819-14.371,2.715-18.5,0,0,0,5.5,5.667,10.28,6.464s12.063-3.447,12.063-3.447h3.168A8.853,8.853,0,0,0,333.294,113.578Z" transform="translate(-71.014 14.06)"/><path class="ax" d="M312,115.253a5.058,5.058,0,0,0-3.042-.819c-1.385.28-2.811,2.348-2.811,2.348a13.577,13.577,0,0,1,5.853-1.53Z" transform="translate(-53.605 15.509)"/><path class="ay" d="M308.718,123.609c-1.783-1.767,7.364-18.508,11.749-19.111s8.392,18.745,8.392,18.745-6.084.883-11.979,1.681S308.718,123.609,308.718,123.609Z" transform="translate(-75.369 4.029)"/><path class="az" d="M315.047,88.924c2.476-.323,11.224,10.6,11.224,10.6s3.923,12.481,4.561,19.95a11.148,11.148,0,0,1-.092,2.975c-1.091,5.236-14.686,8.037-14.686,8.037l-.566-.926h0a27.764,27.764,0,0,0,1.657-5.3c.441-2.237.312-5.655-.148-9.982-.56-5.283-1.752-12.035-2.726-18.028a21.348,21.348,0,0,1-.608-4.029C313.683,90.6,313.914,89.1,315.047,88.924Z" transform="translate(-88.244 -13.944)"/><path class="ba" d="M283.158,200.933c2.79-5.99,1.07-9.114,25.3-12.367,34.3-4.632,37.239,6.119,43.071,4.482a5.5,5.5,0,0,0,.692-.259c6.294-2.521,21.189-17.538,21.567-37.77.4-21.029-13.322-35.938-13.322-35.938,4.972-4.309,6.965-16.72,1.595-22.041S347.544,92.967,325.1,95.4s-22.469,1.034-22.469,1.034c-7.133,1.875-11.224,8.748-12.378,10.945-.231.431-.336.689-.336.689l-2.79-2.65a38.3,38.3,0,0,0-6.168,23.463s-12.315-25.726-10.909-29.367A98.34,98.34,0,0,1,280.158,82.28h0S282.151,62.7,288.109,62.7s31.469,5.9,31.469,5.9a38,38,0,0,1-2.392-14.479l.1.108c8.392,7.649,16.427,8.489,27.924,13.962A29.146,29.146,0,0,1,355.978,76.2l.776.948.818,1.013a35.121,35.121,0,0,0,2.6,3.167.7.7,0,0,0,.126.129h0a33.265,33.265,0,0,0,3.336,3.21c7.553,6.313,24.168,10.536,26.161,17.237s-2.518,15.772-4.909,25.165a52.468,52.468,0,0,0-1.28,17.689,35.51,35.51,0,0,0-5.287,25.855c2.329,13.725,7.427,15.965,7.427,15.965a24.079,24.079,0,0,1,1.888,14.63c-7.343,29.992-37.763,47.853-37.763,47.853-27.022,10.342-44.791,5.839-44.791,5.839h0c-19.658-13.165-26.392-56.73-26.686-58.755C278.731,196.71,282.382,202.527,283.158,200.933Zm12.126,27.773c4.762-.819,5.769-13.208,7.343-14.845s10.217-.948,10.217-.948,7.951,9.265,11.119,9.523,20.14-6.808,16.469-17.409-16.469-11.979-16.469-11.979a30.573,30.573,0,0,1-16.553,6.464c-9.944.668-13.532-1.206-14.686-1.745s-7.595,2.435-7.427,11.7c-.042,6.356,5.161,20.059,9.944,19.24Z" transform="translate(-55.914 -54.12)"/><path class="bb" d="M320.987,106.21s-8.56,10.924-7.741,15.082c.881,4.5,10.8,6.895,10.8,6.895s-7.951-2.823-9.588-6.895a55.474,55.474,0,0,1,6.525-15.082Z" transform="translate(-80.421 6.022)"/><path class="bc" d="M269.934,107.347c1.154-2.155,5.245-9.071,12.378-10.945,0,0,0,1.422,22.469-1.034s31.532-3.663,36.966,1.551,3.378,17.754-1.594,22.041c0,0,13.721,14.91,13.322,35.938-.378,20.232-15.252,35.249-21.567,37.77l.294,2.155s-1.112,46.323-12.084,50.008-33.693,1.767-35.812,3.943.294,5.623.5,5.947h0s17.77,4.5,44.791-5.839c0,0,30.378-17.861,37.763-47.853a24.078,24.078,0,0,0-1.888-14.63s-5.1-2.155-7.427-15.965a35.51,35.51,0,0,1,5.287-25.855,52.465,52.465,0,0,1,1.28-17.689c2.392-9.394,6.9-18.508,4.909-25.166a28.021,28.021,0,0,1-20.979-4.762s-2.224-3.167-12.063-4.8S287.1,94.613,287.1,94.613A33.554,33.554,0,0,1,299.41,88.99c7.888-2.155,34.826.345,37.763.582-3.084-.56-33.567-5.947-37.113-4.869s-16.909,7.347-16.909,7.347c1.049-5.9,12.881-20.986,12.881-20.986a180.893,180.893,0,0,1,27.693,2.672,35.245,35.245,0,0,1,16.154,7.627l-2.6-3.167-.818-1.013-.776-.948-3.818-.668-19.175-7.95C306.25,64.083,298,55.335,297,54.258l-.1-.108a38,38,0,0,0,2.392,14.479c-16.2-2.047-21.672-1.013-21.672-1.013C270.186,78.324,269.934,107.347,269.934,107.347Z" transform="translate(-35.641 -54.085)"/><path class="bd" d="M334.843,145.667a98.934,98.934,0,0,0-24.9-1.81c-15,.625-23.6.689-19.888,7.649C290.051,151.506,308.87,155.88,334.843,145.667Z" transform="translate(-40.863 49.322)"/><path class="be" d="M316.384,63.307s-9.105-3.641-12.714-3.059a7.1,7.1,0,0,1,2.916-2.348c1.489-.409,31.469,6.464,31.469,6.464S319.342,62.079,316.384,63.307Z" transform="translate(-74.454 -49.777)"/><path class="be" d="M280.47,62.155s.713,10.191,3.881,13.876L321.464,80.9l10.888-1.982a27.137,27.137,0,0,1-8.832-7.39C318.883,65.99,294.673,60.539,280.47,62.155Z" transform="translate(-20.079 -45.177)"/><path class="be" d="M332.594,67.22a87.782,87.782,0,0,0-3.273,15.319l-6.881,1.853A51.268,51.268,0,0,1,332.594,67.22Z" transform="translate(-108.371 -38.995)"/><path class="bf" d="M263.42,120.251s2.622-12.927,9.021-19.219a14.77,14.77,0,0,1,13.679-4.309s-1.993,23.851-4.07,29.669-5.266,7.347-5.266,7.347a18.6,18.6,0,0,0,5.056-11.915c.608-7.886.8-19.025-.881-20.339s-8.518,3.835-8.518,3.835a23.956,23.956,0,0,1,3.441,9.739c1.3,7.045-3.483,12.152-5.266,12.044s.1-8.144-.21-10.45S266.147,114.908,263.42,120.251Z" transform="translate(61.924 -5.283)"/><path class="bg" d="M310.54,120.05s8.686,40.657,26.707,58.777C337.247,178.827,316.687,170.532,310.54,120.05Z" transform="translate(-88.059 22.001)"/><path class="bg" d="M327.218,57.89s-4.574,3.663-5.434,16.353,4.49,26.825,4.49,26.825a52.032,52.032,0,0,1-7.553-22.128C318.155,67.37,323.588,59.355,327.218,57.89Z" transform="translate(-95.107 -49.767)"/><path class="be" d="M328.472,70.558a105.01,105.01,0,0,1-22.217,4.762L292.24,76.612s4.679-4.654,14.686-6.054a98.232,98.232,0,0,1,21.546,0Z" transform="translate(-40.891 -35.826)"/><path class="bh" d="M377.33,164s-36.148,27.1-40.826,36.434S329.917,239,323.56,251.67c0,0,4.343-20.706,7.385-36.951s2.308-16.461,4.007-20.426S363.631,170.981,377.33,164Z" transform="translate(-155.457 72.745)"/><path class="bi" d="M316.643,234s17.413,76.6,16.616,81.766-12.063,15.728-12.588,18.616c0,0,8.622,11.85,8.224,14.479s-15.105,19.219-14.686,24.368c.1,1.487,9.651,17.646,9.651,17.646S313.076,375,312.552,372.453s13.2-23.7,13.616-25.855c1.028-5.58-6.86-9.674-7.133-13.358s10.7-12.647,10.783-18.637S316.643,234,316.643,234Z" transform="translate(-88.287 153.566)"/><path class="ay" d="M201.1,173.026s9.734-2.155,13.784-10.773,1.406-21.373,1.406-21.373a221.789,221.789,0,0,1-11.434,20.167C201.063,166.089,200.035,171.927,201.1,173.026Z" transform="translate(262.473 46.051)"/><g transform="matrix(0.999, -0.035, 0.035, 0.999, 234.577, 319.665)"><g transform="translate(0 0)"><g transform="translate(0 0)"><path class="a" d="M4.992.221.029,12.334a.387.387,0,0,0,.346.537l2.012,0a.378.378,0,0,0,.347-.242l.82-2.044A.386.386,0,0,1,3.9,10.34l4.584,0a.376.376,0,0,1,.346.242l.816,2.05a.384.384,0,0,0,.346.242l2.027,0a.385.385,0,0,0,.347-.538L7.41.234A.377.377,0,0,0,7.063,0L5.332,0A.334.334,0,0,0,4.992.221ZM4.9,7.252l.96-2.385a.376.376,0,0,1,.7,0l.948,2.383a.388.388,0,0,1-.347.538l-1.916,0A.391.391,0,0,1,4.9,7.252Z" transform="translate(0 2.426)"/><path class="a" d="M8.7,1.162A5.177,5.177,0,0,0,5.155,0L.387,0A.383.383,0,0,0,.011.391L0,12.491a.382.382,0,0,0,.375.386l1.9,0a.383.383,0,0,0,.376-.386l0-3A.383.383,0,0,1,3.032,9.1l2.034,0a5.227,5.227,0,0,0,3.59-1.2,4.369,4.369,0,0,0,1.381-3.422A4.144,4.144,0,0,0,8.7,1.162ZM5.075,6.5l-2.034,0a.382.382,0,0,1-.375-.386l0-3.141a.383.383,0,0,1,.376-.386l2.034,0a2.631,2.631,0,0,1,1.724.5h0a1.736,1.736,0,0,1,.551,1.422C7.354,5.439,7.095,6.5,5.075,6.5Z" transform="translate(13.461 0)"/><path class="a" d="M8.7,1.162A5.177,5.177,0,0,0,5.155,0L.387,0A.383.383,0,0,0,.011.391L0,12.491a.382.382,0,0,0,.375.386l1.9,0a.383.383,0,0,0,.376-.386l0-3A.383.383,0,0,1,3.032,9.1l2.034,0a5.227,5.227,0,0,0,3.59-1.2,4.369,4.369,0,0,0,1.381-3.422A4.191,4.191,0,0,0,8.7,1.162ZM5.076,6.5l-2.034,0a.382.382,0,0,1-.375-.386l0-3.141a.383.383,0,0,1,.376-.386l2.034,0a2.631,2.631,0,0,1,1.724.5h0a1.736,1.736,0,0,1,.551,1.422C7.346,5.439,7.087,6.5,5.076,6.5Z" transform="translate(24.414 1.592)"/><path class="a" d="M2.289,0,.387,0A.383.383,0,0,0,.011.388L0,12.489a.382.382,0,0,0,.375.386L8.1,12.867a.383.383,0,0,0,.376-.386l0-1.816a.382.382,0,0,0-.376-.386l-5.062,0A.382.382,0,0,1,2.663,9.9L2.671.386A.393.393,0,0,0,2.289,0Z" transform="translate(35.454 0.715)"/><path class="a" d="M8.395.207,5.981,4.538a.375.375,0,0,1-.656,0L2.89.2a.373.373,0,0,0-.324-.2L.378.01A.386.386,0,0,0,.053.593L4.247,7.877a.373.373,0,0,1,.051.2l0,4.419a.382.382,0,0,0,.375.386l1.924,0a.383.383,0,0,0,.376-.386l0-4.419a.375.375,0,0,1,.052-.2L11.232.582A.385.385,0,0,0,10.908,0L8.72,0A.409.409,0,0,0,8.395.207Z" transform="translate(41.602 0.693)"/></g><g transform="translate(57.767 0.525)"><path class="a" d="M9.7,7.284l-3.626,0A.382.382,0,0,1,5.7,6.9V6.168a.384.384,0,0,1,.376-.386l4.982,0a.382.382,0,0,1,.376.386v.643A6.565,6.565,0,0,1,9.966,11.28a5.066,5.066,0,0,1-4,1.669,5.5,5.5,0,0,1-4.346-1.842A6.7,6.7,0,0,1,0,6.491,6.7,6.7,0,0,1,1.662,1.851,5.6,5.6,0,0,1,6.041,0,7.1,7.1,0,0,1,7.618.165a5.328,5.328,0,0,1,1.223.4,7.438,7.438,0,0,1,.825.476,3.961,3.961,0,0,1,.515.4l.14.166-.989,1.3c-.1-.1-.221-.219-.39-.363a4.74,4.74,0,0,0-1.1-.574,4.545,4.545,0,0,0-1.8-.362,3.924,3.924,0,0,0-3.14,1.4A5.206,5.206,0,0,0,1.71,6.49,5.218,5.218,0,0,0,2.871,9.947a3.83,3.83,0,0,0,3.094,1.39,3.5,3.5,0,0,0,2.706-1.1A4.049,4.049,0,0,0,9.69,7.367V7.284Z" transform="translate(0 0)"/><path class="a" d="M7.131,6.88l-5.1,0a.383.383,0,0,0-.376.386l0,3.194a.382.382,0,0,0,.375.386l6.109-.006a.382.382,0,0,1,.375.386V12a.383.383,0,0,1-.376.386L.375,12.4A.382.382,0,0,1,0,12.01L.011.394A.384.384,0,0,1,.387.007L8.139,0a.382.382,0,0,1,.376.386v.772a.384.384,0,0,1-.376.386L2.029,1.55a.383.383,0,0,0-.376.386l0,3.05a.382.382,0,0,0,.375.386l5.1,0a.382.382,0,0,1,.376.386v.734A.375.375,0,0,1,7.131,6.88Z" transform="translate(13.816 0.439)"/><path class="a" d="M4.838,0A4.942,4.942,0,0,1,8.219,1.079,3.844,3.844,0,0,1,9.44,4.128a4.2,4.2,0,0,1-.7,2.46A3.834,3.834,0,0,1,6.783,8V8.08l2.951,3.985V12.4l-1.6,0a.4.4,0,0,1-.3-.151l-2.789-3.8a.372.372,0,0,0-.3-.151L2.03,8.3a.384.384,0,0,0-.376.386l0,3.315a.384.384,0,0,1-.376.386h-.9A.382.382,0,0,1,0,12.007L.011.391A.383.383,0,0,1,.387,0ZM6.95,2.208a3.273,3.273,0,0,0-2.173-.656l-2.741,0a.384.384,0,0,0-.376.386l0,4.435a.382.382,0,0,0,.375.386l2.881,0a3.072,3.072,0,0,0,2.049-.653,2.4,2.4,0,0,0,.768-1.93A2.41,2.41,0,0,0,6.95,2.208Z" transform="translate(24.317 0.853)"/><path class="a" d="M9.094,4.073l-3,3.961a.394.394,0,0,1-.295.152H5.626a.35.35,0,0,1-.295-.151L2.343,4.11a.374.374,0,0,0-.671.243l-.007,7.658a.384.384,0,0,1-.376.386H.376A.382.382,0,0,1,0,12.013L.033.4A.383.383,0,0,1,.409.01h.649A.35.35,0,0,1,1.353.16l4.092,5.4a.375.375,0,0,0,.6,0L10.122.152A.37.37,0,0,1,10.416,0h.648a.382.382,0,0,1,.376.386L11.43,12a.384.384,0,0,1-.376.386h-.9A.382.382,0,0,1,9.779,12l.007-7.7A.386.386,0,0,0,9.094,4.073Z" transform="translate(36.404 1.827)"/><path class="a" d="M10.988,12.384h-.929a.377.377,0,0,1-.346-.242L8.838,9.957a.384.384,0,0,0-.346-.242L2.861,9.72a.378.378,0,0,0-.346.242L1.636,12.15a.385.385,0,0,1-.346.243H.376a.384.384,0,0,1-.346-.537L4.794.236A.379.379,0,0,1,5.14,0H6.231a.368.368,0,0,1,.346.234l4.758,11.612A.388.388,0,0,1,10.988,12.384ZM3.777,8.221l3.8,0a.388.388,0,0,0,.347-.538L6.037,2.952a.376.376,0,0,0-.7,0L3.424,7.684A.387.387,0,0,0,3.777,8.221Z" transform="translate(49.845 1.576)"/><path class="a" d="M9.845,12.388h-.67a.372.372,0,0,1-.295-.144L2.329,3.859a.376.376,0,0,0-.671.243L1.65,12.01a.383.383,0,0,1-.376.386h-.9A.382.382,0,0,1,0,12.011L.011.4A.383.383,0,0,1,.387.009h.671a.383.383,0,0,1,.295.144L7.88,8.462a.376.376,0,0,0,.671-.243L8.559.387A.383.383,0,0,1,8.935,0h.914a.381.381,0,0,1,.375.386L10.213,12A.373.373,0,0,1,9.845,12.388Z" transform="translate(62.798 3.368)"/><path class="a" d="M8.521,0H9.53a.385.385,0,0,1,.324.582L5.831,7.556a.376.376,0,0,0-.052.2l0,4.253a.383.383,0,0,1-.377.386H4.485a.382.382,0,0,1-.375-.386l0-4.261a.375.375,0,0,0-.051-.2L.053.584A.387.387,0,0,1,.377,0H1.387a.372.372,0,0,1,.324.2L4.544,5.234a.057.057,0,0,1,.014.038l.375.847H4.97l.4-.855c.007-.008.007-.015.015-.023L8.189.2A.38.38,0,0,1,8.521,0Z" transform="translate(75.59 3.811)"/></g></g></g><path class="bj" d="M326.884,105.082v1.982s-2.245,4.826-10.322,5.645a23.8,23.8,0,0,1-2.832-10.924S318.87,100.45,326.884,105.082Z" transform="translate(-84.388 0.707)"/><path class="as" d="M321.7,102.083s2.1,2.327,2.5,9.415a15.438,15.438,0,0,1-5.161,1.293,19.968,19.968,0,0,1-2.832-10.924,8.959,8.959,0,0,1,5.5.215Z" transform="translate(-86.858 0.626)"/><path class="at" d="M320.624,101.679a39.913,39.913,0,0,1,2.769,10.407,11.372,11.372,0,0,1-3.587.689,18.184,18.184,0,0,1-2.832-10.924A8.177,8.177,0,0,1,320.624,101.679Z" transform="translate(-87.633 0.642)"/><path class="au" d="M330.639,105.821a25.579,25.579,0,0,0-16.909-2l3.755-2.779S323.59,100,330.639,105.821Z" transform="translate(-88.144 -0.031)"/><path class="av" d="M324.933,104.14s-1.343,4.956-11.2,7.2l.315-2.413.566.862S321.618,108.859,324.933,104.14Z" transform="translate(-82.438 3.632)"/></g></g></g></svg>