<svg xmlns="http://www.w3.org/2000/svg" xmlns:xlink="http://www.w3.org/1999/xlink" width="372" height="612" viewBox="0 0 372 612"><defs><style>.a{fill:none;}.b{clip-path:url(#a);}.c{fill:url(#b);}.d{fill:url(#c);}.e{fill:url(#d);}.f{fill:url(#e);}.g{fill:url(#f);}.h{fill:url(#g);}.af,.ai,.aj,.ak,.ao,.ap,.ar,.bi,.bj,.bl,.bm,.bn,.bo,.bq,.i{mix-blend-mode:soft-light;}.ac,.ad,.ae,.af,.ag,.ah,.ai,.aj,.ak,.ao,.ap,.ar,.as,.at,.au,.ax,.ay,.az,.bh,.bi,.bj,.bl,.bm,.bn,.bo,.bq,.i,.k,.o,.q{isolation:isolate;}.i{fill:url(#h);}.j{fill:#542a8d;}.ag,.bi,.k{opacity:0.69;}.ac,.ad,.ae,.ag,.ah,.as,.at,.au,.ax,.ay,.az,.bh,.k,.o,.q{mix-blend-mode:multiply;}.k{fill:url(#i);}.l{fill:url(#j);}.m{fill:url(#k);}.n{fill:url(#l);}.ac,.ad,.ae,.af,.ah,.ak,.ax,.o,.q{opacity:0.9;}.o{fill:url(#m);}.p{fill:url(#n);}.q{fill:url(#o);}.r{fill:url(#p);}.s{fill:url(#q);}.t{fill:url(#r);}.u{fill:url(#s);}.v{fill:url(#t);}.ap,.w{fill:#bf5b71;}.x{fill:url(#u);}.y{fill:url(#v);}.z{fill:url(#w);}.aa{fill:url(#x);}.ab{fill:url(#y);}.ac{fill:url(#z);}.ad{fill:url(#aa);}.ae,.ak{fill:url(#ab);}.af{fill:url(#ac);}.ag{fill:url(#ad);}.ah{fill:#8b92ab;}.ai{fill:url(#ae);}.aj{fill:url(#af);}.al{fill:url(#ah);}.am{fill:url(#ai);}.an{fill:url(#aj);}.ao{fill:url(#ak);}.aq{fill:url(#al);}.ar{fill:url(#am);}.as{fill:url(#an);}.at{fill:url(#ao);}.au{fill:url(#ap);}.av{fill:url(#aq);}.aw{fill:url(#ar);}.ax{fill:#777f9c;}.ay,.az,.bh,.by{opacity:0.5;}.ay{fill:url(#as);}.az{fill:url(#at);}.ba{fill:url(#au);}.bb{fill:url(#av);}.bc{fill:url(#aw);}.bd{fill:#d9d2f9;}.be{fill:url(#ax);}.bf{fill:url(#ay);}.bg{fill:url(#az);}.bh{fill:url(#ba);}.bi{fill:url(#bb);}.bj{fill:url(#bc);}.bk{fill:url(#bd);}.bl{fill:#ffa693;}.bm{fill:url(#be);}.bn{fill:url(#bf);}.bo{fill:url(#bg);}.bp{fill:url(#bh);}.bq{fill:url(#bi);}.br{fill:#cfe0ff;}.bs{fill:url(#bj);}.bt{fill:url(#bk);}.bu{fill:url(#bl);}.bv{fill:url(#bm);}.bw{fill:url(#bn);}.bx{fill:#95a2ff;}.bz{fill:url(#bo);}</style><clipPath id="a"><rect class="a" width="372" height="612" transform="translate(503.639 146.377)"/></clipPath><linearGradient id="b" x1="0.765" y1="0.89" x2="0.358" y2="0.03" gradientUnits="objectBoundingBox"><stop offset="0" stop-color="#dbd7f3"/><stop offset="1" stop-color="#dcb2ff"/></linearGradient><linearGradient id="c" x1="0.499" y1="1" x2="0.499" gradientUnits="objectBoundingBox"><stop offset="0.02" stop-color="#ffc2a9"/><stop offset="1" stop-color="#ff9595"/></linearGradient><linearGradient id="d" x1="0.496" y1="1" x2="0.496" gradientUnits="objectBoundingBox"><stop offset="0" stop-color="#ff817f"/><stop offset="1" stop-color="#cf6074"/></linearGradient><linearGradient id="e" x1="0.495" y1="1" x2="0.495" y2="0" xlink:href="#d"/><linearGradient id="f" x1="0.501" y1="1" x2="0.501" y2="0" xlink:href="#d"/><linearGradient id="g" x1="0.5" y1="1.015" x2="0.5" y2="-0.011" xlink:href="#d"/><linearGradient id="h" x1="0.5" y1="1" x2="0.5" y2="0.001" gradientUnits="objectBoundingBox"><stop offset="0" stop-color="#ffa7a7"/><stop offset="0.98" stop-color="#ffc2a9"/></linearGradient><linearGradient id="i" x1="0.5" y1="1" x2="0.5" gradientUnits="objectBoundingBox"><stop offset="0" stop-color="#979dd3"/><stop offset="1" stop-color="#9486a4"/></linearGradient><linearGradient id="j" x1="0.5" y1="1" x2="0.5" y2="0" xlink:href="#c"/><linearGradient id="k" x1="0.5" y1="1" x2="0.5" gradientUnits="objectBoundingBox"><stop offset="0.01" stop-color="#f48781"/><stop offset="1" stop-color="#ef7a8e"/></linearGradient><linearGradient id="l" x1="0.5" y1="1" x2="0.5" y2="-0.001" gradientUnits="objectBoundingBox"><stop offset="0" stop-color="#8c1170"/><stop offset="1" stop-color="#dd4065"/></linearGradient><linearGradient id="m" x1="0.5" y1="1" x2="0.5" gradientUnits="objectBoundingBox"><stop offset="0" stop-color="#ccb8ff"/><stop offset="1" stop-color="#af8bc2"/></linearGradient><linearGradient id="n" x1="0.499" y1="1" x2="0.499" gradientUnits="objectBoundingBox"><stop offset="0" stop-color="#c1117c"/><stop offset="1" stop-color="#dd4065"/></linearGradient><linearGradient id="o" x1="0.5" y1="1" x2="0.5" y2="0.001" xlink:href="#m"/><linearGradient id="p" x1="0.5" y1="0.999" x2="0.5" gradientUnits="objectBoundingBox"><stop offset="0" stop-color="#b9116b"/><stop offset="1" stop-color="#dd4065"/></linearGradient><linearGradient id="q" x1="0.5" y1="1" x2="0.5" gradientUnits="objectBoundingBox"><stop offset="0" stop-color="#f77"/><stop offset="0.98" stop-color="#ffc2a9"/></linearGradient><linearGradient id="r" x1="0.499" y1="1" x2="0.499" gradientUnits="objectBoundingBox"><stop offset="0.02" stop-color="#ffa58b"/><stop offset="1" stop-color="#ff898e"/></linearGradient><linearGradient id="s" x1="0.5" y1="1" x2="0.5" gradientUnits="objectBoundingBox"><stop offset="0" stop-color="#b9acf4"/><stop offset="1" stop-color="#e1d1f5"/></linearGradient><linearGradient id="t" x1="0.5" y1="1" x2="0.5" gradientUnits="objectBoundingBox"><stop offset="0" stop-color="#8642a0"/><stop offset="1" stop-color="#6456c0"/></linearGradient><linearGradient id="u" x1="0.5" y1="1" x2="0.5" gradientUnits="objectBoundingBox"><stop offset="0" stop-color="#db5f69"/><stop offset="1" stop-color="#dc505e"/></linearGradient><linearGradient id="v" x1="0.5" y1="0.999" x2="0.5" y2="0" xlink:href="#u"/><linearGradient id="w" x1="0.499" y1="1.006" x2="0.499" gradientUnits="objectBoundingBox"><stop offset="0" stop-color="#ff9595"/><stop offset="0.98" stop-color="#ffc2a9"/></linearGradient><linearGradient id="x" x1="0.5" y1="1" x2="0.5" y2="0" xlink:href="#w"/><linearGradient id="y" x1="0.5" y1="0.999" x2="0.5" y2="0" xlink:href="#d"/><linearGradient id="z" x1="0.5" y1="0.998" x2="0.5" y2="-0.001" xlink:href="#m"/><linearGradient id="aa" x1="0.5" y1="1" x2="0.5" y2="0" xlink:href="#m"/><linearGradient id="ab" x1="0.5" y1="1" x2="0.5" y2="0" xlink:href="#m"/><linearGradient id="ac" x1="0.5" y1="1" x2="0.5" y2="-0.001" xlink:href="#m"/><linearGradient id="ad" x1="0.5" y1="1" x2="0.5" y2="0" xlink:href="#m"/><linearGradient id="ae" x1="0.5" y1="1" x2="0.5" y2="0" xlink:href="#m"/><linearGradient id="af" x1="0.5" y1="1" x2="0.5" y2="-0.001" xlink:href="#m"/><linearGradient id="ah" x1="0.5" y1="0.999" x2="0.5" gradientUnits="objectBoundingBox"><stop offset="0" stop-color="#9c91de"/><stop offset="1" stop-color="#cf95ff"/></linearGradient><linearGradient id="ai" x1="0" y1="0.5" x2="1" y2="0.5" xlink:href="#t"/><linearGradient id="aj" x1="0.5" y1="1" x2="0.5" gradientUnits="objectBoundingBox"><stop offset="0" stop-color="#fff"/><stop offset="1" stop-color="#c0d6ff"/></linearGradient><linearGradient id="ak" x1="0.5" y1="1.002" x2="0.5" y2="0" xlink:href="#m"/><linearGradient id="al" x1="0.5" y1="1" x2="0.5" y2="0" xlink:href="#d"/><linearGradient id="am" x1="0.499" y1="1.003" x2="0.499" y2="0.003" gradientUnits="objectBoundingBox"><stop offset="0" stop-color="#009cff"/><stop offset="1" stop-color="#905995"/></linearGradient><linearGradient id="an" x1="0.5" y1="1" x2="0.5" gradientUnits="objectBoundingBox"><stop offset="0" stop-color="#f7f9ff"/><stop offset="1" stop-color="#af8bc2"/></linearGradient><linearGradient id="ao" x1="0.5" y1="1" x2="0.5" y2="0" xlink:href="#m"/><linearGradient id="ap" x1="0.501" y1="0.998" x2="0.501" y2="-0.001" gradientUnits="objectBoundingBox"><stop offset="0" stop-color="#af8bc2"/><stop offset="1" stop-color="#f7f9ff"/></linearGradient><linearGradient id="aq" x1="0.5" y1="1.001" x2="0.5" y2="0.001" gradientUnits="objectBoundingBox"><stop offset="0" stop-color="#dd4065"/><stop offset="1" stop-color="#8c1170"/></linearGradient><linearGradient id="ar" x1="0.5" y1="1" x2="0.5" y2="0" xlink:href="#aq"/><linearGradient id="as" x1="0" y1="0.501" x2="1.001" y2="0.501" xlink:href="#m"/><linearGradient id="at" x1="0" y1="0.5" x2="1" y2="0.5" xlink:href="#m"/><linearGradient id="au" x1="0.5" y1="1" x2="0.5" y2="-0.001" xlink:href="#aq"/><linearGradient id="av" x1="0.003" y1="0.5" x2="1" y2="0.5" xlink:href="#ah"/><linearGradient id="aw" x1="0" y1="0.501" x2="1" y2="0.501" xlink:href="#ah"/><linearGradient id="ax" y1="0.5" x2="1" y2="0.5" gradientUnits="objectBoundingBox"><stop offset="0" stop-color="#7f6dde"/><stop offset="1" stop-color="#865eff"/></linearGradient><linearGradient id="ay" x1="0.5" x2="0.5" y2="0" xlink:href="#s"/><linearGradient id="az" x1="0.5" y1="1" x2="0.5" gradientUnits="objectBoundingBox"><stop offset="0" stop-color="#00d6ff"/><stop offset="1" stop-color="#6fffff"/></linearGradient><linearGradient id="ba" x1="0" y1="0.5" x2="1" y2="0.5" xlink:href="#m"/><linearGradient id="bb" x1="0" y1="0.5" x2="1" y2="0.5" xlink:href="#m"/><radialGradient id="bc" cx="0.5" cy="0.499" r="0.408" gradientTransform="translate(-0.365) scale(1.731 1)" gradientUnits="objectBoundingBox"><stop offset="0" stop-color="#009cff"/><stop offset="1" stop-color="#9059ae"/></radialGradient><linearGradient id="bd" x1="0.494" y1="1" x2="0.494" gradientUnits="objectBoundingBox"><stop offset="0" stop-color="#9059ae"/><stop offset="1" stop-color="#009cff"/></linearGradient><linearGradient id="be" x1="0.501" y1="1" x2="0.501" gradientUnits="objectBoundingBox"><stop offset="0" stop-color="#8642a0"/><stop offset="0.52" stop-color="#6365d1"/><stop offset="1" stop-color="#64abfe"/></linearGradient><linearGradient id="bf" x1="0.5" y1="1" x2="0.5" y2="0" xlink:href="#be"/><linearGradient id="bg" x1="0.5" y1="1" x2="0.5" y2="0" xlink:href="#am"/><linearGradient id="bh" x1="0.486" y1="1" x2="0.486" y2="0" xlink:href="#am"/><linearGradient id="bi" x1="0.5" y1="0.998" x2="0.5" y2="0" xlink:href="#am"/><linearGradient id="bj" x1="0.678" y1="1.087" x2="0.374" y2="-0.015" xlink:href="#ah"/><linearGradient id="bk" x1="0.785" y1="1.047" x2="0.135" y2="0.027" xlink:href="#b"/><linearGradient id="bl" x1="0.704" y1="1.043" x2="0.29" y2="-0.047" xlink:href="#ah"/><linearGradient id="bm" x1="-0.622" y1="10.022" x2="-0.996" y2="8.763" xlink:href="#ah"/><linearGradient id="bn" x1="0.765" y1="0.967" x2="0.254" y2="0.013" xlink:href="#b"/><linearGradient id="bo" x1="0.349" y1="4.632" x2="-0.02" y2="3.155" xlink:href="#ah"/></defs><g transform="translate(-287 61)"><g class="b" transform="translate(-216.639 -207.377)"><path class="c" d="M515.1,129.86s-4.7,7.584-.72,28.439c2.616,13.689,13.272,25.728,25.728,25.8,21.5.114,22.429-40.213,27.245-48.195a130.839,130.839,0,0,0,7.679-14.769S543.915,106.919,515.1,129.86Z" transform="translate(7.866 104.63)"/><path class="d" d="M646.119,284.268s-14.656,1.9-20.154,0-22.5-12.817-23.813-16.741,3.981-20.154,3.981-20.154-8.627-12.058-14.921-17.063-12.039-8.627-17.272-15.433-8.494-18.068-4.19-20.419c1.9-.986,16.76,17.8,25.918,26.429a65.977,65.977,0,0,0,18.068,12.3s6.067-3.925,9.84-4.456l3.792,1.062a36.289,36.289,0,0,1,10.485-2.237L640.2,228.6s5.5-1.9,9.025-1.175c0,0,5.1,4.721,10.257,21.462a79.911,79.911,0,0,1,3.792,26.695s25.121,35.075,39,47.91c0,0-4.721,11.262-16.495,14.39Z" transform="translate(57.128 174.19)"/><path class="e" d="M588.26,222.35s11.85,11.243,14.921,16.608l-7.451-.91s1.175-4.4,0-6.92-8.02-7.015-8.02-7.015Z" transform="translate(75.002 199.213)"/><path class="f" d="M592,216.216l8.228,2.692s-2.427-5.877-3.223-5.479S592,216.216,592,216.216Z" transform="translate(78.846 191.203)"/><path class="g" d="M599.15,213.978l4.645.588,2.161-2.446Z" transform="translate(85.252 190.048)"/><path class="h" d="M605.92,213.09a10.826,10.826,0,0,0,3.792,0c1.668-.379,4.588-1.289,4.588-1.289a21.594,21.594,0,0,0-8.38,1.289Z" transform="translate(91.317 189.742)"/><path class="i" d="M568.26,200.277s2.559,6.484,5.214,7.944,5.328-2.863,5.4-3.963-6.389-9.688-8.02-9.385S568.374,198.912,568.26,200.277Z" transform="translate(57.576 174.589)"/><path class="j" d="M611.213,352s-20.628,28.742-29.008,47.891-11.925,46.166-11.925,46.166H770.093s-14.485-55.741-29.216-81.525S611.213,352,611.213,352Z" transform="translate(59.386 312.32)"/><path class="k" d="M578,377.514s69.581,20.855,93.015,25.121C707.4,409.29,761.508,419.7,761.508,419.7s-8.266-34.013-15.774-49.029l-166.407,1.289Z" transform="translate(66.303 332.099)"/><path class="l" d="M620.643,110.9s-35.208,22.619-44.555,41.313-5.385,35.549-2.142,46.337,14.731,29.273,15.793,35.738-.834,18.808.36,24.97c1.081,5.574,21.8,34.127,44.081,44.555a76.652,76.652,0,0,0,25.254-10.428,69.56,69.56,0,0,1,5.385,33.406s-6.105,10.067-21.9,17.253-44.915,14.352-52.461,21.538a794.06,794.06,0,0,0,90.892,0c49.939-2.863,47.778-26.221,47.778-26.221s-19.4-8.968-24.42-18.315S695,286.557,696.8,280.092s29.084-53.086,33.046-80.1-2.522-66.111-20.476-83.421S655.073,96.6,620.643,110.9Z" transform="translate(59.379 91.096)"/><path class="m" d="M580.485,175.937s21.31,5.347,31.359,17.158,23.472,48.877,24.439,53.807-3.792,15.717-3.792,15.717,17.063-4.323,25.254-10.428a58.78,58.78,0,0,1,4.664,16.191s3.6-10.485,8.873-15.585c0,0,12.93,19.623,19.642,29.69S704.442,293.5,704.442,293.5l4.967-6.465s-11.944-6.617-16.419-26.183a189.605,189.605,0,0,1-4.948-30.164l-36.9-68.9L592.676,147.65,572.2,157.357Z" transform="translate(61.106 132.286)"/><path class="n" d="M751.655,230.945a58.489,58.489,0,0,1-21.235,25.728c-4.493,2.825-10.067,6.769-15.168,10.522l-.228.152-.171.114-.588.436c-5.328,3.906-10.03,7.584-12.267,9.252l-1.327,1.043.967-.948,3.488-3.394-6.332,3.792-1.062.626a28.438,28.438,0,0,1-5.934-1.649h-.095l-2.389-.967c-.3-.114-.588-.265-.891-.4a114.268,114.268,0,0,1-11.887-6.295l.474-.512,2.313-2.541,3.3-3.583a77.54,77.54,0,0,1-9.859,2.654h0a13.6,13.6,0,0,1-4.437.209,17.063,17.063,0,0,1-8.589-5.574h0a81.879,81.879,0,0,0-1.308-13.177,5.4,5.4,0,0,0-.265-1.194c-.095-.4-.265-1.1-.417-1.687-2.6-9.688-6.181-16.912-10.674-20.325l-.19-.114a9.783,9.783,0,0,0-7.356-1.9h0l-.948.19A13.613,13.613,0,0,0,631,226.072l-.095.114a18.712,18.712,0,0,0-3.432,11.565l-.246-.474-.133-.246c-1.384-2.673-6.484-12.324-11.034-20.059h0a53.081,53.081,0,0,0-6.882-10.086,21.67,21.67,0,0,0-7.584-2.5c-8.229-1.725-20.021-2.844-21.462-2.977h-.152c-9.385-6.939-18.277-27.908-14.694-33.672a48.125,48.125,0,0,1,6.825-7.906c2.522-2.446,4.835-4.4,5.536-4.986l.227-.19c2.5-4.1,11.129-33.615,24.059-40.44s54.053-13.272,54.053-13.272c22.258,2.56,37.919,7.735,48.991,13.423,20.571,10.579,24.837,22.865,24.837,22.865,3.6,16.533,13.651,41.313,18.334,59.267a125.132,125.132,0,0,1,3.508,34.449Z" transform="translate(54.182 90.437)"/><path class="o" d="M612.65,107.19l4.456,21.879,14.523,5.157,2.086,9.783,2.427,1.555,3.7,10.143s28.439,11.186,42.052,6.408,10.068-11.262,10.068-11.262l-5.479-19.377s-3.109-7.584-8.608-11.015S612.65,107.19,612.65,107.19Z" transform="translate(97.347 96.036)"/><path class="p" d="M565,161.475s5.688,24.041,8.816,27.4,34.241,8.134,43.341,6.219,45.749-28.723,49.806-35.435,13.272-38.7,13.272-38.7l-4.019-1.668s-12.779,31.567-18.5,38.127-44.536,27.377-54.83,30.487-23.472.72-26.107-.948-9.878-24.913-9.878-24.913Z" transform="translate(54.656 106.877)"/><path class="q" d="M751.735,225.39A58.49,58.49,0,0,1,730.5,251.118c-4.493,2.825-10.068,6.769-15.168,10.523l-.228.152-.171.114-.588.436c-3.223,2.465-10.447,8.664-10.447,8.664a10.483,10.483,0,0,1-1.9.588l-.36.095a15.6,15.6,0,0,1-2.844.36,18.958,18.958,0,0,1-7-1.024h-.095a19.728,19.728,0,0,1-2.389-.967c-.3-.114-.588-.265-.891-.4a95.519,95.519,0,0,1-11.376-6.806c-2.332-1.593-3.792-2.749-3.792-2.749s2.54.152,6.2.209c8.285.171,22.258-.114,24.875-3.621,3.792-5.024,15.262-33.748,16.7-41.237s0-31.852,0-31.852-.721,18.5-2.332,24.249-13.271,30.714-23.585,39.511a63.7,63.7,0,0,1-22.22,12.02h0a6.5,6.5,0,0,1-4.436.208c-1.555-.853-8.172-5.309-8.589-5.574h0a47.262,47.262,0,0,0-1.308-13.177,5.417,5.417,0,0,0-.265-1.194c-.095-.4-.265-1.1-.417-1.687-1.687-6.655-4.7-16.134-10.674-20.324l-.19-.114a11.375,11.375,0,0,0-7.356-1.9h0a11.148,11.148,0,0,0-8.57,4.854l-.095.114a23.454,23.454,0,0,0-3.432,11.565l-.246-.474-.133-.246-11.034-20.059c.645.3,12.684,5.991,19.566,4.133s41.426-12.1,45.123-27.529,2.256-55.267,2.256-55.267-5.688,21.5-8.816,32.231-20.855,30.9-33.027,35.568a115.653,115.653,0,0,1-26.96,5.934l14.466-5.688S664.124,174.6,666.683,168.4s4.512-25.5,4.512-25.5-7.2,22.751-14.674,28.761-45.692,27.3-53.238,27.055H601.5c-7.584-.493-19.926-2.692-21.462-2.977h-.152c-9.385-6.939-18.277-27.908-14.693-33.672,0,0,14.731,23,21.2,24.439s42.033-6.825,53.883-15.168,18.694-23,20.135-28.439,2.863-13.878,2.863-13.878a116.382,116.382,0,0,1-15.49,11.376c-9.726,6.1-41.976,22.258-47.74,22.258s-28.022-8.627-28.022-8.627l5.536-4.986.227-.19s3.944,6.617,6.825,7.148,11.85,6.295,22.619,0,33.767-16.684,37.217-22.069,11.376-26.79,11.376-26.79l48.991,1.4c20.571,10.579,24.837,22.865,24.837,22.865,3.6,16.533,13.651,41.313,18.334,59.267a125.126,125.126,0,0,1,3.754,34.715Z" transform="translate(54.102 95.992)"/><path class="r" d="M698.347,102.438a98.582,98.582,0,0,0-13.4-1.687,22.752,22.752,0,0,0-13.651-21.064c-5.233-2.5-12.513-2.768-19.794-2.01a100.655,100.655,0,0,0-27.832,7.034c-2.635,1.668-11.736,12.21-13.651,21.31s2.844,23.794,2.844,23.794,9.575,16.76,17.955,23.946,39.815,13.9,51.968,8.38,31.624-26.828,31.131-36.023S701.228,103.386,698.347,102.438Zm-23.908,53.39c.929-.683,15.642-11.546,19.358-21.064a12.136,12.136,0,0,0,.607-2.237,26.545,26.545,0,0,0-1.536-11.831v-.265a61.484,61.484,0,0,0-2.294-5.934,1.566,1.566,0,0,0-.265-.607,59.7,59.7,0,0,0-3.792-7.224.678.678,0,0,0,0-.152s12.456,3.337,14.6,5.972.967,20.855-2.635,28.268a13.994,13.994,0,0,1-3.792,4.285C687.862,150.67,675.216,155.543,674.439,155.827Z" transform="translate(94.579 69.259)"/><path class="s" d="M645.326,392.5s-6.712,18.675-11.982,38.791-13.272,33.046-15.983,34.961-18.258,11.508-20.855,11.376-18.5-22.277-21.557-31.605-5.934-82.094-7.356-92.9-8.266-36.023-8.266-36.023-20.685-8.361-25.861-16.514c-2.522-3.962-3.337-22.581-4.854-29.994-2.692-13.12-12.437-26.771-10.75-29.2,3.792-5.29,10.03,0,14.352,4.361s5.309,18.959,6.389,24.647c1.555,4.911,8.816,4.967,10.977,3.166s10.105-24.647,12.968-40.858,10.067-44.574,13.651-45.294,5.252,11.7,4.057,23.813c-.683,7.129-5.934,22.751-7.28,29.539-.948,4.721,2.863,4.3,2.863,4.3s11.869-38.62,16.172-40.763,6.465,4.152,7.186,6.92-1.8,8.172-1.8,8.172-10.238,30.335-8.816,32.136c0,0,14.371-19.566,17.708-21.728s5.84-1.744,6.2,2.9a16.1,16.1,0,0,1-2.522,8.949s-9.328,11.869-11.85,18.694c0,0,.379,9.9,4.664,7.887,3.47-1.612,10.693-15.168,12.949-15.073,5.024.36,6.1,5.384,5.024,9.688s-6.1,10.428-9.347,14.011c0,0-15.452,23.358-19.4,28.742s-11.755,7.584-11.755,7.584a248.581,248.581,0,0,0,7.091,35.568c4.664,15.433,18.959,45.977,18.959,45.977s9.48-14.011,13.025-28.439C619.276,366.391,642.388,382.317,645.326,392.5Z" transform="translate(12.248 167.886)"/><path class="t" d="M526,247.13s15.528,9.821,27.112,7.356c0,0,14.618,7,23,3.413L574.4,270.545s-6.693,6.465-20.192,2.123l-2.351-9.025S533.015,256.818,526,247.13Z" transform="translate(19.714 221.414)"/><path class="u" d="M578.108,313.4s-48.9-73.638-61.808-99.859a10.864,10.864,0,0,1,6.446-6.655s49.294-16.362,61.106-16.893c0,0,34.487,69.884,46.716,95.4l-2.522,5.1Z" transform="translate(11.023 170.22)"/><path class="v" d="M762.5,501.433s-22.619,20.476-62.339,23.339c-32.022,2.332-113.51-16.514-116.373-22.979l8.608-9.745s22.277-38.753,25.88-42.716,24.06-21.178,26.543-24.06,5.688-32.326,4.664-39.151c0,0-14.371-6.1-18.959-14.371a68.53,68.53,0,0,1-6.56-17.613,39.964,39.964,0,0,0-8.892,12.949c-3.583,8.247-5.688,21.9-5.688,21.9s-35.208-6.465-44.9-31.245l5.385-4.3s4.721-13.272,8.342-27.036h0a162.073,162.073,0,0,0,3.488-16.059c2.522-16.893,8.987-48.5,11.85-51.74s62.016-25.14,62.016-25.14a9.1,9.1,0,0,1,3.375-5.384c2.863-2.161,5.29,4.3,5.29,4.3s27.434,2.882,37.464.72,14.637-11.489,14.637-11.489h0c.588-.3,8.437-4.114,9.309,6.484,0,0,23.434,10.048,31.094,18.2a89.765,89.765,0,0,1,1.9,19.661,152.971,152.971,0,0,1-4.38,36.743c-8.134,34.127-27.3,80.577-27.3,99.253S756.17,492.01,756.17,492.01s6.825,1.9,7.584,3.887S762.5,501.433,762.5,501.433Z" transform="translate(54.199 197.734)"/><path class="w" d="M604,217.124a118.1,118.1,0,0,0,9.48-9.347c6.029-6.6,9.082-9.347,9.082-9.347l6.6,8.266S616.058,216.422,604,217.124Z" transform="translate(89.597 177.782)"/><path class="x" d="M601.69,173.42a46.218,46.218,0,0,0,2.6,11.755c2.484,7.432,8.854,6.882,8.854,6.882v-5.005s-3.792,2.01-7.053-2.616a16.534,16.534,0,0,1-2.294-11.015Z" transform="translate(87.527 155.375)"/><path class="y" d="M600.952,170.26s5.783,1.687,11.053,12.456,4.038,18.959,4.038,18.959,0-6.465-5.005-15.679-8.683-9.707-8.683-9.707S597.767,174.09,600.952,170.26Z" transform="translate(85.858 152.543)"/><path class="z" d="M604.81,184.6a26.715,26.715,0,0,0,3.963,8.134,7.583,7.583,0,0,0,7.11,3.792l4.455-3.583S608.773,192.734,604.81,184.6Z" transform="translate(90.323 165.391)"/><path class="aa" d="M600.44,169.166s5.688.967,12.21,11.015a131.273,131.273,0,0,1,10.94,22.277s1.289-13.727-1.9-22.751-10.484-15.717-13.025-15.433S600.44,169.166,600.44,169.166Z" transform="translate(86.408 147.173)"/><path class="ab" d="M610.65,196.582s6.5-2.275,7.584-11.982a72.041,72.041,0,0,0,8.608,5.688S615.655,198.137,610.65,196.582Z" transform="translate(95.555 165.391)"/><path class="ac" d="M713.929,124.93c.493,9.1-18.959,30.335-31.131,36.023s-43.607-1.194-51.968-8.38-17.955-23.965-17.955-23.965-4.8-14.618-2.882-23.718c0,0,3.564,14.618,7.584,21.8S641.3,145.842,641.3,145.842s-9.821-21.064-10.048-28.97,1.194-25.633,3.337-28.742,15.168-8.778,16.836-9.48c-1.517.891-13.139,7.584-14.921,11.66s2.161,28.022,7.906,34.715,34.98,6.712,42.147,7.584a10.845,10.845,0,0,0,7.792-1.289,12.131,12.131,0,0,1-.607,2.237c-3.792,9.48-18.429,20.381-19.358,21.064.777-.284,13.423-5.157,20.192-10.788a77.724,77.724,0,0,0,11.376-7.394,25.31,25.31,0,0,0,7.982-11.508Z" transform="translate(94.562 70.466)"/><path class="ad" d="M627.6,86.89c.227,5.043,15.073,20.969,24.894,25.216s24.23,0,24.23,0-3.621-10.333-6.5-14.182c0,0-15.168,5.688-21.064,5.252S627.6,86.89,627.6,86.89Z" transform="translate(110.741 77.849)"/><path class="ae" d="M631.26,77.38S646.826,84.4,651.622,91.5s5.043,18.485,5.043,18.485,1.441-11.376,0-17.537a64.1,64.1,0,0,0-4.816-12.684S647.831,76.432,631.26,77.38Z" transform="translate(114.021 69.177)"/><path class="af" d="M713.651,246.267s-45.5-9.821-48.745-8.627-37.919,3.6-41.711,3-10.257-6.787-10.655-7.167c.4.228,6.446,3.963,9.1,4.418s29.1.948,37.009-1.687,18.03-12,18.03-12l-3.394-2.6h0c.588-.3,8.437-4.114,9.309,6.484C682.557,228.066,705.991,238.115,713.651,246.267Z" transform="translate(97.248 197.725)"/><path class="ag" d="M762.484,480.082s-17.443,19.756-62.339,23.339c-32,2.56-113.51-16.514-116.373-22.979l8.608-9.745s15.812,4.626,28.742,0c0,0,18.334-38.753,21.557-42.355s14.371-14.712,17.613-18.315-2.768-40.478-2.768-40.478-3.792-6.92-8.02-4.778c0,0-14.371-6.1-18.959-14.371a68.541,68.541,0,0,1-6.56-17.613,39.968,39.968,0,0,0-8.892,12.949c-3.583,8.247-5.688,21.9-5.688,21.9s-35.208-6.465-44.9-31.245l5.384-4.3s4.721-13.272,8.342-27.036h0l-5.214,31.226c3.944,11.015,28.439,17.556,28.439,17.556,16.779-9.574,38.981-52.1,38.981-52.1a25.046,25.046,0,0,1-.322,8.361c-.758,2.275-3.451,8.93-3.451,8.93l20.855-3.109-15.168,9.575s20.04,29.918,21.709,37.35,9.48,35.435,16.324,38.715c11.148,5.365,23.282-3.261,29.994-13.082s40.952-101.547,40.952-101.547-29.216,37.369-35.17,41.2c-5.555,3.583-24.647,10.541-27.093,11.376,1.9-.8,14.485-6.048,18.789-8.039,4.645-2.161,18.808-16.533,27.188-28.97s23.51-57.959,23.51-57.959h0a152.989,152.989,0,0,1-4.38,36.743c-8.134,34.127-27.3,80.577-27.3,99.253s29.216,90.057,29.216,90.057a84.141,84.141,0,0,1-40.725,23c-18.011,4.418-53.389,1.9-53.389,1.9s27.472,5.821,52.916,1.668c32.231-5.271,48.745-22.751,48.745-22.751C764.513,476.479,762.484,480.082,762.484,480.082Z" transform="translate(54.216 219.085)"/><path class="ah" d="M595.84,301.114l13.821-21.234-1.043,7.47,20.836-3.109-31.928,23.036Z" transform="translate(82.286 250.757)"/><path class="ai" d="M656.2,234.57c-2.1,2.6-41.711,25.861-44.213,27.415l-1.289,1.687s-20.855,60.348-22.979,63.173-17.064,22.088-17.064,22.088c-3.109-.607-3.337-1.555-3.337-1.555,6.825-15.433,23.7-94.8,23.7-94.8a42.962,42.962,0,0,1,6.465-3.394c16.324-7.394,55.57-21.728,55.57-21.728S658.4,231.9,656.2,234.57Z" transform="translate(56.734 203.791)"/><path class="aj" d="M644.017,234.579c-2.1,2.6-40.289,25.918-42.829,27.472l-.645.4a117.191,117.191,0,0,0-19.623-9.48l4.3-3.792c16.324-7.394,55.57-21.728,55.57-21.728S646.216,231.905,644.017,234.579Z" transform="translate(68.919 203.782)"/><path class="ak" d="M610.229,336.235s14.106-23.358,14.732-27.832-7.262-41.711-14.732-50.11S583.686,242.1,579.78,240.68c0,0,23.6,7.318,32.459,16.893s14.03,43.114,14.807,49.579-4.038,15.319-4.038,15.319Z" transform="translate(67.898 215.636)"/><path class="al" d="M519.7,206.874s30.79,64.86,58.774,100.485l49.124-21.9L580.806,190S556.292,193.792,519.7,206.874Z" transform="translate(14.069 170.229)"/><path class="am" d="M548.9,268.313l3.337-6.1,49.124-21.9-2.522,5.024Z" transform="translate(40.231 215.304)"/><path class="an" d="M523.342,212.122c-1.763,3.071,46.356,82.625,48.5,83.573s46.223-16.76,47.19-17.955S581.661,195.1,579.5,194.149,524.821,209.582,523.342,212.122Z" transform="translate(17.29 173.911)"/><path class="ao" d="M612.79,228.047a45.514,45.514,0,0,0,8.1,4.55c4.531,1.9,29.349,1.119,35.909-.588s7.887-3.963,7.887-3.963a40.062,40.062,0,0,1-13.821,2.844c-7.584.095-28.439-.284-30.183-1.024s-2.5-4.74-2.5-4.74S614.838,223.08,612.79,228.047Z" transform="translate(97.473 201.327)"/><path class="ap" d="M564.39,298.266s17.841,23.339,17.841,61.523A201.34,201.34,0,0,0,596.185,318.4s-15.414-7.678-20.078-11.755a72.923,72.923,0,0,1-9.745-11.546Z" transform="translate(54.109 264.393)"/><path class="ap" d="M554.06,347.372s1.536-11.869,3.147-14.39,14.9-13.954,17.329-22.979l-12.3-28s1.9,22.638,1.574,31.814-11.091,18.5-10.731,20.287S554.06,347.372,554.06,347.372Z" transform="translate(43.963 252.656)"/><path class="aq" d="M529.11,232.26s8.077,7,12.134,11.053a139.35,139.35,0,0,1,10.068,12.229l2.73.8-14.75-22.9a19.888,19.888,0,0,1-10.181-1.176Z" transform="translate(22.5 208.092)"/><path class="ar" d="M568,156.08s5.9,7.015,6.977,7.375S600,166.09,608.63,165.123,645.9,148.06,645.9,148.06s-18.353,15.168-20.988,16.533a56.48,56.48,0,0,1-16.172,5.1c-6.712.891-36.023-4.38-38.2-6.295S568,156.08,568,156.08Z" transform="translate(57.343 132.654)"/><path class="as" d="M571.45,153.936s16.874-18.959,25.747-26.79,44.384-25.576,44.384-25.576-36.25,6.882-46.071,11.925S576.853,139.773,571.45,153.936Z" transform="translate(60.434 91.001)"/><path class="at" d="M565.27,146.412s13.992,21.576,21.424,23.244,48.669-8.93,56.878-18.561,14.371-17.917,15.964-25.045c0,0-8.323,20.362-27.662,25.311-12.911,3.3-36.4,9.9-46.469,8.456S565.27,146.412,565.27,146.412Z" transform="translate(54.897 112.934)"/><path class="au" d="M622.842,83.853s-11.224,11.053-12.324,20c-.569,4.247,5.385,21.31,6.295,23.206s14.466,13.025,14.466,13.025-12.513-27.264-12.229-35.776,6.162-17.481,11.641-20.362,11-5.688,11-5.688S628.795,80.971,622.842,83.853Z" transform="translate(95.403 70.117)"/><path class="av" d="M621.17,188.854s8.115,26.543,12.418,32.951,16.438,14.371,17.746,18.959,9.2,18.315,9.2,18.315-5.688-20.476-7.584-24.78-15.793-11.869-18.675-16.893-7.11-26.429-7.11-26.429l4.607-5.005S622.4,185.707,621.17,188.854Z" transform="translate(104.98 166.616)"/><path class="aw" d="M640.16,192.758s6.351,19.339,6.825,23.661-1.308,14.03-1.308,14.03,5.024-12.968,5.024-16.191-4.948-7.584-6.863-12.57,0-11.7,0-11.7Z" transform="translate(121.995 170.22)"/><path class="ax" d="M620.77,117.59A74.036,74.036,0,0,0,647.313,131.2c19.68,5.271,33.16-4.076,33.16-4.076l-1.327-4.986a47.4,47.4,0,0,1-17.063,5.688C652.792,128.909,632.032,123.809,620.77,117.59Z" transform="translate(104.622 105.354)"/><path class="ay" d="M612.2,205.245s22.3,13.082,26.828,13.044,11.641-10.788,17.689-21.633c5.877-10.5,4.645-62.566,4.645-62.566s5.252,51.57,3.792,55.437-5.195,28.439-14.144,34.487S632.051,235.39,625.4,235.39l-8.608-5.688A157.712,157.712,0,0,0,612.2,205.245Z" transform="translate(96.944 120.137)"/><path class="az" d="M623.55,212.914s21.936-.284,28.761-3.981,29.311-14.58,37.217-21.765,9.063-23.737,9.063-23.737l.133,11.527s-8.342,16.8-17.063,22.751-22.429,14.845-26.543,18.865c0,0-6.1,5.555-10.295,5.688S623.55,212.914,623.55,212.914Z" transform="translate(107.113 146.424)"/><path class="ba" d="M629.82,194.086s4.645,14.542,7.167,19.206,8.19,15.168,10.409,22.562,5.384,30.961,5.384,30.961.721-20.476,0-31.245c0,0-9.063-17.253-9.2-26.543s5.84-17.556,5.84-17.556l-11.376,3.185Z" transform="translate(112.73 171.546)"/><path class="bb" d="M523.294,207.71s8.1,15.168,11.148,19.945l-1.9,1.138A60.383,60.383,0,0,1,521,209.4Z" transform="translate(15.234 186.096)"/><path class="bc" d="M527.71,219.971l1.441-1.081c4.38,7.584,4.228,7.3,6.1,10.428l-1.441,1.081A32.343,32.343,0,0,1,527.71,219.971Z" transform="translate(21.246 196.113)"/><path class="bd" d="M527.71,219.774l.91-.664s3.3,7.584,6.276,10.276l-1.081.815a24.856,24.856,0,0,1-6.1-10.428Z" transform="translate(21.246 196.31)"/><path class="bd" d="M521,209.066l1.327-.986a86.93,86.93,0,0,0,11.376,19.7l-1.081.683A63.079,63.079,0,0,1,521,209.066Z" transform="translate(15.234 186.428)"/><path class="be" d="M529.7,201.417l.834,1.517s16.532-5.574,26.941-7.83l-.7-1.574a215.962,215.962,0,0,0-27.074,7.887Z" transform="translate(23.029 173.392)"/><path class="bf" d="M530.14,202.19s22.183-5.688,26.941-7.83a171.7,171.7,0,0,0-26.941,7.83Z" transform="translate(23.423 174.136)"/><path class="bg" d="M561.15,246.012l1.213,1.8,8.38-3.792-.683-1.441Z" transform="translate(51.206 217.338)"/><path class="bh" d="M627.6,86.89a71.649,71.649,0,0,0,18.959,21.746c11.925,8.494,27.036-4.361,27.036-4.361L670.2,97.924a44.384,44.384,0,0,1-19.623,5.271C640.113,103.2,627.6,86.89,627.6,86.89Z" transform="translate(110.741 77.849)"/><path class="bi" d="M663.977,447.659s9.082-7.318,7.982-13.708c-1.763-10.409-11.376-43.417-16.514-60.67a171.216,171.216,0,0,1-6.825-31.624c0-1.422,18.618-56.727,18.618-56.727s-14.94,44.744-15.566,58,19.718,72.292,28.724,90.38a68.612,68.612,0,0,1-16.419,14.352Z" transform="translate(129.574 255.281)"/><path class="bj" d="M634.8,308.218s-1.479,34.127-4.038,37.483-22.239,18.353-27.207,25.728-22.638,37.1-22.638,37.1,23.491-36.971,28.288-38.715,27.32-19.339,28.287-24.647,1.649-36.421,1.649-36.421S636.68,306.929,634.8,308.218Z" transform="translate(68.919 275.732)"/><path class="bk" d="M584.872,374.28a143.257,143.257,0,0,0-5.8,27.51c-1.441,14.371,0,21.253,0,21.253h-8.74S571.79,392.272,584.872,374.28Z" transform="translate(59.431 335.333)"/><path class="ap" d="M550.58,329.22s8.532,5.877,11.641,10.2a12.589,12.589,0,0,1,2.2,9.063A126,126,0,0,1,550.58,329.22Z" transform="translate(41.736 294.962)"/><path class="bl" d="M555.91,333.64a65.828,65.828,0,0,0,3.792,9.006c1.27,1.8,6.788-.853,6.788-.853S558.451,337.072,555.91,333.64Z" transform="translate(46.511 298.922)"/><path class="bm" d="M599,334.1a23.511,23.511,0,0,0,4.3-2.635c2.161-1.687,21.348,4.3,23.244,6.219s36.876,7.811,62.566,13.044c0,0-20.4-1.668-39.625-3.982s-26.543-6.067-26.543-6.067A38.9,38.9,0,0,0,599,334.1Z" transform="translate(89.117 298.704)"/><path class="j" d="M595.285,336.169l3.906-3.209a31.307,31.307,0,0,1,20,4.2c10.826,6.162,56.12,11.034,56.12,11.034s-34.411-1.289-48.062-4C616.4,342.035,606.13,335.885,595.285,336.169Z" transform="translate(89.117 299.978)"/><path class="bn" d="M575.5,371.082a20.19,20.19,0,0,0,8.475,3.792c5.366,1.062,24.894,6.276,37.1,8.172s31.207,4.948,31.207,4.948-22.429-5.29-38.165-10.788-32.762-12.646-32.762-12.646a68.641,68.641,0,0,0-5.858,6.522Z" transform="translate(64.063 326.625)"/><path class="bo" d="M642.1,238.838s17.386-12.779,23.851-18.6c5.252-4.74,11.622-20.476,12.817-26.221s-5.953-46.887-9.821-58.528c0,0,16.514,35.8,13.158,64.462,0,0-2.237,11.622-20.855,26.335A137.953,137.953,0,0,1,642.1,238.838Z" transform="translate(123.733 121.392)"/><path class="bp" d="M642.868,214.73a93.553,93.553,0,0,0-1.9,9.688c-.588,4.4,1.9,21.557,1.9,21.557S644.518,221.366,642.868,214.73Z" transform="translate(122.642 192.386)"/><path class="bq" d="M647.66,220.93s1.706,2.067,0,7.584c0,0,27.851,10.636,34.525,17.575,0,0-7.584-9.935-31.094-18.2a6.484,6.484,0,0,0-3.432-6.958Z" transform="translate(128.714 197.941)"/><path class="br" d="M562.224,215.98l3.564.664-.7,4.4-1.668-1.062.588-2.73-2.256-.607Z" transform="translate(51.744 193.506)"/><path class="bs" d="M524.56,130.358c7,10.03,20.173,29.046,42.3,27.472,9.082-.645,13.556-5.46,15.585-11.243C586.9,134,579.088,120.5,566.271,116.745a69.583,69.583,0,0,0-19.4-2.654A38.241,38.241,0,0,0,514,132.273S521.413,125.864,524.56,130.358Z" transform="translate(8.962 102.218)"/><path class="bt" d="M510.912,161.85c-8.38,2.882-10.579,19.414-.3,36.118s26.846,19.642,29.994,17.367-4.323-14.921-7.925-28S522.516,157.849,510.912,161.85Z" transform="translate(-0.236 144.459)"/><path class="bu" d="M531.938,147.658c-15.812,13.727,4.361,53.56,36.535,61.523,25.728,6.37,40.194-5.347,36.762-22.258C599.263,157.346,551.751,130.4,531.938,147.658Z" transform="translate(20.108 127.443)"/><path class="bv" d="M588.215,182.49c-1.365,4.892,7.754,9.916,14.921,8.039s7.868-9.48,3.792-12.191C601.486,174.754,589.826,176.385,588.215,182.49Z" transform="translate(75.332 158.098)"/><path class="bw" d="M537.506,202.891c-4.019-1.479-10.56-10.579-9.688-18.41,1.479-13.063,16.078-10.352,20.855-.569C553.943,194.511,548.18,206.683,537.506,202.891Z" transform="translate(21.271 157.338)"/><g transform="translate(564.215 285.024)"><path class="br" d="M552.623,185.4s-14.466-6.636-16.552-17.556,15.167-19.756,25.083-16.817c11.376,3.356,15,12.21,14.352,17.2s-24.913,12.039-24.913,12.039Z" transform="translate(-535.632 -150.221)"/><path class="bx" d="M553.28,186.065l-.626-.284c-.152,0-14.618-6.825-16.722-17.765-.739-3.906.891-7.906,4.607-11.281,5.688-5.081,14.75-7.584,20.855-5.858,11.793,3.47,15.167,12.57,14.542,17.5s-21.9,11.376-24.818,12.191Zm3.792-35.208a25.443,25.443,0,0,0-16.154,6.295c-3.564,3.242-5.138,7.053-4.437,10.769,1.9,9.328,12.93,15.566,15.755,17.063l-1.9-4.74.284-.095c6.693-1.9,24.192-7.868,24.647-11.812.607-4.74-2.692-13.518-14.144-16.893a15.262,15.262,0,0,0-4.057-.588Z" transform="translate(-535.758 -150.334)"/></g><g class="by" transform="translate(571.195 290.724)"><path class="bx" d="M539.857,164.507l-.417-.4A48.706,48.706,0,0,1,558.4,153.34l.171.531A47.663,47.663,0,0,0,539.857,164.507Z" transform="translate(-539.44 -153.34)"/></g><g class="by" transform="translate(575.727 295.161)"><path class="bx" d="M542.152,167.34l-.322-.474a149.589,149.589,0,0,1,20.021-11.186l.227.512a150.066,150.066,0,0,0-19.926,11.148Z" transform="translate(-541.83 -155.68)"/></g><g transform="translate(532.442 216.171)"><path class="br" d="M519.62,120.919a10.561,10.561,0,0,1,8.608,2.844c3.792,3.792,16.248,14.466,30.335,10.428,13.272-3.792,2.977-17.063-.455-18.277C558.259,115.914,536.437,109.524,519.62,120.919Z" transform="translate(-518.444 -113.919)"/><path class="bx" d="M552.8,135.446c-12.172,0-22.107-9.252-24.23-11.376a10.3,10.3,0,0,0-8.342-2.768l-1.232.265,1.081-.72c16.722-11.376,38.544-5.119,38.772-5.062,2.256.815,7.375,6.522,7.224,11.793,0,2.351-1.308,5.46-6.768,7.034a23.471,23.471,0,0,1-6.5.834Zm-31.321-14.788a10.466,10.466,0,0,1,7.584,3.015c2.465,2.465,15.452,14.542,30.127,10.333,4.114-1.175,6.257-3.356,6.351-6.5.152-4.929-4.778-10.5-6.825-11.224-.208,0-20.988-5.991-37.369,4.38Z" transform="translate(-519 -114.018)"/></g><g class="by" transform="translate(550.074 221.446)"><path class="bx" d="M538.595,124.99a24.932,24.932,0,0,1-10.295-2.37l.265-.493s7.7,3.906,15.168,1.536,7.224-6.693,7.224-6.863h.55c0,.209.227,4.986-7.584,7.451A17.8,17.8,0,0,1,538.595,124.99Z" transform="translate(-528.3 -116.8)"/></g><g transform="translate(509.917 319.898)"><path class="br" d="M510.4,169.7c-4.531,2.048-3.982,12.456.436,18.77,5.783,8.228,14.5,8.74,16.7,3.375C530.21,185.323,522.285,164.335,510.4,169.7Z" transform="translate(-507.003 -168.634)"/><path class="bx" d="M522.06,195.787c-3.223,0-7.584-1.9-11.376-7.015a20.249,20.249,0,0,1-3.2-15.281,5.688,5.688,0,0,1,2.882-3.906,9.48,9.48,0,0,1,11.015,2.313c5.441,5.271,8.285,15.85,6.484,20.211a5.915,5.915,0,0,1-5.005,3.64A6.864,6.864,0,0,1,522.06,195.787ZM510.685,170.1a5.044,5.044,0,0,0-2.579,3.545,19.643,19.643,0,0,0,3.109,14.807c3.185,4.531,7.736,7.167,11.641,6.731a5.328,5.328,0,0,0,4.569-3.28c1.725-4.209-1.062-14.447-6.37-19.585a8.968,8.968,0,0,0-10.371-2.218Z" transform="translate(-507.119 -168.727)"/></g><g transform="translate(553.893 338.167)"><path class="br" d="M533.132,179.068c-3.337,1.725-3.564,7.754-.986,11.376,3.356,4.8,7.584,4.626,9.707,1.9C545.532,187.771,540.261,175.39,533.132,179.068Z" transform="translate(-530.239 -178.335)"/><path class="bx" d="M538.193,194.51h-.133a7.906,7.906,0,0,1-5.972-3.792,10.276,10.276,0,0,1-1.517-8.058,5.29,5.29,0,0,1,2.541-3.6h0a5.8,5.8,0,0,1,7.584,1.9c2.578,3.128,3.792,8.835,1.46,11.774A4.834,4.834,0,0,1,538.193,194.51Zm-4.911-15.168h0a5.044,5.044,0,0,0-2.408,3.394,10.2,10.2,0,0,0,1.479,7.792,7.584,7.584,0,0,0,5.688,3.792h.114a4.607,4.607,0,0,0,3.621-1.782c2.2-2.825,1.043-8.323-1.479-11.376a5.46,5.46,0,0,0-7.053-1.782Z" transform="translate(-530.314 -178.363)"/></g><g class="by" transform="translate(514.394 328.76)"><path class="bx" d="M518.656,184.755c-1.782,0-6.162-.284-8.228-2.977a3.507,3.507,0,0,1-.8-3.413,3.148,3.148,0,0,1,2.256-1.9,5.214,5.214,0,0,1,3.792.948,5.328,5.328,0,0,1,1.763-3.678,2.9,2.9,0,0,1,4.057,1.5c1.213,3.109-1.706,9.1-1.9,9.347v.152h-.929Zm-6.029-7.792a3.146,3.146,0,0,0-.607,0,2.616,2.616,0,0,0-1.9,1.536,3.034,3.034,0,0,0,.72,2.882c2.161,2.825,7.337,2.787,8.342,2.749.436-.948,2.768-6.124,1.744-8.759a2.389,2.389,0,0,0-3.242-1.213c-1.4.91-1.555,3.792-1.555,3.792v.55l-.436-.341A5.688,5.688,0,0,0,512.627,176.963Z" transform="translate(-509.481 -173.402)"/></g><g class="by" transform="translate(557.791 342.9)"><path class="bx" d="M536.541,187.325l-4.171-2.048.19-.379,3.7,1.82,1.195-5.858.4.076Z" transform="translate(-532.37 -180.86)"/></g><path class="bz" d="M565.716,188.289c-3.792,8.1,16.855,19.756,29.8,18.58s17.215-12.267,11-17.993C598.061,181.084,570.456,178.2,565.716,188.289Z" transform="translate(54.887 162.897)"/><g transform="translate(630.095 347.131)"><path class="br" d="M570.785,188.867c-1.5,5.688,6.541,12.76,16.457,10.845,7.034-1.346,9.157-6.1,7.224-10.978C591.754,181.833,572.89,180.9,570.785,188.867Z" transform="translate(-570.418 -182.973)"/><path class="bx" d="M584.126,200.38a15.452,15.452,0,0,1-11.224-4.531,7.47,7.47,0,0,1-2.256-6.92c.872-3.318,4.645-5.479,10.086-5.8s12.418,1.536,14.049,5.688a7.982,7.982,0,0,1-.151,6.825,9.954,9.954,0,0,1-7.262,4.342,17.063,17.063,0,0,1-3.242.4Zm-2.085-16.817h-1.27c-5.233.3-8.854,2.351-9.669,5.441h0a7.034,7.034,0,0,0,2.142,6.484,15.414,15.414,0,0,0,14.049,4.076,9.479,9.479,0,0,0,6.92-4.247,7.4,7.4,0,0,0,.133-6.408c-1.422-3.564-7.167-5.347-12.3-5.347Z" transform="translate(-570.506 -183.091)"/></g><g class="by" transform="translate(642.558 350.086)"><path class="bx" d="M577.554,195.779h-.474l2.806-11.129h.246s6.636.853,6.636,5.688a4.132,4.132,0,0,1-1.289,3.052C583.166,195.684,578.426,195.779,577.554,195.779Zm2.749-10.5-2.5,9.954c1.213,0,5.309-.284,7.3-2.237a3.564,3.564,0,0,0,1.1-2.635c0-3.83-4.759-4.873-5.9-5.043Z" transform="translate(-577.08 -184.65)"/></g><g class="by" transform="translate(636.605 357.499)"><path class="bx" d="M576.765,189.47l-2.825-.36.057-.55,2.844.36Z" transform="translate(-573.94 -188.56)"/></g><g class="by" transform="translate(637.692 350.905)"><rect class="bx" width="0.569" height="2.863" transform="matrix(0.125, -0.992, 0.992, 0.125, 0, 0.564)"/></g></g></g></svg>