<svg width="507" height="611" viewBox="0 0 507 611" fill="none" xmlns="http://www.w3.org/2000/svg">
<g clip-path="url(#clip0_1205_5274)">
<path d="M477.549 24.0991C477.81 25.4082 477.79 26.7579 477.491 28.0589C477.192 29.3599 476.62 30.5825 475.813 31.6461C473.172 34.7031 468.719 32.5891 468.719 32.5891L466.832 15.5691L471.285 9.45605C473.827 14.1298 475.924 19.033 477.549 24.0991Z" fill="#DD6668"/>
<path d="M119.498 276.297C119.926 268.809 121.347 261.411 123.724 254.297C130.743 235.957 174.858 183.917 174.858 183.917L237.841 113.197C243.287 111.823 249 111.905 254.404 113.435C259.809 114.965 264.717 117.889 268.635 121.914C274.025 127.215 277.929 133.839 279.956 141.122C281.077 145.072 281.586 149.17 281.465 153.273C279.988 147.194 277.432 141.43 273.918 136.254C271.083 131.897 266.971 128.523 262.144 126.593C269.506 138.77 275.964 151.471 281.465 164.593C284.484 172.14 290.409 173.914 297.73 173.612H298.485C309.202 172.933 322.75 168.48 334.785 171.952C346.106 175.235 352.861 189.424 353.163 205.312C353.606 219.064 348.972 232.497 340.144 243.049C340.144 243.049 340.37 240.822 340.37 237.275V233.201C340.387 233.026 340.387 232.849 340.37 232.673C340.404 232.07 340.404 231.466 340.37 230.862C340.022 225.08 338.957 219.363 337.2 213.843C336.751 212.332 336.222 210.846 335.615 209.39C335.322 208.64 334.982 207.909 334.596 207.201C334.257 206.484 333.917 205.767 333.54 205.05C331.26 200.828 328.115 197.133 324.311 194.207C320.508 191.281 316.13 189.19 311.464 188.068C312.672 189.011 332.864 204.484 334.597 226.409C336.069 243.957 319.087 256.259 314.785 259.089C312.514 266.597 308.767 273.576 303.766 279.618C284.409 301.392 270.409 298.071 270.409 298.071C259.599 303.734 248.016 307.777 236.03 310.071C217.501 313.354 198.293 303.542 187.575 294.561C189.5 296.41 205.198 311.203 217.387 313.43C217.387 313.43 197.726 317.204 183.423 311.468L189.084 317.768C184.632 317.041 180.285 315.774 176.14 313.994L174.065 313.088L171.31 311.729C159.578 306.15 150.471 296.232 145.91 284.068C145.61 283.351 145.381 282.709 145.155 282.143C144.889 281.389 144.662 280.621 144.476 279.843C138.234 282.156 132.657 285.967 128.235 290.942C123.813 295.917 120.681 301.903 119.117 308.372C119.117 308.372 118.817 304.108 118.702 297.772C118.591 290.606 118.856 283.439 119.495 276.3L119.498 276.297ZM320.637 210.297C321.007 224.761 319.485 239.211 316.109 253.28C319.845 243.352 325.544 224.295 320.638 210.295L320.637 210.297Z" fill="url(#paint0_linear_1205_5274)"/>
<g style="mix-blend-mode:color-burn" opacity="0.6">
<path d="M281.316 153.275C281.437 149.172 280.928 145.074 279.807 141.125L273.807 136.257C277.308 141.436 279.851 147.2 281.317 153.276L281.316 153.275Z" fill="url(#paint1_linear_1205_5274)"/>
</g>
<path style="mix-blend-mode:multiply" opacity="0.6" d="M115.008 308.223C115.959 304.599 117.222 301.064 118.782 297.657C123.497 286.671 130.862 277.025 140.217 269.581C149.29 262.812 157.947 255.501 166.141 247.69C161.235 252.785 146.027 269.313 144.555 279.729C144.741 280.507 144.968 281.275 145.234 282.029C149.796 294.76 158.892 305.361 170.782 311.804L173.537 313.163L175.537 314.031C174.443 313.239 156.937 300.747 152.555 282.369C152.783 279.914 153.896 277.625 155.688 275.931C157.48 274.236 159.827 273.252 162.291 273.161C169.166 281.389 177.306 288.472 186.405 294.143C182.743 290.972 179.951 286.92 178.291 282.369C188.999 289.688 200.792 295.279 213.236 298.936C236.595 306.484 250.973 301.351 250.973 301.351C250.973 301.351 292.713 284.79 304.713 257.39C311.883 240.552 314.386 222.094 311.959 203.954C313.756 204.366 315.449 205.14 316.936 206.231C318.422 207.321 319.669 208.704 320.601 210.294C316.899 201.227 311.478 192.962 304.638 185.953L310.938 188.253C310.938 188.253 322.561 188.819 331.354 202.404C331.954 203.272 332.524 204.253 333.09 205.272C333.656 206.291 333.807 206.706 334.147 207.423C334.487 208.14 334.826 208.895 335.166 209.612C335.732 211.046 336.26 212.556 336.751 214.065C338.469 219.595 339.532 225.308 339.921 231.085C339.921 231.714 339.921 232.318 339.921 232.896C339.938 233.072 339.938 233.249 339.921 233.424C339.921 234.934 339.921 236.292 339.921 237.5C339.921 241.047 339.695 243.274 339.695 243.274C347.519 232.181 352.034 219.095 352.714 205.537C351.715 211.705 349.634 217.647 346.567 223.09C346.567 223.09 336.378 199.768 322.151 186.221C310.151 174.9 300.678 173.843 298.037 173.843H297.282C289.961 174.143 284.036 172.443 281.017 164.824C275.516 151.702 269.058 139.001 261.696 126.824L209.124 219.69L170.141 197.048L146.141 238.559L134.82 261.201C129.318 266.065 124.089 271.23 119.159 276.673C115.344 280.588 112.297 285.183 110.177 290.221C109.541 293.391 109.646 296.665 110.484 299.787C111.322 302.909 112.87 305.796 115.007 308.221L115.008 308.223Z" fill="url(#paint2_linear_1205_5274)"/>
<path fill-rule="evenodd" clip-rule="evenodd" d="M343.544 575.025L336.714 580.384L332.563 583.667L320.943 610.291H353.929C352.694 597.992 349.172 586.031 343.544 575.025Z" fill="url(#paint3_linear_1205_5274)"/>
<path d="M261.353 275.128C261.353 275.128 268.032 294.789 273.353 300.828C278.674 306.867 282.674 306.489 282.674 306.489C282.674 306.489 284.374 317.131 272.032 317.81C259.69 318.489 244.332 308.829 244.332 308.829C244.248 304.642 243.575 300.488 242.332 296.489C240.332 290.489 226.671 275.13 226.671 275.13L261.353 275.128Z" fill="url(#paint4_linear_1205_5274)"/>
<path style="mix-blend-mode:multiply" opacity="0.91" fill-rule="evenodd" clip-rule="evenodd" d="M265.39 285.808C265.39 285.808 256.899 293.355 237.012 287.77L226.672 275.128L262.372 278.072L265.39 285.808Z" fill="url(#paint5_linear_1205_5274)"/>
<path d="M164.556 205.725C169.273 220.405 184.33 251.274 212.18 268.142C213.84 269.161 215.539 270.104 217.312 271.01C248.412 287.01 283.088 276.369 283.088 276.369C304.862 263.463 317.769 217.688 311.995 203.914C310.15 199.362 306.948 195.489 302.825 192.819C297.391 189.045 291.504 187.498 288.862 183.46C284.447 176.781 276.862 151.46 265.314 138.175C253.766 124.89 235.614 115.042 217.314 118.627C158.179 130.141 159.5 190.143 164.556 205.725Z" fill="url(#paint6_linear_1205_5274)"/>
<path style="mix-blend-mode:multiply" opacity="0.6" fill-rule="evenodd" clip-rule="evenodd" d="M291.92 186.52C291.69 188.274 291.06 189.952 290.078 191.425C289.097 192.897 287.79 194.124 286.259 195.011C280.749 198.785 268.749 194.634 268.749 194.634C261.27 183.748 255.988 171.506 253.201 158.595C253.201 158.595 245.087 154.368 240.634 158.255C237.065 153.137 231.84 149.405 225.841 147.689L220.86 151.463C220.86 151.463 238.86 181.163 242.182 200.144C242.182 200.144 235.955 206.823 220.86 209.767C205.765 212.711 198.444 213.541 196.972 216.975C193.651 224.522 196.632 246.075 220.18 264.448C241.615 281.203 274.069 278.222 274.069 278.222C256.222 281.638 237.764 279.708 221.01 272.675C194.594 260.901 183.046 238.221 178.744 218.22C175.828 203.081 173.936 187.763 173.083 172.369L183.652 137.5L189.086 133.462L241.239 117.65L260.108 121.914L263.127 135.801C268.468 141.51 272.806 148.081 275.958 155.236C282.185 168.255 285.317 177.652 287.921 181.992C288.971 183.73 290.325 185.263 291.92 186.52Z" fill="url(#paint7_linear_1205_5274)"/>
<path d="M186.293 239.957C186.293 239.957 168.066 227.164 151.726 232.183C150.492 234.548 149.785 237.153 149.655 239.817C149.525 242.482 149.974 245.143 150.971 247.617C150.971 247.617 157.311 274.033 191.953 273.278C194.73 272.555 197.19 270.934 198.95 268.668C200.711 266.403 201.674 263.619 201.689 260.749C201.689 260.749 193.954 245.391 186.293 239.957Z" fill="url(#paint8_linear_1205_5274)"/>
<path fill-rule="evenodd" clip-rule="evenodd" d="M190.633 254.825C190.633 254.825 174.859 238.183 159.723 238.975C158.408 241.41 157.72 244.133 157.72 246.9C157.72 249.667 158.408 252.39 159.723 254.825C159.216 253.037 159.068 251.165 159.289 249.319C159.509 247.473 160.093 245.689 161.006 244.07L170.516 246.296C170.516 246.296 168.705 257.919 175.724 262.561C181.347 266.335 188.324 265.391 190.819 262.561C188.699 263.464 186.377 263.789 184.09 263.504C181.804 263.219 179.633 262.334 177.799 260.938C176.498 259.337 175.539 257.486 174.981 255.5C174.422 253.514 174.277 251.435 174.554 249.39C180.143 250.43 185.556 252.26 190.63 254.824L190.633 254.825Z" fill="#DD6668"/>
<path d="M6.28593 319.544C7.0177 321.418 7.98121 323.193 9.15395 324.827C10.0376 324.719 10.8756 324.374 11.5797 323.83C12.2837 323.285 12.8276 322.56 13.1539 321.732C13.7959 324.826 14.7009 324.826 14.7009 324.826L13.3009 327.09C10.0179 332.449 2.16894 345.959 3.60094 349.279C5.03294 352.599 20.243 369.959 40.81 389.884C49.188 397.96 58.471 406.484 67.943 414.564C88.7342 432.038 111.54 446.962 135.876 459.02C135.876 459.02 145.197 454.114 146.103 435.472C147.009 416.83 135.876 410.15 135.876 410.15L133.876 409.207C125.682 406.267 117.296 403.897 108.776 402.112C93.502 397.826 79.2187 390.582 66.7369 380.791C59.2983 374.276 52.6148 366.947 46.8119 358.941C52.1709 345.167 62.3219 314.788 59.8689 309.883C57.4159 304.978 40.095 291.883 37.642 290.783C34.1139 289.534 30.264 289.534 26.7359 290.783C25.3988 292.123 24.2096 293.603 23.1889 295.198C20.2575 296.081 17.6392 297.783 15.642 300.104C14.4022 299.844 13.1196 299.869 11.8907 300.176C10.6618 300.483 9.51851 301.065 8.54695 301.878C1.64095 297.878 0.659958 301.425 0.659958 301.425C-1.34004 309.425 1.64096 320.784 3.56596 321.162C6.70096 321.771 6.28593 319.544 6.28593 319.544Z" fill="url(#paint9_linear_1205_5274)"/>
<path d="M404.716 185.238C413.169 190.597 426.943 222.975 426.943 222.975C438.264 211.654 469.85 165.199 486.043 124.858C491.798 110.446 496.601 95.6717 500.421 80.6302C500.437 80.543 500.437 80.4535 500.421 80.3662C503.155 69.991 505.307 59.4709 506.866 48.8552C500.866 37.0432 471.766 30.8172 471.766 30.8172C470.59 26.3325 469.986 21.7174 469.966 17.0812C471.763 18.6383 473.893 19.7616 476.193 20.3642C479.432 21.336 482.819 21.7194 486.193 21.4962C483.325 12.1752 471.777 1.49623 468.683 1.26923C465.589 1.04223 460.419 -0.957768 459.136 1.26923C458.04 3.41382 457.131 5.64873 456.419 7.94923L452.419 13.7232C450.811 14.5061 449.259 15.4013 447.777 16.4022C446.612 15.7939 445.318 15.4762 444.003 15.4762C442.689 15.4762 441.395 15.7939 440.23 16.4022C435.627 26.9474 434.671 38.7258 437.513 49.8752C452.51 56.1551 467.071 63.4293 481.099 71.6492C470.872 106.33 429.999 143.689 420.72 153.879C411.441 164.069 404.716 185.238 404.716 185.238Z" fill="url(#paint10_linear_1205_5274)"/>
<path style="mix-blend-mode:multiply" opacity="0.5" fill-rule="evenodd" clip-rule="evenodd" d="M322.72 610.384C331.347 600.897 338.503 588.048 343.015 576.044C340.94 578.837 334.415 581.516 332.373 583.893C323.147 595.515 286.616 610.331 282.803 610.331C232.65 562.556 197.009 531.931 194.519 529.816C211.841 553.591 310.471 610.384 322.72 610.384Z" fill="url(#paint11_linear_1205_5274)"/>
<path d="M176.104 199.012C176.104 199.012 177.689 225.428 186.369 239.957C181.621 236.467 176.256 233.906 170.557 232.41C170.557 232.41 170.746 211.428 176.104 199.012Z" fill="url(#paint12_linear_1205_5274)"/>
<path d="M263.202 135.801C258.9 132.595 254.143 130.051 249.088 128.254C249.088 128.254 245.688 147.802 241.729 155.123C241.729 155.123 240.635 89.2722 219.313 79.9882C228.818 79.9103 238.038 83.2292 245.313 89.3472C257.315 99.6872 263.504 114.593 263.202 135.801Z" fill="url(#paint13_linear_1205_5274)"/>
<path d="M96.629 279.845C98.4597 289.49 102.589 298.552 108.667 306.261C111.937 310.607 115.741 314.525 119.988 317.922C117.309 309.582 120.667 276.411 145.347 259.58C149.087 257.07 152.643 254.296 155.989 251.28C158.343 249.144 160.548 246.849 162.589 244.412C171.362 234.567 176.047 221.745 175.689 208.562C175.66 198.779 176.328 189.005 177.689 179.316V178.599L178.142 175.505C178.152 175.418 178.152 175.329 178.142 175.241C180.311 171.644 182.142 167.854 183.614 163.92C186.968 154.941 188.507 145.385 188.143 135.806C244.749 133.806 240.484 158.184 240.484 158.184C251.239 130.447 238.295 102.106 237.729 100.823C246.313 109.167 251.718 120.244 253.012 132.145C253.578 88.6723 222.483 74.4833 213.162 81.8043C207.992 85.8803 202.407 99.0503 194.562 111.994C188.262 122.409 180.486 132.712 170.262 138.033C162.715 142.033 142.262 155.317 139.884 164.449C136.563 177.129 141.205 197.469 137.242 210.79C133.279 224.111 119.581 233.432 110.826 238.79C102.071 244.148 92.289 255.919 96.629 279.845Z" fill="url(#paint14_linear_1205_5274)"/>
<path d="M125.876 453.738C126.914 457.679 128.583 461.426 130.819 464.833C134.593 470.192 141.801 472.871 146.291 470.494C151.823 471.182 157.397 471.472 162.971 471.362C162.971 471.362 168.481 465.173 178.821 444.191C188.176 426.934 199.663 410.922 213.011 396.529C216.219 393.057 219.087 390.151 221.389 388.038C221.389 388.038 228.71 389.963 237.05 401.586C245.39 413.209 255.39 438.531 254.371 459.173C254.371 459.173 246.182 462.607 244.824 464.947C243.466 467.287 250.711 480.608 250.711 480.608C250.711 480.608 268.07 508.986 288.033 518.949C307.996 528.912 319.053 519.628 322.412 515.628C323.814 513.815 325.076 511.897 326.186 509.892C331.447 500.916 336.051 491.571 339.96 481.929C350.979 455.929 357.281 416.266 357.281 416.266C357.773 415.609 358.215 414.914 358.602 414.19C359.017 413.511 359.432 412.718 359.847 411.963C359.833 411.85 359.833 411.736 359.847 411.623C364.197 403.632 367.085 394.929 368.376 385.923C368.38 385.86 368.38 385.797 368.376 385.734C368.383 385.646 368.383 385.558 368.376 385.47C368.68 382.853 368.794 380.217 368.716 377.583C368.716 377.583 360.716 356.941 331.394 338.6C331.394 338.6 333.771 335.355 337.772 330.071V329.845C351.772 310.976 384.944 267.654 402.265 250.597C402.265 250.597 413.926 247.389 416.907 243.389C417.655 241.417 418.174 239.365 418.453 237.274V236.142C418.453 236.142 425.019 227.5 427.472 223.123C427.472 223.123 419.472 190.782 401.056 183.123C397.145 187.982 394.814 193.92 394.376 200.142C394.376 200.142 384.076 199.123 382.076 200.821C380.076 202.519 374.038 219.161 370.376 226.143C366.714 233.125 321.318 277.315 317.544 278.409C317.544 278.409 303.244 278.409 299.883 280.145C296.522 281.881 289.583 292.485 285.883 295.24C285.883 295.24 287.015 294.146 281.619 293.881C281.061 293.857 280.505 293.968 280 294.205C279.494 294.441 279.052 294.797 278.713 295.24C278.041 296.027 277.529 296.937 277.204 297.919C276.77 299.147 276.442 300.409 276.223 301.693C276.034 303.316 275.997 304.523 275.997 304.523C277.837 306.271 279.279 308.395 280.224 310.75C281.624 317.241 261.582 323.279 242.902 304.637C241.465 305.519 240.279 306.757 239.459 308.231C238.64 309.705 238.214 311.366 238.223 313.052C238.223 313.052 213.882 313.352 204.486 319.467C203.652 320.01 202.891 320.656 202.222 321.392C195.58 329.392 191.58 340.261 185.58 347.431C179.58 354.601 173.24 363.092 173.24 366.3C173.518 370.271 173.997 374.226 174.674 378.149C174.674 378.149 166.9 400.301 160.56 406.263C158.514 404.754 156.299 403.487 153.96 402.489C152.622 403.442 151.577 404.749 150.941 406.263C148.231 403.823 144.878 402.212 141.28 401.621C140.571 401.622 139.868 401.75 139.204 401.998C137.491 402.888 136.202 404.422 135.619 406.262L130.147 408.562C130.147 408.562 138.26 408.562 141.468 426.298C144.676 444.034 138.185 456.488 133.317 458.526L125.876 453.738Z" fill="url(#paint15_linear_1205_5274)"/>
<path style="mix-blend-mode:multiply" opacity="0.5" fill-rule="evenodd" clip-rule="evenodd" d="M125.876 453.738C126.914 457.679 128.583 461.426 130.819 464.833C134.593 470.192 141.801 472.871 146.291 470.494C151.823 471.182 157.397 471.472 162.971 471.362C162.971 471.362 168.481 465.173 178.821 444.191C188.176 426.935 199.663 410.922 213.011 396.529C211.311 398.076 187.387 419.7 178.104 436.829C168.481 454.641 159.613 457.245 159.613 457.245C159.613 457.245 160.255 406.945 131.013 408.187C131.013 408.187 139.127 408.187 142.334 425.923C145.541 443.659 139.051 456.113 134.183 458.151L125.876 453.738Z" fill="url(#paint16_linear_1205_5274)"/>
<path d="M134.216 409.246C134.216 409.246 138.669 409.246 145.764 416.265C152.859 423.284 157.085 444.643 153.311 457.172C148.971 470.757 140.556 471.097 140.556 471.097C140.556 471.097 130.329 471.965 126.027 453.738L134.367 458.078C134.367 458.078 142.292 453.851 142.745 434.719C143.198 415.587 134.216 409.246 134.216 409.246Z" fill="url(#paint17_linear_1205_5274)"/>
<path style="mix-blend-mode:multiply" opacity="0.5" fill-rule="evenodd" clip-rule="evenodd" d="M245.124 464.833C243.803 467.173 251.011 480.494 251.011 480.494C251.011 480.494 268.37 508.872 288.333 518.835C308.296 528.798 319.353 519.514 322.712 515.514C324.114 513.701 325.376 511.783 326.486 509.778H319.204C332.295 495.617 341.227 478.119 345.016 459.21C338.735 478.267 326.615 494.864 310.373 506.646C310.373 506.646 304.146 513.741 283.542 506.646C262.938 499.551 245.124 464.833 245.124 464.833Z" fill="url(#paint18_linear_1205_5274)"/>
<path fill-rule="evenodd" clip-rule="evenodd" d="M320.926 610.386C331.159 604.579 339.506 585.366 343.393 575.366C343.393 575.366 335.393 548.422 322.071 534.119C323.425 530.154 324.176 526.007 324.298 521.819C324.366 519.719 323.814 517.645 322.713 515.856C322.713 515.856 296.297 541.781 254.786 485.666C253.578 484.081 252.409 482.421 251.012 480.647C249.786 481.381 248.679 482.297 247.729 483.364C246.301 484.817 245.149 486.518 244.329 488.383L243.914 489.251C243.334 490.747 242.929 492.304 242.706 493.893C242.706 493.893 215.384 502.271 183.383 532.234C151.382 562.197 139.947 594.576 140.325 610.388L320.926 610.386Z" fill="url(#paint19_linear_1205_5274)"/>
<path d="M220.86 151.614C222.269 155.139 222.269 159.071 220.86 162.596C214.157 163.126 207.639 165.054 201.727 168.257C196.317 171.999 191.943 177.049 189.01 182.937C190.76 176.262 193.999 170.069 198.482 164.823C204.331 158.935 220.03 152.935 220.86 151.614Z" fill="url(#paint20_linear_1205_5274)"/>
<path d="M276.032 155.237C276.032 155.237 269.239 147.425 263.201 147.916C255.314 148.595 253.163 160.445 253.163 160.445C253.163 160.445 253.163 146.558 258.975 142.558C264.787 138.558 273.051 149.728 273.051 149.728C274.001 150.289 274.781 151.098 275.306 152.069C275.832 153.04 276.082 154.134 276.032 155.237Z" fill="url(#paint21_linear_1205_5274)"/>
<path d="M200.633 200.857C200.859 202.442 202.897 203.499 205.879 204.216C207.443 204.586 209.032 204.839 210.634 204.971C215.293 205.348 219.975 205.348 224.634 204.971C226.232 204.851 227.821 204.624 229.389 204.292C235.767 202.858 240.106 199.952 239.729 198.933C238.71 196.405 230.597 182.064 219.275 182.857C207.953 183.65 199.959 196.37 200.633 200.857Z" fill="url(#paint22_linear_1205_5274)"/>
<path d="M266.673 183.69C266.556 185.87 266.746 188.055 267.239 190.181C267.438 191.282 267.821 192.34 268.371 193.313C268.467 193.499 268.61 193.655 268.786 193.766C269.23 194.1 269.728 194.355 270.258 194.521L272.183 194.936C274.588 195.179 277.016 194.987 279.353 194.37H279.919C281.679 193.889 283.349 193.125 284.863 192.106H285.127C286.31 191.269 287.313 190.203 288.078 188.971C288.843 187.74 289.353 186.368 289.58 184.936C289.58 184.936 283.58 171.615 274.712 170.709C269.312 170.181 266.976 176.785 266.712 183.276C266.693 183.414 266.681 183.553 266.674 183.691L266.673 183.69Z" fill="url(#paint23_linear_1205_5274)"/>
<path d="M238.408 196.483C238.408 196.483 231.314 181.388 218.181 181.388C205.048 181.388 197.312 196.483 197.312 196.483C194.204 196.504 191.115 195.994 188.179 194.974C192.063 197.447 196.248 199.413 200.632 200.823C200.632 200.823 207.727 184.332 220.18 184.596C230.672 184.822 238.408 196.483 238.408 196.483Z" fill="#77485E"/>
<path d="M205.389 200.86C205.383 201.998 205.548 203.13 205.879 204.219C207.443 204.589 209.032 204.841 210.634 204.974C215.293 205.351 219.975 205.351 224.634 204.974C226.232 204.854 227.821 204.627 229.389 204.295C229.738 203.158 229.916 201.975 229.917 200.785C230.003 199.118 229.75 197.452 229.171 195.886C228.593 194.321 227.702 192.889 226.553 191.679C225.404 190.469 224.021 189.505 222.487 188.846C220.954 188.188 219.302 187.848 217.633 187.848C215.965 187.848 214.313 188.188 212.78 188.846C211.246 189.505 209.863 190.469 208.714 191.679C207.565 192.889 206.674 194.321 206.095 195.886C205.517 197.452 205.264 199.118 205.35 200.785L205.389 200.86Z" fill="url(#paint24_linear_1205_5274)"/>
<path d="M209.502 200.861C209.486 202.311 209.879 203.736 210.634 204.974C215.293 205.351 219.975 205.351 224.634 204.974C225.411 203.716 225.816 202.264 225.804 200.785C225.88 199.665 225.726 198.542 225.35 197.484C224.974 196.427 224.384 195.458 223.618 194.638C222.852 193.817 221.926 193.164 220.896 192.716C219.867 192.269 218.756 192.039 217.634 192.039C216.512 192.039 215.401 192.269 214.372 192.716C213.342 193.164 212.416 193.817 211.65 194.638C210.883 195.458 210.294 196.427 209.918 197.484C209.542 198.542 209.388 199.665 209.464 200.785L209.502 200.861Z" fill="#522F2E"/>
<path d="M266.673 183.691C266.556 185.871 266.746 188.056 267.239 190.182C267.438 191.282 267.821 192.341 268.371 193.314C268.466 193.5 268.61 193.656 268.786 193.767C269.23 194.101 269.728 194.356 270.258 194.522L272.183 194.937C274.588 195.18 277.016 194.988 279.353 194.371H279.919C281.679 193.89 283.349 193.126 284.863 192.107C284.957 189.984 284.61 187.863 283.844 185.88C281.467 179.502 275.806 175.766 271.244 177.465C270.084 177.967 269.065 178.746 268.275 179.733C267.486 180.719 266.95 181.885 266.715 183.126C266.691 183.314 266.678 183.503 266.677 183.692L266.673 183.691Z" fill="url(#paint25_linear_1205_5274)"/>
<path d="M268.598 191.238C269.023 192.407 269.649 193.493 270.447 194.446L272.372 194.861C274.777 195.104 277.205 194.912 279.542 194.295C280.492 191.986 280.492 189.396 279.542 187.087C277.957 182.86 274.183 180.37 271.164 181.502C268.145 182.634 267.013 187.049 268.598 191.238Z" fill="#522F2E"/>
<path d="M226.446 195.011C226.438 195.365 226.537 195.713 226.729 196.011C226.921 196.308 227.198 196.542 227.523 196.681C227.849 196.82 228.209 196.858 228.556 196.791C228.904 196.723 229.224 196.554 229.474 196.303C229.724 196.053 229.894 195.733 229.961 195.386C230.029 195.038 229.99 194.678 229.851 194.353C229.712 194.027 229.479 193.75 229.182 193.558C228.884 193.366 228.536 193.268 228.182 193.275C227.722 193.275 227.28 193.458 226.954 193.784C226.629 194.109 226.446 194.551 226.446 195.011Z" fill="white"/>
<path d="M283.618 200.408C283.618 200.408 273.768 193.464 265.427 194.785C257.086 196.106 250.937 208.559 250.937 208.559L266.032 207.616L283.618 200.408Z" fill="#F58E6F"/>
<path d="M280.712 181.992C280.712 182.238 280.785 182.479 280.922 182.684C281.059 182.888 281.253 183.048 281.481 183.142C281.708 183.237 281.958 183.261 282.2 183.213C282.441 183.165 282.663 183.047 282.837 182.872C283.011 182.698 283.13 182.476 283.178 182.235C283.226 181.993 283.201 181.743 283.107 181.516C283.013 181.288 282.853 181.094 282.649 180.957C282.444 180.82 282.203 180.747 281.957 180.747C281.627 180.747 281.31 180.878 281.077 181.112C280.843 181.345 280.712 181.662 280.712 181.992Z" fill="white"/>
<path d="M283.618 200.408C283.759 203.02 283.282 205.628 282.227 208.022C281.171 210.415 279.566 212.525 277.542 214.182C274.893 215.224 272.03 215.599 269.202 215.276L252.56 211.125C252.56 211.125 251.918 210.182 250.937 208.559C250.937 208.559 254.937 208.031 262.9 206.71C268.918 202.375 276.205 200.16 283.618 200.41V200.408Z" fill="url(#paint26_linear_1205_5274)"/>
<path fill-rule="evenodd" clip-rule="evenodd" d="M288.297 229.956C287.689 233.06 287.689 236.252 288.297 239.356C289.877 244.743 290.963 250.263 291.542 255.847C291.542 255.847 284.334 266.074 268.9 261.055C253.466 256.036 243.239 232.182 243.239 232.182L288.297 229.956Z" fill="url(#paint27_linear_1205_5274)"/>
<path d="M265.353 214.295C263.872 212.339 261.833 210.878 259.504 210.106C255.73 209.012 255.013 211.653 255.013 211.653L265.353 214.295Z" fill="#C44A4C"/>
<path d="M289.769 220.71C285.631 223.502 280.971 225.428 276.069 226.371C264.905 227.643 253.606 227.045 242.639 224.6L239.771 223.883C239.771 223.883 239.092 224.183 240.865 228.183C240.865 228.183 251.318 248.183 264.865 254.825C276.186 260.335 286.639 255.24 288.224 252.146C289.809 249.052 287.318 239.504 287.998 232.598C288.21 229.109 288.909 225.667 290.074 222.371L289.769 220.71Z" fill="url(#paint28_linear_1205_5274)"/>
<path d="M286.259 222.824C285.008 226.278 283.098 229.457 280.636 232.183C280.636 232.183 266.296 237.127 247.88 225.768C255.888 226.927 263.99 227.293 272.07 226.862C282.636 225.954 286.259 222.824 286.259 222.824Z" fill="#FFEBED"/>
<path d="M276.071 257.24C276.071 257.24 284.034 255.278 285.354 249.957C285.354 249.957 283.09 241.957 270.259 237.617C262.281 235.031 253.779 234.499 245.541 236.07C245.541 236.07 257.957 257.881 276.071 257.24Z" fill="url(#paint29_linear_1205_5274)"/>
<path style="mix-blend-mode:soft-light" opacity="0.3" fill-rule="evenodd" clip-rule="evenodd" d="M3.87197 321.205C6.70197 321.771 6.43798 319.505 6.43798 319.505C7.16981 321.379 8.13328 323.154 9.30596 324.788C10.1896 324.68 11.0276 324.336 11.7317 323.791C12.4357 323.246 12.9796 322.521 13.306 321.693C13.948 324.787 14.853 324.787 14.853 324.787L13.453 327.051L16.887 327.693L27.076 322.598C28.1046 318.919 28.4627 315.084 28.133 311.277C27.814 307.613 28.2114 303.922 29.303 300.409C32.85 299.503 47.1529 313.542 47.1529 313.542C53.8319 321.089 48.021 343.732 48.021 343.732L47.1529 358.638C52.5119 344.864 62.6629 314.485 60.2099 309.58C57.7569 304.675 40.436 291.58 37.983 290.48C34.4549 289.231 30.605 289.231 27.077 290.48C25.7399 291.821 24.5507 293.301 23.53 294.895C20.5984 295.778 17.9801 297.481 15.983 299.801C14.7432 299.541 13.4606 299.566 12.2317 299.873C11.0028 300.18 9.85952 300.762 8.88796 301.575C1.98196 297.575 1.00097 301.122 1.00097 301.122C-1.03403 309.468 1.94697 320.827 3.87197 321.205Z" fill="url(#paint30_linear_1205_5274)"/>
<path d="M288.222 252.146C286.556 253.199 284.695 253.905 282.75 254.222C275.444 255.538 267.923 254.967 260.9 252.562C260.9 252.562 270.41 258.826 278.3 257.279C286.19 255.732 288.222 252.146 288.222 252.146Z" fill="#FFEBED"/>
<path fill-rule="evenodd" clip-rule="evenodd" d="M289.769 220.71C288.68 221.262 287.48 221.559 286.259 221.578C282.359 221.309 278.443 221.398 274.559 221.842C263.993 223.201 255.69 226.635 239.765 223.88C249.974 226.861 260.625 228.036 271.238 227.352C286.108 225.691 289.769 220.71 289.769 220.71Z" fill="#B85652"/>
<path fill-rule="evenodd" clip-rule="evenodd" d="M244.937 220.937C240.934 222.818 237.343 225.473 234.371 228.749C234.371 228.749 236.145 220.635 240.598 218.371C242.304 218.683 243.842 219.593 244.937 220.937Z" fill="#FF8B68"/>
<path fill-rule="evenodd" clip-rule="evenodd" d="M286.259 217.125C286.259 217.125 290.486 218.37 291.542 220.899C292.03 222.666 292.03 224.532 291.542 226.299C291.542 226.299 291.542 222.525 288.221 221.469C288.222 221.427 285.92 218.37 286.259 217.125Z" fill="#FF8B68"/>
<path d="M267.315 189.803C267.315 189.803 265.164 174.519 273.315 171.916C280.523 169.652 287.127 179.916 287.127 179.916C288.958 177.017 290.107 173.739 290.486 170.331C290.486 170.331 288.675 174.105 285.995 174.105C285.995 174.105 277.089 166.029 270.9 168.482C264.107 171.048 267.315 189.803 267.315 189.803Z" fill="#77485E"/>
<path opacity="0.6" d="M183.652 164.029L178.18 175.35C180.348 171.753 182.18 167.963 183.652 164.029Z" fill="url(#paint31_linear_1205_5274)"/>
<path style="mix-blend-mode:multiply" opacity="0.6" d="M183.652 164.03C187.005 155.05 188.545 145.495 188.181 135.916C244.787 133.916 240.522 158.294 240.522 158.294C251.277 130.557 238.337 102.216 237.767 100.933C237.767 100.933 244.673 124.363 240.637 139.01C240.637 139.01 230.146 116.368 217.58 109.726C213.934 107.848 209.819 107.08 205.741 107.516C201.663 107.952 197.803 109.573 194.637 112.179C194.637 112.179 210.26 108.405 218.337 117.613C223.454 123.766 227.382 130.817 229.922 138.406C229.922 138.406 210.522 130.859 195.694 132.557C188.451 133.231 181.302 134.686 174.372 136.897C174.372 136.897 181.919 146.897 176.672 165.389C171.425 183.881 148.86 209.73 136.672 213.089L135.842 215.542C156.929 203.992 173.704 185.918 183.655 164.031L183.652 164.03Z" fill="url(#paint32_linear_1205_5274)"/>
<path style="mix-blend-mode:multiply" opacity="0.6" d="M116.215 287.052C107.724 301.732 119.989 317.959 119.989 317.959C117.31 309.619 120.668 276.448 145.348 259.617C149.088 257.107 152.644 254.333 155.99 251.317C140.443 263.315 124.706 272.335 116.215 287.052Z" fill="url(#paint33_linear_1205_5274)"/>
<path style="mix-blend-mode:multiply" opacity="0.6" d="M108.63 306.185C108.215 304.411 101.686 277.731 113.989 257.504C126.706 236.598 171.689 217.125 171.689 217.125C171.284 226.906 168.132 236.375 162.594 244.447C171.367 234.601 176.052 221.779 175.694 208.597C175.665 198.813 176.333 189.04 177.694 179.351C175.158 192.912 168.125 205.223 157.731 214.296C138.862 230.146 118.145 235.58 108.673 262.449C99.571 288.184 107.913 304.864 108.63 306.185Z" fill="url(#paint34_linear_1205_5274)"/>
<path d="M175.726 202.144C175.726 202.144 167.955 244.405 135.083 260.825C102.211 277.245 66.175 250.183 66.175 250.183C66.175 250.183 101.761 265.693 133.725 247.504C165.689 229.315 177.955 186.143 178.292 175.275L175.726 202.144Z" fill="url(#paint35_linear_1205_5274)"/>
<path fill-rule="evenodd" clip-rule="evenodd" d="M38.8559 323.318C36.5934 322.159 34.5842 320.56 32.9452 318.617C31.3061 316.673 30.0701 314.423 29.3089 311.997C28.3017 308.291 28.3017 304.383 29.3089 300.676C27.6224 304.982 26.9384 309.615 27.3089 314.224C26.5702 317.262 25.1215 320.082 23.0819 322.451C20.4029 324.677 18.8549 320.904 18.8549 320.904C18.8549 320.904 17.5339 324.678 14.8549 324.904C14.8549 324.904 8.47694 335.433 6.89294 338.791L14.4399 341.546C13.8547 344.89 14.4131 348.333 16.0249 351.32C15.5373 349.498 15.423 347.596 15.6888 345.728C15.9547 343.861 16.5952 342.066 17.5719 340.452C23.2996 337.471 29.4445 335.372 35.7989 334.225C35.7989 334.225 39.7559 327.092 38.8559 323.318Z" fill="#DD6668"/>
<path fill-rule="evenodd" clip-rule="evenodd" d="M48.439 317.96V313.016C44.064 308.703 39.0329 305.111 33.533 302.374C38.9452 307.126 43.9328 312.342 48.439 317.96Z" fill="#DD6668"/>
<path fill-rule="evenodd" clip-rule="evenodd" d="M23.533 295.241C19.948 303.272 18.3434 312.047 18.854 320.827C18.854 320.827 16.477 313.28 21.798 295.807L23.533 295.241Z" fill="#DD6668"/>
<path fill-rule="evenodd" clip-rule="evenodd" d="M15.985 300.147C13.4772 307.035 12.5612 314.402 13.306 321.695C11.6974 314.54 12.1161 307.077 14.515 300.147H15.985Z" fill="#DD6668"/>
<path fill-rule="evenodd" clip-rule="evenodd" d="M8.85293 301.921C6.49329 307.476 5.60936 313.547 6.28692 319.544C4.16653 313.462 3.96789 306.875 5.71792 300.676C6.8284 300.899 7.88944 301.321 8.84991 301.921H8.85293Z" fill="#DD6668"/>
<path d="M48.439 313.016C49.9031 316.101 50.7978 319.425 51.08 322.828C50.7876 330.95 49.5205 339.008 47.306 346.828C47.306 346.828 49.419 325.997 49.872 322.601C49.9063 321.43 49.6958 320.265 49.2539 319.18C48.8121 318.095 48.1486 317.115 47.306 316.301L48.439 313.016Z" fill="#DD6668"/>
<path style="mix-blend-mode:multiply" opacity="0.6" fill-rule="evenodd" clip-rule="evenodd" d="M41.042 389.924C49.42 398 58.703 406.524 68.175 414.604C88.9645 432.077 111.769 447.001 136.102 459.058C136.102 459.058 145.423 454.152 146.329 435.51C147.235 416.868 136.102 410.188 136.102 410.188L134.102 409.245C134.593 410.226 141.385 424.645 136.555 438.491C101.704 429.073 69.1832 412.537 41.042 389.924Z" fill="url(#paint36_linear_1205_5274)"/>
<path style="mix-blend-mode:multiply" opacity="0.6" fill-rule="evenodd" clip-rule="evenodd" d="M404.716 185.24C413.169 190.599 426.943 222.977 426.943 222.977C438.264 211.656 469.85 165.201 486.043 124.86C491.797 110.447 496.599 95.6719 500.418 80.6299C498.718 85.5739 471.436 165.614 432.718 199.163C432.717 198.785 415.396 187.653 404.716 185.24Z" fill="url(#paint37_linear_1205_5274)"/>
<path d="M428.378 222.786C428.378 222.786 424.944 233.239 419.397 235.805C419.397 235.805 413.17 212.332 395.397 199.805C395.397 199.805 394.718 188.786 402.039 182.785C402.037 182.785 422.491 191.465 428.378 222.786Z" fill="url(#paint38_linear_1205_5274)"/>
<path d="M456.492 7.646C456.492 7.646 456.266 26.099 456.492 32.439C456.492 32.439 455.624 13.306 455.624 8.929L456.492 7.646Z" fill="#DD6668"/>
<path d="M452.491 13.4199C452.491 13.4199 449.51 26.3259 448.944 32.2889C449.214 26.2238 449.806 20.1772 450.718 14.1749L452.491 13.4199Z" fill="#DD6668"/>
<path d="M447.812 16.0993C445.392 22.9889 443.451 30.0373 442.001 37.1943C442.001 37.1943 442.567 20.8163 444.907 15.1183C445.428 14.9045 446.009 14.8861 446.543 15.0663C447.077 15.2465 447.528 15.6133 447.813 16.0993H447.812Z" fill="#DD6668"/>
<path style="mix-blend-mode:multiply" opacity="0.3" fill-rule="evenodd" clip-rule="evenodd" d="M437.548 49.5761C438.519 45.3305 440.788 41.4923 444.039 38.5941C447.861 35.9352 452.058 33.862 456.492 32.4431C456.927 31.387 457.648 30.4737 458.575 29.8066C459.502 29.1396 460.597 28.7456 461.737 28.6691C465.203 28.6303 468.641 29.2848 471.85 30.5941C470.671 26.1099 470.062 21.4948 470.039 16.8581C471.836 18.4152 473.966 19.5385 476.266 20.1411C479.505 21.1129 482.892 21.4963 486.266 21.2731C483.398 11.9521 471.85 1.27313 468.756 1.04613C465.662 0.819132 460.492 -1.17987 459.209 1.04613C458.113 3.19037 457.204 5.42496 456.492 7.72513L452.492 13.4991C450.884 14.282 449.332 15.1772 447.85 16.1781C446.685 15.5698 445.391 15.2521 444.076 15.2521C442.762 15.2521 441.468 15.5698 440.303 16.1781C435.704 26.6974 434.735 38.4475 437.548 49.5781V49.5761Z" fill="url(#paint39_linear_1205_5274)"/>
<path d="M506.946 48.5529C506.946 48.5529 504.719 34.7409 502.493 31.4199C500.267 28.0989 490.266 25.1929 488.719 23.8729C487.172 22.5529 485.398 13.6459 483.398 11.1929C481.398 8.73991 470.718 3.64591 466.945 4.32491C465.905 5.55673 465.354 7.12823 465.398 8.73991C470.624 14.8551 475.524 21.2416 480.078 27.8729C482.141 30.7709 483.006 34.353 482.493 37.8729C482.493 37.8729 484.945 52.5539 506.946 48.5529Z" fill="url(#paint40_linear_1205_5274)"/>
<path style="mix-blend-mode:multiply" opacity="0.5" fill-rule="evenodd" clip-rule="evenodd" d="M291.165 547.137C286.825 564.383 280.979 581.215 273.693 597.437L282.486 602.569C292.977 577.096 302.072 545.963 302.072 545.963C311.959 545.699 322.035 533.887 322.035 533.887C323.389 529.922 324.139 525.776 324.261 521.587C324.328 519.488 323.777 517.414 322.676 515.625C322.676 515.625 296.26 541.55 254.749 485.435L247.843 483.135C246.502 484.658 245.36 486.344 244.443 488.154L244.028 489.022C243.341 490.481 242.931 492.055 242.82 493.664C251.994 524.985 291.165 547.137 291.165 547.137Z" fill="url(#paint41_linear_1205_5274)"/>
<path d="M482.191 33.3833L482.791 38.9683L476.904 31.7983L482.191 33.3833Z" fill="#DD6668"/>
<path style="mix-blend-mode:multiply" opacity="0.5" fill-rule="evenodd" clip-rule="evenodd" d="M205.614 319.206C212.672 320.369 219.5 322.649 225.841 325.961C250.748 341.056 292.749 349.698 306.448 352.377C293.199 348.89 280.291 344.217 267.881 338.414C291.052 340.075 313.354 324.338 313.354 324.338C319.025 329.697 325.278 334.406 331.996 338.376L318.675 320.753C319.771 306.522 319.771 292.228 318.675 277.997L303.354 279.771C305.165 296.149 295.354 319.433 295.354 319.433C291.315 310.548 286.098 302.247 279.844 294.753L278.524 293.166L278.335 297.43V301.206H277.505C277.316 302.829 277.279 304.036 277.279 304.036C279.119 305.784 280.561 307.908 281.506 310.263C282.906 316.754 262.864 322.792 244.184 304.15C242.747 305.032 241.561 306.27 240.741 307.744C239.922 309.218 239.496 310.879 239.505 312.565C239.505 312.565 215.011 313.092 205.614 319.206Z" fill="url(#paint42_linear_1205_5274)"/>
<path style="mix-blend-mode:multiply" opacity="0.5" fill-rule="evenodd" clip-rule="evenodd" d="M205.426 368.603L221.691 388.075C221.691 388.075 229.012 390 237.352 401.623C245.692 413.246 255.692 438.568 254.673 459.21L260.183 451.663C260.658 461.155 263.236 470.422 267.73 478.796C262.485 458.342 267.73 423.209 267.73 423.209C290.03 412.529 357.545 416.303 357.545 416.303C358.037 415.645 358.479 414.951 358.866 414.227C359.281 413.548 359.696 412.755 360.111 412C360.097 411.887 360.097 411.773 360.111 411.66C363.93 403.38 366.803 394.696 368.677 385.772C368.684 385.684 368.684 385.596 368.677 385.508C362.077 395.508 324.677 400.225 322.336 400.603L337.431 394.829C320.978 396.603 266.296 401.509 250.631 394.829C234.966 388.149 207.237 369.584 205.426 368.603Z" fill="url(#paint43_linear_1205_5274)"/>
<path style="mix-blend-mode:multiply" opacity="0.5" fill-rule="evenodd" clip-rule="evenodd" d="M174.331 365.81C179.805 373.021 183.864 381.203 186.294 389.924C189.577 403.057 188.973 405.736 188.973 405.736C188.973 405.736 181.124 384.83 175.765 377.697C175.765 377.697 173.161 369.131 174.331 365.81Z" fill="url(#paint44_linear_1205_5274)"/>
<path opacity="0.86" fill-rule="evenodd" clip-rule="evenodd" d="M161.839 425.435C161.885 425.858 162.041 426.261 162.292 426.605L161.839 425.435Z" fill="url(#paint45_linear_1205_5274)"/>
<path style="mix-blend-mode:multiply" opacity="0.86" fill-rule="evenodd" clip-rule="evenodd" d="M161.801 425.397C159.914 420.453 153.008 404.83 140.291 401.547C138.578 402.437 137.289 403.971 136.706 405.811C136.706 405.811 155.688 410.378 161.801 425.397Z" fill="url(#paint46_linear_1205_5274)"/>
<path style="mix-blend-mode:multiply" opacity="0.5" fill-rule="evenodd" clip-rule="evenodd" d="M338.374 329.733C352.374 310.864 385.546 267.542 402.867 250.485C402.867 250.485 414.528 247.277 417.509 243.277C418.258 241.305 418.777 239.254 419.056 237.164C418.679 238.749 417.245 241.504 411.697 242.938C411.697 242.938 399.697 218.711 386.79 210.522C387.469 211.541 394.111 221.843 390.752 246.372L338.374 329.733Z" fill="url(#paint47_linear_1205_5274)"/>
<path d="M277.127 304.45L278.184 301.657C278.184 301.657 289.694 308.563 290.184 318.035C290.674 327.507 274.674 327.318 261.353 324.335C253.203 322.421 245.648 318.533 239.353 313.014C239.205 311.284 239.57 309.549 240.402 308.026C241.234 306.502 242.497 305.258 244.033 304.448C244.033 304.448 258.333 316.524 271.204 316.184C284.075 315.844 281.768 308.676 277.127 304.45Z" fill="url(#paint48_linear_1205_5274)"/>
<path style="mix-blend-mode:multiply" opacity="0.5" fill-rule="evenodd" clip-rule="evenodd" d="M221.691 387.924C231.371 390.193 240.899 393.065 250.22 396.524L252.22 436.524C252.22 436.524 246.032 398.792 221.691 387.924Z" fill="url(#paint49_linear_1205_5274)"/>
<path style="mix-blend-mode:multiply" opacity="0.5" fill-rule="evenodd" clip-rule="evenodd" d="M247.805 483.211C258.787 500.08 283.014 523.024 299.43 526.382C316.789 529.929 324.374 521.476 324.374 521.476C324.441 519.376 323.89 517.303 322.789 515.514C322.789 515.514 294.75 542.949 251.089 480.494C249.863 481.228 248.755 482.144 247.805 483.211Z" fill="url(#paint50_linear_1205_5274)"/>
<path style="mix-blend-mode:multiply" opacity="0.5" fill-rule="evenodd" clip-rule="evenodd" d="M170.106 610.418C167.673 591.01 167.236 581.134 167.236 581.134C169.236 563.284 200.181 542.227 200.181 542.227L189.881 526.453L201.617 534L239.352 506.079C252.432 524.202 270.557 538.075 291.467 545.967C268.636 537.854 242.673 493.927 242.673 493.927C242.673 493.927 215.352 502.306 183.352 532.269C151.352 562.232 139.916 594.611 140.294 610.423L170.106 610.418Z" fill="url(#paint51_linear_1205_5274)"/>
<path opacity="0.5" fill-rule="evenodd" clip-rule="evenodd" d="M287.731 559.138C289.052 555.1 290.222 551.062 291.165 547.138C290.599 549.176 289.321 553.516 287.731 559.138Z" fill="url(#paint52_linear_1205_5274)"/>
<path style="mix-blend-mode:multiply" opacity="0.5" fill-rule="evenodd" clip-rule="evenodd" d="M189.954 526.269L200.254 542.194C223.84 562.383 245.415 610.369 245.415 610.369C250.321 610.369 276.233 610.353 285.047 610.353C290.896 594.053 295.88 566.459 297.541 557.44C291.126 590.007 282.446 602.989 282.446 602.989L274.37 598.536C279.594 586.019 283.993 573.174 287.54 560.082C281.778 577.382 274.301 593.528 266.366 609.95L252.666 606.95C252.666 606.95 246.137 600.497 231.458 575.515C216.779 550.533 189.954 526.269 189.954 526.269Z" fill="url(#paint53_linear_1205_5274)"/>
<g style="mix-blend-mode:multiply" opacity="0.5">
<path fill-rule="evenodd" clip-rule="evenodd" d="M235.434 610.385C229.707 604.29 223.119 599.066 215.879 594.88C223.559 598.044 230.968 601.83 238.031 606.201C239.754 607.444 241.357 608.845 242.821 610.385H235.434Z" fill="#BABABA"/>
</g>
<path style="mix-blend-mode:soft-light" d="M295.279 188.521C298.487 189.936 301.323 192.077 303.563 194.775C305.802 197.474 307.385 200.655 308.185 204.069C310.525 215.39 315.732 237.504 285.316 274.94C285.316 274.94 299.354 266.64 310.223 235.882C310.26 235.881 325.581 198.786 295.279 188.521Z" fill="url(#paint54_linear_1205_5274)"/>
</g>
<defs>
<linearGradient id="paint0_linear_1205_5274" x1="235.935" y1="317.974" x2="235.935" y2="112.224" gradientUnits="userSpaceOnUse">
<stop offset="0.02" stop-color="#AA5E44"/>
<stop offset="0.99" stop-color="#4F223A"/>
</linearGradient>
<linearGradient id="paint1_linear_1205_5274" x1="277.578" y1="153.276" x2="277.578" y2="136.257" gradientUnits="userSpaceOnUse">
<stop offset="0.02" stop-color="#DEC2D6"/>
<stop offset="0.99" stop-color="#BD89C4"/>
</linearGradient>
<linearGradient id="paint2_linear_1205_5274" x1="231.483" y1="314.218" x2="231.483" y2="126.637" gradientUnits="userSpaceOnUse">
<stop offset="0.02" stop-color="#DEC2D6"/>
<stop offset="0.99" stop-color="#BD89C4"/>
</linearGradient>
<linearGradient id="paint3_linear_1205_5274" x1="337.403" y1="610.291" x2="337.403" y2="575.025" gradientUnits="userSpaceOnUse">
<stop stop-color="#232323"/>
<stop offset="1" stop-color="#474747"/>
</linearGradient>
<linearGradient id="paint4_linear_1205_5274" x1="254.712" y1="317.844" x2="254.712" y2="275.128" gradientUnits="userSpaceOnUse">
<stop offset="0.02" stop-color="#FF8359"/>
<stop offset="1" stop-color="#FF8B7C"/>
</linearGradient>
<linearGradient id="paint5_linear_1205_5274" x1="246.031" y1="289.844" x2="246.031" y2="275.128" gradientUnits="userSpaceOnUse">
<stop offset="0.02" stop-color="#F0C2D6"/>
<stop offset="0.99" stop-color="#BD89C4"/>
</linearGradient>
<linearGradient id="paint6_linear_1205_5274" x1="237.859" y1="279.837" x2="237.859" y2="117.884" gradientUnits="userSpaceOnUse">
<stop offset="0.02" stop-color="#FFAE78"/>
<stop offset="1" stop-color="#FF957C"/>
</linearGradient>
<linearGradient id="paint7_linear_1205_5274" x1="232.502" y1="280.029" x2="232.502" y2="117.65" gradientUnits="userSpaceOnUse">
<stop stop-color="#FFEADB"/>
<stop offset="0.99" stop-color="#B060F4"/>
</linearGradient>
<linearGradient id="paint8_linear_1205_5274" x1="175.713" y1="273.336" x2="175.713" y2="231.016" gradientUnits="userSpaceOnUse">
<stop offset="0.02" stop-color="#FF8359"/>
<stop offset="1" stop-color="#FF8B7C"/>
</linearGradient>
<linearGradient id="paint9_linear_1205_5274" x1="73.3684" y1="459.02" x2="73.3684" y2="289.846" gradientUnits="userSpaceOnUse">
<stop offset="0.02" stop-color="#FFAE78"/>
<stop offset="1" stop-color="#FF957C"/>
</linearGradient>
<linearGradient id="paint10_linear_1205_5274" x1="455.893" y1="222.752" x2="455.893" y2="0.00430548" gradientUnits="userSpaceOnUse">
<stop offset="0.02" stop-color="#FFAE78"/>
<stop offset="1" stop-color="#FF957C"/>
</linearGradient>
<linearGradient id="paint11_linear_1205_5274" x1="268.767" y1="610.384" x2="268.767" y2="529.735" gradientUnits="userSpaceOnUse">
<stop offset="0.01" stop-color="#BE6888"/>
<stop offset="1" stop-color="#8EA6BA"/>
</linearGradient>
<linearGradient id="paint12_linear_1205_5274" x1="178.4" y1="239.957" x2="178.4" y2="199.012" gradientUnits="userSpaceOnUse">
<stop offset="0.01" stop-color="#7D363D"/>
<stop offset="0.99" stop-color="#4F223A"/>
</linearGradient>
<linearGradient id="paint13_linear_1205_5274" x1="241.219" y1="155.273" x2="241.219" y2="80.062" gradientUnits="userSpaceOnUse">
<stop offset="0.01" stop-color="#7D363D"/>
<stop offset="0.99" stop-color="#4F223A"/>
</linearGradient>
<linearGradient id="paint14_linear_1205_5274" x1="174.293" y1="317.922" x2="174.293" y2="79.9722" gradientUnits="userSpaceOnUse">
<stop offset="0.01" stop-color="#BD725B"/>
<stop offset="0.99" stop-color="#6F2E45"/>
</linearGradient>
<linearGradient id="paint15_linear_1205_5274" x1="277.277" y1="523.406" x2="277.277" y2="182.783" gradientUnits="userSpaceOnUse">
<stop stop-color="#FF5779"/>
<stop offset="1" stop-color="#E43E74"/>
</linearGradient>
<linearGradient id="paint16_linear_1205_5274" x1="169.531" y1="471.46" x2="169.531" y2="396.529" gradientUnits="userSpaceOnUse">
<stop offset="0.01" stop-color="#BE6888"/>
<stop offset="1" stop-color="#8E81F4"/>
</linearGradient>
<linearGradient id="paint17_linear_1205_5274" x1="140.289" y1="471.104" x2="140.289" y2="409.246" gradientUnits="userSpaceOnUse">
<stop stop-color="#FBC8D9"/>
<stop offset="1" stop-color="#FFD1DC"/>
</linearGradient>
<linearGradient id="paint18_linear_1205_5274" x1="295.089" y1="523.356" x2="295.089" y2="459.21" gradientUnits="userSpaceOnUse">
<stop offset="0.01" stop-color="#BE6888"/>
<stop offset="1" stop-color="#8E81F4"/>
</linearGradient>
<linearGradient id="paint19_linear_1205_5274" x1="241.854" y1="610.388" x2="241.854" y2="480.647" gradientUnits="userSpaceOnUse">
<stop stop-color="#373737"/>
<stop offset="1" stop-color="#3F3F3F"/>
</linearGradient>
<linearGradient id="paint20_linear_1205_5274" x1="205.398" y1="182.937" x2="205.398" y2="151.614" gradientUnits="userSpaceOnUse">
<stop offset="0.01" stop-color="#4F223A"/>
<stop offset="0.99" stop-color="#7D363D"/>
</linearGradient>
<linearGradient id="paint21_linear_1205_5274" x1="276.038" y1="151.088" x2="253.163" y2="151.088" gradientUnits="userSpaceOnUse">
<stop offset="0.01" stop-color="#4F223A"/>
<stop offset="0.99" stop-color="#7D363D"/>
</linearGradient>
<linearGradient id="paint22_linear_1205_5274" x1="220.173" y1="205.276" x2="220.173" y2="182.893" gradientUnits="userSpaceOnUse">
<stop stop-color="#D0C7F8"/>
<stop offset="1" stop-color="white"/>
</linearGradient>
<linearGradient id="paint23_linear_1205_5274" x1="278.293" y1="195.014" x2="278.293" y2="170.339" gradientUnits="userSpaceOnUse">
<stop stop-color="#D0C7F8"/>
<stop offset="1" stop-color="white"/>
</linearGradient>
<linearGradient id="paint24_linear_1205_5274" x1="217.658" y1="205.274" x2="217.658" y2="188.562" gradientUnits="userSpaceOnUse">
<stop offset="0.01" stop-color="#C2862E"/>
<stop offset="0.98" stop-color="#74422F"/>
</linearGradient>
<linearGradient id="paint25_linear_1205_5274" x1="275.959" y1="195.021" x2="275.959" y2="176.858" gradientUnits="userSpaceOnUse">
<stop offset="0.01" stop-color="#C2862E"/>
<stop offset="0.98" stop-color="#74422F"/>
</linearGradient>
<linearGradient id="paint26_linear_1205_5274" x1="266.832" y1="192.262" x2="266.832" y2="176.185" gradientUnits="userSpaceOnUse">
<stop offset="0.03" stop-color="#FF6A68"/>
<stop offset="1" stop-color="#FF7C5E"/>
</linearGradient>
<linearGradient id="paint27_linear_1205_5274" x1="291.542" y1="246.199" x2="243.191" y2="246.199" gradientUnits="userSpaceOnUse">
<stop stop-color="#EF686A"/>
<stop offset="1" stop-color="#EC887E"/>
</linearGradient>
<linearGradient id="paint28_linear_1205_5274" x1="264.859" y1="257.27" x2="264.859" y2="220.71" gradientUnits="userSpaceOnUse">
<stop stop-color="#BD5042"/>
<stop offset="0.99" stop-color="#812545"/>
</linearGradient>
<linearGradient id="paint29_linear_1205_5274" x1="265.527" y1="257.276" x2="265.527" y2="235.165" gradientUnits="userSpaceOnUse">
<stop stop-color="#CF6074"/>
<stop offset="1" stop-color="#E04A60"/>
</linearGradient>
<linearGradient id="paint30_linear_1205_5274" x1="30.4522" y1="358.984" x2="30.4522" y2="289.889" gradientUnits="userSpaceOnUse">
<stop offset="0.01" stop-color="#B060F4"/>
<stop offset="1" stop-color="#FFEADB"/>
</linearGradient>
<linearGradient id="paint31_linear_1205_5274" x1="181.047" y1="175.271" x2="181.047" y2="164.029" gradientUnits="userSpaceOnUse">
<stop offset="0.02" stop-color="#DEC2D6"/>
<stop offset="0.99" stop-color="#BD89C4"/>
</linearGradient>
<linearGradient id="paint32_linear_1205_5274" x1="190.42" y1="215.427" x2="190.42" y2="100.933" gradientUnits="userSpaceOnUse">
<stop offset="0.02" stop-color="#DEC2D6"/>
<stop offset="0.99" stop-color="#BD89C4"/>
</linearGradient>
<linearGradient id="paint33_linear_1205_5274" x1="134.605" y1="317.959" x2="134.605" y2="251.317" gradientUnits="userSpaceOnUse">
<stop offset="0.02" stop-color="#DEC2D6"/>
<stop offset="0.99" stop-color="#BD89C4"/>
</linearGradient>
<linearGradient id="paint34_linear_1205_5274" x1="141.073" y1="306.185" x2="141.073" y2="179.351" gradientUnits="userSpaceOnUse">
<stop offset="0.02" stop-color="#DEC2D6"/>
<stop offset="0.99" stop-color="#BD89C4"/>
</linearGradient>
<linearGradient id="paint35_linear_1205_5274" x1="122.233" y1="266.113" x2="122.233" y2="175.275" gradientUnits="userSpaceOnUse">
<stop offset="0.01" stop-color="#C58470"/>
<stop offset="0.98" stop-color="#8E4156"/>
</linearGradient>
<linearGradient id="paint36_linear_1205_5274" x1="93.7117" y1="459.058" x2="93.7117" y2="389.923" gradientUnits="userSpaceOnUse">
<stop offset="0.01" stop-color="#B060F4"/>
<stop offset="1" stop-color="#FFEADB"/>
</linearGradient>
<linearGradient id="paint37_linear_1205_5274" x1="452.567" y1="222.835" x2="452.567" y2="80.3452" gradientUnits="userSpaceOnUse">
<stop offset="0.01" stop-color="#B060F4"/>
<stop offset="1" stop-color="#FFEADB"/>
</linearGradient>
<linearGradient id="paint38_linear_1205_5274" x1="411.879" y1="235.805" x2="411.879" y2="182.785" gradientUnits="userSpaceOnUse">
<stop stop-color="#FBC8D4"/>
<stop offset="1" stop-color="#FFD1E6"/>
</linearGradient>
<linearGradient id="paint39_linear_1205_5274" x1="486.266" y1="24.7913" x2="435.971" y2="24.7913" gradientUnits="userSpaceOnUse">
<stop offset="0.01" stop-color="#B060F4"/>
<stop offset="1" stop-color="#FFEADB"/>
</linearGradient>
<linearGradient id="paint40_linear_1205_5274" x1="486.171" y1="49.2439" x2="486.171" y2="4.26318" gradientUnits="userSpaceOnUse">
<stop stop-color="#FF957C"/>
<stop offset="0.98" stop-color="#FFAE78"/>
</linearGradient>
<linearGradient id="paint41_linear_1205_5274" x1="283.543" y1="602.689" x2="283.543" y2="483.255" gradientUnits="userSpaceOnUse">
<stop stop-color="#EBEBEB"/>
<stop offset="1" stop-color="#C0C0C0"/>
</linearGradient>
<linearGradient id="paint42_linear_1205_5274" x1="268.805" y1="352.228" x2="268.805" y2="278.071" gradientUnits="userSpaceOnUse">
<stop offset="0.01" stop-color="#BE6888"/>
<stop offset="1" stop-color="#8E81F4"/>
</linearGradient>
<linearGradient id="paint43_linear_1205_5274" x1="287.217" y1="478.686" x2="287.217" y2="368.493" gradientUnits="userSpaceOnUse">
<stop offset="0.01" stop-color="#BE6888"/>
<stop offset="1" stop-color="#8E81F4"/>
</linearGradient>
<linearGradient id="paint44_linear_1205_5274" x1="181.538" y1="405.736" x2="181.538" y2="365.81" gradientUnits="userSpaceOnUse">
<stop offset="0.01" stop-color="#BE6888"/>
<stop offset="1" stop-color="#8E81F4"/>
</linearGradient>
<linearGradient id="paint45_linear_1205_5274" x1="162.065" y1="426.605" x2="162.065" y2="425.435" gradientUnits="userSpaceOnUse">
<stop offset="0.01" stop-color="#BE6888"/>
<stop offset="1" stop-color="#8E81F4"/>
</linearGradient>
<linearGradient id="paint46_linear_1205_5274" x1="149.228" y1="425.397" x2="149.228" y2="401.547" gradientUnits="userSpaceOnUse">
<stop offset="0.01" stop-color="#BE6888"/>
<stop offset="1" stop-color="#8E81F4"/>
</linearGradient>
<linearGradient id="paint47_linear_1205_5274" x1="378.876" y1="329.733" x2="378.876" y2="210.403" gradientUnits="userSpaceOnUse">
<stop offset="0.01" stop-color="#BE6888"/>
<stop offset="1" stop-color="#8E81F4"/>
</linearGradient>
<linearGradient id="paint48_linear_1205_5274" x1="264.758" y1="325.955" x2="264.758" y2="301.461" gradientUnits="userSpaceOnUse">
<stop stop-color="#FBC8D1"/>
<stop offset="1" stop-color="#FFD1D6"/>
</linearGradient>
<linearGradient id="paint49_linear_1205_5274" x1="236.925" y1="436.379" x2="236.925" y2="387.924" gradientUnits="userSpaceOnUse">
<stop offset="0.01" stop-color="#BE6888"/>
<stop offset="1" stop-color="#8E81F4"/>
</linearGradient>
<linearGradient id="paint50_linear_1205_5274" x1="286.016" y1="527.251" x2="286.016" y2="480.494" gradientUnits="userSpaceOnUse">
<stop offset="0.01" stop-color="#BE6888"/>
<stop offset="1" stop-color="#8E81F4"/>
</linearGradient>
<linearGradient id="paint51_linear_1205_5274" x1="215.876" y1="493.927" x2="215.876" y2="493.927" gradientUnits="userSpaceOnUse">
<stop offset="0.01" stop-color="#BE6888"/>
<stop offset="1" stop-color="#8EA6BA"/>
</linearGradient>
<linearGradient id="paint52_linear_1205_5274" x1="289.469" y1="559.138" x2="289.469" y2="547.138" gradientUnits="userSpaceOnUse">
<stop offset="0.01" stop-color="#BE6888"/>
<stop offset="1" stop-color="#8EA6F4"/>
</linearGradient>
<linearGradient id="paint53_linear_1205_5274" x1="243.747" y1="610.117" x2="243.747" y2="526.269" gradientUnits="userSpaceOnUse">
<stop stop-color="#767676"/>
<stop offset="1" stop-color="#F1F1F1"/>
</linearGradient>
<linearGradient id="paint54_linear_1205_5274" x1="314.1" y1="231.73" x2="285.345" y2="231.73" gradientUnits="userSpaceOnUse">
<stop stop-color="#BAC2FF"/>
<stop offset="1" stop-color="#E2E2E2"/>
</linearGradient>
<clipPath id="clip0_1205_5274">
<rect width="506.946" height="610.423" fill="white"/>
</clipPath>
</defs>
</svg>
