<svg xmlns="http://www.w3.org/2000/svg" xmlns:xlink="http://www.w3.org/1999/xlink" width="465.358" height="642.127" viewBox="0 0 465.358 642.127"><defs><style>.a{fill:url(#a);}.b{fill:none;}.c{fill:url(#b);}.af,.al,.an,.ay,.az,.ba,.bb,.bc,.bd,.be,.bf,.d,.h,.i,.j,.k,.m,.s{fill-rule:evenodd;}.at,.au,.av,.ay,.bd,.be,.bk,.d,.i,.j,.p,.q,.r,.t,.u{opacity:0.5;}.at,.av,.ax,.ay,.az,.d,.h,.i,.j,.m,.p,.r{mix-blend-mode:multiply;}.at,.av,.ax,.ay,.az,.bh,.bi,.d,.h,.i,.j,.m,.p,.r{isolation:isolate;}.d{fill:url(#c);}.e{fill:url(#d);}.f{fill:url(#e);}.g{fill:url(#f);}.h{opacity:0.91;fill:url(#g);}.i{fill:url(#h);}.j{fill:url(#i);}.k{fill:url(#j);}.l{fill:url(#k);}.az,.m{opacity:0.6;}.m{fill:url(#l);}.n{fill:url(#m);}.o{fill:url(#n);}.p{fill:url(#o);}.q{fill:url(#p);}.r{fill:url(#q);}.s{fill:url(#r);}.t{fill:url(#s);}.u{fill:url(#t);}.v{fill:url(#u);}.w{fill:url(#v);}.x{fill:url(#w);}.y{fill:url(#x);}.z{clip-path:url(#z);}.aa{fill:url(#aa);}.ab{fill:#522f2e;}.ac{clip-path:url(#ab);}.ad{fill:url(#ac);}.ae{fill:url(#ad);}.af{fill:#dd6668;}.ag{fill:#77485e;}.ah{fill:#fff;}.ai{fill:#f58e6f;}.aj{fill:url(#ae);}.ak{fill:#c44a4c;}.al{fill:#cc5952;}.am{fill:#ffebed;}.an{fill:#ff8b68;}.ao{fill:url(#af);}.ap{fill:url(#ag);}.aq{fill:url(#ah);}.ar{fill:url(#ai);}.as{fill:url(#aj);}.at{fill:url(#ak);}.au{fill:url(#al);}.av{fill:url(#am);}.aw,.ax{opacity:0.13;}.aw{fill:url(#an);}.ax{fill:url(#ao);}.ay{fill:url(#ap);}.az{fill:#741d72;}.ba{fill:url(#aq);}.bb{fill:url(#ar);}.bc{fill:url(#as);}.bd{fill:url(#at);}.be{fill:url(#au);}.bf{fill:url(#av);}.bg{fill:url(#aw);}.bh,.bi{mix-blend-mode:screen;}.bh{fill:url(#ax);}.bi{fill:url(#ay);}.bj{fill:#ff772c;}.bl{fill:url(#az);}.bm{fill:url(#ba);}.bn{fill:url(#bb);}.bo{fill:url(#bc);}.bp{fill:url(#bd);}.bq{fill:url(#be);}.br{fill:url(#bf);}.bs{fill:url(#bg);}.bt{fill:url(#bh);}.bu{fill:url(#bi);}.bv{fill:url(#bj);}.bw{fill:url(#bk);}.bx{fill:url(#bl);}.by{fill:url(#bm);}</style><linearGradient id="a" x1="0.5" y1="1" x2="0.5" y2="0.001" gradientUnits="objectBoundingBox"><stop offset="0" stop-color="#d0c7f8"/><stop offset="1" stop-color="#fff"/></linearGradient><linearGradient id="b" x1="0.015" y1="1" x2="0.015" gradientUnits="objectBoundingBox"><stop offset="0" stop-color="#2a82db"/><stop offset="1" stop-color="#d1d4ff"/></linearGradient><linearGradient id="c" x1="-0.045" y1="1" x2="-0.045" gradientUnits="objectBoundingBox"><stop offset="0" stop-color="#688abe"/><stop offset="1" stop-color="#81bff4"/></linearGradient><linearGradient id="d" x1="0.253" x2="0.253" y2="0" xlink:href="#b"/><linearGradient id="e" x1="-3.248" y1="1" x2="-3.248" y2="-0.001" gradientUnits="objectBoundingBox"><stop offset="0.01" stop-color="#512438"/><stop offset="0.99" stop-color="#5e1a31"/></linearGradient><linearGradient id="f" x1="-0.424" y1="1" x2="-0.424" gradientUnits="objectBoundingBox"><stop offset="0.02" stop-color="#ff8359"/><stop offset="1" stop-color="#ff8b7c"/></linearGradient><linearGradient id="g" x1="-0.473" y1="1" x2="-0.473" gradientUnits="objectBoundingBox"><stop offset="0.02" stop-color="#f0c2d6"/><stop offset="0.99" stop-color="#bd89c4"/></linearGradient><linearGradient id="h" x1="-0.215" y1="1" x2="-0.215" gradientUnits="objectBoundingBox"><stop offset="0.01" stop-color="#be6888"/><stop offset="1" stop-color="#8e81f4"/></linearGradient><linearGradient id="i" x1="0.118" y1="1" x2="0.118" gradientUnits="objectBoundingBox"><stop offset="0" stop-color="#4a6d91"/><stop offset="1" stop-color="#667dca"/></linearGradient><linearGradient id="j" x1="-0.454" y1="1" x2="-0.454" gradientUnits="objectBoundingBox"><stop offset="0" stop-color="#ff023e"/><stop offset="1" stop-color="#d32c31"/></linearGradient><linearGradient id="k" x1="-0.003" y1="1" x2="-0.003" y2="-0.001" gradientUnits="objectBoundingBox"><stop offset="0.02" stop-color="#ffae78"/><stop offset="1" stop-color="#ff957c"/></linearGradient><linearGradient id="l" x1="-0.1" y1="1" x2="-0.1" gradientUnits="objectBoundingBox"><stop offset="0" stop-color="#ffeadb"/><stop offset="0.99" stop-color="#b060f4"/></linearGradient><linearGradient id="m" x1="-0.018" y1="1" x2="-0.018" gradientUnits="objectBoundingBox"><stop offset="0.01" stop-color="#512438"/><stop offset="0.99" stop-color="#832e31"/></linearGradient><linearGradient id="n" x1="-0.04" x2="-0.04" y2="0" xlink:href="#b"/><linearGradient id="o" x1="-0.32" y1="1" x2="-0.32" y2="0" xlink:href="#h"/><linearGradient id="p" x1="-0.971" y1="1" x2="-0.971" y2="0" xlink:href="#h"/><linearGradient id="q" x1="-0.473" y1="1" x2="-0.473" y2="0" xlink:href="#h"/><linearGradient id="r" x1="0.2" y1="1" x2="0.2" gradientUnits="objectBoundingBox"><stop offset="0" stop-color="#2a82db"/><stop offset="1" stop-color="#2a54db"/></linearGradient><linearGradient id="s" x1="-0.511" y1="1" x2="-0.511" y2="0" xlink:href="#h"/><linearGradient id="t" x1="0.055" y1="1" x2="0.055" y2="0" xlink:href="#h"/><linearGradient id="u" x1="-0.451" y1="1" x2="-0.451" gradientUnits="objectBoundingBox"><stop offset="0" stop-color="#deeafd"/><stop offset="1" stop-color="#f1f3ff"/></linearGradient><linearGradient id="v" x1="-1.021" y1="1" x2="-1.021" gradientUnits="objectBoundingBox"><stop offset="0" stop-color="#dee7fd"/><stop offset="1" stop-color="#f1f6ff"/></linearGradient><linearGradient id="w" x1="-3.544" y1="1" x2="-3.544" y2="0.002" gradientUnits="objectBoundingBox"><stop offset="0.01" stop-color="#4f223a"/><stop offset="0.99" stop-color="#7d363d"/></linearGradient><linearGradient id="x" x1="-1.308" y1="1" x2="-1.308" y2="0" xlink:href="#w"/><clipPath id="z"><path class="a" d="M1005.611,139.8a22.133,22.133,0,0,0,11.785,1.151,19.314,19.314,0,0,0,11.1-6.45l.41-.517a2.6,2.6,0,0,0-.223-.357,23.622,23.622,0,0,0-3.568-4.978,20.677,20.677,0,0,0-3.569-3.194,20.913,20.913,0,0,0-5.308-2.676,21.143,21.143,0,0,0-10.081-.892C1000.99,129.919,1005.611,139.8,1005.611,139.8Z" transform="translate(-1003.71 -121.642)"/></clipPath><linearGradient id="aa" x1="-37.631" y1="2.476" x2="-37.631" y2="1.476" gradientUnits="objectBoundingBox"><stop offset="0.01" stop-color="#c2862e"/><stop offset="0.98" stop-color="#74422f"/></linearGradient><clipPath id="ab"><path class="b" d="M1060.988,143.316a12.908,12.908,0,0,0,5.683-.955,9.964,9.964,0,0,0,3.72-2.676,11.177,11.177,0,0,0,2.213-4.291,10.367,10.367,0,0,0-.107-5.692,18.985,18.985,0,0,0-7.708-10.161C1061.666,117.819,1055.743,130.112,1060.988,143.316Z" transform="translate(-1058.901 -119.379)"/></clipPath><linearGradient id="ac" x1="-3.663" y1="1" x2="-3.663" y2="-0.001" xlink:href="#a"/><linearGradient id="ad" x1="-45.82" y1="2.61" x2="-45.82" y2="1.61" xlink:href="#aa"/><linearGradient id="ae" x1="-1.324" y1="0.998" x2="-1.324" y2="-0.002" gradientUnits="objectBoundingBox"><stop offset="0.03" stop-color="#ff6a68"/><stop offset="1" stop-color="#ff7c5e"/></linearGradient><linearGradient id="af" x1="-0.943" y1="1" x2="-0.943" y2="0" xlink:href="#f"/><linearGradient id="ag" x1="-1.017" y1="1.001" x2="-1.017" y2="0.001" gradientUnits="objectBoundingBox"><stop offset="0.01" stop-color="#6f2e45"/><stop offset="0.99" stop-color="#a6453d"/></linearGradient><linearGradient id="ah" x1="-1.831" y1="1" x2="-1.831" y2="0" xlink:href="#ag"/><linearGradient id="ai" x1="-1.87" y1="1" x2="-1.87" y2="0" xlink:href="#ag"/><linearGradient id="aj" x1="-1.865" y1="0.999" x2="-1.865" y2="-0.001" xlink:href="#ag"/><linearGradient id="ak" x1="-0.942" y1="1" x2="-0.942" y2="0" xlink:href="#h"/><linearGradient id="al" x1="-0.861" y1="1" x2="-0.861" y2="0" xlink:href="#h"/><linearGradient id="am" x1="-0.739" y1="1" x2="-0.739" y2="0" xlink:href="#h"/><linearGradient id="an" x1="-0.831" y1="1" x2="-0.831" y2="0" xlink:href="#h"/><linearGradient id="ao" x1="-1.764" y1="1.001" x2="-1.764" y2="0.001" xlink:href="#h"/><linearGradient id="ap" x1="-1.898" y1="1" x2="-1.898" gradientUnits="objectBoundingBox"><stop offset="0" stop-color="#6b68be"/><stop offset="1" stop-color="#6898d0"/></linearGradient><radialGradient id="aq" cx="0.5" cy="0.5" r="0.622" gradientTransform="translate(0.198) scale(0.691 1)" gradientUnits="objectBoundingBox"><stop offset="0" stop-color="#e06592"/><stop offset="1" stop-color="#e3778d"/></radialGradient><radialGradient id="ar" cx="0.5" cy="0.5" r="0.622" gradientTransform="translate(0.198) scale(0.691 1)" gradientUnits="objectBoundingBox"><stop offset="0" stop-color="#e0658a"/><stop offset="1" stop-color="#b84c7b"/></radialGradient><radialGradient id="as" cx="0.518" cy="0.434" r="1.595" gradientTransform="matrix(0.223, -0.12, 0.025, 0.91, 2.208, 0.19)" gradientUnits="objectBoundingBox"><stop offset="0" stop-color="#603082"/><stop offset="0.99" stop-color="#2a0e51"/></radialGradient><linearGradient id="at" x1="3.9" y1="-3.078" x2="4.819" y2="-3.078" gradientUnits="objectBoundingBox"><stop offset="0" stop-color="#f3e6ee"/><stop offset="0.98" stop-color="#e5dfed"/></linearGradient><linearGradient id="au" x1="10.162" y1="-3.865" x2="11.059" y2="-3.865" xlink:href="#at"/><linearGradient id="av" x1="13.154" y1="-4.536" x2="14.07" y2="-4.536" gradientUnits="objectBoundingBox"><stop offset="0" stop-color="#e0336b"/><stop offset="1" stop-color="#ff6e27"/></linearGradient><linearGradient id="aw" x1="3.93" y1="-2.877" x2="3.93" y2="-3.877" gradientUnits="objectBoundingBox"><stop offset="0" stop-color="#ff8647"/><stop offset="1" stop-color="#ffb934"/></linearGradient><linearGradient id="ax" x1="0.703" y1="1" x2="0.703" gradientUnits="objectBoundingBox"><stop offset="0"/><stop offset="0.1" stop-color="#050304"/><stop offset="0.23" stop-color="#130c10"/><stop offset="0.36" stop-color="#2b1b23"/><stop offset="0.5" stop-color="#4c2f3f"/><stop offset="0.65" stop-color="#774a62"/><stop offset="0.8" stop-color="#ab6b8d"/><stop offset="0.95" stop-color="#e890bf"/><stop offset="1" stop-color="#ff9fd2"/></linearGradient><linearGradient id="ay" x1="0.896" y1="1" x2="0.896" y2="0" xlink:href="#ax"/><linearGradient id="az" x1="3.177" y1="1" x2="3.177" y2="0" xlink:href="#h"/><linearGradient id="ba" x1="2.202" y1="1" x2="2.202" y2="0" xlink:href="#h"/><linearGradient id="bb" x1="1.345" y1="0.5" x2="2.345" y2="0.5" gradientUnits="objectBoundingBox"><stop offset="0" stop-color="#ff957c"/><stop offset="0.98" stop-color="#ffae78"/></linearGradient><linearGradient id="bc" x1="3.208" y1="1" x2="3.208" y2="0" xlink:href="#f"/><linearGradient id="bd" x1="2.434" y1="0.501" x2="3.434" y2="0.501" xlink:href="#bb"/><linearGradient id="be" x1="2.333" y1="1.004" x2="2.333" y2="0.004" xlink:href="#f"/><linearGradient id="bf" x1="2.397" y1="1" x2="2.397" y2="0" xlink:href="#f"/><linearGradient id="bg" x1="4.41" y1="1" x2="4.41" y2="0" xlink:href="#f"/><linearGradient id="bh" x1="1.337" y1="0.5" x2="2.338" y2="0.5" xlink:href="#k"/><linearGradient id="bi" x1="2.524" y1="0.501" x2="3.524" y2="0.501" xlink:href="#k"/><linearGradient id="bj" x1="3.04" y1="1.005" x2="3.04" y2="0" xlink:href="#f"/><linearGradient id="bk" x1="2.186" y1="1" x2="2.186" y2="0" xlink:href="#f"/><linearGradient id="bl" x1="8.377" y1="2.178" x2="7.023" y2="2.845" xlink:href="#ax"/><linearGradient id="bm" x1="8.378" y1="2.179" x2="7.024" y2="2.847" xlink:href="#ax"/></defs><g transform="translate(11.576 0)"><g transform="translate(46.634 0)"><path class="c" d="M1054.751,465.556s26.976-2.527,35.175,16.252c4.184,9.6,5.112,12.84,5.086,21.146a90.816,90.816,0,0,1-1.044,13.614s12.3-.357,16.406-5.817a60.262,60.262,0,0,0,.321-9.189,29.885,29.885,0,0,0-1.338-8.225s44.1-63.135,52.3-73.716,20.715-19.074,20.715-19.074l6.941-27.656,16.736-66.669-18.619-23.035-9.153-11.348a82.6,82.6,0,0,0-10.554,8.993A106.108,106.108,0,0,0,1147.3,308.56s-12.293,34.169-16.058,48.871c-1.891,7.431-8.672,17.272-14.9,25.176-4.675,5.933-9.019,10.706-10.795,12.65l-.33.357-.25.277-.241.277s-26.172,40.13-32.1,42.432c-3.056,6.206-19.01,20.133-17.875,26.957Z" transform="translate(-1085.36 -59.972)"/><path class="d" d="M1100.76,416.2s23.561,11.972,31.76,30.752c4.184,9.6,5.165,20.448,5.139,28.753l15.683-1.392a29.88,29.88,0,0,0-1.338-8.225s16.406-35.89,24.6-46.471,20.715-19.074,20.715-19.074l6.941-27.656-2.043-27.852s12.133-38,.161-61.851a31.821,31.821,0,0,0-9.153-11.348,82.613,82.613,0,0,0-10.554,8.993s12.847,33.812,10.554,60.245-10.554,41.573-10.554,41.573-31.786,3.774-51.386,0h0l-10.777,12.615-.33.357-.25.277-.241.277s19.332,12.3,27.067,34.606c0,0-25.506-30.966-43.054-34.6a33.072,33.072,0,0,0-2.944,20.019Z" transform="translate(-1100.312 -59.972)"/><path class="e" d="M856.24,270.731l5-3.2s10.946,21.411,10.946,35.07c0,7.307-3.131,26.9-6.066,43.5-2.543,14.381-4.88,26.505-4.88,26.505,6.834,56.784,37.915,118.6,37.915,118.6v22.749s3.131,6.4,32.277,9.117,92.058,0,92.058,0-7.306-15.951-5.478-22.428c1.6-5.8,14.2-47.559,24.087-74.751,1.151-3.194,2.248-6.156,3.283-8.841,10-25.809,47.372-122.891,47.372-122.891s1.784-10.706-.473-13.578-12.311-2.132-44.606-10.331-50.093-24.266-50.093-24.266c-2.676-2.159-9.564-13.614-9.564-13.614L924.675,240.4s-12.49,18.931-20.8,21.482S859.6,260.2,859.6,260.2C856.089,262.292,856.24,270.731,856.24,270.731Z" transform="translate(-768.328 -55.714)"/><path class="f" d="M1061.723,58s-5.647,21.616.161,36.577,12.989-21.572,12.989-21.572Z" transform="translate(-930.898 -36.904)"/><path class="g" d="M1034.649,196.6s-2.73,12.722,3.194,31.929c0,0-17.2,24.328-40.717,26.095,0,0-14.408-.892-22.607-18.021l14.122-33.731Z" transform="translate(-818.27 -51.855)"/><path class="h" d="M1037.6,205.359s-15.621,30.939-28.949,40.324-21.108,2.275-21.108,2.275A32.819,32.819,0,0,1,978.1,236.6l22.606-36.7,37.523-3.319Z" transform="translate(-821.85 -51.853)"/><path class="i" d="M856.3,391.32l8.921,47.015,21.509-6.62c1.151-3.167,2.239-6.147,3.283-8.832,10-25.765,47.4-122.855,47.4-122.855s1.838-10.706-.464-13.578c0,0-34.275,10.188-47.666,46.159s-10.634,76.723-10.634,76.723-8.716-49.5-5.5-70.478Z" transform="translate(-613.069 -61.548)"/><path class="j" d="M1087.877,264.47s-41.662,37.746-74.707,55.312c0,0-4.14,3.72-3.917,8.805,0,0,41.109-10.063,59.987-23.4,0,0-18,15.746-58.88,33.821,0,0,3.292,54.17,8.761,71.013l-4.148,4.541-27.5-58.568s-17.691-27.888-25.327-50.744c0,0-16.95,41.288-15.844,58.461s9.733,34.213,9.733,34.213l-21.349-29.44,18.735-82.343,14.729-21.527,3.319-1.668,31.662-1.784h8.475l3.774-.491,57.685-3.97Z" transform="translate(-832.771 -58.338)"/><path class="k" d="M1003.771,413.315s5.8,16.62,14.078,26.764h0a31.063,31.063,0,0,0,3.122,3.39l2.266-1.5,31.224-20.7s-9.92-66.2-8.921-118.109c0,0,10.384-2.676,16.433-8.921h0a15.728,15.728,0,0,0,2.837-3.881s1.017-9.073-1.062-13.935a5.282,5.282,0,0,0-1.838-2.489s-24.239-3.087-34.133-2.159A17.191,17.191,0,0,0,1024,283.617a64.475,64.475,0,0,0,5.469,11.205h0a50.106,50.106,0,0,0,4.889,6.727l-.41,1.088c-.134.384-.33.848-.517,1.418-.3.74-.633,1.642-.981,2.676l-.3.821-.892,2.427-.357.99c-3.283,9.234-8.475,24.462-13.56,42.01s-10.108,37.469-13.007,56.035h0C1004.19,410.5,1003.967,411.888,1003.771,413.315Z" transform="translate(-871.582 -59.946)"/><path class="l" d="M954.935,161.4v1.784c.321,17.932,19.912,53.581,23.7,55.151s20.706,3.881,31.421,0c6.129-2.221,15.657-9.234,24.328-17.6,6.477-6.245,12.49-13.293,16.21-19.627.625-1.062,1.24-2.186,1.838-3.426l.089-.089h0a149.249,149.249,0,0,0,6.976-16.058c10.01-27.076,17.843-66.669,5.21-81.371-24.319-28.379-67.4-32.117-86.108-22.937a21.81,21.81,0,0,0-5.54,3.6,12.553,12.553,0,0,0-2.926,4.2,52.553,52.553,0,0,0-2.275,7.9v.089a2.849,2.849,0,0,1-.054.473,132.612,132.612,0,0,0-2.195,15.478c-.473,4.791-.794,9.813-1.035,14.622-.767,15.675-.651,30.029-1.008,32.277-.5,3.14-4.461,11.071-6.887,18.083v.089A29.622,29.622,0,0,0,954.935,161.4Z" transform="translate(-834.21 -36.339)"/><path class="m" d="M966.46,136.173l1.418,2.837s11.1-1.178,13.15-8.145,0-27.192,0-27.192c3.934-3.569,13.828,0,13.828,0-.161,10.081,3.568,30.5,3.568,30.5s8.85,7.922,19.538,5.879a59.085,59.085,0,0,0,18.636-7.084c10.081.107,13.864,11.767,8.422,38.558s-32.117,47.1-32.117,47.1c10.706-3.881,31.822-22.383,40.538-37.255a131.137,131.137,0,0,0,8.921-19.627l.107-17.191,1.374-34.409-1.374-32.34-16.4-14.131-38.647-8.029-26,1.838-4.015.268-1.481,3.381-5.192,12.106v.17l-.053.384L968.5,89.265s-.58,9.564-1.044,14.622v.41C967.013,109.222,966.46,136.173,966.46,136.173Z" transform="translate(-837.081 -36.65)"/><path class="n" d="M956.1,80.831l-.241-7.307s3.2,8.029,7.753,12.07c0,0,2.284-15.032,6.156-20.519,0,0,1.784,0,4.826-.125s7.726-.321,13.168-.767c8.787-.74,27.049-1.035,39.735,4.648a27.757,27.757,0,0,1,7.432,4.675s5.683,13.435-4.791,27.576c0,0,4.55,3.64,7.039,16.834s0,31.662,0,31.662,5.977-9.109,12.106-10.59c0,0,7.931-17.753,9.974-33.009s3.542-29.494-4.594-33.571-31.367-16.13-39.8-21.723-19.35-13.819-22.785-14.97-31.983-5.442-43.643,12.757C948.442,48.465,945.177,65.772,956.1,80.831Z" transform="translate(-817.617 -34.363)"/><path class="o" d="M790.821,400.684c15.5,9.59,19.127,51.931,20.519,64.7.294,2.792.892,6.04,1.5,9.4,2.382,11.892,6.245,25.2,6.245,25.2,17.3,18.735,48.963,38.513,48.963,38.513.892-21.152,11.874-21.188,11.874-21.188S885.155,469.7,879,460.35s-5.933-13.882-5.933-13.882a.49.49,0,0,0,0-.2,88.066,88.066,0,0,0,0-16.264.339.339,0,0,0,0-.161c-4.568-2.73-12.079-2.73-12.079-2.73a35.681,35.681,0,0,1-2.873-6.566V420.5a121.8,121.8,0,0,1-3.934-15.336s-3.2-61.2-6.62-75-12.053-37.532-12.053-37.532-31.108,2.079-40.235,40.815c-1.642,6.941-2.81,13.525-3.658,19.707v.08C787.672,381.495,790.821,400.684,790.821,400.684Z" transform="translate(-513.402 -62.214)"/><path class="p" d="M832.221,408.012c15.5,9.59,19.127,51.931,20.519,64.7.294,2.792.892,6.04,1.5,9.4l2.159,6.066,35.926,29.253c-.892-1.561-30.529-51.36-33.838-75.251,0,0,19.3-12.766,43.9-7.735l-2.873-6.566v-.054s-21.241,1.784-37.639-4.916c-15.933-6.5-29.547-51.039-28.86-62.351C829.072,388.823,832.221,408.012,832.221,408.012Z" transform="translate(-554.802 -69.542)"/><path class="q" d="M1005.223,283.616a64.473,64.473,0,0,0,5.469,11.205h0s2.32-14.9,9.287-18.735a54.83,54.83,0,0,1,23.2,0c.625.134,1.222.25,1.784.33a5.282,5.282,0,0,0-1.838-2.489s-24.239-3.087-34.133-2.159A17.192,17.192,0,0,0,1005.223,283.616Z" transform="translate(-852.747 -59.944)"/><path class="r" d="M1007.27,419.061l3.934,19.564,12.079,4.211h0l5.353,1.891,31.224-20.7s-9.92-66.2-8.921-118.109c0,0,10.384-2.676,16.433-8.921h0s-16.183,7.467-27.585,7.307l-.41,1.088-.517,1.418-.981,2.676-.3.821-.892,2.427-.357.99,11.348,14.319s3.568,63.341-2.409,86.349c0,0-17.9,12.106-35.507-2.6h0Z" transform="translate(-877.016 -62.685)"/><path class="s" d="M910.811,442.388c5.112,18.735,11.91,38.1,20.9,53.528,0,0-3.658,30.966-17.272,52.832,1.285-1.035,21.919-18.226,38.683-49.147,0,0,34.623,35.07,79.265,58.309,0,0,9.207-36.631,15.96-41.439a46.2,46.2,0,0,1,15.443,18.86c-.437-1.311-7.922-22.99-7.271-31.224.223-2.676,2.846-11.972,6.316-23.427,7.4-24.382,18.735-58.55,19.19-60.1-.517.437-7.03,6.066-12.276,3.006-5.469-3.2-9.564-56.472-3.194-97.724s17.762-52.154,17.762-52.154l8.591,2.025s-1.062-6.245-4.808-9.019l-.161.08c-.892.384-5.959,2.382-10.661,1.151a16.059,16.059,0,0,1-7.77-4.291s-14.6,50.209-27.388,93.593c0,0-44.3,52.805-80.791,75.465-1.865,1.151-3.667,2.212-5.469,3.2l-.08-.116c-1.891-2.052-32.063-35.533-39.557-64.67C908.491,341.06,940.5,265.318,940.5,265.318a42.366,42.366,0,0,0-5.273-1.258c-3.506-.6-7.735-.794-9.456,1.258,0,0-24.766,81.558-27.772,110.677a480.7,480.7,0,0,0,12.811,66.392Z" transform="translate(-805.074 -59.088)"/><path class="t" d="M1051.63,376.042a480.677,480.677,0,0,0,12.82,66.392l45.043-6.5-.08-.116c-1.891-2.052-32.063-35.533-39.557-64.67-7.735-30.065,24.275-105.806,24.275-105.806a42.353,42.353,0,0,0-5.272-1.258c-1.641,6.147-21.322,79.926-22.8,94.387-1.5,15.113,7.44,40.146,7.44,40.146A73.529,73.529,0,0,1,1051.63,376.042Z" transform="translate(-958.712 -59.134)"/><path class="u" d="M898,433.078,940.376,475.2l59.148,5.8c7.4-24.382,18.735-58.55,19.19-60.1-.517.437-7.03,6.066-12.276,3.006-5.469-3.2-9.564-56.472-3.194-97.724s17.762-52.154,17.762-52.154l8.582,2.079s-1.062-6.245-4.808-9.019l-.161.08c-1.838,1.4-18.735,14.9-27.745,58.8-9.573,46.462-6.834,89.73-6.834,89.73S932.169,435.4,898,433.078Z" transform="translate(-741.751 -59.458)"/><path class="v" d="M951.25,257.912l3.774-.491,16,44.473c23.418-15.041,41.707-48.442,41.707-48.442l-17.62-26.291h-4.461l1.311,4.675C980.583,247,951.25,257.912,951.25,257.912Z" transform="translate(-772.402 -55.151)"/><path class="w" d="M1022.03,261.254s.892,27.772,8.636,38.7c0,0,14.925-34.106,18.913-38.7l10.911-2.052-6.95-2.543s-10.108-7.681-13.989-15.22l-4.9,5.522Z" transform="translate(-883.302 -56.692)"/><path class="x" d="M1073.755,115.41s-2.962-16.629-6.379-19.627-6.174-2.507-6.174-2.507-3.488,8.921-1.044,15.05a9.421,9.421,0,0,1,6.361.669C1070.107,110.619,1073.755,115.41,1073.755,115.41Z" transform="translate(-929.808 -40.706)"/><path class="y" d="M1000.834,95.93s-.455,7.922,3.872,14.524c0,0,13.212-.794,28.477,6.95a24.98,24.98,0,0,0-5.353-9.912C1020.014,99.213,1000.834,95.93,1000.834,95.93Z" transform="translate(-837.073 -40.995)"/><path class="a" d="M1005.611,139.8a22.133,22.133,0,0,0,11.785,1.151,19.314,19.314,0,0,0,11.1-6.45l.41-.517a2.6,2.6,0,0,0-.223-.357,23.622,23.622,0,0,0-3.568-4.978,20.677,20.677,0,0,0-3.569-3.194,20.913,20.913,0,0,0-5.308-2.676,21.143,21.143,0,0,0-10.081-.892C1000.99,129.919,1005.611,139.8,1005.611,139.8Z" transform="translate(-835.372 -43.769)"/><g class="z" transform="translate(168.336 77.872)"><ellipse class="aa" cx="9.84" cy="10.384" rx="9.84" ry="10.384" transform="translate(4.712 -0.207)"/><ellipse class="ab" cx="6.959" cy="7.342" rx="6.959" ry="7.342" transform="translate(7.593 2.835)"/></g><g class="ac" transform="translate(130.245 75.853)"><path class="ad" d="M1060.988,143.316a12.908,12.908,0,0,0,5.683-.955,9.964,9.964,0,0,0,3.72-2.676,11.177,11.177,0,0,0,2.213-4.291,10.367,10.367,0,0,0-.107-5.692,18.985,18.985,0,0,0-7.708-10.161C1061.666,117.819,1055.743,130.112,1060.988,143.316Z" transform="translate(-1058.901 -119.379)"/><ellipse class="ae" cx="8.101" cy="9.519" rx="8.101" ry="9.519" transform="translate(0.981 4.292)"/><path class="ab" d="M1058.05,134.047c0,3.711,2.56,6.727,5.719,6.727s5.727-3.015,5.727-6.727-2.569-6.727-5.727-6.727S1058.05,130.326,1058.05,134.047Z" transform="translate(-1054.687 -120.235)"/></g><path class="af" d="M1070.813,133.433a19.044,19.044,0,0,0-7.583-16.683s-3.265,2.543-4.4,5.531a1.784,1.784,0,0,1,2.177-1.151C1063.694,121.782,1068.6,124.494,1070.813,133.433Z" transform="translate(-926.518 -43.241)"/><path class="ag" d="M1072.4,133.781s-2.284-14.354-13.5-13.783l.714,4.55,1-2.391S1069.257,123.468,1072.4,133.781Z" transform="translate(-928.102 -43.59)"/><path class="ah" d="M1020.02,131.42a1.65,1.65,0,1,0,1.65-1.65,1.651,1.651,0,0,0-1.65,1.65Z" transform="translate(-844.34 -44.646)"/><path class="ah" d="M1066.92,131.42a1.65,1.65,0,1,0,1.65-1.65A1.65,1.65,0,0,0,1066.92,131.42Z" transform="translate(-933.08 -44.646)"/><path class="af" d="M1026.476,133.433s-4.666-13.953-17.985-16.683a10.768,10.768,0,0,0-4.791,4.63S1016.1,118.168,1026.476,133.433Z" transform="translate(-832.936 -43.241)"/><path class="ai" d="M1070.152,163.927s-5.594-12.079-21.143-13.667c0,0-10.4,4.55-10.929,11.839Z" transform="translate(-907.283 -46.857)"/><path class="ag" d="M1029.973,133.922s-4.363-7.7-11.393-10.706-14.881-1.606-14.881-1.606l2.07,3.14.892-2.061S1020.2,120.968,1029.973,133.922Z" transform="translate(-836.433 -43.731)"/><path class="aj" d="M1070.152,165.294a27.338,27.338,0,0,1-6.62,3.238s-7.137.687-10.081,4.461c0,0-11.321-1.053-15.371-9.51,0,0,4.461-1.249,16.058,0C1063.648,164.5,1070.152,165.294,1070.152,165.294Z" transform="translate(-907.283 -48.223)"/><path class="ak" d="M1054.921,169.052l-9.421,3.042S1053.449,164.868,1054.921,169.052Z" transform="translate(-898.671 -48.742)"/><path class="ak" d="M1075.171,150.26s-8.868,4.728-10.928,11.839c0,0,2.917,5.906,8.448,7.6,0,0-8.234-2.846-10.911-8.154C1061.78,161.545,1063.689,155.381,1075.171,150.26Z" transform="translate(-933.445 -46.857)"/><path class="al" d="M1065.47,178.6a31.581,31.581,0,0,1-13.783,6.147c-8.707,1.713-20.956,1.026-23.374,0a32.119,32.119,0,0,1-4.684-2.551s8.029,12.49,15.764,12.49c8.341,0,23.142-11.107,26.344-14.693Z" transform="translate(-889.977 -49.913)"/><path class="am" d="M1062,186.54s-15.5,3.078-26.068,0a25.559,25.559,0,0,0,8.725,7.182S1055.164,193.722,1062,186.54Z" transform="translate(-897.21 -50.77)"/><path class="an" d="M1019.391,173.05s2.168.366,5.3,4.006a17.788,17.788,0,0,1,3.863,7.137s-4.46-5.808-7.512-7.137C1021.042,177.02,1019.338,174.665,1019.391,173.05Z" transform="translate(-849.01 -49.315)"/><path class="ao" d="M939.7,161.712s9.662-18.2,29.556-14.551c0,0,6.245,6.334,5.968,19.716,0,0-4.461,17.031-18.654,24.212s-21.884-8.636-21.884-8.636S936.956,165.477,939.7,161.712Z" transform="translate(-720.131 -46.47)"/><path class="af" d="M937.954,176.907s6.379-14,30.9-14c0,0,4.621,5.719-1.294,16.558,0,0,2.882-8.4-1.713-11.526C965.851,167.942,948.6,165.292,937.954,176.907Z" transform="translate(-718.381 -48.221)"/><path class="af" d="M971.942,168.55a12.266,12.266,0,0,1-3.765,11.526c-5.46,5.121-12.071.821-15.255-2.56,0,0,7.137,4.148,12.008.616s1.713-9.581,1.713-9.581Z" transform="translate(-733.349 -48.829)"/><path class="ap" d="M1044.743,46.7s-10.929-2.471-17.486,0c-8.029,3.078-15.835,13.328-21.01,24.828,0,0-1.062-18.164,5.237-27.567,8.029-11.937,16.4-8.2,16.4-8.2S1042.869,45.407,1044.743,46.7Z" transform="translate(-853.415 -34.445)"/><path class="aq" d="M1062.182,34.448s-23.374,8.324-17.753,51.146c0,0-16.513-32.572,0-48.594C1044.42,37,1054.1,33.761,1062.182,34.448Z" transform="translate(-898.43 -34.353)"/><path class="ar" d="M950.168,95.93s5.442,9.6,23.927,14.336a96.924,96.924,0,0,1-2.186,11.856s-16.469-14.533-22.5-23.454Z" transform="translate(-732.121 -40.995)"/><path class="as" d="M979.45,132.365s-16.469-13.587-24.73-23.2c0,0,5.986,5.727,7.066,16.852,0,0,4.416,10.384,13.855,16.9C975.631,142.919,978.843,134.257,979.45,132.365Z" transform="translate(-742.213 -42.423)"/><path class="at" d="M1167.256,356.68s-21.322,13.087-40.556,16.62c0,0,16.3-.268,22.455-3.319S1167.256,356.68,1167.256,356.68Z" transform="translate(-1083.447 -69.123)"/><path class="au" d="M859.658,446.43s-27.558,1.079-42.6,9.2c0,0,25.06.821,42.6,7.431a88.139,88.139,0,0,0,0-16.629Z" transform="translate(-500.003 -78.804)"/><path class="av" d="M849.2,344.56s6.022,20.956,14.9,37.121c7.762,14.122,32.313,30.984,32.313,30.984s-27.353-10.019-35.275-23.2C851.68,373.634,849.2,344.56,849.2,344.56Z" transform="translate(-565.037 -67.815)"/><path class="aw" d="M970.935,257.912l3.774-.491s33.08-11.071,36.961-18.155,3.131-12.106,3.131-12.106h-4.461l1.311,4.675C1000.268,247,970.935,257.912,970.935,257.912Z" transform="translate(-792.087 -55.151)"/><path class="ax" d="M1022.04,246.96c2.98,7.592,14.925,14.274,14.925,14.274l10.911-2.052-6.95-2.543s-10.108-7.681-13.989-15.22Z" transform="translate(-870.697 -56.689)"/><path class="ay" d="M1094.758,274.1l5-3.2s10.947,21.411,10.947,35.069c0,7.307-3.131,26.9-6.067,43.5l3.676,7.217s13.783-44.678,10.268-60.665-20.573-32.429-20.573-32.429C1094.606,265.66,1094.758,274.1,1094.758,274.1Z" transform="translate(-1006.845 -59.081)"/><path class="az" d="M985.39,66.6l.74.178c3.167-.089,7.726-.321,13.168-.767,8.787-.74,27.049-1.035,39.735,4.648a89.559,89.559,0,0,1-7.4-5.353c-5.469-4.559-13.489-14.622-24.382-14.087S985.39,66.6,985.39,66.6Z" transform="translate(-829.158 -36.17)"/></g><g transform="matrix(0.978, 0.208, -0.208, 0.978, 103.825, -40.553)"><path class="ba" d="M1179.66,637.489,850.323,675.85c-13.284,1.543-25.372-6.789-27.477-18.958L787.9,457.2c-2.275-13.114,7.815-25.533,22.125-27.21l76.268-8.787,98.633-11.3,173.447-19.921c14.274-1.677,26.942,8.029,27.754,21.313l15.924,201.335C1202.793,625.017,1192.98,635.945,1179.66,637.489Z" transform="translate(-776.916 -72.694)"/><path class="bb" d="M1180.209,642.055,1111,650.084l-.839.107-205.278,23.98-.758.08-6.414.758-46.9,5.469a26.041,26.041,0,0,1-6.593-.062c-10.474-1.356-19.074-8.823-20.858-18.913l-11.847-67.712L799.86,527.016l-11.419-65.232c-2.293-13.123,7.8-25.533,22.1-27.21l81.183-9.332,100.346-11.491,30.181-3.488.758-.089,135.88-15.577c14.274-1.677,26.906,8.029,27.745,21.313l5.032,63.912.161,1.945.107,1.41,5.032,63.635,5.576,70.478C1203.359,629.565,1193.51,640.53,1180.209,642.055Z" transform="translate(-776.974 -73.193)"/><path class="bc" d="M17.93,462.205,413.436,412.13l2.953,39.976L25.281,501.548Z" transform="translate(-1.948 -44.461)"/><path class="bd" d="M48.74,522.841l2.953,25.292L284.52,519.772l-3.1-26.612Z" transform="translate(-5.272 -53.202)"/><path class="be" d="M351.95,486.754l3.238,27.683,85.421-10.4L437,474.63Z" transform="translate(-37.981 -51.203)"/><path class="bf" d="M376.88,564.392l66.526-9.822,1.267,28.521-64.965,5.585Z" transform="translate(-40.67 -59.826)"/><ellipse class="bg" cx="28.932" cy="26.728" rx="28.932" ry="26.728" transform="translate(305.723 492.835) rotate(-6.65)"/><path class="bh" d="M1205.887,481.767l-80.9,166.738-.839,1.731L918.908,674.172l-.758.08.758-1.7,117.377-262.285.758-.089,135.88-15.577c14.274-1.677,26.906,8.029,27.745,21.313Z" transform="translate(-791.001 -73.193)"/><path class="bi" d="M998.888,416.09l-94.36,261.259-46.9,5.469a26.042,26.042,0,0,1-6.628-.062l47.541-255.148Z" transform="translate(-783.758 -75.532)"/><path class="bj" d="M91.65,634.4l157.817-16.8v2.337L91.65,636.076Z" transform="translate(-9.901 -66.626)"/><g class="bk" transform="translate(22.887 406.655)"><path class="bl" d="M822.513,607.042a32.578,32.578,0,0,1-9.581,2.783L801.28,543.049a51.6,51.6,0,0,1,12.24,1.3s2.382,8.761,0,14.06c0,0,7.137.678,8.654,2.409s1,9.144,0,11.9a3.568,3.568,0,0,1-.892,1.24h.054l-.107.054c-2,1.9-6.165,2.846-6.165,2.846a13.319,13.319,0,0,1,.678,13.328s-1.142.6-3.033,1.383c0,0,7.137.509,8.627,3.7C824.511,599.209,822.513,607.042,822.513,607.042Z" transform="translate(-801.28 -495.883)"/><path class="bm" d="M1242.285,557.143a53.43,53.43,0,0,1-10.893-.839c-2.195-1.7-3.568-8.386-1.784-9.385a29.186,29.186,0,0,1,6.245-2.516l-.437-7.137a72.264,72.264,0,0,1-17.843.625s-3.622-2.248-3.622-8.092a15.477,15.477,0,0,1,.214-2.623s-4.024-.321-5.219-1.374-1.624-8.743.25-10.955,13.221-5.3,13.221-5.3a2.563,2.563,0,0,0-.161-.33,19.384,19.384,0,0,1-1.356-3.408c-.758-2.516-1.213-5.843.33-8.413,0,0,7.842-4,15.764-7.217l.161,1.945.107,1.41Z" transform="translate(-845.146 -490.18)"/></g><path class="bn" d="M777.5,541.256s20.635-2.9,31.911.063c0,0,2.391,8.77,0,14.06,0,0,7.137.687,8.707,2.391s1.026,9.162,0,11.928-7.137,4.131-7.137,4.131a13.23,13.23,0,0,1,.687,13.328s-11.107,5.692-22.383,5.638a16.235,16.235,0,0,1-1.2-15.55s-5.638-4.853-4.782-15.238c0,0-4.541-1.16-5.772-2.355S773.952,547.974,777.5,541.256Z" transform="translate(-775.627 -88.897)"/><path class="bo" d="M798.09,600.682l1.686-2.846,11.214-3.426s7.217.508,8.7,3.711Z" transform="translate(-778.05 -94.769)"/><path class="bp" d="M798.017,601.124c-1.5.455,0,9.394,2.105,12.49,0,0,12.427.794,20.7-3.31,0,0,2.016-7.851-1.2-11.767C819.615,598.564,808.312,597.993,798.017,601.124Z" transform="translate(-777.977 -95.211)"/><path class="bq" d="M777.73,561.483s11.9-.955,31.911-4.273c0,0-9.813,3.988-26.139,6.628C783.5,563.865,778.542,563.268,777.73,561.483Z" transform="translate(-775.854 -90.755)"/><path class="br" d="M787.74,579.059a129.428,129.428,0,0,0,30.832-4.389,33.685,33.685,0,0,1-6.316,2.9l-22.892,3.417Z" transform="translate(-776.934 -92.639)"/><path class="bs" d="M1248.646,537.16s5.442,3.078,6.655,7.512l-14.461,2.088-.5-7.824Z" transform="translate(-825.757 -88.593)"/><path class="bt" d="M1222.752,493.877s19.243-9.733,27.906-11.107c0,0,4.122,8.208,1.65,16.406l-6.923,3.247s1.115,8.368-.767,11.954c0,0,2.56,8.921.687,16.95,0,0-7.958,4.461-26.237,3.069,0,0-5.032-3.069-3.319-11.375,0,0-4.175.321-5.353-.7s-1.633-8.761.241-10.982,13.328-5.29,13.328-5.29S1219.844,498.632,1222.752,493.877Z" transform="translate(-822.417 -82.726)"/><path class="bu" d="M1233.76,550.188c-1.784.99-.437,7.69,1.784,9.4,0,0,12.062,2.391,20.091-.892a23.2,23.2,0,0,0-1.133-13.159S1242.057,545.576,1233.76,550.188Z" transform="translate(-824.958 -89.496)"/><path class="bv" d="M1224,504.43s13.159,2.284,23.008.33l-21.411,3.568A19.047,19.047,0,0,1,1224,504.43Z" transform="translate(-823.994 -85.062)"/><path class="bw" d="M1210.5,526.34s23.347-1.044,34.7-5.95c0,0-8.208,6.495-29.44,7.315C1215.746,527.705,1211.7,527.393,1210.5,526.34Z" transform="translate(-822.538 -86.783)"/><path class="bx" d="M228.373,381.328l-100.346,11.5-5.406-3.515L221.253,378Z" transform="translate(-13.242 -40.779)"/><path class="by" d="M374.674,364.538,274.336,376.028l-5.406-3.515,98.633-11.3Z" transform="translate(-29.025 -38.968)"/><path class="ah" d="M-66.4,2.262a1.643,1.643,0,0,1-.728-.715A1.732,1.732,0,0,1-67.288.91a5.438,5.438,0,0,1,.533-1.976,30.109,30.109,0,0,1,1.43-2.847q.9-1.6,1.989-3.315-.962-.078-1.638-.1t-1.17-.026h-.91a1.768,1.768,0,0,1,1-1.053,4.4,4.4,0,0,1,1.7-.3,8.241,8.241,0,0,1,.91.052q.468.052.962.13,1.326-2,2.717-3.887t2.6-3.354a24.367,24.367,0,0,1,2.015-2.223A2.076,2.076,0,0,1-53.9-18.72a1.224,1.224,0,0,1,.637.221,4.36,4.36,0,0,1,.741.611,3.376,3.376,0,0,0-.663,1.1q-.4.9-.858,2.249t-.9,2.964q-.442,1.612-.819,3.289t-.6,3.185a18.564,18.564,0,0,0-.221,2.652A4.226,4.226,0,0,0-56.355-.91a.763.763,0,0,0,.741.546A2.313,2.313,0,0,0-54.08-1.3a13.687,13.687,0,0,0,1.872-2.912l.26.26A10.425,10.425,0,0,1-53.937-.546,3.439,3.439,0,0,1-56.446.78a1.617,1.617,0,0,1-1.547-.949A5.644,5.644,0,0,1-58.474-2.7a15.561,15.561,0,0,1,.117-1.82q.117-.988.325-2.054-1.144-.182-2.093-.3T-61.88-7.1Q-63.1-4.836-64.259-2.444T-66.4,2.262Zm8.554-9.75q.39-1.716.91-3.471t1.105-3.341q.585-1.586,1.1-2.782a8.309,8.309,0,0,0-1.859,1.755,31.7,31.7,0,0,0-2.223,3.068q-1.17,1.807-2.392,3.965.884.182,1.755.4ZM-54.886,7.28a.548.548,0,0,1-.4-.221,1.711,1.711,0,0,1-.3-.468,1.3,1.3,0,0,1-.1-.3q.364-1.274.715-2.275t.7-2.054q.351-1.053.689-2.47t.7-3.523q.364-2.106.728-5.226a.706.706,0,0,1,.1-.338q.078-.1.39-.1a1.132,1.132,0,0,1,.962.377,1.327,1.327,0,0,1,.286.819,9.4,9.4,0,0,1-.156,1.3q-.156.936-.442,2.21a12.329,12.329,0,0,1,1.1-1.742,6.655,6.655,0,0,1,1.521-1.482,3.206,3.206,0,0,1,1.872-.6,2.43,2.43,0,0,1,1.885.819,3.074,3.074,0,0,1,.741,2.145,5.753,5.753,0,0,1-.455,2.145,8.18,8.18,0,0,1-1.274,2.132A6.705,6.705,0,0,1-47.554.052a4.982,4.982,0,0,1-2.47.624A3.17,3.17,0,0,1-51.116.52q-.416-.156-.416-.312,0-.1.195-.117t.455-.013a4.164,4.164,0,0,0,1.989-.507,6.287,6.287,0,0,0,1.7-1.339,6.511,6.511,0,0,0,1.183-1.846,5.11,5.11,0,0,0,.429-2,2.706,2.706,0,0,0-.351-1.417,1.219,1.219,0,0,0-1.131-.585,2.444,2.444,0,0,0-1.339.429A6.068,6.068,0,0,0-49.647-6.1a11.047,11.047,0,0,0-1.04,1.378,8.331,8.331,0,0,0-.689,1.287q-.468,1.95-.936,3.757t-.9,3.276q-.429,1.469-.78,2.4a3.394,3.394,0,0,1-.585,1.144A.426.426,0,0,1-54.886,7.28Zm9.646,0a.548.548,0,0,1-.4-.221,1.711,1.711,0,0,1-.3-.468,1.3,1.3,0,0,1-.1-.3q.364-1.274.715-2.275t.7-2.054q.351-1.053.689-2.47t.7-3.523q.364-2.106.728-5.226a.706.706,0,0,1,.1-.338q.078-.1.39-.1a1.132,1.132,0,0,1,.962.377,1.327,1.327,0,0,1,.286.819,9.4,9.4,0,0,1-.156,1.3q-.156.936-.442,2.21a12.329,12.329,0,0,1,1.1-1.742A6.655,6.655,0,0,1-38.74-8.216a3.206,3.206,0,0,1,1.872-.6,2.43,2.43,0,0,1,1.885.819,3.074,3.074,0,0,1,.741,2.145A5.753,5.753,0,0,1-34.7-3.705a8.18,8.18,0,0,1-1.274,2.132A6.705,6.705,0,0,1-37.908.052a4.982,4.982,0,0,1-2.47.624A3.17,3.17,0,0,1-41.47.52q-.416-.156-.416-.312,0-.1.195-.117t.455-.013a4.164,4.164,0,0,0,1.989-.507,6.287,6.287,0,0,0,1.7-1.339,6.511,6.511,0,0,0,1.183-1.846,5.11,5.11,0,0,0,.429-2,2.706,2.706,0,0,0-.351-1.417,1.219,1.219,0,0,0-1.131-.585,2.444,2.444,0,0,0-1.339.429A6.068,6.068,0,0,0-40-6.1a11.047,11.047,0,0,0-1.04,1.378,8.331,8.331,0,0,0-.689,1.287q-.468,1.95-.936,3.757t-.9,3.276q-.429,1.469-.78,2.4a3.394,3.394,0,0,1-.585,1.144A.426.426,0,0,1-45.24,7.28ZM-31.8.78A1.74,1.74,0,0,1-33.4.013,3.533,3.533,0,0,1-33.878-1.9a11.523,11.523,0,0,1,.468-2.964,32.534,32.534,0,0,1,1.235-3.614q.767-1.9,1.677-3.705t1.82-3.289A18.2,18.2,0,0,1-27-17.836q.767-.884,1.209-.884a.535.535,0,0,1,.468.325,2.93,2.93,0,0,1,.286.78,3.713,3.713,0,0,1,.1.819,6.517,6.517,0,0,1-.351,1.833,21.329,21.329,0,0,1-.988,2.522,26.216,26.216,0,0,1-1.508,2.808,28.206,28.206,0,0,1-1.9,2.717A14.42,14.42,0,0,1-31.85-4.68q-.156.7-.247,1.365a9.287,9.287,0,0,0-.091,1.261A3.1,3.1,0,0,0-31.9-.546a.93.93,0,0,0,.858.494,2.082,2.082,0,0,0,1.391-.624,7.808,7.808,0,0,0,1.3-1.573A13.833,13.833,0,0,0-27.3-4.212l.39.208a13.254,13.254,0,0,1-2.262,3.5A3.6,3.6,0,0,1-31.8.78Zm.182-6.344a17.394,17.394,0,0,0,1.768-2.093,29.11,29.11,0,0,0,1.6-2.457q.741-1.274,1.313-2.47a18.326,18.326,0,0,0,.884-2.145A5.112,5.112,0,0,0-25.74-16.2a.582.582,0,0,0-.065-.338q-.065-.078-.117-.078-.208,0-.715.663A20.359,20.359,0,0,0-27.82-14.17q-.676,1.118-1.378,2.548t-1.339,2.99A31.735,31.735,0,0,0-31.616-5.564ZM-27.222,7.28a1.925,1.925,0,0,1-1.144-.351A1.18,1.18,0,0,1-28.86,5.9a2.69,2.69,0,0,1,.416-1.482,4.816,4.816,0,0,1,1.118-1.2,11.763,11.763,0,0,1,1.612-1.04q.91-.494,1.9-.988.364-.962.741-2.145t.715-2.613a13.352,13.352,0,0,1-1.781,2.327,2.8,2.8,0,0,1-2.015.975,2.315,2.315,0,0,1-.975-.221,1.893,1.893,0,0,1-.793-.689,2.115,2.115,0,0,1-.312-1.2,6.911,6.911,0,0,1,.247-1.69,15.239,15.239,0,0,1,.611-1.872,8.7,8.7,0,0,1,.754-1.508q.39-.6.676-.6a1.667,1.667,0,0,1,.377.078,2.289,2.289,0,0,1,.52.221q.247.143.247.3a6.531,6.531,0,0,0-.52.962q-.286.624-.559,1.391t-.455,1.495A5.273,5.273,0,0,0-26.52-2.34a1.253,1.253,0,0,0,.208.754.842.842,0,0,0,.728.286,1.864,1.864,0,0,0,1.1-.481,7.86,7.86,0,0,0,1.222-1.235,14.46,14.46,0,0,0,1.131-1.612q.078-.286.143-.585t.117-.611a2.765,2.765,0,0,1,.377-.845,1.035,1.035,0,0,1,.949-.481q.13,0,.26.013a1.333,1.333,0,0,1,.286.065,8.844,8.844,0,0,1-.247,1.547q-.247,1.131-.7,2.639T-22.022.208A7.545,7.545,0,0,0-19.63-1.339a7.846,7.846,0,0,0,1.9-2.873l.338.26a6.062,6.062,0,0,1-1.183,2.171A8.821,8.821,0,0,1-20.358-.2,14.007,14.007,0,0,1-22.308.91a30.591,30.591,0,0,1-1.469,3.12,10.74,10.74,0,0,1-1.664,2.353A2.512,2.512,0,0,1-27.222,7.28Zm-.13-.832q.39,0,1.313-1.027a12.881,12.881,0,0,0,1.963-3.6q-1.066.572-1.976,1.131A5.937,5.937,0,0,0-27.508,4.16a2.274,2.274,0,0,0-.546,1.508,1.073,1.073,0,0,0,.156.494A.568.568,0,0,0-27.352,6.448Zm20.28-4.186A4.212,4.212,0,0,1-9.529,1.5a5.215,5.215,0,0,1-1.755-2.21,8.411,8.411,0,0,1-.65-3.471,13.9,13.9,0,0,1,.624-4.056,18.754,18.754,0,0,1,1.7-3.926A17.984,17.984,0,0,1-7.15-15.509a12.262,12.262,0,0,1,2.9-2.327,6.08,6.08,0,0,1,3-.858,2.726,2.726,0,0,1,1.586.416A2.324,2.324,0,0,1,1.2-17.2a3.918,3.918,0,0,1,.26,1.443,5.244,5.244,0,0,1-.312,1.781,4.242,4.242,0,0,1-.832,1.443,1.53,1.53,0,0,1-1.144.572.845.845,0,0,1-.429-.13,1.01,1.01,0,0,1-.377-.468,4.07,4.07,0,0,0,.845-.936A7.86,7.86,0,0,0,.039-15,3.976,3.976,0,0,0,.39-16.536a1.421,1.421,0,0,0-.351-.988,1.569,1.569,0,0,0-1.209-.39A3.91,3.91,0,0,0-3.5-17a11.883,11.883,0,0,0-2.34,2.431A21.2,21.2,0,0,0-7.878-11.18,21.992,21.992,0,0,0-9.321-7.358a14.019,14.019,0,0,0-.533,3.692A6.129,6.129,0,0,0-8.866.039a2.989,2.989,0,0,0,2.5,1.339A3,3,0,0,0-4.446.637,7.15,7.15,0,0,0-2.834-1.287,11.969,11.969,0,0,0-1.7-3.848,12.3,12.3,0,0,0-1.17-6.5a15.83,15.83,0,0,0-1.56-.273,10.382,10.382,0,0,0-1.118-.065q-.338,0-.715.013t-.871.013A1.658,1.658,0,0,1-4.8-7.865a2.017,2.017,0,0,1,1.131-.3,5.11,5.11,0,0,1,1.521.247q.793.247,1.547.533t1.326.442L.546-6.11Q.052-4.81-.26-3.835T-.741-2.119A12.178,12.178,0,0,0-.975-.806,9.281,9.281,0,0,0-1.04.234q0,.52.039,1.014t.065,1.014a3.609,3.609,0,0,1-.741-.429,1.608,1.608,0,0,1-.494-.611A1.954,1.954,0,0,1-2.34.39,4.229,4.229,0,0,1-2.3-.182a3.957,3.957,0,0,1,.143-.624A9.566,9.566,0,0,1-4.316,1.378,4.587,4.587,0,0,1-7.072,2.262ZM4.186,1.144A3.058,3.058,0,0,1,1.807.273a3.069,3.069,0,0,1-.793-2.145A6.026,6.026,0,0,1,1.6-4.342a10.235,10.235,0,0,1,1.56-2.444A8.966,8.966,0,0,1,5.3-8.645,4.417,4.417,0,0,1,7.618-9.36a2.069,2.069,0,0,1,1.1.312A1.384,1.384,0,0,1,9.23-7.774a3.275,3.275,0,0,1-.585,1.859A6.041,6.041,0,0,1,7.111-4.368a9.176,9.176,0,0,1-2.08,1.105,8.563,8.563,0,0,1-2.249.533q-.052.26-.078.494a4.012,4.012,0,0,0-.026.442,3.422,3.422,0,0,0,.091.78A1.983,1.983,0,0,0,3.094-.3a1.552,1.552,0,0,0,.637.507,2.431,2.431,0,0,0,1,.182,4.344,4.344,0,0,0,2.21-.637A8.491,8.491,0,0,0,8.97-1.924a11.005,11.005,0,0,0,1.586-2.288l.312.234a9.705,9.705,0,0,1-1.781,2.7A8.475,8.475,0,0,1,6.747.507,5.625,5.625,0,0,1,4.186,1.144ZM2.912-3.224A11.438,11.438,0,0,0,4.5-3.913,11.467,11.467,0,0,0,6.2-4.992,6.345,6.345,0,0,0,7.553-6.37a2.7,2.7,0,0,0,.533-1.586.794.794,0,0,0-.1-.442.5.5,0,0,0-.442-.156,2.375,2.375,0,0,0-1.326.481A6.743,6.743,0,0,0,4.862-6.812,11.066,11.066,0,0,0,3.692-5.1,8.593,8.593,0,0,0,2.912-3.224Zm11.1,3.9A1.972,1.972,0,0,1,12.623.208a1.586,1.586,0,0,1-.507-1.222,4.194,4.194,0,0,1,.364-1.638q.364-.858.715-1.7a4.022,4.022,0,0,0,.351-1.521,1.52,1.52,0,0,0-.481-1.235q-.481-.4-.975-.741-.6,1.534-1.248,2.912T9.776-2.86L9.542-3.3q.364-.676.949-1.976t1.157-2.964a.851.851,0,0,1-.26-.624,1.839,1.839,0,0,1,.442-1.274q.442-.494.65-.494a.283.283,0,0,1,.325.247,2.62,2.62,0,0,1,.039.377A1.841,1.841,0,0,1,12.7-9.5a2.151,2.151,0,0,0-.143.455.836.836,0,0,0,.4.663q.4.3.923.676a4.371,4.371,0,0,1,.923.91,2.2,2.2,0,0,1,.4,1.365,4.221,4.221,0,0,1-.325,1.586q-.325.806-.65,1.534A3.206,3.206,0,0,0,13.91-1.04a.7.7,0,0,0,.234.624.961.961,0,0,0,.546.156,2.536,2.536,0,0,0,1.287-.39,6.992,6.992,0,0,0,1.287-.988A10.131,10.131,0,0,0,18.382-2.9a5.772,5.772,0,0,0,.728-1.235l.338.26A9.81,9.81,0,0,1,18.1-1.729,8.139,8.139,0,0,1,16.185,0,3.968,3.968,0,0,1,14.014.676Zm17.134.13A1.544,1.544,0,0,1,29.822.247a2.18,2.18,0,0,1-.416-1.339,4.5,4.5,0,0,1,.2-1.3q.195-.65.39-1.274a3.8,3.8,0,0,0,.195-1.118.94.94,0,0,0-.234-.728.764.764,0,0,0-.52-.208q-.65,0-1.417,1.014t-1.989,2.86a8.7,8.7,0,0,0-.7,1.261q-.286.637-.546,1.157a3.268,3.268,0,0,1-.52-.052A2.112,2.112,0,0,1,23.7.351q-.247-.117-.247-.3A3.754,3.754,0,0,1,23.7-.819q.247-.689.572-1.612T24.843-4.3a6.617,6.617,0,0,0,.247-1.625,1.542,1.542,0,0,0-.143-.715.522.522,0,0,0-.507-.273,2.322,2.322,0,0,0-1.378.689A11.927,11.927,0,0,0,21.4-4.42a21.947,21.947,0,0,0-1.625,2.457A16.252,16.252,0,0,0,18.538.7a2.618,2.618,0,0,1-.572-.078,2.428,2.428,0,0,1-.585-.208q-.247-.13-.247-.26a4.627,4.627,0,0,1,.273-.923q.273-.767.624-1.846t.624-2.2a8.455,8.455,0,0,0,.273-1.976,1.733,1.733,0,0,1,.494-.364,1.462,1.462,0,0,1,.7-.182.7.7,0,0,1,.533.182.7.7,0,0,1,.169.494A5.857,5.857,0,0,1,20.631-5.5q-.195.819-.481,1.807.52-.832,1.183-1.7a15.731,15.731,0,0,1,1.391-1.6,8.07,8.07,0,0,1,1.469-1.183,2.755,2.755,0,0,1,1.443-.455,1.126,1.126,0,0,1,1.1.585,3.022,3.022,0,0,1,.3,1.391A6.965,6.965,0,0,1,26.9-5.291q-.143.715-.325,1.326a9.328,9.328,0,0,1-.338.975A19.151,19.151,0,0,1,27.443-4.9a6.874,6.874,0,0,1,1.443-1.508,2.724,2.724,0,0,1,1.664-.585,1.28,1.28,0,0,1,1.157.494,2.08,2.08,0,0,1,.325,1.17A5.348,5.348,0,0,1,31.8-3.848q-.234.806-.481,1.56a4.283,4.283,0,0,0-.247,1.3,1.137,1.137,0,0,0,.169.611A.66.66,0,0,0,31.85-.1a1.882,1.882,0,0,0,1.365-.663A8.255,8.255,0,0,0,34.4-2.379a19.358,19.358,0,0,0,.936-1.833l.312.364A13.577,13.577,0,0,1,34.58-1.677,6.688,6.688,0,0,1,33.059.1,2.978,2.978,0,0,1,31.148.806Zm4.42.416A1.9,1.9,0,0,1,34.2.689a2.148,2.148,0,0,1-.559-1.625,5.623,5.623,0,0,1,.416-2.015A10.22,10.22,0,0,1,35.2-5.083a12.092,12.092,0,0,1,1.651-1.924A8.326,8.326,0,0,1,38.805-8.4a4.488,4.488,0,0,1,2.041-.52,2.645,2.645,0,0,1,1.69.533,1.714,1.714,0,0,1,.676,1.417.988.988,0,0,1-.351.884,1.637,1.637,0,0,1-.923.234q.052-.208.091-.455a2.933,2.933,0,0,0,.039-.455,1.808,1.808,0,0,0-.286-1.027,1.1,1.1,0,0,0-.988-.429,2.653,2.653,0,0,0-1.482.507,6.993,6.993,0,0,0-1.456,1.352,11.766,11.766,0,0,0-1.248,1.833,11.157,11.157,0,0,0-.858,1.95,5.641,5.641,0,0,0-.312,1.716q0,1.014.7,1.014A2.153,2.153,0,0,0,37.44-.4a10.613,10.613,0,0,0,1.443-1.43Q39.624-2.7,40.3-3.64t1.2-1.716q.1-.156.13-.156a3.094,3.094,0,0,1,.4.1,1.52,1.52,0,0,1,.429.208.4.4,0,0,1,.182.338,1.4,1.4,0,0,1-.234.637q-.234.4-.52.923t-.52,1.053a2.5,2.5,0,0,0-.234,1,1.571,1.571,0,0,0,.208.767.714.714,0,0,0,.676.377,3.218,3.218,0,0,0,1.846-1.027,12.386,12.386,0,0,0,2.314-3.081l.26.26a9.258,9.258,0,0,1-1.4,2.47A7.246,7.246,0,0,1,43.2.182a3.646,3.646,0,0,1-1.911.6A1.7,1.7,0,0,1,39.871.208a1.962,1.962,0,0,1-.455-1.248,2.681,2.681,0,0,1,.026-.351q.026-.195.052-.4A12.761,12.761,0,0,1,37.453.468,2.964,2.964,0,0,1,35.568,1.222ZM53.534.52A1.822,1.822,0,0,1,52.169.052a1.645,1.645,0,0,1-.455-1.2,3.688,3.688,0,0,1,.195-1.144q.2-.6.377-1.235a4.487,4.487,0,0,0,.182-1.235,1.328,1.328,0,0,0-.3-1,1.058,1.058,0,0,0-.741-.273,2.643,2.643,0,0,0-1.638.663,9.455,9.455,0,0,0-1.612,1.69Q47.4-2.652,46.722-1.56T45.526.39a2.217,2.217,0,0,1-.793-.143,1.248,1.248,0,0,1-.585-.429,3.806,3.806,0,0,1,.273-.806q.273-.676.637-1.664t.65-2.028a7.212,7.212,0,0,0,.286-1.9,1.733,1.733,0,0,1,.494-.364,1.462,1.462,0,0,1,.7-.182q.7,0,.7.676a6.911,6.911,0,0,1-.234,1.391q-.234.975-.6,2.041a24.286,24.286,0,0,1,1.573-2.119A9.772,9.772,0,0,1,50.492-6.89a3.4,3.4,0,0,1,1.976-.7,1.6,1.6,0,0,1,1.469.728,2.981,2.981,0,0,1,.455,1.612,4.2,4.2,0,0,1-.26,1.5q-.26.689-.533,1.326a3.241,3.241,0,0,0-.273,1.287,1.067,1.067,0,0,0,.221.767.758.758,0,0,0,.559.221,1.921,1.921,0,0,0,1.3-.611,8.457,8.457,0,0,0,1.261-1.547,17.391,17.391,0,0,0,1.079-1.9l.286.338A13.217,13.217,0,0,1,56.81-1.612a6.113,6.113,0,0,1-1.482,1.56A3.028,3.028,0,0,1,53.534.52ZM57.85,7.28a1.925,1.925,0,0,1-1.144-.351A1.18,1.18,0,0,1,56.212,5.9a2.69,2.69,0,0,1,.416-1.482,4.816,4.816,0,0,1,1.118-1.2,11.763,11.763,0,0,1,1.612-1.04q.91-.494,1.9-.988Q61.62.234,62-.949t.715-2.613a13.352,13.352,0,0,1-1.781,2.327,2.8,2.8,0,0,1-2.015.975,2.315,2.315,0,0,1-.975-.221,1.893,1.893,0,0,1-.793-.689,2.115,2.115,0,0,1-.312-1.2,6.911,6.911,0,0,1,.247-1.69,15.239,15.239,0,0,1,.611-1.872,8.7,8.7,0,0,1,.754-1.508q.39-.6.676-.6a1.667,1.667,0,0,1,.377.078,2.289,2.289,0,0,1,.52.221q.247.143.247.3a6.531,6.531,0,0,0-.52.962q-.286.624-.559,1.391t-.455,1.495a5.273,5.273,0,0,0-.182,1.248,1.253,1.253,0,0,0,.208.754.842.842,0,0,0,.728.286,1.864,1.864,0,0,0,1.1-.481,7.86,7.86,0,0,0,1.222-1.235,14.461,14.461,0,0,0,1.131-1.612q.078-.286.143-.585t.117-.611a2.765,2.765,0,0,1,.377-.845,1.035,1.035,0,0,1,.949-.481q.13,0,.26.013a1.332,1.332,0,0,1,.286.065,8.844,8.844,0,0,1-.247,1.547q-.247,1.131-.7,2.639T63.05.208a7.545,7.545,0,0,0,2.392-1.547,7.846,7.846,0,0,0,1.9-2.873l.338.26A6.062,6.062,0,0,1,66.5-1.781,8.821,8.821,0,0,1,64.714-.2,14.007,14.007,0,0,1,62.764.91,30.591,30.591,0,0,1,61.3,4.03a10.74,10.74,0,0,1-1.664,2.353A2.512,2.512,0,0,1,57.85,7.28Zm-.13-.832q.39,0,1.313-1.027A12.881,12.881,0,0,0,61,1.82q-1.066.572-1.976,1.131A5.937,5.937,0,0,0,57.564,4.16a2.274,2.274,0,0,0-.546,1.508,1.073,1.073,0,0,0,.156.494A.568.568,0,0,0,57.72,6.448Z" transform="matrix(0.995, -0.105, 0.105, 0.995, 156.339, 547.654)"/></g></g></svg>