<svg width="430" height="627" viewBox="0 0 430 627" fill="none" xmlns="http://www.w3.org/2000/svg">
<g clip-path="url(#clip0_1205_5371)">
<g clip-path="url(#clip1_1205_5371)">
<path fill-rule="evenodd" clip-rule="evenodd" d="M316.951 594.228C294.537 611.182 268.111 622.037 240.251 625.734L228.451 609.981L226.238 629.481C226.238 629.481 179.922 625.735 152.782 603.281L185.998 457.523L228.449 445.723C228.449 445.723 311.818 562.781 316.951 594.228Z" fill="url(#paint0_linear_1205_5371)"/>
<path style="mix-blend-mode:multiply" opacity="0.5" fill-rule="evenodd" clip-rule="evenodd" d="M252.374 623.699L190.335 546.024L215.292 490.124L255.206 557.208L257.389 622.551L252.374 623.699Z" fill="url(#paint1_linear_1205_5371)"/>
<path fill-rule="evenodd" clip-rule="evenodd" d="M159.123 848.197C160.392 854.421 153.518 865.661 154.137 869.378C154.756 873.095 160.391 880.618 160.391 880.618V873.745C164.883 867.035 171.298 861.839 178.794 858.839C186.291 855.838 194.519 855.173 202.4 856.93L209.775 864.924C209.775 864.924 215.292 858.169 215.292 851.914C215.091 849.503 214.267 847.185 212.902 845.188C210.424 840.91 206.736 836.161 205.91 830.088C204.7 820.736 203.432 718.429 203.432 700.288C203.432 691.688 204.156 681.213 205.04 672.794C205.94 664.179 207.053 657.669 207.798 649.135C208.742 636.892 208.182 586.063 209.391 555.353C209.496 548.139 210.117 540.943 211.25 533.818C214.79 518.773 217.77 507.533 217.77 507.533C229.76 530.051 239.579 553.659 247.093 578.039C258.554 614.59 263.493 656.848 261.414 672.794C261.074 674.722 260.453 676.591 259.571 678.34C246.178 703.209 227.121 766.281 228.389 773.154C229.657 780.027 235.233 789.999 235.233 793.096C235.085 794.082 234.655 795.004 233.994 795.751C231.457 799.202 225.94 803.922 225.94 806.784C225.979 808.149 226.117 809.51 226.353 810.855C226.884 814.336 227.798 818.024 227.798 818.024C222 833.847 218.638 850.458 217.827 867.29L222.193 870.417C234.808 856.983 251.878 848.595 270.22 846.817L274.291 850.593C276.46 847.192 277.851 843.354 278.362 839.353C278.471 837.396 278.164 835.438 277.462 833.607C276.761 831.777 275.68 830.116 274.291 828.733C274.291 828.733 293.938 726.426 297.685 708.961C301.432 691.496 306.535 681.496 307.037 672.794C309.637 636.509 304.352 599.84 300.724 580.163C299.013 570.988 297.774 565.413 297.774 565.413C293.674 544.763 221.074 445.613 221.074 445.613L188.624 465.083L178.505 471.185C178.505 471.185 164.139 501.095 160.422 526.141C158.682 537.587 158.947 561.541 159.714 585.85C160.629 614.819 162.314 644.644 162.314 655.795C162.314 660.978 162.154 666.295 161.614 672.787C160.114 690.855 156.669 713.245 154.791 733.794C152.283 761.229 159.157 810.494 159.806 814.894C160.455 819.294 149.806 826.104 149.215 830.47C149.144 831.162 149.245 831.862 149.51 832.506C151.099 837.046 158.091 842.828 159.123 848.197Z" fill="url(#paint2_linear_1205_5371)"/>
<path style="mix-blend-mode:multiply" fill-rule="evenodd" clip-rule="evenodd" d="M339.342 560.303C339.342 560.303 333.796 559.831 333.117 555.612C332.438 551.393 343.617 538.177 343.617 538.177C343.617 538.177 336.537 518.058 333.056 512.925C329.575 507.792 335.446 492.275 335.446 492.275L350.432 500.181L357.424 526.381C357.424 526.381 342.793 557.735 339.342 560.303Z" fill="url(#paint3_linear_1205_5371)"/>
<path fill-rule="evenodd" clip-rule="evenodd" d="M345.979 453.63C345.979 453.63 354.829 483.573 356.279 490.122C357.729 496.671 362.356 526.142 361.884 533.635C361.412 541.128 340.821 568.235 339.434 565.435C338.047 562.635 336.159 556.083 339.434 551.186C342.709 546.289 349.553 536.436 349.759 530.123C349.965 523.81 344.213 504.163 337.605 499C336.339 504.279 335.93 509.728 336.395 515.137C339.223 518.364 341.244 522.216 342.295 526.377C342.708 532.858 341.33 539.327 338.312 545.077C336.896 546.729 332.707 545.785 331.291 543.454C329.875 541.123 330.111 525.193 327.78 520.296C325.449 515.399 318.428 504.631 317.012 499.941C315.596 495.251 323.532 470.441 323.532 470.441C323.532 470.441 338.486 453.394 345.979 453.63Z" fill="url(#paint4_linear_1205_5371)"/>
<path style="mix-blend-mode:multiply" opacity="0.71" fill-rule="evenodd" clip-rule="evenodd" d="M356.953 493.72C356.953 493.72 337.601 481.92 320.432 480.769L321.932 475.488L353.025 477.966C354.706 483.118 356.018 488.382 356.953 493.72Z" fill="url(#paint5_linear_1205_5371)"/>
<path fill-rule="evenodd" clip-rule="evenodd" d="M356.954 466.02C356.954 466.02 334.415 481.714 312.703 477.967C312.703 477.967 335.92 451.417 356.954 453.629L361.881 456.137L356.954 466.02Z" fill="url(#paint6_linear_1205_5371)"/>
<path fill-rule="evenodd" clip-rule="evenodd" d="M274.234 303.59C274.234 303.59 286.388 341.026 289.514 355.069C292.64 369.112 290.753 397.815 296.063 415.574C301.373 433.333 313.203 470.15 313.203 470.15L312.584 477.968C327.629 465.843 356.569 453.63 358.457 455.813C360.345 457.996 357.247 465.224 356.957 466.02C357.488 465.22 361.884 458.733 361.884 456.137C361.884 453.541 350.438 443.776 350.438 443.776C350.438 443.776 338.284 403.242 328.755 364.125C328.519 363.092 328.283 362.148 328.106 361.175C328.014 360.633 327.876 360.1 327.693 359.582C327.546 359.082 327.339 358.048 327.221 357.517C327.103 356.986 326.985 356.662 326.956 356.517C323.74 342.652 321.056 329.347 319.286 318.461C312.737 275.125 309.934 226.774 308.986 219.576C308.038 212.378 300.136 205.239 300.136 205.239L276.536 256.393L274.618 297.993L274.234 303.59Z" fill="url(#paint7_linear_1205_5371)"/>
<path fill-rule="evenodd" clip-rule="evenodd" d="M349.903 457.582L357.426 477.967C357.426 477.967 333.649 481.183 318.043 473.955C317.983 473.955 337.925 459.028 349.903 457.582Z" fill="url(#paint8_linear_1205_5371)"/>
<path style="mix-blend-mode:multiply" opacity="0.3" fill-rule="evenodd" clip-rule="evenodd" d="M274.234 303.59C274.234 303.59 286.388 341.026 289.515 355.068C292.642 369.11 290.754 397.814 296.064 415.573C301.374 433.332 313.204 470.149 313.204 470.149C325.004 446.549 350.316 443.599 350.316 443.599C350.316 443.599 338.162 403.065 328.633 363.948C331.17 375.04 335.094 394.392 331.967 395.159C327.567 396.251 294.03 362.886 290.283 334.831C286.536 306.776 285.268 247.805 285.268 247.805L274.5 297.805L274.234 303.59Z" fill="url(#paint9_linear_1205_5371)"/>
<path fill-rule="evenodd" clip-rule="evenodd" d="M95.197 532.219L90.506 560.303L115.316 565.643L118.59 526.378L95.197 532.219Z" fill="url(#paint10_linear_1205_5371)"/>
<path fill-rule="evenodd" clip-rule="evenodd" d="M115.316 484.045V490.122C102.1 493.377 88.2926 493.377 75.077 490.122L79.296 474.222L115.316 484.045Z" fill="url(#paint11_linear_1205_5371)"/>
<path fill-rule="evenodd" clip-rule="evenodd" d="M145.434 591.278C144.785 594.818 153.34 626.678 176.434 637.859C176.434 637.859 191.892 589.832 204.754 541.511C212.926 510.772 220.065 479.911 221.51 461.122L312.555 587.971L314.531 590.744L316.95 594.225C316.95 594.225 306.979 529.325 293.881 473.834C291.993 465.898 289.987 458.14 287.981 450.706C283.969 435.956 279.75 422.592 275.827 411.116C267.921 387.516 261.49 372.234 261.49 372.234C261.49 372.234 267.125 367.834 265.856 363.797C265.599 362.785 265.019 361.884 264.204 361.23C263.25 360.541 262.072 360.236 260.904 360.374V360.197L276.185 293.32C276.716 291.166 277.276 288.983 277.807 286.83C278.633 283.437 279.459 280.045 280.197 276.83C280.61 274.971 281.052 273.142 281.436 271.402C281.82 269.662 282.262 267.685 282.616 266.033C282.67 265.614 282.759 265.199 282.882 264.794C283.236 263.294 283.531 261.844 283.797 260.605C283.759 260.255 283.842 259.902 284.033 259.605C284.594 256.95 285.007 254.973 285.183 253.97V253.203C287.775 236.523 292.742 220.301 299.933 205.029C299.933 205.029 266.096 179.275 235.445 174.529C204.794 169.783 178.273 184.471 178.273 184.471C178.273 184.471 170.101 186.005 160.273 187.923C151.865 189.546 142.248 191.463 135.552 192.909C132.779 193.499 130.507 194.06 129.003 194.443C127.137 194.959 125.402 195.869 123.916 197.111C122.431 198.353 121.228 199.898 120.389 201.643C119.395 203.557 118.718 205.62 118.383 207.75L148.534 305.124C156.647 331.674 161.634 343.475 162.871 367.517C164.108 391.559 162.871 457.552 162.871 457.552L156.646 468.171L162.281 477.7L151.661 584.816C151.661 584.816 146.055 587.856 145.434 591.278Z" fill="url(#paint12_linear_1205_5371)"/>
<path fill-rule="evenodd" clip-rule="evenodd" d="M118.59 207.773C118.59 207.773 118.89 208.658 119.39 210.34C119.89 212.022 120.983 215.562 122.34 219.54C128.889 240.898 142.607 285.532 148.654 305.268C156.767 331.818 161.723 343.619 163.021 367.661C164.319 391.703 163.021 457.696 163.021 457.696L156.767 468.287L162.402 477.845L151.752 584.961C151.752 584.961 146.176 587.911 145.527 591.422C144.878 594.933 153.463 626.822 176.561 637.974C176.561 637.974 192.019 590.006 204.881 541.626C213.053 510.946 220.192 480.059 221.667 461.267L312.705 588.119C313.442 589.181 314.092 590.125 314.652 590.892C316.038 592.81 316.924 594.019 317.071 594.255C316.771 592.544 306.923 528.676 294.002 473.893C292.114 465.957 290.108 458.199 288.102 450.765C284.06 436.015 279.842 422.651 275.918 411.175C267.982 387.575 261.581 372.293 261.581 372.293C261.581 372.293 267.216 367.893 265.947 363.856C265.678 362.849 265.101 361.951 264.295 361.289C263.341 360.6 262.163 360.295 260.995 360.434V360.257L276.18 293.325C276.711 291.171 277.272 288.988 277.803 286.835C278.659 283.413 279.455 280.05 280.193 276.864C280.635 274.976 281.019 273.176 281.432 271.406C281.845 269.636 282.287 267.689 282.612 266.037C282.723 265.629 282.812 265.215 282.878 264.798C283.261 263.298 283.527 261.848 283.822 260.638C283.871 260.29 283.939 259.945 284.028 259.605C284.589 256.98 285.002 254.973 285.179 253.97C285.193 253.862 285.193 253.754 285.179 253.646V253.498C285.185 253.439 285.185 253.38 285.179 253.321C287.764 236.64 292.732 220.416 299.929 205.147C299.929 205.147 266.092 179.364 235.441 174.614C204.79 169.864 178.241 184.556 178.241 184.556C178.241 184.556 170.099 186.09 160.275 188.008L152.959 189.395C146.675 190.664 140.359 191.932 135.554 192.995C132.781 193.585 130.509 194.116 128.975 194.529C127.114 195.049 125.385 195.96 123.905 197.202C122.424 198.443 121.226 199.987 120.39 201.729C119.47 203.636 118.862 205.678 118.59 207.777V207.773Z" fill="url(#paint13_linear_1205_5371)"/>
<path fill-rule="evenodd" clip-rule="evenodd" d="M198.388 146.383C201.152 159.732 202.634 173.315 202.813 186.946V193.82C202.813 193.82 222.136 227.509 225.413 236.242C227.944 244.915 229.673 253.802 230.576 262.792C230.576 262.792 253.97 208.216 251.787 186.092L235.857 176.445C235.857 176.445 229.957 127.145 225.148 112.193L198.388 146.383Z" fill="url(#paint14_linear_1205_5371)"/>
<path style="mix-blend-mode:multiply" opacity="0.59" fill-rule="evenodd" clip-rule="evenodd" d="M221.517 381.298C220.425 391.151 209.333 497.736 204.761 541.633C212.933 510.894 220.072 480.033 221.517 461.244L312.555 588.096C302.613 574.083 278.423 539.896 269.691 526.352C258.628 509.152 227.446 460.743 222.491 449.857C217.536 438.971 228.391 313.241 228.391 313.241L274.205 222.085L243.436 244.948L160.451 187.894L159.773 187.394L135.73 192.875C135.73 192.875 222.904 247.51 227.447 256.625C230.397 262.525 221.96 341.468 221.96 341.468C221.96 341.468 222.904 368.815 221.517 381.298Z" fill="url(#paint15_linear_1205_5371)"/>
<path style="mix-blend-mode:multiply" opacity="0.5" fill-rule="evenodd" clip-rule="evenodd" d="M118.59 207.773L148.533 305.124C156.646 331.674 161.633 343.475 162.87 367.517C164.107 391.559 162.87 457.552 162.87 457.552C167.911 445.371 172.186 432.888 175.67 420.175C179.66 406.301 182.618 392.152 184.52 377.842C184.52 377.842 192.957 379.937 214.699 385.099C236.441 390.261 260.307 377.606 260.307 377.606C265.558 382.206 283.435 436.961 287.241 448.584L275.738 411.117C267.832 387.517 261.401 372.235 261.401 372.235C261.401 372.235 267.036 367.835 265.767 363.798C265.51 362.785 264.93 361.884 264.115 361.231L265.767 363.798C238.096 380.643 204.347 368.784 200.424 368.046C237.86 374.182 260.782 360.376 260.782 360.376V360.199L276.182 293.322C272.111 309.134 267.509 324.179 264.146 326.834C256.653 332.734 178.595 318.898 171.515 310.52C164.435 302.142 154.965 264.145 154.965 264.145C138.002 223.434 120.597 201.634 120.597 201.634C119.6 203.557 118.923 205.629 118.591 207.77L118.59 207.773Z" fill="url(#paint16_linear_1205_5371)"/>
<path fill-rule="evenodd" clip-rule="evenodd" d="M146.527 104.112C146.974 107.16 147.655 110.168 148.563 113.112C153.106 128.452 163.313 149.073 170.629 151.463C176.308 152.596 182.185 152.23 187.68 150.401H188.358L189.922 149.929C199.761 147.089 208.597 141.526 215.41 133.881C216.615 132.321 217.717 130.684 218.71 128.981C221.041 124.87 223.082 120.602 224.817 116.207C228.975 105.648 232.501 94.8518 235.378 83.8748C235.378 83.8748 240.068 46.2318 235.791 36.0248C235.683 35.7355 235.545 35.4586 235.378 35.1988C233.029 32.3031 229.984 30.05 226.528 28.6498C211.128 20.8028 180.478 13.5158 165.728 22.7498C158.235 27.4408 158.235 39.8898 157.32 48.6218C156.822 58.182 156.822 67.7616 157.32 77.3218C157.32 77.3218 156.287 78.4728 154.812 80.2718C152.508 83.2365 150.529 86.441 148.912 89.8298C147.412 92.8123 146.415 96.0222 145.962 99.3298C145.953 100.94 146.141 102.545 146.523 104.109L146.527 104.112Z" fill="url(#paint17_linear_1205_5371)"/>
<path style="mix-blend-mode:multiply" opacity="0.6" fill-rule="evenodd" clip-rule="evenodd" d="M155.082 80.2429C156.172 80.9493 157.409 81.3975 158.698 81.5531C159.987 81.7087 161.295 81.5677 162.522 81.1408C163.749 80.7139 164.861 80.0125 165.776 79.09C166.69 78.1675 167.381 77.0483 167.797 75.8179C167.797 75.8179 167.118 52.5419 162.605 44.2529C162.605 44.2529 168.505 34.1929 183.605 38.7659L183.045 78.4149C183.045 78.4149 190.42 88.9149 211.69 74.3149C215.155 85.2281 216.507 96.7021 215.673 108.122C214.021 125.822 206.557 140.572 190.096 149.659C199.937 146.82 208.775 141.256 215.589 133.609C226.209 120.186 235.561 83.7239 235.561 83.7239C235.561 83.7239 240.252 46.0809 235.944 35.8739L226.799 28.4989C211.399 20.6809 180.749 13.3989 165.999 22.5989C158.506 27.2899 158.506 39.7389 157.562 48.4989C157.08 58.0508 157.08 67.6209 157.562 77.1729C157.562 77.1729 156.528 78.2959 155.082 80.2429Z" fill="url(#paint18_linear_1205_5371)"/>
<path fill-rule="evenodd" clip-rule="evenodd" d="M140.981 16.0211L137.824 16.3461C137.824 16.3461 138.414 17.5561 139.476 19.2961C142.633 24.9011 149.89 36.4961 158.176 40.8901L161.126 26.1401C161.126 26.1401 164.843 28.6181 174.195 28.6181C183.547 28.6181 196.969 22.0691 206.026 23.6321C212.867 25.3687 219.295 28.4473 224.936 32.6891C224.936 32.6891 222.871 42.3651 215.702 45.1681C215.702 45.1681 221.307 54.8151 226.912 58.2681C232.517 61.7211 225.23 95.9991 225.23 95.9991H233.461C237.806 84.0895 243.237 72.6048 249.686 61.6901C250.295 59.3316 250.345 56.8637 249.833 54.4823C249.321 52.101 248.26 49.8719 246.736 47.9721L250.276 36.1721C248.417 34.4021 223.726 11.0381 198.444 4.4591C172.307 -2.4149 166.377 0.712094 166.377 0.712094C168.789 3.95419 171.549 6.92194 174.608 9.5621C169.146 6.71601 163.067 5.25715 156.908 5.3141C149.463 4.89338 142.066 6.7452 135.697 10.6241L140.981 16.0211Z" fill="url(#paint19_linear_1205_5371)"/>
<path fill-rule="evenodd" clip-rule="evenodd" d="M202.932 193.79C202.932 193.79 219.187 223.29 224.32 233.35C229.453 243.41 230.692 262.85 230.692 262.85C232.049 260.106 254.292 213.791 251.873 186.15L235.736 174.644C235.736 174.644 233.877 159.894 232.786 152.224C232.786 152.224 215.912 160.779 200.336 156C199.982 155.882 204.053 183.524 202.932 193.79Z" fill="url(#paint20_linear_1205_5371)"/>
<path fill-rule="evenodd" clip-rule="evenodd" d="M226.06 311.703C226.06 311.703 233.435 286.834 237.86 274.65C242.285 262.466 287.36 206.534 290.96 198.598C294.56 190.662 297.686 183.198 297.686 183.198C297.686 183.198 267.478 154.819 237.918 141.898C235.499 140.806 233.109 139.833 230.718 138.948L235.94 176.414C235.94 176.414 249.009 182.963 251.84 186.12C250.698 198.235 248.507 210.228 245.291 221.963C241.84 232.996 235.526 249.9 232.458 258.071C231.307 261.021 230.629 262.821 230.629 262.821C230.629 262.821 230.304 274.621 229.685 282.793C229.066 290.965 226.06 311.703 226.06 311.703Z" fill="url(#paint21_linear_1205_5371)"/>
<path fill-rule="evenodd" clip-rule="evenodd" d="M156.97 191.017C156.97 191.017 211.221 223.762 219.334 232.317C227.447 240.872 230.574 262.879 230.574 262.879C230.574 262.879 230.574 242.229 226.06 233.585C221.546 224.941 202.932 193.785 202.932 193.785C206.354 175.111 198.89 148.325 198.89 148.325C186.47 156.261 170.865 174.049 162.69 183.962C159.094 188.215 156.97 191.017 156.97 191.017Z" fill="url(#paint22_linear_1205_5371)"/>
<path fill-rule="evenodd" clip-rule="evenodd" d="M71.802 477.819C91.154 487.997 120.596 482.628 120.596 482.628C120.596 482.628 121.717 420.235 128.561 382.328C132.219 362.15 137.618 341.588 141.925 326.808C145.672 313.798 148.533 305.214 148.533 305.214C149.898 285.592 149.146 265.881 146.291 246.42C143.67 231.112 136.386 216.987 125.434 205.975C123.921 204.412 122.305 202.954 120.596 201.609C120.389 203.379 119.976 206.359 119.386 210.282C115.492 237.039 104.459 306.66 101.686 320.407C98.736 336.16 81.744 363.448 78.086 384.482C77.732 386.458 77.378 388.882 77.053 391.651L76.227 399.734V400.56C75.608 407.345 75.047 415.16 74.545 423.128C72.805 449.497 71.802 477.819 71.802 477.819Z" fill="url(#paint23_linear_1205_5371)"/>
<path fill-rule="evenodd" clip-rule="evenodd" d="M115.315 490.121C120.545 492.977 124.969 497.107 128.177 502.128C132.396 509.592 134.49 528.028 133.546 531.304C132.788 533.638 131.684 535.846 130.271 537.853C130.271 537.853 128.825 524.725 124.636 521.453C120.447 518.181 108.293 521.011 108.293 521.011L110.506 549.538C110.506 549.538 92.806 548.594 83.041 542.989C83.041 542.989 78.35 510.244 80.681 490.124L115.315 490.121Z" fill="url(#paint24_linear_1205_5371)"/>
<path style="mix-blend-mode:screen" fill-rule="evenodd" clip-rule="evenodd" d="M146.528 104.108C146.975 107.156 147.656 110.165 148.564 113.108C153.107 128.448 163.314 149.069 170.63 151.459C176.308 152.589 182.183 152.221 187.676 150.39C184.726 151.069 174.283 153.104 168.676 148.384C162.097 142.897 148.97 110.033 150.12 98.6171C151.038 91.391 153.656 84.4856 157.761 78.4681C156.846 68.9101 157.525 48.4961 157.525 48.4961C157.027 58.0563 157.027 67.6359 157.525 77.1961C157.525 77.1961 156.492 78.3471 155.017 80.1461C150.498 85.6448 147.453 92.2028 146.167 99.2031C146.08 100.845 146.199 102.491 146.521 104.103L146.528 104.108Z" fill="url(#paint25_linear_1205_5371)"/>
<path fill-rule="evenodd" clip-rule="evenodd" d="M123.9 519.829C123.9 519.829 134.638 531.629 133.783 560.304L110.507 558.416C110.507 558.416 109.533 532.692 105.492 519.83C108.397 518.57 111.53 517.92 114.696 517.92C117.862 517.92 120.995 518.57 123.9 519.83V519.829Z" fill="url(#paint26_linear_1205_5371)"/>
<path fill-rule="evenodd" clip-rule="evenodd" d="M149.183 560.303C149.183 560.303 151.337 646.061 141.041 695.356H106.909L80.034 684.44C80.034 684.44 69.62 603.34 69.001 560.302L110.449 557.202L149.183 560.303Z" fill="url(#paint27_linear_1205_5371)"/>
<path fill-rule="evenodd" clip-rule="evenodd" d="M116.732 558.415C116.732 558.415 104.58 650.755 106.908 695.355L80.033 684.44C80.033 684.44 69 615.498 69 560.303L116.732 558.415Z" fill="url(#paint28_linear_1205_5371)"/>
<path fill-rule="evenodd" clip-rule="evenodd" d="M208.301 54.6961C205.565 50.0971 201.942 46.0881 197.642 42.9024C193.342 39.7168 188.452 37.4181 183.255 36.1401C182.735 39.1927 183.321 42.3307 184.907 44.9901C189.422 45.7092 193.825 47.0082 198.007 48.8551C201.567 50.5661 205.006 52.5176 208.301 54.6961Z" fill="url(#paint29_linear_1205_5371)"/>
<path fill-rule="evenodd" clip-rule="evenodd" d="M184.848 75.4342L185.148 76.1422C185.848 77.7651 187.07 79.1079 188.619 79.9577C190.169 80.8075 191.958 81.1156 193.703 80.8332C199.338 80.0662 203.881 74.4022 203.379 71.8062C202.612 68.9005 200.994 66.2899 198.735 64.3085C196.475 62.3272 193.675 61.0652 190.694 60.6842H190.394C189.923 60.6417 189.449 60.6417 188.978 60.6842C187.326 60.6842 186.028 60.8902 185.733 61.5402C185.535 61.9027 185.386 62.2897 185.29 62.6912C184.781 64.7879 184.504 66.9341 184.464 69.0912C184.448 69.2482 184.448 69.4063 184.464 69.5632C184.322 71.5286 184.451 73.5041 184.848 75.4342Z" fill="#FFF4C9"/>
<path fill-rule="evenodd" clip-rule="evenodd" d="M156.793 73.2772C156.918 74.5189 157.125 75.7509 157.413 76.9652C157.826 78.7352 158.413 79.9152 159.124 80.1222C161.334 80.4099 163.569 79.8206 165.35 78.4806C167.131 77.1407 168.317 75.1565 168.653 72.9532C168.998 69.9997 168.254 67.0217 166.561 64.5777C164.867 62.1337 162.34 60.3916 159.453 59.6782H158.686C158.424 59.6569 158.161 59.6995 157.92 59.8023C157.678 59.905 157.465 60.0649 157.299 60.2682C157.23 60.3323 157.178 60.4137 157.151 60.5042C156.728 61.7092 156.499 62.9735 156.472 64.2502C156.334 67.263 156.443 70.2821 156.797 73.2772H156.793Z" fill="#FFF4C9"/>
<path fill-rule="evenodd" clip-rule="evenodd" d="M184.848 75.4339L185.143 76.1419C185.627 76.8049 186.256 77.3488 186.982 77.7323C187.708 78.1158 188.511 78.3287 189.332 78.3549C192.813 78.3549 195.616 74.3429 195.616 69.5049C195.799 67.7028 195.425 65.888 194.544 64.3053C193.663 62.7227 192.317 61.4486 190.689 60.6549H190.389C190.036 60.6098 189.68 60.6098 189.327 60.6549H188.973C188.254 60.7194 187.555 60.9306 186.921 61.2757C186.287 61.6207 185.73 62.0922 185.285 62.6609C184.776 64.7576 184.499 66.9038 184.459 69.0609C184.443 69.2178 184.443 69.376 184.459 69.5329C184.314 71.5079 184.444 73.4933 184.843 75.4329L184.848 75.4339Z" fill="url(#paint30_linear_1205_5371)"/>
<path fill-rule="evenodd" clip-rule="evenodd" d="M184.464 69.4461C184.464 72.5731 186.293 75.0811 188.476 75.0811C190.659 75.0811 192.518 72.5141 192.518 69.3581C192.518 66.2021 190.718 63.6641 188.476 63.6641C186.234 63.6641 184.67 65.9641 184.493 68.8861C184.461 69.0713 184.452 69.2586 184.464 69.4461Z" fill="#381E22"/>
<path fill-rule="evenodd" clip-rule="evenodd" d="M156.793 73.2839C156.918 74.5256 157.125 75.7577 157.413 76.9719C157.874 77.342 158.445 77.5494 159.036 77.5619C161.485 77.5619 163.461 73.5499 163.461 68.7119C163.461 64.4339 161.961 60.8649 159.98 59.8619H159.773C159.667 59.8331 159.555 59.8331 159.449 59.8619H158.682C158.173 59.9237 157.692 60.1282 157.295 60.4519C157.226 60.516 157.174 60.5975 157.147 60.6879C156.724 61.8932 156.495 63.1579 156.468 64.4349C156.34 67.3888 156.448 70.3473 156.793 73.2839Z" fill="url(#paint31_linear_1205_5371)"/>
<path fill-rule="evenodd" clip-rule="evenodd" d="M156.793 73.2812C156.962 73.5637 157.193 73.8037 157.47 73.9827C157.746 74.1618 158.059 74.2752 158.386 74.3142C159.979 74.3142 161.336 71.7472 161.336 68.5912C161.336 65.4352 160.097 62.8682 158.386 62.8682C157.987 62.9218 157.609 63.0778 157.289 63.3208C156.968 63.5639 156.716 63.8858 156.557 64.2552C156.39 67.2652 156.469 70.284 156.793 73.2812Z" fill="#381E22"/>
<path fill-rule="evenodd" clip-rule="evenodd" d="M203.434 71.8649C202.504 69.7746 201.155 67.8975 199.47 66.3494C197.786 64.8014 195.801 63.6154 193.64 62.8649C186.648 60.7999 184.996 64.0749 184.996 64.0749C184.996 64.0749 182.813 61.3309 183.049 59.6499C183.285 57.9689 189.392 58.0569 195.233 61.2429C197.245 62.3692 199.008 63.8906 200.417 65.7156C201.827 67.5405 202.852 69.6315 203.433 71.8629L203.434 71.8649Z" fill="url(#paint32_linear_1205_5371)"/>
<path fill-rule="evenodd" clip-rule="evenodd" d="M167.797 68.5901C167.797 68.5901 164.847 62.9851 161.218 61.6281C157.589 60.2711 156.704 62.8671 156.704 62.8671C155.854 61.5557 155.264 60.0937 154.964 58.5601C154.964 57.3501 159.743 57.9701 162.929 60.0941C165.014 61.6364 166.611 63.746 167.529 66.1711L167.797 68.5901Z" fill="url(#paint33_linear_1205_5371)"/>
<path fill-rule="evenodd" clip-rule="evenodd" d="M154.964 95.1702C154.964 95.1702 170.983 91.7482 179.272 96.2622C175.98 99.0939 172.069 101.115 167.855 102.162C167.855 102.162 158.681 101.837 154.964 95.1702Z" fill="url(#paint34_linear_1205_5371)"/>
<path fill-rule="evenodd" clip-rule="evenodd" d="M171.484 101.041C171.484 101.041 174.965 95.1408 179.272 96.2618C176.995 98.3243 174.354 99.9449 171.484 101.041Z" fill="#B85652"/>
<path fill-rule="evenodd" clip-rule="evenodd" d="M179.331 96.2621C180.157 96.5271 178.918 89.6831 176.941 88.2381C174.995 86.8399 172.744 85.9239 170.374 85.5656C168.005 85.2073 165.584 85.4169 163.311 86.1771C159.511 87.9498 156.542 91.1198 155.021 95.0271C155.021 95.0271 170.865 92.1021 179.331 96.2621Z" fill="#FF9D8A"/>
<path fill-rule="evenodd" clip-rule="evenodd" d="M163.224 48.1172C163.224 48.1172 168.829 68.5612 166.174 78.0302C165.053 82.1012 157.825 89.5352 157.825 89.5352C157.825 89.5352 165.495 84.4902 167.619 78.3252C169.743 72.1602 168.563 56.7602 168.563 56.7602L163.224 48.1172Z" fill="#DD7A68"/>
<path fill-rule="evenodd" clip-rule="evenodd" d="M178.446 89.5352C179.495 91.6121 179.807 93.9836 179.331 96.2612C179.331 96.2612 183.846 94.6092 178.446 89.5352Z" fill="#DD7A68"/>
<path fill-rule="evenodd" clip-rule="evenodd" d="M158.475 39.208C160.96 41.9798 163.228 44.9385 165.26 48.058C166.85 50.7375 167.996 53.6565 168.653 56.702C166.15 52.6474 162.193 49.7028 157.59 48.471C156.923 45.366 157.232 42.1306 158.475 39.208Z" fill="url(#paint35_linear_1205_5371)"/>
<path fill-rule="evenodd" clip-rule="evenodd" d="M186.205 108.121C186.205 108.121 176.44 115.998 166.145 115.521C168.883 116.367 171.755 116.687 174.612 116.465C179.715 116.145 186.205 108.121 186.205 108.121Z" fill="url(#paint36_linear_1205_5371)"/>
<path style="mix-blend-mode:multiply" opacity="0.71" fill-rule="evenodd" clip-rule="evenodd" d="M227.479 121.278C227.479 121.278 215.263 149.864 201.309 159.633L198.359 146.387C198.359 146.387 220.101 139.926 225.116 112.108L227.479 121.278Z" fill="url(#paint37_linear_1205_5371)"/>
<path style="mix-blend-mode:multiply" fill-rule="evenodd" clip-rule="evenodd" d="M139.565 19.4431C142.722 25.0481 149.979 36.6431 158.265 41.0371L161.215 26.2871C161.215 26.2871 164.932 28.7651 174.284 28.7651C183.636 28.7651 197.058 22.2161 206.115 23.7791C212.956 25.5157 219.384 28.5943 225.025 32.8361C225.025 32.8361 222.963 42.5171 215.795 45.3171C215.795 45.3171 221.4 54.9641 227.005 58.4171C232.61 61.8701 225.323 96.1481 225.323 96.1481H233.554C237.899 84.2385 243.33 72.7538 249.779 61.8391C242.59 58.4119 236.051 53.7602 230.456 48.0921H246.681L250.221 36.2921C247.448 34.1971 203.021 0.89209 166.321 0.89209L176.381 10.9811C176.381 10.9811 150.421 10.1261 140.981 16.0261L154.876 20.7171C149.738 21.0369 144.58 20.6078 139.565 19.4431Z" fill="url(#paint38_linear_1205_5371)"/>
<path fill-rule="evenodd" clip-rule="evenodd" d="M232.166 90.7448C238.029 87.6557 244.601 86.1601 251.223 86.4078C253.249 89.0157 254.67 92.0411 255.385 95.2654C256.099 98.4896 256.088 101.832 255.353 105.052C253.317 117.236 233.08 123.342 229.835 121.513C226.59 119.684 225.144 111.66 225.144 111.66C225.144 111.66 227.328 92.8688 232.166 90.7448Z" fill="url(#paint39_linear_1205_5371)"/>
<path fill-rule="evenodd" clip-rule="evenodd" d="M230.16 99.2121C230.16 99.2121 236.444 91.9251 250.633 94.3441C251.991 98.0055 252.248 101.985 251.371 105.79C251.067 108.06 250.194 110.216 248.832 112.058C247.47 113.9 245.664 115.366 243.583 116.322C245.326 114.898 246.765 113.137 247.815 111.146C248.864 109.154 249.502 106.971 249.69 104.728L249.896 97.6771C245.427 96.5909 240.709 97.3117 236.768 99.6831C234.765 100.575 233.028 101.97 231.725 103.733C230.422 105.496 229.598 107.567 229.334 109.743C228.754 108.023 228.528 106.203 228.67 104.393C228.812 102.583 229.319 100.821 230.16 99.2121Z" fill="#DD6668"/>
<path fill-rule="evenodd" clip-rule="evenodd" d="M243.465 96.0552C243.328 99.2672 242.482 102.409 240.987 105.255C240.224 106.77 238.931 107.951 237.353 108.573C235.775 109.194 234.023 109.213 232.432 108.625C232.432 108.625 237.949 110.631 239.247 105.38C240.545 100.129 237.747 98.1522 237.747 98.1522L243.465 96.0552Z" fill="#DD6668"/>
<path style="mix-blend-mode:multiply" opacity="0.3" fill-rule="evenodd" clip-rule="evenodd" d="M232.432 257.924V258.485C232.432 258.485 232.432 258.927 240.309 253.647C248.186 248.367 277.981 204.411 281.403 198.924C284.031 194.898 286.991 191.098 290.253 187.566L297.746 183.347L288.07 182.727C288.07 182.727 267.803 164.643 264.057 162.077C260.311 159.511 234.114 144.613 234.114 144.613L237.979 141.84C235.56 140.748 233.17 139.775 230.779 138.89L236.001 176.355C236.001 176.355 249.07 182.904 251.901 186.061C250.759 198.176 248.568 210.168 245.352 221.904C241.784 232.908 235.382 249.812 232.432 257.924Z" fill="url(#paint40_linear_1205_5371)"/>
<path style="mix-blend-mode:multiply" opacity="0.3" fill-rule="evenodd" clip-rule="evenodd" d="M162.575 183.967C169.554 190.237 176.851 196.144 184.435 201.667C197.035 210.724 226.06 233.439 226.06 233.439C221.515 224.589 202.815 193.79 202.815 193.79C206.237 175.116 198.773 148.33 198.773 148.33C191.867 153.107 185.489 158.605 179.745 164.73C173.015 171.635 166.823 178.863 162.575 183.967Z" fill="url(#paint41_linear_1205_5371)"/>
<path style="mix-blend-mode:multiply" opacity="0.59" fill-rule="evenodd" clip-rule="evenodd" d="M179.749 164.732L202.936 193.79C206.358 175.116 198.894 148.33 198.894 148.33C191.947 153.101 185.529 158.598 179.748 164.73L179.749 164.732Z" fill="url(#paint42_linear_1205_5371)"/>
<path style="mix-blend-mode:multiply" opacity="0.59" fill-rule="evenodd" clip-rule="evenodd" d="M251.785 186.032L231.046 141.545L235.884 176.326L251.785 186.032Z" fill="url(#paint43_linear_1205_5371)"/>
<path style="mix-blend-mode:multiply" opacity="0.59" fill-rule="evenodd" clip-rule="evenodd" d="M202.932 193.79C202.932 193.79 219.187 223.29 224.32 233.35C229.453 243.41 230.692 262.85 230.692 262.85L237.743 244.058C224.556 225.149 200.218 156.118 200.218 156.118C200.218 156.118 204.053 183.528 202.932 193.79Z" fill="url(#paint44_linear_1205_5371)"/>
<path opacity="0.59" fill-rule="evenodd" clip-rule="evenodd" d="M285.267 253.646L276.181 293.324C280.754 275.624 284.648 256.714 285.267 253.646Z" fill="url(#paint45_linear_1205_5371)"/>
<path style="mix-blend-mode:multiply" opacity="0.5" fill-rule="evenodd" clip-rule="evenodd" d="M71.803 477.82C91.155 487.998 120.597 482.629 120.597 482.629C120.597 482.629 121.718 420.265 128.562 382.329C132.22 362.151 137.648 341.589 141.926 326.809C141.926 326.809 128.09 358.935 123.577 373.449C121.217 381.031 103.31 457.968 92.867 468.116C85.905 474.816 77.409 450.976 74.4 423.128C72.777 449.499 71.803 477.82 71.803 477.82Z" fill="url(#paint46_linear_1205_5371)"/>
<path fill-rule="evenodd" clip-rule="evenodd" d="M229.482 444.278C232.816 441.711 242.757 455.311 238.332 457.524C233.907 459.737 225.209 447.671 229.482 444.278Z" fill="#E3A1BC"/>
<path fill-rule="evenodd" clip-rule="evenodd" d="M234.733 331.144C238.952 330.79 239.925 347.605 235.033 347.044C230.141 346.483 229.157 331.675 234.733 331.144Z" fill="#E3A1BC"/>
<path style="mix-blend-mode:multiply" opacity="0.59" fill-rule="evenodd" clip-rule="evenodd" d="M221.517 461.241L214.732 445.841L204.762 541.629C204.762 541.629 221.812 483.484 221.517 461.241Z" fill="url(#paint47_linear_1205_5371)"/>
<path style="mix-blend-mode:multiply" opacity="0.71" fill-rule="evenodd" clip-rule="evenodd" d="M114.43 490.121L79.915 503.367L80.564 490.121C80.564 490.121 107.203 488.882 114.43 490.121Z" fill="url(#paint48_linear_1205_5371)"/>
<path fill-rule="evenodd" clip-rule="evenodd" d="M123.901 519.829C123.901 519.829 121.187 514.224 109.151 513.129L105.463 519.829C111.423 517.69 117.941 517.69 123.901 519.829Z" fill="url(#paint49_linear_1205_5371)"/>
<path fill-rule="evenodd" clip-rule="evenodd" d="M106.851 525.109C106.851 525.109 106.202 541.809 105.494 543.222C104.786 544.635 99.771 544.963 97.883 545.199C92.8579 545.737 87.7789 544.975 83.133 542.986C83.133 542.986 89.771 548.237 110.067 549.535C109.977 549.539 109.151 529.593 106.851 525.109Z" fill="url(#paint50_linear_1205_5371)"/>
<path fill-rule="evenodd" clip-rule="evenodd" d="M110.446 557.205C110.446 557.205 98.471 602.4 88.175 611.755C77.879 621.11 71.596 614.086 71.596 614.086L71.802 607.655C71.802 607.655 80.18 617.331 90.502 603.348C100.824 589.365 109.176 558.419 109.176 558.419L110.446 557.205Z" fill="url(#paint51_linear_1205_5371)"/>
<path style="mix-blend-mode:multiply" opacity="0.5" fill-rule="evenodd" clip-rule="evenodd" d="M187.562 434.926C187.562 434.926 174.936 466.757 157.737 470.326L162.28 477.996C162.28 477.996 177.119 468.734 187.562 434.926Z" fill="url(#paint52_linear_1205_5371)"/>
<path fill-rule="evenodd" clip-rule="evenodd" d="M174.552 9.67819C174.552 9.67819 152.899 4.42218 138.916 13.8672L135.759 10.7402C141.628 7.35353 148.248 5.48292 155.021 5.2975C161.794 5.11207 168.507 6.61768 174.552 9.67819Z" fill="url(#paint53_linear_1205_5371)"/>
<g style="mix-blend-mode:multiply">
<path fill-rule="evenodd" clip-rule="evenodd" d="M158.003 89.4768C160.931 87.4597 163.52 84.9903 165.673 82.1609C165.122 82.0102 164.542 82.0102 163.991 82.1609C162.16 84.7297 160.159 87.1738 158.003 89.4768Z" fill="#D6CC85"/>
</g>
</g>
</g>
<defs>
<linearGradient id="paint0_linear_1205_5371" x1="234.866" y1="629.481" x2="234.866" y2="445.907" gradientUnits="userSpaceOnUse">
<stop stop-color="#77454D"/>
<stop offset="1" stop-color="#894D65"/>
</linearGradient>
<linearGradient id="paint1_linear_1205_5371" x1="257.389" y1="556.912" x2="190.335" y2="556.912" gradientUnits="userSpaceOnUse">
<stop offset="0.01" stop-color="#D195AB"/>
<stop offset="0.99" stop-color="#985E77"/>
</linearGradient>
<linearGradient id="paint2_linear_1205_5371" x1="228.462" y1="880.618" x2="228.462" y2="446.048" gradientUnits="userSpaceOnUse">
<stop stop-color="#1A1A1A"/>
<stop offset="1" stop-color="#592227"/>
</linearGradient>
<linearGradient id="paint3_linear_1205_5371" x1="344.077" y1="560.371" x2="350.92" y2="493.214" gradientUnits="userSpaceOnUse">
<stop stop-color="#FF7F66"/>
<stop offset="1" stop-color="#EC887E"/>
</linearGradient>
<linearGradient id="paint4_linear_1205_5371" x1="339.335" y1="565.637" x2="339.335" y2="453.627" gradientUnits="userSpaceOnUse">
<stop stop-color="#FFA486"/>
<stop offset="1" stop-color="#FFB886"/>
</linearGradient>
<linearGradient id="paint5_linear_1205_5371" x1="338.693" y1="493.72" x2="338.693" y2="475.488" gradientUnits="userSpaceOnUse">
<stop offset="0.01" stop-color="#D195AB"/>
<stop offset="0.99" stop-color="#985E40"/>
</linearGradient>
<linearGradient id="paint6_linear_1205_5371" x1="337.243" y1="478.52" x2="337.243" y2="453.473" gradientUnits="userSpaceOnUse">
<stop stop-color="#774559"/>
<stop offset="1" stop-color="#894D67"/>
</linearGradient>
<linearGradient id="paint7_linear_1205_5371" x1="318.059" y1="477.968" x2="318.059" y2="204.966" gradientUnits="userSpaceOnUse">
<stop stop-color="#982A46"/>
<stop offset="1" stop-color="#E8214D"/>
</linearGradient>
<linearGradient id="paint8_linear_1205_5371" x1="337.734" y1="478.68" x2="337.734" y2="457.582" gradientUnits="userSpaceOnUse">
<stop stop-color="#75365E"/>
<stop offset="1" stop-color="#741031"/>
</linearGradient>
<linearGradient id="paint9_linear_1205_5371" x1="312.275" y1="470.149" x2="312.275" y2="247.805" gradientUnits="userSpaceOnUse">
<stop offset="0.01" stop-color="#985E77"/>
<stop offset="0.99" stop-color="#D195AB"/>
</linearGradient>
<linearGradient id="paint10_linear_1205_5371" x1="104.548" y1="565.643" x2="104.548" y2="526.378" gradientUnits="userSpaceOnUse">
<stop offset="0.01" stop-color="#592227"/>
<stop offset="1" stop-color="#3E1827"/>
</linearGradient>
<linearGradient id="paint11_linear_1205_5371" x1="95.1965" y1="492.6" x2="95.1965" y2="474.222" gradientUnits="userSpaceOnUse">
<stop stop-color="#75365E"/>
<stop offset="1" stop-color="#741045"/>
</linearGradient>
<linearGradient id="paint12_linear_1205_5371" x1="217.865" y1="637.859" x2="217.865" y2="173.585" gradientUnits="userSpaceOnUse">
<stop stop-color="#776890"/>
<stop offset="1" stop-color="#A697BA"/>
</linearGradient>
<linearGradient id="paint13_linear_1205_5371" x1="217.83" y1="637.974" x2="217.83" y2="173.668" gradientUnits="userSpaceOnUse">
<stop stop-color="#982A46"/>
<stop offset="1" stop-color="#F8194B"/>
</linearGradient>
<linearGradient id="paint14_linear_1205_5371" x1="223.821" y1="262.641" x2="240.579" y2="113.687" gradientUnits="userSpaceOnUse">
<stop stop-color="#FF7F66"/>
<stop offset="1" stop-color="#EC887E"/>
</linearGradient>
<linearGradient id="paint15_linear_1205_5371" x1="224.142" y1="588.096" x2="224.142" y2="187.394" gradientUnits="userSpaceOnUse">
<stop offset="0.01" stop-color="#985E77"/>
<stop offset="0.99" stop-color="#D195AB"/>
</linearGradient>
<linearGradient id="paint16_linear_1205_5371" x1="202.916" y1="457.552" x2="202.916" y2="201.634" gradientUnits="userSpaceOnUse">
<stop offset="0.01" stop-color="#985E77"/>
<stop offset="0.99" stop-color="#D195AB"/>
</linearGradient>
<linearGradient id="paint17_linear_1205_5371" x1="192.051" y1="152.107" x2="192.051" y2="18.298" gradientUnits="userSpaceOnUse">
<stop stop-color="#FFA486"/>
<stop offset="1" stop-color="#FFB886"/>
</linearGradient>
<linearGradient id="paint18_linear_1205_5371" x1="196.423" y1="149.659" x2="196.423" y2="18.3022" gradientUnits="userSpaceOnUse">
<stop stop-color="#FFEADB"/>
<stop offset="0.99" stop-color="#B060F4"/>
</linearGradient>
<linearGradient id="paint19_linear_1205_5371" x1="193.101" y1="96.1911" x2="193.101" y2="0.00244141" gradientUnits="userSpaceOnUse">
<stop offset="0.01" stop-color="#882231"/>
<stop offset="1" stop-color="#5A2031"/>
</linearGradient>
<linearGradient id="paint20_linear_1205_5371" x1="226.03" y1="262.74" x2="226.03" y2="152.113" gradientUnits="userSpaceOnUse">
<stop stop-color="#252525"/>
<stop offset="1" stop-color="#414141"/>
</linearGradient>
<linearGradient id="paint21_linear_1205_5371" x1="261.873" y1="311.703" x2="261.873" y2="138.775" gradientUnits="userSpaceOnUse">
<stop stop-color="#AE8B99"/>
<stop offset="1" stop-color="#D6B5C0"/>
</linearGradient>
<linearGradient id="paint22_linear_1205_5371" x1="193.772" y1="262.765" x2="193.772" y2="148.325" gradientUnits="userSpaceOnUse">
<stop stop-color="#AE8B9B"/>
<stop offset="1" stop-color="#D6B5C0"/>
</linearGradient>
<linearGradient id="paint23_linear_1205_5371" x1="110.498" y1="484.043" x2="110.498" y2="201.609" gradientUnits="userSpaceOnUse">
<stop stop-color="#982A46"/>
<stop offset="1" stop-color="#F8194B"/>
</linearGradient>
<linearGradient id="paint24_linear_1205_5371" x1="106.9" y1="549.538" x2="106.9" y2="490.121" gradientUnits="userSpaceOnUse">
<stop stop-color="#FFA486"/>
<stop offset="1" stop-color="#FFB886"/>
</linearGradient>
<linearGradient id="paint25_linear_1205_5371" x1="187.718" y1="100.298" x2="146.264" y2="100.298" gradientUnits="userSpaceOnUse">
<stop stop-color="#562400"/>
<stop offset="1" stop-color="#E24A3B"/>
</linearGradient>
<linearGradient id="paint26_linear_1205_5371" x1="119.662" y1="560.304" x2="119.662" y2="517.92" gradientUnits="userSpaceOnUse">
<stop offset="0.01" stop-color="#9C4510"/>
<stop offset="1" stop-color="#964011"/>
</linearGradient>
<linearGradient id="paint27_linear_1205_5371" x1="109.186" y1="695.356" x2="109.186" y2="557.202" gradientUnits="userSpaceOnUse">
<stop offset="0.01" stop-color="#9C4510"/>
<stop offset="1" stop-color="#964011"/>
</linearGradient>
<linearGradient id="paint28_linear_1205_5371" x1="92.866" y1="695.355" x2="92.866" y2="558.415" gradientUnits="userSpaceOnUse">
<stop offset="0.02" stop-color="#8D3D09"/>
<stop offset="1" stop-color="#802616"/>
</linearGradient>
<linearGradient id="paint29_linear_1205_5371" x1="195.686" y1="54.6961" x2="195.686" y2="36.1401" gradientUnits="userSpaceOnUse">
<stop offset="0.01" stop-color="#882231"/>
<stop offset="1" stop-color="#402731"/>
</linearGradient>
<linearGradient id="paint30_linear_1205_5371" x1="190.065" y1="78.4081" x2="190.065" y2="60.5147" gradientUnits="userSpaceOnUse">
<stop stop-color="#595E27"/>
<stop offset="0.98" stop-color="#814227"/>
</linearGradient>
<linearGradient id="paint31_linear_1205_5371" x1="159.953" y1="77.5619" x2="159.953" y2="59.6631" gradientUnits="userSpaceOnUse">
<stop stop-color="#595E27"/>
<stop offset="0.98" stop-color="#814227"/>
</linearGradient>
<linearGradient id="paint32_linear_1205_5371" x1="203.434" y1="65.2287" x2="183.052" y2="65.2287" gradientUnits="userSpaceOnUse">
<stop stop-color="#592C27"/>
<stop offset="0.98" stop-color="#814227"/>
</linearGradient>
<linearGradient id="paint33_linear_1205_5371" x1="167.797" y1="63.2796" x2="154.964" y2="63.2796" gradientUnits="userSpaceOnUse">
<stop stop-color="#592C27"/>
<stop offset="0.98" stop-color="#814227"/>
</linearGradient>
<linearGradient id="paint34_linear_1205_5371" x1="-5326.98" y1="-957.585" x2="-5326.98" y2="-968.035" gradientUnits="userSpaceOnUse">
<stop stop-color="#EF686A"/>
<stop offset="1" stop-color="#EC887E"/>
</linearGradient>
<linearGradient id="paint35_linear_1205_5371" x1="162.927" y1="56.7545" x2="162.927" y2="39.208" gradientUnits="userSpaceOnUse">
<stop offset="0.01" stop-color="#882231"/>
<stop offset="1" stop-color="#402731"/>
</linearGradient>
<linearGradient id="paint36_linear_1205_5371" x1="186.205" y1="112.31" x2="166.145" y2="112.31" gradientUnits="userSpaceOnUse">
<stop stop-color="#EC887E"/>
<stop offset="1" stop-color="#EF686A"/>
</linearGradient>
<linearGradient id="paint37_linear_1205_5371" x1="212.948" y1="159.633" x2="212.948" y2="112.108" gradientUnits="userSpaceOnUse">
<stop offset="0.01" stop-color="#D195AB"/>
<stop offset="0.99" stop-color="#985E40"/>
</linearGradient>
<linearGradient id="paint38_linear_1205_5371" x1="195.004" y1="96.1481" x2="195.004" y2="0.70158" gradientUnits="userSpaceOnUse">
<stop offset="0.01" stop-color="#D1C279"/>
<stop offset="1" stop-color="#C97CA1"/>
</linearGradient>
<linearGradient id="paint39_linear_1205_5371" x1="227.452" y1="326.523" x2="228.105" y2="291.927" gradientUnits="userSpaceOnUse">
<stop stop-color="#FF7F66"/>
<stop offset="1" stop-color="#EC887E"/>
</linearGradient>
<linearGradient id="paint40_linear_1205_5371" x1="264.129" y1="258.494" x2="264.129" y2="138.89" gradientUnits="userSpaceOnUse">
<stop offset="0.01" stop-color="#F3E3E9"/>
<stop offset="0.99" stop-color="#985E40"/>
</linearGradient>
<linearGradient id="paint41_linear_1205_5371" x1="194.318" y1="233.439" x2="194.318" y2="148.33" gradientUnits="userSpaceOnUse">
<stop offset="0.01" stop-color="#F3E3E9"/>
<stop offset="0.99" stop-color="#985E40"/>
</linearGradient>
<linearGradient id="paint42_linear_1205_5371" x1="191.719" y1="193.79" x2="191.719" y2="148.33" gradientUnits="userSpaceOnUse">
<stop offset="0.01" stop-color="#D195AB"/>
<stop offset="0.99" stop-color="#985E40"/>
</linearGradient>
<linearGradient id="paint43_linear_1205_5371" x1="241.395" y1="186.032" x2="241.395" y2="141.545" gradientUnits="userSpaceOnUse">
<stop offset="0.01" stop-color="#D195AB"/>
<stop offset="0.99" stop-color="#985E40"/>
</linearGradient>
<linearGradient id="paint44_linear_1205_5371" x1="218.905" y1="262.743" x2="218.905" y2="155.905" gradientUnits="userSpaceOnUse">
<stop offset="0.01" stop-color="#D195AB"/>
<stop offset="0.99" stop-color="#985E40"/>
</linearGradient>
<linearGradient id="paint45_linear_1205_5371" x1="280.724" y1="293.324" x2="280.724" y2="253.646" gradientUnits="userSpaceOnUse">
<stop offset="0.01" stop-color="#985E77"/>
<stop offset="0.99" stop-color="#D195AB"/>
</linearGradient>
<linearGradient id="paint46_linear_1205_5371" x1="106.864" y1="484.044" x2="106.864" y2="326.809" gradientUnits="userSpaceOnUse">
<stop offset="0.01" stop-color="#985E77"/>
<stop offset="0.99" stop-color="#D195AB"/>
</linearGradient>
<linearGradient id="paint47_linear_1205_5371" x1="213.141" y1="541.629" x2="213.141" y2="445.841" gradientUnits="userSpaceOnUse">
<stop offset="0.01" stop-color="#985E77"/>
<stop offset="0.99" stop-color="#D195AB"/>
</linearGradient>
<linearGradient id="paint48_linear_1205_5371" x1="97.2761" y1="503.367" x2="97.2761" y2="489.557" gradientUnits="userSpaceOnUse">
<stop offset="0.01" stop-color="#D195AB"/>
<stop offset="0.99" stop-color="#985E40"/>
</linearGradient>
<linearGradient id="paint49_linear_1205_5371" x1="114.7" y1="519.95" x2="114.713" y2="513.216" gradientUnits="userSpaceOnUse">
<stop stop-color="#FF7F66"/>
<stop offset="1" stop-color="#EC887E"/>
</linearGradient>
<linearGradient id="paint50_linear_1205_5371" x1="96.4653" y1="549.364" x2="96.7312" y2="524.986" gradientUnits="userSpaceOnUse">
<stop stop-color="#FF7F66"/>
<stop offset="1" stop-color="#EC887E"/>
</linearGradient>
<linearGradient id="paint51_linear_1205_5371" x1="90.5937" y1="616.795" x2="92.5005" y2="557.002" gradientUnits="userSpaceOnUse">
<stop offset="0.01" stop-color="#592227"/>
<stop offset="1" stop-color="#3E1827"/>
</linearGradient>
<linearGradient id="paint52_linear_1205_5371" x1="172.65" y1="477.824" x2="172.65" y2="434.797" gradientUnits="userSpaceOnUse">
<stop offset="0.01" stop-color="#985E77"/>
<stop offset="0.99" stop-color="#D195AB"/>
</linearGradient>
<linearGradient id="paint53_linear_1205_5371" x1="174.513" y1="9.55754" x2="135.759" y2="9.55754" gradientUnits="userSpaceOnUse">
<stop stop-color="#924A3B"/>
<stop offset="1" stop-color="#562400"/>
</linearGradient>
<clipPath id="clip0_1205_5371">
<rect width="430" height="627" fill="white"/>
</clipPath>
<clipPath id="clip1_1205_5371">
<rect width="292.913" height="905.163" fill="white" transform="translate(69)"/>
</clipPath>
</defs>
</svg>
