<svg xmlns="http://www.w3.org/2000/svg" xmlns:xlink="http://www.w3.org/1999/xlink" width="506.946" height="610.423" viewBox="0 0 506.946 610.423"><defs><style>.a,.k{fill:#dd6668;}.b{fill:url(#a);}.ap,.aq,.ar,.as,.au,.av,.bs,.bw,.c,.d,.i{opacity:0.6;}.c{fill:url(#b);}.aq,.ar,.as,.au,.av,.ax,.az,.ba,.bb,.bc,.be,.bf,.bh,.bi,.bk,.bm,.bn,.bp,.bs,.bt,.bv,.bw,.d,.g,.i,.n,.s,.u{mix-blend-mode:multiply;}.am,.aq,.ar,.as,.au,.av,.ax,.az,.ba,.bb,.bc,.be,.bf,.bh,.bi,.bk,.bm,.bn,.bp,.br,.bs,.bt,.bv,.bw,.d,.g,.i,.n,.s,.u{isolation:isolate;}.d{fill:url(#c);}.ah,.am,.an,.ao,.au,.av,.ax,.az,.ba,.bb,.bc,.bd,.be,.bf,.bh,.bi,.bj,.bk,.bl,.bm,.bn,.bq,.bs,.e,.g,.i,.k,.n,.s,.u,.v{fill-rule:evenodd;}.e{fill:url(#d);}.f{fill:url(#e);}.g{opacity:0.91;fill:url(#f);}.h{fill:url(#g);}.i{fill:url(#h);}.j{fill:url(#i);}.l{fill:url(#j);}.m{fill:url(#k);}.az,.ba,.bb,.bc,.bf,.bh,.bi,.bj,.bk,.bl,.bm,.bn,.n,.s,.u{opacity:0.5;}.n{fill:url(#l);}.o{fill:url(#m);}.p{fill:url(#n);}.q{fill:url(#o);}.r{fill:url(#p);}.s{fill:url(#q);}.t{fill:url(#r);}.u{fill:url(#s);}.v{fill:url(#t);}.w{fill:url(#u);}.x{fill:url(#v);}.y{fill:url(#w);}.z{fill:url(#x);}.aa{fill:#77485e;}.ab{fill:url(#y);}.ac{fill:#522f2e;}.ad{fill:url(#z);}.ae{fill:#fff;}.af{fill:#f58e6f;}.ag{fill:url(#aa);}.ah{fill:url(#ab);}.ai{fill:#c44a4c;}.aj{fill:url(#ac);}.ak{fill:#ffebed;}.al{fill:url(#ad);}.am,.ax{opacity:0.3;}.am,.br{mix-blend-mode:soft-light;}.am{fill:url(#ae);}.an{fill:#b85652;}.ao{fill:#ff8b68;}.ap{fill:url(#af);}.aq{fill:url(#ag);}.ar{fill:url(#ah);}.as{fill:url(#ai);}.at{fill:url(#aj);}.au{fill:url(#ak);}.av{fill:url(#al);}.aw{fill:url(#am);}.ax{fill:url(#an);}.ay{fill:url(#ao);}.az{fill:url(#ap);}.ba{fill:url(#aq);}.bb{fill:url(#ar);}.bc{fill:url(#as);}.bd,.be{opacity:0.86;}.bd{fill:url(#at);}.be,.bi{fill:url(#au);}.bf{fill:url(#av);}.bg{fill:url(#aw);}.bh{fill:url(#ax);}.bj{fill:url(#az);}.bk{fill:url(#ba);}.bl{fill:url(#bb);}.bm{fill:url(#bc);}.bn{fill:#bababa;}.bo{fill:url(#bd);}.bp{fill:url(#be);}.bq,.bu,.bv{fill:#85cbd6;}.br{fill:url(#bf);}.bs{fill:url(#bg);}.bx{fill:url(#bh);}.by{fill:url(#bi);}</style><linearGradient id="a" x1="0.5" y1="1.001" x2="0.5" gradientUnits="objectBoundingBox"><stop offset="0.02" stop-color="#aa5e44"/><stop offset="0.99" stop-color="#4f223a"/></linearGradient><linearGradient id="b" x1="0.501" y1="1" x2="0.501" gradientUnits="objectBoundingBox"><stop offset="0.02" stop-color="#dec2d6"/><stop offset="0.99" stop-color="#bd89c4"/></linearGradient><linearGradient id="c" x1="0.501" y1="1.001" x2="0.501" y2="-0.001" xlink:href="#b"/><linearGradient id="d" x1="0.499" y1="1" x2="0.499" gradientUnits="objectBoundingBox"><stop offset="0" stop-color="#232323"/><stop offset="1" stop-color="#474747"/></linearGradient><linearGradient id="e" x1="0.5" y1="1" x2="0.5" gradientUnits="objectBoundingBox"><stop offset="0.02" stop-color="#ff8359"/><stop offset="1" stop-color="#ff8b7c"/></linearGradient><linearGradient id="f" x1="0.5" y1="1.001" x2="0.5" gradientUnits="objectBoundingBox"><stop offset="0.02" stop-color="#f0c2d6"/><stop offset="0.99" stop-color="#bd89c4"/></linearGradient><linearGradient id="g" x1="0.5" y1="1" x2="0.5" gradientUnits="objectBoundingBox"><stop offset="0.02" stop-color="#ffae78"/><stop offset="1" stop-color="#ff957c"/></linearGradient><linearGradient id="h" x1="0.5" y1="1.001" x2="0.5" gradientUnits="objectBoundingBox"><stop offset="0" stop-color="#ffeadb"/><stop offset="0.99" stop-color="#b060f4"/></linearGradient><linearGradient id="i" x1="0.501" y1="1.001" x2="0.501" y2="0" xlink:href="#e"/><linearGradient id="j" x1="0.502" y1="1" x2="0.502" y2="0" xlink:href="#g"/><linearGradient id="k" x1="0.501" y1="0.999" x2="0.501" y2="-0.001" xlink:href="#g"/><linearGradient id="l" x1="0.5" y1="1" x2="0.5" y2="-0.001" gradientUnits="objectBoundingBox"><stop offset="0.01" stop-color="#be6888"/><stop offset="1" stop-color="#8ea6ba"/></linearGradient><linearGradient id="m" x1="0.496" y1="1" x2="0.496" gradientUnits="objectBoundingBox"><stop offset="0.01" stop-color="#7d363d"/><stop offset="0.99" stop-color="#4f223a"/></linearGradient><linearGradient id="n" x1="0.499" y1="1.002" x2="0.499" y2="0.001" xlink:href="#m"/><linearGradient id="o" x1="0.5" y1="1" x2="0.5" gradientUnits="objectBoundingBox"><stop offset="0.01" stop-color="#bd725b"/><stop offset="0.99" stop-color="#6f2e45"/></linearGradient><linearGradient id="p" x1="0.502" y1="1" x2="0.502" y2="-0.001" gradientUnits="objectBoundingBox"><stop offset="0" stop-color="#ff5779"/><stop offset="1" stop-color="#e43e74"/></linearGradient><linearGradient id="q" x1="0.501" y1="1.001" x2="0.501" gradientUnits="objectBoundingBox"><stop offset="0.01" stop-color="#be6888"/><stop offset="1" stop-color="#8e81f4"/></linearGradient><linearGradient id="r" x1="0.497" y1="1" x2="0.497" gradientUnits="objectBoundingBox"><stop offset="0" stop-color="#fbc8d9"/><stop offset="1" stop-color="#ffd1dc"/></linearGradient><linearGradient id="s" x1="0.501" y1="1.001" x2="0.501" y2="0" xlink:href="#q"/><linearGradient id="t" x1="0.5" y1="1" x2="0.5" gradientUnits="objectBoundingBox"><stop offset="0" stop-color="#373737"/><stop offset="1" stop-color="#3f3f3f"/></linearGradient><linearGradient id="u" x1="0.498" y1="1" x2="0.498" gradientUnits="objectBoundingBox"><stop offset="0.01" stop-color="#4f223a"/><stop offset="0.99" stop-color="#7d363d"/></linearGradient><linearGradient id="v" x1="1" y1="0.501" x2="0" y2="0.501" xlink:href="#u"/><linearGradient id="w" x1="0.5" y1="1.001" x2="0.5" y2="0.003" gradientUnits="objectBoundingBox"><stop offset="0" stop-color="#d0c7f8"/><stop offset="1" stop-color="#fff"/></linearGradient><linearGradient id="x" x1="0.508" y1="0.999" x2="0.508" y2="-0.014" xlink:href="#w"/><linearGradient id="y" x1="0.501" y1="1.001" x2="0.501" y2="0.041" gradientUnits="objectBoundingBox"><stop offset="0.01" stop-color="#c2862e"/><stop offset="0.98" stop-color="#74422f"/></linearGradient><linearGradient id="z" x1="0.511" y1="0.999" x2="0.511" y2="-0.011" xlink:href="#y"/><linearGradient id="aa" x1="0.486" y1="-0.542" x2="0.486" y2="-1.614" gradientUnits="objectBoundingBox"><stop offset="0.03" stop-color="#ff6a68"/><stop offset="1" stop-color="#ff7c5e"/></linearGradient><linearGradient id="ab" x1="1" y1="0.5" x2="-0.001" y2="0.5" gradientUnits="objectBoundingBox"><stop offset="0" stop-color="#ef686a"/><stop offset="1" stop-color="#ec887e"/></linearGradient><linearGradient id="ac" x1="0.5" y1="1" x2="0.5" gradientUnits="objectBoundingBox"><stop offset="0" stop-color="#bd5042"/><stop offset="0.99" stop-color="#812545"/></linearGradient><linearGradient id="ad" x1="0.502" y1="1.001" x2="0.502" y2="-0.001" gradientUnits="objectBoundingBox"><stop offset="0" stop-color="#cf6074"/><stop offset="1" stop-color="#e04a60"/></linearGradient><linearGradient id="ae" x1="0.5" y1="1.005" x2="0.5" y2="0.005" gradientUnits="objectBoundingBox"><stop offset="0.01" stop-color="#b060f4"/><stop offset="1" stop-color="#ffeadb"/></linearGradient><linearGradient id="af" x1="0.524" y1="0.993" x2="0.524" y2="0" xlink:href="#b"/><linearGradient id="ag" x1="0.501" y1="0.999" x2="0.501" y2="0" xlink:href="#b"/><linearGradient id="ah" x1="0.5" y1="1" x2="0.5" y2="0" xlink:href="#b"/><linearGradient id="ai" x1="0.5" y1="1" x2="0.5" y2="0" xlink:href="#b"/><linearGradient id="aj" x1="0.5" y1="1" x2="0.5" gradientUnits="objectBoundingBox"><stop offset="0.01" stop-color="#c58470"/><stop offset="0.98" stop-color="#8e4156"/></linearGradient><linearGradient id="ak" x1="0.5" y1="1" x2="0.5" y2="0" xlink:href="#ae"/><linearGradient id="al" x1="0.5" y1="0.999" x2="0.5" y2="-0.002" xlink:href="#ae"/><linearGradient id="am" x1="0.5" y1="1" x2="0.5" gradientUnits="objectBoundingBox"><stop offset="0" stop-color="#fbc8d4"/><stop offset="1" stop-color="#ffd1e6"/></linearGradient><linearGradient id="an" x1="1" y1="0.5" x2="0" y2="0.5" xlink:href="#ae"/><linearGradient id="ao" x1="0.5" y1="1" x2="0.5" gradientUnits="objectBoundingBox"><stop offset="0" stop-color="#ff957c"/><stop offset="0.98" stop-color="#ffae78"/></linearGradient><linearGradient id="ap" x1="0.5" y1="1.001" x2="0.5" y2="0.001" gradientUnits="objectBoundingBox"><stop offset="0" stop-color="#ebebeb"/><stop offset="1" stop-color="silver"/></linearGradient><linearGradient id="aq" x1="0.5" y1="0.998" x2="0.5" y2="0.001" xlink:href="#q"/><linearGradient id="ar" x1="0.501" y1="0.999" x2="0.501" y2="-0.001" xlink:href="#q"/><linearGradient id="as" x1="0.501" y1="1" x2="0.501" y2="0" xlink:href="#q"/><linearGradient id="at" x1="0.5" y1="1" x2="0.5" y2="0" xlink:href="#q"/><linearGradient id="au" x1="0.499" y1="1" x2="0.499" y2="0" xlink:href="#q"/><linearGradient id="av" x1="0.502" y1="1" x2="0.502" y2="-0.001" xlink:href="#q"/><linearGradient id="aw" x1="0.5" y1="0.992" x2="0.5" y2="-0.008" gradientUnits="objectBoundingBox"><stop offset="0" stop-color="#fbc8d1"/><stop offset="1" stop-color="#ffd1d6"/></linearGradient><linearGradient id="ax" x1="0.499" y1="0.997" x2="0.499" y2="0" xlink:href="#q"/><linearGradient id="az" x1="0.526" y1="1" x2="0.526" y2="0" xlink:href="#q"/><linearGradient id="ba" x1="0.5" x2="0.5" y2="0" xlink:href="#l"/><linearGradient id="bb" x1="0.506" y1="1" x2="0.506" gradientUnits="objectBoundingBox"><stop offset="0.01" stop-color="#be6888"/><stop offset="1" stop-color="#8ea6f4"/></linearGradient><linearGradient id="bc" x1="0.5" y1="0.997" x2="0.5" gradientUnits="objectBoundingBox"><stop offset="0" stop-color="#767676"/><stop offset="1" stop-color="#f1f1f1"/></linearGradient><linearGradient id="bd" x1="0.894" y1="0.721" x2="0.072" y2="0.094" gradientUnits="objectBoundingBox"><stop offset="0" stop-color="#d8d8d8"/><stop offset="1" stop-color="#7ac1e2"/></linearGradient><linearGradient id="be" x1="0.841" y1="1.406" x2="0.164" y2="-0.396" gradientUnits="objectBoundingBox"><stop offset="0" stop-color="#bac2ff"/><stop offset="1" stop-color="#e2e2e2"/></linearGradient><linearGradient id="bf" x1="0.999" y1="0.5" x2="0.001" y2="0.5" xlink:href="#be"/><linearGradient id="bg" x1="0.502" y1="0.996" x2="0.502" gradientUnits="objectBoundingBox"><stop offset="0" stop-color="#ffeadb"/><stop offset="1" stop-color="#60c5f4"/></linearGradient><linearGradient id="bh" x1="1.008" y1="0.498" x2="0" y2="0.498" xlink:href="#bg"/><linearGradient id="bi" x1="1.02" y1="0.501" x2="0.003" y2="0.501" xlink:href="#bg"/></defs><g transform="translate(0 0)"><path class="a" d="M391.789,51.472a9.434,9.434,0,0,1-1.736,7.547c-2.641,3.057-7.094.943-7.094.943l-1.887-17.02,4.453-6.113a84.947,84.947,0,0,1,6.264,14.642Z" transform="translate(85.76 -27.373)"/><path class="b" d="M414.889,228.136a84.681,84.681,0,0,1,4.226-22c7.019-18.34,51.134-70.38,51.134-70.38l62.983-70.72a32.039,32.039,0,0,1,30.794,8.717,43.17,43.17,0,0,1,11.321,19.208,40.192,40.192,0,0,1,1.509,12.151,52.269,52.269,0,0,0-7.547-17.019,25.207,25.207,0,0,0-11.774-9.661,290.6,290.6,0,0,1,19.321,38c3.019,7.547,8.944,9.321,16.265,9.019h.755c10.717-.679,24.265-5.132,36.3-1.66,11.321,3.283,18.076,17.472,18.378,33.36a56,56,0,0,1-13.019,37.737h0s.226-2.227.226-5.774V185.04a2.662,2.662,0,0,0,0-.528,16.1,16.1,0,0,0,0-1.811,69.957,69.957,0,0,0-3.17-17.019,44.511,44.511,0,0,0-1.585-4.453,18.862,18.862,0,0,0-1.019-2.189c-.339-.717-.679-1.434-1.056-2.151a34.16,34.16,0,0,0-22.076-16.982c1.208.943,21.4,16.416,23.133,38.341,1.472,17.548-15.51,29.85-19.812,32.68a58.983,58.983,0,0,1-11.019,20.529C579.8,253.231,565.8,249.91,565.8,249.91a124.531,124.531,0,0,1-34.379,12c-18.529,3.283-37.737-6.529-48.455-15.51,1.925,1.849,17.623,16.642,29.812,18.869,0,0-19.661,3.774-33.964-1.962l5.661,6.3a55.515,55.515,0,0,1-12.944-3.774l-2.075-.906-2.755-1.359a50.115,50.115,0,0,1-25.4-27.661c-.3-.717-.529-1.359-.755-1.925a23.1,23.1,0,0,1-.679-2.3,40.6,40.6,0,0,0-25.359,28.529s-.3-4.264-.415-10.6a205.231,205.231,0,0,1,.793-21.472Zm201.139-66a166.038,166.038,0,0,1-4.528,42.983C615.236,195.191,620.935,176.134,616.029,162.134Z" transform="translate(-295.391 48.161)"/><path class="c" d="M440.625,87.45A40.185,40.185,0,0,0,439.116,75.3l-6-4.868a52.27,52.27,0,0,1,7.51,17.019Z" transform="translate(-159.309 65.825)"/><path class="d" d="M419.441,249.333a65.08,65.08,0,0,1,3.774-10.566,72.343,72.343,0,0,1,21.435-28.076A281.735,281.735,0,0,0,470.574,188.8c-4.906,5.095-20.114,21.623-21.586,32.039a23.082,23.082,0,0,0,.679,2.3,54.947,54.947,0,0,0,25.548,29.775l2.755,1.359,2,.868c-1.094-.792-18.6-13.284-22.982-31.662a10.152,10.152,0,0,1,9.736-9.208,101.136,101.136,0,0,0,24.114,20.982,28.49,28.49,0,0,1-8.114-11.774,123.777,123.777,0,0,0,34.945,16.567c23.359,7.548,37.737,2.415,37.737,2.415S597.146,225.9,609.146,198.5a101.892,101.892,0,0,0,7.246-53.436,13.51,13.51,0,0,1,8.642,6.34,75.962,75.962,0,0,0-15.963-24.341l6.3,2.3s11.623.566,20.416,14.151c.6.868,1.17,1.849,1.736,2.868s.717,1.434,1.057,2.151.679,1.472,1.019,2.189c.566,1.434,1.094,2.944,1.585,4.453a74.159,74.159,0,0,1,3.17,17.02q0,.943,0,1.811a2.681,2.681,0,0,1,0,.528q0,2.264,0,4.076c0,3.547-.226,5.774-.226,5.774a71.7,71.7,0,0,0,13.019-37.737A53.023,53.023,0,0,1,651,164.2s-10.189-23.322-24.416-36.869c-12-11.321-21.473-12.378-24.114-12.378h-.755c-7.321.3-13.246-1.4-16.265-9.019a290.555,290.555,0,0,0-19.321-38L513.557,160.8l-38.983-22.642-24,41.511-11.321,22.642a198.644,198.644,0,0,0-15.661,15.472,43.7,43.7,0,0,0-8.982,13.548,20.981,20.981,0,0,0,4.83,18Z" transform="translate(-304.433 58.89)"/><path class="e" d="M521.715,186.7l-6.83,5.359-4.151,3.283-11.62,26.624H532.1A99.237,99.237,0,0,0,521.715,186.7Z" transform="translate(-178.171 388.325)"/><path class="f" d="M467.42,107.23s6.679,19.661,12,25.7,9.321,5.661,9.321,5.661,1.7,10.642-10.642,11.321-27.7-8.981-27.7-8.981a44.575,44.575,0,0,0-2-12.34c-2-6-15.661-21.359-15.661-21.359Z" transform="translate(-206.067 167.898)"/><path class="g" d="M476.058,117.91s-8.491,7.547-28.378,1.962L437.34,107.23l35.7,2.944Z" transform="translate(-210.668 167.898)"/><path class="h" d="M426.836,153.4c4.717,14.68,19.774,45.549,47.624,62.417h0c1.66,1.019,3.359,1.962,5.132,2.868,31.1,16,65.776,5.359,65.776,5.359,21.774-12.906,34.681-58.681,28.907-72.455a23.927,23.927,0,0,0-9.17-11.095c-5.434-3.774-11.321-5.321-13.963-9.359-4.415-6.679-12-32-23.548-45.285s-29.7-23.133-48-19.548C420.459,77.816,421.78,137.818,426.836,153.4Z" transform="translate(-262.28 52.325)"/><path class="i" d="M549.145,134.37a11.549,11.549,0,0,1-5.661,8.491c-5.51,3.774-17.51-.377-17.51-.377a101.441,101.441,0,0,1-15.548-36.039s-8.114-4.227-12.567-.34a27.133,27.133,0,0,0-14.793-10.566l-4.981,3.774s18,29.7,21.322,48.681c0,0-6.227,6.679-21.322,9.623s-22.416,3.774-23.888,7.208c-3.321,7.547-.34,29.1,23.208,47.473,21.435,16.755,53.889,13.774,53.889,13.774a92.267,92.267,0,0,1-53.059-5.547c-26.416-11.774-37.964-34.454-42.266-54.455a342.654,342.654,0,0,1-5.661-45.851L440.877,85.35l5.434-4.038L498.464,65.5l18.869,4.264,3.019,13.887a69.394,69.394,0,0,1,12.831,19.435c6.227,13.019,9.359,22.416,11.963,26.756A16.869,16.869,0,0,0,549.145,134.37Z" transform="translate(-257.225 52.15)"/><path class="j" d="M490.88,104.482s-18.227-12.793-34.567-7.774a18.453,18.453,0,0,0-.755,15.434s6.34,26.416,40.982,25.661a13.019,13.019,0,0,0,9.736-12.529S498.541,109.916,490.88,104.482Z" transform="translate(-304.587 135.475)"/><path class="k" d="M490.01,113.52S474.236,96.878,459.1,97.67a16.68,16.68,0,0,0,0,15.85,14.077,14.077,0,0,1,1.283-10.755l9.51,2.226s-1.811,11.623,5.208,16.265c5.623,3.774,12.6,2.83,15.095,0a13.057,13.057,0,0,1-13.02-1.623,15.1,15.1,0,0,1-3.245-11.548,59.965,59.965,0,0,1,16.076,5.434Z" transform="translate(-299.377 141.305)"/><path class="l" d="M475.222,140.824a24.1,24.1,0,0,0,2.868,5.283,4.944,4.944,0,0,0,4-3.095c.642,3.094,1.547,3.094,1.547,3.094l-1.4,2.264c-3.283,5.359-11.132,18.869-9.7,22.189s16.642,20.68,37.209,40.605h0c8.378,8.076,17.661,16.6,27.133,24.68A340.656,340.656,0,0,0,604.812,280.3s9.321-4.906,10.227-23.548-10.227-25.322-10.227-25.322l-2-.943a189.228,189.228,0,0,0-25.1-7.095,121.138,121.138,0,0,1-42.039-21.321,132.076,132.076,0,0,1-19.925-21.85c5.359-13.774,15.51-44.153,13.057-49.058s-19.774-18-22.227-19.1a16.34,16.34,0,0,0-10.906,0,26.407,26.407,0,0,0-3.547,4.415,16.077,16.077,0,0,0-7.547,4.906,8.378,8.378,0,0,0-7.095,1.774c-6.906-4-7.887-.453-7.887-.453-2,8,.981,19.359,2.906,19.737C475.637,143.051,475.222,140.824,475.222,140.824Z" transform="translate(-468.936 178.72)"/><path class="m" d="M373.35,219.395c8.453,5.359,22.227,37.737,22.227,37.737,11.321-11.321,42.907-57.776,59.1-98.117a354.539,354.539,0,0,0,14.378-44.228.717.717,0,0,0,0-.264A287.618,287.618,0,0,0,475.5,83.012c-6-11.812-35.1-18.038-35.1-18.038A55.1,55.1,0,0,1,438.6,51.238a15.511,15.511,0,0,0,6.227,3.283,28.3,28.3,0,0,0,10,1.132c-2.868-9.321-14.416-20-17.51-20.227s-8.264-2.227-9.547,0a41.967,41.967,0,0,0-2.717,6.68l-4,5.774a38.081,38.081,0,0,0-4.642,2.679,8.151,8.151,0,0,0-7.547,0,51.737,51.737,0,0,0-2.717,33.473h0a365.286,365.286,0,0,1,43.586,21.774c-10.227,34.681-51.1,72.04-60.379,82.23S373.35,219.395,373.35,219.395Z" transform="translate(31.366 -34.157)"/><path class="n" d="M583.7,255.288c8.627-9.487,15.783-22.336,20.295-34.34-2.075,2.793-8.6,5.472-10.642,7.849-9.226,11.622-45.757,26.438-49.57,26.438-50.153-47.775-85.794-78.4-88.284-80.515C472.821,198.495,571.451,255.288,583.7,255.288Z" transform="translate(-260.98 355.096)"/><path class="o" d="M463.827,87.06s1.585,26.416,10.265,40.945a46.722,46.722,0,0,0-15.812-7.547S458.469,99.476,463.827,87.06Z" transform="translate(-287.723 111.952)"/><path class="p" d="M481.806,111.334a53.736,53.736,0,0,0-14.114-7.547s-3.4,19.548-7.359,26.869c0,0-1.094-65.851-22.416-75.135a39.888,39.888,0,0,1,26,9.359C475.919,75.22,482.108,90.126,481.806,111.334Z" transform="translate(-218.604 24.467)"/><path class="q" d="M441.682,255.392a61.061,61.061,0,0,0,12.038,26.416h0a64.94,64.94,0,0,0,11.321,11.661c-2.679-8.34.679-41.511,25.359-58.342a94.86,94.86,0,0,0,10.642-8.3h0a69.7,69.7,0,0,0,6.6-6.868,51.775,51.775,0,0,0,13.1-35.85,205.921,205.921,0,0,1,2-29.246v-.717l.453-3.094a1.21,1.21,0,0,0,0-.264,68.234,68.234,0,0,0,5.472-11.321,72.492,72.492,0,0,0,4.529-28.114c56.606-2,52.341,22.378,52.341,22.378,10.755-27.737-2.189-56.078-2.755-57.361a51.437,51.437,0,0,1,15.283,31.322c.566-43.473-30.529-57.662-39.85-50.341-5.17,4.076-10.755,17.246-18.6,30.19h0c-6.3,10.415-14.076,20.718-24.3,26.039-7.547,4-28,17.284-30.378,26.416-3.321,12.68,1.321,33.02-2.642,46.341s-17.661,22.642-26.416,28S437.342,231.466,441.682,255.392Z" transform="translate(-345.053 24.453)"/><path class="r" d="M394.39,353.464a37.731,37.731,0,0,0,4.943,11.095c3.774,5.359,10.982,8.038,15.472,5.661a116.605,116.605,0,0,0,16.68.868s5.51-6.189,15.85-27.171a234.314,234.314,0,0,1,34.19-47.662h0c3.208-3.472,6.076-6.378,8.378-8.491,0,0,7.321,1.925,15.661,13.548s18.34,36.945,17.321,57.587c0,0-8.189,3.434-9.547,5.774s5.887,15.661,5.887,15.661,17.359,28.378,37.322,38.341,31.02.679,34.379-3.321a45,45,0,0,0,3.774-5.736,215.114,215.114,0,0,0,13.774-27.963c11.019-26,17.321-65.663,17.321-65.663a16.216,16.216,0,0,0,1.321-2.076c.415-.679.83-1.472,1.245-2.227a1.352,1.352,0,0,1,0-.34,76.421,76.421,0,0,0,8.529-25.7,1.57,1.57,0,0,0,0-.189,1.552,1.552,0,0,0,0-.264,54.452,54.452,0,0,0,.34-7.887s-8-20.642-37.322-38.983c0,0,2.377-3.245,6.378-8.529v-.226c14-18.869,47.172-62.191,64.493-79.248,0,0,11.661-3.208,14.642-7.208A27.471,27.471,0,0,0,686.967,137h0v-1.132s6.566-8.642,9.019-13.019c0,0-8-32.341-26.416-40a30.567,30.567,0,0,0-6.68,17.019s-10.3-1.019-12.3.679-8.038,18.34-11.7,25.322-49.058,51.172-52.832,52.266c0,0-14.3,0-17.661,1.736s-10.3,12.34-14,15.095c0,0,1.132-1.094-4.264-1.359a3.472,3.472,0,0,0-2.906,1.359,8,8,0,0,0-1.509,2.679,22.943,22.943,0,0,0-.981,3.774c-.189,1.623-.226,2.83-.226,2.83a17.658,17.658,0,0,1,4.227,6.227c1.4,6.491-18.642,12.529-37.322-6.113a9.812,9.812,0,0,0-4.679,8.415s-24.341.3-33.737,6.415h0a11.66,11.66,0,0,0-2.264,1.925c-6.642,8-10.642,18.869-16.642,26.039s-12.34,15.661-12.34,18.869a118.37,118.37,0,0,0,1.434,11.849s-7.774,22.152-14.114,28.114a32.828,32.828,0,0,0-6.6-3.774,8.831,8.831,0,0,0-3.019,3.774,19.057,19.057,0,0,0-9.661-4.642,5.962,5.962,0,0,0-2.076.377h0a7.283,7.283,0,0,0-3.585,4.264l-5.472,2.3s8.113,0,11.321,17.736-3.283,30.19-8.151,32.228Z" transform="translate(-268.514 100.274)"/><path class="s" d="M451.22,196.61a37.731,37.731,0,0,0,4.943,11.095c3.774,5.359,10.982,8.038,15.472,5.661a116.6,116.6,0,0,0,16.68.868s5.51-6.189,15.85-27.171a234.312,234.312,0,0,1,34.19-47.662c-1.7,1.547-25.624,23.171-34.907,40.3-9.623,17.812-18.491,20.416-18.491,20.416s.642-50.3-28.6-49.058c0,0,8.114,0,11.321,17.736s-3.283,30.19-8.151,32.228Z" transform="translate(-325.344 257.128)"/><path class="t" d="M474.855,142.77s4.453,0,11.548,7.019,11.321,28.378,7.547,40.907c-4.34,13.585-12.755,13.925-12.755,13.925s-10.227.868-14.529-17.359l8.34,4.34s7.925-4.227,8.378-23.359S474.855,142.77,474.855,142.77Z" transform="translate(-340.639 266.476)"/><path class="u" d="M416.4,161.633c-1.321,2.34,5.887,15.661,5.887,15.661s17.359,28.378,37.322,38.341,31.02.679,34.379-3.321a44.991,44.991,0,0,0,3.774-5.736H490.48a104.834,104.834,0,0,0,25.812-50.568,95.551,95.551,0,0,1-34.643,47.436s-6.227,7.095-26.831,0S416.4,161.633,416.4,161.633Z" transform="translate(-171.276 303.2)"/><path class="v" d="M597.276,291.431c10.233-5.807,18.58-25.02,22.467-35.02,0,0-8-26.944-21.322-41.247h0a41.845,41.845,0,0,0,2.227-12.3,10.718,10.718,0,0,0-1.585-5.963s-26.416,25.925-67.927-30.19c-1.208-1.585-2.377-3.245-3.774-5.019a14.076,14.076,0,0,0-3.283,2.717,16.828,16.828,0,0,0-3.4,5.019l-.415.868h0a20.863,20.863,0,0,0-1.208,4.642s-27.322,8.378-59.323,38.341-43.436,62.342-43.058,78.154Z" transform="translate(-276.35 318.955)"/><path class="w" d="M480.71,74.5a14.793,14.793,0,0,1,0,10.982,48.116,48.116,0,0,0-19.133,5.661,38.983,38.983,0,0,0-12.717,14.68,45.739,45.739,0,0,1,9.472-18.114C464.181,81.821,479.88,75.821,480.71,74.5Z" transform="translate(-259.85 77.114)"/><path class="x" d="M457.387,85.416s-6.793-7.812-12.831-7.321c-7.887.679-10.038,12.529-10.038,12.529s0-13.887,5.812-17.887,14.076,7.17,14.076,7.17a6.076,6.076,0,0,1,2.981,5.51Z" transform="translate(-181.355 69.821)"/><path class="y" d="M444.174,100.8c.226,1.585,2.264,2.642,5.246,3.359a32.229,32.229,0,0,0,4.755.755,86.8,86.8,0,0,0,14,0h0a36.034,36.034,0,0,0,4.755-.679c6.378-1.434,10.717-4.34,10.34-5.359-1.019-2.528-9.132-16.869-20.454-16.076S443.5,96.313,444.174,100.8Z" transform="translate(-243.541 100.057)"/><path class="z" d="M430.963,92.563a23.247,23.247,0,0,0,.566,6.491,9.963,9.963,0,0,0,1.132,3.132,1.172,1.172,0,0,0,.415.453,4.871,4.871,0,0,0,1.472.755l1.925.415a20.152,20.152,0,0,0,7.17-.566h.566a16.792,16.792,0,0,0,4.944-2.264h.264a10.869,10.869,0,0,0,4.453-7.17s-6-13.321-14.868-14.227c-5.4-.528-7.736,6.076-8,12.567q-.028.207-.038.415Z" transform="translate(-164.29 91.127)"/><path class="aa" d="M494.718,97.485S487.624,82.39,474.491,82.39s-20.869,15.095-20.869,15.095a27.284,27.284,0,0,1-9.133-1.509,53.934,53.934,0,0,0,12.453,5.849s7.095-16.491,19.548-16.227C486.982,85.824,494.718,97.485,494.718,97.485Z" transform="translate(-256.31 98.998)"/><path class="ab" d="M446.792,97.148a11.323,11.323,0,0,0,.49,3.359,32.231,32.231,0,0,0,4.755.755,86.8,86.8,0,0,0,14,0h0a36.032,36.032,0,0,0,4.755-.679,11.972,11.972,0,0,0,.528-3.51,12.3,12.3,0,1,0-24.567,0Z" transform="translate(-241.403 103.712)"/><path class="ac" d="M447.882,94.033a7.737,7.737,0,0,0,1.132,4.113,86.8,86.8,0,0,0,14,0h0a7.847,7.847,0,0,0,1.17-4.189,8.189,8.189,0,1,0-16.34,0Z" transform="translate(-238.38 106.828)"/><path class="ad" d="M432.209,87.878a23.247,23.247,0,0,0,.566,6.491,9.961,9.961,0,0,0,1.132,3.132,1.171,1.171,0,0,0,.415.453,4.872,4.872,0,0,0,1.472.755l1.925.415a20.152,20.152,0,0,0,7.17-.566h.566a16.792,16.792,0,0,0,4.944-2.264,15.4,15.4,0,0,0-1.019-6.227c-2.377-6.378-8.038-10.114-12.6-8.415a7.737,7.737,0,0,0-4.529,5.661,4.571,4.571,0,0,0-.038.566Z" transform="translate(-165.536 95.813)"/><path class="ac" d="M434.117,92.357a10.678,10.678,0,0,0,1.849,3.208l1.925.415a20.153,20.153,0,0,0,7.17-.566,9.472,9.472,0,0,0,0-7.208c-1.585-4.227-5.359-6.717-8.378-5.585S432.532,88.168,434.117,92.357Z" transform="translate(-165.519 98.881)"/><path class="ae" d="M446.721,87.276a1.774,1.774,0,1,0,1.736-1.736A1.736,1.736,0,0,0,446.721,87.276Z" transform="translate(-220.275 107.735)"/><path class="af" d="M465.191,91.686S455.341,84.742,447,86.063,432.51,99.837,432.51,99.837l15.095-.943Z" transform="translate(-181.573 108.722)"/><path class="ae" d="M432.62,83.465a1.245,1.245,0,1,0,1.245-1.245A1.245,1.245,0,0,0,432.62,83.465Z" transform="translate(-151.908 98.527)"/><path class="ag" d="M465.184,87.444a16.642,16.642,0,0,1-6.076,13.774,17.4,17.4,0,0,1-8.34,1.094l-16.642-4.151s-.642-.943-1.623-2.566c0,0,4-.528,11.963-1.849a33.51,33.51,0,0,1,20.718-6.3Z" transform="translate(-181.566 112.964)"/><path class="ah" d="M475.468,95.26a24.457,24.457,0,0,0,0,9.4,92.492,92.492,0,0,1,3.245,16.491s-7.208,10.227-22.642,5.208S430.41,97.486,430.41,97.486Z" transform="translate(-187.171 134.696)"/><path class="ai" d="M447.69,94.384a12.115,12.115,0,0,0-5.849-4.189c-3.774-1.094-4.491,1.547-4.491,1.547Z" transform="translate(-182.337 119.911)"/><path class="aj" d="M480.93,92.81a36.983,36.983,0,0,1-13.7,5.661A101.06,101.06,0,0,1,433.8,96.7l-2.868-.717s-.679.3,1.094,4.3c0,0,10.453,20,24,26.642,11.321,5.51,21.774.415,23.359-2.679s-.906-12.642-.226-19.548a37.509,37.509,0,0,1,2.076-10.227Z" transform="translate(-191.161 127.9)"/><path class="ak" d="M470.189,93.37a28.378,28.378,0,0,1-5.623,9.359s-14.34,4.944-32.756-6.415A123.139,123.139,0,0,0,456,97.408C466.566,96.5,470.189,93.37,470.189,93.37Z" transform="translate(-183.93 129.454)"/><path class="al" d="M462.58,118.7s7.963-1.962,9.283-7.283c0,0-2.264-8-15.095-12.34a49.851,49.851,0,0,0-24.718-1.547S444.466,119.341,462.58,118.7Z" transform="translate(-186.509 138.54)"/><path class="am" d="M495.163,142.707c2.83.566,2.566-1.7,2.566-1.7a24.107,24.107,0,0,0,2.868,5.283,4.944,4.944,0,0,0,4-3.095c.642,3.094,1.547,3.094,1.547,3.094l-1.4,2.264,3.434.642,10.189-5.095a31.845,31.845,0,0,0,1.057-11.321,28.338,28.338,0,0,1,1.17-10.868c3.547-.906,17.85,13.133,17.85,13.133,6.679,7.547.868,30.19.868,30.19l-.868,14.906c5.359-13.774,15.51-44.153,13.057-49.058s-19.774-18-22.227-19.1a16.34,16.34,0,0,0-10.906,0,26.422,26.422,0,0,0-3.547,4.415,16.076,16.076,0,0,0-7.547,4.906,8.378,8.378,0,0,0-7.095,1.774c-6.906-4-7.887-.453-7.887-.453C490.257,130.97,493.238,142.329,495.163,142.707Z" transform="translate(-491.291 178.498)"/><path class="ak" d="M458.612,101.14a14.641,14.641,0,0,1-5.472,2.076,43.586,43.586,0,0,1-21.85-1.66s9.51,6.264,17.4,4.717S458.612,101.14,458.612,101.14Z" transform="translate(-170.39 151.006)"/><path class="an" d="M480.882,92.81a8.038,8.038,0,0,1-3.51.868,64.154,64.154,0,0,0-11.7.264c-10.566,1.359-18.869,4.793-34.794,2.038a91.325,91.325,0,0,0,31.473,3.472C477.221,97.791,480.882,92.81,480.882,92.81Z" transform="translate(-191.113 127.9)"/><path class="ao" d="M453.326,94.756a33.511,33.511,0,0,0-10.566,7.812s1.774-8.114,6.227-10.378A7.284,7.284,0,0,1,453.326,94.756Z" transform="translate(-208.389 126.181)"/><path class="ao" d="M430.347,91.86s4.227,1.245,5.283,3.774a10.149,10.149,0,0,1,0,5.4s0-3.774-3.321-4.83C432.31,96.162,430.008,93.105,430.347,91.86Z" transform="translate(-144.088 125.265)"/><path class="aa" d="M431.447,100.632s-2.151-15.284,6-17.887c7.208-2.264,13.812,8,13.812,8a22.645,22.645,0,0,0,3.359-9.585s-1.811,3.774-4.491,3.774c0,0-8.906-8.076-15.095-5.623C428.239,81.877,431.447,100.632,431.447,100.632Z" transform="translate(-164.132 89.171)"/><path class="ap" d="M464.472,77.79,459,89.111a68.243,68.243,0,0,0,5.472-11.321Z" transform="translate(-280.82 86.239)"/><path class="aq" d="M490.615,124.167a72.494,72.494,0,0,0,4.529-28.114c56.606-2,52.341,22.378,52.341,22.378C558.24,90.694,545.3,62.353,544.73,61.07h0S551.636,84.5,547.6,99.147c0,0-10.491-22.642-23.057-29.284A20.982,20.982,0,0,0,501.6,72.316h0s15.623-3.774,23.7,5.434a64.57,64.57,0,0,1,11.585,20.793s-19.4-7.547-34.228-5.849a100.908,100.908,0,0,0-21.322,4.34s7.547,10,2.3,28.492-27.812,44.341-40,47.7l-.83,2.453a111.212,111.212,0,0,0,47.813-51.511Z" transform="translate(-306.963 39.863)"/><path class="ar" d="M469.324,136.657c-8.491,14.68,3.774,30.907,3.774,30.907-2.679-8.34.679-41.511,25.359-58.342a94.875,94.875,0,0,0,10.642-8.3C493.552,112.92,477.815,121.94,469.324,136.657Z" transform="translate(-353.109 150.395)"/><path class="as" d="M464.759,208.685c-.415-1.774-6.944-28.454,5.359-48.681,12.717-20.906,57.7-40.379,57.7-40.379a52.114,52.114,0,0,1-9.095,27.322,51.776,51.776,0,0,0,13.1-35.85,205.93,205.93,0,0,1,2-29.246,61.36,61.36,0,0,1-19.963,34.945c-18.869,15.85-39.586,21.284-49.058,48.153C455.7,190.684,464.042,207.364,464.759,208.685Z" transform="translate(-356.129 97.5)"/><path class="at" d="M569.971,107.639S562.2,149.9,529.328,166.32s-68.908-10.642-68.908-10.642,35.586,15.51,67.55-2.679S572.2,91.638,572.537,80.77Z" transform="translate(-394.245 94.505)"/><path class="k" d="M529.3,136.642a19.171,19.171,0,0,1-9.547-11.321,21.586,21.586,0,0,1,0-11.321,30.455,30.455,0,0,0-2,13.548,19.773,19.773,0,0,1-4.227,8.227c-2.679,2.226-4.227-1.547-4.227-1.547s-1.321,3.774-4,4c0,0-6.378,10.529-7.962,13.887l7.547,2.755a15.1,15.1,0,0,0,1.585,9.774,14,14,0,0,1,1.547-10.868,64.155,64.155,0,0,1,18.227-6.227S530.2,140.416,529.3,136.642Z" transform="translate(-490.444 186.676)"/><path class="k" d="M509.736,130.036v-4.944A58.114,58.114,0,0,0,494.83,114.45a123.883,123.883,0,0,1,14.906,15.585Z" transform="translate(-461.297 187.924)"/><path class="k" d="M506.639,112.56a54.946,54.946,0,0,0-4.679,25.586s-2.377-7.547,2.944-25.02Z" transform="translate(-483.106 182.681)"/><path class="k" d="M507.07,113.86a48.566,48.566,0,0,0-2.679,21.548A39.435,39.435,0,0,1,505.6,113.86Z" transform="translate(-491.085 186.287)"/><path class="k" d="M509.635,115.245a35.02,35.02,0,0,0-2.566,17.623A31.4,31.4,0,0,1,506.5,114a9.4,9.4,0,0,1,3.132,1.245Z" transform="translate(-500.782 186.676)"/><path class="a" d="M495.262,117.27a28.346,28.346,0,0,1,2.641,9.812,101.482,101.482,0,0,1-3.774,24s2.113-20.831,2.566-24.227a8.415,8.415,0,0,0-2.566-6.3Z" transform="translate(-446.823 195.746)"/><path class="au" d="M468.876,137.65c8.378,8.076,17.661,16.6,27.133,24.68a340.654,340.654,0,0,0,67.927,44.454s9.321-4.906,10.227-23.548-10.227-25.322-10.227-25.322l-2-.943c.491.981,7.283,15.4,2.453,29.246a261.33,261.33,0,0,1-95.513-48.568Z" transform="translate(-427.834 252.274)"/><path class="av" d="M375.06,160.3c8.453,5.359,22.227,37.737,22.227,37.737,11.321-11.321,42.907-57.776,59.1-98.117A354.537,354.537,0,0,0,470.762,55.69c-1.7,4.944-28.982,84.984-67.7,118.533C403.061,173.845,385.74,162.713,375.06,160.3Z" transform="translate(29.656 24.94)"/><path class="aw" d="M427.149,122.761s-3.434,10.453-8.981,13.019c0,0-6.227-23.473-24-36,0,0-.679-11.019,6.642-17.02C400.808,82.76,421.262,91.44,427.149,122.761Z" transform="translate(1.229 100.025)"/><path class="a" d="M387.568,36.35s-.226,18.453,0,24.793c0,0-.868-19.133-.868-23.51Z" transform="translate(68.924 -28.704)"/><path class="a" d="M391.307,37.88s-2.981,12.906-3.547,18.869a171.319,171.319,0,0,1,1.774-18.114Z" transform="translate(61.184 -24.46)"/><path class="a" d="M394.811,39.44A158.756,158.756,0,0,0,389,60.535s.566-16.378,2.906-22.076a2.34,2.34,0,0,1,2.906.981Z" transform="translate(53.001 -23.341)"/><path class="ax" d="M380.387,83.9h0a20.98,20.98,0,0,1,6.491-10.982,46.756,46.756,0,0,1,12.453-6.151,6.114,6.114,0,0,1,5.245-3.774,26,26,0,0,1,10.113,1.925,55.093,55.093,0,0,1-1.811-13.736,15.511,15.511,0,0,0,6.227,3.283,28.3,28.3,0,0,0,10,1.132c-2.868-9.321-14.416-20-17.51-20.227s-8.264-2.226-9.547,0a41.955,41.955,0,0,0-2.717,6.679l-4,5.774a38.083,38.083,0,0,0-4.642,2.679,8.151,8.151,0,0,0-7.547,0,51.738,51.738,0,0,0-2.755,33.4Z" transform="translate(57.161 -34.324)"/><path class="ay" d="M414.881,79.743s-2.227-13.812-4.453-17.133-12.227-6.227-13.774-7.547-3.321-10.227-5.321-12.68-12.68-7.547-16.453-6.868a6.566,6.566,0,0,0-1.547,4.415,228.828,228.828,0,0,1,14.68,19.133,13.811,13.811,0,0,1,2.415,10S392.88,83.744,414.881,79.743Z" transform="translate(92.065 -31.19)"/><path class="az" d="M470.08,226.352a303.639,303.639,0,0,1-17.472,50.3l8.793,5.132c10.491-25.473,19.586-56.606,19.586-56.606,9.887-.264,19.963-12.076,19.963-12.076h0a41.851,41.851,0,0,0,2.226-12.3,10.717,10.717,0,0,0-1.585-5.962s-26.416,25.925-67.927-30.19l-6.906-2.3a24.009,24.009,0,0,0-3.4,5.019l-.415.868h0a12.985,12.985,0,0,0-1.208,4.642C430.909,204.2,470.08,226.352,470.08,226.352Z" transform="translate(-178.915 320.785)"/><path class="a" d="M385.013,44.335l.6,5.585-5.887-7.17Z" transform="translate(97.178 -10.952)"/><path class="ba" d="M419.69,149.2a67.321,67.321,0,0,1,20.227,6.755c24.907,15.095,66.908,23.737,80.607,26.416a228.167,228.167,0,0,1-38.567-13.963c23.171,1.661,45.473-14.076,45.473-14.076a104.71,104.71,0,0,0,18.642,14.038l-13.321-17.623a278.342,278.342,0,0,0,0-42.756l-15.321,1.774c1.811,16.378-8,39.662-8,39.662a108.764,108.764,0,0,0-15.51-24.68L492.6,123.16l-.189,4.264V131.2h-.83c-.189,1.623-.226,2.83-.226,2.83a17.662,17.662,0,0,1,4.227,6.227c1.4,6.491-18.642,12.529-37.322-6.113a9.812,9.812,0,0,0-4.679,8.415S429.087,143.086,419.69,149.2Z" transform="translate(-214.076 170.006)"/><path class="bb" d="M409.969,132l16.265,19.472s7.321,1.925,15.661,13.548,18.34,36.945,17.321,57.587l5.51-7.547a64.152,64.152,0,0,0,7.547,27.133c-5.245-20.454,0-55.587,0-55.587,22.3-10.68,89.815-6.906,89.815-6.906a16.217,16.217,0,0,0,1.321-2.076c.415-.679.83-1.472,1.245-2.227a1.362,1.362,0,0,1,0-.34,121.354,121.354,0,0,0,8.566-25.888,1.591,1.591,0,0,0,0-.264c-6.6,10-44,14.717-46.341,15.095l15.095-5.774c-16.453,1.774-71.135,6.68-86.8,0S411.78,132.981,409.969,132Z" transform="translate(-204.543 236.603)"/><path class="bc" d="M457.881,131.26a71.7,71.7,0,0,1,11.963,24.114c3.283,13.133,2.679,15.812,2.679,15.812s-7.849-20.906-13.208-28.039C459.315,143.147,456.711,134.581,457.881,131.26Z" transform="translate(-283.55 234.55)"/><path class="bd" d="M464.66,147.06a2.436,2.436,0,0,0,.453,1.17Z" transform="translate(-302.821 278.375)"/><path class="be" d="M489.885,164.58c-1.887-4.944-8.793-20.567-21.51-23.85h0a7.284,7.284,0,0,0-3.585,4.264S483.772,149.561,489.885,164.58Z" transform="translate(-328.084 260.817)"/><path class="bf" d="M396.62,209.322c14-18.869,47.172-62.191,64.493-79.248,0,0,11.661-3.208,14.642-7.208a27.466,27.466,0,0,0,1.547-6.113c-.377,1.585-1.811,4.34-7.359,5.774,0,0-12-24.227-24.907-32.416.679,1.019,7.321,11.321,3.962,35.85Z" transform="translate(-58.246 120.411)"/><path class="bg" d="M468.575,117.053l1.057-2.793s11.51,6.906,12,16.378-15.51,9.283-28.831,6.3a51.1,51.1,0,0,1-22-11.321,8.831,8.831,0,0,1,4.68-8.566s14.3,12.076,27.171,11.736S473.216,121.279,468.575,117.053Z" transform="translate(-191.448 187.397)"/><path class="bh" d="M440.83,137.12a238.131,238.131,0,0,1,28.529,8.6l2,40S465.171,147.988,440.83,137.12Z" transform="translate(-219.139 250.804)"/><path class="bi" d="M421.709,164.367c10.982,16.869,35.209,39.813,51.625,43.171,17.359,3.547,24.944-4.906,24.944-4.906a10.718,10.718,0,0,0-1.585-5.962s-28.039,27.435-71.7-35.02a14.076,14.076,0,0,0-3.283,2.717Z" transform="translate(-173.904 318.844)"/><path class="bj" d="M430.957,179.216l-.717-.226Z" transform="translate(-138.773 366.94)"/><path class="bk" d="M460.254,281.7c-2.433-19.408-2.87-29.284-2.87-29.284,2-17.85,32.945-38.907,32.945-38.907l-10.3-15.774,11.736,7.547L529.5,177.361a113.854,113.854,0,0,0,52.115,39.888c-22.831-8.113-48.794-52.04-48.794-52.04S505.5,173.588,473.5,203.551s-43.436,62.342-43.058,78.154Z" transform="translate(-290.148 328.718)"/><path class="bl" d="M430.51,191.31c1.321-4.038,2.491-8.076,3.434-12C433.378,181.348,432.1,185.688,430.51,191.31Z" transform="translate(-142.779 367.828)"/><path class="bm" d="M428.82,173.78l10.3,15.925c23.586,20.189,45.161,68.175,45.161,68.175,4.906,0,30.818-.016,39.632-.016,5.849-16.3,10.833-43.894,12.494-52.913-6.415,32.567-15.095,45.549-15.095,45.549l-8.076-4.453a310.911,310.911,0,0,0,13.17-38.454c-5.762,17.3-13.239,33.446-21.174,49.868l-13.7-3s-6.529-6.453-21.208-31.435S428.82,173.78,428.82,173.78Z" transform="translate(-238.866 352.489)"/><path class="bn" d="M459.915,207.505A85.676,85.676,0,0,0,440.36,192a152.393,152.393,0,0,1,22.152,11.321,34.323,34.323,0,0,1,4.79,4.184Z" transform="translate(-224.481 402.88)"/><path class="bo" d="M424.645,107.858a96.158,96.158,0,0,1,7.925,16.3c.491,1.245.906,2.528,1.283,3.774a83.869,83.869,0,0,1,2.717,11.019c.226,1.321.415,2.679.6,4.076.3,2.076.491,4.151.679,6.34.264,3.547.415,7.283.491,11.321h0l1.019.6a84.18,84.18,0,0,0,7.812,4.038q1.925.83,3.774,1.585l2.528.906,2.528.83a99.135,99.135,0,0,0,43.4,2.377h.679a77.37,77.37,0,0,0,9.095-2c21.774-12.906,34.681-58.681,28.907-72.455a23.925,23.925,0,0,0-9.17-11.095,65.737,65.737,0,0,1-24,3.774h0a23.25,23.25,0,0,1-2.83-.415l-2.113-.377c-11.963-2-11.585,1.849-19.7,7.547C465.779,105.707,424.721,107.858,424.645,107.858Z" transform="translate(-226.163 107.569)"/><g transform="translate(198.482 192.86)"><path class="bp" d="M427.46,108a166.042,166.042,0,0,0,21.208-.906,134.31,134.31,0,0,0,21.057-3.774,66.532,66.532,0,0,0,10.264-3.774,38.412,38.412,0,0,0,9.095-6.227,11.321,11.321,0,0,1,8.189-3.774c3.359,0,6.529.641,10.378.981h0a44.871,44.871,0,0,0,12.34-1.321,69.592,69.592,0,0,0,11.661-3.774,65.739,65.739,0,0,1-24,3.774h0a23.239,23.239,0,0,1-2.83-.415l-2.113-.377c-11.963-2-11.585,1.849-19.7,7.547C468.594,105.846,427.536,108,427.46,108Z" transform="translate(-427.46 -85.43)"/></g><path class="bq" d="M462.12,110.816s-8.906-3.245-10.68-6.076V103.42a33.963,33.963,0,0,0,10.453,5.4Z" transform="translate(-249.939 157.33)"/><path class="br" d="M434.388,84.28a22.642,22.642,0,0,1,12.906,15.548c2.34,11.321,7.547,33.435-22.869,70.871,0,0,14.038-8.3,24.907-39.058C449.369,131.64,464.69,94.545,434.388,84.28Z" transform="translate(-139.109 104.241)"/><path class="bq" d="M468.186,91.41a50.228,50.228,0,0,0-13.246,23.774l1.057.755c2.264-11.774,12.68-23.737,12.68-23.737Z" transform="translate(-269.704 124.017)"/><path class="bs" d="M435.08,102.41c.264,3.547.415,7.283.491,11.321l1.019.642a84.171,84.171,0,0,0,7.812,4.038q1.925.83,3.774,1.585l2.528.906,2.528.83a94.042,94.042,0,0,0,43.4,2.377h.679s-32.454,2.981-53.889-13.774a77.629,77.629,0,0,1-8.34-7.925Z" transform="translate(-223.39 154.528)"/><g class="bt" transform="translate(273.844 196.03)"><path class="bu" d="M432.55,86.27a41.207,41.207,0,0,1,5.849,2.491,29.31,29.31,0,0,1,3.774,1.887c-1.094-.943-2.226-1.849-3.434-2.717l-1.358-.868h0a23.242,23.242,0,0,1-2.83-.415Z" transform="translate(-432.55 -86.27)"/></g><path class="bv" d="M453.237,87.444a16.642,16.642,0,0,1-6.076,13.774,17.4,17.4,0,0,1-8.34,1.094s-6.679-5.925-6.3-8.566a33.511,33.511,0,0,1,20.718-6.3Z" transform="translate(-169.619 112.964)"/><g class="bw" transform="translate(210.407 246.523)"><path class="bx" d="M441.98,99.65c.226,1.321.415,2.679.6,4.076a56.253,56.253,0,0,0,6.491,1.623,78.387,78.387,0,0,0,10.227,1.094,82.714,82.714,0,0,0,10.151-.377,96.876,96.876,0,0,0,10-1.623,89.7,89.7,0,0,1-10.038.679,69.588,69.588,0,0,1-19.661-2.528,43.512,43.512,0,0,1-7.774-2.944Z" transform="translate(-441.98 -99.65)"/></g><g class="bw" transform="translate(206.294 231.73)"><path class="by" d="M443.77,95.73c.491,1.245.906,2.528,1.283,3.774a129.219,129.219,0,0,0,15.774-.226A69.134,69.134,0,0,0,478.6,95.73a67.928,67.928,0,0,1-17.85,1.66,126.873,126.873,0,0,1-16.982-1.66Z" transform="translate(-443.77 -95.73)"/></g></g></svg>