<svg xmlns="http://www.w3.org/2000/svg" xmlns:xlink="http://www.w3.org/1999/xlink" width="430" height="627" viewBox="0 0 430 627"><defs><style>.a,.bx{fill:#fff;}.a{stroke:#707070;}.b{clip-path:url(#a);}.aa,.ab,.ac,.ad,.ae,.af,.ag,.ah,.ai,.aj,.ak,.al,.am,.an,.ao,.ap,.aq,.ar,.as,.at,.au,.av,.aw,.ax,.ay,.az,.ba,.bb,.bc,.bd,.be,.bf,.bg,.bh,.bi,.bj,.bk,.bl,.bm,.bn,.bo,.bp,.bq,.br,.bs,.bt,.bu,.bv,.bw,.bx,.bz,.c,.ca,.cb,.cd,.d,.e,.f,.g,.h,.i,.j,.k,.l,.m,.n,.o,.p,.q,.r,.s,.t,.u,.v,.w,.x,.y,.z{fill-rule:evenodd;}.c{fill:url(#b);}.ab,.bm,.bv,.d,.g,.h,.i,.j,.k{opacity:0.5;}.d{fill:url(#c);}.e{fill:url(#d);}.f{fill:url(#e);}.aa,.ab,.ae,.bc,.bd,.bg,.bh,.bi,.bj,.bk,.bm,.bp,.bq,.bt,.bv,.cc,.cd,.g,.h,.i,.j,.k,.n,.q,.u{mix-blend-mode:multiply;}.aa,.ab,.ae,.bc,.bd,.bg,.bh,.bi,.bj,.bk,.bm,.bp,.bq,.bt,.bv,.bz,.cc,.cd,.g,.h,.i,.j,.k,.n,.q,.u{isolation:isolate;}.g{fill:url(#f);}.h{fill:url(#g);}.i{fill:url(#h);}.j{fill:url(#i);}.k{fill:url(#j);}.l{fill:url(#k);}.m{fill:url(#l);}.n{opacity:0.2;fill:url(#m);}.o{fill:url(#n);}.p{fill:url(#o);}.bc,.bq,.q{opacity:0.71;}.q{fill:url(#p);}.r{fill:url(#q);}.s{fill:url(#r);}.t{fill:url(#s);}.bg,.bh,.u{opacity:0.3;}.u{fill:url(#t);}.v{fill:url(#u);}.w{fill:url(#v);}.x{fill:url(#w);}.y{fill:url(#x);}.z{fill:url(#y);}.aa,.bi,.bj,.bk,.bl,.bp{opacity:0.59;}.aa{fill:url(#z);}.ab{fill:url(#aa);}.ac{fill:url(#ab);}.ad{fill:url(#ac);}.ae{opacity:0.6;fill:url(#ad);}.af{fill:url(#ae);}.ag{fill:url(#af);}.ah{fill:url(#ag);}.ai{fill:url(#ah);}.aj{fill:url(#ai);}.ak{fill:url(#aj);}.al{fill:url(#ak);}.am{fill:url(#al);}.an{fill:url(#am);}.ao{fill:url(#an);}.ap{fill:url(#ao);}.aq{fill:#fff4c9;}.ar{fill:url(#ap);}.as{fill:#381e22;}.at{fill:url(#aq);}.au{fill:url(#ar);}.av{fill:url(#as);}.aw{fill:url(#at);}.ax{fill:#b85652;}.ay{fill:#ff9d8a;}.az{fill:#dd7a68;}.ba{fill:url(#au);}.bb{fill:url(#av);}.bc{fill:url(#aw);}.bd{fill:url(#ax);}.be{fill:url(#ay);}.bf{fill:#dd6668;}.bg{fill:url(#az);}.bh{fill:url(#ba);}.bi{fill:url(#bb);}.bj{fill:url(#bc);}.bk{fill:url(#bd);}.bl{fill:url(#be);}.bm{fill:url(#bf);}.bn{fill:url(#bg);}.bo{fill:url(#bh);}.bp{fill:url(#bi);}.bq{fill:url(#bj);}.br{fill:url(#bk);}.bs{fill:url(#bl);}.bt{fill:url(#bm);}.bu{fill:url(#bn);}.bv{fill:url(#bo);}.bw{fill:url(#bp);}.by{fill:url(#bq);}.bz{mix-blend-mode:soft-light;fill:url(#br);}.ca,.cd{fill:#85cbd6;}.cb{fill:url(#bs);}.cc{fill:url(#bt);}</style><clipPath id="a"><rect class="a" width="430" height="627" transform="translate(1111 1915)"/></clipPath><linearGradient id="b" x1="0.5" y1="1" x2="0.5" y2="0.001" gradientUnits="objectBoundingBox"><stop offset="0" stop-color="#574577"/><stop offset="1" stop-color="#654d89"/></linearGradient><linearGradient id="c" x1="1" y1="0.5" x2="0" y2="0.5" gradientUnits="objectBoundingBox"><stop offset="0.01" stop-color="#d195ab"/><stop offset="0.99" stop-color="#985e77"/></linearGradient><linearGradient id="d" x1="0.5" y1="1" x2="0.5" y2="0.001" gradientUnits="objectBoundingBox"><stop offset="0.01" stop-color="#5b1833"/><stop offset="0.99" stop-color="#592227"/></linearGradient><linearGradient id="e" x1="1" y1="0.5" x2="0.001" y2="0.5" gradientUnits="objectBoundingBox"><stop offset="0.01" stop-color="#54314d"/><stop offset="1" stop-color="#18044d"/></linearGradient><linearGradient id="f" x1="0.499" y1="1" x2="0.499" gradientUnits="objectBoundingBox"><stop offset="0.01" stop-color="#d195ab"/><stop offset="0.99" stop-color="#985e40"/></linearGradient><linearGradient id="g" x1="1" y1="0.5" x2="0" y2="0.5" xlink:href="#f"/><linearGradient id="h" x1="1.001" y1="0.499" x2="0.001" y2="0.499" gradientUnits="objectBoundingBox"><stop offset="0" stop-color="#cc403b"/><stop offset="1"/></linearGradient><linearGradient id="i" x1="1.002" y1="0.5" x2="0" y2="0.5" xlink:href="#h"/><linearGradient id="j" x1="0.999" y1="0.497" x2="-0.001" y2="0.497" gradientUnits="objectBoundingBox"><stop offset="0.01" stop-color="#985e77"/><stop offset="0.99" stop-color="#d195ab"/></linearGradient><linearGradient id="k" x1="1" y1="0.5" x2="0" y2="0.5" gradientUnits="objectBoundingBox"><stop offset="0" stop-color="#754f68"/><stop offset="1" stop-color="#18044d"/></linearGradient><linearGradient id="l" x1="0.5" y1="1.007" x2="0.5" y2="0.008" gradientUnits="objectBoundingBox"><stop offset="0.01" stop-color="#9c4510"/><stop offset="1" stop-color="#964011"/></linearGradient><linearGradient id="m" x1="0.5" y1="1" x2="0.5" gradientUnits="objectBoundingBox"><stop offset="0" stop-color="#e7813b"/><stop offset="1"/></linearGradient><linearGradient id="n" x1="0.476" y1="1.001" x2="0.514" y2="0.005" gradientUnits="objectBoundingBox"><stop offset="0" stop-color="#ff7f66"/><stop offset="1" stop-color="#ec887e"/></linearGradient><linearGradient id="o" x1="0.499" y1="1" x2="0.499" gradientUnits="objectBoundingBox"><stop offset="0" stop-color="#ffa486"/><stop offset="1" stop-color="#ffb886"/></linearGradient><linearGradient id="p" x1="0.5" y1="1" x2="0.5" y2="0" xlink:href="#f"/><linearGradient id="q" x1="0.499" y1="0.999" x2="0.499" y2="-0.001" xlink:href="#b"/><linearGradient id="r" x1="0.5" y1="1" x2="0.5" y2="-0.001" gradientUnits="objectBoundingBox"><stop offset="0" stop-color="#776890"/><stop offset="1" stop-color="#907ea9"/></linearGradient><linearGradient id="s" x1="0.5" y1="1" x2="0.5" gradientUnits="objectBoundingBox"><stop offset="0" stop-color="#393675"/><stop offset="1" stop-color="#104074"/></linearGradient><linearGradient id="t" x1="0.5" y1="1" x2="0.5" y2="0" xlink:href="#j"/><linearGradient id="u" x1="0.5" y1="1" x2="0.5" gradientUnits="objectBoundingBox"><stop offset="0.01" stop-color="#592227"/><stop offset="1" stop-color="#3e1827"/></linearGradient><linearGradient id="v" x1="0.5" y1="1.002" x2="0.5" y2="0" xlink:href="#s"/><linearGradient id="w" x1="0.501" y1="1" x2="0.501" gradientUnits="objectBoundingBox"><stop offset="0" stop-color="#776890"/><stop offset="1" stop-color="#a697ba"/></linearGradient><linearGradient id="x" x1="0.5" y1="1" x2="0.5" gradientUnits="objectBoundingBox"><stop offset="0" stop-color="#776890"/><stop offset="1" stop-color="#9d8db3"/></linearGradient><linearGradient id="y" x1="0.475" y1="0.999" x2="0.515" y2="-0.001" xlink:href="#n"/><linearGradient id="z" x1="0.5" y1="1" x2="0.5" y2="0" xlink:href="#j"/><linearGradient id="aa" x1="0.5" y1="1" x2="0.5" y2="0" xlink:href="#j"/><linearGradient id="ab" x1="0.503" y1="1" x2="0.503" y2="-0.001" xlink:href="#o"/><linearGradient id="ac" x1="0.501" y1="1" x2="0.501" y2="-0.001" gradientUnits="objectBoundingBox"><stop offset="0" stop-color="#b39893"/><stop offset="1" stop-color="#ffae86"/></linearGradient><linearGradient id="ad" x1="0.5" y1="1" x2="0.5" gradientUnits="objectBoundingBox"><stop offset="0" stop-color="#ffeadb"/><stop offset="0.99" stop-color="#b060f4"/></linearGradient><linearGradient id="ae" x1="0.501" y1="1.002" x2="0.501" gradientUnits="objectBoundingBox"><stop offset="0.01" stop-color="#882231"/><stop offset="1" stop-color="#5a2031"/></linearGradient><linearGradient id="af" x1="0.497" y1="0.999" x2="0.497" y2="-0.001" xlink:href="#s"/><linearGradient id="ag" x1="0.5" y1="1" x2="0.5" y2="-0.001" gradientUnits="objectBoundingBox"><stop offset="0" stop-color="#928bae"/><stop offset="1" stop-color="#c5b5d6"/></linearGradient><linearGradient id="ah" x1="0.5" y1="0.999" x2="0.5" y2="0" xlink:href="#ag"/><linearGradient id="ai" x1="0.5" y1="1" x2="0.5" gradientUnits="objectBoundingBox"><stop offset="0" stop-color="#928bae"/><stop offset="1" stop-color="#b9a6cd"/></linearGradient><linearGradient id="aj" x1="0.5" y1="1" x2="0.5" y2="0" xlink:href="#o"/><linearGradient id="ak" x1="1.001" y1="0.5" x2="0.003" y2="0.5" gradientUnits="objectBoundingBox"><stop offset="0" stop-color="#562400"/><stop offset="1" stop-color="#e24a3b"/></linearGradient><linearGradient id="al" x1="0.5" y1="1" x2="0.5" y2="0" xlink:href="#l"/><linearGradient id="am" x1="0.5" y1="1" x2="0.5" y2="0" xlink:href="#l"/><linearGradient id="an" x1="0.5" y1="1" x2="0.5" gradientUnits="objectBoundingBox"><stop offset="0.02" stop-color="#8d3d09"/><stop offset="1" stop-color="#802616"/></linearGradient><linearGradient id="ao" x1="0.5" y1="1" x2="0.5" gradientUnits="objectBoundingBox"><stop offset="0.01" stop-color="#882231"/><stop offset="1" stop-color="#402731"/></linearGradient><linearGradient id="ap" x1="0.503" y1="1.003" x2="0.503" y2="-0.006" gradientUnits="objectBoundingBox"><stop offset="0" stop-color="#595e27"/><stop offset="0.98" stop-color="#814227"/></linearGradient><linearGradient id="aq" x1="0.502" y1="1" x2="0.502" y2="-0.01" xlink:href="#ap"/><linearGradient id="ar" x1="1" y1="0.501" x2="0.001" y2="0.501" gradientUnits="objectBoundingBox"><stop offset="0" stop-color="#592c27"/><stop offset="0.98" stop-color="#814227"/></linearGradient><linearGradient id="as" x1="1" y1="0.501" x2="0" y2="0.501" xlink:href="#ar"/><linearGradient id="at" x1="-225.52" y1="-127.696" x2="-225.52" y2="-128.965" gradientUnits="objectBoundingBox"><stop offset="0" stop-color="#ef686a"/><stop offset="1" stop-color="#ec887e"/></linearGradient><linearGradient id="au" x1="0.498" y1="1.003" x2="0.498" y2="0" xlink:href="#ao"/><linearGradient id="av" x1="1" y1="0.498" x2="0" y2="0.498" gradientUnits="objectBoundingBox"><stop offset="0" stop-color="#ec887e"/><stop offset="1" stop-color="#ef686a"/></linearGradient><linearGradient id="aw" x1="0.501" y1="1" x2="0.501" y2="0" xlink:href="#f"/><linearGradient id="ax" x1="0.501" y1="1" x2="0.501" y2="-0.002" gradientUnits="objectBoundingBox"><stop offset="0.01" stop-color="#d1c279"/><stop offset="1" stop-color="#c97ca1"/></linearGradient><linearGradient id="ay" x1="0.075" y1="6.774" x2="0.091" y2="5.798" xlink:href="#n"/><linearGradient id="az" x1="0.498" y1="1" x2="0.498" gradientUnits="objectBoundingBox"><stop offset="0.01" stop-color="#f3e3e9"/><stop offset="0.99" stop-color="#985e40"/></linearGradient><linearGradient id="ba" x1="0.5" y1="1" x2="0.5" y2="0" xlink:href="#az"/><linearGradient id="bb" x1="0.497" y1="1" x2="0.497" y2="0" xlink:href="#f"/><linearGradient id="bc" x1="0.499" y1="1" x2="0.499" y2="0" xlink:href="#f"/><linearGradient id="bd" x1="0.498" y1="0.999" x2="0.498" y2="-0.002" xlink:href="#f"/><linearGradient id="be" x1="0.5" y1="1" x2="0.5" y2="0" xlink:href="#j"/><linearGradient id="bf" x1="0.5" y1="1" x2="0.5" y2="0" xlink:href="#j"/><linearGradient id="bg" x1="0.51" y1="1" x2="0.51" y2="0" xlink:href="#d"/><linearGradient id="bh" x1="-66.382" y1="-110.132" x2="-66.382" y2="-110.999" xlink:href="#d"/><linearGradient id="bi" x1="0.5" y1="1" x2="0.5" y2="0" xlink:href="#j"/><linearGradient id="bj" x1="0.503" y1="1" x2="0.503" y2="-0.001" xlink:href="#f"/><linearGradient id="bk" x1="0.501" y1="1.018" x2="0.506" y2="0.013" xlink:href="#n"/><linearGradient id="bl" x1="0.495" y1="0.993" x2="0.507" y2="-0.005" xlink:href="#n"/><linearGradient id="bm" x1="0.502" y1="1.003" x2="0.529" y2="0.001" gradientUnits="objectBoundingBox"><stop offset="0" stop-color="#802616"/><stop offset="0.98" stop-color="#8d3d09"/></linearGradient><linearGradient id="bn" x1="0.489" y1="1.003" x2="0.51" y2="-0.004" xlink:href="#u"/><linearGradient id="bo" x1="0.5" y1="0.996" x2="0.5" y2="-0.003" xlink:href="#j"/><linearGradient id="bp" x1="0.999" y1="0.498" x2="0" y2="0.498" gradientUnits="objectBoundingBox"><stop offset="0" stop-color="#924a3b"/><stop offset="1" stop-color="#562400"/></linearGradient><linearGradient id="bq" y1="0.497" x2="1.002" y2="0.497" gradientUnits="objectBoundingBox"><stop offset="0" stop-color="#baf1ff"/><stop offset="1" stop-color="#7ac1e2"/></linearGradient><linearGradient id="br" x1="1.001" y1="0.499" x2="0.001" y2="0.499" gradientUnits="objectBoundingBox"><stop offset="0" stop-color="#4755b5"/><stop offset="1" stop-color="#88bfe2"/></linearGradient><linearGradient id="bs" x1="0.999" y1="0.511" x2="0" y2="0.511" gradientUnits="objectBoundingBox"><stop offset="0" stop-color="#4755b5"/><stop offset="1" stop-color="#cbd9e2"/></linearGradient><linearGradient id="bt" x1="0.503" y1="1.018" x2="0.503" y2="-0.001" gradientUnits="objectBoundingBox"><stop offset="0" stop-color="#ffeadb"/><stop offset="1" stop-color="#60c5f4"/></linearGradient></defs><g transform="translate(-1111 -1915)"><g class="b"><g transform="translate(1169.016 1915.39)"><path class="c" d="M263.815,361.264a184.791,184.791,0,0,1-85.249,33.649l-13.115-16.825-2.459,20.826s-51.477-4-81.642-27.978l36.919-155.674,47.182-12.6S258.11,327.678,263.815,361.264Z" transform="translate(11.768 273.375)"/><path class="d" d="M170.493,360.372,101.54,277.415l27.739-59.705,44.362,71.646,2.426,69.787Z" transform="translate(33.317 305.743)"/><path class="e" d="M95.517,632.591c1.41,6.648-6.23,18.652-5.541,22.622s6.951,12,6.951,12v-7.341c10.218-14.667,28.762-21.8,46.69-17.959l8.2,8.538s6.131-7.215,6.131-13.894a14.566,14.566,0,0,0-2.656-7.183c-2.754-4.569-6.853-9.641-7.771-16.132-1.344-9.988-2.754-119.253-2.754-138.629s3.279-37.3,4.853-54.632c1.049-13.075.426-67.361,1.771-100.16a155.2,155.2,0,0,1,2.066-23c3.935-16.068,7.246-28.072,7.246-28.072a420.114,420.114,0,0,1,32.591,75.3c14.558,44.613,18.722,98.584,13.869,107.123-14.886,26.56-36.067,93.921-34.657,101.262s7.607,17.99,7.607,21.3a5.423,5.423,0,0,1-1.377,2.836h0c-2.82,3.686-8.951,8.727-8.951,11.783a29.134,29.134,0,0,0,.459,4.348c.59,3.718,1.607,7.656,1.607,7.656a171.788,171.788,0,0,0-11.082,52.616l4.853,3.34A85.737,85.737,0,0,1,219,631.11l4.525,4.033a28.493,28.493,0,0,0,4.525-12,14.526,14.526,0,0,0-4.525-11.342s21.837-109.265,26-127.917,9.836-29.333,10.394-38.627c2.885-38.753-2.984-77.916-7.017-98.931-1.9-9.8-3.279-15.753-3.279-15.753-4.558-22.055-85.249-127.948-85.249-127.948L128.3,223.414l-11.246,6.522s-15.968,31.948-20.1,58.7c-1.934,12.225-1.639,37.808-.787,63.769,1.016,30.94,2.885,62.793,2.885,74.7,0,22.055-5.574,54-8.361,83.3s4.853,81.917,5.574,86.612S85.156,608.993,84.5,613.655a4.346,4.346,0,0,0,.328,2.174C86.6,620.682,94.369,626.857,95.517,632.591Z" transform="translate(4.651 273.289)"/><path class="f" d="M126.99,338.66a126.1,126.1,0,0,0,37.444,29.648,318.07,318.07,0,0,0,52,20.511,19.072,19.072,0,0,1,4.164,10.964H117.121s3.279-9.452-8.328-11.469-10.918,11.469-10.918,11.469H68.66l4.853-35.792A77.839,77.839,0,0,1,126.99,338.66Z" transform="translate(96.592 565.865)"/><path class="g" d="M173.938,600.44s-1.016-3.938-1.607-7.656c8.459,3.781,25.116,10.429,35.247,8.979,0,0-27.312,5.986-32.788,19.471s-2.459,18.494-2.459,18.494,31.017-31.822,57.9-16.635a28.492,28.492,0,0,1-4.525,12l-4.525-4.033a85.739,85.739,0,0,0-53.379,25.205l-4.853-3.34a171.776,171.776,0,0,1,10.984-52.49ZM98.525,597.1c-.721-4.663-8.328-57.311-5.574-86.612s8.361-61.312,8.361-83.3c0-11.91-1.869-43.763-2.885-74.7l32.132-128.988L166.626,202.7s80.724,105.862,85.249,127.948c0,0,1.475,5.829,3.279,15.753h0L214,330.649s3.279,62.73,5.738,88.219,7.41,34.468,6.066,38.47S192.3,503.3,187.315,524.792s8,35.981,9.541,40.454-15.771,11.311-15.771,11.311a5.422,5.422,0,0,0,1.377-2.835c0-3.308-6.23-13.958-7.607-21.3s19.673-74.7,34.657-101.262c4.853-8.664.689-62.635-13.869-107.122a420.115,420.115,0,0,0-32.591-75.3s-3.279,12-7.246,28.073a155.2,155.2,0,0,0-2.066,23C140.986,352.388,118.723,412.377,110,454.438,97.542,514.931,96.165,575.361,98.656,584.371a24.191,24.191,0,0,0,11.869,13.485s-21.935,8-23.706,15.974c.525-4.758,12.263-12.067,11.574-16.73ZM97.8,632.419c-1.148-5.734-8.918-11.909-10.722-16.509,3.279,5.1,24.165,2.363,26.493,6.837,2.623,5.009-15.378,16.982-14.984,23.5,0,0,52.035-25.205,59.019-17.045a14.566,14.566,0,0,1,2.656,7.183c0,6.68-6.131,13.894-6.131,13.894l-7.049-10.555S117.28,634.4,99.247,659.7v7.341s-6.263-8-6.951-12,6.787-15.974,5.377-22.622Z" transform="translate(2.494 273.461)"/><path class="h" d="M106.987,282.06a29.326,29.326,0,0,1-21.837,0l16.2,16.447a45.993,45.993,0,0,0,5.639-16.446Z" transform="translate(156.137 444.138)"/><path class="i" d="M174.805,343.548S155.952,341.217,117,362.043c0,0,17.935-19.5,31.477-24.827s22.689,0,22.689,0Z" transform="translate(-16.111 557.669)"/><path class="j" d="M152.3,345.8s-25.673-15.753-57.9,16.635c0,0,14.033-21.2,29.083-27.726,15.673-6.774,24.3-.252,24.3-.252A11.553,11.553,0,0,1,152.3,345.8Z" transform="translate(80.335 550.753)"/><path class="k" d="M150.443,348.99s-23.247,9.988-27.05,24.953v7.625a213.955,213.955,0,0,0,22.525,8.381c12.132,3.655,29.509,10.712,29.509,10.712l-88.036-.441s-1.672-28.608.754-36.264c0,0,15.246-23.661,53.379-25.205Z" transform="translate(82.188 566.059)"/><path class="l" d="M147.028,341.416s1.771,11.815,27.771,23.977a330.54,330.54,0,0,0,34.985,15.06,22.929,22.929,0,0,1,6.754,13.485s-51.838,1.953-93.446,0a47.345,47.345,0,0,0-15.935-7.562c-7.8-1.512-6.558,0-6.558,0s-3.279-15.5-1.377-24.985C99.19,361.423,104.043,340.912,147.028,341.416Z" transform="translate(2.387 571.774)"/><path class="m" d="M215.29,365.822s-86.331,1.8-94.135-1.89-11.443-7.656-22.525-9.452l2.426,11.185s28.591,1.292,38.657.914S215.29,365.822,215.29,365.822Z" transform="translate(3.636 599.889)"/><path class="n" d="M190.5,374.577s-32.067,2.395-51.576,0-38.231-22.37-38.231-22.37,16.886-12.855,34.1-6.112A183.4,183.4,0,0,0,190.5,374.577Z" transform="translate(21.675 577.65)"/><path class="o" d="M75.84,291.094s-6.164-.5-6.918-5.01,11.673-18.62,11.673-18.62-7.869-21.488-11.738-26.97,2.656-22.055,2.656-22.055l16.656,8.444,7.771,27.978S79.676,288.353,75.84,291.094Z" transform="translate(224.63 307.313)"/><path class="p" d="M98.495,205.342s9.836,31.979,11.443,38.974,6.754,38.47,6.23,46.472-23.411,36.957-24.952,33.964-3.639-9.988,0-15.218,11.246-15.753,11.476-22.5-6.164-27.726-13.509-33.24a52.016,52.016,0,0,0-1.344,17.234,28.623,28.623,0,0,1,6.558,12,36.578,36.578,0,0,1-4.426,19.975c-1.574,1.764-6.23.756-7.8-1.733s-1.312-19.5-3.9-24.733-10.394-16.73-11.968-21.74S73.543,223.3,73.543,223.3,90.166,205.09,98.495,205.342Z" transform="translate(209.352 279.137)"/><path class="q" d="M108.382,232.221s-21.509-12.6-40.592-13.831l1.672-5.64,34.559,2.647A118.365,118.365,0,0,1,108.382,232.221Z" transform="translate(211.662 295.076)"/><path class="r" d="M115.3,218.668s-25.05,16.762-49.182,12.76c0,0,25.8-28.356,49.182-25.993l5.476,2.678Z" transform="translate(204.742 279.044)"/><path class="s" d="M66.12,226.183S79.629,266.165,83.1,281.162s1.377,45.653,7.279,64.62,19.05,58.287,19.05,58.287l-.689,8.349c16.722-12.949,48.887-25.993,50.985-23.661s-1.344,10.051-1.672,10.9c.59-.851,5.476-7.782,5.476-10.555s-12.722-13.2-12.722-13.2-13.509-43.29-24.1-85.068c-.262-1.1-.525-2.111-.721-3.151a9.941,9.941,0,0,0-.459-1.7c-.164-.536-.393-1.638-.525-2.205s-.262-.914-.3-1.071h0c-3.574-14.808-6.558-29.018-8.525-40.644-7.279-46.283-10.394-97.923-11.443-105.61s-9.836-15.312-9.836-15.312l-26.23,54.632L66.546,220.2Z" transform="translate(161.986 98.053)"/><path class="t" d="M103.041,206.68l8.361,21.771s-26.427,3.434-43.772-4.285C67.565,224.166,89.729,208.224,103.041,206.68Z" transform="translate(209.166 282.021)"/><path class="u" d="M70.04,195.149s13.509,39.982,16.984,54.979,1.377,45.653,7.279,64.62,19.05,58.287,19.05,58.287C126.468,347.83,154.6,344.68,154.6,344.68s-13.509-43.29-24.1-85.068c2.82,11.846,7.181,32.515,3.705,33.334-4.885,1.166-42.165-34.468-46.33-64.431S82.3,135.57,82.3,135.57l-11.968,53.4Z" transform="translate(158.066 129.087)"/><path class="v" d="M153.8,236.238l-5.213,29.994,27.575,5.7L179.8,230Z" transform="translate(-124.688 332.175)"/><path class="w" d="M194.423,222.812v6.49a97.207,97.207,0,0,1-44.723,0l4.689-16.982Z" transform="translate(-142.946 294.151)"/><path class="x" d="M111.417,556.513c-.721,3.781,8.787,37.808,34.46,49.749,0,0,17.181-51.293,31.477-102.9,9.082-32.83,17.017-65.786,18.624-85.856L297.161,552.985l2.2,2.962,2.689,3.718h0s-11.082-69.315-25.64-128.579c-2.1-8.475-4.328-16.762-6.558-24.7h0c-4.459-15.753-9.148-30.026-13.509-42.282C247.553,338.9,240.4,322.577,240.4,322.577s6.263-4.694,4.853-9.011a5.12,5.12,0,0,0-1.836-2.741h0a5.373,5.373,0,0,0-3.672-.914v-.189L256.733,238.3c.59-2.3,1.213-4.632,1.8-6.931.918-3.623,1.836-7.247,2.656-10.681.459-1.985.951-3.938,1.377-5.8s.918-3.97,1.312-5.734a7.9,7.9,0,0,1,.3-1.323c.393-1.607.721-3.151,1.016-4.474a1.594,1.594,0,0,1,.262-1.071c.623-2.836,1.082-4.947,1.279-6.018v-.819A183.442,183.442,0,0,1,283.128,144s-37.608-27.505-71.675-32.578-63.543,10.618-63.543,10.618-9.082,1.638-20,3.686c-9.345,1.733-20.033,3.781-27.476,5.325-3.082.63-5.607,1.229-7.279,1.638a14.949,14.949,0,0,0-9.574,7.688A20.785,20.785,0,0,0,81.35,146.9l33.509,104c9.017,28.356,14.558,40.959,15.935,66.636s0,96.158,0,96.158l-6.918,11.342,6.263,10.177-11.8,114.4S112.105,552.859,111.417,556.513Z" transform="translate(-26.463 74.976)"/><path class="y" d="M81.31,146.863s.328.945.885,2.741,1.771,5.577,3.279,9.83c7.279,22.811,22.525,70.48,29.247,91.558,9.017,28.356,14.525,40.959,15.968,66.637s0,96.158,0,96.158L123.738,425.1,130,435.306l-11.836,114.4s-6.2,3.151-6.918,6.9,8.82,37.808,34.493,49.717c0,0,17.181-51.23,31.477-102.9,9.082-32.767,17.017-65.754,18.656-85.824L297.055,553.078c.82,1.134,1.541,2.142,2.164,2.962,1.541,2.048,2.525,3.34,2.689,3.592-.328-1.827-11.279-70.039-25.64-128.547-2.1-8.475-4.328-16.762-6.558-24.7h0c-4.492-15.753-9.181-30.026-13.541-42.282-8.82-25.205-15.935-41.526-15.935-41.526s6.263-4.694,4.853-9.011a5.308,5.308,0,0,0-1.836-2.741h0a5.374,5.374,0,0,0-3.672-.914v-.189l16.886-71.489c.59-2.3,1.213-4.632,1.8-6.931.951-3.655,1.836-7.247,2.656-10.649.492-2.016.918-3.938,1.377-5.829s.951-3.97,1.311-5.734a12.178,12.178,0,0,0,.3-1.323c.426-1.607.721-3.151,1.049-4.442a9.392,9.392,0,0,1,.229-1.1c.623-2.8,1.082-4.946,1.279-6.018a1.3,1.3,0,0,0,0-.347h0V195.7a.845.845,0,0,0,0-.189,182.952,182.952,0,0,1,16.394-51.45s-37.608-27.537-71.675-32.609-63.576,10.618-63.576,10.618-9.049,1.638-19.968,3.686l-8.131,1.481c-6.984,1.355-14,2.71-19.345,3.844-3.082.63-5.607,1.2-7.312,1.638A14.946,14.946,0,0,0,83.31,140.4a20.5,20.5,0,0,0-2,6.459Z" transform="translate(-26.194 75.04)"/><path class="z" d="M103.391,126.116a219.886,219.886,0,0,1,4.918,43.322v7.341s21.476,35.981,25.116,45.307a151.909,151.909,0,0,1,5.738,28.356s26-58.287,23.575-81.917l-17.706-10.3s-6.558-52.648-11.9-68.621Z" transform="translate(40.417 30.221)"/><path class="aa" d="M178.188,322.183c-1.213,10.523-13.541,124.357-18.624,171.239,9.082-32.83,17.017-65.786,18.624-85.856L279.372,543.045c-11.05-14.966-37.936-51.482-47.641-65.943-12.3-18.368-46.952-70.071-52.461-81.7S185.827,249.5,185.827,249.5l50.92-97.356-34.2,24.418-92.233-60.934-.754-.536L82.84,120.95s96.889,58.35,101.938,68.086c3.279,6.3-6.1,90.613-6.1,90.613S179.729,308.856,178.188,322.183Z" transform="translate(-8.674 85.042)"/><path class="ab" d="M91.42,126.473,124.7,230.445c9.017,28.356,14.558,40.959,15.935,66.637s0,96.158,0,96.158a329.112,329.112,0,0,0,14.23-39.919,301.965,301.965,0,0,0,9.836-45.212s9.377,2.237,33.542,7.751,50.69-8,50.69-8c5.836,4.915,25.706,63.391,29.935,75.8l-12.787-40.013c-8.787-25.205-15.935-41.526-15.935-41.526s6.263-4.694,4.853-9.011a5.12,5.12,0,0,0-1.836-2.741L255,293.112c-30.755,17.99-68.265,5.325-72.626,4.537,41.608,6.553,67.084-8.192,67.084-8.192v-.189l17.115-71.426c-4.525,16.888-9.64,32.956-13.378,35.792-8.328,6.3-95.085-8.475-102.954-17.423s-18.394-49.528-18.394-49.528c-18.853-43.479-38.2-66.763-38.2-66.763a20.782,20.782,0,0,0-2.23,6.553Z" transform="translate(-36.303 95.43)"/><path class="ac" d="M108.873,149.323h0a62.087,62.087,0,0,0,2.262,9.61c5.049,16.383,16.394,38.407,24.525,40.959a38.492,38.492,0,0,0,18.952-1.134h.754l1.738-.5a60.736,60.736,0,0,0,28.329-17.14,48.548,48.548,0,0,0,3.672-5.23h0a106.358,106.358,0,0,0,6.787-13.642,297.461,297.461,0,0,0,11.738-34.531s5.213-40.2.459-51.1a4.561,4.561,0,0,0-.459-.882,24.482,24.482,0,0,0-9.836-6.994c-17.115-8.381-51.182-16.163-67.576-6.3-8.328,5.01-8.328,18.305-9.345,27.631a283.145,283.145,0,0,0,0,30.656s-1.148,1.229-2.787,3.151a55.476,55.476,0,0,0-6.558,10.208h0a31.446,31.446,0,0,0-3.279,10.145,20.236,20.236,0,0,0,.623,5.1Z" transform="translate(-22.707 -38.135)"/><path class="ad" d="M111,93.453h0l2.3,9.61c5.049,16.383,16.394,38.407,24.525,40.959,4.951,1.481,13.115.725,21.542-1.859h0a60.736,60.736,0,0,0,28.329-17.14,81.428,81.428,0,0,0,10.459-18.9v-4.064L203.2,83.78l-4.721,1.26a34.643,34.643,0,0,1-13.9,12.6c-8.492,3.592-28.427-10.649-43.247-10.807A88.505,88.505,0,0,0,111,93.453Z" transform="translate(-24.833 17.705)"/><path class="ae" d="M108.193,123.928a9.808,9.808,0,0,0,8.269.959,9.294,9.294,0,0,0,5.863-5.685s-.754-24.859-5.771-33.712c0,0,6.558-10.744,23.345-5.86l-.623,42.345s8.2,11.216,31.837-4.379A92.625,92.625,0,0,1,175.54,153.7c-1.836,18.9-10.132,34.657-28.427,44.361a60.736,60.736,0,0,0,28.329-17.14c11.8-14.336,22.2-53.278,22.2-53.278s5.213-40.2.426-51.1L187.9,68.665c-17.115-8.349-51.182-16.131-67.576-6.3C112,67.373,112,80.669,110.947,90.026a291.743,291.743,0,0,0,0,30.624S109.8,121.848,108.193,123.928Z" transform="translate(-12.518 -38.228)"/><path class="af" d="M109.819,68.679l-3.508.347s.656,1.292,1.836,3.151c3.508,5.986,11.574,18.368,20.788,23.063l3.279-15.753s4.131,2.647,14.525,2.647,25.312-6.994,35.378-5.325a60.277,60.277,0,0,1,21.017,9.673s-2.3,10.334-10.263,13.327c0,0,6.23,10.3,12.459,13.989s-1.869,40.3-1.869,40.3h9.148a217.036,217.036,0,0,1,18.033-36.642,16.229,16.229,0,0,0-3.279-14.651L231.3,90.2h0c-2.066-1.89-29.509-26.844-57.609-33.87-29.05-7.341-35.641-4-35.641-4a60.012,60.012,0,0,0,9.148,9.452,43.121,43.121,0,0,0-19.673-4.537,42.2,42.2,0,0,0-23.575,5.671Z" transform="translate(-29.817 -51.57)"/><path class="ag" d="M106.257,147.563s18.066,31.507,23.771,42.25,7.082,31.507,7.082,31.507h0c1.508-2.93,26.23-52.4,23.542-81.917l-17.935-12.288s-2.066-15.753-3.279-23.945c0,0-18.755,9.137-36.067,4.033C102.979,107.077,107.5,136.6,106.257,147.563Z" transform="translate(42.6 59.406)"/><path class="ah" d="M87.88,283.173s8.2-26.56,13.115-39.572,55.018-72.749,59.019-81.224,7.476-16.446,7.476-16.446-33.575-30.309-66.429-44.109c-2.689-1.166-5.344-2.205-8-3.151l5.8,40.013s14.525,6.994,17.673,10.366a216.771,216.771,0,0,1-7.279,38.281c-3.836,11.783-10.853,29.837-14.263,38.564-1.279,3.151-2.033,5.073-2.033,5.073s-.361,12.6-1.049,21.33S87.88,283.173,87.88,283.173Z" transform="translate(86.683 49.728)"/><path class="ai" d="M110.63,147.44s60.3,34.972,69.314,44.109,12.492,32.641,12.492,32.641,0-22.055-5.017-31.286-25.706-42.5-25.706-42.5c3.8-19.944-4.492-48.552-4.492-48.552-13.8,8.475-31.149,27.474-40.231,38.06C112.991,144.447,110.63,147.44,110.63,147.44Z" transform="translate(-12.856 56.567)"/><path class="aj" d="M138.216,414.907c21.509,10.87,54.231,5.136,54.231,5.136s1.246-66.637,8.853-107.123a590.7,590.7,0,0,1,14.853-59.3c4.164-13.894,7.345-23.063,7.345-23.063a281.341,281.341,0,0,0-2.492-62.793,79.5,79.5,0,0,0-23.181-43.2,53.055,53.055,0,0,0-5.377-4.663c-.23,1.89-.689,5.073-1.344,9.263-4.328,28.577-16.591,102.932-19.673,117.614-3.279,16.825-22.165,45.968-26.23,68.432-.393,2.111-.787,4.694-1.148,7.656l-.918,8.633v.882c-.689,7.247-1.311,15.6-1.869,24.1C139.331,384.66,138.216,414.907,138.216,414.907Z" transform="translate(-135.101 95.408)"/><path class="ak" d="M182.659,217.71a38.769,38.769,0,0,1,14.3,12.823c4.689,7.971,7.017,27.663,5.967,31.16a25.853,25.853,0,0,1-3.639,6.994s-1.607-14.02-6.263-17.518-18.165-.473-18.165-.473l2.459,30.467s-19.673-1.008-30.526-6.994c0,0-5.213-34.972-2.623-56.46Z" transform="translate(-131.182 305.743)"/><path class="al" d="M125.594,127.4h0a62.09,62.09,0,0,0,2.262,9.61c5.049,16.383,16.394,38.407,24.525,40.959a38.492,38.492,0,0,0,18.952-1.134c-3.279.725-14.886,2.9-21.116-2.142-7.312-5.86-21.9-40.959-20.624-53.152a48.041,48.041,0,0,1,8.492-21.519c-1.016-10.208-.262-32.011-.262-32.011a283.161,283.161,0,0,0,0,30.656s-1.148,1.229-2.787,3.151A44.041,44.041,0,0,0,125.2,122.17a20.211,20.211,0,0,0,.393,5.23Z" transform="translate(-39.427 -16.211)"/><path class="am" d="M163.883,229.173s11.935,12.6,10.984,43.227L149,270.383s-1.082-27.474-5.574-41.211a26.667,26.667,0,0,1,20.46,0Z" transform="translate(-102.865 326.007)"/><path class="an" d="M227.274,243.758s2.394,91.59-9.049,144.237H180.289l-29.87-11.658s-11.574-86.612-12.263-132.58l46.067-3.308Z" transform="translate(-138.157 354.649)"/><path class="ao" d="M202.271,240.86s-13.509,98.616-10.918,146.254l-29.87-11.658s-12.263-73.631-12.263-132.58Z" transform="translate(-149.22 355.531)"/><path class="ap" d="M146.223,83.638A44.745,44.745,0,0,0,118.385,63.82a13.439,13.439,0,0,0,1.836,9.452A60.839,60.839,0,0,1,134.779,77.4,97.781,97.781,0,0,1,146.223,83.638Z" transform="translate(8.602 -25.223)"/><path class="aq" d="M120.326,87.917l.328.756h0a8.9,8.9,0,0,0,9.509,5.01c6.263-.819,11.312-6.868,10.755-9.641a16.586,16.586,0,0,0-14.1-11.878h-.328a9.112,9.112,0,0,0-1.574,0c-1.836,0-3.279.221-3.607.914a4.892,4.892,0,0,0-.492,1.229h0a30.345,30.345,0,0,0-.918,6.837,2.455,2.455,0,0,0,0,.5h0a22.059,22.059,0,0,0,.426,6.27Z" transform="translate(8.433 -7.352)"/><path class="aq" d="M132.017,86.328a28.987,28.987,0,0,0,.689,3.938h0c.459,1.89,1.115,3.151,1.9,3.371A9.422,9.422,0,0,0,145.2,85.982,13.086,13.086,0,0,0,134.968,71.8h-.853a1.838,1.838,0,0,0-1.541.63.565.565,0,0,0-.164.252,12.467,12.467,0,0,0-.754,4,56.81,56.81,0,0,0,.361,9.641Z" transform="translate(-34.44 -8.064)"/><path class="ar" d="M122.955,87.939l.328.756h0a6.074,6.074,0,0,0,4.656,2.363c3.869,0,6.984-4.285,6.984-9.452a9.386,9.386,0,0,0-5.476-9.452h-.328a4.842,4.842,0,0,0-1.18,0h-.393a5.937,5.937,0,0,0-4.1,2.142h0a30.345,30.345,0,0,0-.918,6.837,2.456,2.456,0,0,0,0,.5h0a22.061,22.061,0,0,0,.426,6.3Z" transform="translate(5.804 -7.375)"/><path class="as" d="M123.536,79.325h0c0,3.34,2.033,6.018,4.459,6.018s4.492-2.741,4.492-6.112-2-6.081-4.492-6.081-4.23,2.458-4.426,5.577a2.455,2.455,0,0,0-.033.6Z" transform="translate(4.797 -5.157)"/><path class="at" d="M133.8,86.211a28.991,28.991,0,0,0,.689,3.938h0a3.058,3.058,0,0,0,1.8.63c2.721,0,4.918-4.285,4.918-9.452,0-4.568-1.672-8.381-3.869-9.452h-.23a.715.715,0,0,0-.361,0H135.9a3.081,3.081,0,0,0-1.541.63.565.565,0,0,0-.164.252,12.468,12.468,0,0,0-.754,4,56.809,56.809,0,0,0,.361,9.452Z" transform="translate(-36.222 -7.947)"/><path class="as" d="M134.457,84a2.4,2.4,0,0,0,1.771,1.1c1.771,0,3.279-2.741,3.279-6.112s-1.377-6.112-3.279-6.112a2.579,2.579,0,0,0-2.033,1.481A56.8,56.8,0,0,0,134.457,84Z" transform="translate(-36.88 -5.738)"/><path class="au" d="M142.506,85.624a18.331,18.331,0,0,0-10.886-9.61c-7.771-2.205-9.607,1.292-9.607,1.292s-2.426-2.93-2.164-4.726,7.049-1.7,13.541,1.7a18.4,18.4,0,0,1,9.115,11.342Z" transform="translate(6.909 -8.872)"/><path class="av" d="M146.173,82.579s-3.279-5.986-7.312-7.436-5.017,1.323-5.017,1.323a12.791,12.791,0,0,1-1.934-4.6c0-1.292,5.312-.63,8.853,1.638A14.506,14.506,0,0,1,145.878,80Z" transform="translate(-36.366 -9.324)"/><path class="aw" d="M128.02,84.736s17.8-3.655,27.017,1.166a31.347,31.347,0,0,1-12.689,6.3S132.151,91.856,128.02,84.736Z" transform="translate(-32.476 16.906)"/><path class="ax" d="M128.02,89.407s3.869-6.3,8.656-5.1A27.723,27.723,0,0,1,128.02,89.407Z" transform="translate(-14.115 18.505)"/><path class="ay" d="M154.929,92.124c.918.284-.459-7.026-2.656-8.57a17.389,17.389,0,0,0-15.148-2.205,17.7,17.7,0,0,0-9.213,9.452S145.519,87.682,154.929,92.124Z" transform="translate(-32.302 10.684)"/><path class="az" d="M137.539,67.88s6.23,21.834,3.279,31.948c-1.246,4.348-9.279,12.288-9.279,12.288s8.525-5.388,10.886-11.973,1.049-23.031,1.049-23.031Z" transform="translate(-32.815 -16.491)"/><path class="az" d="M127.4,81.92a10.582,10.582,0,0,1,.984,7.184S133.4,87.339,127.4,81.92Z" transform="translate(-5.757 13.704)"/><path class="ba" d="M132.986,64.86a78.005,78.005,0,0,1,7.541,9.452,30.146,30.146,0,0,1,3.771,9.231,20.7,20.7,0,0,0-12.3-8.79,15.851,15.851,0,0,1,.984-9.893Z" transform="translate(-33.54 -22.986)"/><path class="bb" d="M147.966,88.22s-10.853,8.412-22.3,7.908a26.22,26.22,0,0,0,9.41,1.008C140.753,96.79,147.966,88.22,147.966,88.22Z" transform="translate(-17.699 27.253)"/><path class="bc" d="M144.042,99.369s-13.574,30.53-29.083,40.959l-3.279-14.146s24.165-6.9,29.739-36.611Z" transform="translate(32.095 30.157)"/><path class="bd" d="M103.97,71.688c3.508,5.986,11.574,18.368,20.788,23.063L128.036,79s4.131,2.647,14.525,2.647,25.312-6.994,35.378-5.325a60.277,60.277,0,0,1,21.017,9.673s-2.3,10.334-10.263,13.327c0,0,6.23,10.3,12.459,13.989s-1.869,40.3-1.869,40.3h9.148a217.041,217.041,0,0,1,18.033-36.642,76.371,76.371,0,0,1-21.476-14.682h18.033l3.935-12.6h0C223.876,87.441,174.5,51.87,133.709,51.87l11.181,10.775h0s-28.854-.914-39.346,5.388l15.443,5.01A61.347,61.347,0,0,1,103.97,71.688Z" transform="translate(-25.541 -50.923)"/><path class="be" d="M109.844,85.511a43.479,43.479,0,0,1,21.181-4.631,23.1,23.1,0,0,1,4.59,19.912c-2.262,13.012-24.755,19.534-28.362,17.581s-5.213-10.523-5.213-10.523S104.467,87.779,109.844,85.511Z" transform="translate(71.507 11.405)"/><path class="bf" d="M105.109,89.107s6.984-7.782,22.755-5.2a20.572,20.572,0,0,1,.82,12.225,14.563,14.563,0,0,1-8.656,11.248A17.726,17.726,0,0,0,126.815,95l.229-7.53a20.091,20.091,0,0,0-14.591,2.142,13.613,13.613,0,0,0-8.263,10.744,13.862,13.862,0,0,1,.918-11.248Z" transform="translate(74.012 16.851)"/><path class="bf" d="M118.523,84.13a22.551,22.551,0,0,1-2.754,9.83,7.8,7.8,0,0,1-9.509,3.592s6.131,2.142,7.574-3.466-1.672-7.719-1.672-7.719Z" transform="translate(75.386 18.457)"/><path class="bg" d="M89.7,225.779v.6s0,.473,8.754-5.167,41.87-52.585,45.674-58.445a92.5,92.5,0,0,1,9.836-12.13l8.328-4.505-10.754-.662s-22.525-19.314-26.689-22.055-33.28-18.652-33.28-18.652l4.3-2.962c-2.689-1.166-5.344-2.205-8-3.151l5.8,40.013s14.525,6.995,17.673,10.366a216.76,216.76,0,0,1-7.279,38.281C100.09,199.062,92.975,217.115,89.7,225.779Z" transform="translate(91.949 49.685)"/><path class="bh" d="M112.16,139.91a303.174,303.174,0,0,0,24.3,18.9c14,9.673,46.264,33.933,46.264,33.933-5.049-9.452-25.837-42.345-25.837-42.345,3.8-19.944-4.492-48.552-4.492-48.552a130.429,130.429,0,0,0-21.148,17.518C123.767,126.74,116.881,134.459,112.16,139.91Z" transform="translate(-8.157 56.567)"/><path class="bi" d="M119.7,119.368,145.467,150.4c3.8-19.944-4.492-48.552-4.492-48.552A130.479,130.479,0,0,0,119.7,119.368Z" transform="translate(3.39 56.567)"/><path class="bj" d="M126.49,147.062,103.44,99.55l5.377,37.146Z" transform="translate(76.665 51.62)"/><path class="bk" d="M111.216,144.724s18.066,31.507,23.771,42.25,7.082,31.507,7.082,31.507h0l7.836-20.07C135.25,178.216,108.2,104.49,108.2,104.49S112.462,133.76,111.216,144.724Z" transform="translate(37.641 62.245)"/><path class="bl" d="M102.189,137.55l-10.1,42.376C97.172,161.022,101.5,140.827,102.189,137.55Z" transform="translate(138.18 133.346)"/><path class="bm" d="M140.68,323.632c21.509,10.87,54.231,5.136,54.231,5.136s1.246-66.605,8.853-107.123a599.746,599.746,0,0,1,14.853-59.3s-15.378,34.311-20.394,49.812c-2.623,8.1-22.525,90.266-34.132,101.1-7.738,7.152-17.181-18.305-20.525-48.048C141.762,293.386,140.68,323.632,140.68,323.632Z" transform="translate(-137.565 186.682)"/><path class="bn" d="M108.9,202.4c3.705-2.741,14.755,11.784,9.836,14.147S104.147,206.027,108.9,202.4Z" transform="translate(69.466 272.088)"/><path class="bo" d="M112.223,163.824c4.689-.378,5.771,17.581.328,16.982S106.026,164.391,112.223,163.824Z" transform="translate(71.98 189.84)"/><path class="bp" d="M132.322,219.146,124.781,202.7,113.7,305S132.65,242.9,132.322,219.146Z" transform="translate(37.192 273.461)"/><path class="bq" d="M188.362,218.111,150,232.258l.721-14.147S180.329,216.788,188.362,218.111Z" transform="translate(-137.869 305.341)"/><path class="br" d="M167.283,232.662s-3.016-5.986-16.394-7.152l-4.1,7.152a31.491,31.491,0,0,1,20.492,0Z" transform="translate(-106.264 322.518)"/><path class="bs" d="M177.842,229.57s-.721,17.833-1.508,19.345-6.361,1.859-8.459,2.111a34,34,0,0,1-16.394-2.363s7.377,5.608,29.936,6.994C181.317,255.657,180.4,234.359,177.842,229.57Z" transform="translate(-135.775 331.25)"/><path class="bt" d="M164.995,314.048s-6.722-33.807-11.05-38.816-10.525,38.816-10.525,38.816Z" transform="translate(-92.927 428.596)"/><path class="bu" d="M194.532,240.45s-13.312,48.268-24.755,58.256-18.427,2.489-18.427,2.489l.23-6.868s9.312,10.334,20.788-4.6,20.755-47.985,20.755-47.985Z" transform="translate(-148.465 354.649)"/><path class="bv" d="M158.359,199s-14.033,34-33.149,37.808L130.259,245S146.752,235.107,158.359,199Z" transform="translate(-26.584 265.504)"/><path class="bw" d="M172.736,58.055s-24.066-5.608-39.608,4.474l-3.508-3.34a46.935,46.935,0,0,1,43.116-1.134Z" transform="translate(-55.421 -47.719)"/><path class="bx" d="M163,187.747v0Z" transform="translate(-155.131 240.083)"/><path class="by" d="M114.918,102.6h0a62.085,62.085,0,0,0,2.262,9.61c5.049,16.383,16.394,38.407,24.525,40.959a37.268,37.268,0,0,0,18.263-.977h1.443l1.738-.5a60.735,60.735,0,0,0,28.329-17.14,43.755,43.755,0,0,0,3.279-4.631l.393-.6h0a104.017,104.017,0,0,1,0-41.778s-1.574.252-4.131.567c-8.656,1.071-28.427,3.151-34.165-.567A46.761,46.761,0,0,0,136,79.662a3.68,3.68,0,0,0-1.869,0h0a88.481,88.481,0,0,1-12.525,6.679,15.893,15.893,0,0,1-3.672,1.134,29.628,29.628,0,0,0-1.771,4.159,5.3,5.3,0,0,1-.459,1.323l-.2.725a6.505,6.505,0,0,1-.328,1.323,22.982,22.982,0,0,0-.459,2.615A20.2,20.2,0,0,0,114.918,102.6Z" transform="translate(-28.751 8.589)"/><path class="bz" d="M125.7,98.022h0a62.083,62.083,0,0,0,2.262,9.61c5.049,16.383,16.394,38.407,24.525,40.959a37.268,37.268,0,0,0,18.263-.977c-3.967.819-14.591,2.426-20.427-2.3-7.312-5.86-21.9-40.959-20.624-53.152a41.282,41.282,0,0,1,2.623-10.492,15.9,15.9,0,0,1-3.672,1.134,29.623,29.623,0,0,0-1.771,4.159,5.3,5.3,0,0,1-.459,1.323l-.2.725a6.507,6.507,0,0,1-.328,1.323,22.965,22.965,0,0,0-.459,2.615,20.206,20.206,0,0,0,.262,5.073Z" transform="translate(-39.531 13.167)"/><path class="ca" d="M132.63,87.316a36.721,36.721,0,0,0,8.525-7.814,3.68,3.68,0,0,0-1.869,0h0A76.607,76.607,0,0,1,132.63,87.316Z" transform="translate(-33.709 8.245)"/><path class="ca" d="M112.59,107.277A55.545,55.545,0,0,0,119.9,90.641l-.361-1.071a121.261,121.261,0,0,1-7.181,16.415Z" transform="translate(54.006 30.157)"/><path class="ca" d="M111.427,81.92a53.613,53.613,0,0,1,11.017,6.3l-.3.756A71.842,71.842,0,0,0,111.23,82.9Z" transform="translate(55.169 13.704)"/><path class="cb" d="M115.83,87.653c8.623,0,13.476-7.089,16.394-7.121,13.935-.221,18.3,7.656,27.28,9.263a73.161,73.161,0,0,0,29.673-1.859c-8.656,1.071-28.427,3.151-34.165-.567a46.76,46.76,0,0,0-20.853-7.877,3.68,3.68,0,0,0-1.869,0h0a88.482,88.482,0,0,1-12.525,6.679,15.821,15.821,0,0,1-3.935,1.481Z" transform="translate(-26.647 8.224)"/><path class="cc" d="M129.67,122.111a50.009,50.009,0,0,1-14.951-3.151A50.2,50.2,0,0,0,129.7,120.6a73.793,73.793,0,0,0,12.1-1.512,63.968,63.968,0,0,0,3.967-17.3v-1.26a31.337,31.337,0,0,1-6.558,2.079,66.363,66.363,0,0,1-8.2,1.071c-2.754.221-5.508.252-8.23.252s-5.443-.189-8.164-.378c2.721,0,5.443-.189,8.131-.41s5.375-.563,8.033-1.04a58.285,58.285,0,0,0,7.8-1.8,30.13,30.13,0,0,0,6.984-2.962,135.62,135.62,0,0,0-.459-14.84c2.557-.315,4.131-.567,4.131-.567a104.017,104.017,0,0,0,0,41.778h0l-.393.63a43.755,43.755,0,0,1-3.279,4.631,60.736,60.736,0,0,1-28.329,17.14,51.417,51.417,0,0,0,23.214-24.071l-3.279.189q-3.755.115-7.508-.126Z" transform="translate(17.253 13.747)"/><path class="cd" d="M128.02,84.736s17.8-3.655,27.017,1.166a31.347,31.347,0,0,1-12.689,6.3S132.151,91.856,128.02,84.736Z" transform="translate(-32.476 16.906)"/></g></g></g></svg>