<svg xmlns="http://www.w3.org/2000/svg" xmlns:xlink="http://www.w3.org/1999/xlink" width="366" height="440" viewBox="0 0 366 440"><defs><style>.a{fill:url(#a);}.b{fill:url(#b);}.aa,.ah,.aq,.ba,.c,.g,.q{opacity:0.3;}.ab,.ah,.ai,.ak,.an,.aq,.ar,.at,.aw,.bd,.c,.g,.q,.r,.v{mix-blend-mode:multiply;}.ab,.ac,.ad,.ae,.ah,.ai,.ak,.an,.aq,.ar,.at,.aw,.bd,.be,.bf,.c,.g,.q,.r,.v,.y,.z{isolation:isolate;}.c{fill:url(#c);}.d{fill:url(#d);}.e{fill:url(#e);}.f{fill:#fff;}.g{fill:url(#f);}.h{fill:url(#g);}.i{fill:url(#h);}.j{fill:url(#i);}.k{fill:url(#j);}.l{fill:url(#k);}.m{fill:url(#l);}.n{fill:url(#m);}.o{fill:#dfe3fb;}.p{fill:url(#n);}.q{fill:url(#o);}.r{fill:url(#p);}.al,.au,.bd,.s,.v,.y,.z{opacity:0.5;}.s{fill:url(#q);}.t{fill:#ff008b;}.u{fill:url(#r);}.v{fill:url(#s);}.w{fill:url(#t);}.x{fill:url(#u);}.ac,.ad,.ae,.be,.bf,.y,.z{mix-blend-mode:screen;}.y{fill:url(#v);}.z{fill:url(#w);}.aa{fill:url(#x);}.ab{fill:url(#y);}.ac{opacity:0.2;fill:url(#z);}.ad,.ae,.be,.bf{opacity:0.72;}.ad{fill:url(#aa);}.ae{fill:url(#ab);}.af{fill:url(#ac);}.ag{fill:url(#ad);}.ah{fill:url(#ae);}.ai{fill:url(#af);}.aj{fill:url(#ag);}.ak{fill:url(#ah);}.al{fill:url(#ai);}.am{fill:url(#aj);}.an{fill:url(#ak);}.ao{fill:url(#al);}.ap{fill:url(#am);}.aq{fill:url(#an);}.ar{fill:url(#ao);}.as{fill:url(#ap);}.at{fill:url(#aq);}.au{fill:url(#ar);}.av{fill:url(#as);}.aw{fill:url(#at);}.ax{fill:url(#au);}.ay{fill:#2f95cd;}.az{fill:url(#av);}.ba{fill:url(#aw);}.bb{fill:url(#ax);}.bc{fill:url(#ay);}.bd{fill:url(#az);}.be{fill:url(#ba);}.bf{fill:url(#bb);}</style><linearGradient id="a" x1="0.773" y1="0.717" x2="1.002" y2="-0.279" gradientUnits="objectBoundingBox"><stop offset="0" stop-color="#cbc1f7"/><stop offset="1" stop-color="#e8dcf7"/></linearGradient><linearGradient id="b" x1="1.427" y1="0.213" x2="1.427" y2="-0.469" gradientUnits="objectBoundingBox"><stop offset="0" stop-color="#be9dea"/><stop offset="1" stop-color="#9e8cef"/></linearGradient><linearGradient id="c" x1="1.169" y1="0.705" x2="1.169" y2="-0.254" gradientUnits="objectBoundingBox"><stop offset="0" stop-color="#9d68c2"/><stop offset="1" stop-color="#ccedff"/></linearGradient><linearGradient id="d" x1="3.166" y1="0.801" x2="3.396" y2="-0.196" xlink:href="#a"/><linearGradient id="e" x1="4.6" y1="0.374" x2="4.6" y2="-0.309" xlink:href="#b"/><linearGradient id="f" x1="3.895" y1="0.791" x2="3.895" y2="-0.168" xlink:href="#c"/><linearGradient id="g" x1="-48.211" y1="1" x2="-48.211" gradientUnits="objectBoundingBox"><stop offset="0" stop-color="#b9acf4"/><stop offset="1" stop-color="#e1d1f5"/></linearGradient><linearGradient id="h" x1="0.498" y1="1" x2="0.498" y2="0" xlink:href="#b"/><linearGradient id="i" x1="0.502" y1="1" x2="0.502" y2="0" xlink:href="#g"/><linearGradient id="j" x1="0.498" y1="1" x2="0.498" y2="0" xlink:href="#b"/><linearGradient id="k" x1="0.5" y1="1" x2="0.5" gradientUnits="objectBoundingBox"><stop offset="0" stop-color="#dd1a8f"/><stop offset="1" stop-color="#fe117e"/></linearGradient><linearGradient id="l" x1="-63.196" y1="1" x2="-63.196" y2="0" xlink:href="#k"/><linearGradient id="m" x1="0.459" y1="1.009" x2="0.574" y2="0.009" xlink:href="#a"/><linearGradient id="n" x1="0.5" y1="1" x2="0.5" gradientUnits="objectBoundingBox"><stop offset="0" stop-color="#0665bd"/><stop offset="1" stop-color="#1a1f77"/></linearGradient><linearGradient id="o" x1="0.5" y1="1" x2="0.5" y2="0" xlink:href="#c"/><linearGradient id="p" y1="0.5" x2="1.001" y2="0.5" gradientUnits="objectBoundingBox"><stop offset="0" stop-color="#8879ea"/><stop offset="1" stop-color="#9e8cef"/></linearGradient><linearGradient id="q" x1="0.5" y1="1.002" x2="0.5" y2="0.003" gradientUnits="objectBoundingBox"><stop offset="0" stop-color="#8da4e5"/><stop offset="1" stop-color="#755cbb"/></linearGradient><linearGradient id="r" x1="0.485" y1="1.109" x2="0.509" y2="-0.231" gradientUnits="objectBoundingBox"><stop offset="0" stop-color="#5e36cc"/><stop offset="1" stop-color="#6c4a96"/></linearGradient><linearGradient id="s" x1="0.5" y1="0.999" x2="0.5" y2="-0.001" xlink:href="#q"/><linearGradient id="t" x1="0.48" y1="1.014" x2="0.646" y2="0.003" xlink:href="#b"/><linearGradient id="u" x1="-0.505" y1="-8.74" x2="-0.505" y2="-9.843" xlink:href="#k"/><linearGradient id="v" y1="0.5" x2="0.999" y2="0.5" gradientUnits="objectBoundingBox"><stop offset="0"/><stop offset="1" stop-color="#6a9bff"/></linearGradient><linearGradient id="w" x1="0" y1="0.501" x2="1" y2="0.501" xlink:href="#v"/><linearGradient id="x" x1="0.574" y1="1" x2="0.574" y2="0" xlink:href="#c"/><linearGradient id="y" x1="0.5" y1="0.997" x2="0.5" y2="0.007" gradientUnits="objectBoundingBox"><stop offset="0" stop-color="#d93de3"/><stop offset="1" stop-color="#ff6dba"/></linearGradient><linearGradient id="z" x1="-0.136" y1="-0.329" x2="-0.136" y2="-1.329" gradientUnits="objectBoundingBox"><stop offset="0"/><stop offset="1" stop-color="#00e3ff"/></linearGradient><linearGradient id="aa" y1="0.499" x2="1" y2="0.499" gradientUnits="objectBoundingBox"><stop offset="0"/><stop offset="1" stop-color="#d4e2ff"/></linearGradient><linearGradient id="ab" y1="0.498" x2="1" y2="0.498" gradientUnits="objectBoundingBox"><stop offset="0" stop-color="#d4e2ff"/><stop offset="1"/></linearGradient><linearGradient id="ac" x1="0.391" y1="0.313" x2="0.391" y2="-0.7" xlink:href="#a"/><linearGradient id="ad" x1="0.351" y1="1.16" x2="0.539" y2="0.025" xlink:href="#a"/><linearGradient id="ae" x1="0.436" y1="1.182" x2="0.436" y2="0.064" xlink:href="#c"/><linearGradient id="af" x1="0.568" y1="1.199" x2="0.471" y2="0.207" xlink:href="#b"/><linearGradient id="ag" x1="-1.25" y1="4.074" x2="-1.084" y2="2.95" xlink:href="#a"/><linearGradient id="ah" x1="-2.562" y1="4.289" x2="-2.562" y2="3.339" xlink:href="#b"/><linearGradient id="ai" x1="-3.333" y1="8.196" x2="-3.333" y2="7.043" xlink:href="#q"/><linearGradient id="aj" x1="-2.103" y1="7.212" x2="-1.944" y2="5.843" xlink:href="#a"/><linearGradient id="ak" x1="-2.207" y1="36.016" x2="-2.207" y2="31.272" xlink:href="#b"/><linearGradient id="al" x1="-0.226" y1="0.529" x2="0.607" y2="0.529" xlink:href="#p"/><linearGradient id="am" x1="2.772" y1="0.531" x2="2.96" y2="-0.603" xlink:href="#a"/><linearGradient id="an" x1="2.885" y1="0.444" x2="2.885" y2="-0.673" xlink:href="#c"/><linearGradient id="ao" x1="6.01" y1="0.309" x2="5.914" y2="-0.683" xlink:href="#b"/><linearGradient id="ap" x1="-1.653" y1="9.172" x2="-1.487" y2="8.048" xlink:href="#a"/><linearGradient id="aq" x1="-3.446" y1="9.96" x2="-3.446" y2="8.95" xlink:href="#b"/><linearGradient id="ar" x1="-3.814" y1="14.64" x2="-3.814" y2="13.478" xlink:href="#q"/><linearGradient id="as" x1="-4.933" y1="28.216" x2="-4.809" y2="26.245" xlink:href="#a"/><linearGradient id="at" x1="-2.403" y1="88.563" x2="-2.403" y2="83.82" xlink:href="#b"/><linearGradient id="au" x1="20.749" y1="0.041" x2="21.583" y2="0.041" xlink:href="#p"/><linearGradient id="av" x1="0.429" y1="0.998" x2="0.604" y2="0.007" xlink:href="#a"/><linearGradient id="aw" x1="0.5" y1="1" x2="0.5" y2="0" xlink:href="#c"/><linearGradient id="ax" x1="0.5" y1="0.999" x2="0.5" y2="-0.001" xlink:href="#b"/><radialGradient id="ay" cx="0.53" cy="0.875" r="0.799" gradientTransform="translate(0.017) scale(0.967 1)" gradientUnits="objectBoundingBox"><stop offset="0" stop-color="#f04791"/><stop offset="1" stop-color="#dd1a8f"/></radialGradient><linearGradient id="az" x1="0.5" y1="1" x2="0.5" y2="-0.001" xlink:href="#q"/><linearGradient id="ba" y1="0.5" x2="1" y2="0.5" gradientUnits="objectBoundingBox"><stop offset="0"/><stop offset="1" stop-color="#ff955c"/></linearGradient><linearGradient id="bb" x1="0.5" y1="1" x2="0.5" y2="-0.001" gradientUnits="objectBoundingBox"><stop offset="0" stop-color="#ff4b90"/><stop offset="1"/></linearGradient></defs><g transform="translate(-842.129 525.857)"><path class="a" d="M665.78,218.191c.453,1.565.882,3.232,1.31,5.049,6.75,26,14.658,64.985,12.593,81.143-.479,3.888-1.511,6.438-3.274,7.2a4.171,4.171,0,0,1-1.511.379,12.971,12.971,0,0,1-6.75-1.717h0c-16.22-7.978-44.277-40.874-49.339-52.059a5.54,5.54,0,0,1-.755-3.055c2.821-11.235,36.8-59.481,40.776-57.032C659.887,198.751,662.582,206.779,665.78,218.191Z" transform="translate(443.85 -404.152)"/><path class="b" d="M618.35,258.117c0,4.014,45.334-23.808,40.02-60.087C658.37,197.954,618.3,220.2,618.35,258.117Z" transform="translate(444.309 -404.113)"/><path class="c" d="M665.735,218.267s-23.4,18.784-24.4,33.982,13.55,44.257,26.848,57.941c-16.219-7.978-44.276-40.874-49.339-52.059a5.538,5.538,0,0,1-.756-3.055c2.821-11.235,36.8-59.481,40.776-57.032C659.842,198.827,662.536,206.855,665.735,218.267Z" transform="translate(443.895 -404.228)"/><path class="d" d="M582.35,220.687c-.428,1.565-.857,3.206-1.31,5.049-6.724,25.979-14.633,64.96-12.593,81.143.479,3.863,1.511,6.438,3.274,7.2a4.774,4.774,0,0,0,1.486.379,13.526,13.526,0,0,0,6.775-1.717h0c16.22-7.978,44.276-40.874,49.339-52.033a5.615,5.615,0,0,0,.755-3.055c-2.821-11.235-36.8-59.506-40.775-57.032C588.193,201.12,585.447,209.3,582.35,220.687Z" transform="translate(368.031 -400.311)"/><path class="e" d="M616.791,260.562c0,4.04-45.334-23.808-40.02-60.062C576.771,200.5,616.842,222.641,616.791,260.562Z" transform="translate(380.511 -400.347)"/><path class="f" d="M585.312,224.744c1.738,1.414-4.256,17.5-7.934,17.041S581.308,221.437,585.312,224.744Z" transform="translate(380.608 -363.948)"/><path class="f" d="M635.283,233.822c2.242-.177,7.254,9.19,4.282,11.386S630.019,234.276,635.283,233.822Z" transform="translate(467.018 -349.546)"/><path class="g" d="M575.228,220.778s23.423,18.784,24.4,33.957-13.525,44.283-26.823,57.941c16.22-7.978,44.277-40.874,49.339-52.033a5.616,5.616,0,0,0,.755-3.055c-2.821-11.235-36.8-59.506-40.776-57.032C581.071,201.212,578.326,209.392,575.228,220.778Z" transform="translate(375.153 -400.402)"/><path class="h" d="M608.093,92.041S592.326,78.433,573.06,76.06c0,0-5.919,2.878-12.593,24.186s5.768,63.344,5.768,63.344Z" transform="translate(353.42 -590.076)"/><path class="i" d="M561.31,86.664a31.808,31.808,0,0,1,7.556-10.6S584.707,90.728,584.1,125.8l-4.584,4.721Z" transform="translate(357.69 -590.076)"/><path class="j" d="M629.94,92.041s15.766-13.608,35.033-15.981c0,0,5.919,2.878,12.593,24.186S671.8,163.59,671.8,163.59Z" transform="translate(461.909 -590.076)"/><path class="k" d="M653.25,76.064a68.419,68.419,0,0,0-15.59,43.778l6.019,3.812L661.31,87.2S655.441,75.736,653.25,76.064Z" transform="translate(473.632 -590.08)"/><path class="l" d="M640.145,118.361s-4.156-23.075,10.981-40.041c0,0,17.126,8.1,24.2,38.072s-11.359,47.969-11.359,47.969Z" transform="translate(476.613 -586.63)"/><path class="m" d="M590.49,118.361s4.281-23.176-10.981-40.041c0,0-17.126,8.1-24.2,38.072s11.359,47.969,11.359,47.969Z" transform="translate(346.115 -586.63)"/><path class="n" d="M787.9,256.453c-35.134,49.408-200.352,45.747-221.861,5.807-14.029-26.105-12.593-65.338,1.032-101.441C584.7,113.431,623.18,71.37,674.081,71.37,734,71.37,780.037,131.2,793.914,185.864,800.916,213.534,799.732,239.866,787.9,256.453Z" transform="translate(349.868 -597.227)"/><path class="o" d="M566.588,203.481c7.858,33.654,153.079,37.315,188.742,6.817S739.639,71.441,660.958,76.212C588.953,80.529,553.642,148.367,566.588,203.481Z" transform="translate(361.705 -590.077)"/><path class="p" d="M566.257,201.861c7.858,33.654,153.079,37.315,188.742,6.817S739.308,69.821,660.628,74.592C588.672,78.909,553.362,146.747,566.257,201.861Z" transform="translate(361.23 -592.547)"/><path class="q" d="M787.9,202.434c-35.134,49.408-200.352,45.747-221.861,5.807-14.029-26.105-12.593-65.338,1.032-101.441h0c-.6,2.121-14.431,52.74-.3,75.008,14.457,22.722,71.628,19.591,133.006,16.966s81.677-11.563,91.978-28.907c8.11-13.658,0-43.8-3.878-56l6.019,18C800.916,159.515,799.732,185.847,787.9,202.434Z" transform="translate(349.868 -543.208)"/><path class="r" d="M654.882,179.788c-34.353,0-59.086-3.913-73.039-9.467h0c-9.092-3.636-13.5-7.978-12.845-12.472.378-2.727,7.128-5.049,17.63-7.069,31.205-5.655,95.706-7.372,130.513-2.07,3,.454,5.793.959,8.286,1.515l1.562.379h.3c5.994,1.49,10.251,3.307,12.14,5.5a4.7,4.7,0,0,1,.982,1.692C743.812,169.008,685.885,179.813,654.882,179.788Z" transform="translate(369.269 -484.181)"/><path class="s" d="M740.125,155.152a3.939,3.939,0,0,1-.579,1.035c-3.375,4.772-17,10.907-17,10.907s-52.437-21.51-94.925-11.942S581.883,170.3,581.883,170.3h0c-9.092-3.636-13.5-7.978-12.845-12.472.378-2.727,7.128-5.049,17.63-7.069,31.205-5.655,95.706-7.372,130.513-2.07,3.652.631,6.951,1.288,9.848,1.894h.3C735.642,152.476,740.528,154.067,740.125,155.152Z" transform="translate(369.329 -484.212)"/><path class="t" d="M963.449-425.382c.825,2.156,3.5,3.72,4.872,5.374,14.4-19.057,35.037-43.317,67.149-58.79-1.226-1.932-5.7-2.327-6.964-3.324C1006.9-473.743,973.6-446.694,963.449-425.382Z" transform="translate(29.356 0.492)"/><path class="t" d="M1047.381-430.567c-.94,2.025-4.468,5.1-6.029,6.658-16.406-17.9-39.914-40.687-76.5-55.22,1.4-1.814,6.416-4.633,7.851-5.57C997.324-476.829,1035.812-450.585,1047.381-430.567Z" transform="translate(17.001 8.776)"/><path class="u" d="M714.828,150.22c-8.109,7.776-47.047,14.517-69.235,14.492-39.768,0-63.947-6.362-69.563-13.936C609.9,144.641,683.145,143.151,714.828,150.22Z" transform="translate(380.043 -484.177)"/><path class="v" d="M565.091,168.024a67,67,0,0,1,20.677-14.744c13.676-6.564,26.269-11.714,28.208-16.991s-37.552-2.171-37.552-2.171l-19.645,8.559S559.852,158.506,565.091,168.024Z" transform="translate(350.811 -502.941)"/><path class="w" d="M582.28,97.63s10.074,6.589,3.5,21.813c0,0-47.6,25.979-44.83,54.28,2.292,23.631,68,12.194,68,12.194l2.367,7.9s-55.862,10.957-75.154-2.222c0,0-6.548-15.6,9.722-43.727A326.249,326.249,0,0,1,582.28,97.63Z" transform="translate(317.528 -557.189)"/><path class="x" d="M561.923,137.982c-5.969,6.817,6.725,14.239,17.2,15.375,11.711,1.288,32.565-3.358,31.306-15.148S575.952,122.051,561.923,137.982Z" transform="translate(356.296 -511.45)"/><path class="y" d="M574.2,114.321c-1.813,10.907,22.39,10.427,55.409,9.341,39.592-1.313,79.386,32.821,102.556,8.331,3.8-4.039-34.1-57.108-79.864-55.921S575.759,104.853,574.2,114.321Z" transform="translate(377.115 -590.088)"/><path class="z" d="M583.156,131.262c-2.091,7.9,14.356,14.29,54.955,13.81,51.4-.581,60.446-13,59.514-13.86,0,0-21.332,12.623-61.579,3.661C609.475,129.041,585.372,122.956,583.156,131.262Z" transform="translate(390.597 -512.102)"/><path class="aa" d="M648.714,111.345l-1.184-3.585A19.263,19.263,0,0,1,648.714,111.345Z" transform="translate(488.621 -541.744)"/><path class="f" d="M614.3,74.269c-3.5.808,25.715,16.309,26.9,14.466S623.916,72.022,614.3,74.269Z" transform="translate(437.71 -593.158)"/><path class="f" d="M637.419,80.389c-2.9,1.565-2.67,4.721,3.35,3.938s9.319-5.529,8.639-6.438S640.693,78.571,637.419,80.389Z" transform="translate(470.524 -587.689)"/><path class="f" d="M657.951,114.691c-1.587-.177-1.058,13.785.932,13.2S660.193,114.969,657.951,114.691Z" transform="translate(503.033 -531.179)"/><path class="ab" d="M561.311,138.884c-.353,1.944,41.506,2.525,42.513-5.049S564.057,123.888,561.311,138.884Z" transform="translate(357.688 -511.09)"/><path class="ac" d="M565.824,151.239a106.7,106.7,0,0,1,.3-26.837c2.015-15.375,6.12-25.247,8.588-23.909s2.065,16.461,3.526,31.306c1.108,11.538,3.324,22.369,3.324,22.369S570.987,164.342,565.824,151.239Z" transform="translate(363.477 -553.008)"/><path class="ad" d="M661.168,86.938s-5.566-6.892-13.122-5.049-8.059,25.726-3.551,26.332,6.448-13.229,9.923-15.4a17.164,17.164,0,0,1,9.52-1.313Z" transform="translate(479.642 -581.666)"/><path class="ae" d="M556.58,98.267a10.333,10.333,0,0,1,9.47-2.222c6.574,1.06,10.351,14.542,13.7,13.2s.907-23.2-7.959-29.64C571.792,79.56,560.358,89.355,556.58,98.267Z" transform="translate(350.507 -584.664)"/><path class="af" d="M566.223,99.59s-23.2,26.105-21.786,27.973S567.608,102.291,566.223,99.59Z" transform="translate(331.973 -554.201)"/><path class="ag" d="M644.877,166.456c-2.922,14.946-9.117,36.153-19.217,52.311-16.723,26.761-40.474,59.91-41.2,60.971h0c-11.485,4.292-23.725,1.616-31.331-1.035a56.117,56.117,0,0,1-7.556-3.206,242.136,242.136,0,0,1,35.109-66.474A293.9,293.9,0,0,1,620.85,165.6l.176-.152.453-.4.252-.227a.956.956,0,0,0,.227-.227l.327-.278h0c12.593-10.982,22.415-17.269,23.952-15.956C647.169,149.061,646.741,156.307,644.877,166.456Z" transform="translate(333.787 -480.114)"/><path class="ah" d="M644.877,155.938c-2.922,14.946-9.117,36.153-19.217,52.311-16.723,26.761-40.474,59.91-41.2,60.971h0l-31.331-1.035a56.113,56.113,0,0,1-7.556-3.206A242.135,242.135,0,0,1,580.679,198.5,293.9,293.9,0,0,1,620.85,155.08c-7.178,6.488-37.451,34.916-49.263,61.728-13.424,30.5,18.537,23.883,34.379,6.589S644.5,155.863,644.5,155.863Z" transform="translate(333.787 -469.597)"/><path class="f" d="M572.126,175.924c-2.242-1.363,5.692-13.886,9.621-13.406S574.04,177.111,572.126,175.924Z" transform="translate(373.52 -458.277)"/><path class="f" d="M569.241,174.932c-1.713-1.363-4.533,3.585-2.921,4.7S571.281,176.5,569.241,174.932Z" transform="translate(364.568 -439.688)"/><path class="ai" d="M550.794,199.8s8.009-16.057,21.559-9.669,3.8,28.453,3.8,28.453-18.083,8.432-30.626-4.721a115.828,115.828,0,0,1,5.264-14.062Z" transform="translate(333.727 -418.452)"/><path class="aj" d="M566.387,193.169s17.378-6.993,25.463,1.136c6.5,6.514,3.979,20.627.151,29.816s-30.223,38.249-41.985,37.87-18.235-13.33-13.449-28.579C536.568,233.311,553.367,203.394,566.387,193.169Z" transform="translate(317.705 -415.788)"/><path class="ak" d="M566.062,191.48s-.277,16.082-10.6,27.292-17.051,35.345-17.051,35.345-5.44-6.135-2.166-22.545S566.062,191.48,566.062,191.48Z" transform="translate(318.03 -414.099)"/><path class="al" d="M536,220.736l8.739,5.706a64.417,64.417,0,0,1,7.883-13.355,66.388,66.388,0,0,0,8.286-16.537Z" transform="translate(319.255 -406.369)"/><path class="am" d="M569.78,192.35a60.885,60.885,0,0,0-19.594,9.669c-11.686,8.028-18.663,17.37-19.318,19.793s2.821,6.741,6.9,6.993,17.756-7.574,17.756-7.574S573.759,203.534,569.78,192.35Z" transform="translate(311.34 -412.773)"/><path class="an" d="M544.212,204.323s21.307-7.574,37.779,0l-1.436,3.585a56.565,56.565,0,0,0-37.955-1.616Z" transform="translate(329.277 -399.65)"/><path class="f" d="M535.043,207.116c-1.083-1.187,10.477-9.013,11.157-7.094S536.63,208.757,535.043,207.116Z" transform="translate(317.693 -401.535)"/><path class="ao" d="M594.516,148.23S578.02,176,579.757,207.762C579.757,207.762,601.216,168.756,594.516,148.23Z" transform="translate(385.508 -480.041)"/><path class="ap" d="M624.318,165.432c2.921,14.946,9.117,36.153,19.217,52.311,16.723,26.761,40.474,59.91,41.2,60.971h0c11.485,4.317,23.725,1.616,31.331-1.01a56.146,56.146,0,0,0,7.556-3.206,242.135,242.135,0,0,0-35.109-66.475A292.567,292.567,0,0,0,648.345,164.6l-.176-.151c0-.151-.3-.278-.453-.429l-.252-.227a.6.6,0,0,1-.226-.2l-.328-.278h0c-12.593-11.008-22.415-17.269-23.952-15.981C621.925,148.037,622.354,155.283,624.318,165.432Z" transform="translate(450.48 -481.666)"/><path class="aq" d="M623.17,154.9c2.922,14.946,9.117,36.153,19.217,52.311,16.723,26.761,40.473,59.91,41.2,60.971h0l31.331-1.01a56.14,56.14,0,0,0,7.556-3.206,242.127,242.127,0,0,0-35.109-66.475A292.569,292.569,0,0,0,647.2,154.07c7.178,6.488,37.451,34.916,49.263,61.728,13.424,30.5-18.537,23.883-34.379,6.589s-38.534-67.56-38.534-67.56Z" transform="translate(451.629 -471.137)"/><path class="f" d="M642.526,174.9c2.242-1.363-5.692-13.886-9.621-13.406S640.612,176.065,642.526,174.9Z" transform="translate(465.19 -459.832)"/><path class="ar" d="M677.841,198.746s-8.034-16.057-21.559-9.669-3.8,28.428-3.8,28.428,18.083,8.432,30.626-4.7A115.856,115.856,0,0,0,677.841,198.746Z" transform="translate(491.001 -420.053)"/><path class="as" d="M678.443,192.16s-17.378-7.019-25.463,1.111c-6.5,6.514-3.979,20.652-.151,29.842s30.223,38.249,41.984,37.87,18.235-13.33,13.449-28.579C708.263,232.3,691.464,202.385,678.443,192.16Z" transform="translate(490.827 -417.354)"/><path class="at" d="M658.43,189.77s3.929,17.521,16.27,29.034c11.157,10.376,17.051,35.345,17.051,35.345s5.44-6.135,2.166-22.545S658.43,189.77,658.43,189.77Z" transform="translate(505.173 -416.706)"/><path class="au" d="M693.06,228.514l-8.513,5.049a49.4,49.4,0,0,0-8.11-12.749A71.336,71.336,0,0,1,658.43,189.76l20.149,18.556a119.4,119.4,0,0,1,8.664,10.1C689.005,220.813,693.06,228.514,693.06,228.514Z" transform="translate(505.173 -416.722)"/><path class="av" d="M658.43,190.746s4.105-1.237,18.26-1.591c14.608-.379,22.415,3.686,24.556,5.049s2.519,6.842-.3,9.846-28.334,7.574-28.334,7.574A83.859,83.859,0,0,1,658.43,190.746Z" transform="translate(505.173 -417.682)"/><path class="aw" d="M687.593,203.3s-21.307-7.574-37.653,0l1.436,3.585a56.639,56.639,0,0,1,37.955-1.641Z" transform="translate(492.281 -401.206)"/><path class="f" d="M678.743,191.176c.2-1.591-13.751-1.161-13.172.808S678.466,193.423,678.743,191.176Z" transform="translate(515.99 -416.043)"/><path class="ax" d="M623.372,147.2s16.5,27.771,14.734,59.557C638.106,206.757,616.673,167.751,623.372,147.2Z" transform="translate(449.966 -481.611)"/><path class="ay" d="M597.29,133.8s9.848-12.27,20.149-14.593,13.852,10.427,13.852,10.427S612.25,128.047,597.29,133.8Z" transform="translate(412.328 -524.717)"/><path class="az" d="M713.175,293.009c-4.785,28.4-30.223,47.312-66.49,47.312-31.659,0-58.456-11.815-65.483-37.87s-4.332-74.124,5.037-104.092a94.351,94.351,0,0,1,5.037-12.876h0a89.256,89.256,0,0,1,5.969-10.553h0c11.535-17.42,28.435-28.781,47.551-28.781a57.867,57.867,0,0,1,45.334,20.324,66.714,66.714,0,0,1,11.283,19.036,186.6,186.6,0,0,1,7.808,25.1,1.284,1.284,0,0,0,0,.227A212.57,212.57,0,0,1,713.175,293.009Z" transform="translate(381.873 -483.236)"/><path class="ba" d="M713.175,269.246c-4.785,28.4-30.223,47.312-66.49,47.312-31.659,0-58.456-11.815-65.483-37.87s-4.332-74.124,5.037-104.092a94.349,94.349,0,0,1,5.037-12.876h0s-19.141,63.622-3.854,104.143,86.614,39.662,110.817,12.75c22.969-25.625,12.366-85.839,11.283-91.595A212.573,212.573,0,0,1,713.175,269.246Z" transform="translate(381.873 -459.473)"/><path class="bb" d="M579.669,234.406c5.415-38.1,35.89-63.925,69.764-60.592,36.494,3.459,56.114,38.375,55.585,68.343s-22.365,53.371-61.529,53.371S574.607,270.029,579.669,234.406Z" transform="translate(384.715 -441.474)"/><path class="bc" d="M579.81,235.656c5.39-38.1,35.889-63.925,69.739-60.592,36.519,3.459,56.139,38.375,55.61,68.343s-22.365,53.371-61.554,53.371S574.747,271.28,579.81,235.656Z" transform="translate(384.927 -439.568)"/><path class="bd" d="M678.421,166.4c-7.732,12.169-50.371,19.263-75,17.016-21.458-1.969-18.209-7.776-18.033-8.508h0c11.535-17.42,28.434-28.781,47.551-28.781A57.866,57.866,0,0,1,678.421,166.4Z" transform="translate(393.833 -483.27)"/><path class="f" d="M617.051,162.539c-1.965.656-2.065,16.663,0,19.238s5.415,1.793,6.523-1.969S620.049,161.554,617.051,162.539Z" transform="translate(440.042 -458.298)"/><path class="be" d="M584.683,208.538c6.422,10.3,32.893,4.822,62.737,7.725s34.933,12.623,41.229,10.679S685,179.958,640.419,176.9,583.147,205.988,584.683,208.538Z" transform="translate(392.999 -436.635)"/><path class="bf" d="M588.26,218.193s8.739,15.148,41.33,15.4,45.838-19.314,45.838-19.314a47.424,47.424,0,0,1-36.545,3.913C617.4,212.311,596.143,209,588.26,218.193Z" transform="translate(398.615 -382.089)"/></g></svg>