<svg xmlns="http://www.w3.org/2000/svg" xmlns:xlink="http://www.w3.org/1999/xlink" width="370" height="440" viewBox="0 0 370 440"><defs><style>.a{fill:url(#a);}.b{fill:url(#b);}.c{fill:url(#c);}.d{fill:url(#d);}.bc,.bd,.be,.e,.f,.i,.o{opacity:0.3;}.ah,.ak,.am,.az,.bc,.e,.f,.i,.k,.l,.r{mix-blend-mode:multiply;}.ae,.af,.ag,.ah,.ak,.al,.am,.an,.az,.bc,.bf,.bg,.e,.f,.i,.k,.l,.r,.t,.u{isolation:isolate;}.e{fill:url(#e);}.f{fill:url(#f);}.g{fill:url(#g);}.h{fill:url(#h);}.i{fill:url(#i);}.j{fill:url(#j);}.k{fill:url(#k);}.ae,.af,.ah,.am,.az,.bf,.bg,.l,.r{opacity:0.5;}.l{fill:url(#l);}.m{fill:url(#m);}.n{fill:url(#n);}.o{fill:url(#o);}.p{fill:url(#p);}.q{fill:url(#q);}.r{fill:url(#r);}.s{fill:#fff;}.al,.an,.t,.u{opacity:0.72;}.ae,.af,.ag,.al,.an,.bf,.bg,.t,.u{mix-blend-mode:screen;}.t{fill:url(#s);}.u{fill:url(#t);}.v{fill:url(#u);}.w{fill:url(#v);}.x{fill:url(#w);}.y{fill:url(#x);}.z{fill:url(#y);}.aa{fill:url(#z);}.ab{fill:url(#aa);}.ac{fill:url(#ab);}.ad{fill:url(#ac);}.ae{fill:url(#ad);}.af{fill:url(#ae);}.ag{opacity:0.2;fill:url(#af);}.ah{fill:url(#ag);}.ai{fill:url(#ah);}.aj{fill:url(#ai);}.ak{fill:url(#aj);}.al{fill:url(#ak);}.am{fill:url(#al);}.an{fill:url(#am);}.ao{fill:url(#an);}.ap{fill:url(#ao);}.aq{fill:#2f95cd;}.ar{fill:url(#ap);}.as{fill:url(#aq);}.at{fill:url(#ar);}.au{fill:url(#as);}.av{fill:url(#at);}.aw{fill:url(#au);}.ax{fill:url(#av);}.ay{fill:url(#aw);}.az{fill:url(#ax);}.ba{fill:url(#ay);}.bb{fill:url(#az);}.bc{fill:url(#ba);}.bd{fill:url(#bb);}.be{fill:url(#bc);}.bf{fill:url(#bd);}.bg{fill:url(#be);}</style><linearGradient id="a" x1="0.374" y1="0.966" x2="0.534" y2="0.042" gradientUnits="objectBoundingBox"><stop offset="0" stop-color="#cbc1f7"/><stop offset="1" stop-color="#e8dcf7"/></linearGradient><linearGradient id="b" x1="0.5" y1="1" x2="0.5" gradientUnits="objectBoundingBox"><stop offset="0" stop-color="#be9dea"/><stop offset="1" stop-color="#9e8cef"/></linearGradient><linearGradient id="c" x1="0.354" y1="1.011" x2="0.536" y2="-0.042" xlink:href="#a"/><linearGradient id="d" x1="0.5" y1="1" x2="0.5" y2="-0.004" xlink:href="#b"/><linearGradient id="e" x1="0.5" y1="1.001" x2="0.5" gradientUnits="objectBoundingBox"><stop offset="0" stop-color="#9d68c2"/><stop offset="1" stop-color="#ccedff"/></linearGradient><linearGradient id="f" x1="0.5" y1="1" x2="0.5" y2="-0.002" xlink:href="#e"/><linearGradient id="g" x1="0.426" y1="1.037" x2="0.57" y2="-0.05" xlink:href="#a"/><linearGradient id="h" x1="0.502" y1="1" x2="0.502" y2="0" xlink:href="#b"/><linearGradient id="i" x1="0.501" y1="1" x2="0.501" y2="0.001" xlink:href="#e"/><linearGradient id="j" x1="0.432" y1="1.03" x2="0.588" y2="-0.027" xlink:href="#a"/><linearGradient id="k" x1="0.499" y1="1" x2="0.499" y2="0.001" xlink:href="#b"/><linearGradient id="l" x1="0.499" y1="1" x2="0.499" gradientUnits="objectBoundingBox"><stop offset="0" stop-color="#8da4e5"/><stop offset="1" stop-color="#755cbb"/></linearGradient><linearGradient id="m" x1="0.337" y1="1.005" x2="0.596" y2="-0.003" xlink:href="#a"/><linearGradient id="n" x1="0.429" y1="0.998" x2="0.604" y2="0.007" xlink:href="#a"/><linearGradient id="o" x1="0.5" y1="1" x2="0.5" y2="0" xlink:href="#e"/><linearGradient id="p" x1="0.5" y1="1" x2="0.5" y2="0" xlink:href="#b"/><radialGradient id="q" cx="0.517" cy="0.845" r="0.763" gradientTransform="translate(0.017) scale(0.966 1)" gradientUnits="objectBoundingBox"><stop offset="0" stop-color="#45ffcd"/><stop offset="1" stop-color="#22e0ff"/></radialGradient><linearGradient id="r" x1="0.5" y1="1" x2="0.5" y2="-0.001" xlink:href="#l"/><linearGradient id="s" x1="0.5" y1="1" x2="0.5" gradientUnits="objectBoundingBox"><stop offset="0" stop-color="#d4e2ff"/><stop offset="1"/></linearGradient><linearGradient id="t" y1="0.5" x2="1" y2="0.5" gradientUnits="objectBoundingBox"><stop offset="0"/><stop offset="1" stop-color="#d4e2ff"/></linearGradient><linearGradient id="u" x1="-0.005" y1="0.5" x2="1" y2="0.5" gradientUnits="objectBoundingBox"><stop offset="0" stop-color="#8879ea"/><stop offset="1" stop-color="#9e8cef"/></linearGradient><linearGradient id="v" x1="0.502" y1="1.001" x2="0.502" y2="0.001" gradientUnits="objectBoundingBox"><stop offset="0" stop-color="#b9acf4"/><stop offset="1" stop-color="#e1d1f5"/></linearGradient><linearGradient id="w" x1="0.499" y1="1.002" x2="0.499" y2="0.002" xlink:href="#b"/><linearGradient id="x" x1="0.5" y1="1" x2="0.5" y2="0" gradientTransform="matrix(1, 0, 0, 1, 0, 0)" xlink:href="#q"/><linearGradient id="y" x1="43.772" y1="1" x2="43.772" y2="0" xlink:href="#v"/><linearGradient id="z" x1="92.022" y1="1" x2="92.022" y2="0" xlink:href="#b"/><linearGradient id="aa" x1="59.527" y1="1" x2="59.527" y2="0" gradientTransform="matrix(1, 0, 0, 1, 0, 0)" xlink:href="#q"/><linearGradient id="ab" x1="0.46" y1="1.014" x2="0.571" y2="0.006" xlink:href="#a"/><linearGradient id="ac" x1="0.5" y1="1" x2="0.5" gradientUnits="objectBoundingBox"><stop offset="0" stop-color="#0665bd"/><stop offset="1" stop-color="#1a1f77"/></linearGradient><linearGradient id="ad" y1="0.5" x2="1" y2="0.5" gradientUnits="objectBoundingBox"><stop offset="0"/><stop offset="1" stop-color="#6a9bff"/></linearGradient><linearGradient id="ae" x1="0" y1="0.5" x2="0.999" y2="0.5" xlink:href="#ad"/><linearGradient id="af" x1="0.139" y1="1.055" x2="0.139" y2="0.057" gradientUnits="objectBoundingBox"><stop offset="0"/><stop offset="1" stop-color="#00e3ff"/></linearGradient><linearGradient id="ag" x1="0.501" y1="0.997" x2="0.501" y2="-0.002" xlink:href="#l"/><linearGradient id="ah" x1="0.48" y1="1.014" x2="0.647" y2="0.003" xlink:href="#b"/><linearGradient id="ai" x1="0.125" y1="1.537" x2="0.125" y2="0.432" gradientUnits="objectBoundingBox"><stop offset="0" stop-color="#dd1a8f"/><stop offset="1" stop-color="#fe117e"/></linearGradient><linearGradient id="aj" x1="0.5" y1="1" x2="0.5" y2="0.003" gradientUnits="objectBoundingBox"><stop offset="0" stop-color="#d93de3"/><stop offset="1" stop-color="#ff6dba"/></linearGradient><linearGradient id="ak" x1="0" y1="0.5" x2="1" y2="0.5" xlink:href="#t"/><linearGradient id="al" x1="0.5" y1="1" x2="0.5" y2="0" xlink:href="#l"/><linearGradient id="am" x1="0" y1="0.5" x2="1.001" y2="0.5" xlink:href="#s"/><linearGradient id="an" x1="0.5" y1="1" x2="0.5" y2="0" xlink:href="#a"/><radialGradient id="ao" cx="0.517" cy="0.845" r="2.37" gradientTransform="translate(0.362) scale(0.298 1)" xlink:href="#q"/><linearGradient id="ap" x1="0.5" y1="1" x2="0.5" y2="0" xlink:href="#ac"/><linearGradient id="aq" x1="0.324" y1="0.98" x2="0.57" y2="0.034" xlink:href="#a"/><radialGradient id="ar" cx="0.517" cy="0.845" r="0.738" gradientTransform="translate(-0.001)" xlink:href="#q"/><linearGradient id="as" x1="0.385" y1="0.987" x2="0.615" y2="0.013" xlink:href="#ai"/><linearGradient id="at" x1="0.385" y1="0.987" x2="0.615" y2="0.013" gradientUnits="objectBoundingBox"><stop offset="0" stop-color="#e33da5"/><stop offset="1" stop-color="#ff6da3"/></linearGradient><linearGradient id="au" x1="0.444" y1="0.993" x2="0.521" y2="-0.069" xlink:href="#a"/><linearGradient id="av" x1="0.5" y1="1" x2="0.5" y2="0" xlink:href="#b"/><linearGradient id="aw" x1="0.469" y1="0.978" x2="0.536" y2="0.014" gradientUnits="objectBoundingBox"><stop offset="0" stop-color="#ea427a"/><stop offset="1" stop-color="#fe117e"/></linearGradient><linearGradient id="ax" x1="0.5" y1="1" x2="0.5" y2="0" xlink:href="#l"/><linearGradient id="ay" x1="0.458" y1="0.997" x2="0.574" y2="0.045" xlink:href="#a"/><linearGradient id="az" x1="0.431" y1="0.952" x2="0.605" y2="0.008" xlink:href="#a"/><linearGradient id="ba" x1="0.499" y1="1.001" x2="0.499" y2="-0.002" xlink:href="#e"/><linearGradient id="bb" x1="0.5" y1="1" x2="0.5" y2="0" xlink:href="#e"/><linearGradient id="bc" x1="0.499" y1="1" x2="0.499" y2="0" xlink:href="#e"/><radialGradient id="bd" cx="0.502" cy="0.492" r="0.519" gradientTransform="translate(0.011 0.02) scale(0.964 0.961)" gradientUnits="objectBoundingBox"><stop offset="0"/><stop offset="0.23" stop-color="#010303"/><stop offset="0.37" stop-color="#050b0b"/><stop offset="0.48" stop-color="#0b1919"/><stop offset="0.58" stop-color="#132d2d"/><stop offset="0.67" stop-color="#1f4848"/><stop offset="0.75" stop-color="#2c6868"/><stop offset="0.83" stop-color="#3d8e8e"/><stop offset="0.91" stop-color="#50baba"/><stop offset="1" stop-color="#6dffff"/></radialGradient><linearGradient id="be" y1="0.5" x2="1" y2="0.5" gradientUnits="objectBoundingBox"><stop offset="0" stop-color="#6a9bff"/><stop offset="1"/></linearGradient></defs><g transform="translate(-66.77 -99.674)"><path class="a" d="M179.629,239.7h0c0,1.921-.56,39.11-8,54.116-1.922,3.916-4.33,6.324-7.3,6.2-10.558-.438-34.521-44.971-43.985-70.241a62.372,62.372,0,0,1-3.868-13.547c-.219-2.189,0-3.429,1.192-3.454a49.824,49.824,0,0,1,6.593.292l.876.122c26.25,3.162,51.7,24.054,54.3,26.268Z" transform="translate(81.908 239.484)"/><path class="b" d="M180.222,239.7c-34.959,3.04-58.216-15.444-63.252-23.4-1.289-2.019-1.338-3.356,0-3.454a37.493,37.493,0,0,1,7.858.292l.876.122c23.16,3.5,51.453,24.176,54.3,26.268Z" transform="translate(81.315 239.484)"/><path class="c" d="M205.593,216.18a69.061,69.061,0,0,1-4.7,15.736c-9.95,25.538-32.891,67.639-43.182,68.1a7.444,7.444,0,0,1-6.349-4.427c-8.563-13.912-8.977-55.94-8.977-55.94l.219-.17c2.627-2.213,28.147-23.2,54.445-26.292h.73a50.4,50.4,0,0,1,6.617-.292C205.447,212.775,205.812,214.016,205.593,216.18Z" transform="translate(119.147 239.656)"/><path class="d" d="M205.622,216.253c-4.866,7.9-28.171,26.486-63.252,23.422l.219-.17c2.846-2.116,31.261-22.838,54.445-26.292h.73a37.453,37.453,0,0,1,7.858-.292C206.936,212.921,206.887,214.234,205.622,216.253Z" transform="translate(119.119 239.584)"/><path class="e" d="M180.194,239.7h0c0,1.921-.56,39.11-8,54.116,0,0-2.068-39.3-12.529-48.206s-38.8-15.761-38.8-15.761A62.377,62.377,0,0,1,116.99,216.3c-1.289-2.019-1.338-3.356,0-3.454a37.491,37.491,0,0,1,7.858.292l.876.122c26.25,3.162,51.7,24.054,54.3,26.268Z" transform="translate(81.344 239.484)"/><path class="f" d="M205.593,216.239a69.06,69.06,0,0,1-4.7,15.736c-4.866,1.046-31.067,7.1-40.311,23.106-7.736,13.353-9.05,32.08-9.22,40.544-8.563-13.912-8.977-55.94-8.977-55.94l.219-.17c2.627-2.213,28.147-23.2,54.445-26.292h.73a37.449,37.449,0,0,1,7.858-.292C206.907,212.907,206.858,214.22,205.593,216.239Z" transform="translate(119.147 239.598)"/><path class="g" d="M183.7,184.078a137.1,137.1,0,0,1-4.7,24.322,98.312,98.312,0,0,1-6.933,8.659,171.514,171.514,0,0,1-76.559,49.762c-.949.341-1.9.608-2.871.9-6.374,1.848-18.075-17.269-12.018-33.54a23.763,23.763,0,0,1,2.214-4.548,91.968,91.968,0,0,1,14.11-15.809,335.012,335.012,0,0,1,70.794-50.3h0a141.365,141.365,0,0,1,16.518-7.3A159.248,159.248,0,0,1,183.7,184.078Z" transform="translate(28.232 158.516)"/><path class="h" d="M97.771,225.132a14.013,14.013,0,0,1-2.433,2.189c-9.488,7.053-23.4,2.967-15.716-26.438a26.24,26.24,0,0,1,3.138-8.391,13.575,13.575,0,0,1,10.7-7.1C106.432,184.222,107.891,213.676,97.771,225.132Z" transform="translate(26.023 200.23)"/><path class="i" d="M185.939,184.064l-11.629,33a171.515,171.515,0,0,1-76.559,49.762,14.021,14.021,0,0,1-2.433,2.189c-9.488,7.053-23.4,2.967-15.716-26.438a26.239,26.239,0,0,1,3.138-8.391,23.759,23.759,0,0,1,2.214-4.548,91.968,91.968,0,0,1,14.11-15.809c-.487.876-3.868,7.613,3.309,10.191,7.688,2.748,48.242-6.907,66.074-26s17.248-36.872,1.435-34.488a141.352,141.352,0,0,1,16.519-7.3,159.25,159.25,0,0,1-.462,27.824Z" transform="translate(25.994 158.53)"/><path class="j" d="M112.445,190.3c-10.023-1.824-40.433,20.211-50.115,64.6,0,0,.657,3.575,9.731,3.892s24.5-16.2,34.983-25.927S129.158,193.342,112.445,190.3Z" transform="translate(4.44 207.163)"/><path class="k" d="M66.31,257.582s15.764-23.495,18.927-29.332c0,0,5.985-29.186,15.4-34.975s12.5.681,14.6,7.929S101.78,252.4,66.31,257.582Z" transform="translate(10.142 208.372)"/><path class="l" d="M73.78,227.9s3.771,8.634,8.563,10c0,0-4.038-28.311,3.041-43.293a86.912,86.912,0,0,0-11.6,33.3Z" transform="translate(20.845 213.469)"/><path class="m" d="M86.032,193.743s9.731-6.81,15.059,6.153a119.157,119.157,0,0,1-13.672,42.612s-6.082,1.727-8.417-.827C73.8,236.063,75.328,201.185,86.032,193.743Z" transform="translate(24.187 209.681)"/><path class="n" d="M246.238,287.934c-4.647,27.338-29.193,45.579-64.249,45.579-30.556,0-56.44-11.383-63.252-36.483s-4.209-71.409,4.866-100.279a90.76,90.76,0,0,1,4.866-12.4h0a82.687,82.687,0,0,1,5.79-10.167h0C145.4,157.4,161.724,146.43,180.164,146.43a55.96,55.96,0,0,1,43.936,19.6A63.916,63.916,0,0,1,235,184.372a180.178,180.178,0,0,1,7.542,24.152,1.071,1.071,0,0,0,0,.243,204.693,204.693,0,0,1,3.7,79.168Z" transform="translate(79.743 144.456)"/><path class="o" d="M246.238,265.6c-4.647,27.338-29.193,45.579-64.249,45.579-30.556,0-56.44-11.383-63.252-36.483s-4.209-71.409,4.866-100.279a90.763,90.763,0,0,1,4.866-12.4h0s-18.489,61.291-3.7,100.328,83.639,38.21,107.042,12.161c22.187-24.662,11.945-82.694,10.9-88.215a204.693,204.693,0,0,1,3.528,79.314Z" transform="translate(79.743 166.794)"/><path class="p" d="M117.317,232.526c5.23-36.7,34.667-61.583,67.388-58.494,35.251,3.332,54.2,36.969,53.691,65.839s-21.6,51.416-59.433,51.416S112.452,266.747,117.317,232.526Z" transform="translate(82.452 183.642)"/><path class="q" d="M117.45,233.776c5.23-36.7,34.691-61.583,67.388-58.494,35.275,3.332,54.226,36.969,53.716,65.839s-21.627,51.416-59.457,51.416S112.56,268.094,117.45,233.776Z" transform="translate(82.635 185.432)"/><path class="r" d="M212.913,165.966c-7.493,11.723-48.655,18.558-72.448,16.369-20.727-1.873-17.589-7.467-17.419-8.172,11.142-16.782,27.466-27.751,45.906-27.751A55.96,55.96,0,0,1,212.913,165.966Z" transform="translate(91.052 144.427)"/><path class="s" d="M154.67,162.828c-1.9.632-1.995,16.052,0,18.533s5.23,1.727,6.3-1.9S157.565,161.856,154.67,162.828Z" transform="translate(134.65 167.897)"/><path class="s" d="M156.136,172.118c-1.606.389-1.8,4.208-1.046,5.545a2.433,2.433,0,0,0,3.965-.559C159.493,175.475,157.741,171.851,156.136,172.118Z" transform="translate(136.736 181.251)"/><path class="t" d="M125.65,217.8s8.442,14.593,39.922,14.812,44.252-18.582,44.252-18.582a45.941,45.941,0,0,1-35.275,3.794C153.773,212.112,133.24,208.926,125.65,217.8Z" transform="translate(95.163 238.787)"/><path class="u" d="M122.343,207.661c6.228,9.923,31.8,4.645,60.625,7.442s33.743,12.161,39.824,10.288-3.528-45.263-46.588-48.206S120.811,205.2,122.343,207.661Z" transform="translate(90.247 188.247)"/><path class="v" d="M163.626,158.092a18.464,18.464,0,0,0-4.866-4.232s7.882,39.936,23.622,56.281C182.382,210.141,175.522,172.466,163.626,158.092Z" transform="translate(142.602 155.122)"/><path class="w" d="M167.93,87.493S183.135,74.432,201.77,72c0,0,5.693,2.773,12.164,23.3s-5.571,61.023-5.571,61.023Z" transform="translate(155.74 37.883)"/><path class="x" d="M190.724,72a65.659,65.659,0,0,0-15.083,42.15l5.839,3.673L198.508,82.7S192.816,71.783,190.724,72Z" transform="translate(166.787 37.881)"/><path class="y" d="M178.107,112.874S174.093,90.6,188.714,74.3c0,0,16.543,7.783,23.379,36.653s-10.972,46.211-10.972,46.211Z" transform="translate(169.599 41.177)"/><path class="s" d="M175.337,76.283c-2.8,1.508-2.579,4.548,3.236,3.77s9-5.3,8.369-6.2S178.5,74.58,175.337,76.283Z" transform="translate(163.854 40.167)"/><path class="z" d="M143.769,88.786s-15.2-13.109-33.84-15.4c0,0-5.693,2.773-12.285,23.3s5.571,61.023,5.571,61.023Z" transform="translate(52.23 39.874)"/><path class="aa" d="M106.125,73.394a65.659,65.659,0,0,1,15.083,42.174l-5.839,3.673L98.34,84.12S104.033,73.078,106.125,73.394Z" transform="translate(56.034 39.87)"/><path class="ab" d="M126.382,114.224s4.014-22.23-10.631-38.574c0,0-16.519,7.807-23.355,36.677a53.086,53.086,0,0,0,12.869,48.06Z" transform="translate(45.581 43.111)"/><path class="s" d="M115.927,77.615c2.822,1.508,2.6,4.548-3.211,3.794s-9-5.326-8.369-6.2S112.788,75.912,115.927,77.615Z" transform="translate(64.527 42.119)"/><path class="ac" d="M102.3,237.368c23.306,53.751,197.76,36.994,218.609-7.3,22.795-48.3-29.631-167.65-113.221-162.081C137.068,72.807,72.332,168.246,102.3,237.368Z" transform="translate(50.951 31.872)"/><path class="ad" d="M105.26,216.436c22.284,44.1,174.551,36.8,196.811-3.721,18.878-34.44-25.739-139.242-102.176-135.5S83.754,174.116,105.26,216.436Z" transform="translate(57.628 45.216)"/><path class="s" d="M151.376,72.952c-1.581,1.9,17.029,9.948,19.462,8.8S156.7,66.677,151.376,72.952Z" transform="translate(131.886 36.931)"/><path class="ae" d="M112.933,117.448c-1.752,10.507,18.148,9.315,49.993,8.269,38.243-1.265,76.681,31.618,99.038,8.026,3.7-3.891-32.915-55.016-77.119-53.873S114.466,108.352,112.933,117.448Z" transform="translate(76.789 49.129)"/><path class="af" d="M121.1,144.285c-2.019,7.613,13.915,15.225,53.083,13.3,47.342-2.432,57.389-12.161,55.078-14.982-1.411-1.654-15.594,7.3-54.47-1.24C149.028,135.748,123.168,136.284,121.1,144.285Z" transform="translate(88.401 131.886)"/><path class="ag" d="M103.975,159.522a103.757,103.757,0,0,1,.292-25.878c1.946-14.812,5.936-24.322,8.3-23.057s2.019,15.858,3.406,30.159c1.095,11.115,3.236,21.549,3.236,21.549S108.962,172.145,103.975,159.522Z" transform="translate(63.147 92.985)"/><path class="ah" d="M115.088,160.289s2.433-2.554,14.986-9.972c8.466-4.986,17.37-10.872,18.635-13.037,1.873-5.083-36.273-2.067-36.273-2.067l-14.6,6.956a49.622,49.622,0,0,0,17.248,18.12Z" transform="translate(55.318 127.144)"/><path class="ai" d="M119.916,98.74s9.731,6.348,3.406,21.014c0,0-45.979,25.027-43.328,52.292,2.238,22.765,65.685,11.747,65.685,11.747l2.262,7.588s-53.959,10.556-72.57-2.116c0,0-6.325-15.031,9.366-42.15A316.7,316.7,0,0,1,119.916,98.74Z" transform="translate(21.321 76.18)"/><path class="aj" d="M101.126,138.708c-5.79,6.543,6.5,13.717,16.592,14.812,11.337,1.24,31.456-3.259,30.239-14.593S114.7,123.361,101.126,138.708Z" transform="translate(57.894 119.15)"/><path class="ak" d="M100.571,139.562c-.365,1.848,40.092,2.311,41.041-4.864S103.223,125.115,100.571,139.562Z" transform="translate(59.228 119.511)"/><path class="al" d="M198.813,82.7s-5.352-6.64-12.675-4.864-7.785,24.76-3.406,25.343,6.228-12.745,9.561-14.836a17.033,17.033,0,0,1,9.22-1.265Z" transform="translate(172.929 45.812)"/><path class="am" d="M179.678,178.755s-24.936-25.2-32.988-50.395l62.522,41.153S187.95,176.979,179.678,178.755Z" transform="translate(125.308 118.601)"/><path class="an" d="M94.12,94.3a9.976,9.976,0,0,1,9.147-2.165c6.325,1.021,9.974,14.034,13.21,12.72S117.353,82.5,108.79,76.3C108.79,76.3,97.745,85.737,94.12,94.3Z" transform="translate(49.988 44.042)"/><path class="ao" d="M101.488,104.81s-21.895,25.538-20.606,27.313S102.875,107.388,101.488,104.81Z" transform="translate(30.942 84.873)"/><path class="ap" d="M113.525,113.7a103.125,103.125,0,0,1,39.97,3.016c2.919.876-6.155-9.729-20-11.674S112.625,108.9,113.525,113.7Z" transform="translate(77.681 84.646)"/><path class="aq" d="M133.954,130.562c3.455-10.458,16.592-10,19.268-.608,2.871,9.972-8.661,21.452-13.891,19.628S131.4,138.3,133.954,130.562Z" transform="translate(105.664 110.66)"/><path class="ar" d="M149.136,169.994C136.8,135.749,169.231,91.8,219.1,86.23c0,0,47.293,30.427,36.346,114.459C255.448,200.688,181.1,258.7,149.136,169.994Z" transform="translate(125.052 58.263)"/><path class="as" d="M176.35,86.23s16.859.146,36.686,16.636,29.193,64.866-.341,97.822C212.7,200.688,225.906,133.171,176.35,86.23Z" transform="translate(167.804 58.263)"/><path class="at" d="M159.555,143.1c1.435,15.639,47.974,14.155,55.492,0,6.033-11.358-11.483-48.425-30.02-45.774S157.536,121.043,159.555,143.1Z" transform="translate(143.34 73.966)"/><path class="au" d="M215.971,86.49a71.944,71.944,0,1,0,71.961,71.944A71.953,71.953,0,0,0,215.971,86.49Zm0,131.849a59.9,59.9,0,1,1,59.919-59.9A59.912,59.912,0,0,1,215.971,218.339Z" transform="translate(121.469 58.636)"/><path class="av" d="M215.971,84.43a71.9,71.9,0,1,1-.016,0Zm0,131.824a59.9,59.9,0,1,1,59.919-59.9,59.912,59.912,0,0,1-59.919,59.9Z" transform="translate(121.469 55.685)"/><path class="aw" d="M271.243,172.121s-15.57,29.454-35.324,39.182-49.945-1.994-59.7-9.729c-13.307-10.58-18.2-47.063-12.577-47.063,5.084,0,10.072,3.867,26.225,5.91h0a157.4,157.4,0,0,0,15.716,1.143,109.085,109.085,0,0,0,37.124-6.1,96.531,96.531,0,0,0,10.339-4.11C264.748,151.3,271.243,172.121,271.243,172.121Z" transform="translate(146.308 151.527)"/><path class="ax" d="M198.276,151.87s-1.435,21.646,6.885,24.614,13.307-5.108,13.307-5.108l4.136-8.8Z" transform="translate(199.083 152.272)"/><path class="ay" d="M187.69,151.8s29.68,32.567,49.969,45.774c0,0,12.6-1.508,15.059-13.961L209.39,133.58Z" transform="translate(184.052 126.077)"/><path class="az" d="M239.85,168.7s-27.758-21.257-32.818-22.984a37.99,37.99,0,0,0-5.766,11.115c-1.752,5.983,29.85,35.656,29.85,35.656s-29.388-23.811-42.817-40.155a181.822,181.822,0,0,0,21.749-18.023Z" transform="translate(184.926 127.123)"/><path class="ba" d="M204.907,156.968c-.389,1.727-12.5,5.083-15.813-1.313a14.3,14.3,0,0,1-.827-1.921,9.119,9.119,0,0,1,3.284-11.164h0l.17.17C193.546,144.37,205.247,155.363,204.907,156.968Z" transform="translate(183.816 138.952)"/><path class="bb" d="M227.041,174.417l-5.912-6.81s-19.876-9.875-23.89-27.557h0s4.622-9.437,14.451-9.729c3.917-.122,7.444,5.035,10.145,11.991h0C225.849,152.819,228.282,167.509,227.041,174.417Z" transform="translate(197.735 121.407)"/><path class="bc" d="M271.243,172.05s-15.57,29.454-35.324,39.182-49.945-1.994-59.7-9.729c-13.307-10.58-18.2-47.063-12.577-47.063,5.084,0,10.072,3.867,26.225,5.91-1,0-14.767-1.021-17.2,2.87s25.179,44.606,52.767,33.418,21.895-41.031,17.3-41.128h0a96.537,96.537,0,0,0,10.339-4.11C264.748,151.23,271.243,172.05,271.243,172.05Z" transform="translate(146.308 151.598)"/><path class="bd" d="M204.47,156.84c-.389,1.727-12.5,5.083-15.813-1.313a14.3,14.3,0,0,1-.827-1.921c2.652,3.332,6.763,2.748,8-.924s-3.455-8.877-4.5-10.021C193.109,144.241,204.811,155.234,204.47,156.84Z" transform="translate(184.252 139.081)"/><path class="be" d="M227.041,168.687l-5.912-6.81S201.254,152,197.24,134.32c.486.949,10.047,15.809,20.265,17.171,7.517,1.021,4.549-13.961,4.306-14.958h0C225.849,147.089,228.282,161.779,227.041,168.687Z" transform="translate(197.735 127.137)"/><path class="s" d="M80.223,199.18a19.454,19.454,0,0,0-2.7,12.453,18.164,18.164,0,0,0,2.7-12.453Z" transform="translate(26.006 220.028)"/><path class="s" d="M67.63,217.937a16.1,16.1,0,0,1,5.547-9.607S70.963,216.478,67.63,217.937Z" transform="translate(12.034 233.133)"/><path class="s" d="M92.466,186.945c-.754-1.289,13.964-15.4,18.173-15.882s-1.435,1.459-4.866,6.688S93.8,189.279,92.466,186.945Z" transform="translate(47.578 179.656)"/><path class="s" d="M101.662,172.634c-1.533-1.751,6.666-4.864,6.666-4.864S103.268,174.483,101.662,172.634Z" transform="translate(60.521 175.043)"/><path class="s" d="M173.6,160.713c-.56,3.381,16.64,3.381,16.348,0S174.182,157.332,173.6,160.713Z" transform="translate(163.842 161.305)"/><path class="s" d="M127.563,230.849c-2.287,1.046,1.946,12.647,5.109,12.4S130.239,229.585,127.563,230.849Z" transform="translate(96.972 265.264)"/><ellipse class="bf" cx="59.846" cy="57.691" rx="59.846" ry="57.691" transform="translate(277.571 156.532)"/><path class="bg" d="M151.785,131.926c.511,10.653,17.784,14.593,51.4-2.092,26.76-13.158,52.4,1.848,54.616-2.238s-25.763-38.039-56.1-34.221S151.322,122.441,151.785,131.926Z" transform="translate(132.596 68.07)"/></g></svg>