<svg xmlns="http://www.w3.org/2000/svg" width="9.761" height="19.541" viewBox="0 0 9.761 19.541">
  <path id="Icon" d="M12590.378-12586.207h-.016a.759.759,0,0,1-.267-.055l-.053-.023h-.021s0,0,0,0h-.008s0,0,0,0h-.01s0,0,0,0h-.027l0,0h0l0,0h0l0,0h0l-.008,0h0a.708.708,0,0,1-.069-.055h0l0,0h0l0,0h0l0,0h0v0h0l0,0h0l0,0h0v0h0l0,0h0s0,0,0,0h0l-3.379-3.384a.749.749,0,0,1-.22-.531.745.745,0,0,1,.22-.529.75.75,0,0,1,1.061,0l2.1,2.1V-12605a.75.75,0,0,1,.75-.75h4.882a.75.75,0,0,1,.75.75.75.75,0,0,1-.75.75h-4.132v15.479l2.1-2.1a.75.75,0,0,1,1.061,0,.747.747,0,0,1,.22.53.748.748,0,0,1-.22.53l-3.38,3.384h-.009l0,0h0l0,0h0v0h0l0,0h0a.748.748,0,0,1-.225.145h0a.742.742,0,0,1-.272.057h-.014Z" transform="translate(-12586.249 12605.748)" fill="#5074ff" opacity="0.64"/>
</svg>
