<svg xmlns="http://www.w3.org/2000/svg" xmlns:xlink="http://www.w3.org/1999/xlink" width="1168.516" height="250.196" viewBox="0 0 1168.516 250.196"><defs><style>.a{fill:url(#a);}</style><linearGradient id="a" x1="0.5" x2="0.5" y2="1" gradientUnits="objectBoundingBox"><stop offset="0" stop-color="#e3e3e3"/><stop offset="1" stop-color="#f7f7f7"/></linearGradient></defs><path class="a" d="M12849.787,12621.2v-.033h-15.275v.033h-9.463v-.033h-15.271v.033h-9.461v-.033h-15.26v.033h-9.458v-.033h-6.465v-2.855h.354v-25.637h.343v-6.042h-.343v-1.136h.343v-.726h1.43v-1.133h.08v-.729h.913v.729h.077v1.133h1.434v.726h3.265l.32-20.248h-.839v-1.219h-1.186v-.892h-.37v-1.218h-7.8v59.246h-6.835v.033h-9.463v-.033h-15.225v.033h-9.462v-.033h-11.395v-.017h-80.9v0h-2.59v.029h-35.862v0h-24.439v0h-153.309v-.009H12256.34v.016h-176.647v-.013h-160.033v-1.3h.993v-1.3h.93v-1.3h.961v-1.3h.973v-35.841h35.895a74.431,74.431,0,0,1,14.028-3.69c13.118-2.16,22.476-3.582,29.409-4.516v-23.2h-.948v-1.19h-.514v-1.193h11.653v1.193h-.521v1.19h-.949v5.481h20.464v-5.481h-.818v-1.19h-.3v-1.193h7v1.193h-.307v1.19h-.817v21.482c4.758.094,11.229.623,26.012,2.811v-57.471h35.842v43.217l12.1-5.192h12.082v-40.624h24.484v-6.57h-.354v-.74h-.61v-.905h27.878v.905h-.61v.74h-.354v6.57h24.483v40.624h10.975v-24.146h28.944v-54.168h5.906v-2.64h17.264v2.64h5.9v4.733h10.109v-4.733h5.908v-2.64h17.258v2.64h5.9v84.338h14.924v-53.213h6.248v-2.249h7.035v-8.338h4.758v-5.683h2.758v5.683h4.759v8.338h7.033v2.249h6.249v53.213h6.647v-53.213h6.248v-2.249h7.035v-8.338h4.758v-5.683h2.758v5.683h4.757v8.338h7.035v2.249h6.249v64.231h6.782v-.819h.162v-.432h.293v-2.646h3.476v2.646h.288v.432h.168v.819h3.747v-6h-.465v-1.04H12419v-1.042h-.279v-1.548h-.307v-.721h.307v-3.39h-.307v-.729h-.326v-1.548h.612v-1.218h-.612v-.717h-.306v-.639h1.957v-7.4h-.205v-.61h-.208v-.607h-.643v-.677h-.249v-.555h2.994V12523.6h-.183v-.606h-.187v-.611h-.578v-.673h-.225v-.553h2.351v-7.4h-.172v-.612h-.175v-.606h-.533v-.672h-.2v-.559h2.13v-.063a12.713,12.713,0,0,1,1.006-4.963v-68.858h2.718v-8.855h4.317v8.855h2.717v20h31.5v97.553h18.306v-.326h-3.152v-30.628h-.656v-1.494h-.427v-4.632h-.3v-1.506h.795v-2.314h-.428v-1.49h4.37a40.107,40.107,0,0,1,30.967-37.364v-3.683h2.948v-1.7h5.23v-13.369h-4.127v-1.849h4.1v-7.324h1.85v7.324h4.123v1.849h-4.123v13.369h5.223v1.7h2.953v3.693a40.12,40.12,0,0,1,30.953,37.369h4.371v1.491h-.429v2.313h.812v1.49h-.307v4.619h-.426V12524h-.646v17.036a12.476,12.476,0,0,1,2.89-.768c1.376-.024,2.69.912,4.071.941v6.036c-1.381-.028-2.691-.969-4.071-.94a12.326,12.326,0,0,0-2.89.768v7.559h-1.18v.329h8.362l4.171-67.519h-1.634v-2.539h1.483v-3.654a10.939,10.939,0,0,1-4.543-3.408c-.06-.068-.109-.154-.166-.231-.135-.175-.27-.359-.4-.55-.064-.1-.118-.208-.18-.3-.122-.2-.245-.4-.354-.611l-.028-.052a11.221,11.221,0,0,1-.47-1.036c-.051-.129-.091-.257-.141-.4s-.1-.284-.15-.432c-.091-.3-.168-.605-.237-.911a10.977,10.977,0,0,1,.913-7.209c.024-.05.056-.094.081-.144.089-.171.2-.375.282-.51s.146-.247.244-.395.2-.3.3-.457c.054-.072.1-.149.15-.214h.017a10.985,10.985,0,0,1,5.344-3.846v-10.077h-.912v-1.666h2.237v-25.932h.745v-25.936h.46V12371h1.849v25.93h.457v25.936h.72v25.932h2.237v1.666h-.913v10.106a11.055,11.055,0,0,1,5.349,3.84h.016c.053.073.1.155.155.229a4.57,4.57,0,0,1,.3.435c.085.141.155.25.253.416s.188.329.275.5c.025.049.054.094.082.146a10.893,10.893,0,0,1,.913,7.21c-.065.3-.146.607-.236.913-.041.138-.09.269-.143.407s-.094.285-.146.42a11.263,11.263,0,0,1-.47,1.037c-.012.019-.024.037-.035.058-.105.2-.226.391-.338.583-.066.094-.127.2-.193.3-.126.188-.26.372-.394.551-.058.078-.11.159-.167.228a10.945,10.945,0,0,1-4.547,3.408v3.654h1.487v2.539h-1.637l4.167,67.519h2.929v-.37h.605v-1.218h-.605v-.717h-.306v-.639h1.955v-7.4h-.2v-.61h-.213v-.607h-.643v-.677h-.25v-.555h3V12523.6h-.188v-.606h-.187v-.611h-.578v-.673h-.224v-.553h2.35v-7.4h-.17v-.612h-.176v-.606h-.528v-.672h-.209v-.559h2.1v-.063a12.741,12.741,0,0,1,12.393-12.73v-2.565a1.828,1.828,0,0,1,0-3.6v-2.893h.7v2.893a1.828,1.828,0,0,1,0,3.6v2.565a12.739,12.739,0,0,1,12.391,12.73v.063h2.131v.559h-.209v.672h-.528v.606h-.176v.612h-.17v7.409h2.361v.553h-.223v.677h-.579v.607h-.187v.61h-.183v16.409a24.963,24.963,0,0,1,3.457-1.907h-2.989v-.379h3.85a30.154,30.154,0,0,1,10.049-2.209c.643-.041,1.294-.063,1.951-.063h.162c.66,0,1.313.02,1.956.063a30.241,30.241,0,0,1,10.027,2.209h3.846v.379h-2.984a25.237,25.237,0,0,1,3.787,2.13h3.23v.375h-2.689a27.053,27.053,0,0,1,2.611,2.135h3.96v.374h-3.563a28.654,28.654,0,0,1,2,2.135h4.571c.125-.073.212-.111.264-.212.094-.2.185-1.274.4-1.315.213.041.289,1.119.392,1.315.054.1.142.139.269.212h.741v.379h-.3c.386.448-.27.862,0,1.45.166.361.3.3.394.245.058-.038.094-.07.11-.009a4.265,4.265,0,0,1,.167.44h3.222v-21.383h-.851v-1.433h.472v-1.437h.551v-21.531h-.546v-1.361h.439v-1.353h.526v-20.351h-.555v-1.3h.42v-1.286h.5v-20.8l-1.394-2.925h-.306v-5.694h4.248s-6.09-1.136-6.09-1.348a14.956,14.956,0,0,1,3.818-1.918c1.019-.282,2.008-.273,2.436-1.847s1.846-5.678,1.067-6.391-3.552-2.484-2.77-3.764,2.283-2.55,1.846-3.12a3.669,3.669,0,0,0-3.483-1.56c-2.249.068-4.3.142-4.871.211s-3.623-1.29-.36-1.988,6.571-1.135,6.163-1.918-6.017-2.83-6.017-4.606-.215-4.045.282-4.473a3.01,3.01,0,0,1,4.021.993c1.23,1.916.358,2.693,1.714,3.406a13.641,13.641,0,0,1,3.015,1.7c.4.5,1.141-.5,1.483-.781s.415-3.406.342-3.83a44.271,44.271,0,0,1,.974-4.541h1.218v9.873a12.178,12.178,0,0,0,7.936,0,50.04,50.04,0,0,1,8.467-1.776s-.211.563-1.274.912-5.177,1.916-5.177,1.916-1.85.5.138.639,2.343,1.063,1.423,1.491-4.017,1.349-4.494,1.776-3.225,1.979-3.013,2.269.956,3.475,1.425,3.972-1.227,1.845-1.087,3.267a5.837,5.837,0,0,0,1.987,3.405,10.274,10.274,0,0,1,2.081,4.183c.191,1.067.66,3.271,0,3.41-.276.057-.725-.477-1.332-1.011-.843-.745-2-1.49-3.446-.623a22.085,22.085,0,0,1-4.33,2.061h9.089v5.691h-.307l-1.393,2.929v20.815h.5v1.287h.419v1.29h-.554v20.334h.521v1.356h.444v1.356h-.525v21.535h.55v1.438h.472v1.434h-.851v22h.563v1.47h.484v1.467h15.079v.965h-.42v1.4h-.863v3.277h-.736v1.219h-.22v1h-.366v8.429h.646a.519.519,0,0,0-.065-.132.55.55,0,0,1-.045-.4s-.269-.264-.276-.431.5-.09.5-.183a.5.5,0,0,0-.036-.286c-.046-.09.032-.191.048-.244,0-.024.021-.013.037,0,.032.017.078.032.135-.082.094-.187-.131-.341,0-.492s.2-.13.24-.2.061-.461.134-.448.1.379.135.448.105.04.236.2-.09.3,0,.492c.058.123.105.1.135.082s.028-.021.036,0c.013.05.093.154.049.244a.569.569,0,0,0-.036.286c.012.093.518.015.5.183s-.272.431-.272.431a.561.561,0,0,1-.05.4,1.381,1.381,0,0,0-.065.132h4.38v-3.17h-1.112v-.892h-.681v-.629h2.326v-1.253h.632v-1.255h1.372v-71.079h8.05v-3.65h-4.106v-6.375h2.241v-12.61h.141v-12.615h.542v12.615h.147v12.61h38.354v-12.61h.144v-12.615h.542v12.615h.147v12.61h2.238v6.375h-4.11v3.65h8.05v52.477h3.593v-.347h-.646v-1.471h-.4v-1.45h10.877a1.256,1.256,0,0,1,0-.5c.068-.264.622-.3,1.218-.53s-.033-.924-.335-1.751-.061-1.188-.347-2.085-.442.361-.709.492-.231-.126-.795-.26-.528,1.751-.193,2.35.19,1.12-.335,1.12-.524-2-.595-2.844-.032-1.421.466-1.755a2.444,2.444,0,0,1,.162-2.875c.366-.5.2-.759-.065-.633s-.827-.326-1.059-1.087a5.452,5.452,0,0,1,0-2.517c.17-.926.729-1,1.522-.795s2.249,3.972,2.648,4.469a6,6,0,0,0,1.788,1.156c.664.366.795,2.151.795,2.151l1.422,1.324s-.2-1.459-.363-3.047.66-1.223.883-1.984a7.564,7.564,0,0,0,.352-2.681,1.721,1.721,0,0,1,.52-1.556c.1-.1.555-.009.889.1s.208.492.306,1.021a8.072,8.072,0,0,1-.1,1.922,2.3,2.3,0,0,0,.363,1.386,3.968,3.968,0,0,0,.627-1.319,13.737,13.737,0,0,0-.3-4.506c-.3-1.185.065-1.882.563-2.18s1.95-1.29,1.95-1.29l-.13-2.742s-1.719-.79-1.719-2.08a2.617,2.617,0,0,1,1.386-2.021v-.4h-1.061a.908.908,0,0,1-.264-.822c-1.584-.664-1.622-2.88-1.622-2.88l2.485,1.486v.729h.563l.329-1.886.164,1.788.762-.1-.1-.7s.925-.795,1.976-1.522a12.779,12.779,0,0,1-1.084,3.241,2.97,2.97,0,0,1-1.106.53v.465a3.187,3.187,0,0,1,1.339,1.918c.164,1.157-1.339,2.021-1.339,2.021v2.843a2.9,2.9,0,0,1,1.042,0c.893.073.4,1.25.176,1.824a1.473,1.473,0,0,0,.651,1.49c.113.012.094-.5.162-1.013s.236-1.032.733-1.008c.986.054,1.319,2.75,1.219,6.755.1-.5.859-3.777.887-3.874s.832.154,1.39.264-.094.991,0,1.324-.028.729.175,1.055a.645.645,0,0,1,.1.486.636.636,0,0,1-.277.41c-.306.233-.058.432,0,1.061a12.711,12.711,0,0,0,.522,1.95,7.024,7.024,0,0,1,.411,1.324c0,.3-.132,1.886-.132,1.886s2.217-1.658,2.282-2.18,1.592-1.462,2.216-1.625.655-1.254.962-2.778a5.134,5.134,0,0,1,1.828-2.647,2.845,2.845,0,0,1,.794,0c.331.065.231.362.88.266s-.217.595-.4.956a2.349,2.349,0,0,0-.123,1.59c.158.729-.493,1.322-.854,1.917s-.135.8.5,1.259-.194,1.327-.361,1.854.293.855.72,1.218-.358,1.715-.525,2.737-.627,1.157-.892,1.092-.266-.388-.065-.692a8.789,8.789,0,0,0,.729-2.313c.066-.627-1-.533-1.857-.1s-.293.993-.528,1.441a1.969,1.969,0,0,0-.306,1.271,6.433,6.433,0,0,0,.825,1.629h10.326v1.45h-.394v1.475h-.645v.343h3.438l.335-18.151h-.611v-.819h.257v-.529h-.547v-1.3h.547v-3.1h-.262v-.379h.262v-3.906h-.676v-.774h-2.79v-1.147h-.889v-1.272h-.416v-.606l4.644-1.431v-6.356h-.537v-.8h-.607v-.722h9.939v.722h-.61v.8h-.538v4.015l43.043-13.227v-3.893h-.538v-.795h-.607v-.725h9.939v.725h-.611v.795h-.533v3.893l43.039,13.227v-4.015h-.538v-.8h-.61v-.722h9.942v.722h-.611v.8h-.536v6.354l4.643,1.425v.612h-.415v1.27h-.889v1.149h-2.79v.773h-.651v3.9h.261v.387h-.261v3.1h.55v1.3h-.55v.53h.256v.818h-.61l.61,33.112h.285v.818h-.285v.53h.607v1.3h2.664v.98h-1.218v1.939h-.97v16.236l14.754,6.395v-.2h1.425v-1.133h.085v-.729h.913v.729h.082v1.133h1.429v.726h2.477v-6.069l-10.306-5.789h-.2v-.766h-.35v-.7h.549v-2.362h-.2v-.766h-.35v-.7h.549v-2.362h-.2v-.77h-.35v-.7h-1.051v-2.559h-.22v-.827h-.379v-.754h.6v-2.558h-.22v-.83h-.379v-.755h.379l5.437-2.586h6.143v-4.574h-3.274l-2.057-5.844h-.225v-.927h.225v-3.89h-1.121v-.736h-.545v-.563h1.666l4.412-4.4h8.357v-4.105h-2.094v-1.071h5.28v1.071h-2.095v4.105h8.358l4.411,4.4h1.666v.563h-.542v.736h-1.124v3.89h.229v.927h-.229l-2.053,5.844h-3.274v4.574h6.138l5.438,2.586h.383v.755h-.383v.83h-.22v2.558h.6v.754h-.383v.827h-.22v2.559h-1.048v.7h-.35v.77h-.2v2.362h.554v.7h-.35v.766h-.2v2.362h.554v.7h-.35v.766h-.2l-10.3,5.789v6.069h6.877v-.726h1.433v-1.133h.082v-.729h.913v.729h.081v1.133h1.429v.726h.339v1.145h-.339v6.041h.339v3.121h11.128v-6.751h-1.026v-1.227h6.172v-17.886h26.6V12551h1.026v5.905h4.488V12551h1.026v5.905h4.486V12551h1.03v5.905h4.484V12551h1.03v5.905h4.484V12551h1.03v5.905h.05v13.026h3.462v5.1h20.086v12.789h9.869v1.227h-1.021v2.33h.044v4.421h3.781v1.221h-1.023v6.749h7.409V12605h-1.206v6.745h5.406v1.45h-1.275v7.972h-227.654v.033Zm92.676-26.808h.081v-.035Zm-144.465-8.9v-.733h1.43v-1.137h.082v-.725h.918v.725h.076v1.137h1.256l.309-19.515h-.831v-1.219h-1.186v-.892h-.375v-1.218H12785.7v1.218h-.372v.892h-1.185v1.219h-.836l.321,20.248Zm10.3-3.3,8.393-3.638v-16.231h-.97v-.411h-5.3v1.218h-.375v.892h-1.187v1.219h-.83Zm-796.726-13.356h20.484v-2.017h-20.484Zm553.175-13.878h1.421v-.329h-1.421Zm110.6-3.633v-.688h-1.556l-.069.072a1.686,1.686,0,0,1,.036.616Zm-2.292-2.444c.041.277,1.511.062,1.49.55a1.723,1.723,0,0,1-.416.83h1.218v-.406h.486v-1.466h.561v-.258h-3.266A1.556,1.556,0,0,0,12673.05,12548.886Zm126.647-11.846c0,.3.367.094.631.33s-.235,1.166-.235,1.166h1.625a2.4,2.4,0,0,0,0-.867,3.619,3.619,0,0,1-.2-1.218,3.655,3.655,0,0,0-.135-1.622,6.033,6.033,0,0,1,0-2.086s-.827.717-.978.917a11.185,11.185,0,0,1-1.185.822c-.555.4.145.563.179.969a3.555,3.555,0,0,0,.329,1.116c.135.362.1.359.044.356a.033.033,0,0,0-.014,0C12799.729,12536.922,12799.7,12536.938,12799.7,12537.04Zm3.312-2.622c-.565.3-.464,1.89-.264,2.183a7.936,7.936,0,0,1,.264,1.927h.4c0-.292.031-1.43,0-1.96a3.23,3.23,0,0,1,.346-1.522c.19-.541.036-.778-.257-.778A1.056,1.056,0,0,0,12803.009,12534.418Zm-6.386,2.143c-.5.061-.563,1.967-.563,1.967h1.027s.031-1.969-.444-1.969A.06.06,0,0,0,12796.623,12536.561Zm-3.21.338v1.629h2.218v-1.96c-.053,0-.108-.006-.171-.006A10.992,10.992,0,0,0,12793.413,12536.9Zm-4.358,1.629h.659l-.032-1.991h-.335Zm-5.257,0h2.739s-.034-1,0-2.093a5.239,5.239,0,0,0-.363-2.017l-1.556-1.023a5.114,5.114,0,0,0-.428,1.287,10.888,10.888,0,0,0-.037,1.854h0A6.962,6.962,0,0,1,12783.8,12538.527Zm6.771-.008h2.416l-.376-1.52-2.04-.367Z" transform="translate(-11919.659 -12371)"/></svg>