<svg width="224" height="314" viewBox="0 0 224 314" fill="none" xmlns="http://www.w3.org/2000/svg">
<g clip-path="url(#clip0_1205_5463)">
<path fill-rule="evenodd" clip-rule="evenodd" d="M200.469 288.761C200.469 288.761 200.656 260.207 193.988 241.698C193.988 241.698 177.549 201.217 155.088 203.298C133.949 205.267 135.559 240.531 135.559 240.531C137.247 256.562 137.247 272.726 135.559 288.758H142.5C142.5 288.758 144.77 260.319 140.158 240.043C140.158 240.043 141.94 214.292 147.228 209.003C147.228 209.003 151.928 205.137 163.984 206.891C163.984 206.891 182.033 222.885 188.715 241.121C188.715 241.121 196.676 266.987 195.052 288.758L200.469 288.761Z" fill="url(#paint0_linear_1205_5463)"/>
<path fill-rule="evenodd" clip-rule="evenodd" d="M146.911 288.765C146.911 288.765 143.117 262.726 146.911 241.257C146.911 241.257 194.419 235.164 219.624 243.068C219.624 243.068 223.662 260.111 223.662 288.768L146.911 288.765Z" fill="url(#paint1_linear_1205_5463)"/>
<path fill-rule="evenodd" clip-rule="evenodd" d="M146.911 241.257H125.772C121.45 256.698 120.071 272.814 121.705 288.765H146.91C146.91 288.765 144.626 260.827 146.911 241.257Z" fill="url(#paint2_linear_1205_5463)"/>
<path opacity="0.56" fill-rule="evenodd" clip-rule="evenodd" d="M146.911 241.257H125.772C121.45 256.698 120.071 272.814 121.705 288.765H146.91C146.91 288.765 144.626 260.827 146.911 241.257Z" fill="#D6343F"/>
<path fill-rule="evenodd" clip-rule="evenodd" d="M125.772 241.256C125.772 241.256 179.129 230.651 219.624 243.067C195.621 238.755 171.099 238.145 146.911 241.256H125.772Z" fill="url(#paint3_linear_1205_5463)"/>
<path fill-rule="evenodd" clip-rule="evenodd" d="M160.102 288.765C160.102 288.765 167.028 270.227 185.307 268.374C203.586 266.521 211.576 288.765 211.576 288.765H160.102Z" fill="#D6343F"/>
<path fill-rule="evenodd" clip-rule="evenodd" d="M164.73 288.765C164.73 288.765 172.346 268.833 188.412 268.833C204.478 268.833 211.577 288.765 211.577 288.765H164.73Z" fill="url(#paint4_linear_1205_5463)"/>
<path fill-rule="evenodd" clip-rule="evenodd" d="M130.198 241.257V251.948L137.254 252.465L140.329 241.256C163.042 236.806 186.375 236.518 209.191 240.408C209.191 240.408 170.161 231.83 130.198 241.257Z" fill="#D6343F"/>
<path fill-rule="evenodd" clip-rule="evenodd" d="M218.072 288.761C218.072 288.761 218.259 260.207 211.591 241.698C211.591 241.698 195.151 201.217 172.705 203.298C151.552 205.267 153.162 240.531 153.162 240.531C154.859 256.562 154.859 272.727 153.162 288.758H160.103C160.103 288.758 162.374 260.319 157.775 240.043C157.775 240.043 159.543 214.292 164.831 209.003C164.831 209.003 169.531 205.137 181.601 206.891C181.601 206.891 199.636 222.885 206.318 241.121C206.318 241.121 214.279 266.987 212.655 288.758L218.072 288.761Z" fill="url(#paint5_radial_1205_5463)"/>
<path fill-rule="evenodd" clip-rule="evenodd" d="M121.705 288.764C121.705 288.764 120.268 268.746 128.129 265.01C136.435 261.044 145.229 288.764 145.229 288.764H121.705Z" fill="url(#paint6_linear_1205_5463)"/>
<path fill-rule="evenodd" clip-rule="evenodd" d="M123.387 288.764C123.387 288.764 121.95 268.746 129.811 265.01C138.117 261.044 146.911 288.764 146.911 288.764H123.387Z" fill="#D6343F"/>
<path fill-rule="evenodd" clip-rule="evenodd" d="M125.056 288.764C125.056 288.764 123.721 268.746 131.024 265.01C138.741 261.044 146.912 288.764 146.912 288.764H125.056Z" fill="#D6343F"/>
<path opacity="0.84" d="M201.517 276.607H178.683V278.518H201.517V276.607Z" fill="#D6343F"/>
<path opacity="0.19" fill-rule="evenodd" clip-rule="evenodd" d="M175.55 245.999L175.909 249.62L196.185 249.505V245.999H175.55Z" fill="#D6343F"/>
<path fill-rule="evenodd" clip-rule="evenodd" d="M121.705 288.764C121.705 288.764 120.268 268.746 128.129 265.01C136.435 261.044 145.229 288.764 145.229 288.764H121.705Z" fill="url(#paint7_linear_1205_5463)"/>
<mask id="mask0_1205_5463" style="mask-type:luminance" maskUnits="userSpaceOnUse" x="8" y="-1" width="173" height="289">
<path d="M180.661 -0.000976562H8.661V287.999H180.661V-0.000976562Z" fill="white"/>
</mask>
<g mask="url(#mask0_1205_5463)">
<path d="M112.788 112.408C112.788 112.408 111.608 132.287 104.788 146.699C104.788 146.699 103.37 124.261 112.788 112.408Z" fill="#C21651"/>
<path d="M58.469 156.937C58.469 156.937 39.509 155.049 33.198 140.337C33.198 140.337 53.127 139.717 58.469 156.937Z" fill="#C21651"/>
<path d="M77.541 16.4181C77.541 16.4181 61.153 -0.193912 53.931 -0.0439121C46.709 0.106088 47.346 11.2991 43.582 13.6231C39.818 15.9471 38.115 14.8651 35.196 18.7051C32.277 22.5451 32.773 41.0691 35.196 46.8211C37.619 52.5731 77.541 16.4181 77.541 16.4181Z" fill="url(#paint8_linear_1205_5463)"/>
<path d="M99.296 5.36088L96.364 4.76088C96.364 4.76088 37.771 -4.63313 26.477 68.1279L28.515 69.3699L99.296 5.36088Z" fill="url(#paint9_linear_1205_5463)"/>
<path d="M28.539 69.2473C28.539 69.2473 52.058 71.2103 75.354 53.8163C98.65 36.4223 99.296 5.36133 99.296 5.36133C99.296 5.36133 65.75 5.43633 48.058 23.3513C30.366 41.2663 28.539 69.2473 28.539 69.2473Z" fill="url(#paint10_linear_1205_5463)"/>
<path d="M144.495 85.534C146.356 82.7686 148.892 80.5235 151.863 79.011L151.279 76.311L154.335 67.477C154.335 67.477 151.117 66.235 144.495 71.391C137.873 76.547 138.995 87.543 138.995 87.543L144.495 85.534Z" fill="url(#paint11_linear_1205_5463)"/>
<path opacity="0.8" d="M87.629 22.0461C87.629 22.0461 87.293 18.3191 86.387 16.9891C85.481 15.6591 67.9 18.0821 59.513 22.7891C51.126 27.4961 46.057 30.8651 43.461 44.0891C41.461 54.1781 39.821 60.2411 39.821 60.2411C39.821 60.2411 81.218 36.6081 87.629 22.0461Z" fill="#F6502B"/>
<path d="M86.734 84.2302C79.9324 82.9609 73.069 82.0487 66.172 81.4972C56.672 80.8762 44.417 85.4732 44.417 85.4732C44.417 85.4732 37.223 82.7892 35.571 79.0122C33.919 75.2352 37.971 66.5882 41.783 54.0642C43.6072 47.8307 45.7681 41.7007 48.256 35.7012C48.256 35.7012 58.856 22.0342 70.856 22.0342C82.856 22.0342 87.815 25.3342 89.493 29.2772C91.171 33.2202 90.586 41.6272 92.115 46.3482C93.644 51.0692 97.557 59.5302 96.029 65.5312C94.501 71.5322 86.734 84.2302 86.734 84.2302Z" fill="url(#paint12_linear_1205_5463)"/>
<path d="M82.896 22.0459C88.276 25.5749 89.245 31.4639 89.245 35.7129C89.245 39.9619 88.077 45.3669 90.313 50.0749C92.549 54.7829 93.245 60.6608 89.133 65.6048C85.021 70.5488 83.952 72.7859 81.952 73.7309C79.952 74.6759 70.571 74.0419 60.06 68.8729C49.549 63.7039 44.679 48.7828 46.393 39.8368C48.107 30.8908 69.154 13.0639 82.896 22.0459Z" fill="url(#paint13_linear_1205_5463)"/>
<path d="M49.934 51.5162C49.934 51.5162 45.076 46.5462 40.989 49.1552C36.902 51.7642 40.132 61.4802 44.716 63.2072C45.9355 63.7413 47.2842 63.9083 48.5971 63.6877C49.91 63.4671 51.1301 62.8685 52.108 61.9652C52.108 61.9652 51.735 54.4112 49.934 51.5162Z" fill="url(#paint14_linear_1205_5463)"/>
<path opacity="0.65" fill-rule="evenodd" clip-rule="evenodd" d="M47.3921 56.2312C47.3921 56.2312 45.9934 51.9913 42.9626 50.7646C42.9626 50.7646 41.014 51.6419 41.7996 56.2299C41.7996 56.2299 41.9101 52.4661 43.2783 52.1745L44.5649 53.8436C43.948 54.8057 43.645 55.9357 43.6979 57.0774C43.8777 58.2425 44.4723 59.3035 45.3724 60.065C46.0518 59.6989 46.6068 59.1387 46.9665 58.4559C47.3263 57.7731 47.4744 56.9986 47.3921 56.2312Z" fill="#DD6668"/>
<path d="M57.115 67.022C57.115 67.022 60.097 79.722 59.736 81.372C59.2319 82.9105 58.5214 84.3735 57.624 85.721C57.624 85.721 67.862 95.735 73.515 95.971C79.168 96.207 77.242 89.026 77.242 89.026C75.1939 88.421 73.2499 87.5076 71.477 86.317C69.352 84.665 69.077 72.377 69.077 72.377C69.077 72.377 59.861 69.492 57.115 67.022Z" fill="#FF926D"/>
<path d="M105.881 131.666C105.881 131.666 114.681 136.499 117.808 136.971C120.935 137.443 130.058 124.547 136.171 110.88C139.642 102.658 142.426 94.1621 144.495 85.4802L140.569 84.1802C140.569 84.1802 133.969 98.7802 127.536 105.053C121.103 111.326 116.081 116.16 116.081 116.16L110.751 114.147C110.751 114.147 106.811 124.323 105.881 131.666Z" fill="url(#paint15_linear_1205_5463)"/>
<path d="M147.515 130.449C147.515 130.449 147.266 88.7902 148.472 78.2672C149.678 67.7442 168.662 45.1192 168.662 45.1192L138.918 36.6952L139.937 32.9682C139.937 32.9682 133.037 31.5522 129.588 32.0242L132.806 18.8052C132.806 18.8052 121.972 23.1532 119.139 31.8752C119.139 31.8752 116.393 63.9172 117.648 80.2302C118.903 96.5432 128.321 133.406 128.321 133.406C128.321 133.406 135.85 135.606 140.248 134.512L140.087 131.712C142.62 131.739 145.136 131.31 147.517 130.445L147.515 130.449Z" fill="url(#paint16_linear_1205_5463)" stroke="#EEEEEE"/>
<path opacity="0.7" d="M129.586 31.9731C129.586 31.9731 120.206 64.9351 119.086 74.2161C117.966 83.4971 127.373 129.604 127.373 129.604C127.373 129.604 125.994 82.4791 126.926 72.8251C127.858 63.1711 135.388 32.7531 135.388 32.7531L129.586 31.9731Z" fill="url(#paint17_linear_1205_5463)"/>
<path opacity="0.7" d="M138.916 36.6953C138.916 36.6953 135.388 66.8953 135.388 74.1953C135.388 81.4953 140.097 131.67 140.097 131.67H141.397C141.397 131.67 137.98 101.852 138.39 99.5283C138.8 97.2043 141.397 80.5283 141.397 80.5283L148.143 82.3423C148.143 82.3423 149.087 71.6703 153.473 66.2903C153.473 66.2903 144.118 53.7043 142.987 50.2503C141.856 46.7963 141.123 37.3413 141.123 37.3413L138.916 36.6953Z" fill="url(#paint18_linear_1205_5463)"/>
<path d="M149.826 59.0459C149.826 59.0459 153.205 64.8459 157.442 67.7459C157.442 67.7459 157.355 70.0199 153.864 70.5789L154.423 71.6349C154.11 72.3453 153.607 72.9557 152.969 73.3989C152.969 73.3989 153.516 75.5109 152.298 76.4929C152.062 76.9529 146.806 73.2629 144.93 71.0139C143.764 69.4325 143.181 67.497 143.278 65.5349C143.278 65.5349 142.57 64.5289 142.978 61.8819L153.166 70.0069L153.39 68.9389C151.717 67.6528 150.368 65.9933 149.451 64.0929C148.925 62.4246 149.06 60.6182 149.826 59.0459Z" fill="url(#paint19_linear_1205_5463)"/>
<path d="M152.335 77.8941C152.368 78.3804 152.245 78.8645 151.983 79.2757C151.722 79.687 151.335 80.0038 150.881 80.1801C149.137 79.9757 147.495 79.2481 146.172 78.0931C144.607 76.3661 144.372 73.2351 144.772 72.9121C147.108 74.8373 149.644 76.5075 152.335 77.8941Z" fill="url(#paint20_linear_1205_5463)"/>
<path d="M44.281 57.629C47.424 48.929 44.045 43.829 46.766 36.371C49.487 28.913 66.546 19.171 75.566 18.753C84.586 18.335 87.989 21.847 90.47 26.407C92.951 30.967 96.87 32.52 96.87 37.079C96.87 41.638 94.286 43.018 93.727 46.832C93.168 50.646 99.455 60.499 99.305 70.587C99.155 80.675 89.577 85.26 89.577 85.26L92.065 81.967C91.928 82.091 90.765 83.135 86.71 84.228L84.67 82.59C84.67 82.59 94.796 69.954 94.796 59.754C94.796 49.554 91.578 48.448 90.559 43.043C89.54 37.638 90.359 32.954 88.72 30.867C84.744 25.773 67.288 24.367 67.288 24.367C67.288 24.367 63.561 33.623 57.435 38.804C54.5343 47.1629 52.7545 55.8694 52.142 64.696C51.421 78.114 58.255 82.276 58.255 82.276C56.7875 82.4482 55.3001 82.2911 53.901 81.8161C52.5019 81.341 51.2263 80.5601 50.167 79.53C50.167 79.53 50.403 82.586 54.093 85.568C54.093 85.568 44.493 86.81 41.557 84.251C42.8948 85.5265 44.3943 86.6209 46.017 87.506C43.6093 86.842 41.4493 85.486 39.805 83.606C36.59 80.229 41.15 66.339 44.281 57.629ZM92.102 37.936C92.512 42.471 93.009 45.763 93.009 45.763C92.897 43.701 95.954 39.824 95.245 36.063C94.6273 33.5146 93.3407 31.1772 91.518 29.292C91.518 29.292 91.692 33.413 92.102 37.936Z" fill="url(#paint21_linear_1205_5463)"/>
<path d="M88.896 94.5552C92.5091 98.2087 96.3252 101.656 100.326 104.88C107.532 110.757 112.75 112.409 112.75 112.409C112.75 112.409 103.966 131.48 104.75 146.7C104.75 146.7 93.444 145.9 89.679 134.76C85.914 123.62 87.479 100.867 87.479 100.867L88.896 94.5552Z" fill="url(#paint22_linear_1205_5463)"/>
<path d="M37.932 325.611C39.932 323.723 38.044 325.011 38.044 325.011C38.044 325.011 41.697 291.465 42.405 286.496C43.113 281.527 47.822 255.646 48.518 245.061C49.214 234.476 50.17 203.017 50.879 195.361C51.588 187.705 68.534 158.411 68.534 158.411C68.534 158.411 63.564 156.137 68.199 152.199L92.861 151.217H93.261C93.7704 151.118 94.2966 151.151 94.79 151.312C95.2833 151.472 95.7276 151.756 96.081 152.136C97.137 153.378 94.681 155.789 94.681 155.789C94.681 155.789 103.117 168.611 104.72 169.789C106.376 170.896 108.089 171.916 109.851 172.845C109.851 172.845 115.032 197.569 115.156 202.39C115.256 206.763 112.356 253.541 111.205 263.778C111.157 264.431 111.057 265.079 110.905 265.716C110.122 267.443 107.305 272.301 106.668 275.37C106.031 278.439 100.083 316.718 100.083 316.718C100.649 317.612 101.124 318.561 101.499 319.551C101.499 320.023 95.535 324.521 95.535 324.521C95.535 324.521 96.902 328.745 96.554 330.621C93.0732 332.574 89.2218 333.776 85.248 334.15C79.595 334.386 75.83 328.845 75.83 328.845L78.43 322.857C77.8439 321.324 77.3706 319.75 77.014 318.148C77.014 317.328 78.542 308.855 79.014 302.605C79.474 296.605 79.387 278.75 79.573 276.228V276.011C79.5645 275.962 79.5645 275.911 79.573 275.862C79.946 274.396 82.58 267.476 83.598 264.817L83.847 264.196L83.959 263.896C83.9628 263.855 83.9628 263.813 83.959 263.772L82.559 237.772C82.559 237.772 73.141 262.956 72.433 265.665C71.725 268.374 68.706 273.318 68.544 274.365C68.382 275.412 69.252 282.838 68.544 286.131C67.836 289.424 56.306 319.801 56.306 319.801L53.597 324.15C53.597 324.15 55.722 326.038 55.833 326.75C55.944 327.462 48.801 332.378 43.123 333.099C37.445 333.82 36.178 330.751 36.178 330.751C36.178 330.751 35.931 327.486 37.932 325.611ZM93.245 151.758C93.3122 152.98 93.679 154.166 94.313 155.212C94.313 155.212 96.388 152.427 93.245 151.756V151.758ZM69.316 157.846L68.707 152.789C68.0346 153.514 67.6312 154.448 67.564 155.435C67.564 156.937 69.316 157.844 69.316 157.844V157.846Z" fill="url(#paint23_linear_1205_5463)"/>
<path d="M58.469 84.2313C57.7076 84.1039 56.9304 84.1039 56.169 84.2313C55.697 84.4923 56.703 86.1443 56.169 87.2633C55.635 88.3823 46.851 99.1413 45.633 101.377C44.415 103.613 38.017 128.102 33.209 140.34C33.209 140.34 54.666 146.34 58.48 156.94L60.965 135.819C60.965 135.819 66.73 144.519 70.022 149.945C70.022 149.945 67.222 151.187 67.276 151.597C67.33 152.007 70.022 152.997 70.022 152.997C70.022 152.997 76.731 155.597 81.328 155.597C85.925 155.597 84.148 155.473 86.969 154.181C89.79 152.889 94.424 151.125 94.511 150.069C94.598 149.013 91.517 147.236 92.026 145.236C92.535 143.236 100.586 126.997 100.239 122.288C99.892 117.579 90.076 106 89.604 103.515C89.132 101.03 89.244 95.1533 88.896 94.5703C88.548 93.9873 79.304 90.2093 78.296 88.8703C77.7655 87.9654 76.9347 87.2751 75.948 86.9193C75.24 86.6833 74.706 88.1613 74.706 88.1613C76.0972 89.582 76.8965 91.4783 76.942 93.4663C76.83 96.4603 67.288 93.4663 63.524 90.2853C61.44 88.6377 59.7184 86.5777 58.467 84.2343L58.469 84.2313Z" fill="url(#paint24_linear_1205_5463)"/>
<path d="M68.707 152.787C68.707 152.787 78.559 155.918 82.498 155.272C86.1632 154.394 89.7565 153.239 93.247 151.818L94.316 155.272C90.585 157.686 86.3193 159.149 81.892 159.534C77.6368 159.895 73.3536 159.34 69.331 157.906L68.707 152.787Z" fill="#2C2C2C"/>
<path opacity="0.5" d="M73.54 46.833C73.54 46.833 74.149 51.095 73.44 52.399C72.731 53.703 67.476 54.064 65.054 52.946C63.4857 52.0995 62.2409 50.7587 61.513 49.132L73.54 46.833Z" fill="url(#paint25_linear_1205_5463)"/>
<path d="M79.392 155.21C78.5107 155.716 77.836 156.517 77.4862 157.471C77.1363 158.425 77.1338 159.472 77.479 160.428L75.702 159.881C75.702 159.881 73.751 155.943 77.143 154.911L79.392 155.21Z" fill="#525252"/>
<path opacity="0.5" d="M71.241 169.771C71.241 169.771 67.949 181.301 65.948 185.426C63.947 189.551 57.586 193.303 57.586 193.303C57.586 193.303 60.296 177.412 71.241 169.771Z" fill="url(#paint26_linear_1205_5463)"/>
<path opacity="0.5" d="M104.712 169.883C104.712 169.883 97.257 164.913 94.984 162.553L99.954 163.795L104.712 169.883Z" fill="url(#paint27_linear_1205_5463)"/>
<path opacity="0.5" d="M57.587 194.098L61.625 204.05L59.6 219.357L57.587 194.098Z" fill="url(#paint28_linear_1205_5463)"/>
<path opacity="0.5" d="M82.659 237.807L94.114 196.384L97.568 189.563C97.568 189.563 96.487 175.263 94.984 171.809C93.481 168.355 90.109 157.434 90.109 157.434C90.109 157.434 95.601 171.647 96.147 172.592C96.693 173.537 98.421 189.862 98.421 189.862L83.586 255.09L82.659 237.807Z" fill="url(#paint29_linear_1205_5463)"/>
<path opacity="0.76" d="M82.659 237.807L91.99 204.05C91.99 204.05 90.847 223.25 88.872 231.93C86.897 240.61 82.659 237.807 82.659 237.807Z" fill="#3B3B3B"/>
<path opacity="0.5" d="M75.242 53.1189C75.242 53.1189 76.042 37.4519 73.642 32.7559C73.642 32.7559 61.789 35.7009 59.516 38.7559C57.243 41.8109 59.516 52.2979 59.516 52.2979C59.516 52.2979 68.185 58.7849 75.242 53.1189Z" fill="url(#paint30_linear_1205_5463)"/>
<path d="M73.118 50.8831C72.062 52.5111 68.218 52.9211 65.005 52.1251C64.0543 51.8428 63.193 51.3191 62.505 50.605C61.8169 49.8908 61.3256 49.0106 61.079 48.0501C61.079 48.0501 64.297 39.5641 69.863 40.0361C75.429 40.5081 73.615 50.0881 73.118 50.8831Z" fill="url(#paint31_linear_1205_5463)"/>
<path d="M71.54 40.149C71.54 40.149 70.36 38.757 69.714 38.807C69.068 38.857 64.014 40.869 62.881 44.572L71.54 40.149Z" fill="url(#paint32_linear_1205_5463)"/>
<path d="M73.03 42.1979L74.654 39.5269C74.654 39.5269 64.528 40.6449 62.13 45.7389C65.1441 43.3349 68.8399 41.9435 72.691 41.7629L73.03 42.1979Z" fill="#95344D"/>
<path d="M67.317 52.4613H68.559C70.0112 52.5103 71.4444 52.1207 72.672 51.3433C73.778 50.4613 73.84 47.7283 73.728 45.7153C73.641 44.4733 73.492 43.4043 73.492 43.4043C73.492 43.4043 67.974 44.4973 67.317 52.4613Z" fill="#5F7C4B"/>
<path d="M68.545 52.4979C69.9968 52.5468 71.4297 52.1572 72.657 51.38C73.763 50.498 73.825 47.765 73.713 45.752C73.714 45.764 69.812 45.5659 68.545 52.4979Z" fill="#351F58"/>
<path d="M70.534 48.4113C70.1509 47.9894 69.6623 47.6772 69.1185 47.5069C68.5747 47.3366 67.9953 47.3143 67.44 47.4423C67.44 47.4423 68.185 48.8463 70.534 48.4113Z" fill="#F2FCEF"/>
<path d="M73.863 31.4512C73.741 33.0514 73.0946 34.5666 72.024 35.7622C69.9944 35.6966 67.9633 35.834 65.961 36.1722C63.7429 36.8168 61.5951 37.6825 59.55 38.7562C59.55 38.7562 62.432 34.0562 66.135 32.4072C68.5823 31.415 71.2477 31.0859 73.863 31.4512Z" fill="url(#paint33_linear_1205_5463)"/>
<g style="mix-blend-mode:multiply" opacity="0.5">
<path d="M78.745 54.7969C78.0334 55.4602 77.4739 56.2697 77.105 57.1699C76.67 58.4119 77.975 59.4699 79.366 58.5859C80.757 57.7019 81.317 57.8029 81.192 58.3859C81.067 58.9689 81.962 59.5659 84.05 59.3799C86.138 59.1939 88.1 57.1559 87.35 55.2049C87.35 55.2049 88.75 58.6589 84.008 59.8639C79.266 61.0689 78.33 59.0559 76.64 58.4719C74.95 57.8879 78.745 54.7969 78.745 54.7969Z" fill="url(#paint34_linear_1205_5463)"/>
</g>
<path opacity="0.5" d="M78.397 59.2203C79.0693 58.7306 79.8413 58.3953 80.658 58.2383C81.391 58.3133 80.931 59.2443 80.198 59.6053C79.465 59.9663 78.397 59.2203 78.397 59.2203Z" fill="url(#paint35_linear_1205_5463)"/>
<path d="M85.418 63.892C85.418 63.892 83.703 67.321 81.877 68.154C80.051 68.987 74.137 65.669 72.447 61.644C72.447 61.644 77.047 63.669 79.715 63.744C82.383 63.819 85.418 63.892 85.418 63.892Z" fill="#DE605C"/>
<path d="M87.12 62.81C85.7521 63.8157 84.2224 64.5803 82.597 65.071C80.597 65.481 76.236 64.127 74.658 63.419C73.5211 62.796 72.5497 61.91 71.825 60.835C72.4741 61.6619 73.3319 62.3008 74.31 62.686C77.2457 62.9673 80.196 63.0675 83.144 62.986C84.498 62.986 84.473 63.396 85.231 63.486C85.9092 63.4309 86.5608 63.1977 87.12 62.81Z" fill="#CB4F5F"/>
<path d="M69.54 79.223C69.54 79.223 64.421 80.254 58.631 74.092L57.078 67.022C60.7684 69.4326 64.8191 71.2402 69.078 72.377L69.54 79.223Z" fill="#E36E5D"/>
<path opacity="0.5" d="M89.766 48.734C89.766 48.734 89.366 53.045 88.524 53.617C87.682 54.189 84.797 53.244 83.865 50.002C82.933 46.76 84.238 39.18 84.238 39.18L89.208 34.21C89.3083 35.8651 89.3083 37.5248 89.208 39.18C88.983 41.752 89.232 47.405 89.766 48.734Z" fill="url(#paint36_linear_1205_5463)"/>
<path opacity="0.5" d="M47.176 6.76514C47.176 6.76514 45.476 14.8041 43.002 18.7171C40.528 22.6301 35.994 21.9351 35.994 20.8671C35.994 19.7991 38.963 17.1401 42.455 14.2321C44.6889 12.2276 46.3232 9.64285 47.176 6.76514Z" fill="url(#paint37_linear_1205_5463)"/>
<path d="M86.735 84.2302C86.735 84.2302 94.885 77.8442 96.364 71.1302C97.2074 66.4133 97.2074 61.5841 96.364 56.8672C96.364 56.8672 98.787 64.9062 97.954 70.5342C97.121 76.1622 92.09 81.9522 92.09 81.9522C92.09 81.9522 88.176 84.5042 86.735 84.2302Z" fill="#313131"/>
<path d="M50.17 79.5359C48.2774 75.6884 47.251 71.4729 47.163 67.186C47.349 60.974 51.922 49.7919 53.748 42.6479C53.748 42.6479 48.269 56.7479 45.635 65.7079C43.001 74.6679 43.312 82.717 54.096 85.587C52.4818 83.7855 51.1573 81.7441 50.17 79.5359Z" fill="#313131"/>
<path d="M88.748 30.8682C88.748 30.8682 84.834 35.4682 84.248 39.5682C85.7424 38.0946 87.4114 36.8093 89.218 35.7412C89.218 35.7412 89.655 32.3382 88.748 30.8682Z" fill="url(#paint38_linear_1205_5463)"/>
<path d="M57.463 38.8071C57.463 38.8071 48.928 46.3611 45.71 47.5071L46.058 49.1971C46.058 49.1971 51.885 47.5161 57.463 38.8071Z" fill="#313131"/>
<path opacity="0.5" d="M88.3 48.0631C88.3 48.0631 88.362 51.9891 87.927 52.4861C87.586 52.6984 87.1954 52.8182 86.794 52.8335C86.3925 52.8488 85.994 52.7593 85.6378 52.5736C85.2815 52.388 84.9798 52.1126 84.7624 51.7748C84.545 51.437 84.4194 51.0483 84.398 50.6471C83.889 47.9271 88.3 48.0631 88.3 48.0631Z" fill="#F07659"/>
<path d="M88.86 46.945C88.86 46.945 88.115 51.654 86.375 52.238C84.635 52.822 83.43 49.194 84.075 45.802C84.72 42.41 87.044 38.596 87.703 38.347C88.362 38.098 89.034 43.64 88.86 46.945Z" fill="url(#paint39_linear_1205_5463)"/>
<path d="M84.449 44.4479C84.449 44.4479 85.849 38.9479 88.412 37.3159C88.412 37.3159 88.984 40.6159 89.033 41.7509C87.3936 42.4454 85.8524 43.3521 84.449 44.4479Z" fill="url(#paint40_linear_1205_5463)"/>
<path d="M84.449 44.4472C84.449 44.4472 87.605 41.3162 90.91 40.7202L88.835 43.2052L88.773 42.5052C87.1797 42.7399 85.6828 43.4121 84.449 44.4472Z" fill="#95344D"/>
<path d="M84.871 51.5911C84.977 51.8546 85.17 52.0737 85.418 52.2121C85.803 52.4121 86.4 52.3741 87.244 51.5121C88.362 50.3941 88.722 48.0831 88.834 46.3191C88.8712 45.6073 88.8712 44.894 88.834 44.1821C88.834 44.1821 84.612 44.5211 84.871 51.5911Z" fill="#5F7C4B"/>
<path d="M85.418 52.2133C85.803 52.4133 86.4 52.3753 87.244 51.5133C88.362 50.3953 88.723 48.0843 88.834 46.3203C88.474 46.3613 85.691 47.3683 85.418 52.2133Z" fill="#372259"/>
<path d="M87.12 48.1623C87.12 48.1623 85.878 46.3733 84.399 46.5623C84.449 46.5603 85.592 48.3863 87.12 48.1623Z" fill="#F2FCEF"/>
<path d="M67.32 24.3701C67.32 24.3701 55.181 39.2791 45.739 40.6961L45.615 44.4231C45.615 44.4231 59.898 37.0921 67.32 24.3701Z" fill="#313131"/>
<path opacity="0.5" d="M88.748 30.8671C88.748 30.8671 88.91 24.2081 83.542 22.0461C78.174 19.8841 67.316 24.3691 67.316 24.3691C67.316 24.3691 82.237 23.3501 88.748 30.8671Z" fill="#1F1F1F"/>
<path d="M51.785 198.012C51.785 198.012 55.185 202.882 55.823 206.712C56.461 210.542 55.661 270.362 55.823 275.53C55.985 280.698 57.699 281.655 58.643 286.712C59.587 291.769 57.587 316.394 57.587 316.394L56.407 319.873L53.698 324.218C53.698 324.218 55.934 326.118 55.934 326.818C55.934 327.518 50.803 331.452 44.156 333.03C37.509 334.608 36.279 330.83 36.279 330.83C36.1582 328.756 36.7839 326.706 38.043 325.053L39.522 312.939L50.898 213.083L51.785 198.012Z" fill="#3B3B3B"/>
<path d="M116.081 116.211C116.081 116.211 110.9 119.74 109.608 124.573C108.862 127.268 108.331 130.019 108.018 132.798L106.318 131.903C106.318 131.903 108.977 120.497 111.847 114.608L116.081 116.211Z" fill="#E47E51"/>
<path d="M31.807 203.081C31.869 203.839 33.223 210.436 34.453 210.436C35.421 210.518 36.3528 210.843 37.162 211.38C37.994 211.728 39.808 212.026 40.641 212.498C41.8183 212.912 43.0399 213.187 44.281 213.318L47.462 213.902C47.6372 212.124 47.199 210.34 46.22 208.845C46.22 208.845 47.4 201.788 48.456 201.788C49.512 201.788 51.985 206.261 51.985 206.261C51.985 206.261 53.041 196.607 52.693 195.427C52.345 194.247 48.456 189.662 48.456 189.662C48.456 189.662 48.804 175.536 50.568 167.174C52.332 158.812 53.736 150.525 53.736 150.525C49.8361 147.486 45.5487 144.979 40.987 143.072C39.4024 145.433 38.5705 148.218 38.601 151.061C38.601 155.919 42.863 183.638 42.154 187.461C41.483 191.052 32.972 200.904 31.954 202.768C31.8779 202.858 31.8272 202.966 31.807 203.081Z" fill="url(#paint41_linear_1205_5463)"/>
<path d="M53.289 152.788C53.289 152.788 48.468 145.072 39.622 146.004L40.964 143.109C40.964 143.109 48.878 146.19 53.711 150.564L53.289 152.788Z" fill="#E47E51"/>
<path opacity="0.5" d="M31.803 203.081C31.865 203.839 33.219 210.436 34.449 210.436C35.4166 210.518 36.348 210.843 37.157 211.38C37.989 211.728 39.803 212.026 40.636 212.498C41.8134 212.912 43.0349 213.187 44.276 213.318L47.457 213.902C47.6322 212.124 47.1939 210.34 46.215 208.845C46.215 208.845 47.395 201.788 48.451 201.788C49.507 201.788 51.98 206.261 51.98 206.261C51.98 206.261 53.036 196.607 52.688 195.427C52.688 195.427 47.78 201.155 46.998 202.409C46.216 203.663 44.513 207.59 44.513 207.59C43.4041 207.582 42.2997 207.447 41.221 207.19C40.3168 206.405 39.1936 205.917 38.003 205.79C36.351 205.79 35.183 204.684 34.276 204.448C33.3922 204.03 32.5791 203.477 31.866 202.808C31.826 202.894 31.8049 202.987 31.804 203.081H31.803Z" fill="url(#paint42_linear_1205_5463)"/>
<path d="M86.358 158.701L88.768 166.218L94.11 196.384C94.11 196.384 89.14 171.598 88.656 169.361C88.172 167.124 85.773 158.701 85.773 158.701H86.358Z" fill="#484848"/>
<path opacity="0.5" d="M94.313 155.21L95.369 156.937C95.369 156.937 90.769 161.807 88.188 162.553C85.607 163.299 68.309 158.826 68.309 158.826L69.365 157.795C73.9359 158.933 78.6515 159.381 83.355 159.124C87.2621 158.688 91.0139 157.348 94.313 155.21Z" fill="#434343"/>
<path opacity="0.5" d="M111.198 263.873C111.198 263.873 104.004 272.235 101.498 275.465C98.992 278.695 97.261 285.74 97.261 285.74L107.101 273.962C107.101 273.962 111.037 265.426 111.198 263.873Z" fill="url(#paint43_linear_1205_5463)"/>
<path opacity="0.5" d="M72.882 264.594C70.9554 268.341 68.4854 271.783 65.552 274.807C61.315 278.845 55.824 287.79 55.824 287.79C55.824 287.79 63.353 279.018 66.024 277.59C68.695 276.162 72.882 264.594 72.882 264.594Z" fill="url(#paint44_linear_1205_5463)"/>
<path opacity="0.5" d="M68.533 158.403C68.533 158.403 62.408 176.257 61.625 178.503C60.842 180.749 51.785 191.723 51.785 191.723C56.6066 180.249 62.2021 169.116 68.533 158.401V158.403Z" fill="url(#paint45_linear_1205_5463)"/>
<path opacity="0.5" d="M111 178.605C111 178.605 113.1 201.627 112.789 213.083C112.478 224.539 112.354 250.12 112.354 250.12C112.354 250.12 115.299 204.287 115.154 202.485C115.009 200.683 111 178.605 111 178.605Z" fill="url(#paint46_linear_1205_5463)"/>
<path opacity="0.5" d="M97.569 189.563L94.314 207.963L88.301 217.418L94.116 196.384L97.569 189.563Z" fill="url(#paint47_linear_1205_5463)"/>
<path opacity="0.5" d="M84.064 263.786L85.779 270.259L79.567 276.024C79.567 276.024 81.964 268.631 84.064 263.786Z" fill="url(#paint48_linear_1205_5463)"/>
<g style="mix-blend-mode:multiply" opacity="0.45">
<path d="M89.543 24.926C89.543 24.926 76.224 23.062 63.912 29.326C56.1299 33.4878 49.4059 39.3788 44.257 46.546L45.586 42.819C45.586 42.819 41.859 35.75 57.464 25.04C73.069 14.33 85.618 19.76 86.326 20.865C87.034 21.97 89.543 24.926 89.543 24.926Z" fill="#3B2939"/>
</g>
<path opacity="0.46" d="M121.174 111.291C118.337 118.872 118.417 127.236 121.398 134.761C123.511 132.638 125.367 130.273 126.927 127.716C126.927 127.716 123.659 113.916 122.765 109.75L121.174 111.291Z" fill="#E36E5D"/>
<path d="M140.097 131.666L137.724 105.438L147.204 130.498C144.897 131.199 142.507 131.592 140.097 131.666Z" fill="url(#paint49_linear_1205_5463)"/>
<path d="M51.785 148.638L48.132 102.444C48.132 102.444 46.268 132.884 46.654 136.188C47.04 139.492 51.785 148.638 51.785 148.638Z" fill="url(#paint50_linear_1205_5463)"/>
<path style="mix-blend-mode:multiply" opacity="0.5" d="M61.004 135.865L60.159 124.882L70.059 149.992L61.004 135.865Z" fill="url(#paint51_linear_1205_5463)"/>
<path style="mix-blend-mode:multiply" opacity="0.5" d="M87.008 154.228C87.008 154.228 79.008 147.171 76.422 143.866C73.836 140.561 68.968 121.279 68.968 121.279C68.968 121.279 78.497 134.809 80.262 139.518C82.027 144.227 87.008 154.228 87.008 154.228Z" fill="url(#paint52_linear_1205_5463)"/>
<path style="mix-blend-mode:multiply" opacity="0.5" d="M88.598 153.483C88.598 153.483 92.536 143.407 93.245 138.934C93.7252 135.378 94.0156 131.799 94.115 128.212C94.115 128.212 90.301 136.462 88.599 141.518C86.897 146.574 87.829 153.744 87.829 153.744L88.598 153.483Z" fill="url(#paint53_linear_1205_5463)"/>
<path style="mix-blend-mode:multiply" opacity="0.8" d="M101.309 145.954C101.309 145.954 99.209 139.394 99.992 134.101C100.466 130.198 100.574 126.258 100.315 122.335C100.315 122.335 99.694 129.703 93.73 141.394C95.7857 143.586 98.4094 145.165 101.309 145.954Z" fill="url(#paint54_linear_1205_5463)"/>
<path style="mix-blend-mode:multiply" opacity="0.5" d="M93.406 109.725L90.847 100.295C90.7216 102.159 90.7216 104.03 90.847 105.895C91.5991 107.235 92.4547 108.515 93.406 109.722V109.725Z" fill="url(#paint55_linear_1205_5463)"/>
<g style="mix-blend-mode:multiply">
<path d="M60.999 135.866L60.154 122.266L65.111 141.151L60.999 135.866Z" fill="#C98BC2"/>
</g>
<path d="M82.536 105.438C78.1556 105.232 73.8037 104.62 69.536 103.612C63.709 102.084 56.167 87.2622 56.167 87.2622C56.4006 86.3675 56.3573 85.4229 56.043 84.5532C56.043 84.5532 60.056 89.6102 64.743 94.4922C69.43 99.3742 82.536 105.438 82.536 105.438Z" fill="url(#paint56_linear_1205_5463)"/>
<path opacity="0.5" d="M78.236 88.8521C78.236 88.8521 81.578 95.5361 82.199 100.32C82.5794 103.208 82.5794 106.133 82.199 109.02C83.1898 106.202 83.8731 103.285 84.237 100.32C84.324 97.3381 81.243 90.7411 81.243 90.7411L78.236 88.8521Z" fill="url(#paint57_linear_1205_5463)"/>
<path style="mix-blend-mode:multiply" opacity="0.5" d="M100.327 123.156C100.327 123.156 95.966 130.056 95.357 131.667C94.748 133.278 93.717 141.395 93.717 141.395C93.717 141.395 100.339 127.046 100.327 123.156Z" fill="url(#paint58_linear_1205_5463)"/>
<path style="mix-blend-mode:multiply" opacity="0.5" d="M70.533 136.027L60.221 123.702C60.221 123.702 64.756 133.07 67.402 136.984C70.048 140.898 74.409 146.7 74.409 146.7C74.409 146.7 71.751 137.493 70.533 136.027Z" fill="url(#paint59_linear_1205_5463)"/>
<path d="M71.477 86.3169C71.477 86.3169 75.477 92.8399 75.068 94.7279C75.3336 94.8639 75.6303 94.9279 75.9284 94.9136C76.2264 94.8993 76.5156 94.8071 76.767 94.6463C77.0183 94.4854 77.2232 94.2616 77.3611 93.9969C77.499 93.7322 77.5652 93.4361 77.553 93.1379C77.913 90.6029 75.963 86.9259 75.963 86.9259C75.963 86.9259 74.845 87.1619 74.721 87.6959L71.477 86.3169Z" fill="#E36E5D"/>
<path opacity="0.3" d="M75.826 328.889C75.826 328.889 79.553 334.43 85.244 334.194C89.2177 333.82 93.069 332.619 96.55 330.666C96.898 328.79 95.531 324.566 95.531 324.566C95.531 324.566 101.495 320.118 101.495 319.596C101.12 318.606 100.645 317.657 100.079 316.763C100.079 316.763 106.043 278.471 106.664 275.415C107.285 272.359 110.118 267.488 110.901 265.761C111.053 265.124 111.153 264.476 111.201 263.823C111.201 263.823 102.318 273.638 100.553 274.756C98.788 275.874 86.774 267.301 85.78 265.636C84.786 263.971 83.37 245.397 83.37 245.397L84.07 263.785C84.0737 263.826 84.0737 263.868 84.07 263.909L83.958 264.209L83.709 264.83C82.665 267.501 79.982 274.508 79.684 275.875C79.6754 275.924 79.6754 275.975 79.684 276.024V276.248C79.498 278.733 79.584 296.624 79.125 302.625C78.653 308.837 77.125 317.348 77.125 318.168C77.4816 319.77 77.9549 321.344 78.541 322.877L75.826 328.889Z" fill="url(#paint60_linear_1205_5463)"/>
<path opacity="0.3" d="M91.655 208.958L72.882 187.489L76.373 189.117L90.86 184.346L97.569 189.564L97.296 179.885L100.328 189.564L108.752 187.489L91.655 208.958Z" fill="#0A0A0A"/>
<path opacity="0.36" d="M100.314 122.336C100.314 122.336 96.201 127.107 95.344 126.536C91.269 123.666 87.653 125.878 81.491 126.772C74.223 127.816 69.849 124.623 70.098 125.53C70.347 126.437 60.158 124.871 60.158 124.871L61.003 135.854L70.06 149.98C73.4939 151.754 77.2033 152.934 81.031 153.471C87.007 154.216 88.597 153.471 88.597 153.471L92.424 146.998C92.1561 146.455 92.0443 145.849 92.101 145.246C92.313 144.662 99.529 130.138 100.314 122.336Z" fill="#E81A41"/>
<path d="M152.969 73.4041L143.278 65.5391C146.249 68.4655 149.494 71.0993 152.969 73.4041Z" fill="#FA7C50"/>
<path opacity="0.61" d="M55.363 65.701C54.0169 60.2836 53.6967 54.6621 54.419 49.127C53.1912 53.3127 52.4286 57.6211 52.145 61.974C52.145 61.974 53.86 65.121 55.363 65.701Z" fill="#EA5E58"/>
</g>
<path d="M1.51601 311.794H1.963C4.796 312.266 20.45 314.751 28.986 313.608C38.404 312.366 47.026 313.757 50.008 311.881C52.99 310.005 52.208 286.61 52.369 264.333C52.481 248.741 54.481 225.221 52.878 211.865C52.754 210.809 52.605 209.803 52.418 208.883C51.66 204.82 50.393 202.174 48.405 201.714C48.405 201.714 45.634 203.851 46.169 208.771C46.169 208.771 48.716 227.606 45.834 234.971L42.815 235.605C42.815 235.605 39.659 244.389 34.64 246.588C32.1676 241.955 30.8868 236.781 30.913 231.53C30.764 222.261 34.504 210.409 34.504 210.409C34.504 210.409 33.572 210.086 32.914 207.589C32.914 207.589 29.858 215.131 28.329 219.33C28.329 219.33 8.16402 250.73 6.27602 253.547C4.38802 256.364 5.03401 278.184 5.03401 278.184C5.03401 278.184 -3.34199 295.941 1.51601 311.794Z" fill="url(#paint61_linear_1205_5463)"/>
<path opacity="0.5" d="M34.64 246.666C34.64 246.666 21.955 253.338 13.63 255.09C5.305 256.842 20.811 235.46 24.812 229.546C28.0246 224.512 30.93 219.288 33.512 213.904C33.512 213.904 27.834 233.323 34.667 246.204L34.64 246.666Z" fill="url(#paint62_linear_1205_5463)"/>
<path d="M1.96201 311.868C4.79501 312.34 20.449 314.825 28.985 313.682C38.403 312.44 47.025 313.831 50.007 311.955C52.989 310.079 52.207 286.684 52.368 264.407C52.48 248.815 54.48 225.295 52.877 211.939L52.417 208.957C52.417 208.957 51.46 237.533 48.876 245.808C46.292 254.083 38.276 270.657 34.638 283.938C32.3237 293.056 30.9785 302.393 30.625 311.793C24.065 315.099 5.11801 312.353 1.96201 311.868Z" fill="#D6343F"/>
<path d="M42.814 235.679C41.3346 244.438 39.1365 253.06 36.242 261.459C32.042 272.753 31.806 289.352 31.806 289.352C31.806 289.352 15.206 292.06 5.44198 283.699C5.44198 283.699 13.369 292.399 32.776 289.775C32.776 289.775 35.534 273.089 37.808 263.013C40.082 252.937 45.797 235.046 45.797 235.046L42.814 235.679Z" fill="#D6393B"/>
<path opacity="0.5" d="M1.664 311.819C1.664 311.819 7.09299 305.607 14.623 304.663C22.153 303.719 30.623 311.795 30.623 311.795C30.623 311.795 23.307 315.211 1.664 311.819Z" fill="url(#paint63_linear_1205_5463)"/>
<path d="M32.639 217.419L30.179 214.363L32.863 207.617L34.453 210.437L32.639 217.419Z" fill="#EA432F"/>
<path opacity="0.5" d="M6.17499 253.574C6.27278 258.512 7.55067 263.356 9.90198 267.7C13.828 274.757 22.873 289.7 22.873 289.7C22.873 289.7 14.611 290.607 5.35498 283.7C5.44198 283.666 4.02599 259.066 6.17499 253.574Z" fill="url(#paint64_linear_1205_5463)"/>
<path d="M22.961 280.746V284.361C22.961 284.361 14.388 285.293 8.586 281.69L8.11398 278.857C12.8619 280.579 17.9332 281.224 22.961 280.746Z" fill="#F97856"/>
<g opacity="0.3">
<path d="M45.4583 299.807C45.4583 299.745 45.4078 299.694 45.3462 299.694L43.124 299.325L42.8184 301.88L41.9469 301.685L42.2525 299.127L39.6764 298.625C39.6159 298.625 39.5653 298.676 39.5653 298.738L38.925 304.382C38.925 304.444 38.9745 304.495 39.036 304.495L44.6648 305.457C44.7263 305.457 44.7758 305.406 44.7758 305.346L45.4583 299.807ZM46.9583 299.807V299.899L46.2695 305.489C46.1967 306.311 45.5048 306.957 44.6648 306.957H44.5374L38.8374 305.982C38.0425 305.884 37.425 305.204 37.425 304.382V304.298L38.0707 298.606C38.1379 297.778 38.8324 297.125 39.6764 297.125H39.8211L43.9072 297.921L43.9056 297.935L45.5389 298.206C46.3373 298.301 46.9583 298.983 46.9583 299.807Z" fill="white"/>
</g>
<path opacity="0.35" d="M39.9369 294.955L40.0175 294.191L43.2234 293.366L43.1289 294.261L42.5834 294.359L42.4828 295.312L42.9955 295.525L42.9025 296.407L39.9369 294.955ZM41.9303 294.493L40.9445 294.673L41.8718 295.047L41.9303 294.493ZM40.1581 292.858L40.2913 291.596C40.3101 291.371 40.3812 291.154 40.499 290.963C40.602 290.795 40.7501 290.661 40.9263 290.574C41.1007 290.49 41.2954 290.458 41.4875 290.48C41.6741 290.497 41.8514 290.569 41.9969 290.687C42.143 290.81 42.2502 290.973 42.3057 291.155C42.3715 291.373 42.3905 291.602 42.3616 291.827L42.3167 292.252L43.3296 292.359L43.2426 293.184L40.1581 292.858ZM41.7231 291.747C41.7416 291.644 41.7196 291.539 41.6616 291.452C41.6302 291.414 41.591 291.383 41.5467 291.361C41.5024 291.339 41.4539 291.327 41.4045 291.325C41.2905 291.307 41.1738 291.33 41.0756 291.391C41.0325 291.42 40.9968 291.459 40.9711 291.504C40.9454 291.549 40.9304 291.6 40.9273 291.652L40.8799 292.1L41.6759 292.184L41.7231 291.747ZM40.4585 290.012L40.5919 288.747C40.6107 288.523 40.6818 288.306 40.7996 288.114C40.9026 287.947 41.0507 287.812 41.2269 287.725C41.4013 287.641 41.596 287.609 41.7882 287.632C41.9765 287.648 42.1557 287.72 42.3025 287.839C42.4486 287.962 42.5558 288.124 42.6113 288.307C42.6771 288.525 42.6961 288.754 42.6671 288.979L42.6223 289.404L43.6302 289.51L43.543 290.337L40.4585 290.012ZM42.0238 288.898C42.0423 288.796 42.0202 288.69 41.9622 288.604C41.9308 288.566 41.8916 288.534 41.8473 288.512C41.803 288.49 41.7545 288.478 41.7051 288.476C41.5911 288.458 41.4744 288.481 41.3762 288.542C41.3329 288.571 41.2969 288.61 41.2712 288.656C41.2454 288.702 41.2305 288.753 41.2277 288.805L41.1806 289.252L41.9766 289.336L42.0238 288.898ZM40.7594 287.16L40.8465 286.335L43.2962 286.594L43.4282 285.342L44.0631 285.409L43.8439 287.485L40.7594 287.16ZM43.0402 284.615L40.9486 285.367L41.0419 284.483L42.3739 284.121L41.1473 283.484L41.2418 282.589L43.1291 283.772L44.2236 283.888L44.1346 284.731L43.0402 284.615ZM46.7386 295.254C46.7182 295.506 46.6337 295.749 46.4931 295.96C46.3602 296.151 46.1734 296.299 45.9563 296.384C45.7096 296.477 45.4445 296.511 45.1822 296.483L44.9464 296.458C44.6869 296.438 44.4343 296.365 44.2046 296.242C43.9877 296.127 43.8091 295.951 43.6907 295.735C43.5676 295.499 43.5211 295.23 43.5575 294.967C43.5711 294.636 43.6997 294.321 43.9212 294.075C44.0349 293.972 44.1683 293.893 44.3133 293.843C44.4582 293.793 44.6119 293.773 44.7649 293.783L44.6806 294.582C44.555 294.577 44.4312 294.614 44.3294 294.688C44.2471 294.771 44.1993 294.883 44.1959 295C44.1853 295.079 44.1969 295.159 44.2291 295.231C44.2614 295.304 44.3132 295.366 44.3788 295.411C44.5695 295.535 44.7895 295.605 45.0162 295.616L45.1675 295.631C45.3958 295.672 45.6307 295.647 45.846 295.561C45.924 295.519 45.9896 295.457 46.0359 295.382C46.0823 295.306 46.1077 295.22 46.1096 295.131C46.1185 295.06 46.1173 294.988 46.106 294.918C46.0961 294.86 46.0733 294.806 46.0393 294.759L45.6224 294.715L45.5744 295.169L45.0093 295.11L45.1447 293.826L46.4382 293.963C46.5685 294.121 46.6575 294.31 46.6972 294.511C46.7527 294.755 46.7667 295.006 46.7386 295.254ZM43.7783 293.294L44.0058 291.137L44.6406 291.204L44.5001 292.537L45.0563 292.595L45.1749 291.471L45.7928 291.536L45.6742 292.661L46.3139 292.728L46.4543 291.398L47.0921 291.465L46.8648 293.619L43.7783 293.294ZM44.0332 290.878L44.1634 289.644C44.1814 289.423 44.2414 289.208 44.34 289.01C44.4196 288.85 44.5462 288.718 44.7029 288.631C44.8654 288.549 45.049 288.519 45.2294 288.543C45.4142 288.556 45.5922 288.618 45.7446 288.723C45.8871 288.837 45.9957 288.988 46.0588 289.159L47.3588 288.671L47.3886 288.674L47.295 289.562L46.179 289.955L46.1458 290.27L47.2075 290.382L47.1207 291.204L44.0332 290.878ZM45.555 289.805C45.5637 289.753 45.5621 289.7 45.5503 289.649C45.5384 289.597 45.5165 289.549 45.4859 289.506C45.4522 289.467 45.4111 289.436 45.365 289.414C45.319 289.392 45.2689 289.379 45.2178 289.377C45.1165 289.36 45.0126 289.382 44.9275 289.44C44.8885 289.472 44.8569 289.513 44.8347 289.559C44.8126 289.604 44.8004 289.654 44.7989 289.705L44.7548 290.123L45.509 290.202L45.555 289.805ZM44.3306 288.06L44.4453 286.973L46.5553 286.579L44.5778 285.756L44.6921 284.672L47.7766 284.998L47.6889 285.829L46.9357 285.749L45.5973 285.523L47.6257 286.419L47.568 286.965L45.3926 287.425L46.7618 287.483L47.508 287.562L47.421 288.387L44.3306 288.06ZM44.8279 283.348L44.909 282.578L48.1144 281.759L48.0199 282.654L47.4744 282.752L47.3735 283.708L47.8862 283.921L47.7932 284.802L44.8279 283.348ZM46.8217 282.883L45.8357 283.065L46.763 283.439L46.8217 282.883ZM45.0492 281.25L45.1363 280.425L47.03 279.641L45.239 279.452L45.3257 278.63L48.4102 278.956L48.3238 279.775L46.4301 280.559L48.2211 280.748L48.134 281.573L45.0492 281.25ZM47.4372 277.689L45.3456 278.441L45.4388 277.559L46.7708 277.196L45.5438 276.564L45.6383 275.668L47.5256 276.851L48.6231 276.967L48.534 277.811L47.4372 277.689Z" fill="white"/>
</g>
<defs>
<linearGradient id="paint0_linear_1205_5463" x1="168" y1="203.22" x2="168" y2="288.761" gradientUnits="userSpaceOnUse">
<stop stop-color="#E25430"/>
<stop offset="1" stop-color="#5C1A13"/>
</linearGradient>
<linearGradient id="paint1_linear_1205_5463" x1="184.443" y1="288.768" x2="184.443" y2="239.015" gradientUnits="userSpaceOnUse">
<stop stop-color="#FF4C59"/>
<stop offset="1" stop-color="#FF813B"/>
</linearGradient>
<linearGradient id="paint2_linear_1205_5463" x1="133.975" y1="288.765" x2="133.975" y2="241.257" gradientUnits="userSpaceOnUse">
<stop stop-color="#FF4C59"/>
<stop offset="1" stop-color="#FF813B"/>
</linearGradient>
<linearGradient id="paint3_linear_1205_5463" x1="172.698" y1="243.067" x2="172.698" y2="237.031" gradientUnits="userSpaceOnUse">
<stop stop-color="#D6343F"/>
<stop offset="1" stop-color="#D67534"/>
</linearGradient>
<linearGradient id="paint4_linear_1205_5463" x1="191.152" y1="268.833" x2="191.177" y2="288.765" gradientUnits="userSpaceOnUse">
<stop stop-color="#FA5049"/>
<stop offset="1" stop-color="#D53A34"/>
</linearGradient>
<radialGradient id="paint5_radial_1205_5463" cx="0" cy="0" r="1" gradientUnits="userSpaceOnUse" gradientTransform="translate(273.404 211.774) scale(68.5049 68.518)">
<stop stop-color="#FF7E3C"/>
<stop offset="1" stop-color="#C33942"/>
</radialGradient>
<linearGradient id="paint6_linear_1205_5463" x1="133.416" y1="288.764" x2="133.416" y2="264.622" gradientUnits="userSpaceOnUse">
<stop stop-color="#C99620"/>
<stop offset="1" stop-color="#DCBA38"/>
</linearGradient>
<linearGradient id="paint7_linear_1205_5463" x1="129.942" y1="264.622" x2="129.548" y2="288.764" gradientUnits="userSpaceOnUse">
<stop stop-color="#FD5C55"/>
<stop offset="1" stop-color="#D53A34"/>
</linearGradient>
<linearGradient id="paint8_linear_1205_5463" x1="55.3647" y1="47.4412" x2="55.3647" y2="-0.0449219" gradientUnits="userSpaceOnUse">
<stop stop-color="#FF8959"/>
<stop offset="1" stop-color="#FFA73B"/>
</linearGradient>
<linearGradient id="paint9_linear_1205_5463" x1="99.296" y1="36.8026" x2="26.477" y2="36.8026" gradientUnits="userSpaceOnUse">
<stop stop-color="#FFB159"/>
<stop offset="1" stop-color="#FFA73B"/>
</linearGradient>
<linearGradient id="paint10_linear_1205_5463" x1="63.9175" y1="69.3139" x2="63.9175" y2="5.29738" gradientUnits="userSpaceOnUse">
<stop stop-color="#FF4C59"/>
<stop offset="1" stop-color="#FF813B"/>
</linearGradient>
<linearGradient id="paint11_linear_1205_5463" x1="146.614" y1="87.5228" x2="146.614" y2="67.3255" gradientUnits="userSpaceOnUse">
<stop stop-color="#FF9577"/>
<stop offset="1" stop-color="#FFB374"/>
</linearGradient>
<linearGradient id="paint12_linear_1205_5463" x1="65.7842" y1="85.4732" x2="65.7842" y2="22.0342" gradientUnits="userSpaceOnUse">
<stop stop-color="#444444"/>
<stop offset="1" stop-color="#44423C"/>
</linearGradient>
<linearGradient id="paint13_linear_1205_5463" x1="69.0816" y1="74.0976" x2="69.0816" y2="19.5845" gradientUnits="userSpaceOnUse">
<stop offset="0.02" stop-color="#FFB374"/>
<stop offset="1" stop-color="#FF9577"/>
</linearGradient>
<linearGradient id="paint14_linear_1205_5463" x1="45.6389" y1="63.7362" x2="45.6389" y2="48.4133" gradientUnits="userSpaceOnUse">
<stop offset="0.02" stop-color="#FFB374"/>
<stop offset="1" stop-color="#FF9577"/>
</linearGradient>
<linearGradient id="paint15_linear_1205_5463" x1="125.188" y1="136.984" x2="125.188" y2="84.233" gradientUnits="userSpaceOnUse">
<stop offset="0.02" stop-color="#FFB374"/>
<stop offset="1" stop-color="#FF9577"/>
</linearGradient>
<linearGradient id="paint16_linear_1205_5463" x1="142.991" y1="134.817" x2="142.991" y2="18.8052" gradientUnits="userSpaceOnUse">
<stop stop-color="white"/>
<stop offset="1" stop-color="white"/>
</linearGradient>
<linearGradient id="paint17_linear_1205_5463" x1="127.207" y1="129.604" x2="127.207" y2="31.9731" gradientUnits="userSpaceOnUse">
<stop stop-color="#EBEBEB"/>
<stop offset="1" stop-color="#F6F6F6"/>
</linearGradient>
<linearGradient id="paint18_linear_1205_5463" x1="144.449" y1="131.67" x2="144.449" y2="36.6953" gradientUnits="userSpaceOnUse">
<stop stop-color="#EBEBEB"/>
<stop offset="1" stop-color="#F6F6F6"/>
</linearGradient>
<linearGradient id="paint19_linear_1205_5463" x1="150.147" y1="76.5496" x2="150.147" y2="59.0459" gradientUnits="userSpaceOnUse">
<stop stop-color="#FF9D81"/>
<stop offset="1" stop-color="#FF854A"/>
</linearGradient>
<linearGradient id="paint20_linear_1205_5463" x1="148.47" y1="80.1801" x2="148.47" y2="72.9121" gradientUnits="userSpaceOnUse">
<stop stop-color="#FF9577"/>
<stop offset="1" stop-color="#FF854A"/>
</linearGradient>
<linearGradient id="paint21_linear_1205_5463" x1="69.007" y1="87.506" x2="69.007" y2="18.7192" gradientUnits="userSpaceOnUse">
<stop stop-color="#313131"/>
<stop offset="1" stop-color="#505050"/>
</linearGradient>
<linearGradient id="paint22_linear_1205_5463" x1="99.9788" y1="146.7" x2="99.9788" y2="94.5552" gradientUnits="userSpaceOnUse">
<stop stop-color="#DD0051"/>
<stop offset="1" stop-color="#FF3734"/>
</linearGradient>
<linearGradient id="paint23_linear_1205_5463" x1="75.7424" y1="334.157" x2="75.7424" y2="151.344" gradientUnits="userSpaceOnUse">
<stop stop-color="#464646"/>
<stop offset="1" stop-color="#565656"/>
</linearGradient>
<linearGradient id="paint24_linear_1205_5463" x1="66.7294" y1="156.94" x2="66.7294" y2="84.1357" gradientUnits="userSpaceOnUse">
<stop stop-color="#FF1651"/>
<stop offset="1" stop-color="#FE706E"/>
</linearGradient>
<linearGradient id="paint25_linear_1205_5463" x1="73.771" y1="50.2226" x2="61.513" y2="50.2226" gradientUnits="userSpaceOnUse">
<stop stop-color="#E5658E"/>
<stop offset="1" stop-color="white"/>
</linearGradient>
<linearGradient id="paint26_linear_1205_5463" x1="64.4135" y1="193.303" x2="64.4135" y2="169.771" gradientUnits="userSpaceOnUse">
<stop stop-color="#727272"/>
<stop offset="1" stop-color="#5E5E5E"/>
</linearGradient>
<linearGradient id="paint27_linear_1205_5463" x1="99.8577" y1="169.883" x2="99.8577" y2="162.553" gradientUnits="userSpaceOnUse">
<stop stop-color="#848484"/>
<stop offset="1" stop-color="#6C6C6C"/>
</linearGradient>
<linearGradient id="paint28_linear_1205_5463" x1="59.6141" y1="219.357" x2="59.6141" y2="194.098" gradientUnits="userSpaceOnUse">
<stop stop-color="#3B3B3B"/>
<stop offset="1" stop-color="#3B3B3B"/>
</linearGradient>
<linearGradient id="paint29_linear_1205_5463" x1="90.54" y1="255.188" x2="90.54" y2="157.434" gradientUnits="userSpaceOnUse">
<stop stop-color="#222222"/>
<stop offset="1" stop-color="#393939"/>
</linearGradient>
<linearGradient id="paint30_linear_1205_5463" x1="66.9379" y1="55.4405" x2="66.9379" y2="32.7559" gradientUnits="userSpaceOnUse">
<stop stop-color="#FAA26B"/>
<stop offset="1" stop-color="#F36E5C"/>
</linearGradient>
<linearGradient id="paint31_linear_1205_5463" x1="67.4387" y1="52.4937" x2="67.4387" y2="39.9671" gradientUnits="userSpaceOnUse">
<stop stop-color="#E1DBFB"/>
<stop offset="1" stop-color="white"/>
</linearGradient>
<linearGradient id="paint32_linear_1205_5463" x1="67.2191" y1="44.5201" x2="67.2191" y2="38.7595" gradientUnits="userSpaceOnUse">
<stop stop-color="#F1956D"/>
<stop offset="1" stop-color="#FF716D"/>
</linearGradient>
<linearGradient id="paint33_linear_1205_5463" x1="73.863" y1="35.0384" x2="59.507" y2="35.0384" gradientUnits="userSpaceOnUse">
<stop stop-color="#323232"/>
<stop offset="1" stop-color="#444443"/>
</linearGradient>
<linearGradient id="paint34_linear_1205_5463" x1="300.115" y1="56.8223" x2="288.597" y2="56.8223" gradientUnits="userSpaceOnUse">
<stop stop-color="#FFC2C4"/>
<stop offset="1" stop-color="#E5658E"/>
</linearGradient>
<linearGradient id="paint35_linear_1205_5463" x1="298.28" y1="58.1269" x2="295.572" y2="58.1269" gradientUnits="userSpaceOnUse">
<stop stop-color="#B04C8E"/>
<stop offset="1" stop-color="#FFBDAC"/>
</linearGradient>
<linearGradient id="paint36_linear_1205_5463" x1="86.6602" y1="53.7738" x2="86.6602" y2="34.2295" gradientUnits="userSpaceOnUse">
<stop stop-color="#FAA26B"/>
<stop offset="1" stop-color="#F36E5C"/>
</linearGradient>
<linearGradient id="paint37_linear_1205_5463" x1="47.1648" y1="14.2334" x2="36.0387" y2="14.2334" gradientUnits="userSpaceOnUse">
<stop stop-color="#F47535"/>
<stop offset="1" stop-color="#FD9246"/>
</linearGradient>
<linearGradient id="paint38_linear_1205_5463" x1="86.7958" y1="39.5334" x2="86.7958" y2="30.8682" gradientUnits="userSpaceOnUse">
<stop stop-color="#444443"/>
<stop offset="1" stop-color="#323232"/>
</linearGradient>
<linearGradient id="paint39_linear_1205_5463" x1="86.3883" y1="52.3003" x2="86.3883" y2="38.3668" gradientUnits="userSpaceOnUse">
<stop stop-color="#E1DBFB"/>
<stop offset="1" stop-color="white"/>
</linearGradient>
<linearGradient id="paint40_linear_1205_5463" x1="86.686" y1="44.4479" x2="86.686" y2="37.3159" gradientUnits="userSpaceOnUse">
<stop stop-color="#F1956D"/>
<stop offset="1" stop-color="#FF736F"/>
</linearGradient>
<linearGradient id="paint41_linear_1205_5463" x1="42.7496" y1="213.902" x2="42.7496" y2="143.143" gradientUnits="userSpaceOnUse">
<stop offset="0.02" stop-color="#FFB374"/>
<stop offset="1" stop-color="#FF9577"/>
</linearGradient>
<linearGradient id="paint42_linear_1205_5463" x1="42.2597" y1="213.902" x2="42.2597" y2="195.427" gradientUnits="userSpaceOnUse">
<stop stop-color="#EEA46E"/>
<stop offset="1" stop-color="#E4603C"/>
</linearGradient>
<linearGradient id="paint43_linear_1205_5463" x1="104.23" y1="285.74" x2="104.23" y2="263.873" gradientUnits="userSpaceOnUse">
<stop stop-color="#3B3B3B"/>
<stop offset="1" stop-color="#2A2A2A"/>
</linearGradient>
<linearGradient id="paint44_linear_1205_5463" x1="64.353" y1="287.79" x2="64.353" y2="264.594" gradientUnits="userSpaceOnUse">
<stop stop-color="#333333"/>
<stop offset="1" stop-color="#282828"/>
</linearGradient>
<linearGradient id="paint45_linear_1205_5463" x1="60.159" y1="191.723" x2="60.159" y2="158.401" gradientUnits="userSpaceOnUse">
<stop stop-color="#979797"/>
<stop offset="1" stop-color="#686868"/>
</linearGradient>
<linearGradient id="paint46_linear_1205_5463" x1="113.075" y1="250.12" x2="113.075" y2="178.605" gradientUnits="userSpaceOnUse">
<stop stop-color="#B5B5B5"/>
<stop offset="1" stop-color="#575757"/>
</linearGradient>
<linearGradient id="paint47_linear_1205_5463" x1="97.569" y1="203.49" x2="88.301" y2="203.49" gradientUnits="userSpaceOnUse">
<stop stop-color="#2A2A2A"/>
<stop offset="1" stop-color="#323232"/>
</linearGradient>
<linearGradient id="paint48_linear_1205_5463" x1="82.6854" y1="276.049" x2="82.6854" y2="263.811" gradientUnits="userSpaceOnUse">
<stop stop-color="#4B4B4B"/>
<stop offset="1" stop-color="#2A2A2A"/>
</linearGradient>
<linearGradient id="paint49_linear_1205_5463" x1="142.473" y1="131.666" x2="142.473" y2="105.438" gradientUnits="userSpaceOnUse">
<stop stop-color="#EBEBEB"/>
<stop offset="1" stop-color="#F6F6F6"/>
</linearGradient>
<linearGradient id="paint50_linear_1205_5463" x1="49.188" y1="148.638" x2="49.188" y2="102.444" gradientUnits="userSpaceOnUse">
<stop stop-color="#D9153A"/>
<stop offset="1" stop-color="#F02B44"/>
</linearGradient>
<linearGradient id="paint51_linear_1205_5463" x1="65.0991" y1="149.992" x2="65.0991" y2="124.882" gradientUnits="userSpaceOnUse">
<stop stop-color="#AC526A"/>
<stop offset="1" stop-color="white"/>
</linearGradient>
<linearGradient id="paint52_linear_1205_5463" x1="78.006" y1="154.228" x2="78.006" y2="121.279" gradientUnits="userSpaceOnUse">
<stop stop-color="#AC526A"/>
<stop offset="1" stop-color="white"/>
</linearGradient>
<linearGradient id="paint53_linear_1205_5463" x1="90.8447" y1="153.744" x2="90.8447" y2="128.212" gradientUnits="userSpaceOnUse">
<stop stop-color="#AC526A"/>
<stop offset="1" stop-color="white"/>
</linearGradient>
<linearGradient id="paint54_linear_1205_5463" x1="97.5195" y1="145.954" x2="97.5195" y2="122.335" gradientUnits="userSpaceOnUse">
<stop stop-color="#AC526A"/>
<stop offset="1" stop-color="white"/>
</linearGradient>
<linearGradient id="paint55_linear_1205_5463" x1="92.0768" y1="109.753" x2="92.0768" y2="100.323" gradientUnits="userSpaceOnUse">
<stop stop-color="#AC526A"/>
<stop offset="1" stop-color="white"/>
</linearGradient>
<linearGradient id="paint56_linear_1205_5463" x1="55.3277" y1="89.1479" x2="76.5564" y2="104.498" gradientUnits="userSpaceOnUse">
<stop stop-color="#D63033"/>
<stop offset="1" stop-color="#F53745"/>
</linearGradient>
<linearGradient id="paint57_linear_1205_5463" x1="81.3034" y1="109.04" x2="81.3034" y2="88.8521" gradientUnits="userSpaceOnUse">
<stop stop-color="#F53745"/>
<stop offset="1" stop-color="#D63033"/>
</linearGradient>
<linearGradient id="paint58_linear_1205_5463" x1="97.022" y1="141.395" x2="97.022" y2="123.156" gradientUnits="userSpaceOnUse">
<stop stop-color="white"/>
<stop offset="1" stop-color="#AC526A"/>
</linearGradient>
<linearGradient id="paint59_linear_1205_5463" x1="67.315" y1="146.7" x2="67.315" y2="123.702" gradientUnits="userSpaceOnUse">
<stop stop-color="white"/>
<stop offset="1" stop-color="#AC526A"/>
</linearGradient>
<linearGradient id="paint60_linear_1205_5463" x1="93.5135" y1="334.201" x2="93.5135" y2="245.486" gradientUnits="userSpaceOnUse">
<stop stop-color="#3B3B3B"/>
<stop offset="1" stop-color="#353535"/>
</linearGradient>
<linearGradient id="paint61_linear_1205_5463" x1="26.7492" y1="314.018" x2="26.7492" y2="201.826" gradientUnits="userSpaceOnUse">
<stop stop-color="#FF4C59"/>
<stop offset="1" stop-color="#FF813B"/>
</linearGradient>
<linearGradient id="paint62_linear_1205_5463" x1="22.962" y1="255.233" x2="22.962" y2="213.904" gradientUnits="userSpaceOnUse">
<stop stop-color="#CA4039"/>
<stop offset="1" stop-color="#F8723D"/>
</linearGradient>
<linearGradient id="paint63_linear_1205_5463" x1="16.1435" y1="313.32" x2="16.1435" y2="304.577" gradientUnits="userSpaceOnUse">
<stop stop-color="#CC3045"/>
<stop offset="1" stop-color="#EC484E"/>
</linearGradient>
<linearGradient id="paint64_linear_1205_5463" x1="22.9625" y1="271.656" x2="4.99501" y2="271.656" gradientUnits="userSpaceOnUse">
<stop stop-color="#FA5049"/>
<stop offset="1" stop-color="#D53A34"/>
</linearGradient>
<clipPath id="clip0_1205_5463">
<rect width="223.662" height="313.98" fill="white"/>
</clipPath>
</defs>
</svg>
