<svg width="637" height="823" viewBox="0 0 637 823" fill="none" xmlns="http://www.w3.org/2000/svg">
<g filter="url(#filter0_d_435_6612)">
<path d="M448.112 638H601.012C601.012 582.143 593.138 548.918 593.138 548.918C592.273 548.645 591.395 548.386 590.502 548.13C585.996 546.813 581.411 545.64 576.778 544.597C571.857 533.243 541.654 467.696 501.678 471.406C496.953 471.804 492.373 473.235 488.261 475.595C481.81 472.28 474.564 470.83 467.335 471.407C429.952 474.889 429.065 531.786 429.222 542.32C417.301 543.976 410.189 545.391 410.189 545.391C401.761 575.491 399.071 606.907 402.263 638.001L448.112 638ZM451.435 545.385C455.475 544.864 459.523 544.397 463.576 543.985C463.576 544.008 463.576 544.034 463.584 544.058C456.401 544.758 451.94 545.319 451.436 545.384L451.435 545.385ZM472.613 543.248C472.608 543.215 472.6 543.182 472.592 543.149C477.696 542.729 482.804 542.393 487.915 542.142C482.342 542.483 477.189 542.865 472.613 543.248ZM519.013 478.408C519.013 478.408 552.408 508.027 566.164 542.441C557.464 540.858 548.639 539.69 539.85 538.861C533.115 524.641 516.54 493.599 494.321 479.062C498.599 477.986 502.999 477.468 507.41 477.522C511.293 477.538 515.17 477.834 519.011 478.408H519.013ZM438.374 541.131C439.13 531.864 442.9 491.63 452.006 482.53C452.006 482.53 461.058 475.088 484.242 478.35C466.286 492.75 463.793 525.115 463.542 538.267C458.101 538.756 452.584 539.385 446.99 540.154C443.969 540.47 441.097 540.796 438.372 541.13L438.374 541.131ZM529.967 538.025C511.021 536.54 491.995 536.378 473.026 537.541C474.26 524.226 478.115 490.735 486.326 482.527C486.844 482.134 487.394 481.786 487.971 481.486C496.269 489.467 518.211 512.027 529.965 538.024L529.967 538.025Z" fill="#F4F4F4"/>
</g>
<path fill-rule="evenodd" clip-rule="evenodd" d="M555.79 638.005C555.79 638.005 556.154 582.343 543.156 546.261C543.156 546.261 511.109 467.348 467.324 471.409C426.119 475.247 429.254 543.992 429.254 543.992C432.545 575.244 432.545 606.754 429.254 638.005H442.784C442.784 638.005 447.21 582.567 438.218 543.04C438.218 543.04 441.692 492.84 452 482.531C452 482.531 461.16 474.995 484.664 478.413C484.664 478.413 519.849 509.592 532.875 545.141C532.875 545.141 548.394 595.565 545.229 638.005H555.79Z" fill="url(#paint0_linear_435_6612)"/>
<path fill-rule="evenodd" clip-rule="evenodd" d="M451.385 638.006C451.385 638.006 443.985 587.246 451.385 545.394C451.385 545.394 543.997 533.516 593.132 548.924C593.132 548.924 601.004 582.148 601.004 638.006H451.385Z" fill="url(#paint1_linear_435_6612)"/>
<path fill-rule="evenodd" clip-rule="evenodd" d="M451.385 545.394H410.178C401.753 575.494 399.064 606.911 402.25 638.006H451.385C451.385 638.006 446.931 583.548 451.385 545.394Z" fill="url(#paint2_linear_435_6612)"/>
<path opacity="0.56" fill-rule="evenodd" clip-rule="evenodd" d="M451.385 545.394H410.178C401.753 575.494 399.064 606.911 402.25 638.006H451.385C451.385 638.006 446.931 583.548 451.385 545.394Z" fill="#D6343F"/>
<path fill-rule="evenodd" clip-rule="evenodd" d="M410.177 545.393C410.177 545.393 514.19 524.719 593.132 548.923C546.34 540.519 498.537 539.328 451.385 545.393H410.177Z" fill="url(#paint3_linear_435_6612)"/>
<path fill-rule="evenodd" clip-rule="evenodd" d="M477.101 638.004C477.101 638.004 490.601 601.867 526.236 598.253C561.871 594.639 577.444 638.004 577.444 638.004H477.101Z" fill="#D6343F"/>
<path fill-rule="evenodd" clip-rule="evenodd" d="M486.121 638.004C486.121 638.004 500.968 599.15 532.287 599.15C563.606 599.15 577.444 638.004 577.444 638.004H486.121Z" fill="url(#paint4_linear_435_6612)"/>
<path fill-rule="evenodd" clip-rule="evenodd" d="M418.806 545.392V566.234L432.56 567.242L438.555 545.392C482.832 536.718 528.317 536.158 572.795 543.739C572.795 543.739 496.711 527.02 418.806 545.392Z" fill="#D6343F"/>
<path fill-rule="evenodd" clip-rule="evenodd" d="M590.107 638.005C590.107 638.005 590.471 582.343 577.473 546.261C577.473 546.261 545.426 467.348 501.673 471.409C460.437 475.247 463.573 543.991 463.573 543.991C466.88 575.242 466.88 606.754 463.573 638.004H477.103C477.103 638.004 481.529 582.566 472.565 543.039C472.565 543.039 476.011 492.839 486.32 482.53C486.32 482.53 495.48 474.994 519.012 478.412C519.012 478.412 554.169 509.591 567.195 545.14C567.195 545.14 582.714 595.564 579.549 638.004L590.107 638.005Z" fill="url(#paint5_radial_435_6612)"/>
<path fill-rule="evenodd" clip-rule="evenodd" d="M402.25 638.005C402.25 638.005 399.45 598.983 414.772 591.699C430.964 583.967 448.108 638.005 448.108 638.005H402.25Z" fill="url(#paint6_linear_435_6612)"/>
<path fill-rule="evenodd" clip-rule="evenodd" d="M405.528 638.005C405.528 638.005 402.728 598.983 418.05 591.699C434.242 583.967 451.386 638.005 451.386 638.005H405.528Z" fill="#D6343F"/>
<path fill-rule="evenodd" clip-rule="evenodd" d="M408.781 638.005C408.781 638.005 406.181 598.983 420.415 591.699C435.458 583.967 451.386 638.005 451.386 638.005H408.781Z" fill="#D6343F"/>
<path opacity="0.84" d="M557.835 614.307H513.322V618.033H557.835V614.307Z" fill="#D6343F"/>
<path opacity="0.19" fill-rule="evenodd" clip-rule="evenodd" d="M507.215 554.638L507.915 561.697L547.442 561.478V554.638H507.215Z" fill="#D6343F"/>
<path fill-rule="evenodd" clip-rule="evenodd" d="M402.25 638.005C402.25 638.005 399.45 598.983 414.772 591.699C430.964 583.967 448.108 638.005 448.108 638.005H402.25Z" fill="url(#paint7_linear_435_6612)"/>
<g filter="url(#filter1_d_435_6612)">
<path d="M296.989 638.081C297.789 635.724 298.404 633.77 298.598 632.865C299.947 626.584 298.354 612.584 298.578 610.074C300.849 605.891 302.872 601.578 304.634 597.158C305.052 596.207 305.423 595.291 305.723 594.439C306.566 592.293 307.072 590.889 307.072 590.889C306.861 591.299 306.649 591.706 306.433 592.115C309.028 583.765 325.915 538.598 325.915 538.598L328.651 589.291C328.66 589.371 328.66 589.452 328.651 589.532L328.434 590.11L327.951 591.323C327.54 592.389 327 593.812 326.39 595.422C325.953 596.549 325.522 597.693 325.104 598.823C322.963 604.511 320.582 610.981 320.104 612.862C320.088 612.957 320.088 613.054 320.104 613.149V613.584C319.918 616.098 319.871 626.414 319.745 637.838C329.495 637.838 346.334 638.301 368.62 638.301C370.684 625.301 372.489 614.146 372.928 611.988C373.124 611.068 373.375 610.161 373.678 609.271L373.777 609.154C373.777 609.154 376.278 603.747 378.478 598.536C379.632 596.27 380.654 594.347 381.187 593.173C381.464 592.007 381.653 590.821 381.751 589.626C381.759 589.58 381.765 589.534 381.768 589.488L381.762 589.497C381.762 589.462 381.762 589.428 381.768 589.398C381.768 589.373 381.768 589.349 381.768 589.32C382.349 584.187 383.153 574.337 384.026 562.393C384.026 562.582 384.026 562.674 384.026 562.674C384.026 562.674 384.076 561.884 384.167 560.446C386.537 527.646 389.333 480.629 389.476 470.834C389.484 470.469 389.484 470.188 389.476 469.998C389.476 469.867 389.476 469.751 389.476 469.647C389.229 460.252 379.135 412.052 379.135 412.052C375.698 410.242 372.358 408.254 369.129 406.095C368.981 405.981 368.84 405.86 368.707 405.729L362.675 398.005C356.875 389.915 349.559 378.798 349.559 378.798C349.559 378.798 354.359 374.098 352.296 371.677C351.622 370.952 350.777 370.406 349.838 370.09C348.899 369.774 347.897 369.697 346.921 369.866C348.296 369.034 349.192 368.266 349.243 367.632C349.359 366.22 346.569 364.151 345.126 361.733L345.174 361.655C344.652 360.596 344.435 359.413 344.545 358.239C344.668 357.899 346.019 355.12 347.888 350.985C348.434 351.531 348.989 352.049 349.551 352.537C353.067 355.718 357.251 358.071 361.795 359.424C364.193 360.255 366.678 360.809 369.202 361.074C369.106 359.196 369.081 357.287 369.128 355.351C369.141 358.937 369.274 361.074 369.274 361.074C373.066 352.8 376.065 344.185 378.232 335.345C383.719 338.115 391.082 341.569 394.656 342.11C396.275 342.354 398.719 340.761 401.656 337.795C401.656 337.795 401.656 337.795 401.656 337.801C405.76 333.674 409.366 329.082 412.403 324.117C414.068 330.951 415.146 335.158 415.146 335.158C415.146 335.158 429.822 339.448 438.397 337.313L438.083 331.863C443.02 331.916 447.926 331.08 452.568 329.395C452.568 329.395 452.175 263.787 453.8 235.615C453.8 235.615 453.861 234.931 454.01 233.742C455.139 232.81 456.321 231.941 457.548 231.142C458.069 231.251 458.596 231.343 459.128 231.405C460.014 231.06 460.765 230.441 461.275 229.639C461.784 228.837 462.024 227.894 461.959 226.946C461.434 226.675 460.909 226.399 460.389 226.114L459.901 223.869L460.011 223.56C461.066 224.16 461.775 224.431 461.887 224.206C464.26 222.294 463.194 218.177 463.194 218.177C464.438 217.313 465.419 216.123 466.031 214.739L464.94 212.677C471.748 211.587 471.916 207.159 471.916 207.159C469.666 205.572 467.59 203.749 465.726 201.723C477.385 182.6 493.787 163.051 493.787 163.051L435.806 146.629L437.788 139.365C437.788 139.365 424.846 136.706 418 137.479L417.641 137.429L423.889 111.751C423.889 111.751 402.768 120.231 397.245 137.232C397.245 137.232 391.893 199.692 394.346 231.495C395.452 245.903 399.824 268.53 404.279 288.974C396.537 296.488 391.288 301.54 391.288 301.54L384.481 298.97C384.77 295.96 384.872 294.224 384.872 294.224C384.815 294.296 384.758 294.371 384.699 294.444C384.764 294.301 384.8 294.224 384.8 294.224C384.8 294.224 374.627 291.005 360.578 279.548C352.781 273.26 345.343 266.541 338.298 259.421L338.291 259.442C337.776 258.642 329.024 254.878 323.031 251.772L317.721 248.433C317.692 248.398 317.661 248.363 317.637 248.333C316.602 246.571 314.982 245.227 313.06 244.533C312.822 244.477 312.573 244.492 312.344 244.576C312.115 244.661 311.915 244.811 311.771 245.008C311.521 245.094 311.293 245.232 311.102 245.413C310.91 245.595 310.76 245.815 310.66 246.059L304.34 243.373C302.93 242.273 301.939 238.768 301.239 234.623C312.225 235.709 323.149 237.265 334.011 239.289L334.031 239.303C334.041 239.303 334.05 239.301 334.059 239.297C334.065 239.296 334.072 239.296 334.078 239.297C335.678 239.597 338.837 238.125 341.263 236.797C342.413 236.33 343.486 235.694 344.448 234.91C344.454 234.91 344.46 234.911 344.461 234.901L339.629 241.308C339.629 241.308 358.3 232.372 358.592 212.708C358.884 193.044 346.628 173.836 347.719 166.402C348.81 158.968 353.846 156.274 353.846 147.385C353.846 141.608 350.622 138.309 347.033 134.264C339.5 126.999 335.5 120.999 330.721 115.663L325 114.499C325 114.499 319.5 112.5 303 113.5C293.275 105.467 285.014 102.82 278 102.961C268.994 103.149 262 106.5 259.5 107.5C257.689 111.692 256.899 108.517 253.5 111.567L250 114.499C244.226 117.368 242.547 116.858 237.5 123.5C233.022 129.383 228.786 141.049 231.138 156.313C224.809 170.579 219.768 187.599 216.616 207.912L220.586 210.334L220.839 210.108C226.201 210.359 231.575 210.183 236.909 209.582C234.065 218.596 232.628 225.213 234.343 229.133C235.603 232.008 238.513 234.559 241.588 236.6C241.848 237.147 242.19 237.651 242.603 238.094C245.809 241.758 250.019 244.402 254.712 245.699C251.55 243.972 248.627 241.837 246.02 239.351C251.549 244.179 269.253 242.07 270.397 241.925L270.455 241.942C270.45 241.934 270.444 241.926 270.437 241.921H270.455L270.382 241.86C269.062 240.381 267.841 238.816 266.726 237.177C269.106 236.591 271.661 236.025 274.309 235.531C275.726 235.68 277.156 235.67 278.571 235.504C278.298 235.329 278.035 235.14 277.782 234.937C278.917 234.761 280.058 234.598 281.207 234.461C280.61 236.157 279.881 237.804 279.029 239.387C279.016 239.358 279 239.33 278.983 239.303C277.5 239.057 275.987 239.057 274.504 239.303C273.855 239.66 274.63 241.36 274.788 243.094C274.778 243.81 274.683 244.522 274.504 245.215C273.462 247.395 256.334 268.368 253.963 272.73C251.592 277.092 239.114 324.829 229.744 348.684H229.718C232.26 354.567 236.013 359.848 240.733 364.184C240.396 365.964 240.236 367.773 240.254 369.584C240.254 379.055 248.563 433.084 247.182 440.545C245.876 447.545 229.282 466.752 227.295 470.389C227.258 470.431 227.224 470.477 227.194 470.525C227.17 470.505 227.148 470.484 227.126 470.462C227.049 470.629 227.008 470.811 227.008 470.995C227.483 473.987 228.17 476.941 229.066 479.835L223.836 492.984L223.887 493.049C222.558 496.457 221.225 499.93 220.228 502.674C220.228 502.674 180.915 563.874 177.235 569.374C177.168 569.478 177.106 569.586 177.049 569.697C177.049 569.609 177.043 569.516 177.04 569.425C176.811 570.029 176.62 570.647 176.47 571.276C173.745 581.19 174.814 617.405 174.814 617.405C174.814 617.405 158.491 652.017 167.961 682.92H168.293L168.247 682.971C169.138 683.112 170.018 683.242 170.884 683.371C170.02 683.248 169.322 683.142 168.829 683.065C174.352 683.985 204.871 688.833 221.51 686.604C228.217 685.803 234.966 685.41 241.72 685.429C241.172 690.388 250.849 686.16 264.42 674.576C266.512 672.791 266.731 638.318 266.731 638.318C266.731 638.318 289.089 638.081 296.989 638.081ZM254.347 533.15L248.46 534.383C248.46 534.383 242.312 551.498 232.531 555.789L232.571 555.045C222.725 536.479 226.206 510.946 228.69 498.898C228.83 498.271 228.97 497.662 229.109 497.064L231.585 487.534C231.938 486.305 232.175 485.534 232.239 485.323C234.098 485.493 235.885 486.123 237.44 487.156C239.061 487.834 242.598 488.411 244.22 489.333C246.515 490.144 248.898 490.681 251.319 490.933L256.049 491.804C257.118 503.712 258.125 523.488 254.347 533.15ZM265.03 451.788C262.608 448.536 259.459 444.82 259.459 444.82C259.459 444.82 260.136 417.281 263.574 400.982C265.284 392.869 266.823 384.793 267.937 378.73C271.55 379.788 275.241 380.554 278.977 381.023C278.927 380.867 278.877 380.71 278.829 380.553C278.89 380.709 278.946 380.867 279.003 381.023L283.849 339.853L284.092 340.219L301.3 367.053C301.368 367.162 301.437 367.274 301.5 367.387C301.5 367.387 296.05 369.812 296.146 370.609C296.182 370.909 296.952 371.372 297.896 371.833C289.11 379.333 298.228 383.734 298.583 383.9C292.82 393.656 287.371 403.585 282.237 413.687C275.774 426.033 269.138 439.579 266.003 448.706C265.984 448.749 265.965 448.796 265.944 448.841L265.965 448.819C265.604 449.873 265.292 450.868 265.03 451.788ZM298.598 383.906L298.577 383.939C298.582 383.926 298.587 383.913 298.59 383.9L298.598 383.906ZM300.117 382.79C299.989 382.726 296.708 380.966 296.708 378.09C296.839 376.166 297.625 374.346 298.937 372.932L300.125 382.786L300.117 382.79ZM348.853 377.657C348.828 377.612 348.804 377.57 348.776 377.529L346.782 371.092C346.782 371.033 346.774 370.977 346.772 370.922C352.896 372.233 348.853 377.657 348.853 377.657ZM334.084 239.282C334.084 239.282 334.084 239.283 334.084 239.275H334.09L334.084 239.282ZM350.669 145.387C352.05 152.729 346.092 160.282 346.308 164.305C346.308 164.305 345.343 157.885 344.541 149.045C344.283 146.191 344.071 143.423 343.905 140.982C343 139.5 342.231 133.227 343 131.5C345.016 134.406 350 138.5 350.669 145.387Z" fill="#F4F4F4"/>
<path d="M200.085 287.932L204.132 290.33V290.18C205.63 289.281 229.76 274.444 239.651 253.462C239.951 252.862 240.201 252.263 240.401 251.663L241.45 249.115C248.494 230.231 250.442 199.957 251.641 180.474V180.324C251.941 176.427 252.091 172.98 252.391 170.132C252.69 165.936 254.339 160.091 256.587 153.347C264.081 131.315 279.068 101.641 279.068 101.641C279.068 101.641 259.135 102.69 242.649 113.331C226.163 124.122 215.672 141.806 215.222 149.3C214.623 156.794 216.571 251.663 200.085 287.932V287.932Z" fill="url(#paint8_linear_435_6612)"/>
<g style="mix-blend-mode:multiply" opacity="0.7">
<path d="M204.132 290.33V290.18C205.63 289.281 229.76 274.444 239.651 253.461C249.843 231.73 250.892 188.267 252.39 170.132C252.69 165.936 254.339 160.091 256.587 153.347L252.241 115.729C252.241 115.729 235.455 126.969 230.059 160.091L222.566 147.951L214.473 200.107C214.473 200.107 223.315 247.167 223.615 253.461C224.065 259.756 204.132 290.33 204.132 290.33V290.33Z" fill="#AB5995"/>
</g>
<g style="mix-blend-mode:multiply" opacity="0.7">
<path d="M214.473 200.106L240.401 251.662L241.45 249.114C248.494 230.23 250.442 199.956 251.641 180.473V180.323L230.059 160.09L222.566 147.95L214.473 200.106Z" fill="#A20377"/>
</g>
<path d="M230.059 173.578C230.059 185.568 249.842 187.216 249.842 187.216C249.842 187.216 250.891 148.249 270.225 131.314C289.558 114.228 298.701 114.678 328.226 115.577C328.226 115.577 321.781 102.988 318.784 101.039C315.636 99.0911 275.92 96.0936 257.636 110.781C234.705 129.215 230.659 161.738 230.059 171.48C230.059 172.479 230.059 173.178 230.059 173.578V173.578Z" fill="url(#paint9_linear_435_6612)"/>
<path d="M188.395 329.444C199.635 331.992 209.077 327.196 212.824 318.653C213.873 316.256 214.473 313.558 214.623 310.71C214.623 308.712 214.523 306.764 214.323 304.865C214.223 304.565 214.173 304.266 214.173 303.966C212.374 293.175 205.33 285.232 193.64 285.082C187.795 285.082 182.85 287.48 178.953 291.077L178.803 291.227C167.413 302.167 166.813 324.498 188.395 329.444V329.444Z" fill="url(#paint10_linear_435_6612)"/>
<g style="mix-blend-mode:multiply" opacity="0.7">
<path d="M230.059 173.579C230.059 185.569 249.842 187.218 249.842 187.218C249.842 187.218 250.891 148.251 270.225 131.315C289.558 114.23 298.701 114.679 328.226 115.578C328.226 115.578 297.352 109.434 277.719 122.473C253.889 138.359 248.643 173.879 248.643 173.879C248.643 173.879 240.85 177.476 237.852 174.029C236.953 172.98 242.498 143.455 259.434 128.468C258.535 128.917 236.953 134.762 236.653 169.383C236.653 169.383 231.858 174.628 230.059 171.481C230.059 172.48 230.059 173.18 230.059 173.579V173.579Z" fill="#BCBCBC"/>
</g>
<path d="M319.983 100.74C318.784 100.141 314.587 97.1434 284.163 100.74C253.889 104.187 245.496 123.971 245.496 123.971C245.496 123.971 258.685 105.836 285.662 102.539C312.639 99.3915 323.729 107.635 323.729 107.635C323.729 107.635 321.032 101.19 319.983 100.74Z" fill="white"/>
<g style="mix-blend-mode:color-burn" opacity="0.6">
<path d="M188.394 329.446C199.634 331.994 209.076 327.198 212.823 318.656L214.322 304.867L214.472 303.519C214.472 303.519 214.372 303.668 214.172 303.968C211.774 306.666 190.792 327.348 178.502 320.154C165.014 312.511 178.952 291.079 178.952 291.079L178.802 291.229C167.412 302.17 166.812 324.501 188.394 329.446V329.446Z" fill="url(#paint11_linear_435_6612)" style="mix-blend-mode:multiply"/>
</g>
</g>
<path d="M259.577 719.301C257.194 733.605 256.277 748.115 256.84 762.606L235.333 756.599L238.942 718.089C242.245 716.7 245.823 716.087 249.401 716.297C252.978 716.507 256.46 717.534 259.578 719.3L259.577 719.301Z" fill="url(#paint12_linear_435_6612)"/>
<path d="M345.413 722.909C344.614 733.6 344.614 744.335 345.413 755.025C340.245 757.43 334.958 759.572 329.573 761.443C327.514 761.685 321.532 755.025 321.532 755.025V722.909C329.459 723.943 337.486 723.943 345.413 722.909V722.909Z" fill="url(#paint13_linear_435_6612)"/>
<path d="M350.306 761.467C350.306 761.467 357.935 744.344 354.884 744.367C351.833 744.39 334.273 757.712 331.754 758.899C329.235 760.086 322.066 747.685 322.066 747.685C322.066 747.685 317.028 748.385 316.689 749.647C316.35 750.909 320.467 755.072 320.467 755.072L310.149 796.441C310.149 796.441 314.727 807.921 336.791 808.841C358.855 809.761 395.379 798.669 408.07 799.589C400.274 795.091 392.016 791.445 383.439 788.714C366.218 782.635 350.306 761.467 350.306 761.467Z" fill="url(#paint14_linear_435_6612)"/>
<path d="M205.058 800.461C205.058 800.461 218.064 793.195 228.842 794.961C237.125 796.342 244.464 804.818 250.034 807.846C250.684 808.294 251.418 808.605 252.191 808.763C252.964 808.922 253.761 808.923 254.534 808.766C259.378 807.24 262.551 793.12 263.277 789.266V788.515C263.272 788.443 263.272 788.37 263.277 788.297C263.277 788.297 258.724 781.709 257.803 767.997C257.655 765.279 257.655 762.554 257.803 759.835C257.885 757.532 258.738 755.323 260.225 753.562L256.132 749.275C256.132 749.275 256.689 760.997 254.872 761.385C253.055 761.773 243.872 745.86 235.908 748.96C227.944 752.06 230.313 768.336 222.514 780.446C216.265 790.134 206.141 797.109 205.269 799.483C205.216 799.813 205.145 800.139 205.058 800.461Z" fill="url(#paint15_linear_435_6612)"/>
<path d="M200.771 810.175L249.695 809.303L267.061 808.94C268.272 800.34 263.452 788.305 263.452 788.305C263.447 788.377 263.447 788.45 263.452 788.523V789.274C262.701 792.544 259.867 803.104 254.252 803.685C252.288 803.676 250.376 803.058 248.778 801.917V801.917C242.699 798.357 234.778 790.994 223.807 793.392C218.648 794.53 207.943 796.928 205.642 799.592C202.991 802.549 201.293 806.237 200.771 810.175V810.175Z" fill="url(#paint16_linear_435_6612)"/>
<path d="M311.069 792.323C307.416 797.636 305.129 803.766 304.409 810.173H409.96L407.974 799.468C407.974 799.468 392.812 797.361 368.956 803.755C345.1 810.149 314.969 799.589 311.069 792.323Z" fill="url(#paint17_linear_435_6612)"/>
<path opacity="0.73" d="M345.074 728.117L321.532 735.068V724.091L345.413 723.316L345.074 728.117Z" fill="#E36E5D"/>
<path opacity="0.73" d="M257.567 735.067L237.9 730.029L238.481 722.763L259.581 721.363C259.581 721.363 257.857 731.386 257.567 735.067Z" fill="#E36E5D"/>
<path d="M384.867 294.217C384.867 294.217 382.567 332.969 369.267 361.064C369.27 361.064 366.508 317.323 384.867 294.217Z" fill="#C21651"/>
<path d="M278.977 381.021C278.977 381.021 242.017 377.34 229.714 348.663C229.714 348.664 268.563 347.453 278.977 381.021Z" fill="#C21651"/>
<path d="M446.676 241.829C450.304 236.438 455.247 232.062 461.038 229.113L459.9 223.857L465.858 206.637C465.858 206.637 459.585 204.215 446.676 214.266C433.767 224.317 435.946 245.752 435.946 245.752L446.676 241.829Z" fill="url(#paint18_linear_435_6612)"/>
<path d="M334.078 239.286C320.819 236.812 307.439 235.033 293.994 233.958C275.466 232.747 251.585 241.708 251.585 241.708C251.585 241.708 237.562 236.476 234.34 229.114C231.118 221.752 239.014 204.894 246.45 180.48C250.006 168.327 254.219 156.377 259.069 144.68C259.069 144.68 279.729 118.038 303.125 118.038C326.521 118.038 336.185 124.48 339.455 132.158C342.725 139.836 341.586 156.233 344.565 165.436C347.544 174.639 355.173 191.136 352.194 202.836C349.215 214.536 334.078 239.286 334.078 239.286Z" fill="url(#paint19_linear_435_6612)"/>
<path d="M326.594 118.066C337.081 124.944 338.97 136.425 338.97 144.708C338.97 152.991 336.693 163.527 341.053 172.708C345.413 181.889 346.769 193.343 338.753 202.983C330.737 212.623 328.653 216.983 324.753 218.823C320.853 220.663 302.568 219.428 282.078 209.353C261.588 199.278 252.094 170.189 255.436 152.753C258.778 135.317 299.807 100.555 326.594 118.066Z" fill="url(#paint20_linear_435_6612)"/>
<path d="M262.339 175.516C262.339 175.516 252.869 165.828 244.901 170.916C236.933 176.004 243.23 194.942 252.167 198.309C254.544 199.35 257.174 199.676 259.733 199.246C262.293 198.815 264.672 197.648 266.578 195.887C266.578 195.887 265.851 181.159 262.339 175.516Z" fill="url(#paint21_linear_435_6612)"/>
<path opacity="0.65" fill-rule="evenodd" clip-rule="evenodd" d="M257.385 184.706C257.385 184.706 254.658 176.431 248.749 174.049C248.749 174.049 244.956 175.761 246.482 184.705C246.482 184.705 246.697 177.367 249.365 176.797L251.872 180.051C250.669 181.928 250.078 184.131 250.181 186.358C250.532 188.629 251.692 190.697 253.447 192.181C254.772 191.468 255.854 190.375 256.555 189.044C257.257 187.713 257.545 186.202 257.385 184.706V184.706Z" fill="#DD6668"/>
<path d="M276.337 205.741C276.337 205.741 282.15 230.494 281.447 233.715C280.464 236.714 279.079 239.566 277.33 242.192C277.33 242.192 297.292 261.711 308.308 262.173C319.324 262.635 315.574 248.634 315.574 248.634C311.581 247.455 307.792 245.675 304.336 243.354C300.194 240.133 299.662 216.179 299.662 216.179C299.662 216.179 281.692 210.561 276.337 205.741Z" fill="#FF926D"/>
<path d="M371.401 331.758C371.401 331.758 388.549 341.18 394.652 342.1C400.755 343.02 418.533 317.88 430.452 291.238C437.218 275.212 442.645 258.654 446.679 241.732L439.025 239.189C439.025 239.189 426.164 267.647 413.618 279.878C401.072 292.109 391.287 301.531 391.287 301.531L380.897 297.607C380.897 297.607 373.217 317.444 371.401 331.758Z" fill="url(#paint22_linear_435_6612)"/>
<path d="M452.562 329.384C452.562 329.384 452.078 248.175 454.427 227.66C456.776 207.145 493.784 163.041 493.784 163.041L435.802 146.624L437.788 139.358C437.788 139.358 424.346 136.597 417.613 137.517L423.886 111.747C423.886 111.747 402.766 120.224 397.244 137.224C397.244 137.224 391.891 199.687 394.338 231.488C396.785 263.289 415.138 335.149 415.138 335.149C415.138 335.149 429.815 339.436 438.389 337.305L438.074 331.855C443.011 331.907 447.916 331.07 452.557 329.385L452.562 329.384Z" fill="url(#paint23_linear_435_6612)" stroke="#EEEEEE"/>
<path opacity="0.7" d="M417.613 137.417C417.613 137.417 399.327 201.672 397.147 219.765C394.967 237.858 413.302 327.737 413.302 327.737C413.302 327.737 410.614 235.871 412.43 217.052C414.246 198.233 428.924 138.943 428.924 138.943L417.613 137.417Z" fill="url(#paint24_linear_435_6612)"/>
<path opacity="0.7" d="M435.801 146.62C435.801 146.62 428.923 205.499 428.923 219.72C428.923 233.941 438.102 331.761 438.102 331.761H440.645C440.645 331.761 433.983 273.629 434.783 269.1C435.583 264.571 440.644 232.068 440.644 232.068L453.795 235.604C453.795 235.604 455.636 214.804 464.185 204.312C464.185 204.312 445.947 179.777 443.743 173.044C441.539 166.311 440.11 147.88 440.11 147.88L435.801 146.62Z" fill="url(#paint25_linear_435_6612)"/>
<path d="M457.067 190.192C457.067 190.192 463.655 201.503 471.914 207.146C471.914 207.146 471.744 211.578 464.939 212.668L466.029 214.727C465.418 216.112 464.438 217.302 463.195 218.166C463.195 218.166 464.261 222.283 461.887 224.197C461.427 225.097 451.182 217.897 447.525 213.516C445.252 210.434 444.115 206.661 444.304 202.835C444.304 202.835 442.923 200.873 443.723 195.714L463.583 211.554L464.019 209.471C460.758 206.964 458.129 203.73 456.341 200.025C455.316 196.776 455.576 193.257 457.067 190.192V190.192Z" fill="url(#paint26_linear_435_6612)"/>
<path d="M461.96 226.934C462.024 227.882 461.784 228.825 461.274 229.627C460.764 230.428 460.012 231.046 459.126 231.39C455.726 230.991 452.526 229.573 449.947 227.321C446.895 223.954 446.435 217.851 447.21 217.221C451.767 220.974 456.711 224.23 461.96 226.933V226.934Z" fill="url(#paint27_linear_435_6612)"/>
<path d="M251.316 187.427C257.444 170.473 250.856 160.519 256.16 145.987C261.464 131.455 294.718 112.467 312.302 111.643C329.886 110.819 336.522 117.674 341.366 126.562C346.21 135.45 353.839 138.478 353.839 147.362C353.839 156.246 348.801 158.939 347.711 166.375C346.621 173.811 358.876 193.017 358.586 212.684C358.296 232.351 339.622 241.284 339.622 241.284L344.466 234.866C344.2 235.108 341.923 237.143 334.027 239.274L330.055 236.074C330.055 236.074 349.794 211.442 349.794 191.558C349.794 171.674 343.521 169.518 341.535 158.982C339.549 148.446 341.147 139.315 337.95 135.246C330.2 125.316 296.171 122.579 296.171 122.579C296.171 122.579 288.905 140.623 276.965 150.723C271.31 167.018 267.841 183.991 266.647 201.197C265.247 227.355 278.563 235.468 278.563 235.468C275.702 235.804 272.803 235.498 270.075 234.572C267.348 233.646 264.861 232.123 262.796 230.115C262.796 230.115 263.256 236.073 270.45 241.886C270.45 241.886 251.728 244.308 246.012 239.319C248.62 241.806 251.543 243.94 254.707 245.665C250.013 244.37 245.802 241.726 242.597 238.06C236.325 231.487 245.216 204.409 251.316 187.427ZM344.539 149.038C345.339 157.878 346.307 164.297 346.307 164.297C346.089 160.276 352.047 152.72 350.666 145.381C349.462 140.413 346.954 135.856 343.4 132.181C343.4 132.181 343.739 140.222 344.538 149.038H344.539Z" fill="url(#paint28_linear_435_6612)"/>
<path d="M338.292 259.412C345.336 266.534 352.775 273.254 360.574 279.539C374.622 290.995 384.794 294.216 384.794 294.216C384.794 294.216 367.67 331.394 369.194 361.063C369.194 361.063 347.154 359.513 339.815 337.788C332.476 316.063 335.528 271.716 335.528 271.716L338.292 259.412Z" fill="url(#paint29_linear_435_6612)"/>
<path d="M238.942 709.83C242.842 706.149 239.16 708.667 239.16 708.667C239.16 708.667 246.281 643.273 247.66 633.585C249.039 623.897 258.22 573.447 259.576 552.812C260.932 532.177 262.797 470.852 264.176 455.932C265.555 441.012 298.593 383.902 298.593 383.902C298.593 383.902 288.905 379.47 297.939 371.792L346.016 369.879H346.791C347.785 369.686 348.811 369.749 349.773 370.063C350.736 370.376 351.602 370.93 352.291 371.671C354.35 374.093 349.554 378.792 349.554 378.792C349.554 378.792 365.999 403.787 369.124 406.092C372.352 408.25 375.69 410.238 379.124 412.05C379.124 412.05 389.224 460.25 389.466 469.65C389.66 478.175 384.017 569.363 381.766 589.321C381.675 590.594 381.481 591.857 381.185 593.099C379.659 596.466 374.161 605.936 372.926 611.918C371.691 617.9 360.089 692.518 360.089 692.518C361.193 694.261 362.118 696.111 362.85 698.04C362.85 698.96 351.224 707.728 351.224 707.728C351.224 707.728 353.888 715.963 353.21 719.62C346.424 723.427 338.917 725.77 331.17 726.498C320.15 726.958 312.811 716.156 312.811 716.156L317.873 704.482C316.73 701.494 315.808 698.426 315.112 695.303C315.112 693.703 318.091 677.186 319.012 665.003C319.912 653.303 319.739 618.503 320.102 613.584V613.148C320.085 613.052 320.085 612.953 320.102 612.857C320.829 609.999 325.963 596.509 327.949 591.325L328.433 590.114L328.651 589.533C328.659 589.452 328.659 589.371 328.651 589.291L325.914 538.599C325.914 538.599 307.555 587.693 306.175 592.973C304.795 598.253 298.909 607.892 298.594 609.927C298.279 611.962 299.975 626.445 298.594 632.863C297.213 639.281 274.737 698.499 274.737 698.499L269.457 706.976C269.457 706.976 273.599 710.657 273.817 712.038C274.035 713.419 260.11 723.005 249.042 724.415C237.974 725.825 235.503 719.837 235.503 719.837C235.503 719.837 235.042 713.487 238.942 709.83ZM346.769 370.92C346.901 373.301 347.616 375.613 348.852 377.653C348.852 377.653 352.898 372.228 346.769 370.92ZM300.121 382.788L298.934 372.93C297.623 374.344 296.837 376.165 296.706 378.089C296.707 381.02 300.122 382.788 300.122 382.788H300.121Z" fill="url(#paint30_linear_435_6612)"/>
<path d="M278.978 239.286C277.494 239.038 275.98 239.038 274.497 239.286C273.577 239.795 275.539 243.016 274.497 245.196C273.455 247.376 256.332 268.35 253.958 272.71C251.584 277.07 239.111 324.81 229.738 348.664C229.738 348.664 271.566 360.364 279.002 381.022L283.846 339.848C283.846 339.848 295.084 356.802 301.502 367.386C301.502 367.386 296.053 369.808 296.15 370.607C296.247 371.406 301.502 373.344 301.502 373.344C301.502 373.344 314.581 378.406 323.542 378.406C332.503 378.406 329.042 378.164 334.542 375.645C340.042 373.126 349.074 369.687 349.242 367.628C349.41 365.569 343.405 362.106 344.398 358.206C345.391 354.306 361.086 322.651 360.407 313.472C359.728 304.293 340.595 281.72 339.675 276.872C338.755 272.024 338.975 260.572 338.294 259.434C337.613 258.296 319.594 250.934 317.634 248.317C316.599 246.554 314.979 245.209 313.056 244.517C311.675 244.057 310.634 246.939 310.634 246.939C313.346 249.708 314.905 253.405 314.994 257.281C314.776 263.118 296.175 257.281 288.836 251.081C284.773 247.867 281.418 243.85 278.979 239.281L278.978 239.286Z" fill="url(#paint31_linear_435_6612)"/>
<path d="M298.935 372.931C298.935 372.931 318.141 379.031 325.819 377.775C332.963 376.063 339.966 373.813 346.769 371.042L348.852 377.775C341.579 382.481 333.263 385.333 324.632 386.082C316.337 386.786 307.988 385.704 300.146 382.909L298.935 372.931Z" fill="#2C2C2C"/>
<path opacity="0.5" d="M308.356 166.385C308.356 166.385 309.543 174.692 308.162 177.236C306.781 179.78 296.536 180.481 291.813 178.302C288.757 176.651 286.331 174.038 284.913 170.867L308.356 166.385Z" fill="url(#paint32_linear_435_6612)"/>
<path d="M319.764 377.654C318.046 378.641 316.73 380.201 316.048 382.062C315.366 383.922 315.361 385.963 316.034 387.826L312.57 386.76C312.57 386.76 308.77 379.082 315.38 377.072L319.764 377.654Z" fill="#525252"/>
<path opacity="0.5" d="M303.876 406.04C303.876 406.04 297.458 428.516 293.558 436.557C289.658 444.598 277.258 451.912 277.258 451.912C277.258 451.912 282.538 420.935 303.876 406.04Z" fill="url(#paint33_linear_435_6612)"/>
<path opacity="0.5" d="M369.124 406.259C369.124 406.259 354.592 396.571 350.16 391.969L359.848 394.391L369.124 406.259Z" fill="url(#paint34_linear_435_6612)"/>
<path opacity="0.5" d="M277.258 453.462L285.129 472.862L281.181 502.701L277.258 453.462Z" fill="url(#paint35_linear_435_6612)"/>
<path opacity="0.5" d="M326.134 538.668L348.465 457.919L355.198 444.619C355.198 444.619 353.091 416.742 350.16 410.009C347.229 403.276 340.666 381.987 340.666 381.987C340.666 381.987 351.371 409.695 352.437 411.535C353.503 413.375 356.869 445.201 356.869 445.201L327.95 572.358L326.134 538.668Z" fill="url(#paint36_linear_435_6612)"/>
<path opacity="0.76" d="M326.134 538.668L344.323 472.862C344.323 472.862 342.095 510.282 338.244 527.211C334.393 544.14 326.134 538.668 326.134 538.668Z" fill="#3B3B3B"/>
<path opacity="0.5" d="M311.675 178.639C311.675 178.639 313.225 148.098 308.551 138.939C308.551 138.939 285.445 144.679 281.013 150.639C276.581 156.599 281.013 177.039 281.013 177.039C281.013 177.039 297.918 189.684 311.675 178.639Z" fill="url(#paint37_linear_435_6612)"/>
<path d="M307.533 174.281C305.474 177.454 297.99 178.253 291.717 176.703C289.864 176.152 288.185 175.131 286.844 173.739C285.502 172.347 284.545 170.631 284.064 168.759C284.064 168.759 290.337 152.217 301.188 153.137C312.039 154.057 308.501 172.731 307.533 174.281Z" fill="url(#paint38_linear_435_6612)"/>
<path d="M304.457 153.353C304.457 153.353 302.157 150.64 300.897 150.737C299.637 150.834 289.78 154.757 287.576 161.975L304.457 153.353Z" fill="url(#paint39_linear_435_6612)"/>
<path d="M307.363 157.35L310.536 152.143C310.536 152.143 290.797 154.323 286.122 164.253C291.998 159.567 299.202 156.855 306.709 156.503L307.363 157.35Z" fill="#95344D"/>
<path d="M296.224 177.355H298.646C301.477 177.45 304.27 176.69 306.663 175.175C308.819 173.455 308.94 168.127 308.722 164.203C308.552 161.781 308.262 159.703 308.262 159.703C308.262 159.703 297.506 161.83 296.224 177.355Z" fill="#5F7C4B"/>
<path d="M298.62 177.428C301.451 177.523 304.244 176.764 306.637 175.248C308.793 173.528 308.914 168.2 308.696 164.276C308.696 164.301 301.091 163.914 298.62 177.428Z" fill="#351F58"/>
<path d="M302.495 169.46C301.748 168.637 300.796 168.029 299.736 167.697C298.676 167.365 297.546 167.321 296.464 167.571C296.464 167.571 297.917 170.307 302.495 169.46Z" fill="#F2FCEF"/>
<path d="M308.985 136.399C308.746 139.517 307.486 142.47 305.4 144.799C301.444 144.672 297.484 144.94 293.581 145.599C289.256 146.856 285.069 148.544 281.081 150.637C281.081 150.637 286.7 141.482 293.918 138.261C298.689 136.327 303.885 135.684 308.983 136.396L308.985 136.399Z" fill="url(#paint40_linear_435_6612)"/>
<path opacity="0.5" d="M318.505 181.909C317.117 183.202 316.025 184.78 315.305 186.535C314.457 188.957 317.005 191.016 319.713 189.296C322.421 187.576 323.513 187.77 323.273 188.908C323.033 190.046 324.773 191.208 328.844 190.846C332.915 190.484 336.744 186.511 335.287 182.708C335.287 182.708 338.024 189.441 328.772 191.79C319.52 194.139 317.703 190.216 314.41 189.077C311.117 187.938 318.505 181.909 318.505 181.909Z" fill="url(#paint41_linear_435_6612)"/>
<path opacity="0.5" d="M317.826 190.531C319.137 189.577 320.642 188.924 322.234 188.618C323.663 188.763 322.767 190.58 321.334 191.282C319.901 191.984 317.826 190.531 317.826 190.531Z" fill="url(#paint42_linear_435_6612)"/>
<path opacity="0.5" d="M313.636 187.674C313.636 187.674 314.387 188.352 319.909 187.674C326.255 186.974 330.809 187.383 335.434 185.882C335.434 185.882 333.182 195.282 327.514 195.812C320.078 196.587 313.636 187.674 313.636 187.674Z" fill="url(#paint43_linear_435_6612)"/>
<path d="M331.511 199.639C331.511 199.639 328.169 206.324 324.611 207.946C321.053 209.568 309.522 203.102 306.228 195.255C306.228 195.255 315.189 199.203 320.397 199.348C325.605 199.493 331.511 199.639 331.511 199.639Z" fill="#FF524C"/>
<path d="M334.829 197.531C332.163 199.491 329.181 200.982 326.013 201.939C322.113 202.739 313.613 200.098 310.536 198.718C308.32 197.503 306.427 195.775 305.014 193.68C306.279 195.292 307.951 196.538 309.858 197.289C315.581 197.836 321.332 198.03 327.078 197.87C329.718 197.87 329.669 198.67 331.147 198.839C332.468 198.734 333.738 198.283 334.829 197.531Z" fill="#E0223B"/>
<path opacity="0.5" d="M308.768 193.68C308.768 193.68 301.817 193.317 299.661 197.87C299.661 197.871 300.436 190.58 308.768 193.68Z" fill="url(#paint44_linear_435_6612)"/>
<path d="M300.558 229.525C300.558 229.525 290.579 231.535 279.293 219.525L276.265 205.741C283.461 210.441 291.36 213.965 299.665 216.18L300.558 229.525Z" fill="#E36E5D"/>
<path opacity="0.5" d="M339.988 170.089C339.988 170.089 339.213 178.489 337.566 179.607C335.919 180.725 330.3 178.88 328.484 172.559C326.668 166.238 329.211 151.459 329.211 151.459L338.899 141.771C339.094 144.998 339.094 148.233 338.899 151.459C338.462 156.477 338.946 167.498 339.988 170.089Z" fill="url(#paint45_linear_435_6612)"/>
<path opacity="0.5" d="M322.961 219.28C322.961 219.28 308.861 216.858 295.471 213.055C286.758 210.441 278.523 206.443 271.081 201.212C271.081 201.212 276.167 208.357 293.242 214.267C302.754 217.755 312.83 219.455 322.96 219.281L322.961 219.28Z" fill="#FFBB89"/>
<path d="M334.078 239.285C334.078 239.285 349.966 226.836 352.849 213.757C354.493 204.563 354.493 195.151 352.849 185.957C352.849 185.957 357.572 201.627 355.949 212.599C354.326 223.571 344.517 234.857 344.517 234.857C344.517 234.857 336.888 239.818 334.078 239.285Z" fill="#313131"/>
<path d="M262.798 230.132C259.109 222.631 257.109 214.413 256.937 206.057C257.3 193.947 266.213 172.149 269.774 158.223C269.774 158.223 259.093 185.713 253.958 203.175C248.823 220.637 249.429 236.332 270.452 241.927C267.305 238.415 264.723 234.436 262.798 230.132V230.132Z" fill="#313131"/>
<path d="M338.002 135.263C338.002 135.263 330.373 144.224 329.234 152.217C332.147 149.344 335.4 146.839 338.922 144.757C338.922 144.757 339.77 138.121 338.002 135.263Z" fill="url(#paint46_linear_435_6612)"/>
<path d="M277.016 150.738C277.016 150.738 260.377 165.464 254.104 167.692L254.782 170.986C254.782 170.986 266.141 167.718 277.016 150.738Z" fill="#313131"/>
<path opacity="0.5" d="M337.129 168.783C337.129 168.783 337.25 176.437 336.402 177.405C335.738 177.82 334.976 178.054 334.193 178.085C333.41 178.115 332.633 177.941 331.938 177.578C331.243 177.216 330.655 176.679 330.232 176.02C329.808 175.36 329.565 174.602 329.524 173.82C328.531 168.512 337.129 168.783 337.129 168.783Z" fill="#F07659"/>
<path d="M338.223 166.601C338.223 166.601 336.77 175.78 333.379 176.919C329.988 178.058 327.639 170.985 328.898 164.373C330.157 157.761 334.687 150.325 335.97 149.841C337.253 149.357 338.559 160.159 338.223 166.601Z" fill="url(#paint47_linear_435_6612)"/>
<path d="M329.622 161.734C329.622 161.734 332.359 151.005 337.348 147.834C337.348 147.834 338.462 154.277 338.559 156.481C335.363 157.834 332.358 159.601 329.622 161.737V161.734Z" fill="url(#paint48_linear_435_6612)"/>
<path d="M329.622 161.734C329.622 161.734 335.774 155.634 342.216 154.468L338.171 159.312L338.05 157.956C334.945 158.411 332.028 159.719 329.622 161.734V161.734Z" fill="#95344D"/>
<path d="M330.445 175.661C330.651 176.174 331.028 176.602 331.511 176.872C332.262 177.26 333.424 177.187 335.071 175.516C337.251 173.336 337.953 168.831 338.171 165.392C338.244 164.004 338.244 162.613 338.171 161.226C338.171 161.226 329.937 161.876 330.445 175.661Z" fill="#5F7C4B"/>
<path d="M331.511 176.872C332.262 177.26 333.424 177.187 335.071 175.516C337.251 173.336 337.953 168.831 338.171 165.392C337.469 165.465 332.041 167.422 331.511 176.872Z" fill="#372259"/>
<path d="M334.829 168.977C334.829 168.977 332.407 165.489 329.529 165.853C329.622 165.853 331.85 169.413 334.829 168.977Z" fill="#F2FCEF"/>
<path d="M296.22 122.595C296.22 122.595 272.557 151.659 254.15 154.42L253.908 161.686C253.908 161.686 281.763 147.395 296.22 122.595Z" fill="#313131"/>
<path opacity="0.5" d="M338.002 135.262C338.002 135.262 338.317 122.28 327.854 118.062C317.391 113.844 296.223 122.591 296.223 122.591C296.223 122.591 325.311 120.609 338.002 135.262Z" fill="#1F1F1F"/>
<path d="M265.948 461.093C265.948 461.093 272.584 470.587 273.819 478.047C275.054 485.507 273.504 602.126 273.819 612.201C274.134 622.276 277.476 624.141 279.319 634.001C281.162 643.861 277.26 691.862 277.26 691.862L274.96 698.643L269.68 707.12C269.68 707.12 274.04 710.826 274.04 712.182C274.04 713.538 264.04 721.216 251.079 724.292C238.118 727.368 235.723 720.005 235.723 720.005C235.487 715.96 236.707 711.965 239.162 708.743L242.044 685.129L264.226 490.472L265.948 461.093Z" fill="#3B3B3B"/>
<path d="M391.286 301.627C391.286 301.627 381.186 308.505 378.667 317.927C377.213 323.182 376.177 328.543 375.567 333.961L372.249 332.217C372.249 332.217 377.432 309.983 383.027 298.503L391.286 301.627Z" fill="#E47E51"/>
<path d="M227.001 470.973C227.122 472.45 229.762 485.311 232.16 485.311C234.047 485.471 235.863 486.104 237.44 487.152C239.063 487.83 242.599 488.411 244.222 489.332C246.518 490.14 248.901 490.677 251.322 490.932L257.522 492.07C257.863 488.604 257.009 485.125 255.1 482.212C255.1 482.212 257.4 468.455 259.46 468.455C261.52 468.455 266.338 477.174 266.338 477.174C266.338 477.174 268.397 458.355 267.719 456.054C267.041 453.753 259.46 444.816 259.46 444.816C259.46 444.816 260.138 417.278 263.577 400.978C267.016 384.678 269.753 368.523 269.753 368.523C262.152 362.597 253.795 357.71 244.903 353.991C241.815 358.593 240.193 364.023 240.253 369.564C240.253 379.034 248.56 433.064 247.18 440.528C245.872 447.528 229.28 466.734 227.295 470.367C227.145 470.539 227.043 470.749 227.001 470.973Z" fill="url(#paint49_linear_435_6612)"/>
<path d="M268.878 372.931C268.878 372.931 259.478 357.89 242.236 359.707L244.852 354.064C244.852 354.064 260.28 360.071 269.702 368.596L268.878 372.931Z" fill="#E47E51"/>
<path opacity="0.75" d="M228.988 762.605C236.835 761.243 244.888 761.656 252.554 763.816C252.554 763.816 246.887 752.19 239.548 750.665C232.209 749.14 228.988 762.605 228.988 762.605Z" fill="#CC2A2A"/>
<path opacity="0.75" d="M350.305 761.468L329.5 763.89C329.5 763.89 347.617 747.106 355.609 745.556C354.405 751.031 352.627 756.365 350.305 761.468V761.468Z" fill="#CC2A2A"/>
<path opacity="0.5" d="M226.998 470.975C227.119 472.452 229.759 485.313 232.157 485.313C234.044 485.473 235.86 486.106 237.437 487.154C239.06 487.832 242.596 488.413 244.219 489.334C246.516 490.141 248.898 490.678 251.319 490.934L257.519 492.072C257.86 488.606 257.006 485.128 255.097 482.215C255.097 482.215 257.397 468.458 259.456 468.458C261.515 468.458 266.335 477.177 266.335 477.177C266.335 477.177 268.394 458.358 267.715 456.057C267.715 456.057 258.148 467.222 256.622 469.669C255.096 472.116 251.778 479.769 251.778 479.769C249.616 479.753 247.463 479.493 245.36 478.994C243.598 477.461 241.409 476.505 239.087 476.257C235.866 476.257 233.587 474.102 231.821 473.641C230.097 472.825 228.512 471.746 227.121 470.441C227.043 470.608 227.002 470.789 227 470.974L226.998 470.975Z" fill="url(#paint50_linear_435_6612)"/>
<path d="M333.351 384.46L338.051 399.113L348.466 457.919C348.466 457.919 338.778 409.6 337.834 405.241C336.89 400.882 332.215 384.46 332.215 384.46H333.351Z" fill="#484848"/>
<path opacity="0.5" d="M348.85 377.654L350.909 381.021C350.909 381.021 341.948 390.515 336.909 391.968C331.87 393.421 298.157 384.702 298.157 384.702L300.216 382.692C309.127 384.912 318.319 385.786 327.488 385.284C335.105 384.435 342.419 381.822 348.85 377.654Z" fill="#434343"/>
<path opacity="0.5" d="M381.767 589.482C381.767 589.482 367.744 605.782 362.851 612.082C357.958 618.382 354.592 632.112 354.592 632.112L373.774 609.151C373.774 609.151 381.452 592.512 381.767 589.482Z" fill="url(#paint51_linear_435_6612)"/>
<path opacity="0.72" d="M351.226 707.795C349.126 709.244 346.924 710.539 344.638 711.67C341.877 712.881 333.473 712.59 333.473 712.59L340.739 716.223L327.903 712.881C323.761 711.815 317.803 704.549 317.803 704.549C317.803 704.549 314.751 697.816 315.042 695.37C315.042 695.37 321.775 706.317 323.907 707.07C326.039 707.823 329.26 709.056 329.26 709.056C329.26 709.056 321.776 689.171 322.382 683.673C322.988 678.175 326.669 664.539 328.51 664.079C330.351 663.619 331.852 704.938 333.088 706.464C334.324 707.99 337.932 679.531 339.361 671.272C340.79 663.013 356.654 641.142 358.495 642.378C360.336 643.614 350.527 694.838 342.437 705.689L362.782 698.205C359.165 701.674 355.304 704.88 351.229 707.796L351.226 707.795Z" fill="url(#paint52_linear_435_6612)"/>
<path opacity="0.5" d="M307.073 590.887C303.317 598.191 298.501 604.9 292.783 610.796C284.524 618.668 273.819 636.106 273.819 636.106C273.819 636.106 288.496 619.006 293.704 616.221C298.912 613.436 307.073 590.887 307.073 590.887Z" fill="url(#paint53_linear_435_6612)"/>
<path opacity="0.5" d="M269.677 707.069C269.677 707.069 255.145 712.591 251.1 713.487C248.373 714.023 245.568 714.023 242.841 713.487L248.751 717.847L240.783 715.11L239.16 708.668L242.841 675.632C242.841 675.632 243.059 695.589 243.301 698.593C243.543 701.597 248.751 707.53 248.751 707.53C248.751 707.53 268.297 674.13 279.317 665.775C279.317 665.775 279.099 678.151 276.556 683.675C274.013 689.199 253.62 708.234 253.62 708.234C258.931 709.854 264.655 709.438 269.677 707.069Z" fill="url(#paint54_linear_435_6612)"/>
<path opacity="0.5" d="M298.595 383.879C298.595 383.879 286.655 418.679 285.129 423.067C283.603 427.455 265.947 448.837 265.947 448.837C275.346 426.47 286.254 404.767 298.596 383.879H298.595Z" fill="url(#paint55_linear_435_6612)"/>
<path opacity="0.5" d="M381.38 423.261C381.38 423.261 385.473 468.141 384.868 490.471C384.263 512.801 384.02 562.671 384.02 562.671C384.02 562.671 389.76 473.324 389.469 469.812C389.178 466.3 381.38 423.261 381.38 423.261Z" fill="url(#paint56_linear_435_6612)"/>
<path opacity="0.5" d="M355.198 444.622L348.852 480.492L337.13 498.923L348.465 457.923L355.198 444.622Z" fill="url(#paint57_linear_435_6612)"/>
<path opacity="0.5" d="M328.873 589.312L332.215 601.931L320.105 613.169C320.105 613.169 324.773 598.759 328.873 589.312Z" fill="url(#paint58_linear_435_6612)"/>
<path opacity="0.46" d="M401.216 292.036C395.686 306.813 395.841 323.118 401.652 337.787C405.771 333.648 409.388 329.039 412.43 324.054C412.43 324.054 406.06 297.146 404.316 289.032L401.216 292.036Z" fill="#E36E5D"/>
<path d="M438.103 331.757L433.477 280.629L451.957 329.479C447.46 330.846 442.801 331.611 438.103 331.756V331.757Z" fill="url(#paint59_linear_435_6612)"/>
<path d="M265.952 364.842L258.831 274.792C258.831 274.792 255.198 334.131 255.949 340.573C256.7 347.015 265.952 364.842 265.952 364.842Z" fill="url(#paint60_linear_435_6612)"/>
<path style="mix-blend-mode:multiply" opacity="0.5" d="M283.918 339.943L282.271 318.533L301.571 367.481L283.918 339.943Z" fill="url(#paint61_linear_435_6612)"/>
<path style="mix-blend-mode:multiply" opacity="0.5" d="M334.61 375.742C334.61 375.742 319.01 361.985 313.975 355.542C308.94 349.099 299.443 311.511 299.443 311.511C299.443 311.511 318.02 337.886 321.459 347.066C324.898 356.246 334.61 375.742 334.61 375.742Z" fill="url(#paint62_linear_435_6612)"/>
<path style="mix-blend-mode:multiply" opacity="0.5" d="M337.711 374.287C337.711 374.287 345.389 354.645 346.769 345.925C347.707 338.994 348.274 332.017 348.469 325.025C348.469 325.025 341.034 341.107 337.715 350.964C334.396 360.821 336.215 374.796 336.215 374.796L337.711 374.287Z" fill="url(#paint63_linear_435_6612)"/>
<path style="mix-blend-mode:multiply" opacity="0.8" d="M362.484 359.61C362.484 359.61 358.391 346.822 359.917 336.504C360.841 328.895 361.052 321.217 360.547 313.568C360.547 313.568 359.336 327.93 347.71 350.721C351.717 354.994 356.832 358.071 362.484 359.61V359.61Z" fill="url(#paint64_linear_435_6612)"/>
<path style="mix-blend-mode:multiply" opacity="0.5" d="M347.084 288.986L342.095 270.603C341.85 274.239 341.85 277.889 342.095 281.526C343.561 284.138 345.229 286.632 347.084 288.986V288.986Z" fill="url(#paint65_linear_435_6612)"/>
<g style="mix-blend-mode:multiply">
<path d="M283.918 339.945L282.271 313.424L291.935 350.238L283.918 339.945Z" fill="#C98BC2"/>
</g>
<path d="M325.892 280.629C317.356 280.226 308.875 279.034 300.558 277.069C289.199 274.09 274.497 245.196 274.497 245.196C274.952 243.452 274.868 241.611 274.255 239.916C274.255 239.916 282.078 249.774 291.209 259.292C300.34 268.81 325.892 280.629 325.892 280.629Z" fill="url(#paint66_linear_435_6612)"/>
<path opacity="0.5" d="M317.511 248.297C317.511 248.297 324.026 261.327 325.237 270.652C325.978 276.279 325.978 281.979 325.237 287.606C327.168 282.114 328.5 276.43 329.209 270.652C329.378 264.839 323.372 251.978 323.372 251.978L317.511 248.297Z" fill="url(#paint67_linear_435_6612)"/>
<path style="mix-blend-mode:multiply" opacity="0.5" d="M360.575 315.167C360.575 315.167 352.075 328.609 350.887 331.758C349.699 334.907 347.687 350.722 347.687 350.722C347.687 350.722 360.599 322.748 360.575 315.167Z" fill="url(#paint68_linear_435_6612)"/>
<path style="mix-blend-mode:multiply" opacity="0.5" d="M302.496 340.258L282.396 316.232C282.396 316.232 291.236 334.494 296.396 342.123C301.556 349.752 310.056 361.063 310.056 361.063C310.056 361.063 304.869 343.116 302.496 340.258Z" fill="url(#paint69_linear_435_6612)"/>
<path d="M304.336 243.355C304.336 243.355 312.136 256.07 311.336 259.755C311.336 259.755 315.478 261.596 316.18 256.655C316.882 251.714 313.08 244.545 313.08 244.545C313.08 244.545 310.9 245.005 310.658 246.045L304.336 243.355Z" fill="#E36E5D"/>
<path opacity="0.4" d="M248.533 801.866C249.323 802.609 249.879 803.566 250.133 804.62C250.386 805.674 250.327 806.779 249.962 807.8C249.861 808.291 249.731 808.777 249.574 809.253L266.94 808.89C268.151 800.29 263.331 788.255 263.331 788.255C263.331 788.255 258.778 781.667 257.857 767.955C257.424 769.217 248.193 788.787 248.533 801.866Z" fill="#CC2A2A"/>
<path opacity="0.4" d="M359.024 809.98C359.024 809.98 348.779 791.5 341.731 785.08C334.683 778.66 316.276 771.446 316.276 771.446L311.069 792.324C311.069 792.324 304.409 803.441 304.409 810.174L359.024 809.98Z" fill="#CC2A2A"/>
<path opacity="0.3" d="M312.813 716.226C312.813 716.226 320.079 727.026 331.172 726.568C338.918 725.839 346.426 723.496 353.212 719.69C353.89 716.033 351.226 707.798 351.226 707.798C351.226 707.798 362.852 699.127 362.852 698.11C362.12 696.181 361.195 694.331 360.091 692.588C360.091 692.588 371.717 617.942 372.928 611.988C374.139 606.034 379.661 596.536 381.187 593.169C381.482 591.927 381.677 590.664 381.768 589.391C381.768 589.391 364.451 608.525 361.011 610.705C357.571 612.885 334.151 596.173 332.211 592.928C330.271 589.683 327.511 553.474 327.511 553.474L328.867 589.32C328.874 589.4 328.874 589.481 328.867 589.562L328.649 590.143L328.164 591.354C326.13 596.561 320.898 610.221 320.317 612.886C320.3 612.982 320.3 613.08 320.317 613.177V613.613C319.954 618.457 320.123 653.334 319.227 665.032C318.307 677.142 315.327 693.732 315.327 695.332C316.022 698.454 316.945 701.522 318.088 704.511L312.813 716.226Z" fill="url(#paint70_linear_435_6612)"/>
<path opacity="0.3" d="M343.669 482.43L307.069 440.578L313.875 443.751L342.115 434.451L355.194 444.623L354.661 425.756L360.571 444.623L376.992 440.578L343.669 482.43Z" fill="#0A0A0A"/>
<path opacity="0.36" d="M360.55 313.568C360.55 313.568 352.533 322.868 350.862 321.754C342.918 316.159 335.87 320.47 323.857 322.214C309.688 324.248 301.163 318.024 301.647 319.792C302.131 321.56 282.271 318.508 282.271 318.508L283.918 339.918L301.574 367.456C308.268 370.915 315.499 373.216 322.96 374.262C334.61 375.715 337.71 374.262 337.71 374.262L345.17 361.643C344.648 360.585 344.43 359.403 344.54 358.228C344.952 357.091 359.024 328.778 360.55 313.568Z" fill="#E81A41"/>
<path d="M463.195 218.19L444.303 202.859C450.094 208.564 456.421 213.698 463.195 218.19V218.19Z" fill="#FA7C50"/>
<path d="M323.833 221.46C323.085 221.641 322.323 221.762 321.556 221.823V221.823C317.705 222.186 308.889 221.823 295.056 215.623C293.409 214.848 291.689 214 289.921 213.201L288.371 212.377C287.644 211.99 286.942 211.577 286.24 211.118C286.24 210.173 286.361 209.253 286.41 208.357V207.17C286.52 204.221 286.358 201.269 285.927 198.35C285.897 197.855 285.84 197.362 285.757 196.873C285.051 192.727 283.907 188.667 282.342 184.763L285.684 185.175C290.931 185.811 296.214 186.112 301.5 186.075C307.41 185.93 313.247 185.106 316.589 182.875C321.651 179.508 323.855 177.575 331.121 179.944C335.101 181.349 339.277 182.117 343.497 182.221C343.779 182.247 344.063 182.247 344.345 182.221C345.479 183.509 346.16 185.134 346.283 186.847C346.575 193.098 338.583 212.571 323.833 221.46Z" fill="#DFDFDF"/>
<path d="M346.164 186.607C346.026 184.898 345.347 183.278 344.226 181.981H343.378C342.637 182.05 341.891 182.05 341.15 181.981C337.698 181.597 334.297 180.85 331.002 179.753C329.585 179.244 328.114 178.902 326.618 178.736C322.646 178.397 320.418 180.117 316.567 182.684C310.827 186.511 297.7 186.123 289.467 185.372C288.184 185.321 286.906 185.192 285.64 184.984L282.298 184.572C282.419 184.887 304.098 189.416 317.078 183.482L317.926 182.925C321.196 180.725 323.182 179.389 326.548 179.704C327.961 179.854 329.351 180.171 330.69 180.649C334.052 181.815 337.526 182.626 341.056 183.071C341.862 183.128 342.672 183.128 343.478 183.071H343.769C344.66 184.084 345.166 185.379 345.198 186.728C343.26 208.768 323.788 221.528 323.788 221.528C338.583 212.571 346.575 193.098 346.164 186.607Z" fill="white"/>
<path fill-rule="evenodd" clip-rule="evenodd" d="M286.292 210.974C286.292 210.974 268.635 199.857 266.916 196.442V195.473C269.072 199.566 286.147 209.617 286.147 209.617L286.292 210.974Z" fill="white"/>
<path fill-rule="evenodd" clip-rule="evenodd" d="M282.295 184.621C278.081 182.699 273.734 181.08 269.289 179.777V180.358C273.874 181.787 278.371 183.485 282.755 185.444L282.295 184.621Z" fill="white"/>
<g style="mix-blend-mode:multiply" opacity="0.33">
<path fill-rule="evenodd" clip-rule="evenodd" d="M320.273 188.304C322.681 188.632 325.119 188.681 327.539 188.449C329.961 187.94 334.2 186.366 337.615 187.165C335.796 189.98 333.016 192.037 329.792 192.954C326.169 192.58 322.796 190.932 320.274 188.304H320.273Z" fill="#B6B6B6"/>
</g>
<g style="mix-blend-mode:multiply" opacity="0.27">
<path d="M321.532 221.824C317.681 222.187 308.865 221.824 295.032 215.624C293.385 214.849 291.665 214.001 289.897 213.202L288.347 212.379C287.62 211.991 286.918 211.579 286.216 211.12C286.216 210.175 286.337 209.255 286.386 208.359V207.172C286.495 204.224 286.333 201.273 285.901 198.356C285.871 197.861 285.815 197.367 285.732 196.879C285.026 192.732 283.882 188.673 282.317 184.769L285.659 185.181C290.906 185.817 296.189 186.118 301.475 186.081C306.319 192.281 327.681 198.046 327.681 198.046C321.631 198.109 315.596 197.434 309.71 196.036C310.291 198.288 314.99 202.987 320.658 205.724C310.626 205.282 300.766 202.956 291.594 198.87C294.936 205.7 309.614 215.025 309.614 215.025C303.005 213.93 296.865 210.914 291.958 206.354C295.036 213.735 320.66 221.558 321.532 221.824Z" fill="#D8D8D8"/>
</g>
<g style="mix-blend-mode:multiply" opacity="0.09">
<path d="M295.025 195.759C295.025 195.759 320.141 209.782 327.916 207.409C335.691 205.036 343.516 195.299 343.516 195.299C343.516 195.299 331.406 203.534 328.064 203.631C324.722 203.728 295.025 195.759 295.025 195.759Z" fill="#818181"/>
</g>
<g style="mix-blend-mode:multiply" opacity="0.14">
<path d="M306.628 207.68C310.016 210.072 321.543 216.386 325.152 215.296C328.761 214.206 334.325 209.075 334.325 209.075C330.239 211.367 329.135 212.937 325.249 213.383C321.446 213.359 316.991 212.164 306.628 207.68Z" fill="#B6B6B6"/>
</g>
<path opacity="0.61" d="M272.923 203.173C270.299 192.613 269.674 181.654 271.082 170.864C268.689 179.024 267.203 187.422 266.65 195.907C266.65 195.907 269.992 202.034 272.923 203.173Z" fill="#EA5E58"/>
<path d="M167.953 682.9H168.825C174.347 683.82 204.864 688.664 221.503 686.436C239.862 684.014 256.67 686.727 262.483 683.069C268.296 679.411 266.77 633.806 267.083 590.379C267.301 559.979 271.2 514.135 268.076 488.098C267.834 486.039 267.543 484.078 267.176 482.285C265.699 474.365 263.228 469.206 259.353 468.31C259.353 468.31 253.953 472.476 254.994 482.067C254.994 482.067 259.959 518.784 254.34 533.147L248.455 534.382C248.455 534.382 242.303 551.506 232.518 555.792C227.698 546.761 225.201 536.673 225.252 526.437C224.961 508.369 232.252 485.263 232.252 485.263C232.252 485.263 230.435 484.633 229.152 479.763C229.152 479.763 223.194 494.463 220.215 502.651C220.215 502.651 180.906 563.851 177.225 569.351C173.544 574.851 174.803 617.379 174.803 617.379C174.803 617.379 158.487 651.995 167.953 682.9Z" fill="url(#paint71_linear_435_6612)"/>
<path opacity="0.5" d="M232.523 555.937C232.523 555.937 207.794 568.943 191.567 572.358C175.34 575.773 205.567 534.091 213.367 522.558C219.628 512.745 225.289 502.562 230.321 492.065C230.321 492.065 219.252 529.921 232.574 555.037L232.523 555.937Z" fill="url(#paint72_linear_435_6612)"/>
<path d="M168.823 683.044C174.345 683.964 204.862 688.808 221.501 686.58C239.86 684.158 256.668 686.871 262.481 683.213C268.294 679.555 266.768 633.95 267.081 590.523C267.299 560.123 271.198 514.279 268.074 488.242L267.174 482.429C267.174 482.429 265.309 538.135 260.274 554.265C255.239 570.395 239.614 602.705 232.518 628.596C228.006 646.37 225.384 664.571 224.695 682.896C211.912 689.342 174.975 683.989 168.823 683.044Z" fill="#D6343F"/>
<path d="M248.461 534.528C245.577 551.603 241.292 568.412 235.649 584.784C227.462 606.8 227.002 639.158 227.002 639.158C227.002 639.158 194.644 644.438 175.607 628.138C175.607 628.138 191.059 645.092 228.891 639.982C228.891 639.982 234.268 607.455 238.7 587.812C243.132 568.169 254.273 533.293 254.273 533.293L248.461 534.528Z" fill="#D6393B"/>
<path opacity="0.5" d="M168.243 682.947C168.243 682.947 178.827 670.837 193.504 668.996C208.181 667.155 224.704 682.896 224.704 682.896C224.704 682.896 210.434 689.56 168.243 682.947Z" fill="url(#paint73_linear_435_6612)"/>
<path d="M228.624 498.924L223.824 492.966L229.056 479.815L232.156 485.315L228.624 498.924Z" fill="#EA432F"/>
<path opacity="0.5" d="M177.04 569.404C177.231 579.032 179.722 588.474 184.306 596.942C191.96 610.699 209.592 639.835 209.592 639.835C209.592 639.835 193.486 641.603 175.442 628.135C175.607 628.065 172.845 580.109 177.04 569.404Z" fill="url(#paint74_linear_435_6612)"/>
<path d="M209.758 622.373V629.421C209.758 629.421 193.046 631.237 181.735 624.214L180.815 618.692C190.071 622.049 199.957 623.307 209.758 622.374V622.373Z" fill="#F97856"/>
<g opacity="0.3">
<path d="M253.615 659.53C253.615 659.41 253.516 659.311 253.396 659.311L249.064 658.592L248.469 663.571L246.77 663.192L247.366 658.206L242.344 657.227C242.226 657.227 242.127 657.326 242.127 657.446L240.879 668.45C240.879 668.57 240.975 668.669 241.095 668.669L252.068 670.545C252.188 670.545 252.284 670.446 252.284 670.329L253.615 659.53ZM255.115 659.53V659.622L253.779 670.463C253.711 671.347 252.969 672.045 252.068 672.045H251.941L240.909 670.159C240.05 670.066 239.379 669.335 239.379 668.45V668.365L240.632 657.323C240.695 656.432 241.439 655.727 242.344 655.727H242.488L249.02 657L249.013 657.063L253.577 657.821C254.44 657.911 255.115 658.643 255.115 659.53Z" fill="white"/>
</g>
<path opacity="0.35" d="M242.851 650.073L243.01 648.573L249.264 646.976L249.081 648.715L248.017 648.904L247.821 650.768L248.82 651.183L248.639 652.903L242.851 650.073ZM246.737 649.168L244.815 649.521L246.622 650.252L246.737 649.168ZM243.283 645.984L243.542 643.525C243.579 643.087 243.718 642.664 243.947 642.29C244.148 641.963 244.437 641.701 244.781 641.531C245.121 641.367 245.5 641.302 245.875 641.345C246.243 641.378 246.592 641.52 246.877 641.753C247.162 641.993 247.371 642.31 247.478 642.666C247.607 643.09 247.644 643.536 247.588 643.976L247.5 644.804L249.471 645.012L249.302 646.619L243.283 645.984ZM246.334 643.819C246.37 643.62 246.327 643.414 246.215 643.245C246.153 643.171 246.076 643.11 245.989 643.068C245.902 643.025 245.807 643.002 245.711 642.999C245.488 642.965 245.26 643.012 245.069 643.132C244.985 643.19 244.916 643.266 244.867 643.354C244.817 643.443 244.788 643.541 244.783 643.642L244.691 644.508L246.244 644.672L246.334 643.819ZM243.869 640.427L244.129 637.967C244.165 637.529 244.304 637.106 244.534 636.732C244.735 636.405 245.024 636.142 245.368 635.973C245.707 635.809 246.087 635.744 246.462 635.787C246.829 635.819 247.178 635.961 247.464 636.195C247.749 636.435 247.957 636.752 248.065 637.108C248.193 637.532 248.23 637.978 248.174 638.418L248.087 639.246L250.058 639.454L249.888 641.062L243.869 640.427ZM246.921 638.261C246.956 638.062 246.914 637.856 246.801 637.687C246.74 637.613 246.663 637.553 246.577 637.511C246.49 637.469 246.395 637.445 246.299 637.442C246.076 637.408 245.848 637.455 245.657 637.575C245.573 637.633 245.504 637.709 245.454 637.797C245.404 637.885 245.375 637.984 245.369 638.085L245.277 638.955L246.83 639.119L246.921 638.261ZM244.455 634.877L244.625 633.27L249.401 633.774L249.658 631.334L250.901 631.466L250.474 635.512L244.455 634.877ZM248.895 629.913L244.824 631.382L245.006 629.658L247.602 628.949L245.211 627.711L245.396 625.963L249.068 628.269L251.214 628.495L251.041 630.14L248.895 629.913ZM256.112 650.655C256.072 651.147 255.907 651.621 255.633 652.031C255.374 652.405 255.01 652.693 254.587 652.858C254.106 653.041 253.589 653.107 253.078 653.053L252.618 653.005C252.112 652.966 251.619 652.822 251.17 652.583C250.747 652.358 250.399 652.014 250.168 651.594C249.927 651.132 249.836 650.606 249.908 650.089C249.935 649.445 250.186 648.831 250.617 648.353C250.839 648.152 251.099 647.997 251.382 647.899C251.665 647.801 251.965 647.761 252.264 647.782L252.099 649.344C251.853 649.334 251.612 649.406 251.413 649.551C251.253 649.713 251.16 649.93 251.154 650.158C251.133 650.312 251.156 650.468 251.219 650.61C251.282 650.751 251.383 650.873 251.511 650.96C251.882 651.2 252.311 651.337 252.753 651.357L253.051 651.388C253.496 651.467 253.954 651.419 254.373 651.251C254.526 651.169 254.653 651.049 254.744 650.902C254.834 650.754 254.884 650.586 254.888 650.413C254.906 650.275 254.904 650.134 254.882 649.996C254.863 649.885 254.818 649.779 254.752 649.688L253.94 649.602L253.845 650.497L252.739 650.381L253.004 647.864L255.532 648.131C255.786 648.44 255.959 648.807 256.037 649.199C256.144 649.677 256.169 650.169 256.112 650.655V650.655ZM250.336 646.833L250.78 642.629L252.023 642.76L251.749 645.357L252.834 645.472L253.065 643.283L254.27 643.41L254.039 645.599L255.282 645.73L255.556 643.137L256.798 643.268L256.355 647.468L250.336 646.833ZM250.833 642.124L251.087 639.717C251.122 639.287 251.239 638.867 251.431 638.481C251.587 638.168 251.834 637.91 252.14 637.742C252.456 637.583 252.813 637.522 253.164 637.57C253.524 637.594 253.871 637.716 254.167 637.921C254.446 638.142 254.659 638.434 254.782 638.767L257.317 637.816L257.374 637.822L257.191 639.558L255.016 640.326L254.952 640.939L257.022 641.157L256.853 642.76L250.833 642.124ZM253.793 640.033C253.812 639.932 253.811 639.829 253.791 639.729C253.77 639.629 253.729 639.534 253.671 639.449C253.605 639.376 253.524 639.316 253.435 639.275C253.345 639.233 253.247 639.21 253.148 639.206C252.951 639.173 252.749 639.217 252.583 639.329C252.507 639.391 252.444 639.47 252.4 639.559C252.356 639.648 252.331 639.745 252.328 639.844L252.242 640.652L253.716 640.807L253.793 640.033ZM251.413 636.632L251.637 634.512L255.742 633.743L251.887 632.138L252.11 630.029L258.129 630.664L257.958 632.281L256.495 632.126L253.886 631.692L257.84 633.437L257.728 634.497L253.487 635.395L256.152 635.508L257.605 635.661L257.436 637.268L251.413 636.632ZM252.382 627.446L252.54 625.949L258.795 624.352L258.612 626.087L257.548 626.276L257.351 628.142L258.351 628.557L258.169 630.277L252.382 627.446ZM256.272 626.544L254.352 626.896L256.159 627.627L256.272 626.544ZM252.813 623.362L252.983 621.755L256.671 620.226L253.183 619.858L253.352 618.255L259.371 618.89L259.202 620.489L255.52 622.019L259.002 622.386L258.832 623.997L252.813 623.362ZM257.47 616.417L253.392 617.883L253.573 616.159L256.17 615.449L253.779 614.213L253.963 612.465L257.644 614.772L259.789 614.998L259.615 616.643L257.47 616.417Z" fill="white"/>
<defs>
<filter id="filter0_d_435_6612" x="260.961" y="421.255" width="340.051" height="306.746" filterUnits="userSpaceOnUse" color-interpolation-filters="sRGB">
<feFlood flood-opacity="0" result="BackgroundImageFix"/>
<feColorMatrix in="SourceAlpha" type="matrix" values="0 0 0 0 0 0 0 0 0 0 0 0 0 0 0 0 0 0 127 0" result="hardAlpha"/>
<feOffset dx="-70" dy="20"/>
<feGaussianBlur stdDeviation="35"/>
<feColorMatrix type="matrix" values="0 0 0 0 0 0 0 0 0 0 0 0 0 0 0 0 0 0 0.078 0"/>
<feBlend mode="normal" in2="BackgroundImageFix" result="effect1_dropShadow_435_6612"/>
<feBlend mode="normal" in="SourceGraphic" in2="effect1_dropShadow_435_6612" result="shape"/>
</filter>
<filter id="filter1_d_435_6612" x="35.0063" y="59" width="468.781" height="728.474" filterUnits="userSpaceOnUse" color-interpolation-filters="sRGB">
<feFlood flood-opacity="0" result="BackgroundImageFix"/>
<feColorMatrix in="SourceAlpha" type="matrix" values="0 0 0 0 0 0 0 0 0 0 0 0 0 0 0 0 0 0 127 0" result="hardAlpha"/>
<feOffset dx="-60" dy="30"/>
<feGaussianBlur stdDeviation="35"/>
<feColorMatrix type="matrix" values="0 0 0 0 0 0 0 0 0 0 0 0 0 0 0 0 0 0 0.102 0"/>
<feBlend mode="normal" in2="BackgroundImageFix" result="effect1_dropShadow_435_6612"/>
<feBlend mode="normal" in="SourceGraphic" in2="effect1_dropShadow_435_6612" result="shape"/>
</filter>
<linearGradient id="paint0_linear_435_6612" x1="492.495" y1="471.258" x2="492.495" y2="638.005" gradientUnits="userSpaceOnUse">
<stop stop-color="#E25430"/>
<stop offset="1" stop-color="#5C1A13"/>
</linearGradient>
<linearGradient id="paint1_linear_435_6612" x1="524.55" y1="638.006" x2="524.55" y2="541.023" gradientUnits="userSpaceOnUse">
<stop stop-color="#FF4C59"/>
<stop offset="1" stop-color="#FF813B"/>
</linearGradient>
<linearGradient id="paint2_linear_435_6612" x1="426.168" y1="638.006" x2="426.168" y2="545.394" gradientUnits="userSpaceOnUse">
<stop stop-color="#FF4C59"/>
<stop offset="1" stop-color="#FF813B"/>
</linearGradient>
<linearGradient id="paint3_linear_435_6612" x1="501.654" y1="548.923" x2="501.654" y2="537.156" gradientUnits="userSpaceOnUse">
<stop stop-color="#D6343F"/>
<stop offset="1" stop-color="#D67534"/>
</linearGradient>
<linearGradient id="paint4_linear_435_6612" x1="537.627" y1="599.15" x2="537.676" y2="638.005" gradientUnits="userSpaceOnUse">
<stop stop-color="#FA5049"/>
<stop offset="1" stop-color="#D53A34"/>
</linearGradient>
<radialGradient id="paint5_radial_435_6612" cx="0" cy="0" r="1" gradientUnits="userSpaceOnUse" gradientTransform="translate(638.432 487.933) scale(133.542 133.565)">
<stop stop-color="#FF7E3C"/>
<stop offset="1" stop-color="#C33942"/>
</radialGradient>
<linearGradient id="paint6_linear_435_6612" x1="425.079" y1="638.005" x2="425.079" y2="590.942" gradientUnits="userSpaceOnUse">
<stop stop-color="#C99620"/>
<stop offset="1" stop-color="#DCBA38"/>
</linearGradient>
<linearGradient id="paint7_linear_435_6612" x1="418.308" y1="590.942" x2="417.539" y2="638.005" gradientUnits="userSpaceOnUse">
<stop stop-color="#FD5C55"/>
<stop offset="1" stop-color="#D53A34"/>
</linearGradient>
<linearGradient id="paint8_linear_435_6612" x1="464.76" y1="293.328" x2="464.76" y2="117.377" gradientUnits="userSpaceOnUse">
<stop stop-color="#E0004F"/>
<stop offset="1" stop-color="#FF282C"/>
</linearGradient>
<linearGradient id="paint9_linear_435_6612" x1="328.226" y1="99.3908" x2="230.059" y2="99.3908" gradientUnits="userSpaceOnUse">
<stop stop-color="#F2F2F2"/>
<stop offset="1" stop-color="#E2E2E2"/>
</linearGradient>
<linearGradient id="paint10_linear_435_6612" x1="213.723" y1="330.194" x2="213.723" y2="285.082" gradientUnits="userSpaceOnUse">
<stop stop-color="#ECE8FF"/>
<stop offset="1" stop-color="white"/>
</linearGradient>
<linearGradient id="paint11_linear_435_6612" x1="214.472" y1="291.079" x2="171.009" y2="291.079" gradientUnits="userSpaceOnUse">
<stop stop-color="#C238B9"/>
<stop offset="1" stop-color="#FFDEC7"/>
</linearGradient>
<linearGradient id="paint12_linear_435_6612" x1="247.456" y1="762.606" x2="247.456" y2="716.21" gradientUnits="userSpaceOnUse">
<stop offset="0.02" stop-color="#FFB374"/>
<stop offset="1" stop-color="#FF9577"/>
</linearGradient>
<linearGradient id="paint13_linear_435_6612" x1="333.473" y1="761.45" x2="333.473" y2="722.909" gradientUnits="userSpaceOnUse">
<stop offset="0.02" stop-color="#FFB374"/>
<stop offset="1" stop-color="#FF9577"/>
</linearGradient>
<linearGradient id="paint14_linear_435_6612" x1="356.563" y1="744.367" x2="356.436" y2="806.573" gradientUnits="userSpaceOnUse">
<stop stop-color="#FE706E"/>
<stop offset="1" stop-color="#E7154A"/>
</linearGradient>
<linearGradient id="paint15_linear_435_6612" x1="234.284" y1="808.943" x2="234.284" y2="748.62" gradientUnits="userSpaceOnUse">
<stop stop-color="#E7154A"/>
<stop offset="1" stop-color="#FE706E"/>
</linearGradient>
<linearGradient id="paint16_linear_435_6612" x1="234.014" y1="810.175" x2="234.014" y2="799.24" gradientUnits="userSpaceOnUse">
<stop stop-color="#EE6A7F"/>
<stop offset="1" stop-color="#FF657E"/>
</linearGradient>
<linearGradient id="paint17_linear_435_6612" x1="357.185" y1="810.173" x2="357.185" y2="801.248" gradientUnits="userSpaceOnUse">
<stop stop-color="#EE6A7F"/>
<stop offset="1" stop-color="#FF657E"/>
</linearGradient>
<linearGradient id="paint18_linear_435_6612" x1="450.802" y1="245.713" x2="450.802" y2="206.341" gradientUnits="userSpaceOnUse">
<stop stop-color="#FF9577"/>
<stop offset="1" stop-color="#FFB374"/>
</linearGradient>
<linearGradient id="paint19_linear_435_6612" x1="293.236" y1="241.708" x2="293.236" y2="118.038" gradientUnits="userSpaceOnUse">
<stop stop-color="#444444"/>
<stop offset="1" stop-color="#44423C"/>
</linearGradient>
<linearGradient id="paint20_linear_435_6612" x1="299.665" y1="219.536" x2="299.665" y2="113.268" gradientUnits="userSpaceOnUse">
<stop offset="0.02" stop-color="#FFB374"/>
<stop offset="1" stop-color="#FF9577"/>
</linearGradient>
<linearGradient id="paint21_linear_435_6612" x1="253.966" y1="199.34" x2="253.966" y2="169.468" gradientUnits="userSpaceOnUse">
<stop offset="0.02" stop-color="#FFB374"/>
<stop offset="1" stop-color="#FF9577"/>
</linearGradient>
<linearGradient id="paint22_linear_435_6612" x1="409.04" y1="342.125" x2="409.04" y2="239.292" gradientUnits="userSpaceOnUse">
<stop offset="0.02" stop-color="#FFB374"/>
<stop offset="1" stop-color="#FF9577"/>
</linearGradient>
<linearGradient id="paint23_linear_435_6612" x1="443.741" y1="337.899" x2="443.741" y2="111.747" gradientUnits="userSpaceOnUse">
<stop stop-color="white"/>
<stop offset="1" stop-color="white"/>
</linearGradient>
<linearGradient id="paint24_linear_435_6612" x1="412.977" y1="327.737" x2="412.977" y2="137.417" gradientUnits="userSpaceOnUse">
<stop stop-color="#EBEBEB"/>
<stop offset="1" stop-color="#F6F6F6"/>
</linearGradient>
<linearGradient id="paint25_linear_435_6612" x1="446.589" y1="331.761" x2="446.589" y2="146.62" gradientUnits="userSpaceOnUse">
<stop stop-color="#EBEBEB"/>
<stop offset="1" stop-color="#F6F6F6"/>
</linearGradient>
<linearGradient id="paint26_linear_435_6612" x1="457.694" y1="224.308" x2="457.694" y2="190.192" gradientUnits="userSpaceOnUse">
<stop stop-color="#FF9D81"/>
<stop offset="1" stop-color="#FF854A"/>
</linearGradient>
<linearGradient id="paint27_linear_435_6612" x1="454.425" y1="231.39" x2="454.425" y2="217.221" gradientUnits="userSpaceOnUse">
<stop stop-color="#FF9577"/>
<stop offset="1" stop-color="#FF854A"/>
</linearGradient>
<linearGradient id="paint28_linear_435_6612" x1="299.522" y1="245.665" x2="299.522" y2="111.576" gradientUnits="userSpaceOnUse">
<stop stop-color="#313131"/>
<stop offset="1" stop-color="#505050"/>
</linearGradient>
<linearGradient id="paint29_linear_435_6612" x1="359.896" y1="361.063" x2="359.896" y2="259.412" gradientUnits="userSpaceOnUse">
<stop stop-color="#DD0051"/>
<stop offset="1" stop-color="#FF3734"/>
</linearGradient>
<linearGradient id="paint30_linear_435_6612" x1="312.633" y1="726.512" x2="312.633" y2="370.126" gradientUnits="userSpaceOnUse">
<stop stop-color="#464646"/>
<stop offset="1" stop-color="#565656"/>
</linearGradient>
<linearGradient id="paint31_linear_435_6612" x1="295.083" y1="381.022" x2="295.083" y2="239.1" gradientUnits="userSpaceOnUse">
<stop stop-color="#FF1651"/>
<stop offset="1" stop-color="#FE706E"/>
</linearGradient>
<linearGradient id="paint32_linear_435_6612" x1="308.807" y1="172.993" x2="284.913" y2="172.993" gradientUnits="userSpaceOnUse">
<stop stop-color="#E5658E"/>
<stop offset="1" stop-color="white"/>
</linearGradient>
<linearGradient id="paint33_linear_435_6612" x1="290.567" y1="451.912" x2="290.567" y2="406.04" gradientUnits="userSpaceOnUse">
<stop stop-color="#727272"/>
<stop offset="1" stop-color="#5E5E5E"/>
</linearGradient>
<linearGradient id="paint34_linear_435_6612" x1="359.661" y1="406.259" x2="359.661" y2="391.969" gradientUnits="userSpaceOnUse">
<stop stop-color="#848484"/>
<stop offset="1" stop-color="#6C6C6C"/>
</linearGradient>
<linearGradient id="paint35_linear_435_6612" x1="281.209" y1="502.701" x2="281.209" y2="453.462" gradientUnits="userSpaceOnUse">
<stop stop-color="#3B3B3B"/>
<stop offset="1" stop-color="#3B3B3B"/>
</linearGradient>
<linearGradient id="paint36_linear_435_6612" x1="341.501" y1="572.549" x2="341.501" y2="381.987" gradientUnits="userSpaceOnUse">
<stop stop-color="#222222"/>
<stop offset="1" stop-color="#393939"/>
</linearGradient>
<linearGradient id="paint37_linear_435_6612" x1="295.482" y1="183.165" x2="295.482" y2="138.939" gradientUnits="userSpaceOnUse">
<stop stop-color="#FAA26B"/>
<stop offset="1" stop-color="#F36E5C"/>
</linearGradient>
<linearGradient id="paint38_linear_435_6612" x1="296.462" y1="177.42" x2="296.462" y2="153.002" gradientUnits="userSpaceOnUse">
<stop stop-color="#E1DBFB"/>
<stop offset="1" stop-color="white"/>
</linearGradient>
<linearGradient id="paint39_linear_435_6612" x1="296.034" y1="161.874" x2="296.034" y2="150.644" gradientUnits="userSpaceOnUse">
<stop stop-color="#F1956D"/>
<stop offset="1" stop-color="#FF716D"/>
</linearGradient>
<linearGradient id="paint40_linear_435_6612" x1="308.985" y1="143.39" x2="280.997" y2="143.39" gradientUnits="userSpaceOnUse">
<stop stop-color="#323232"/>
<stop offset="1" stop-color="#444443"/>
</linearGradient>
<linearGradient id="paint41_linear_435_6612" x1="750.076" y1="185.859" x2="727.621" y2="185.859" gradientUnits="userSpaceOnUse">
<stop stop-color="#FFC2C4"/>
<stop offset="1" stop-color="#E5658E"/>
</linearGradient>
<linearGradient id="paint42_linear_435_6612" x1="746.509" y1="188.401" x2="741.229" y2="188.401" gradientUnits="userSpaceOnUse">
<stop stop-color="#B04C8E"/>
<stop offset="1" stop-color="#FFBDAC"/>
</linearGradient>
<linearGradient id="paint43_linear_435_6612" x1="749.945" y1="189.953" x2="728.321" y2="189.953" gradientUnits="userSpaceOnUse">
<stop stop-color="white"/>
<stop offset="1" stop-color="#E5658E"/>
</linearGradient>
<linearGradient id="paint44_linear_435_6612" x1="304.215" y1="197.87" x2="304.215" y2="192.907" gradientUnits="userSpaceOnUse">
<stop stop-color="white"/>
<stop offset="1" stop-color="#E5658E"/>
</linearGradient>
<linearGradient id="paint45_linear_435_6612" x1="333.933" y1="179.914" x2="333.933" y2="141.81" gradientUnits="userSpaceOnUse">
<stop stop-color="#FAA26B"/>
<stop offset="1" stop-color="#F36E5C"/>
</linearGradient>
<linearGradient id="paint46_linear_435_6612" x1="334.199" y1="152.149" x2="334.199" y2="135.263" gradientUnits="userSpaceOnUse">
<stop stop-color="#444443"/>
<stop offset="1" stop-color="#323232"/>
</linearGradient>
<linearGradient id="paint47_linear_435_6612" x1="333.405" y1="177.04" x2="333.405" y2="149.88" gradientUnits="userSpaceOnUse">
<stop stop-color="#E1DBFB"/>
<stop offset="1" stop-color="white"/>
</linearGradient>
<linearGradient id="paint48_linear_435_6612" x1="333.983" y1="161.737" x2="333.983" y2="147.834" gradientUnits="userSpaceOnUse">
<stop stop-color="#F1956D"/>
<stop offset="1" stop-color="#FF736F"/>
</linearGradient>
<linearGradient id="paint49_linear_435_6612" x1="248.334" y1="492.07" x2="248.334" y2="354.129" gradientUnits="userSpaceOnUse">
<stop offset="0.02" stop-color="#FFB374"/>
<stop offset="1" stop-color="#FF9577"/>
</linearGradient>
<linearGradient id="paint50_linear_435_6612" x1="247.384" y1="492.072" x2="247.384" y2="456.057" gradientUnits="userSpaceOnUse">
<stop stop-color="#EEA46E"/>
<stop offset="1" stop-color="#E4603C"/>
</linearGradient>
<linearGradient id="paint51_linear_435_6612" x1="368.179" y1="632.112" x2="368.179" y2="589.482" gradientUnits="userSpaceOnUse">
<stop stop-color="#3B3B3B"/>
<stop offset="1" stop-color="#2A2A2A"/>
</linearGradient>
<linearGradient id="paint52_linear_435_6612" x1="338.95" y1="716.223" x2="338.95" y2="642.328" gradientUnits="userSpaceOnUse">
<stop stop-color="#2A2A2A"/>
<stop offset="1" stop-color="#3D3D3D"/>
</linearGradient>
<linearGradient id="paint53_linear_435_6612" x1="290.446" y1="636.106" x2="290.446" y2="590.887" gradientUnits="userSpaceOnUse">
<stop stop-color="#333333"/>
<stop offset="1" stop-color="#282828"/>
</linearGradient>
<linearGradient id="paint54_linear_435_6612" x1="259.239" y1="717.847" x2="259.239" y2="665.775" gradientUnits="userSpaceOnUse">
<stop stop-color="#141414"/>
<stop offset="1" stop-color="#4A4A4A"/>
</linearGradient>
<linearGradient id="paint55_linear_435_6612" x1="282.271" y1="448.837" x2="282.271" y2="383.879" gradientUnits="userSpaceOnUse">
<stop stop-color="#979797"/>
<stop offset="1" stop-color="#686868"/>
</linearGradient>
<linearGradient id="paint56_linear_435_6612" x1="385.422" y1="562.671" x2="385.422" y2="423.261" gradientUnits="userSpaceOnUse">
<stop stop-color="#B5B5B5"/>
<stop offset="1" stop-color="#575757"/>
</linearGradient>
<linearGradient id="paint57_linear_435_6612" x1="355.198" y1="471.773" x2="337.13" y2="471.773" gradientUnits="userSpaceOnUse">
<stop stop-color="#2A2A2A"/>
<stop offset="1" stop-color="#323232"/>
</linearGradient>
<linearGradient id="paint58_linear_435_6612" x1="326.184" y1="613.217" x2="326.184" y2="589.36" gradientUnits="userSpaceOnUse">
<stop stop-color="#4B4B4B"/>
<stop offset="1" stop-color="#2A2A2A"/>
</linearGradient>
<linearGradient id="paint59_linear_435_6612" x1="442.736" y1="331.757" x2="442.736" y2="280.629" gradientUnits="userSpaceOnUse">
<stop stop-color="#EBEBEB"/>
<stop offset="1" stop-color="#F6F6F6"/>
</linearGradient>
<linearGradient id="paint60_linear_435_6612" x1="260.889" y1="364.842" x2="260.889" y2="274.792" gradientUnits="userSpaceOnUse">
<stop stop-color="#D9153A"/>
<stop offset="1" stop-color="#F02B44"/>
</linearGradient>
<linearGradient id="paint61_linear_435_6612" x1="291.902" y1="367.481" x2="291.902" y2="318.533" gradientUnits="userSpaceOnUse">
<stop stop-color="#AC526A"/>
<stop offset="1" stop-color="white"/>
</linearGradient>
<linearGradient id="paint62_linear_435_6612" x1="317.062" y1="375.742" x2="317.062" y2="311.511" gradientUnits="userSpaceOnUse">
<stop stop-color="#AC526A"/>
<stop offset="1" stop-color="white"/>
</linearGradient>
<linearGradient id="paint63_linear_435_6612" x1="342.093" y1="374.796" x2="342.093" y2="325.025" gradientUnits="userSpaceOnUse">
<stop stop-color="#AC526A"/>
<stop offset="1" stop-color="white"/>
</linearGradient>
<linearGradient id="paint64_linear_435_6612" x1="355.097" y1="359.61" x2="355.097" y2="313.568" gradientUnits="userSpaceOnUse">
<stop stop-color="#AC526A"/>
<stop offset="1" stop-color="white"/>
</linearGradient>
<linearGradient id="paint65_linear_435_6612" x1="344.492" y1="289.041" x2="344.492" y2="270.658" gradientUnits="userSpaceOnUse">
<stop stop-color="#AC526A"/>
<stop offset="1" stop-color="white"/>
</linearGradient>
<linearGradient id="paint66_linear_435_6612" x1="272.861" y1="248.873" x2="314.242" y2="278.791" gradientUnits="userSpaceOnUse">
<stop stop-color="#D63033"/>
<stop offset="1" stop-color="#F53745"/>
</linearGradient>
<linearGradient id="paint67_linear_435_6612" x1="323.491" y1="287.645" x2="323.491" y2="248.297" gradientUnits="userSpaceOnUse">
<stop stop-color="#F53745"/>
<stop offset="1" stop-color="#D63033"/>
</linearGradient>
<linearGradient id="paint68_linear_435_6612" x1="354.131" y1="350.722" x2="354.131" y2="315.167" gradientUnits="userSpaceOnUse">
<stop stop-color="white"/>
<stop offset="1" stop-color="#AC526A"/>
</linearGradient>
<linearGradient id="paint69_linear_435_6612" x1="296.226" y1="361.063" x2="296.226" y2="316.232" gradientUnits="userSpaceOnUse">
<stop stop-color="white"/>
<stop offset="1" stop-color="#AC526A"/>
</linearGradient>
<linearGradient id="paint70_linear_435_6612" x1="347.29" y1="726.582" x2="347.29" y2="553.647" gradientUnits="userSpaceOnUse">
<stop stop-color="#3B3B3B"/>
<stop offset="1" stop-color="#353535"/>
</linearGradient>
<linearGradient id="paint71_linear_435_6612" x1="217.141" y1="687.234" x2="217.141" y2="468.528" gradientUnits="userSpaceOnUse">
<stop stop-color="#FF4C59"/>
<stop offset="1" stop-color="#FF813B"/>
</linearGradient>
<linearGradient id="paint72_linear_435_6612" x1="209.758" y1="572.637" x2="209.758" y2="492.065" gradientUnits="userSpaceOnUse">
<stop stop-color="#CA4039"/>
<stop offset="1" stop-color="#F8723D"/>
</linearGradient>
<linearGradient id="paint73_linear_435_6612" x1="196.474" y1="685.873" x2="196.474" y2="668.83" gradientUnits="userSpaceOnUse">
<stop stop-color="#CC3045"/>
<stop offset="1" stop-color="#EC484E"/>
</linearGradient>
<linearGradient id="paint74_linear_435_6612" x1="209.766" y1="604.658" x2="174.736" y2="604.658" gradientUnits="userSpaceOnUse">
<stop stop-color="#FA5049"/>
<stop offset="1" stop-color="#D53A34"/>
</linearGradient>
</defs>
</svg>
