<svg width="136" height="187" viewBox="0 0 136 187" fill="none" xmlns="http://www.w3.org/2000/svg">
<g clip-path="url(#clip0_1205_5616)">
<mask id="mask0_1205_5616" style="mask-type:luminance" maskUnits="userSpaceOnUse" x="0" y="0" width="136" height="187">
<path d="M0 0H135.24V111.2H102.163L82.29 129.574L68.155 111.2H26.349V186.83H0V0Z" fill="white"/>
</mask>
<g mask="url(#mask0_1205_5616)">
<path fill-rule="evenodd" clip-rule="evenodd" d="M16.732 151.331C16.732 151.331 22.558 153.431 23.82 154.487C25.082 155.543 24.568 160.818 24.62 163.575C24.672 166.332 25.775 172.42 25.475 173.075C25.175 173.73 22.116 173.026 21.358 171.269C20.6 169.512 20.758 166.298 21.358 163.434C21.358 163.434 20.707 160.919 19.096 160.57C19.096 160.57 17.941 168.454 18.242 171.522C19.4936 173.161 20.4317 175.018 21.009 176.998C21.5748 179.281 21.6936 181.651 21.359 183.979C21.259 184.579 19.747 184.785 19.747 184.785L18.902 183.076C18.902 183.076 18.242 182.824 17.193 182.376C17.193 182.376 15.785 181.522 14.377 180.716C14.377 180.716 9.40602 177.755 8.25002 175.084C7.09402 172.413 9.60001 156.044 9.55001 155.189C9.48129 154.508 9.34732 153.835 9.14998 153.179L16.732 151.331Z" fill="url(#paint0_linear_1205_5616)"/>
<path fill-rule="evenodd" clip-rule="evenodd" d="M18.895 183.061C18.895 183.061 15.807 175.692 15.206 174.216C14.605 172.74 14.606 168.798 14.606 168.798C14.3951 170.757 14.3951 172.733 14.606 174.692C15.001 176.575 18.895 183.061 18.895 183.061Z" fill="#F78370"/>
<path fill-rule="evenodd" clip-rule="evenodd" d="M15.429 181.314C14.2904 179.617 13.315 177.816 12.516 175.935C12.0807 174.762 11.7111 173.566 11.409 172.352C11.409 172.352 11.846 177.411 14.322 180.712L15.429 181.314Z" fill="#F78370"/>
<path fill-rule="evenodd" clip-rule="evenodd" d="M12.292 179.314C11.0621 178.059 10.1644 176.517 9.67999 174.828C9.79962 175.917 10.1122 176.975 10.603 177.954L12.292 179.314Z" fill="#F78370"/>
<path fill-rule="evenodd" clip-rule="evenodd" d="M19.312 152.312C19.312 152.312 18.012 158.555 14.457 160.837C10.902 163.119 8.75702 162.177 8.75702 162.177L9.58197 155.186L16.758 151.302L19.312 152.312Z" fill="#F78370"/>
<path fill-rule="evenodd" clip-rule="evenodd" d="M48.625 152.622L46.935 165.449L35.167 255.018L42.935 287.059L43.035 287.467C43.258 287.283 43.491 287.108 43.735 286.933C48.835 283.282 59.377 281.583 59.377 281.583C59.8979 280.154 60.2245 278.662 60.348 277.146C60.3394 277.033 60.3131 276.921 60.27 276.816C59.87 275.845 56.114 274.437 56.114 274.437C55.1457 265.076 55.1457 255.641 56.114 246.28C56.871 238.406 58.153 225.78 59.376 212.19C60.599 198.6 61.629 184.14 61.959 172.595C62.4022 159.086 61.8441 145.563 60.289 132.136C60.289 132.136 33.161 123.99 31.753 127.592C30.345 131.194 30.553 141.535 30.553 141.535C38.983 142 48.625 152.622 48.625 152.622Z" fill="url(#paint1_linear_1205_5616)"/>
<path fill-rule="evenodd" clip-rule="evenodd" d="M32.905 41.2371C32.905 41.2371 34.556 54.9561 35.158 59.0371C35.158 59.0371 40.382 71.8531 47.217 73.3101L50.431 72.6401L47.858 54.4641L31.876 37.2461L32.905 41.2371Z" fill="url(#paint2_linear_1205_5616)"/>
<path opacity="0.71" fill-rule="evenodd" clip-rule="evenodd" d="M48.275 57.742C48.275 57.742 43.566 58.897 38.818 54.829C34.07 50.761 33.255 44.042 33.255 44.042L32.702 40.43L32.916 39.168L47.868 54.499L48.275 57.742Z" fill="url(#paint3_linear_1205_5616)"/>
<path opacity="0.5" fill-rule="evenodd" clip-rule="evenodd" d="M60.528 134.145C58.2616 135.676 55.7906 136.879 53.188 137.718C53.188 137.718 52.888 143.748 52.217 147.835C51.8507 150.227 51.1344 152.552 50.091 154.735C50.091 154.735 52.683 144.435 52.217 137.588L49.556 137.388L48.585 152.622C48.585 152.622 49.313 138.522 48.585 137.087C48.585 137.087 34.506 135.31 30.865 131.912L31.049 129.64L60.249 132.174L60.528 134.145Z" fill="#252525"/>
<path opacity="0.5" fill-rule="evenodd" clip-rule="evenodd" d="M33.876 249.998L40.284 287.428L42.944 287.02L43.744 286.894C48.844 283.243 59.386 281.544 59.386 281.544C59.907 280.115 60.2336 278.623 60.357 277.107C54.318 276.291 48.57 281.039 48.57 281.039C52.347 275.844 56.124 274.398 56.124 274.398C55.1555 265.038 55.1555 255.602 56.124 246.241C56.871 238.406 58.153 225.783 59.377 212.19C59.377 212.19 52.852 216.229 50.415 207.054C47.978 197.879 50.415 169.605 50.415 169.605C50.415 169.605 51.648 163.177 53.59 159.76C55.532 156.343 58.69 146.26 58.69 146.26C58.69 146.26 55.068 150.309 52.806 152.62C51.6614 153.906 50.1717 154.836 48.514 155.3L46.941 165.446L33.876 249.998Z" fill="url(#paint4_linear_1205_5616)"/>
<path fill-rule="evenodd" clip-rule="evenodd" d="M31.886 37.2459C32.7698 39.8101 33.9218 42.2737 35.323 44.5959C36.737 46.9287 38.5705 48.9796 40.7309 50.6449C45.1489 53.9949 49.7019 55.7329 52.3819 54.2569C55.0619 52.7809 59.6159 45.9569 60.1499 41.1399C60.4262 38.4682 60.2241 35.7687 59.553 33.1679C59.417 32.5469 59.291 31.9149 59.165 31.2259C59.087 30.7789 58.9999 30.3259 58.9419 29.8469C58.4079 25.9629 59.913 21.7879 59.136 17.9039C58.3625 15.0626 57.0686 12.3893 55.32 10.0199C44.047 6.84494 37.193 9.23394 33.435 12.7969C32.741 13.4437 32.122 14.1666 31.5899 14.9519C31.0036 15.8051 30.5328 16.7322 30.19 17.7089C28.303 23.1279 29.993 32.0219 31.886 37.2459Z" fill="url(#paint5_linear_1205_5616)"/>
<path opacity="0.64" fill-rule="evenodd" clip-rule="evenodd" d="M31.885 37.2464C33.759 42.4704 36.313 47.2954 40.73 50.6464C37.5575 46.4165 35.6791 41.3578 35.322 36.0824C35.1988 33.9764 35.6663 31.8779 36.672 30.0234C40.1851 31.4755 43.9888 32.0874 47.78 31.8104C48.324 28.5384 48.916 20.3044 48.916 20.3044C44.527 20.0424 38.741 23.2174 38.741 23.2174C38.741 23.2174 39.4411 16.7414 42.1 14.4794C44.759 12.2174 53.353 13.6794 53.353 13.6794C56.169 16.6894 55.13 21.4474 55.13 21.4474C52.722 25.3314 53.8 31.3314 53.8 31.3314C55.5267 32.0028 57.4423 32.0028 59.169 31.3314C59.091 30.8844 59.004 30.4314 58.946 29.9524C58.412 26.0684 59.917 21.8934 59.14 18.0094C58.3665 15.1681 57.0726 12.4948 55.324 10.1254C44.051 6.95041 37.197 9.33941 33.439 12.9024L31.594 15.0574C31.0076 15.9105 30.5368 16.8376 30.194 17.8144C28.303 23.1284 29.992 32.0224 31.885 37.2464Z" fill="url(#paint6_linear_1205_5616)"/>
<path fill-rule="evenodd" clip-rule="evenodd" d="M24.856 18.4872C24.9534 18.1807 25.1262 17.9036 25.3586 17.6813C25.591 17.4591 25.8755 17.2988 26.186 17.2152C26.535 19.6622 28.924 29.9732 28.924 29.9732L29.351 31.6532L31.875 32.7992C33.613 30.7312 35.555 24.1482 35.497 23.2162C35.439 22.2842 34.351 20.3032 34.419 18.4582C34.801 16.2434 35.9075 14.2181 37.565 12.7002C38.711 11.9622 42.527 12.1002 46.148 12.1002C48.0953 12.1487 50.0372 11.8764 51.896 11.2942C53.6919 11.7191 55.2723 12.7821 56.343 14.2852L56.46 14.4402C56.6897 13.8778 56.7766 13.2673 56.713 12.6632C59.869 15.9452 59.053 24.5082 59.053 24.5082C62.471 21.4882 63.218 14.9832 63.218 14.9832C64.655 15.6532 64.752 16.3332 64.752 16.5072C64.738 15.5361 64.4473 14.5892 63.9142 13.7775C63.3811 12.9657 62.6276 12.3228 61.742 11.9242C58.518 10.3122 56.382 9.01118 56.382 9.01118C54.362 4.92318 49.148 2.83618 48.828 2.71918C52.2903 3.71428 55.2571 5.96449 57.149 9.03017C53.349 -0.203827 42.643 -0.369824 41.149 0.165176C39.655 0.700176 38.828 4.45718 36.955 7.53418C35.082 10.6112 30.867 13.3602 27.847 14.7682C24.827 16.1762 24.856 18.4872 24.856 18.4872Z" fill="url(#paint7_linear_1205_5616)"/>
<path fill-rule="evenodd" clip-rule="evenodd" d="M96.764 94.9489C96.764 96.5999 100.813 101.619 100.813 101.619C100.813 101.619 103.629 98.0649 105.163 97.2009C106.697 96.3369 112.338 96.2299 116.963 96.3269C121.588 96.4239 126.863 97.5889 128.886 97.6269C130.527 97.6269 130.76 97.0929 130.76 97.0929C130.76 97.0929 132.605 97.4039 133.129 96.6269C133.275 96.3709 133.351 96.0814 133.351 95.7869C133.351 95.4924 133.275 95.203 133.129 94.9469C134.003 94.9469 135.372 94.8789 135.314 93.9759C135.308 93.7444 135.239 93.5188 135.114 93.3238C134.989 93.1287 134.813 92.9714 134.605 92.8689C134.2 92.565 133.778 92.283 133.343 92.0239C131.312 90.7741 129.127 89.7948 126.843 89.1109C124.719 88.4482 122.543 87.9642 120.338 87.6639C119.115 87.4799 117.833 87.3049 116.153 86.9939C113.343 86.3926 110.695 85.1976 108.385 83.4889L109.356 81.7799C109.356 81.7799 112.172 82.5859 113.987 81.0799C115.802 79.5739 116.803 75.7499 115.599 75.2539C114.395 74.7579 111.172 78.0699 110.269 78.9729C109.366 79.8759 106.754 79.5729 105.745 80.1729C104.736 80.7729 102.521 81.6729 102.026 82.8819C101.531 84.0909 100.826 89.6199 100.084 91.4259C99.342 93.2319 96.764 94.9489 96.764 94.9489Z" fill="url(#paint8_linear_1205_5616)"/>
<path d="M61.956 76.2583L66.112 96.4243C66.5526 97.0388 66.9422 97.6883 67.277 98.3663C69.219 102.123 72.044 109.299 74.355 115.445C77.171 122.95 82.123 125.29 82.123 125.29C92.978 119.998 99.814 104.056 99.814 104.056L101.668 100.551C98.231 99.9883 96.768 94.9103 96.768 94.9103L95.457 94.6673C94.787 93.4533 94.049 93.6963 94.049 93.6963C93.498 94.6853 93.1668 95.7816 93.078 96.9103C91.478 99.0563 84.778 101.6 84.778 101.6C84.778 101.6 84.778 100.26 84.108 99.7943C83.438 99.3283 81.496 99.7943 81.496 99.7943C77.408 93.8943 75.602 81.7053 75.602 81.7053C75.4376 77.3907 74.8457 73.103 73.835 68.9053L61.956 76.2583Z" fill="url(#paint9_linear_1205_5616)"/>
<path d="M6.63202 73.3452C6.63202 73.3452 14.322 85.3172 21.632 96.2982C23.321 98.8422 24.982 101.318 26.487 103.59C26.487 103.59 29.798 117.3 30.555 125.135C30.555 125.135 30.155 125.135 29.322 126.735V126.793C29.6153 127.696 30.0229 128.557 30.535 129.356C32.1151 130.262 33.7722 131.025 35.487 131.638C39.8031 133.254 44.365 134.114 48.973 134.182C59.731 134.282 60.226 132.172 60.226 132.172C60.226 132.172 62.945 129.949 63.042 128.851C63.1038 128.251 63.1038 127.646 63.042 127.045C63.042 127.045 69.373 94.5872 67.46 81.3232C68.3955 76.6982 70.5893 72.4212 73.8 68.9632C70.5075 66.5589 66.73 64.902 62.731 64.1082C57.9779 62.9918 53.3167 61.5149 48.788 59.6902C48.7014 59.661 48.6172 59.6252 48.536 59.5832C48.536 59.5832 49.177 65.3212 49.371 67.1272C49.565 68.9332 47.429 71.1472 47.429 71.1472C47.429 71.1472 47.361 64.1082 44.74 61.9042C43.0208 61.14 41.3422 60.2876 39.711 59.3502C37.643 58.1362 35.511 56.6702 34.575 55.2822L30.507 59.5822C30.507 59.5822 30.39 59.6992 30.177 59.8822C28.7578 61.1619 27.1622 62.2311 25.439 63.0572C25.439 63.0572 14.458 64.7142 6.63202 73.3452Z" fill="url(#paint10_linear_1205_5616)"/>
<path d="M0 125.494C0.124032 126.714 0.315321 127.926 0.572998 129.125C2.37186 136.69 4.83473 144.082 7.93298 151.214C8.57822 152.493 9.12031 153.821 9.55402 155.185C13.661 156.039 16.729 151.923 16.729 151.923V150.311C16.729 150.311 18.797 149.111 18.797 148C18.797 146.889 17.583 146.388 16.729 144.893C15.875 143.398 16.137 131.562 16.214 129.678C16.2201 129.522 16.2395 129.366 16.272 129.212C16.592 127.406 18.282 125.173 18.146 124.192C17.9764 123.435 17.6845 122.71 17.282 122.046C16.982 121.502 16.729 121.075 16.729 121.075C16.7706 113.808 17.9835 106.595 20.321 99.7143L20.408 99.4623C21.0838 97.4184 21.8914 95.4206 22.826 93.4813C20.884 76.6063 6.62598 73.2373 6.62598 73.2373C5.81998 75.9943 5.31497 91.8693 5.65497 94.5983C5.90551 100.731 5.12125 106.863 3.33502 112.735C2.03557 116.792 0.949697 120.915 0.0819702 125.085V125.318C0.0749025 125.384 0.0460875 125.446 0 125.494Z" fill="url(#paint11_linear_1205_5616)"/>
<path fill-rule="evenodd" clip-rule="evenodd" d="M23.749 276.495C23.6111 276.934 23.5712 277.398 23.632 277.854C23.8671 280.116 24.2661 282.358 24.826 284.563L27.933 281.543C34.254 281.291 43.002 287.427 43.002 287.427C43.002 287.427 43.361 289.282 43.458 289.068C43.555 288.854 46.313 283.145 45.915 281.941C45.517 280.737 41.953 279.999 41.953 279.999C41.953 279.999 40.788 265.882 40.235 255.23C39.682 244.578 40.788 223.082 41.798 218.053C42.808 213.024 44.012 207.625 44.012 207.625C44.255 206.334 44.497 204.877 44.731 203.295C45.275 199.528 45.78 195.023 46.207 190.284C46.265 189.711 46.314 189.129 46.372 188.556C47.848 171.73 48.625 152.631 48.625 152.631C43.663 140.98 30.546 141.543 30.546 141.543C30.546 143.643 29.646 157.932 28.604 172.613C28.6061 172.642 28.6061 172.671 28.604 172.7V172.923L28.371 176.079C28.371 176.496 28.303 176.953 28.271 177.419C28.239 177.885 28.213 178.219 28.184 178.633C27.213 191.433 26.174 203.256 25.572 206.062C24.164 212.49 20.805 226.733 20.805 226.733C19.756 240.744 25.194 272.433 25.359 273.445C24.419 273.553 23.749 276.495 23.749 276.495Z" fill="url(#paint12_linear_1205_5616)"/>
<path fill-rule="evenodd" clip-rule="evenodd" d="M59.122 23.0702C58.912 22.7558 58.6202 22.5045 58.278 22.3437C57.9358 22.1828 57.5561 22.1183 57.18 22.1572C55.83 22.2572 53.966 24.0992 53.296 25.6232C53.296 25.6232 54.267 21.6522 56.209 20.0892C57.831 18.7982 58.831 20.6522 59.122 21.4582C59.1541 21.9951 59.1541 22.5334 59.122 23.0702Z" fill="url(#paint13_linear_1205_5616)"/>
<path fill-rule="evenodd" clip-rule="evenodd" d="M49.062 19.9443C48.7162 20.8306 48.1437 21.6106 47.402 22.2063C47.402 22.2063 41.285 21.7303 38.13 23.7063C38.129 23.7113 41.527 20.0023 49.062 19.9443Z" fill="url(#paint14_linear_1205_5616)"/>
<path fill-rule="evenodd" clip-rule="evenodd" d="M53.8 30.4202C54.3403 30.8965 55.0233 31.18 55.742 31.2262C56.1161 31.2699 56.494 31.2699 56.868 31.2262C57.2614 31.1935 57.6512 31.1265 58.033 31.0262L58.46 30.9092C58.5514 30.5525 58.6133 30.189 58.645 29.8222C58.7353 28.9776 58.6795 28.1238 58.48 27.2982C58.3794 26.8832 58.2328 26.4807 58.043 26.0982C57.5808 26.0964 57.1215 26.1718 56.684 26.3212C54.153 27.1872 53.8 30.4202 53.8 30.4202Z" fill="#FFF4C9"/>
<path fill-rule="evenodd" clip-rule="evenodd" d="M39.585 29.6532C40.5125 30.3441 41.5742 30.8336 42.702 31.0902C43.1297 31.1861 43.5645 31.2476 44.002 31.2742C44.8047 31.3195 45.6096 31.2443 46.39 31.0512L46.526 31.0022C47.026 30.3512 47.176 26.9432 45.662 26.3612C45.511 26.2995 45.3551 26.2507 45.196 26.2152C41.772 25.3132 39.585 29.6532 39.585 29.6532Z" fill="#FFF4C9"/>
<path fill-rule="evenodd" clip-rule="evenodd" d="M55.897 37.0333C55.897 37.0333 51.13 36.0623 48.664 37.3633C49.6463 38.1977 50.8109 38.7896 52.064 39.0913C52.064 39.0913 54.8 39.0233 55.897 37.0333Z" fill="url(#paint15_linear_1205_5616)"/>
<g style="mix-blend-mode:multiply">
<path fill-rule="evenodd" clip-rule="evenodd" d="M50.974 38.7803C50.974 38.7803 49.945 37.0233 48.663 37.3623C49.3412 37.9708 50.1243 38.4512 50.974 38.7803Z" fill="#B85652"/>
</g>
<path fill-rule="evenodd" clip-rule="evenodd" d="M48.664 37.3624C48.412 37.4404 48.79 35.4204 49.383 34.9734C49.9605 34.5566 50.6292 34.2837 51.3334 34.1772C52.0376 34.0708 52.7571 34.1339 53.432 34.3614C54.5687 34.8986 55.4527 35.8557 55.898 37.0314C55.898 37.0314 51.159 36.1194 48.664 37.3624Z" fill="#FF9D8A"/>
<path fill-rule="evenodd" clip-rule="evenodd" d="M42.7021 31.08C43.1298 31.1759 43.5645 31.2374 44.002 31.264C44.805 31.3094 45.6103 31.2343 46.391 31.041L46.5271 30.992C47.0271 30.341 47.1771 26.933 45.6631 26.351C45.5121 26.2894 45.3562 26.2405 45.197 26.205C43.974 26.147 42.8091 27.458 42.5661 29.234C42.4765 29.8515 42.5229 30.4822 42.7021 31.08Z" fill="url(#paint16_linear_1205_5616)"/>
<path fill-rule="evenodd" clip-rule="evenodd" d="M44.003 31.2652C44.8056 31.3105 45.6106 31.2353 46.391 31.0422C46.6079 30.6757 46.75 30.2699 46.809 29.8482C46.974 28.5952 46.401 27.4892 45.537 27.3622C44.673 27.2352 43.818 28.1682 43.595 29.4112C43.5026 30.0585 43.6476 30.7163 44.003 31.2652Z" fill="#381E22"/>
<path fill-rule="evenodd" clip-rule="evenodd" d="M55.771 31.2262C56.1451 31.2699 56.523 31.2699 56.897 31.2262C57.2904 31.1935 57.6802 31.1265 58.062 31.0262L58.489 30.9092C58.5801 30.5525 58.6416 30.1889 58.673 29.8222C58.7633 28.9776 58.7074 28.1238 58.508 27.2982C58.4075 26.8832 58.2609 26.4807 58.0711 26.0982C57.6088 26.0964 57.1495 26.1718 56.712 26.3212C56.1339 27.0357 55.7643 27.896 55.644 28.8072C55.4951 29.6122 55.5386 30.4411 55.771 31.2262Z" fill="url(#paint17_linear_1205_5616)"/>
<path fill-rule="evenodd" clip-rule="evenodd" d="M56.897 31.2259C57.2904 31.1932 57.6802 31.1263 58.062 31.0259C58.3529 30.6766 58.562 30.2666 58.674 29.8259C58.7643 28.9814 58.7084 28.1276 58.509 27.3019C58.4551 27.2019 58.3805 27.1144 58.2901 27.0455C58.1998 26.9765 58.0957 26.9276 57.985 26.9019C57.334 26.8019 56.645 27.7269 56.441 28.9599C56.3402 29.3475 56.3289 29.7529 56.4079 30.1455C56.4869 30.538 56.6542 30.9075 56.897 31.2259Z" fill="#381E22"/>
<path fill-rule="evenodd" clip-rule="evenodd" d="M58.392 26.8844C58.484 26.3523 58.5198 25.812 58.499 25.2724C57.936 25.2144 54.9939 25.7724 53.9839 29.5544C54.3352 28.6907 54.8906 27.925 55.6026 27.3229C56.3146 26.7208 57.1619 26.3003 58.072 26.0974L58.392 26.8844Z" fill="url(#paint18_linear_1205_5616)"/>
<path fill-rule="evenodd" clip-rule="evenodd" d="M46.851 28.6821C46.851 28.6821 47.065 26.4001 46.288 25.6241C45.0146 25.4779 43.727 25.7241 42.5974 26.3297C41.4677 26.9354 40.55 27.8716 39.967 29.0131C40.6563 28.1071 41.5781 27.4047 42.6346 26.9807C43.6911 26.5567 44.8427 26.4269 45.967 26.6051C46.4352 27.21 46.7396 27.9253 46.851 28.6821Z" fill="url(#paint19_linear_1205_5616)"/>
<path fill-rule="evenodd" clip-rule="evenodd" d="M42.1 29.109C42.098 29.1982 42.1228 29.286 42.1711 29.361C42.2195 29.436 42.2892 29.4949 42.3713 29.5299C42.4533 29.565 42.544 29.5747 42.6316 29.5578C42.7193 29.5408 42.7999 29.4981 42.863 29.435C42.9261 29.3718 42.9688 29.2913 42.9858 29.2037C43.0027 29.116 42.993 29.0253 42.9579 28.9433C42.9229 28.8612 42.864 28.7915 42.789 28.7431C42.714 28.6948 42.6262 28.67 42.537 28.672C42.4218 28.6743 42.312 28.7211 42.2305 28.8025C42.1491 28.884 42.1023 28.9938 42.1 29.109Z" fill="white"/>
<path fill-rule="evenodd" clip-rule="evenodd" d="M55.12 29.4494C55.1065 29.5396 55.121 29.6318 55.1615 29.7136C55.2019 29.7953 55.2664 29.8628 55.3463 29.9068C55.4262 29.9509 55.5177 29.9694 55.6084 29.96C55.6992 29.9505 55.7849 29.9135 55.854 29.8539C55.9231 29.7944 55.9723 29.7151 55.995 29.6267C56.0177 29.5384 56.0129 29.4452 55.9811 29.3596C55.9493 29.2741 55.8921 29.2004 55.8172 29.1483C55.7423 29.0962 55.6532 29.0683 55.562 29.0684C55.4549 29.0684 55.3513 29.1069 55.2702 29.1768C55.1891 29.2467 55.1358 29.3434 55.12 29.4494Z" fill="white"/>
<path fill-rule="evenodd" clip-rule="evenodd" d="M55.354 42.0234C53.9804 42.2782 52.5716 42.2782 51.198 42.0234C48.722 41.6054 44.498 39.1104 44.498 39.1104C44.3939 39.1861 44.3114 39.2879 44.2588 39.4054C44.2062 39.5229 44.1852 39.6522 44.198 39.7804C44.266 40.1804 46.509 45.4704 51.538 46.1404C51.538 46.1404 52.738 45.8404 54.548 42.8584L55.354 42.0234Z" fill="white"/>
<path fill-rule="evenodd" clip-rule="evenodd" d="M55.353 42.0224C53.7755 42.1868 52.181 42.0349 50.663 41.5754C48.5373 40.9505 46.4736 40.1313 44.498 39.1284C44.498 39.1284 49.1779 42.5754 54.0229 42.4394C53.3683 43.7249 52.4601 44.8645 51.353 45.7894C51.353 45.7894 47.926 45.1894 46.43 43.1094C45.5905 42.0878 45.1096 40.8188 45.061 39.4974L44.517 39.1284L44.061 39.5654C44.061 39.5654 46.294 45.6534 51.561 46.1584C51.561 46.1584 53.4349 45.5274 54.7939 42.6434L55.353 42.0224Z" fill="#B85652"/>
<path fill-rule="evenodd" clip-rule="evenodd" d="M45.712 39.295C44.6426 39.5207 43.6434 40.001 42.799 40.695C42.799 40.695 43.527 38.656 44.469 38.52C44.44 38.518 45.289 38.246 45.712 39.295Z" fill="url(#paint20_linear_1205_5616)"/>
<path fill-rule="evenodd" clip-rule="evenodd" d="M56.402 8.98193C56.7578 10.174 56.87 11.4256 56.732 12.6619C59.888 15.9439 59.072 24.5069 59.072 24.5069C62.49 21.4869 63.237 14.9819 63.237 14.9819C64.674 15.6519 64.771 16.3319 64.771 16.5059C64.757 15.5349 64.4663 14.588 63.9332 13.7762C63.4 12.9645 62.6465 12.3216 61.761 11.9229C58.538 10.3119 56.402 8.98193 56.402 8.98193Z" fill="url(#paint21_linear_1205_5616)"/>
<path fill-rule="evenodd" clip-rule="evenodd" d="M56.731 12.6621C56.531 14.0211 56.488 14.3621 56.478 14.4391C56.7077 13.8767 56.7946 13.2662 56.731 12.6621Z" fill="url(#paint22_linear_1205_5616)"/>
<path fill-rule="evenodd" clip-rule="evenodd" d="M26.196 17.2452C26.546 19.6922 28.934 30.0032 28.934 30.0032L29.361 31.6832L31.885 32.8292C33.623 30.7612 35.565 24.1782 35.507 23.2462C35.449 22.3142 34.361 20.3332 34.429 18.4882C34.811 16.2734 35.9175 14.2481 37.575 12.7302C38.721 11.9922 42.537 12.1302 46.158 12.1302C48.1053 12.1788 50.0472 11.9065 51.906 11.3242C53.7017 11.749 55.282 12.8115 56.353 14.3142C55.634 13.2852 51.498 7.70222 46.877 5.77022L48.12 7.37021C47.887 7.18621 43.935 4.19521 41.168 4.56421C38.401 4.93321 37.177 7.47721 35.634 12.1282C34.091 16.7792 32.003 19.2282 29.362 19.6432C26.876 20.0412 26.264 17.5462 26.196 17.2452Z" fill="url(#paint23_linear_1205_5616)"/>
<path fill-rule="evenodd" clip-rule="evenodd" d="M31.41 32.3044C29.5293 30.9986 27.3406 30.2059 25.06 30.0044C25.06 30.0044 22.66 31.9464 22.837 36.2184C23.014 40.4904 29.692 43.4514 30.886 42.9664C32.08 42.4814 32.906 39.7814 32.906 39.7814C32.906 39.7814 32.973 33.2364 31.41 32.3044Z" fill="#F19579"/>
<path fill-rule="evenodd" clip-rule="evenodd" d="M31.73 35.2942C31.73 35.2942 29.885 32.5272 24.93 32.7402C24.3104 33.9352 24.0539 35.2853 24.192 36.6242C24.1986 37.4183 24.4058 38.1979 24.7945 38.8904C25.1831 39.5829 25.7405 40.1659 26.415 40.5852C25.877 40.0196 25.4581 39.3517 25.1833 38.6211C24.9084 37.8905 24.7832 37.1122 24.815 36.3322L25.048 33.9052C26.6281 33.7269 28.2148 34.1769 29.466 35.1582C30.1155 35.5533 30.6517 36.1097 31.0226 36.7732C31.3936 37.4368 31.5866 38.185 31.583 38.9452C31.851 38.3776 32.0022 37.7619 32.0275 37.1346C32.0527 36.5074 31.9515 35.8815 31.73 35.2942Z" fill="#DD6668"/>
<path fill-rule="evenodd" clip-rule="evenodd" d="M27.299 33.644C27.2101 34.7517 27.3658 35.8653 27.755 36.906C27.9544 37.4669 28.3544 37.9341 28.8779 38.2174C29.4015 38.5007 30.0114 38.58 30.59 38.44C30.59 38.44 28.648 38.887 28.39 37.032C28.132 35.177 29.225 34.614 29.225 34.614L27.299 33.644Z" fill="#DD6668"/>
<path opacity="0.5" fill-rule="evenodd" clip-rule="evenodd" d="M67.276 98.3953C69.218 102.153 72.043 109.328 74.354 115.474C77.17 122.979 82.122 125.319 82.122 125.319C92.977 120.027 99.812 104.085 99.812 104.085L101.666 100.58C98.229 100.017 96.766 94.9393 96.766 94.9393L95.455 94.6963C94.785 93.4823 94.047 93.7253 94.047 93.7253C93.241 97.8133 96.766 103.561 96.766 103.561C93.144 110.445 81.813 114.319 81.813 114.319C81.638 107.94 84.804 101.629 84.804 101.629L84.134 99.8233C81.959 101.765 79.182 107.697 79.182 107.697C79.4419 104.948 80.2369 102.276 81.522 99.8323C79.5408 101.193 77.4823 102.438 75.357 103.56C74.1744 101.534 73.2327 99.377 72.551 97.1323C70.939 92.4813 69.114 81.3933 69.114 81.3933L70.939 75.2183C69.739 76.0723 67.521 81.2963 67.521 81.2963C68.402 87.1033 67.315 98.0263 67.276 98.3953Z" fill="url(#paint24_linear_1205_5616)"/>
<g style="mix-blend-mode:multiply" opacity="0.5">
<path fill-rule="evenodd" clip-rule="evenodd" d="M16.729 121.096C16.771 113.829 17.9843 106.616 20.322 99.7354C17.9698 106.705 16.3239 113.894 15.409 121.193C15.409 121.193 11.583 124.679 7.93304 125.281C7.93304 125.281 14.205 125.873 17.283 121.999C16.982 121.503 16.729 121.096 16.729 121.096Z" fill="#E3A05A"/>
</g>
<path opacity="0.5" fill-rule="evenodd" clip-rule="evenodd" d="M0.572998 129.126C2.37177 136.691 4.83464 144.083 7.93298 151.215C8.57861 152.493 9.12101 153.821 9.55499 155.186C13.662 156.04 16.73 151.924 16.73 151.924V150.312C16.73 150.312 18.798 149.112 18.798 148.001C18.798 146.89 17.584 146.389 16.73 144.894C15.876 143.399 16.1379 131.563 16.2159 129.679C16.222 129.522 16.2415 129.366 16.274 129.213C14.089 131.864 11.419 134.65 9.24396 135.713C5.81596 137.428 2.049 132.951 0.572998 129.126Z" fill="url(#paint25_linear_1205_5616)"/>
<path opacity="0.72" fill-rule="evenodd" clip-rule="evenodd" d="M21.632 96.2642L25.516 89.2342V92.7642L34.351 99.5642C35.788 99.3312 37.681 99.0402 40.235 98.6512C43.148 98.2142 47.109 97.9032 51.119 97.6802C51.295 95.0914 51.2432 92.492 50.964 89.9122C50.498 87.1742 48.051 77.8632 48.051 77.8632C48.051 77.8632 40.8079 76.5912 35.5259 72.2992C30.2439 68.0072 30.283 59.8992 30.283 59.8992L39.818 59.3652C41.4492 60.3026 43.1278 61.155 44.847 61.9192C47.469 64.1192 47.537 71.1622 47.537 71.1622C47.537 71.1622 49.6539 68.9482 49.4789 67.1422C49.3039 65.3362 48.644 59.5982 48.644 59.5982C48.7252 59.6402 48.8094 59.676 48.896 59.7052C50.2513 61.1797 51.2852 62.9199 51.9321 64.8153C52.5791 66.7106 52.8249 68.7198 52.654 70.7152C51.8478 72.8045 50.8054 74.7948 49.547 76.6472C49.547 76.6472 52.033 90.3182 52.101 93.5322C52.101 94.7322 52.053 96.1832 51.955 97.6682C59.722 97.2512 67.325 97.1532 67.325 97.1532L67.225 99.5532C67.225 99.5532 64.652 99.3982 52.845 99.5532H51.874C51.758 101.417 51.641 103.243 51.68 104.709C51.738 107.865 52.6509 120.526 52.6509 120.526C52.6509 120.526 59.797 118.351 63.251 113.726C60.4078 117.615 56.7915 120.874 52.629 123.299C52.629 123.299 52.095 130.27 51.658 131.27C51.3061 132.041 50.8557 132.762 50.318 133.416C50.318 133.416 60.231 130.872 63.118 128.862C63.018 129.962 60.3019 132.183 60.3019 132.183C60.3019 132.183 59.802 134.29 49.049 134.193C44.4312 134.114 39.8619 133.237 35.543 131.601H35.426L34.455 131.222L34.222 131.122L33.474 130.811L33.183 130.675L32.6299 130.423L32.3 130.268L31.912 130.074L31.592 129.909L31.339 129.783L31.077 129.637L30.922 129.55L30.722 129.433H30.6349C30.1225 128.634 29.7145 127.773 29.421 126.87V126.812C30.256 125.212 30.654 125.212 30.654 125.212C29.897 117.376 26.586 103.667 26.586 103.667C24.982 101.279 23.322 98.8042 21.632 96.2642ZM38.818 99.8952L34.934 101.623C34.934 101.623 33.963 121.255 36.134 125.333C37.9453 125.69 39.8087 125.69 41.62 125.333C44.7872 124.617 47.8814 123.609 50.863 122.323C50.863 122.323 50.663 109.866 50.863 103.875C50.912 102.389 50.9699 100.962 51.0179 99.6032C46.5609 99.6322 42.299 99.7692 38.818 99.8952ZM48.624 132.839C48.624 132.839 50.78 131.431 50.974 129.819C51.168 128.207 51.304 124.964 51.304 124.964C48.0175 126.138 44.5507 126.726 41.061 126.702C39.3246 126.613 37.6087 126.286 35.961 125.731L33.835 129.168C38.5085 131.257 43.516 132.499 48.624 132.835V132.839Z" fill="url(#paint26_linear_1205_5616)"/>
<path d="M47.382 68.928C47.382 68.928 46.882 63.908 44.372 62.646C44.372 62.646 41.294 65.471 39.74 73.326C39.74 73.326 32.14 67.617 30.264 59.898C30.264 59.898 32.788 54.072 34.303 52.519C34.3883 53.4697 34.6041 54.4041 34.944 55.296C35.4 56.267 41.673 60.374 45.313 61.617C46.7851 63.7615 47.5117 66.3302 47.381 68.928H47.382Z" fill="url(#paint27_linear_1205_5616)"/>
<path d="M49.411 67.7823L48.032 55.6553C49.9686 57.2477 51.427 59.3446 52.246 61.7143C52.7882 64.6728 52.906 67.6935 52.596 70.6853C52.596 70.6853 52.276 64.0053 49.683 61.8493C49.702 61.8503 49.692 64.4613 49.411 67.7823Z" fill="url(#paint28_linear_1205_5616)"/>
<path opacity="0.5" fill-rule="evenodd" clip-rule="evenodd" d="M25.312 273.426L41.944 279.951C41.944 279.951 40.779 265.834 40.225 255.182C39.671 244.53 40.779 223.034 41.788 218.005C42.797 212.976 44.002 207.577 44.002 207.577C44.245 206.286 44.487 204.829 44.721 203.247C43.821 207.684 42.421 211.84 40.235 213.791C40.235 213.791 29.555 214.199 27.943 206.991C26.807 201.952 27.564 187.009 28.128 178.552C27.157 191.352 26.118 203.175 25.516 205.981C24.108 212.409 20.749 226.652 20.749 226.652C19.71 240.725 25.137 272.388 25.312 273.426Z" fill="#2C2C2C"/>
<path fill-rule="evenodd" clip-rule="evenodd" d="M23.404 93.0553C23.404 93.0553 17.248 104.085 10.879 109.687C10.879 109.687 20.016 94.3463 22.055 88.4873L23.404 93.0553Z" fill="url(#paint29_linear_1205_5616)"/>
<path opacity="0.5" fill-rule="evenodd" clip-rule="evenodd" d="M48.13 162.769C48.13 162.769 55.383 151.428 56.325 148.869C56.325 148.869 52.441 154.258 48.557 155.306L48.13 162.769Z" fill="#252525"/>
<path fill-rule="evenodd" clip-rule="evenodd" d="M104.628 90.23C104.628 90.23 108.716 88.63 112.133 90.23C114.806 91.5717 117.4 93.0661 119.901 94.706L123.047 95.114C123.047 95.114 128.873 94.92 130.747 97.056C130.747 96.956 130.368 96.143 128.514 95.367C126.66 94.591 122.688 94.522 122.688 94.522C122.416 94.1246 122.256 93.6621 122.222 93.182C125.973 92.6152 129.807 93.2186 133.203 94.91C132.97 94.764 129.096 92.347 122.222 92.41C121.928 92.1412 121.702 91.8067 121.561 91.4337C121.421 91.0607 121.372 90.6599 121.416 90.264C125.459 90.2364 129.482 90.8224 133.349 92.002C132.66 91.74 126.549 89.448 121.387 89.856C120.929 89.1897 120.599 88.4435 120.416 87.656C119.193 87.472 117.911 87.297 116.231 86.986C113.422 86.3845 110.774 85.1894 108.464 83.481C108.149 84.946 107.619 86.3563 106.891 87.666C105.968 88.822 104.628 90.23 104.628 90.23Z" fill="url(#paint30_linear_1205_5616)"/>
<path fill-rule="evenodd" clip-rule="evenodd" d="M103.017 99.0852C101.74 98.8814 100.522 98.4069 99.4431 97.6936C98.3646 96.9803 97.4512 96.0445 96.764 94.9492C96.9521 96.261 97.5143 97.4908 98.3834 98.4913C99.2524 99.4917 100.391 100.22 101.664 100.59L103.017 99.0852Z" fill="url(#paint31_linear_1205_5616)"/>
<g opacity="0.58">
<path d="M41.1306 84.561L36.2667 84.9726C36.2113 84.9648 36.1587 85.0036 36.1508 85.0599L36.9473 90.1314C36.9394 90.1877 36.9793 90.2394 37.0356 90.2474L41.9432 89.9414C41.9995 89.9493 42.0523 89.9096 42.0601 89.8542L41.613 87.3865L39.5281 87.5848L39.4211 86.8339L41.503 86.6352L41.2187 84.678C41.2267 84.6217 41.1869 84.5689 41.1306 84.561ZM41.1861 82.5492L41.4089 82.5805C42.402 82.72 43.1368 83.5357 43.2133 84.4963L43.5824 87.0378L44.0853 89.8141L44.0406 90.1326C43.8946 91.1713 43.0083 91.9273 41.9901 91.9424L36.9579 92.2561L36.7573 92.2279C35.7711 92.0893 35.0396 91.2844 34.9544 90.333L34.1289 85.0763L34.1703 84.7816C34.3145 83.7555 35.1808 83.0052 36.1829 82.9726L41.1861 82.5492Z" fill="white"/>
</g>
</g>
</g>
<defs>
<linearGradient id="paint0_linear_1205_5616" x1="16.7358" y1="184.785" x2="16.7358" y2="151.331" gradientUnits="userSpaceOnUse">
<stop stop-color="#FFA486"/>
<stop offset="1" stop-color="#FFB886"/>
</linearGradient>
<linearGradient id="paint1_linear_1205_5616" x1="46.3242" y1="287.467" x2="46.3242" y2="126.673" gradientUnits="userSpaceOnUse">
<stop stop-color="#262626"/>
<stop offset="1" stop-color="#474747"/>
</linearGradient>
<linearGradient id="paint2_linear_1205_5616" x1="40.9123" y1="73.238" x2="42.801" y2="37.4636" gradientUnits="userSpaceOnUse">
<stop stop-color="#FF7F66"/>
<stop offset="1" stop-color="#EC887E"/>
</linearGradient>
<linearGradient id="paint3_linear_1205_5616" x1="40.4885" y1="57.8935" x2="40.4885" y2="39.1305" gradientUnits="userSpaceOnUse">
<stop stop-color="#D75C56"/>
<stop offset="1" stop-color="#AC4C3D"/>
</linearGradient>
<linearGradient id="paint4_linear_1205_5616" x1="56.8615" y1="243.666" x2="40.9189" y2="243.641" gradientUnits="userSpaceOnUse">
<stop stop-color="#303030"/>
<stop offset="1" stop-color="#1E1E1E"/>
</linearGradient>
<linearGradient id="paint5_linear_1205_5616" x1="44.8178" y1="54.7866" x2="44.8178" y2="8.58287" gradientUnits="userSpaceOnUse">
<stop stop-color="#FFA486"/>
<stop offset="1" stop-color="#FFB886"/>
</linearGradient>
<linearGradient id="paint6_linear_1205_5616" x1="44.3673" y1="50.6464" x2="44.3673" y2="8.55808" gradientUnits="userSpaceOnUse">
<stop stop-color="#F5957C"/>
<stop offset="1" stop-color="#DA7763"/>
</linearGradient>
<linearGradient id="paint7_linear_1205_5616" x1="44.804" y1="32.832" x2="44.804" y2="-0.0396425" gradientUnits="userSpaceOnUse">
<stop stop-color="#5A2031"/>
<stop offset="0.99" stop-color="#882231"/>
</linearGradient>
<linearGradient id="paint8_linear_1205_5616" x1="116.04" y1="101.619" x2="116.04" y2="75.2036" gradientUnits="userSpaceOnUse">
<stop stop-color="#FFA486"/>
<stop offset="1" stop-color="#FFB886"/>
</linearGradient>
<linearGradient id="paint9_linear_1205_5616" x1="81.812" y1="125.347" x2="81.812" y2="68.9053" gradientUnits="userSpaceOnUse">
<stop stop-color="#FFB84E"/>
<stop offset="1" stop-color="#F9CD9B"/>
</linearGradient>
<linearGradient id="paint10_linear_1205_5616" x1="40.216" y1="134.107" x2="40.216" y2="55.2822" gradientUnits="userSpaceOnUse">
<stop stop-color="#FFB84E"/>
<stop offset="1" stop-color="#F9CD9B"/>
</linearGradient>
<linearGradient id="paint11_linear_1205_5616" x1="11.413" y1="155.302" x2="11.413" y2="73.3194" gradientUnits="userSpaceOnUse">
<stop stop-color="#FFB84E"/>
<stop offset="1" stop-color="#F9CD9B"/>
</linearGradient>
<linearGradient id="paint12_linear_1205_5616" x1="34.6199" y1="289.085" x2="34.6199" y2="141.539" gradientUnits="userSpaceOnUse">
<stop stop-color="#202020"/>
<stop offset="1" stop-color="#494949"/>
</linearGradient>
<linearGradient id="paint13_linear_1205_5616" x1="56.2561" y1="25.6232" x2="56.2561" y2="19.645" gradientUnits="userSpaceOnUse">
<stop stop-color="#5A2031"/>
<stop offset="0.99" stop-color="#882231"/>
</linearGradient>
<linearGradient id="paint14_linear_1205_5616" x1="43.596" y1="23.7063" x2="43.596" y2="19.9443" gradientUnits="userSpaceOnUse">
<stop stop-color="#5A2031"/>
<stop offset="0.99" stop-color="#882231"/>
</linearGradient>
<linearGradient id="paint15_linear_1205_5616" x1="162.171" y1="252.882" x2="162.171" y2="249.785" gradientUnits="userSpaceOnUse">
<stop stop-color="#EF686A"/>
<stop offset="1" stop-color="#EC887E"/>
</linearGradient>
<linearGradient id="paint16_linear_1205_5616" x1="44.7027" y1="31.2718" x2="44.7027" y2="26.2031" gradientUnits="userSpaceOnUse">
<stop stop-color="#595E27"/>
<stop offset="0.98" stop-color="#814227"/>
</linearGradient>
<linearGradient id="paint17_linear_1205_5616" x1="57.1393" y1="31.2538" x2="57.1393" y2="26.0981" gradientUnits="userSpaceOnUse">
<stop stop-color="#595E27"/>
<stop offset="0.98" stop-color="#814227"/>
</linearGradient>
<linearGradient id="paint18_linear_1205_5616" x1="58.5183" y1="27.4072" x2="53.9839" y2="27.4072" gradientUnits="userSpaceOnUse">
<stop stop-color="#592C27"/>
<stop offset="0.98" stop-color="#814227"/>
</linearGradient>
<linearGradient id="paint19_linear_1205_5616" x1="46.878" y1="27.2946" x2="39.967" y2="27.2946" gradientUnits="userSpaceOnUse">
<stop stop-color="#592C27"/>
<stop offset="0.98" stop-color="#814227"/>
</linearGradient>
<linearGradient id="paint20_linear_1205_5616" x1="44.2351" y1="40.695" x2="44.2351" y2="38.489" gradientUnits="userSpaceOnUse">
<stop stop-color="#EF686A"/>
<stop offset="1" stop-color="#EC887E"/>
</linearGradient>
<linearGradient id="paint21_linear_1205_5616" x1="60.5865" y1="24.5069" x2="60.5865" y2="8.98193" gradientUnits="userSpaceOnUse">
<stop stop-color="#4A1818"/>
<stop offset="1" stop-color="#64111E"/>
</linearGradient>
<linearGradient id="paint22_linear_1205_5616" x1="56.614" y1="14.4391" x2="56.614" y2="12.6621" gradientUnits="userSpaceOnUse">
<stop offset="0.01" stop-color="#D1C279"/>
<stop offset="1" stop-color="#C97CA1"/>
</linearGradient>
<linearGradient id="paint23_linear_1205_5616" x1="41.2745" y1="32.8292" x2="41.2745" y2="4.53271" gradientUnits="userSpaceOnUse">
<stop stop-color="#4A1818"/>
<stop offset="1" stop-color="#64111E"/>
</linearGradient>
<linearGradient id="paint24_linear_1205_5616" x1="84.471" y1="125.319" x2="84.471" y2="75.2183" gradientUnits="userSpaceOnUse">
<stop stop-color="#CB7E3F"/>
<stop offset="1" stop-color="#EAA76B"/>
</linearGradient>
<linearGradient id="paint25_linear_1205_5616" x1="9.68549" y1="155.303" x2="9.68549" y2="129.126" gradientUnits="userSpaceOnUse">
<stop stop-color="#E59B48"/>
<stop offset="1" stop-color="#CB7E3F"/>
</linearGradient>
<linearGradient id="paint26_linear_1205_5616" x1="41.6455" y1="63.4061" x2="46.1679" y2="133.04" gradientUnits="userSpaceOnUse">
<stop stop-color="#EFAF77"/>
<stop offset="1" stop-color="#CC7F3F"/>
</linearGradient>
<linearGradient id="paint27_linear_1205_5616" x1="38.8128" y1="73.3052" x2="38.8128" y2="52.4982" gradientUnits="userSpaceOnUse">
<stop stop-color="#F6ECE4"/>
<stop offset="1" stop-color="white"/>
</linearGradient>
<linearGradient id="paint28_linear_1205_5616" x1="50.3936" y1="70.6702" x2="50.3936" y2="55.6402" gradientUnits="userSpaceOnUse">
<stop stop-color="#F6ECE4"/>
<stop offset="1" stop-color="white"/>
</linearGradient>
<linearGradient id="paint29_linear_1205_5616" x1="17.1415" y1="109.687" x2="17.1415" y2="88.4873" gradientUnits="userSpaceOnUse">
<stop stop-color="#E59B46"/>
<stop offset="1" stop-color="#EEB66F"/>
</linearGradient>
<linearGradient id="paint30_linear_1205_5616" x1="118.96" y1="97.0831" x2="118.96" y2="83.4945" gradientUnits="userSpaceOnUse">
<stop stop-color="#FF7F66"/>
<stop offset="1" stop-color="#EC887E"/>
</linearGradient>
<linearGradient id="paint31_linear_1205_5616" x1="99.8905" y1="100.59" x2="99.8905" y2="94.9492" gradientUnits="userSpaceOnUse">
<stop stop-color="#FF7F66"/>
<stop offset="1" stop-color="#EC887E"/>
</linearGradient>
<clipPath id="clip0_1205_5616">
<rect width="135.24" height="186.83" fill="white"/>
</clipPath>
</defs>
</svg>
