<svg xmlns="http://www.w3.org/2000/svg" xmlns:xlink="http://www.w3.org/1999/xlink" width="272.708" height="440" viewBox="0 0 272.708 440"><defs><style>.a,.b{fill:#e5f6ff;}.a,.ah,.ao,.ax,.ay,.be,.d,.s,.w,.y{opacity:0.5;}.c{fill:url(#a);}.al,.ao,.aq,.au,.ba,.bd,.be,.d,.f,.g,.i,.l,.m,.s{mix-blend-mode:multiply;}.ac,.ad,.ah,.al,.ao,.aq,.au,.ax,.ay,.ba,.bd,.be,.d,.f,.g,.i,.l,.m,.n,.o,.s,.y{isolation:isolate;}.d{fill:url(#b);}.e{fill:url(#c);}.f{fill:url(#d);}.az,.ba,.g,.i{opacity:0.3;}.g{fill:url(#e);}.h{fill:url(#f);}.i{fill:url(#g);}.j{fill:url(#h);}.k{fill:url(#i);}.l{fill:url(#j);}.m{fill:#6340a2;}.ac,.ad,.n,.o{opacity:0.72;}.ac,.ad,.ah,.ax,.ay,.n,.o,.y{mix-blend-mode:screen;}.n{fill:url(#k);}.o{fill:url(#l);}.p{fill:#fff;}.q{fill:url(#m);}.r{fill:url(#n);}.s{fill:url(#o);}.t{fill:url(#p);}.u{fill:url(#q);}.v{fill:url(#r);}.w{fill:url(#s);}.x{fill:url(#t);}.y{fill:url(#u);}.z{fill:url(#v);}.aa{fill:url(#w);}.ab{fill:url(#x);}.ac{fill:url(#y);}.ad{fill:url(#z);}.ae{fill:url(#aa);}.af{fill:url(#ab);}.ag{fill:#2f95cd;}.ah{fill:url(#ac);}.ai{fill:url(#ad);}.aj{fill:url(#ae);}.ak{fill:url(#af);}.al{fill:url(#ag);}.am{fill:url(#ah);}.an{fill:url(#ai);}.ao{fill:url(#aj);}.ap{fill:#ff91ff;}.aq{fill:url(#ak);}.ar{fill:url(#al);}.as{fill:url(#am);}.at{fill:url(#an);}.au{fill:url(#ao);}.av{fill:url(#ap);}.aw{fill:url(#aq);}.ax{fill:url(#ar);}.ay{fill:url(#as);}.az{fill:url(#at);}.ba{fill:url(#au);}.bb{fill:url(#av);}.bc{fill:url(#aw);}.bd{fill:url(#ax);}.be{fill:url(#ay);}.bf{fill:url(#az);}</style><linearGradient id="a" x1="0.106" y1="0.999" x2="0.536" y2="0.088" gradientUnits="objectBoundingBox"><stop offset="0" stop-color="#cbc1f7"/><stop offset="1" stop-color="#d4bef1"/></linearGradient><linearGradient id="b" x1="0.5" y1="0.999" x2="0.5" y2="-0.001" gradientUnits="objectBoundingBox"><stop offset="0" stop-color="#8da4e5"/><stop offset="1" stop-color="#755cbb"/></linearGradient><linearGradient id="c" x1="0.403" y1="0.969" x2="0.609" y2="0.032" xlink:href="#a"/><linearGradient id="d" x1="1.332" y1="1.385" x2="1.196" y2="0.429" gradientUnits="objectBoundingBox"><stop offset="0" stop-color="#be9dea"/><stop offset="1" stop-color="#9e8cef"/></linearGradient><linearGradient id="e" x1="0.499" y1="1" x2="0.499" gradientUnits="objectBoundingBox"><stop offset="0" stop-color="#9d68c2"/><stop offset="1" stop-color="#ccedff"/></linearGradient><linearGradient id="f" x1="-2.161" y1="0.943" x2="-1.974" y2="-0.049" gradientUnits="objectBoundingBox"><stop offset="0" stop-color="#cbc1f7"/><stop offset="1" stop-color="#e8dcf7"/></linearGradient><linearGradient id="g" x1="-5.672" y1="0.989" x2="-5.672" y2="-0.017" xlink:href="#e"/><linearGradient id="h" x1="-3.616" y1="0.373" x2="-2.676" y2="0.373" xlink:href="#d"/><radialGradient id="i" cx="0.343" cy="0.806" r="0.65" gradientTransform="matrix(-1.06, -0.25, -0.273, 0.968, -6.232, -0.756)" gradientUnits="objectBoundingBox"><stop offset="0" stop-color="#45ffcd"/><stop offset="1" stop-color="#22e0ff"/></radialGradient><linearGradient id="j" x1="-6.726" y1="0.509" x2="-6.057" y2="0.509" gradientUnits="objectBoundingBox"><stop offset="0" stop-color="#8879ea"/><stop offset="1" stop-color="#9e8cef"/></linearGradient><linearGradient id="k" x1="-4.815" y1="0.024" x2="-3.814" y2="0.024" gradientUnits="objectBoundingBox"><stop offset="0"/><stop offset="1" stop-color="#d4e2ff"/></linearGradient><linearGradient id="l" x1="-8.222" y1="-0.058" x2="-8.222" y2="-0.842" gradientUnits="objectBoundingBox"><stop offset="0" stop-color="#d4e2ff"/><stop offset="1"/></linearGradient><linearGradient id="m" x1="0.344" y1="0.955" x2="0.821" y2="0.079" xlink:href="#f"/><linearGradient id="n" x1="0.452" y1="1.008" x2="0.531" y2="-0.08" xlink:href="#f"/><linearGradient id="o" x1="0.459" y1="1.013" x2="0.562" y2="-0.103" xlink:href="#b"/><linearGradient id="p" x1="8.378" y1="1.302" x2="8.378" y2="0.226" gradientTransform="matrix(1, 0, 0, 1, 0, 0)" xlink:href="#i"/><linearGradient id="q" x1="7.233" y1="1.312" x2="7.233" y2="0.216" gradientUnits="objectBoundingBox"><stop offset="0" stop-color="#b9acf4"/><stop offset="1" stop-color="#e1d1f5"/></linearGradient><linearGradient id="r" x1="0.446" y1="1.02" x2="0.564" y2="0.012" xlink:href="#f"/><linearGradient id="s" x1="0.5" y1="1" x2="0.5" y2="0" xlink:href="#b"/><linearGradient id="t" x1="0.5" y1="1" x2="0.5" gradientUnits="objectBoundingBox"><stop offset="0" stop-color="#0665bd"/><stop offset="1" stop-color="#1a1f77"/></linearGradient><linearGradient id="u" x1="0.46" y1="0.961" x2="0.561" y2="0.064" gradientUnits="objectBoundingBox"><stop offset="0"/><stop offset="1" stop-color="#6a9bff"/></linearGradient><linearGradient id="v" x1="-5.001" y1="1" x2="-5.001" y2="0" xlink:href="#q"/><linearGradient id="w" x1="-4.799" y1="1.001" x2="-4.799" y2="0" xlink:href="#d"/><linearGradient id="x" x1="-3.975" y1="1.001" x2="-3.975" y2="0.001" gradientTransform="matrix(1, 0, 0, 1, 0, 0)" xlink:href="#i"/><linearGradient id="y" x1="-5.195" y1="1.001" x2="-5.195" y2="0" xlink:href="#l"/><linearGradient id="z" x1="-5.305" y1="0.5" x2="-4.304" y2="0.5" xlink:href="#k"/><linearGradient id="aa" x1="0.647" y1="1" x2="0.323" y2="0" gradientTransform="matrix(1, 0, 0, 1, 0, 0)" xlink:href="#i"/><linearGradient id="ab" x1="0.601" y1="0.719" x2="0.601" y2="-0.26" gradientTransform="matrix(1, 0, 0, 1, 0, 0)" xlink:href="#i"/><linearGradient id="ac" x1="0" y1="0.499" x2="1" y2="0.499" xlink:href="#u"/><linearGradient id="ad" x1="0.273" y1="0.962" x2="0.42" y2="0.036" xlink:href="#d"/><linearGradient id="ae" x1="-0.309" y1="-13.368" x2="-0.309" y2="-14.345" gradientUnits="objectBoundingBox"><stop offset="0" stop-color="#dd1a8f"/><stop offset="1" stop-color="#fe117e"/></linearGradient><linearGradient id="af" x1="1.259" y1="0.849" x2="1.259" y2="0.215" gradientUnits="objectBoundingBox"><stop offset="0" stop-color="#d93de3"/><stop offset="1" stop-color="#ff6dba"/></linearGradient><linearGradient id="ag" x1="0.535" y1="1.048" x2="0.411" y2="0.027" xlink:href="#d"/><linearGradient id="ah" x1="0.366" y1="0.999" x2="0.652" y2="-0.014" xlink:href="#af"/><linearGradient id="ai" x1="0.344" y1="0.993" x2="0.663" y2="0.004" gradientUnits="objectBoundingBox"><stop offset="0" stop-color="#a242ea"/><stop offset="1" stop-color="#fe117e"/></linearGradient><linearGradient id="aj" x1="0" y1="0.502" x2="1" y2="0.502" xlink:href="#b"/><linearGradient id="ak" x1="-0.282" y1="0.562" x2="-0.393" y2="-0.481" xlink:href="#d"/><linearGradient id="al" x1="-0.394" y1="0.564" x2="-0.272" y2="-0.544" xlink:href="#f"/><linearGradient id="am" x1="0.227" y1="0.977" x2="0.777" y2="0.015" xlink:href="#af"/><linearGradient id="an" x1="0.417" y1="0.993" x2="0.589" y2="0.002" gradientUnits="objectBoundingBox"><stop offset="0" stop-color="#b31a8f"/><stop offset="1" stop-color="#92117e"/></linearGradient><linearGradient id="ao" x1="1.682" y1="1.813" x2="1.775" y2="0.809" gradientUnits="objectBoundingBox"><stop offset="0" stop-color="#b31a8f"/><stop offset="1" stop-color="#fe117e"/></linearGradient><radialGradient id="ap" cx="0.498" cy="0.503" r="0.441" gradientTransform="matrix(1.305, -0.195, 0.259, 0.981, -1.033, 0.433)" xlink:href="#i"/><linearGradient id="aq" x1="0" y1="0.5" x2="1" y2="0.5" xlink:href="#an"/><linearGradient id="ar" x1="0.5" y1="1" x2="0.5" y2="0" xlink:href="#u"/><linearGradient id="as" x1="0.458" y1="1.103" x2="0.542" y2="-0.1" xlink:href="#u"/><linearGradient id="at" x1="0.5" y1="1" x2="0.5" y2="0" xlink:href="#e"/><linearGradient id="au" x1="0.653" y1="1.036" x2="0.653" y2="0.015" xlink:href="#e"/><linearGradient id="av" x1="0.502" y1="1.004" x2="0.502" y2="0.001" xlink:href="#f"/><linearGradient id="aw" x1="-2.267" y1="1.151" x2="-2.084" y2="0.106" xlink:href="#f"/><linearGradient id="ax" x1="-2.28" y1="1.113" x2="-2.431" y2="0.144" xlink:href="#d"/><linearGradient id="ay" x1="-7.521" y1="1.227" x2="-7.774" y2="0.238" xlink:href="#b"/><linearGradient id="az" x1="-4.911" y1="1.174" x2="-4.6" y2="0.16" xlink:href="#f"/></defs><g transform="translate(-19417.259 12633.872)"><g transform="translate(19413.357 -12633.872)"><path class="a" d="M907.508,155.988c-.784-.508-1.73.715-1.361,1.592a3.3,3.3,0,0,0,2.191,1.546,3.229,3.229,0,0,0-.461-3.576Z" transform="translate(-669.145 73.794)"/><path class="b" d="M909.469,170.311a.807.807,0,0,1,0,1.153,1.522,1.522,0,0,1-1.177.438,1.568,1.568,0,0,1-.739-.162,1.084,1.084,0,0,1-.3-1.546,1.13,1.13,0,0,1,1.569-.208,1.246,1.246,0,0,1,.323,1.592Z" transform="translate(-667.855 92.366)"/><path class="a" d="M912.366,166.271l-.646.669a1.153,1.153,0,0,0,1.2.715.946.946,0,0,0,.715-1.153.784.784,0,0,0-1.223-.346Z" transform="translate(-661.755 87.433)"/><path class="b" d="M921.35,185.564c.461.369,1.2-.115,1.361-.692a15.97,15.97,0,0,0,0-1.8,2.169,2.169,0,0,1,1.015-1.5,1.061,1.061,0,0,1,1.038-.115,1.312,1.312,0,0,1,.438.554,6.484,6.484,0,0,1,.9,3.414,3.045,3.045,0,0,1-1.96,2.745,2.353,2.353,0,0,1-2.953-2.86Z" transform="translate(-649.493 107.539)"/><path class="c" d="M901.559,222.565s-4.291,6.505-10.081,14.833c-9.342,13.518-22.583,31.857-27.681,35.017-2.422,1.522-3.829-4.106-4.614-12.733-1.822-20.346-.161-57.531-.161-57.531S890.441,208.724,901.559,222.565Z" transform="translate(-731.524 134.69)"/><path class="d" d="M901.507,222.565s-4.291,6.505-10.081,14.833c0,0-8.489-1.361-22.837,7.22a21.868,21.868,0,0,0-9.366,15.063c-1.822-20.346-.161-57.531-.161-57.531S890.388,208.724,901.507,222.565Z" transform="translate(-731.472 134.69)"/><path class="e" d="M933.776,265.129h0c-9.089-2.468-20.392-11.326-29.089-24.244C885.91,212.973,866,154.681,889.9,142.708c2.307-1.176,13.679,13.1,25.813,32.087,14.279,22.376,29.688,51.349,32.895,69.48S944.248,268.036,933.776,265.129Z" transform="translate(-704.594 56.925)"/><path class="f" d="M897.33,210.393s8.166-31.4,18.062-30.819,11.349,29.411,4.867,35.2S900.952,214.015,897.33,210.393Z" transform="translate(-680.559 105.179)"/><path class="g" d="M933.776,265.129h0c-9.089-2.468-20.392-11.326-29.089-24.244C885.91,212.973,866,154.681,889.9,142.708c2.307-1.176,13.679,13.1,25.813,32.087h0s-5.583,41.776-1.569,56.631,17.347,23.944,17.347,23.944Z" transform="translate(-704.594 56.925)"/><path class="h" d="M840.42,248.02c-1.292,37.877,15.317,58.5,52.2,67.381,36.17,8.72,68.3-24.683,68.373-73.517,0-31.188-1.938-59.353-13.149-79.445h0a54.947,54.947,0,0,0-29.227-25.375c-10.7-4.129-21.361-.531-31.234,7.682C861.665,166.153,841.435,218.839,840.42,248.02Z" transform="translate(-755.02 47.39)"/><path class="i" d="M876.925,157.15a447.344,447.344,0,0,0-15.732,45.628C855.541,224.9,863.5,249.49,863.5,249.49l-21.038-6.667s-5.675-30.357,1.615-47.128a179.415,179.415,0,0,0,8.028-20.923Z" transform="translate(-755.009 75.885)"/><path class="j" d="M945.96,205.361s-1.453-29.227-27.358-35.847c-31.049-7.912-60.738,21.038-64.82,44.8s-2.515,47.381,26.574,55.778C880.355,270.09,935.58,282.892,945.96,205.361Z" transform="translate(-739.639 90.303)"/><path class="k" d="M945.61,206.675s-1.453-29.25-27.358-35.847c-31.026-7.935-60.714,21.038-64.8,44.8s-2.537,47.312,26.5,55.778C879.959,271.4,935.321,284.183,945.61,206.675Z" transform="translate(-740.073 92.011)"/><path class="l" d="M848.048,200.751a6.389,6.389,0,0,0,5.029-1.984c8.72-6.92,21.938-30.265,25.375-44.175,1.338-5.375,1.223-9.366-1.2-10.473-3.968-1.776-15.963,10.058-25.075,28.673C846.849,183.635,842.235,199.275,848.048,200.751Z" transform="translate(-748.485 58.628)"/><path class="m" d="M848.7,192.735c8.72-6.92,21.938-30.265,25.375-44.175-5.421,4.244-12.918,13.841-19.123,26.413a77.237,77.237,0,0,0-6.251,17.762Z" transform="translate(-744.108 64.66)"/><path class="n" d="M932.328,201.558c-5.79,6.459-17.924-6.8-36.632-9.227s-30.934,4.614-35.5.6,18.823-26.943,47.035-20.9C929.7,176.737,934.311,199.367,932.328,201.558Z" transform="translate(-729.836 94.014)"/><path class="o" d="M896.353,215.223a32.94,32.94,0,0,1-22.329,3c-12.734-2.791-15.363-9.965-15.363-9.965a27.1,27.1,0,0,1,14.671,3,40.715,40.715,0,0,0,23.022,3.968Z" transform="translate(-731.092 142.562)"/><path class="p" d="M869.357,157.184c2.307.623,1.522,18.593-.438,18.846s-5.467-.554-5.4-8.051S867.235,156.584,869.357,157.184Z" transform="translate(-724.742 75.851)"/><path class="q" d="M887,316.247c-11.972.323-61.822-109.78-49.849-118.453,20.369-14.786,48.212,14.81,58.569,31.626a28.1,28.1,0,0,1,4.083,8.881C901.028,247.966,899,315.947,887,316.247Z" transform="translate(-761.604 123.753)"/><path class="r" d="M909.336,149.218c6.713,6.759-12.6,44.059-29.365,50.265s-52.987-1.407-58.777-3.714-7.935-21.753-2.514-29.181S900.178,139.968,909.336,149.218Z" transform="translate(-787.42 62.295)"/><path class="s" d="M844.41,158.312a101.96,101.96,0,0,0,63.944,18.454c38.016-2.03,40.784-14.21,40.784-14.21s-12.549-18.454-22.722-21.638c-4.014-1.246-45.859-8.7-59.538,16.147C857.9,157.043,844.41,158.312,844.41,158.312Z" transform="translate(-749.714 52.048)"/><path class="t" d="M888.836,60.36s19.331,13.01,27.889,43-36.586-6.021-36.586-6.021Z" transform="translate(-703.023 -50.598)"/><path class="u" d="M917.906,102.545s-5.26-40.115-18.708-45.49S868.31,71.427,868.31,71.427Z" transform="translate(-718.482 -56.128)"/><path class="v" d="M871.088,73.445c-60.276,36.609-57,128.1-33.863,161.29,26.9,38.592,168.118,14.325,188.072-49.042C1045.481,121.587,946.035,27.909,871.088,73.445Z" transform="translate(-779.276 -49.242)"/><path class="w" d="M852.623,108.13s-7.335,33.056-26.228,41.361c0,0-4.475-16.147-4.475-26.3S852.623,108.13,852.623,108.13Z" transform="translate(-779.103 11.827)"/><path class="x" d="M882.068,74.046C835.494,97.276,828.343,191.3,859.346,222.534s136.1-1.8,143.412-57.669C1009.333,115.107,937.8,46.227,882.068,74.046Z" transform="translate(-754.777 -41.078)"/><path class="y" d="M884.149,154.315s-22.053,3.483-31.764-9.527-5.26-23.068-2.168-23.806,12.964,18.777,20.761,25.651S884.149,154.315,884.149,154.315Z" transform="translate(-747.031 28.595)"/><path class="z" d="M871.835,93.9s6.228,56.839-28.835,76.954c0,0-17.209,1.845-27.22-8.6,0,0,15.571,14.648,32.018-.6s12.48-57.3,0-70.98-30.5-10.1-30.5-10.1l7.2-6.482S851.051,68.687,871.835,93.9Z" transform="translate(-787.127 -33.296)"/><path class="aa" d="M828.538,73.829s19.515-1.8,33.148,20.761c14.487,24.037,3.968,65.6-13.633,71.925s-35.363-60.945-35.363-60.945l10.219-26.689a12.042,12.042,0,0,1,5.629-5.052Z" transform="translate(-791.165 -33.041)"/><path class="ab" d="M809.348,128.8c2.514,12.987,7.8,23.6,14.879,30.311h0l1.984,1.753h0a25.7,25.7,0,0,0,19.815,5.882c23.737-3.022,26.943-37.416,24.152-56.908-3.252-22.514-22.514-36.032-37.854-34.071C814.169,78.189,804.434,103.379,809.348,128.8Z" transform="translate(-797.188 -30.711)"/><path class="ac" d="M861.72,102.35S859.206,123.457,843.7,128s-28.1-6.644-32.064-22.468c0,0,4.867,13.656,25.029,10.15S861.72,102.35,861.72,102.35Z" transform="translate(-792.537 4.274)"/><path class="ad" d="M861.723,95.982c-.185,3.922-28.627-4.221-37.67-3.022s-12.9,12.3-14.325,12.018,2.307-26.205,19.216-28.12S861.861,93.26,861.723,95.982Z" transform="translate(-795.4 -29.22)"/><path class="ae" d="M902.422,126.089c9.665,5.329,23.783-6.574,20.23-20.761s-20.161-25.767-28.4-21.245S886.321,117.185,902.422,126.089Z" transform="translate(-691.534 -20.896)"/><path class="af" d="M862.839,143.582c15.248,10.542,31.718-6.8,31.534-22.191s-14.464-30.519-28.535-26.643C850.429,98.946,847.084,132.741,862.839,143.582Z" transform="translate(-739.101 -6.463)"/><path class="ag" d="M877.143,127.161c-1.407,2.561,17,15.04,25.859,11.4,10.357-4.268,8.743-26.182,6.92-27.681S879.565,122.848,877.143,127.161Z" transform="translate(-707.039 15.264)"/><path class="ah" d="M845.576,152.584c8.281,11.326,31.926-27.543,57.416-40.484,29.042-14.879,71.3.9,74.14-3.714S943.96,63.2,897.41,70.416,837.918,142.088,845.576,152.584Z" transform="translate(-750.88 -38.578)"/><path class="ai" d="M816.786,122.08s-1.684-11.234,5.49-15.017c0,0,10.773-.577,13.472,9.85,0,0-21.268,68.1-3.9,79.007,16.147,10.15,58.823-10.7,58.823-10.7l3.46,2.814s-36.193,22.629-59.077,15.594S816.786,122.08,816.786,122.08Z" transform="translate(-786.311 10.426)"/><path class="aj" d="M844.355,151.084c-3.645,7.451,9.389,10.888,18.916,9.227,10.657-1.73,27.912-10.911,23.921-21.038S852.821,133.622,844.355,151.084Z" transform="translate(-750.605 45.55)"/><path class="ak" d="M844.427,151.553c.161,1.8,37.255-8,36.309-14.786S843.2,137.689,844.427,151.553Z" transform="translate(-749.731 45.981)"/><path class="al" d="M805.05,156.012a11.926,11.926,0,0,1,7.682-7.082l3.829,13.841Z" transform="translate(-801.149 65.144)"/><path class="am" d="M805.67,142.821s19.654-12.018,60.991-11.049c0,0,17.232,62.86,19.423,108.073a189.639,189.639,0,0,1-50.634,5.767,585.432,585.432,0,0,1-29.781-102.79Z" transform="translate(-800.339 42.649)"/><path class="an" d="M832.11,133.726l9.412-3.506s14.141,63.183,15.109,110.218l-5.1,1.361Z" transform="translate(-765.787 40.694)"/><path class="ao" d="M813.4,177.371l5.006,13.841s13.841-16.839,12.318-32.872Z" transform="translate(-790.237 77.44)"/><path class="ap" d="M805.67,144.776s14.44-11.811,70.4-14.556l-9.412,3.506S841.218,133.242,805.67,144.776Z" transform="translate(-800.339 40.694)"/><path class="aq" d="M807.06,158.166s1.153,23.99,10.173,29.135c0,0,25.79-14.533,22.168-29.527C836.91,147.209,807.06,158.166,807.06,158.166Z" transform="translate(-798.522 70.694)"/><path class="ar" d="M805.05,152.2s0,19.7,11.326,31.88c0,0,15.063-6.021,20.138-12.134,8.143-9.85,4.775-15.478,2.03-17.762C834.162,150.59,805.05,152.2,805.05,152.2Z" transform="translate(-801.149 68.951)"/><path class="as" d="M834.93,140.924a8,8,0,0,1,5.767-2.007s5.536,15.594,4.337,28.35l-4.337,1.2Z" transform="translate(-762.102 52.042)"/><path class="at" d="M834.93,140.919s6.736,15.225,7.912,26.943l3.829-1.43s-2.814-20.115-5.975-27.52a8.627,8.627,0,0,0-5.767,2.007Z" transform="translate(-762.102 52.048)"/><path class="au" d="M832.366,148.687c1.13,5.675-1.361,10.98-5.559,11.811s-8.512-3.114-9.642-8.789,1.361-10.98,5.559-11.834S831.236,142.99,832.366,148.687Z" transform="translate(-785.674 53.16)"/><path class="av" d="M830.136,147.744c.877,4.429-1.061,8.558-4.337,9.227s-6.644-2.307-7.52-6.92,1.061-8.535,4.337-9.227S829.26,143.315,830.136,147.744Z" transform="translate(-784.136 54.427)"/><path class="aw" d="M821.57,183.436v-4.96l28-3.806,2.007,4.429a278.1,278.1,0,0,1-30.011,4.337Z" transform="translate(-779.561 98.78)"/><path class="ax" d="M854.815,135.16,815.83,224.248l3.576,9.735s31.6-19.908,44.982-43.967C864.388,190.015,856.222,143.049,854.815,135.16Z" transform="translate(-787.062 47.149)"/><path class="ay" d="M877.07,155.689a62.905,62.905,0,0,0,32.871-21.43,35.2,35.2,0,0,1,31.418-14.348S916.124,155.666,877.07,155.689Z" transform="translate(-707.035 27.058)"/><path class="p" d="M840.53,84.179c0,3.783,23.068-14.925,20.115-16.47S840.622,79.865,840.53,84.179Z" transform="translate(-754.784 -41.153)"/><path class="az" d="M859.01,191.07l-.6-1.13A9.813,9.813,0,0,1,859.01,191.07Z" transform="translate(-731.419 118.735)"/><path class="ba" d="M887,313.973c-11.972.323-61.822-109.78-49.849-118.453,0,0,14.879,69.088,33.033,86.966s29.988-29,26.666-49.365c-.323-2.053-.692-4.06-1.13-5.975a28.1,28.1,0,0,1,4.083,8.881C901.028,245.692,899,313.673,887,313.973Z" transform="translate(-761.604 126.026)"/><path class="p" d="M845.6,203.752c-1.822,2.976,2.814,21.084,5.352,20.761s3.068-9.9,1.8-12.964S846.02,203.083,845.6,203.752Z" transform="translate(-748.694 136.71)"/><path class="p" d="M848.378,214.049c-2.122,1.061.438,6.528,1.938,6.344S850.316,213.1,848.378,214.049Z" transform="translate(-745.585 150.127)"/><path class="p" d="M873.964,64.079c1.43,3,11.026-3.276,9.6-5.882S872.511,61.08,873.964,64.079Z" transform="translate(-711.288 -54.317)"/><path class="p" d="M806.19,155.633c0,1.822,9.619-.254,8.881-1.8S806.19,152.611,806.19,155.633Z" transform="translate(-799.659 70.367)"/><path class="bb" d="M819.384,111.008c-2.491-.83-3.645,34.21-1.615,34.6S823.283,112.346,819.384,111.008Z" transform="translate(-785.887 15.569)"/><path class="bc" d="M936.939,195.087s-8.12-10.4-19.192-11.3-14.833,2.307-16.586,10.127,15.2,35.178,35.57,55.363c8.4.3,10.427-10.081,11.326-16.724C947.781,226.828,945.22,208.212,936.939,195.087Z" transform="translate(-675.717 110.497)"/><path class="bd" d="M909.112,184.055s22.007,27.681,29.319,43.829c3.968,8.72,6.251,14.464,6.251,14.464s-4.614,13.841-14.141,2.907c-13.356-15.479-31.372-38.869-28.858-50.749C903.807,184.609,905.444,182.671,909.112,184.055Z" transform="translate(-675.179 110.525)"/><path class="be" d="M921.057,205.377s-2.145,15.409-11.257,18.131L906.57,186.9S918.081,200.787,921.057,205.377Z" transform="translate(-668.484 114.762)"/><path class="bf" d="M918.887,199.048c1.545,3.483,0,26.689-2.307,29.434s-8.42-1.407-10.242-6.021-10.311-29.734-1.384-38.362C904.862,184.1,912.428,184.584,918.887,199.048Z" transform="translate(-675.842 111.103)"/><path class="p" d="M908.121,192c1.038.138,2.561,7.981,1.776,9.458s-2.491,1.361-3.391-.392S906.46,191.84,908.121,192Z" transform="translate(-669.044 121.425)"/></g></g></svg>