<svg xmlns="http://www.w3.org/2000/svg" xmlns:xlink="http://www.w3.org/1999/xlink" width="135.24" height="186.83" viewBox="0 0 135.24 186.83">
  <defs>
    <clipPath id="clip-path">
      <path id="Path_42201" data-name="Path 42201" d="M0,0H135.24V111.2H102.163L82.29,129.574,68.155,111.2H26.349V186.83H0Z" transform="translate(936 2848)" fill="#fff" opacity="0.63"/>
    </clipPath>
    <linearGradient id="linear-gradient" x1="0.5" y1="1" x2="0.5" gradientUnits="objectBoundingBox">
      <stop offset="0" stop-color="#ffa486"/>
      <stop offset="1" stop-color="#ffb886"/>
    </linearGradient>
    <linearGradient id="linear-gradient-2" x1="0.5" y1="1" x2="0.5" gradientUnits="objectBoundingBox">
      <stop offset="0" stop-color="#262626"/>
      <stop offset="1" stop-color="#474747"/>
    </linearGradient>
    <linearGradient id="linear-gradient-3" x1="0.487" y1="0.998" x2="0.514" y2="0.004" gradientUnits="objectBoundingBox">
      <stop offset="0" stop-color="#ff7f66"/>
      <stop offset="1" stop-color="#ec887e"/>
    </linearGradient>
    <linearGradient id="linear-gradient-4" x1="0.5" y1="1" x2="0.5" y2="-0.002" gradientUnits="objectBoundingBox">
      <stop offset="0" stop-color="#d75c56"/>
      <stop offset="1" stop-color="#ac4c3d"/>
    </linearGradient>
    <linearGradient id="linear-gradient-5" x1="0.868" y1="0.69" x2="0.266" y2="0.685" gradientUnits="objectBoundingBox">
      <stop offset="0" stop-color="#303030"/>
      <stop offset="1" stop-color="#1e1e1e"/>
    </linearGradient>
    <linearGradient id="linear-gradient-6" x1="0.5" y1="1" x2="0.5" y2="0.001" xlink:href="#linear-gradient"/>
    <linearGradient id="linear-gradient-7" x1="0.5" y1="1" x2="0.5" y2="-0.002" gradientUnits="objectBoundingBox">
      <stop offset="0" stop-color="#f5957c"/>
      <stop offset="1" stop-color="#da7763"/>
    </linearGradient>
    <linearGradient id="linear-gradient-8" x1="0.5" y1="1.001" x2="0.5" y2="-0.001" gradientUnits="objectBoundingBox">
      <stop offset="0" stop-color="#5a2031"/>
      <stop offset="0.99" stop-color="#882231"/>
    </linearGradient>
    <linearGradient id="linear-gradient-9" x1="0.5" y1="1" x2="0.5" y2="0" xlink:href="#linear-gradient"/>
    <linearGradient id="linear-gradient-10" x1="0.5" y1="1.001" x2="0.5" gradientUnits="objectBoundingBox">
      <stop offset="0" stop-color="#ffb84e"/>
      <stop offset="1" stop-color="#f9cd9b"/>
    </linearGradient>
    <linearGradient id="linear-gradient-11" x1="0.5" y1="0.999" x2="0.5" y2="0" xlink:href="#linear-gradient-10"/>
    <linearGradient id="linear-gradient-12" x1="0.5" y1="1" x2="0.5" y2="0.001" xlink:href="#linear-gradient-10"/>
    <linearGradient id="linear-gradient-13" x1="0.499" y1="1" x2="0.499" gradientUnits="objectBoundingBox">
      <stop offset="0" stop-color="#202020"/>
      <stop offset="1" stop-color="#494949"/>
    </linearGradient>
    <linearGradient id="linear-gradient-14" x1="0.506" y1="1" x2="0.506" y2="0" xlink:href="#linear-gradient-8"/>
    <linearGradient id="linear-gradient-15" x1="0.5" y1="1" x2="0.5" y2="0" xlink:href="#linear-gradient-8"/>
    <linearGradient id="linear-gradient-16" x1="15.693" y1="89.85" x2="15.693" y2="88.563" gradientUnits="objectBoundingBox">
      <stop offset="0" stop-color="#ef686a"/>
      <stop offset="1" stop-color="#ec887e"/>
    </linearGradient>
    <linearGradient id="linear-gradient-17" x1="0.501" y1="0.999" x2="0.501" gradientUnits="objectBoundingBox">
      <stop offset="0" stop-color="#595e27"/>
      <stop offset="0.98" stop-color="#814227"/>
    </linearGradient>
    <linearGradient id="linear-gradient-18" x1="0.501" y1="0.999" x2="0.501" y2="0" xlink:href="#linear-gradient-17"/>
    <linearGradient id="linear-gradient-19" x1="1.003" y1="0.499" x2="0" y2="0.499" gradientUnits="objectBoundingBox">
      <stop offset="0" stop-color="#592c27"/>
      <stop offset="0.98" stop-color="#814227"/>
    </linearGradient>
    <linearGradient id="linear-gradient-20" x1="1" y1="0.499" x2="0" y2="0.499" xlink:href="#linear-gradient-19"/>
    <linearGradient id="linear-gradient-21" x1="0.493" y1="1" x2="0.493" y2="0.001" xlink:href="#linear-gradient-16"/>
    <linearGradient id="linear-gradient-22" x1="0.5" y1="1" x2="0.5" gradientUnits="objectBoundingBox">
      <stop offset="0" stop-color="#4a1818"/>
      <stop offset="1" stop-color="#64111e"/>
    </linearGradient>
    <linearGradient id="linear-gradient-23" x1="0.498" y1="1" x2="0.498" gradientUnits="objectBoundingBox">
      <stop offset="0.01" stop-color="#d1c279"/>
      <stop offset="1" stop-color="#c97ca1"/>
    </linearGradient>
    <linearGradient id="linear-gradient-25" x1="-89.282" y1="-5.73" x2="-89.266" y2="-6.649" xlink:href="#linear-gradient-3"/>
    <linearGradient id="linear-gradient-26" x1="0.5" y1="1" x2="0.5" gradientUnits="objectBoundingBox">
      <stop offset="0" stop-color="#cb7e3f"/>
      <stop offset="1" stop-color="#eaa76b"/>
    </linearGradient>
    <linearGradient id="linear-gradient-27" x1="0.5" y1="1" x2="0.5" gradientUnits="objectBoundingBox">
      <stop offset="0" stop-color="#e59b48"/>
      <stop offset="1" stop-color="#cb7e3f"/>
    </linearGradient>
    <linearGradient id="linear-gradient-28" x1="0.438" y1="0.054" x2="0.475" y2="0.987" gradientUnits="objectBoundingBox">
      <stop offset="0" stop-color="#efaf77"/>
      <stop offset="1" stop-color="#cc7f3f"/>
    </linearGradient>
    <linearGradient id="linear-gradient-29" x1="0.499" y1="0.999" x2="0.499" y2="-0.001" gradientUnits="objectBoundingBox">
      <stop offset="0" stop-color="#f6ece4"/>
      <stop offset="1" stop-color="#fff"/>
    </linearGradient>
    <linearGradient id="linear-gradient-31" x1="0.5" y1="1" x2="0.5" gradientUnits="objectBoundingBox">
      <stop offset="0" stop-color="#e59b46"/>
      <stop offset="1" stop-color="#eeb66f"/>
    </linearGradient>
    <linearGradient id="linear-gradient-32" x1="0.499" y1="1.002" x2="0.499" y2="0.001" xlink:href="#linear-gradient-3"/>
    <linearGradient id="linear-gradient-33" x1="0.5" y1="1" x2="0.5" y2="0" xlink:href="#linear-gradient-3"/>
    <linearGradient id="linear-gradient-34" x1="0.923" y1="0.637" x2="0.003" y2="0.037" gradientUnits="objectBoundingBox">
      <stop offset="0" stop-color="#ff5f6f"/>
      <stop offset="1" stop-color="#dd1649"/>
    </linearGradient>
    <linearGradient id="linear-gradient-35" x1="0.883" y1="2.788" x2="0.125" y2="-2.087" gradientUnits="objectBoundingBox">
      <stop offset="0" stop-color="#a13e45"/>
      <stop offset="1" stop-color="#d61c44"/>
    </linearGradient>
    <linearGradient id="linear-gradient-36" x1="1.012" y1="0.498" x2="0" y2="0.498" gradientUnits="objectBoundingBox">
      <stop offset="0" stop-color="#cb4d58"/>
      <stop offset="1" stop-color="#f13050"/>
    </linearGradient>
    <linearGradient id="linear-gradient-37" x1="1.012" y1="0.498" x2="0" y2="0.498" gradientUnits="objectBoundingBox">
      <stop offset="0" stop-color="#8f353c"/>
      <stop offset="1" stop-color="#bc1f41"/>
    </linearGradient>
    <linearGradient id="linear-gradient-38" x1="1.012" y1="0.498" x2="0" y2="0.498" gradientUnits="objectBoundingBox">
      <stop offset="0" stop-color="#8f353c"/>
      <stop offset="1" stop-color="#d61c44"/>
    </linearGradient>
  </defs>
  <g id="Mask_Group_83" data-name="Mask Group 83" transform="translate(-936 -2848)" clip-path="url(#clip-path)">
    <g id="Vector" transform="translate(936 2847.994)">
      <path id="Path_33936" data-name="Path 33936" d="M816.4,204.32s5.826,2.1,7.088,3.156.748,6.331.8,9.088,1.155,8.845.855,9.5-3.359-.049-4.117-1.806-.6-4.971,0-7.835c0,0-.651-2.515-2.262-2.864,0,0-1.155,7.884-.854,10.952a16.747,16.747,0,0,1,2.767,5.476,18.233,18.233,0,0,1,.35,6.981c-.1.6-1.612.806-1.612.806l-.845-1.709s-.66-.252-1.709-.7c0,0-1.408-.854-2.816-1.66,0,0-4.971-2.961-6.127-5.632s1.35-19.04,1.3-19.895a10.7,10.7,0,0,0-.4-2.01Z" transform="translate(-799.668 -52.983)" fill-rule="evenodd" fill="url(#linear-gradient)"/>
      <path id="Path_33937" data-name="Path 33937" d="M818.88,236.573s-3.088-7.369-3.689-8.845-.6-5.418-.6-5.418a27.532,27.532,0,0,0,0,5.894C814.986,230.087,818.88,236.573,818.88,236.573Z" transform="translate(-799.985 -53.506)" fill="#f78370" fill-rule="evenodd"/>
      <path id="Path_33938" data-name="Path 33938" d="M822.02,234.932a32.366,32.366,0,0,1-2.913-5.379A33.649,33.649,0,0,1,818,225.97s.437,5.059,2.913,8.36Z" transform="translate(-806.591 -53.612)" fill="#f78370" fill-rule="evenodd"/>
      <path id="Path_33939" data-name="Path 33939" d="M823.842,233.006a10.574,10.574,0,0,1-2.612-4.486,9.222,9.222,0,0,0,.923,3.126Z" transform="translate(-811.55 -53.686)" fill="#f78370" fill-rule="evenodd"/>
      <path id="Path_33940" data-name="Path 33940" d="M824.554,205.3s-1.3,6.243-4.855,8.525-5.7,1.34-5.7,1.34l.825-6.991L822,204.29Z" transform="translate(-805.242 -52.982)" fill="#f78370" fill-rule="evenodd"/>
      <path id="Path_33941" data-name="Path 33941" d="M747.65,353.714l14.069-.029,27.662-.058v-1.058l-26.507-3.816-8.6-1.243-6.156,2.8Z" transform="translate(-705.647 -57.144)" fill="#7e7e7e" fill-rule="evenodd"/>
      <path id="Path_33942" data-name="Path 33942" d="M747.65,350.029c3.311-.33,10.379,1.253,13.739,2.02l1.126.243c2.554.553,26.4,0,26.4,0s-1.883-2.961-3.884-3.5-4.855.262-11.253-2.835a26.124,26.124,0,0,1-6.622-4.534,18.15,18.15,0,0,1-2.622-3.01C759.991,336.6,749,340.99,749,340.99Z" transform="translate(-705.181 -56.867)" fill="#414141" fill-rule="evenodd"/>
      <path id="Path_33943" data-name="Path 33943" d="M770.07,353.438h14.059a10.23,10.23,0,0,1,.146-1.35,15.673,15.673,0,0,1,1.029-3.573,23.366,23.366,0,0,1,4.728-7.049,18.148,18.148,0,0,1-2.622-3.01c-4.544-1.816-15.535,2.573-15.535,2.573l-1.34,9.039Z" transform="translate(-728.067 -56.868)" fill-rule="evenodd" opacity="0.15"/>
      <path id="Path_33944" data-name="Path 33944" d="M790.248,356.573c7.486,2.777,21.516,1.185,22.254.718h0a4.57,4.57,0,0,0,1.107-2.282,1.411,1.411,0,0,0,.049-.233h0l5.088-.9c.33-1.748.466-2.563.466-2.563h-.185l-4.583.689-24.274,3.7Z" transform="translate(-776.761 -57.254)" fill="#7e7e7e" fill-rule="evenodd"/>
      <path id="Path_33945" data-name="Path 33945" d="M788.018,204.873,786.328,217.7,774.56,307.269l7.768,32.041.1.408c.223-.184.456-.359.7-.534,5.1-3.651,15.642-5.35,15.642-5.35a16.979,16.979,0,0,0,.971-4.437,1.091,1.091,0,0,0-.078-.33c-.4-.971-4.156-2.379-4.156-2.379a136.823,136.823,0,0,1,0-28.157c.757-7.874,2.039-20.5,3.262-34.09s2.253-28.05,2.583-39.595a273.662,273.662,0,0,0-1.67-40.459s-27.128-8.146-28.536-4.544-1.2,13.943-1.2,13.943C778.376,194.251,788.018,204.873,788.018,204.873Z" transform="translate(-739.393 -52.245)" fill-rule="evenodd" fill="url(#linear-gradient-2)"/>
      <path id="Path_33946" data-name="Path 33946" d="M782.979,90.811s1.651,13.719,2.253,17.8c0,0,5.224,12.816,12.059,14.273l3.214-.67-2.573-18.176L781.95,86.82Z" transform="translate(-750.074 -49.568)" fill-rule="evenodd" fill="url(#linear-gradient-3)"/>
      <path id="Path_33947" data-name="Path 33947" d="M799.744,107.374s-4.709,1.155-9.457-2.913-5.563-10.787-5.563-10.787l-.553-3.612.214-1.262,14.952,15.331Z" transform="translate(-751.469 -49.626)" fill-rule="evenodd" opacity="0.71" fill="url(#linear-gradient-4)"/>
      <path id="Path_33948" data-name="Path 33948" d="M801.212,186.485a29.054,29.054,0,0,1-7.34,3.573s-.3,6.03-.971,10.117a24.658,24.658,0,0,1-2.126,6.9s2.592-10.3,2.126-17.147l-2.661-.2-.971,15.234s.728-14.1,0-15.535c0,0-14.079-1.777-17.72-5.175l.184-2.272,29.2,2.534Z" transform="translate(-740.684 -52.334)" fill="#252525" fill-rule="evenodd" opacity="0.5"/>
      <path id="Path_33949" data-name="Path 33949" d="M771.73,302.835l6.408,37.43,2.66-.408.8-.126c5.1-3.651,15.642-5.35,15.642-5.35a16.969,16.969,0,0,0,.971-4.437c-6.039-.816-11.787,3.932-11.787,3.932,3.777-5.195,7.554-6.641,7.554-6.641a136.8,136.8,0,0,1,0-28.157c.747-7.835,2.029-20.458,3.253-34.051,0,0-6.525,4.039-8.962-5.136s0-37.449,0-37.449,1.233-6.428,3.175-9.845,5.1-13.5,5.1-13.5-3.622,4.049-5.884,6.36a8.99,8.99,0,0,1-4.292,2.68l-1.573,10.146Z" transform="translate(-737.854 -52.831)" fill-rule="evenodd" opacity="0.5" fill="url(#linear-gradient-5)"/>
      <path id="Path_33950" data-name="Path 33950" d="M774.333,85.961a38.536,38.536,0,0,0,3.437,7.35,22.105,22.105,0,0,0,5.408,6.049c4.418,3.35,8.971,5.088,11.651,3.612s7.234-8.3,7.768-13.117A22.6,22.6,0,0,0,802,81.883c-.136-.621-.262-1.253-.388-1.942-.078-.447-.165-.9-.223-1.379-.534-3.884.971-8.059.194-11.943a23.807,23.807,0,0,0-3.816-7.884c-11.273-3.175-18.127-.786-21.885,2.777a12.629,12.629,0,0,0-1.845,2.155h0a11.721,11.721,0,0,0-1.4,2.757C770.75,71.843,772.44,80.737,774.333,85.961Z" transform="translate(-742.447 -48.709)" fill-rule="evenodd" fill="url(#linear-gradient-6)"/>
      <path id="Path_33951" data-name="Path 33951" d="M775.263,85.964c1.874,5.224,4.428,10.049,8.845,13.4A27.351,27.351,0,0,1,778.7,84.8a11.322,11.322,0,0,1,1.35-6.059,24.42,24.42,0,0,0,11.108,1.787c.544-3.272,1.136-11.506,1.136-11.506-4.389-.262-10.175,2.913-10.175,2.913s.7-6.476,3.359-8.738,11.253-.8,11.253-.8c2.816,3.01,1.777,7.768,1.777,7.768-2.408,3.884-1.33,9.884-1.33,9.884a7.408,7.408,0,0,0,5.369,0c-.078-.447-.165-.9-.223-1.379-.534-3.884.971-8.059.194-11.943a23.812,23.812,0,0,0-3.816-7.884c-11.273-3.175-18.127-.786-21.885,2.777l-1.845,2.155h0a11.713,11.713,0,0,0-1.4,2.757C771.681,71.846,773.37,80.74,775.263,85.964Z" transform="translate(-743.378 -48.712)" fill-rule="evenodd" opacity="0.64" fill="url(#linear-gradient-7)"/>
      <path id="Path_33952" data-name="Path 33952" d="M767.2,66.946a1.919,1.919,0,0,1,1.33-1.272c.349,2.447,2.738,12.758,2.738,12.758l.427,1.68,2.524,1.146c1.738-2.068,3.68-8.651,3.622-9.583s-1.146-2.913-1.078-4.758a10.146,10.146,0,0,1,3.146-5.758c1.146-.738,4.962-.6,8.583-.6a17.749,17.749,0,0,0,5.748-.806,7.612,7.612,0,0,1,4.447,2.991l.117.155h0a3.681,3.681,0,0,0,.253-1.777c3.156,3.282,2.34,11.845,2.34,11.845,3.418-3.02,4.165-9.525,4.165-9.525,1.437.67,1.534,1.35,1.534,1.524a5.107,5.107,0,0,0-3.01-4.583c-3.224-1.612-5.36-2.913-5.36-2.913-2.02-4.088-7.234-6.175-7.554-6.292a14.477,14.477,0,0,1,8.321,6.311c-3.8-9.234-14.506-9.4-16-8.865s-2.321,4.292-4.194,7.369-6.088,5.826-9.108,7.234S767.2,66.946,767.2,66.946Z" transform="translate(-742.344 -48.453)" fill-rule="evenodd" fill="url(#linear-gradient-8)"/>
      <path id="Path_33953" data-name="Path 33953" d="M694.528,145.659c0,1.651,4.049,6.67,4.049,6.67s2.816-3.554,4.35-4.418,7.175-.971,11.8-.874,9.9,1.262,11.923,1.3c1.641,0,1.874-.534,1.874-.534s1.845.311,2.369-.466a1.7,1.7,0,0,0,0-1.68c.874,0,2.243-.068,2.185-.971a1.272,1.272,0,0,0-.709-1.107,14.252,14.252,0,0,0-1.262-.845h0a27.383,27.383,0,0,0-6.5-2.913,39.935,39.935,0,0,0-6.505-1.447h0c-1.223-.184-2.505-.359-4.185-.67a20.155,20.155,0,0,1-7.768-3.505h0l.971-1.709s2.816.806,4.631-.7,2.816-5.33,1.612-5.826-4.427,2.816-5.33,3.719-3.515.6-4.524,1.2-3.224,1.5-3.719,2.709-1.2,6.738-1.942,8.544S694.528,145.659,694.528,145.659Z" transform="translate(-597.764 -50.704)" fill-rule="evenodd" fill="url(#linear-gradient-9)"/>
      <path id="Path_33954" data-name="Path 33954" d="M729.18,126.78l4.156,20.166a13.87,13.87,0,0,1,1.165,1.942h0c1.942,3.757,4.767,10.933,7.078,17.079,2.816,7.505,7.768,9.845,7.768,9.845,10.855-5.292,17.691-21.234,17.691-21.234l1.854-3.505c-3.437-.563-4.9-5.641-4.9-5.641l-1.311-.243c-.67-1.214-1.408-.971-1.408-.971a7.873,7.873,0,0,0-.971,3.214c-1.6,2.146-8.3,4.69-8.3,4.69s0-1.34-.67-1.806-2.612,0-2.612,0c-4.088-5.9-5.894-18.089-5.894-18.089a65.3,65.3,0,0,0-1.767-12.8Z" transform="translate(-667.224 -50.516)" fill="url(#linear-gradient-10)"/>
      <path id="Path_33955" data-name="Path 33955" d="M757.88,123.459s7.69,11.972,15,22.953c1.689,2.544,3.35,5.02,4.855,7.292,0,0,3.311,13.71,4.068,21.545,0,0-.4,0-1.233,1.6v.058a11.114,11.114,0,0,0,1.213,2.563,30.859,30.859,0,0,0,4.952,2.282,40.157,40.157,0,0,0,13.486,2.544c10.758.1,11.253-2.01,11.253-2.01s2.719-2.223,2.816-3.321a8.824,8.824,0,0,0,0-1.806s6.331-32.458,4.418-45.722a25.634,25.634,0,0,1,6.34-12.36,28.02,28.02,0,0,0-11.069-4.855,96.123,96.123,0,0,1-13.943-4.418,1.8,1.8,0,0,1-.252-.107s.641,5.738.835,7.544-1.942,4.02-1.942,4.02-.068-7.039-2.689-9.243a54.638,54.638,0,0,1-5.029-2.554c-2.068-1.214-4.2-2.68-5.136-4.068l-4.068,4.3s-.117.117-.33.3a19.963,19.963,0,0,1-4.738,3.175S765.706,114.828,757.88,123.459Z" transform="translate(-751.248 -50.108)" fill="url(#linear-gradient-11)"/>
      <path id="Path_33956" data-name="Path 33956" d="M810.38,176.146a33.316,33.316,0,0,0,.573,3.631,132.19,132.19,0,0,0,7.36,22.089,26.883,26.883,0,0,1,1.621,3.971c4.107.854,7.175-3.262,7.175-3.262v-1.612s2.068-1.2,2.068-2.311-1.214-1.612-2.068-3.107-.592-13.331-.515-15.215a2.772,2.772,0,0,1,.058-.466c.32-1.806,2.01-4.039,1.874-5.02a7.151,7.151,0,0,0-.864-2.146c-.3-.544-.553-.971-.553-.971a67.616,67.616,0,0,1,3.592-21.361l.087-.252a49.747,49.747,0,0,1,2.418-5.981c-1.942-16.875-16.2-20.244-16.2-20.244-.806,2.757-1.311,18.632-.971,21.361a54.659,54.659,0,0,1-2.32,18.137,121.863,121.863,0,0,0-3.253,12.35v.233A.3.3,0,0,1,810.38,176.146Z" transform="translate(-810.38 -50.646)" fill="url(#linear-gradient-12)"/>
      <path id="Path_33957" data-name="Path 33957" d="M786.886,329.191a3.148,3.148,0,0,0-.117,1.359,46.979,46.979,0,0,0,1.194,6.709l3.107-3.02c6.321-.252,15.069,5.884,15.069,5.884s.359,1.855.456,1.641,2.855-5.923,2.457-7.127-3.962-1.942-3.962-1.942-1.165-14.117-1.718-24.769.553-32.148,1.563-37.177,2.214-10.428,2.214-10.428c.243-1.291.485-2.748.719-4.33.544-3.767,1.049-8.272,1.476-13.011h0c.058-.573.107-1.155.165-1.728,1.476-16.826,2.253-35.925,2.253-35.925-4.962-11.651-18.079-11.088-18.079-11.088,0,2.1-.9,16.389-1.942,31.07a.6.6,0,0,1,0,.087v.223l-.233,3.156c0,.417-.068.874-.1,1.34s-.058.8-.087,1.214c-.971,12.8-2.01,24.623-2.612,27.429-1.408,6.428-4.767,20.671-4.767,20.671-1.049,14.011,4.389,45.7,4.554,46.712h0C787.556,326.249,786.886,329.191,786.886,329.191Z" transform="translate(-763.137 -52.69)" fill-rule="evenodd" fill="url(#linear-gradient-13)"/>
      <path id="Path_33958" data-name="Path 33958" d="M789.433,355.3s9.418,2.01,23.031,0a4.958,4.958,0,0,1,.369-.913h0l.136-.223a6.225,6.225,0,0,1,1.262-1.592,9.281,9.281,0,0,1,4.01-1.631h.184s1.136-3.99.534-6.573c0,0-8.535-7.1-15.069-5.884a5.377,5.377,0,0,0-2.233,1.7s-.971,1.5-2.33,3.33a21.086,21.086,0,0,1-5.991,5.612,13.9,13.9,0,0,0-3.214,2.107C789.21,352.2,789.433,355.3,789.433,355.3Z" transform="translate(-775.947 -56.878)" fill="#414141" fill-rule="evenodd"/>
      <path id="Path_33959" data-name="Path 33959" d="M778.8,72.117a2.078,2.078,0,0,0-1.942-.913c-1.35.1-3.214,1.942-3.884,3.466,0,0,.971-3.971,2.913-5.534,1.622-1.291,2.622.563,2.913,1.369A13.522,13.522,0,0,1,778.8,72.117Z" transform="translate(-719.678 -49.041)" fill-rule="evenodd" fill="url(#linear-gradient-14)"/>
      <path id="Path_33960" data-name="Path 33960" d="M794.293,69a5.435,5.435,0,0,1-1.66,2.262s-6.117-.476-9.272,1.5C783.36,72.767,786.758,69.058,794.293,69Z" transform="translate(-745.231 -49.05)" fill-rule="evenodd" fill="url(#linear-gradient-15)"/>
      <path id="Path_33961" data-name="Path 33961" d="M773.447,79.66a3.252,3.252,0,0,0,1.942.806,4.853,4.853,0,0,0,1.126,0,6.8,6.8,0,0,0,1.165-.2l.427-.117a6.709,6.709,0,0,0,.185-1.087,7.4,7.4,0,0,0-.165-2.524,5.75,5.75,0,0,0-.437-1.2,4.155,4.155,0,0,0-1.359.223C773.8,76.427,773.447,79.66,773.447,79.66Z" transform="translate(-719.647 -49.234)" fill="#fff4c9" fill-rule="evenodd"/>
      <path id="Path_33962" data-name="Path 33962" d="M785.613,78.893a8.3,8.3,0,0,0,3.117,1.437,8.213,8.213,0,0,0,1.3.184,8.049,8.049,0,0,0,2.388-.223l.136-.049c.5-.651.65-4.059-.864-4.641a2.908,2.908,0,0,0-.466-.146C787.8,74.553,785.613,78.893,785.613,78.893Z" transform="translate(-746.028 -49.234)" fill="#fff4c9" fill-rule="evenodd"/>
      <path id="Path_33963" data-name="Path 33963" d="M783.553,86.59s-4.767-.971-7.233.33a8.224,8.224,0,0,0,3.4,1.728S782.456,88.58,783.553,86.59Z" transform="translate(-727.656 -49.551)" fill-rule="evenodd" fill="url(#linear-gradient-16)"/>
      <path id="Path_33964" data-name="Path 33964" d="M783.7,88.356s-1.029-1.757-2.311-1.418A7.535,7.535,0,0,0,783.7,88.356Z" transform="translate(-732.726 -49.57)" fill="#b85652" fill-rule="evenodd"/>
      <path id="Path_33965" data-name="Path 33965" d="M776.4,86.843c-.252.078.126-1.942.719-2.389a4.476,4.476,0,0,1,4.049-.612,4.855,4.855,0,0,1,2.466,2.67S778.895,85.6,776.4,86.843Z" transform="translate(-727.736 -49.475)" fill="#ff9d8a" fill-rule="evenodd"/>
      <path id="Path_33966" data-name="Path 33966" d="M784.3,84.88a2.981,2.981,0,0,0-.252,2S782.686,86.385,784.3,84.88Z" transform="translate(-735.382 -49.512)" fill="#dd7a68" fill-rule="evenodd"/>
      <path id="Path_33967" data-name="Path 33967" d="M785.794,80.324a8.218,8.218,0,0,0,1.3.184,8.049,8.049,0,0,0,2.389-.223l.136-.049c.5-.651.65-4.059-.864-4.641a2.913,2.913,0,0,0-.466-.146c-1.223-.058-2.388,1.253-2.631,3.029a4.283,4.283,0,0,0,.136,1.845Z" transform="translate(-743.092 -49.238)" fill-rule="evenodd" fill="url(#linear-gradient-17)"/>
      <path id="Path_33968" data-name="Path 33968" d="M786.086,80.543a8.049,8.049,0,0,0,2.388-.223,3.221,3.221,0,0,0,.418-1.194c.165-1.253-.408-2.359-1.272-2.486s-1.719.806-1.942,2.049a2.709,2.709,0,0,0,.408,1.855Z" transform="translate(-742.083 -49.272)" fill="#381e22" fill-rule="evenodd"/>
      <path id="Path_33969" data-name="Path 33969" d="M773.631,80.466a4.852,4.852,0,0,0,1.126,0,6.8,6.8,0,0,0,1.165-.2l.427-.117a6.709,6.709,0,0,0,.184-1.087,7.4,7.4,0,0,0-.165-2.524,5.735,5.735,0,0,0-.437-1.2,4.156,4.156,0,0,0-1.359.223,4.99,4.99,0,0,0-1.068,2.486A5.193,5.193,0,0,0,773.631,80.466Z" transform="translate(-717.86 -49.234)" fill-rule="evenodd" fill="url(#linear-gradient-18)"/>
      <path id="Path_33970" data-name="Path 33970" d="M773.959,80.49a6.8,6.8,0,0,0,1.165-.2,3.049,3.049,0,0,0,.612-1.2,7.4,7.4,0,0,0-.165-2.524.8.8,0,0,0-.524-.4c-.651-.1-1.34.825-1.544,2.058A2.641,2.641,0,0,0,773.959,80.49Z" transform="translate(-717.062 -49.258)" fill="#381e22" fill-rule="evenodd"/>
      <path id="Path_33971" data-name="Path 33971" d="M778.042,76.1a7.711,7.711,0,0,0,.107-1.612c-.563-.058-3.505.5-4.515,4.282a5.768,5.768,0,0,1,4.088-3.457Z" transform="translate(-719.65 -49.21)" fill-rule="evenodd" fill="url(#linear-gradient-19)"/>
      <path id="Path_33972" data-name="Path 33972" d="M792.5,77.907s.214-2.282-.563-3.058a6.292,6.292,0,0,0-6.321,3.389,6.3,6.3,0,0,1,6-2.408A4.454,4.454,0,0,1,792.5,77.907Z" transform="translate(-745.649 -49.219)" fill-rule="evenodd" fill="url(#linear-gradient-20)"/>
      <path id="Path_33973" data-name="Path 33973" d="M789.61,78.427a.447.447,0,1,0,.437-.437A.446.446,0,0,0,789.61,78.427Z" transform="translate(-747.51 -49.312)" fill="#fff" fill-rule="evenodd"/>
      <path id="Path_33974" data-name="Path 33974" d="M776.21,78.779a.447.447,0,1,0,.442-.381.447.447,0,0,0-.442.381Z" transform="translate(-721.09 -49.324)" fill="#fff" fill-rule="evenodd"/>
      <path id="Path_33975" data-name="Path 33975" d="M788.04,91.653a11.39,11.39,0,0,1-4.156,0c-2.476-.418-6.7-2.913-6.7-2.913a.738.738,0,0,0-.3.67c.068.4,2.311,5.69,7.34,6.36,0,0,1.2-.3,3.01-3.282Z" transform="translate(-732.686 -49.624)" fill="#fff4c9" fill-rule="evenodd"/>
      <path id="Path_33976" data-name="Path 33976" d="M788.172,91.653a11.923,11.923,0,0,1-4.69-.447,36.139,36.139,0,0,1-6.165-2.447s4.68,3.447,9.525,3.311a10.68,10.68,0,0,1-2.67,3.35s-3.427-.6-4.923-2.68a6.039,6.039,0,0,1-1.369-3.612l-.544-.369-.456.437s2.233,6.088,7.5,6.593c0,0,1.874-.631,3.233-3.515Z" transform="translate(-732.819 -49.625)" fill="#b85652" fill-rule="evenodd"/>
      <path id="Path_33977" data-name="Path 33977" d="M789.723,88.906a6.8,6.8,0,0,0-2.913,1.4s.728-2.039,1.67-2.175C788.451,88.129,789.3,87.857,789.723,88.906Z" transform="translate(-744.011 -49.605)" fill-rule="evenodd" fill="url(#linear-gradient-21)"/>
      <path id="Path_33978" data-name="Path 33978" d="M767.18,57.71a9.27,9.27,0,0,1,.33,3.68c3.156,3.282,2.34,11.845,2.34,11.845,3.418-3.02,4.165-9.525,4.165-9.525,1.437.67,1.534,1.35,1.534,1.524a5.107,5.107,0,0,0-3.01-4.583C769.316,59.04,767.18,57.71,767.18,57.71Z" transform="translate(-710.778 -48.722)" fill-rule="evenodd" fill="url(#linear-gradient-22)"/>
      <path id="Path_33979" data-name="Path 33979" d="M775.691,61.5c-.2,1.359-.243,1.7-.253,1.777A3.679,3.679,0,0,0,775.691,61.5Z" transform="translate(-718.96 -48.832)" fill-rule="evenodd" fill="url(#linear-gradient-23)"/>
      <path id="Path_33980" data-name="Path 33980" d="M775.85,65.84c.35,2.447,2.738,12.758,2.738,12.758l.427,1.68,2.524,1.146c1.738-2.068,3.68-8.651,3.622-9.583s-1.146-2.913-1.078-4.758a10.146,10.146,0,0,1,3.146-5.758c1.146-.738,4.962-.6,8.583-.6a17.748,17.748,0,0,0,5.748-.806,7.613,7.613,0,0,1,4.447,2.99c-.719-1.029-4.855-6.612-9.476-8.544l1.243,1.6c-.233-.184-4.185-3.175-6.952-2.806s-3.991,2.913-5.534,7.564-3.631,7.1-6.272,7.515C776.53,68.636,775.918,66.141,775.85,65.84Z" transform="translate(-749.654 -48.589)" fill-rule="evenodd" fill="url(#linear-gradient-22)"/>
      <path id="Path_33981" data-name="Path 33981" d="M808.582,81.661a13.166,13.166,0,0,0-6.35-2.3s-2.4,1.942-2.223,6.214,6.855,7.233,8.049,6.748,2.02-3.185,2.02-3.185S810.145,82.593,808.582,81.661Z" transform="translate(-777.172 -49.351)" fill-rule="evenodd" fill="url(#linear-gradient-25)"/>
      <path id="Path_33982" data-name="Path 33982" d="M808.436,84.733s-1.845-2.767-6.8-2.554a6.9,6.9,0,0,0-.738,3.884,4.71,4.71,0,0,0,2.223,3.961,5.826,5.826,0,0,1-1.6-4.253l.233-2.427a6.058,6.058,0,0,1,4.418,1.253,4.408,4.408,0,0,1,2.117,3.787A4.681,4.681,0,0,0,808.436,84.733Z" transform="translate(-776.706 -49.433)" fill="#dd6668" fill-rule="evenodd"/>
      <path id="Path_33983" data-name="Path 33983" d="M802.4,83.11a7.581,7.581,0,0,0,.456,3.262,2.408,2.408,0,0,0,2.835,1.534s-1.942.447-2.2-1.408.835-2.418.835-2.418Z" transform="translate(-775.101 -49.46)" fill="#dd6668" fill-rule="evenodd"/>
      <path id="Path_33984" data-name="Path 33984" d="M729.18,149.106h0c1.942,3.758,4.767,10.933,7.078,17.079,2.816,7.505,7.768,9.845,7.768,9.845,10.855-5.292,17.69-21.234,17.69-21.234l1.854-3.505c-3.437-.563-4.9-5.641-4.9-5.641l-1.311-.243c-.67-1.214-1.408-.971-1.408-.971-.806,4.088,2.719,9.836,2.719,9.836-3.622,6.884-14.953,10.758-14.953,10.758-.175-6.379,2.991-12.69,2.991-12.69l-.67-1.806c-2.175,1.942-4.952,7.874-4.952,7.874a21.183,21.183,0,0,1,2.34-7.865,62.2,62.2,0,0,1-6.165,3.728,30.1,30.1,0,0,1-2.806-6.428c-1.612-4.651-3.437-15.739-3.437-15.739l1.825-6.175c-1.2.854-3.418,6.078-3.418,6.078C730.306,137.814,729.219,148.737,729.18,149.106Z" transform="translate(-661.904 -50.705)" fill-rule="evenodd" opacity="0.5" fill="url(#linear-gradient-26)"/>
      <path id="Path_33985" data-name="Path 33985" d="M821.756,172.541a67.62,67.62,0,0,1,3.593-21.361,109.826,109.826,0,0,0-4.913,21.458s-3.826,3.486-7.476,4.088c0,0,6.272.592,9.35-3.282C822.009,172.948,821.756,172.541,821.756,172.541Z" transform="translate(-805.027 -51.439)" fill="#e3a05a" fill-rule="evenodd" opacity="0.5" style="mix-blend-mode: multiply;isolation: isolate"/>
      <path id="Path_33986" data-name="Path 33986" d="M814.53,181.45a132.171,132.171,0,0,0,7.36,22.089,26.871,26.871,0,0,1,1.622,3.971c4.107.854,7.175-3.262,7.175-3.262v-1.612s2.068-1.2,2.068-2.311-1.214-1.612-2.068-3.107-.592-13.331-.514-15.215a2.766,2.766,0,0,1,.058-.466c-2.185,2.651-4.855,5.437-7.03,6.5C819.773,189.752,816.006,185.275,814.53,181.45Z" transform="translate(-813.957 -52.318)" fill-rule="evenodd" opacity="0.5" fill="url(#linear-gradient-27)"/>
      <path id="Path_33990" data-name="Path 33990" d="M764.55,146.5l3.884-7.03V143l8.835,6.8c1.437-.233,3.33-.524,5.884-.913,2.913-.437,6.874-.748,10.884-.971a44.276,44.276,0,0,0-.155-7.768c-.466-2.738-2.913-12.049-2.913-12.049s-7.243-1.272-12.525-5.564-5.243-12.4-5.243-12.4l9.535-.534a54.642,54.642,0,0,0,5.029,2.554c2.622,2.2,2.69,9.243,2.69,9.243s2.117-2.214,1.942-4.02-.835-7.544-.835-7.544a1.808,1.808,0,0,0,.252.107,14.448,14.448,0,0,1,3.758,11.01,29.374,29.374,0,0,1-3.107,5.932s2.486,13.671,2.554,16.885c0,1.2-.048,2.651-.146,4.136,7.767-.417,15.37-.515,15.37-.515l-.1,2.4s-2.573-.155-14.38,0h-.971c-.116,1.864-.233,3.69-.194,5.156.058,3.156.971,15.817.971,15.817s7.146-2.175,10.6-6.8a34.953,34.953,0,0,1-10.622,9.573s-.534,6.971-.971,7.971a9.776,9.776,0,0,1-1.34,2.146s9.913-2.544,12.8-4.554c-.1,1.1-2.816,3.321-2.816,3.321s-.5,2.107-11.253,2.01a40.054,40.054,0,0,1-13.506-2.592h-.117l-.971-.379-.233-.1-.748-.311-.291-.136-.553-.252-.33-.155-.388-.194-.32-.165-.253-.126-.262-.146-.155-.087-.2-.117h-.087a11.112,11.112,0,0,1-1.214-2.563v-.058c.835-1.6,1.233-1.6,1.233-1.6-.757-7.836-4.068-21.545-4.068-21.545C767.9,151.515,766.24,149.04,764.55,146.5Zm17.186,3.631-3.884,1.728s-.971,19.632,1.2,23.71h0a14.206,14.206,0,0,0,5.486,0,52.649,52.649,0,0,0,9.243-3.01s-.2-12.457,0-18.448c.049-1.486.107-2.913.155-4.272-4.457.029-8.719.165-12.2.291Zm9.806,32.944s2.156-1.408,2.35-3.02.33-4.855.33-4.855a29.846,29.846,0,0,1-10.243,1.738,19.05,19.05,0,0,1-5.1-.971l-2.126,3.437A43.206,43.206,0,0,0,791.542,183.071Z" transform="translate(-742.918 -50.23)" fill-rule="evenodd" opacity="0.72" fill="url(#linear-gradient-28)"/>
      <path id="Path_33991" data-name="Path 33991" d="M802.192,118.959s-.5-5.02-3.01-6.282c0,0-3.078,2.825-4.632,10.68,0,0-7.6-5.709-9.476-13.428,0,0,2.524-5.826,4.039-7.379a10.412,10.412,0,0,0,.641,2.777c.456.971,6.729,5.078,10.369,6.321a11.865,11.865,0,0,1,2.068,7.311Z" transform="translate(-754.81 -50.025)" fill="url(#linear-gradient-29)"/>
      <path id="Path_33992" data-name="Path 33992" d="M780.925,117.907l-1.379-12.127a13.594,13.594,0,0,1,4.214,6.059,31.665,31.665,0,0,1,.35,8.971s-.32-6.68-2.913-8.836C781.216,111.975,781.206,114.586,780.925,117.907Z" transform="translate(-731.514 -50.119)" fill="url(#linear-gradient-29)"/>
      <path id="Path_33993" data-name="Path 33993" d="M786.227,241.54s0,1.058-.1,2.777c.058-.573.107-1.155.165-1.728Z" transform="translate(-739.923 -54.065)" fill="#604760" fill-rule="evenodd" opacity="0.5"/>
      <path id="Path_33994" data-name="Path 33994" d="M786.559,334.63a46.962,46.962,0,0,0,1.194,6.709l3.107-3.02c6.321-.252,15.069,5.884,15.069,5.884s.359,1.854.456,1.641,2.855-5.923,2.457-7.127-3.962-1.942-3.962-1.942,1.651.786,0,3.291C804.929,340.047,793.278,334.367,786.559,334.63Z" transform="translate(-762.927 -56.769)" fill="#171717" fill-rule="evenodd" opacity="0.5"/>
      <path id="Path_33995" data-name="Path 33995" d="M792.525,327.23h0l16.632,6.525s-1.165-14.117-1.719-24.769.554-32.148,1.563-37.177,2.214-10.428,2.214-10.428c.243-1.291.485-2.748.719-4.33-.9,4.437-2.3,8.593-4.486,10.544,0,0-10.68.408-12.292-6.8-1.136-5.039-.379-19.982.185-28.439-.971,12.8-2.01,24.623-2.612,27.429-1.408,6.428-4.767,20.671-4.767,20.671C786.923,294.529,792.35,326.192,792.525,327.23Z" transform="translate(-767.213 -53.798)" fill="#2c2c2c" fill-rule="evenodd" opacity="0.5"/>
      <path id="Path_33996" data-name="Path 33996" d="M797.107,355.11A16.7,16.7,0,0,1,796,357.392,4.572,4.572,0,0,0,797.107,355.11Z" transform="translate(-760.318 -57.365)" fill="#604760" fill-rule="evenodd" opacity="0.5"/>
      <path id="Path_33997" data-name="Path 33997" d="M789.419,343.455c5.971-.971,13.982,2.33,14.409,5.525a8.8,8.8,0,0,1-.078,2.622,15.529,15.529,0,0,1-.689,2.534.525.525,0,0,1-.1.214l5.088-.9c.33-1.748.466-2.563.466-2.563s1.136-3.991.534-6.573c0,0-8.534-7.1-15.069-5.884a5.379,5.379,0,0,0-2.233,1.7S790.827,341.63,789.419,343.455Z" transform="translate(-766.048 -56.876)" fill-rule="evenodd" opacity="0.15"/>
      <path id="Path_33998" data-name="Path 33998" d="M822.3,144.163s-6.156,11.03-12.525,16.632c0,0,9.137-15.341,11.176-21.2Z" transform="translate(-798.896 -51.102)" fill-rule="evenodd" fill="url(#linear-gradient-31)"/>
      <path id="Path_33999" data-name="Path 33999" d="M775.88,215.684s7.253-11.341,8.195-13.9c0,0-3.884,5.389-7.768,6.437Z" transform="translate(-727.75 -52.909)" fill="#252525" fill-rule="evenodd" opacity="0.5"/>
      <path id="Path_34000" data-name="Path 34000" d="M696.55,141.188s4.088-1.6,7.505,0a77.929,77.929,0,0,1,7.768,4.476l3.146.408s5.826-.194,7.7,1.942c0-.1-.379-.913-2.233-1.689s-5.826-.845-5.826-.845a2.71,2.71,0,0,1-.466-1.34,18.448,18.448,0,0,1,10.981,1.728c-.233-.146-4.107-2.563-10.981-2.5a2.525,2.525,0,0,1-.806-2.146,39.965,39.965,0,0,1,11.933,1.738c-.689-.262-6.8-2.554-11.962-2.146a6.475,6.475,0,0,1-.971-2.2h0c-1.223-.184-2.505-.359-4.185-.67a20.157,20.157,0,0,1-7.767-3.505h0a15.175,15.175,0,0,1-1.573,4.185C697.89,139.78,696.55,141.188,696.55,141.188Z" transform="translate(-591.922 -50.952)" fill-rule="evenodd" fill="url(#linear-gradient-32)"/>
      <path id="Path_34001" data-name="Path 34001" d="M734.043,150.386a9.069,9.069,0,0,1-6.253-4.136,6.893,6.893,0,0,0,4.9,5.641Z" transform="translate(-631.026 -51.295)" fill-rule="evenodd" fill="url(#linear-gradient-33)"/>
      <path id="Path_34002" data-name="Path 34002" d="M772.31,92.121a5.427,5.427,0,0,1-.5,1.942,23.694,23.694,0,0,0,3.1,4c.233.243.476.485.728.719.5.466,1.029.9,1.583,1.33,4.418,3.35,8.971,5.088,11.651,3.612s7.234-8.3,7.768-13.117a22.6,22.6,0,0,0-.592-7.971,10.516,10.516,0,0,1-5.311.311,4.23,4.23,0,0,1-.553-.175h0c-2.224-.835-3.641-.864-5.544.087-2.748,1.369-8.437,1.369-12.69.291h-.117l.088.252a13.6,13.6,0,0,1,.592,3.622v3.068a5.205,5.205,0,0,1-.068,1.039A5.051,5.051,0,0,0,772.31,92.121Z" transform="translate(-736.492 -49.432)" fill="url(#linear-gradient-34)"/>
      <path id="Path_34003" data-name="Path 34003" d="M777,82.76a5.339,5.339,0,0,0,1.544,1.534,6.1,6.1,0,0,1-.971-1.359A3.932,3.932,0,0,1,777,82.76Z" transform="translate(-723.307 -49.45)" fill="#d1354f"/>
      <g id="Group_9483" data-name="Group 9483" transform="translate(35.323 32.703)">
        <path id="Path_34004" data-name="Path 34004" d="M772.55,83.082a20.545,20.545,0,0,0,4.6,1.039c.787.1,1.583.136,2.369.175a13.162,13.162,0,0,0,2.389-.107,14.449,14.449,0,0,0,2.379-.447,7.337,7.337,0,0,0,1.165-.437,9.2,9.2,0,0,1,1.029-.447,4.856,4.856,0,0,1,2.107-.282,11.013,11.013,0,0,1,2.165.485h.058a6.868,6.868,0,0,0,1.515.3,7.429,7.429,0,0,0,1.544,0,14.9,14.9,0,0,0,2.913-.738,10.516,10.516,0,0,1-5.311.311,4.215,4.215,0,0,1-.553-.175h0c-2.224-.835-3.641-.864-5.544.087C782.58,84.2,776.812,84.189,772.55,83.082Z" transform="translate(-772.55 -82.135)" fill="url(#linear-gradient-35)"/>
      </g>
      <path id="Path_34005" data-name="Path 34005" d="M783.553,86.59s-4.767-.971-7.233.33a8.224,8.224,0,0,0,3.4,1.728S782.456,88.58,783.553,86.59Z" transform="translate(-727.656 -49.551)" fill-rule="evenodd" fill="url(#linear-gradient-36)"/>
      <path id="Path_34006" data-name="Path 34006" d="M799.914,94.248a41.345,41.345,0,0,1-2.544-4.408l.126-.34c.631,1.272,2.554,4.5,2.554,4.5Z" transform="translate(-764.591 -49.646)" fill="#a13e45" fill-rule="evenodd"/>
      <path id="Path_34007" data-name="Path 34007" d="M801.059,83.075s-1.942-.621-3.689-1.155l.252.34c1.321.534,3.573,1.214,3.573,1.214Z" transform="translate(-765.737 -49.426)" fill="#a13e45" fill-rule="evenodd"/>
      <path id="Path_34008" data-name="Path 34008" d="M786.1,92.358h0v-.709h0c0-.427.087-.884.107-1.359.107.466.243.971.388,1.427a15.97,15.97,0,0,0,4.35,2.641,19.736,19.736,0,0,0,3.088.971,22.5,22.5,0,0,0,3.224.515,23.3,23.3,0,0,1-3.272-.282,18.447,18.447,0,0,1-6.263-2.107l-.689-.408a24.987,24.987,0,0,0,3.884,7.282c-.554-.427-1.088-.864-1.583-1.33-.252-.233-.5-.476-.728-.718a23.7,23.7,0,0,1-3.1-4,5.5,5.5,0,0,0,.592-1.922Z" transform="translate(-750.284 -49.669)" opacity="0.6" fill="url(#linear-gradient-37)"/>
      <g id="Group_9484" data-name="Group 9484" transform="translate(36.002 37.524)" opacity="0.6" style="isolation: isolate">
        <path id="Path_34009" data-name="Path 34009" d="M789.41,87.1v1.039c.233.126.476.233.728.35a15.131,15.131,0,0,0,2.117.728c.709.194,1.437.32,2.165.447a20.63,20.63,0,0,0,2.175.223q-1.078-.184-2.126-.466a19.013,19.013,0,0,1-2.068-.67,14.177,14.177,0,0,1-1.942-.913A10.231,10.231,0,0,1,789.41,87.1Z" transform="translate(-789.41 -87.1)" fill="url(#linear-gradient-38)"/>
      </g>
      <g id="Path_34047" data-name="Path 34047" transform="translate(36.316 83.89) rotate(8)" fill="none" opacity="0.58">
        <path d="M4.862,0,.1,1.085a.1.1,0,0,0-.1.1L1.495,6.1a.1.1,0,0,0,.1.1l4.817-.986a.1.1,0,0,0,.1-.1L5.733,2.731,3.7,3.217l-.21-.729L5.519,2,4.965.1A.1.1,0,0,0,4.862,0Z" stroke="none"/>
        <path d="M 4.861862182617188 -1.430511474609375e-06 L 0.1025819778442383 1.08452844619751 C 0.0467219352722168 1.08452844619751 2.384185791015625e-06 1.13023853302002 2.384185791015625e-06 1.187118530273438 L 1.494542121887207 6.098328590393066 C 1.494542121887207 6.155208587646484 1.541262149810791 6.200918197631836 1.598142147064209 6.200918197631836 L 6.415382385253906 5.21492862701416 C 6.472262382507324 5.21492862701416 6.51898193359375 5.168208122253418 6.51898193359375 5.112338542938232 L 5.732851982116699 2.730818271636963 L 3.695862054824829 3.217328310012817 L 3.48536205291748 2.488698482513428 L 5.519311904907227 2.002188205718994 L 4.965462207794189 0.1035985946655273 C 4.965462207794189 0.04671859741210938 4.918742179870605 -1.430511474609375e-06 4.861862182617188 -1.430511474609375e-06 M 4.636872291564941 -2.000001430511475 L 4.861862182617188 -2.000001430511475 C 5.864694595336914 -2.000001430511475 6.705892086029053 -1.294577121734619 6.915352344512939 -0.3539261817932129 L 7.634554862976074 2.111480712890625 L 8.51898193359375 4.790778160095215 L 8.51898193359375 5.112338542938232 C 8.51898193359375 6.161248207092285 7.746515274047852 7.033240795135498 6.740355014801025 7.189877986907959 L 1.800722122192383 8.200918197631836 L 1.598142147064209 8.200918197631836 C 0.602318286895752 8.200918197631836 -0.2341213226318359 7.505657196044922 -0.4508628845214844 6.5753173828125 L -1.999997615814209 1.484698295593262 L -1.999997615814209 1.187118530273438 C -1.999997615814209 0.1509456634521484 -1.246503353118896 -0.7125883102416992 -0.258725643157959 -0.8844075202941895 L 4.636872291564941 -2.000001430511475 Z" stroke="none" fill="#fff"/>
      </g>
    </g>
  </g>
</svg>
