<svg xmlns="http://www.w3.org/2000/svg" xmlns:xlink="http://www.w3.org/1999/xlink" width="343.182" height="763.187" viewBox="0 0 343.182 763.187"><defs><style>.a,.aa,.ab,.ac,.ad,.ae,.af,.ag,.ah,.ai,.aj,.ak,.al,.am,.an,.ap,.aq,.ar,.as,.at,.au,.ay,.az,.b,.c,.d,.e,.f,.g,.h,.i,.j,.k,.l,.m,.n,.r,.s,.t,.u,.v,.w,.x,.y,.z{fill-rule:evenodd;}.a{fill:url(#a);}.b{fill:#f78370;}.c{fill:#7e7e7e;}.d{fill:#414141;}.e{opacity:0.15;}.f{fill:url(#b);}.g{fill:url(#c);}.h{opacity:0.71;fill:url(#d);}.i{fill:#252525;}.ak,.al,.am,.ap,.aq,.ar,.i,.j{opacity:0.5;}.j{fill:url(#e);}.k{fill:url(#f);}.l{opacity:0.64;fill:url(#g);}.m{fill:url(#h);}.n{fill:url(#i);}.o{fill:url(#j);}.p{fill:url(#k);}.q{fill:url(#l);}.r{fill:url(#m);}.s{fill:url(#n);}.t{fill:url(#o);}.u{fill:#fff4c9;}.v{fill:url(#p);}.w{fill:#b85652;}.x{fill:#ff9d8a;}.y{fill:#dd7a68;}.z{fill:url(#q);}.aa{fill:#381e22;}.ab{fill:url(#r);}.ac{fill:url(#s);}.ad{fill:url(#t);}.ae{fill:#fff;}.af{fill:url(#u);}.ag{fill:url(#v);}.ah{fill:url(#w);}.ai{fill:url(#y);}.aj{fill:#dd6668;}.ak{fill:url(#z);}.al{fill:#e3a05a;mix-blend-mode:multiply;}.al,.bb{isolation:isolate;}.am{fill:url(#aa);}.an{opacity:0.72;fill:url(#ab);}.ao{fill:url(#ac);}.ap{fill:#604760;}.aq{fill:#171717;}.ar{fill:#2c2c2c;}.as{fill:url(#ae);}.at{fill:url(#af);}.au{fill:url(#ag);}.av{fill:url(#ah);}.aw{fill:#d1354f;}.ax{fill:url(#ai);}.ay{fill:url(#aj);}.az{fill:#a13e45;}.ba,.bb{opacity:0.6;}.ba{fill:url(#ak);}.bc{fill:url(#al);}.bd{fill:none;opacity:0.58;}.be,.bf{stroke:none;}.bf{fill:#fff;}</style><linearGradient id="a" x1="0.5" y1="1" x2="0.5" gradientUnits="objectBoundingBox"><stop offset="0" stop-color="#ffa486"/><stop offset="1" stop-color="#ffb886"/></linearGradient><linearGradient id="b" x1="0.5" y1="1" x2="0.5" gradientUnits="objectBoundingBox"><stop offset="0" stop-color="#262626"/><stop offset="1" stop-color="#474747"/></linearGradient><linearGradient id="c" x1="0.513" y1="0.998" x2="0.486" y2="0.004" gradientUnits="objectBoundingBox"><stop offset="0" stop-color="#ff7f66"/><stop offset="1" stop-color="#ec887e"/></linearGradient><linearGradient id="d" x1="0.5" y1="1" x2="0.5" y2="-0.002" gradientUnits="objectBoundingBox"><stop offset="0" stop-color="#d75c56"/><stop offset="1" stop-color="#ac4c3d"/></linearGradient><linearGradient id="e" x1="0.132" y1="0.69" x2="0.734" y2="0.685" gradientUnits="objectBoundingBox"><stop offset="0" stop-color="#303030"/><stop offset="1" stop-color="#1e1e1e"/></linearGradient><linearGradient id="f" x1="0.5" y1="1" x2="0.5" y2="0.001" xlink:href="#a"/><linearGradient id="g" x1="0.5" y1="1" x2="0.5" y2="-0.002" gradientUnits="objectBoundingBox"><stop offset="0" stop-color="#f5957c"/><stop offset="1" stop-color="#da7763"/></linearGradient><linearGradient id="h" x1="0.5" y1="1.001" x2="0.5" y2="-0.001" gradientUnits="objectBoundingBox"><stop offset="0" stop-color="#5a2031"/><stop offset="0.99" stop-color="#882231"/></linearGradient><linearGradient id="i" x1="0.5" y1="1" x2="0.5" y2="0" xlink:href="#a"/><linearGradient id="j" x1="0.5" y1="1.001" x2="0.5" gradientUnits="objectBoundingBox"><stop offset="0" stop-color="#ffb84e"/><stop offset="1" stop-color="#f9cd9b"/></linearGradient><linearGradient id="k" x1="0.5" y1="0.999" x2="0.5" y2="0" xlink:href="#j"/><linearGradient id="l" x1="0.5" y1="1" x2="0.5" y2="0.001" xlink:href="#j"/><linearGradient id="m" x1="0.501" y1="1" x2="0.501" gradientUnits="objectBoundingBox"><stop offset="0" stop-color="#202020"/><stop offset="1" stop-color="#494949"/></linearGradient><linearGradient id="n" x1="0.494" y1="1" x2="0.494" y2="0" xlink:href="#h"/><linearGradient id="o" x1="0.5" y1="1" x2="0.5" y2="0" xlink:href="#h"/><linearGradient id="p" x1="-14.693" y1="89.85" x2="-14.693" y2="88.563" gradientUnits="objectBoundingBox"><stop offset="0" stop-color="#ef686a"/><stop offset="1" stop-color="#ec887e"/></linearGradient><linearGradient id="q" x1="0.499" y1="0.999" x2="0.499" gradientUnits="objectBoundingBox"><stop offset="0" stop-color="#595e27"/><stop offset="0.98" stop-color="#814227"/></linearGradient><linearGradient id="r" x1="0.499" y1="0.999" x2="0.499" y2="0" xlink:href="#q"/><linearGradient id="s" x1="-0.003" y1="0.499" x2="1" y2="0.499" gradientUnits="objectBoundingBox"><stop offset="0" stop-color="#592c27"/><stop offset="0.98" stop-color="#814227"/></linearGradient><linearGradient id="t" x1="0" y1="0.499" x2="1" y2="0.499" xlink:href="#s"/><linearGradient id="u" x1="0.507" y1="1" x2="0.507" y2="0.001" xlink:href="#p"/><linearGradient id="v" x1="0.5" y1="1" x2="0.5" gradientUnits="objectBoundingBox"><stop offset="0" stop-color="#4a1818"/><stop offset="1" stop-color="#64111e"/></linearGradient><linearGradient id="w" x1="0.502" y1="1" x2="0.502" gradientUnits="objectBoundingBox"><stop offset="0.01" stop-color="#d1c279"/><stop offset="1" stop-color="#c97ca1"/></linearGradient><linearGradient id="y" x1="90.282" y1="-5.73" x2="90.266" y2="-6.649" xlink:href="#c"/><linearGradient id="z" x1="0.5" y1="1" x2="0.5" gradientUnits="objectBoundingBox"><stop offset="0" stop-color="#cb7e3f"/><stop offset="1" stop-color="#eaa76b"/></linearGradient><linearGradient id="aa" x1="0.5" y1="1" x2="0.5" gradientUnits="objectBoundingBox"><stop offset="0" stop-color="#e59b48"/><stop offset="1" stop-color="#cb7e3f"/></linearGradient><linearGradient id="ab" x1="0.562" y1="0.054" x2="0.525" y2="0.987" gradientUnits="objectBoundingBox"><stop offset="0" stop-color="#efaf77"/><stop offset="1" stop-color="#cc7f3f"/></linearGradient><linearGradient id="ac" x1="0.501" y1="0.999" x2="0.501" y2="-0.001" gradientUnits="objectBoundingBox"><stop offset="0" stop-color="#f6ece4"/><stop offset="1" stop-color="#fff"/></linearGradient><linearGradient id="ae" x1="0.5" y1="1" x2="0.5" gradientUnits="objectBoundingBox"><stop offset="0" stop-color="#e59b46"/><stop offset="1" stop-color="#eeb66f"/></linearGradient><linearGradient id="af" x1="0.501" y1="1.002" x2="0.501" y2="0.001" xlink:href="#c"/><linearGradient id="ag" x1="0.5" y1="1" x2="0.5" y2="0" xlink:href="#c"/><linearGradient id="ah" x1="0.077" y1="0.637" x2="0.997" y2="0.037" gradientUnits="objectBoundingBox"><stop offset="0" stop-color="#ff5f6f"/><stop offset="1" stop-color="#dd1649"/></linearGradient><linearGradient id="ai" x1="0.117" y1="2.788" x2="0.875" y2="-2.087" gradientUnits="objectBoundingBox"><stop offset="0" stop-color="#a13e45"/><stop offset="1" stop-color="#d61c44"/></linearGradient><linearGradient id="aj" x1="-0.012" y1="0.498" x2="1" y2="0.498" gradientUnits="objectBoundingBox"><stop offset="0" stop-color="#cb4d58"/><stop offset="1" stop-color="#f13050"/></linearGradient><linearGradient id="ak" x1="-0.012" y1="0.498" x2="1" y2="0.498" gradientUnits="objectBoundingBox"><stop offset="0" stop-color="#8f353c"/><stop offset="1" stop-color="#bc1f41"/></linearGradient><linearGradient id="al" x1="-0.012" y1="0.498" x2="1" y2="0.498" gradientUnits="objectBoundingBox"><stop offset="0" stop-color="#8f353c"/><stop offset="1" stop-color="#d61c44"/></linearGradient></defs><path class="a" d="M829.9,204.32s-14.775,5.319-17.976,8-1.9,16.056-2.019,23.049-2.93,22.434-2.167,24.083,8.52-.123,10.441-4.58,1.527-12.608,0-19.873c0,0,1.65-6.378,5.738-7.264,0,0,2.93,20,2.167,27.777a42.479,42.479,0,0,0-7.018,13.889,46.248,46.248,0,0,0-.886,17.706c.246,1.527,4.088,2.044,4.088,2.044l2.142-4.334s1.674-.64,4.334-1.773c0,0,3.571-2.167,7.141-4.211,0,0,12.608-7.511,15.538-14.283s-3.423-48.29-3.3-50.457a27.092,27.092,0,0,1,1.01-5.1Z" transform="translate(-529.148 179.505)"/><path class="b" d="M814.43,258.484s7.831-18.691,9.358-22.434,1.527-13.741,1.527-13.741a69.769,69.769,0,0,1,0,14.948C824.3,242.035,814.43,258.484,814.43,258.484Z" transform="translate(-519.169 205.816)"/><path class="b" d="M818,248.7a82.094,82.094,0,0,0,7.388-13.642,85.285,85.285,0,0,0,2.807-9.087s-1.108,12.83-7.387,21.2Z" transform="translate(-513.948 211.169)"/><path class="b" d="M821.23,239.9a26.816,26.816,0,0,0,6.625-11.377,23.392,23.392,0,0,1-2.34,7.929Z" transform="translate(-509.224 214.899)"/><path class="b" d="M814,206.851s3.3,15.834,12.313,21.621,14.455,3.4,14.455,3.4l-2.093-17.73-18.2-9.85Z" transform="translate(-519.798 179.462)"/><path class="c" d="M853.489,363.245l-35.682-.074-70.157-.148V360.34l67.227-9.678,21.818-3.152,15.613,7.092Z" transform="translate(-616.836 388.924)"/><path class="d" d="M852.307,368.545c-8.4-.837-26.325,3.177-34.845,5.122l-2.856.616c-6.476,1.4-66.956,0-66.956,0s4.777-7.511,9.85-8.865,12.313.665,28.541-7.191a66.264,66.264,0,0,0,16.794-11.5,46.024,46.024,0,0,0,6.649-7.634c11.525-4.6,39.4,6.526,39.4,6.526Z" transform="translate(-616.836 374.981)"/><path class="e" d="M820.7,377.13H785.042a25.977,25.977,0,0,0-.37-3.423,39.768,39.768,0,0,0-2.61-9.062,59.274,59.274,0,0,0-11.992-17.878,46.036,46.036,0,0,0,6.649-7.634c11.525-4.6,39.4,6.526,39.4,6.526l3.4,22.926Z" transform="translate(-584.047 375.04)"/><path class="c" d="M863.627,364.657c-18.986,7.043-54.569,3-56.441,1.822h0a11.6,11.6,0,0,1-2.807-5.787,3.537,3.537,0,0,1-.123-.591h0l-12.9-2.29c-.837-4.432-1.182-6.5-1.182-6.5h.468l11.623,1.748,61.563,9.382Z" transform="translate(-554.65 394.482)"/><path class="f" d="M804.112,244.739l4.285,32.53,29.846,227.168-19.7,81.263-.246,1.034c-.566-.468-1.157-.911-1.773-1.354-12.928-9.259-39.671-13.568-39.671-13.568a43.058,43.058,0,0,1-2.462-11.254,2.778,2.778,0,0,1,.2-.837c1.01-2.463,10.54-6.033,10.54-6.033a346.993,346.993,0,0,0,0-71.413c-1.921-19.971-5.172-51.984-8.274-86.459s-5.713-71.142-6.55-100.422a694.054,694.054,0,0,1,4.235-102.613s68.8-20.661,72.374-11.525,3.053,35.362,3.053,35.362C828.565,217.8,804.112,244.739,804.112,244.739Z" transform="translate(-584.254 142.362)"/><path class="g" d="M826.4,96.941s-4.186,34.8-5.713,45.138c0,0-13.248,32.505-30.584,36.2l-8.151-1.7,6.526-46.1L829.009,86.82Z" transform="translate(-566.672 7.659)"/><path class="h" d="M784.17,135.908s11.943,2.93,23.985-7.388,14.11-27.359,14.11-27.359l1.4-9.161-.542-3.2L785.2,127.683Z" transform="translate(-563.425 10.555)"/><path class="i" d="M771.55,193.406a73.68,73.68,0,0,0,18.617,9.062s.763,15.292,2.463,25.659a62.523,62.523,0,0,0,5.393,17.509s-6.575-26.127-5.393-43.488l6.747-.517,2.463,38.637s-1.847-35.756,0-39.4c0,0,35.707-4.506,44.941-13.125l-.468-5.762-74.048,6.427Z" transform="translate(-581.882 146.833)"/><path class="j" d="M838.883,462.2l-16.253,94.93-6.747-1.034-2.019-.32c-12.928-9.259-39.671-13.569-39.671-13.569a43.036,43.036,0,0,1-2.463-11.254c15.317-2.069,29.9,9.973,29.9,9.973-9.579-13.174-19.159-16.844-19.159-16.844a346.977,346.977,0,0,0,0-71.413c-1.9-19.872-5.147-51.885-8.25-86.361,0,0,16.548,10.244,22.729-13.027s0-94.98,0-94.98-3.127-16.3-8.052-24.97S775.965,199.1,775.965,199.1s9.185,10.269,14.923,16.13a22.8,22.8,0,0,0,10.885,6.8l3.989,25.733Z" transform="translate(-581.619 171.871)"/><path class="k" d="M843.806,130.064a97.746,97.746,0,0,1-8.717,18.641,56.074,56.074,0,0,1-13.716,15.341c-11.2,8.5-22.754,12.9-29.55,9.161s-18.346-21.055-19.7-33.269a57.307,57.307,0,0,1,1.5-20.217c.345-1.576.665-3.177.985-4.925.2-1.133.419-2.29.566-3.5,1.354-9.85-2.463-20.439-.492-30.289a60.381,60.381,0,0,1,9.678-20c28.59-8.052,45.975-1.995,55.505,7.043a32.013,32.013,0,0,1,4.679,5.467h0a29.718,29.718,0,0,1,3.546,6.993C852.893,94.259,848.608,116.815,843.806,130.064Z" transform="translate(-581.494 -35.585)"/><path class="l" d="M842.446,129.9c-4.753,13.248-11.229,25.487-22.433,33.983a69.37,69.37,0,0,0,13.716-36.938,28.713,28.713,0,0,0-3.423-15.366,61.932,61.932,0,0,1-28.171,4.531c-1.379-8.3-2.881-29.181-2.881-29.181,11.131-.665,25.807,7.388,25.807,7.388s-1.773-16.425-8.52-22.163S788,70.137,788,70.137c-7.141,7.634-4.506,19.7-4.506,19.7,6.107,9.85,3.374,25.068,3.374,25.068a18.789,18.789,0,0,1-13.618,0c.2-1.133.419-2.29.566-3.5,1.354-9.85-2.463-20.439-.493-30.289a60.381,60.381,0,0,1,9.678-20c28.59-8.052,45.975-1.995,55.505,7.043l4.679,5.467h0a29.72,29.72,0,0,1,3.546,6.994C851.533,94.1,847.248,116.654,842.446,129.9Z" transform="translate(-580.134 -35.424)"/><path class="m" d="M868.385,95.356c-.517-2.463-3.374-3.226-3.374-3.226-.886,6.206-6.944,32.358-6.944,32.358l-1.083,4.26-6.4,2.906c-4.408-5.245-9.333-21.941-9.185-24.305s2.906-7.388,2.733-12.066a25.734,25.734,0,0,0-7.979-14.6c-2.906-1.872-12.583-1.527-21.769-1.527A45.016,45.016,0,0,1,799.8,77.109a19.307,19.307,0,0,0-11.278,7.585l-.3.394h0a9.333,9.333,0,0,1-.64-4.506c-8,8.323-5.934,30.043-5.934,30.043-8.668-7.658-10.564-24.157-10.564-24.157-3.645,1.7-3.891,3.423-3.891,3.866a12.953,12.953,0,0,1,7.634-11.623c8.176-4.088,13.593-7.388,13.593-7.388,5.122-10.367,18.346-15.662,19.159-15.957a36.716,36.716,0,0,0-21.1,16.006c9.628-23.419,36.79-23.837,40.582-22.483s5.885,10.884,10.638,18.691,15.44,14.775,23.1,18.346S868.385,95.356,868.385,95.356Z" transform="translate(-588.244 -48.453)"/><path class="n" d="M792.295,175.986c0,4.186-10.269,16.918-10.269,16.918s-7.141-9.013-11.032-11.2-18.2-2.463-29.92-2.216-25.118,3.2-30.24,3.3c-4.162,0-4.753-1.354-4.753-1.354s-4.679.788-6.009-1.182a4.31,4.31,0,0,1,0-4.26c-2.216,0-5.688-.172-5.541-2.463a3.226,3.226,0,0,1,1.8-2.807,36.1,36.1,0,0,1,3.2-2.142h0a69.445,69.445,0,0,1,16.474-7.388,101.278,101.278,0,0,1,16.5-3.669h0c3.1-.468,6.353-.911,10.613-1.7a51.119,51.119,0,0,0,19.7-8.89h0l-2.463-4.334s-7.141,2.044-11.746-1.773-7.141-13.519-4.088-14.775,11.229,7.141,13.519,9.431,8.914,1.527,11.475,3.054,8.176,3.817,9.432,6.87,3.053,17.09,4.925,21.67S792.295,175.986,792.295,175.986Z" transform="translate(-694.528 64.841)"/><path class="o" d="M829.9,138.071l-10.54,51.147a35.156,35.156,0,0,0-2.955,4.925h0c-4.925,9.53-12.091,27.728-17.952,43.316-7.141,19.035-19.7,24.97-19.7,24.97-27.531-13.421-44.867-53.855-44.867-53.855l-4.7-8.89c8.717-1.428,12.436-14.307,12.436-14.307l3.324-.616c1.7-3.078,3.571-2.463,3.571-2.463a19.969,19.969,0,0,1,2.463,8.151c4.063,5.442,21.055,11.894,21.055,11.894s0-3.4,1.7-4.58,6.624,0,6.624,0c10.367-14.972,14.948-45.877,14.948-45.877a165.646,165.646,0,0,1,4.482-32.456Z" transform="translate(-643.849 55.352)"/><path class="p" d="M928.237,151.2s-19.5,30.363-38.046,58.214c-4.285,6.452-8.5,12.731-12.313,18.494,0,0-8.4,34.771-10.318,54.643,0,0,1.01,0,3.127,4.063v.148a28.181,28.181,0,0,1-3.078,6.5,78.262,78.262,0,0,1-12.559,5.787,101.846,101.846,0,0,1-34.2,6.452c-27.285.246-28.541-5.1-28.541-5.1s-6.9-5.639-7.141-8.422a22.437,22.437,0,0,1,0-4.58s-16.056-82.322-11.2-115.96A65.01,65.01,0,0,0,757.88,140.1s9.727-8.151,28.073-12.313a243.8,243.8,0,0,0,35.362-11.2,4.6,4.6,0,0,0,.64-.271s-1.625,14.554-2.118,19.134,4.925,10.195,4.925,10.195.172-17.853,6.821-23.443a138.6,138.6,0,0,0,12.756-6.476c5.245-3.078,10.663-6.8,13.027-10.318l10.318,10.909s.3.3.837.763a50.633,50.633,0,0,0,12.017,8.052S908.389,129.311,928.237,151.2Z" transform="translate(-601.875 34.833)"/><path class="q" d="M868.274,256.423a84.532,84.532,0,0,1-1.453,9.21,335.283,335.283,0,0,1-18.666,56.022,68.17,68.17,0,0,0-4.112,10.072c-10.416,2.167-18.2-8.274-18.2-8.274v-4.088s-5.245-3.054-5.245-5.861,3.078-4.088,5.245-7.88,1.5-33.81,1.305-38.588a7.067,7.067,0,0,0-.148-1.182c-.812-4.58-5.1-10.244-4.752-12.731a18.145,18.145,0,0,1,2.192-5.442c.763-1.379,1.4-2.462,1.4-2.462a171.493,171.493,0,0,0-9.112-54.176l-.222-.64a126.13,126.13,0,0,0-6.132-15.169c4.925-42.8,41.075-51.344,41.075-51.344,2.044,6.994,3.324,47.256,2.462,54.176a138.616,138.616,0,0,0,5.885,46,309.117,309.117,0,0,1,8.249,31.323v.591A.766.766,0,0,0,868.274,256.423Z" transform="translate(-525.092 61.875)"/><path class="r" d="M846.9,536.513a7.98,7.98,0,0,1,.3,3.448,119.1,119.1,0,0,1-3.029,17.016l-7.88-7.658c-16.031-.64-38.219,14.923-38.219,14.923s-.911,4.7-1.157,4.162-7.24-15.021-6.23-18.075,10.047-4.925,10.047-4.925,2.955-35.805,4.359-62.819-1.4-81.534-3.965-94.29-5.615-26.448-5.615-26.448c-.616-3.275-1.231-6.969-1.822-10.983-1.379-9.555-2.66-20.981-3.743-33h0c-.148-1.453-.271-2.93-.419-4.383-3.743-42.676-5.713-91.113-5.713-91.113,12.583-29.55,45.852-28.122,45.852-28.122,0,5.319,2.29,41.567,4.925,78.8a1.526,1.526,0,0,0,0,.222v.566l.591,8c0,1.059.172,2.216.246,3.4s.148,2.019.222,3.078c2.463,32.456,5.1,62.45,6.624,69.566,3.571,16.3,12.091,52.427,12.091,52.427,2.66,35.534-11.131,115.911-11.549,118.472h0C845.2,529.051,846.9,536.513,846.9,536.513Z" transform="translate(-563.951 164.757)"/><path class="d" d="M864.74,381.351s-23.886,5.1-58.411,0a12.556,12.556,0,0,0-.936-2.315h0l-.345-.566a15.787,15.787,0,0,0-3.2-4.039,23.542,23.542,0,0,0-10.17-4.137h-.468s-2.881-10.121-1.354-16.671c0,0,21.646-18,38.218-14.923a13.643,13.643,0,0,1,5.664,4.309s2.463,3.817,5.91,8.446c3.989,5.147,9.555,11.278,15.194,14.233a35.24,35.24,0,0,1,8.151,5.344C865.307,373.471,864.74,381.351,864.74,381.351Z" transform="translate(-555.763 375.522)"/><path class="s" d="M773.039,77.379a5.27,5.27,0,0,1,4.925-2.315c3.423.246,8.151,4.925,9.85,8.791,0,0-2.463-10.072-7.388-14.036-4.112-3.275-6.649,1.428-7.388,3.472A34.288,34.288,0,0,0,773.039,77.379Z" transform="translate(-579.8 -18.853)"/><path class="t" d="M783.36,69a13.79,13.79,0,0,0,4.211,5.738s15.514-1.207,23.517,3.817C811.088,78.555,802.469,69.148,783.36,69Z" transform="translate(-564.61 -18.403)"/><path class="u" d="M785.841,86.313a8.249,8.249,0,0,1-4.925,2.044,12.311,12.311,0,0,1-2.856,0,17.24,17.24,0,0,1-2.955-.517l-1.084-.3a17.006,17.006,0,0,1-.468-2.758,18.76,18.76,0,0,1,.418-6.4,14.561,14.561,0,0,1,1.108-3.053,10.541,10.541,0,0,1,3.448.566C784.955,78.113,785.841,86.313,785.841,86.313Z" transform="translate(-579.108 -9.145)"/><path class="u" d="M804.1,84.364a21.055,21.055,0,0,1-7.9,3.645,20.838,20.838,0,0,1-3.3.468,20.415,20.415,0,0,1-6.058-.566l-.345-.123c-1.256-1.65-1.65-10.293,2.192-11.771a7.391,7.391,0,0,1,1.182-.369C798.558,73.356,804.1,84.364,804.1,84.364Z" transform="translate(-561.314 -9.141)"/><path class="v" d="M776.32,87.124s12.091-2.463,18.346.837a20.859,20.859,0,0,1-8.619,4.383S779.1,92.173,776.32,87.124Z" transform="translate(-574.906 6.813)"/><path class="w" d="M781.39,90.6s2.61-4.457,5.861-3.6a19.109,19.109,0,0,1-5.861,3.6Z" transform="translate(-567.491 7.769)"/><path class="x" d="M794.666,91.812c.64.2-.32-4.925-1.822-6.058A11.352,11.352,0,0,0,782.575,84.2a12.313,12.313,0,0,0-6.255,6.772S788.337,88.66,794.666,91.812Z" transform="translate(-574.905 2.962)"/><path class="y" d="M783.51,84.88a7.559,7.559,0,0,1,.64,5.073S787.6,88.7,783.51,84.88Z" transform="translate(-564.39 4.822)"/><path class="z" d="M796.194,87.815a20.838,20.838,0,0,1-3.3.468,20.416,20.416,0,0,1-6.058-.566l-.345-.123c-1.256-1.65-1.65-10.293,2.192-11.771a7.391,7.391,0,0,1,1.182-.369c3.1-.148,6.058,3.177,6.673,7.683a10.859,10.859,0,0,1-.344,4.679Z" transform="translate(-561.314 -8.973)"/><path class="aa" d="M792.839,86.557a20.416,20.416,0,0,1-6.058-.566,8.175,8.175,0,0,1-1.059-3.029c-.419-3.177,1.034-5.984,3.226-6.3s4.359,2.044,4.925,5.2a6.869,6.869,0,0,1-1.034,4.7Z" transform="translate(-561.259 -7.247)"/><path class="ab" d="M780.886,88.357a12.31,12.31,0,0,1-2.856,0,17.232,17.232,0,0,1-2.955-.517l-1.084-.3a17.006,17.006,0,0,1-.468-2.758,18.766,18.766,0,0,1,.419-6.4,14.545,14.545,0,0,1,1.108-3.054,10.539,10.539,0,0,1,3.448.566,12.656,12.656,0,0,1,2.709,6.3,13.173,13.173,0,0,1-.32,6.156Z" transform="translate(-579.152 -9.145)"/><path class="aa" d="M778.029,87.153a17.231,17.231,0,0,1-2.955-.517,7.731,7.731,0,0,1-1.552-3.054,18.769,18.769,0,0,1,.419-6.4,2.019,2.019,0,0,1,1.33-1.01c1.65-.246,3.4,2.093,3.916,5.221a6.7,6.7,0,0,1-1.157,5.762Z" transform="translate(-579.152 -7.942)"/><path class="ac" d="M773.92,78.584a19.505,19.505,0,0,1-.271-4.088c1.428-.148,8.89,1.256,11.451,10.86a14.628,14.628,0,0,0-10.367-8.767Z" transform="translate(-578.834 -10.38)"/><path class="ad" d="M785.68,82.669s-.542-5.787,1.428-7.757a15.957,15.957,0,0,1,16.031,8.594A15.982,15.982,0,0,0,787.921,77.4a11.3,11.3,0,0,0-2.241,5.27Z" transform="translate(-561.315 -9.909)"/><path class="ae" d="M791.875,79.1a1.133,1.133,0,1,1-1.108-1.108A1.133,1.133,0,0,1,791.875,79.1Z" transform="translate(-555.469 -5.255)"/><path class="ae" d="M778.451,79.364a1.133,1.133,0,1,1-1.12-.966,1.133,1.133,0,0,1,1.12.966Z" transform="translate(-575.066 -4.659)"/><path class="u" d="M776.88,96.128a28.885,28.885,0,0,0,10.54,0c6.279-1.059,16.991-7.388,16.991-7.388a1.872,1.872,0,0,1,.763,1.7c-.172,1.01-5.861,14.43-18.616,16.13,0,0-3.054-.763-7.634-8.323Z" transform="translate(-574.087 10.467)"/><path class="w" d="M776.88,96.1a30.239,30.239,0,0,0,11.894-1.133,91.661,91.661,0,0,0,15.637-6.206s-11.869,8.742-24.157,8.4a27.092,27.092,0,0,0,6.772,8.5s8.693-1.527,12.485-6.8a15.317,15.317,0,0,0,3.472-9.161l1.379-.936,1.157,1.108s-5.664,15.44-19.01,16.721c0,0-4.753-1.6-8.2-8.914Z" transform="translate(-574.087 10.496)"/><path class="af" d="M786.81,90.148a17.238,17.238,0,0,1,7.388,3.546s-1.847-5.171-4.236-5.516C790.036,88.178,787.893,87.488,786.81,90.148Z" transform="translate(-559.564 9.527)"/><path class="ag" d="M788.407,57.71a23.513,23.513,0,0,0-.837,9.333c-8,8.323-5.935,30.043-5.935,30.043-8.668-7.658-10.564-24.157-10.564-24.157-3.644,1.7-3.891,3.423-3.891,3.866a12.954,12.954,0,0,1,7.634-11.623C782.989,61.084,788.407,57.71,788.407,57.71Z" transform="translate(-588.273 -34.915)"/><path class="ah" d="M775.491,61.5c.517,3.448.616,4.309.64,4.506a9.334,9.334,0,0,1-.64-4.506Z" transform="translate(-576.194 -29.372)"/><path class="ag" d="M852.336,85.368c-.886,6.206-6.944,32.358-6.944,32.358l-1.083,4.26-6.4,2.906c-4.408-5.245-9.333-21.941-9.185-24.305s2.906-7.388,2.733-12.066a25.732,25.732,0,0,0-7.979-14.6c-2.906-1.871-12.583-1.527-21.769-1.527a45.016,45.016,0,0,1-14.578-2.044,19.306,19.306,0,0,0-11.278,7.585c1.822-2.61,12.313-16.77,24.034-21.67l-3.152,4.063c.591-.468,10.614-8.052,17.632-7.117S824.485,60.6,828.4,72.39s9.21,18,15.908,19.06C850.612,92.46,852.164,86.131,852.336,85.368Z" transform="translate(-575.593 -41.617)"/><path class="ai" d="M803.793,85.2a33.391,33.391,0,0,1,16.1-5.836s6.082,4.925,5.639,15.76-17.385,18.346-20.414,17.115S800,104.158,800,104.158,799.828,87.56,803.793,85.2Z" transform="translate(-540.274 -3.252)"/><path class="aj" d="M801.665,88.674s4.679-7.018,17.238-6.476c0,0,2.019,2.857,1.871,9.85a11.943,11.943,0,0,1-5.639,10.047A14.775,14.775,0,0,0,819.2,91.309l-.591-6.156a15.366,15.366,0,0,0-11.2,3.177,11.18,11.18,0,0,0-5.369,9.6,11.87,11.87,0,0,1-.369-9.259Z" transform="translate(-538.958 0.855)"/><path class="aj" d="M810.728,83.11a19.23,19.23,0,0,1-1.157,8.274,6.107,6.107,0,0,1-7.19,3.891s4.925,1.133,5.59-3.571-2.118-6.132-2.118-6.132Z" transform="translate(-536.792 2.233)"/><path class="ak" d="M816.4,184.71h0c-4.925,9.53-12.091,27.728-17.952,43.316-7.141,19.035-19.7,24.97-19.7,24.97-27.531-13.421-44.867-53.855-44.867-53.855l-4.7-8.89c8.717-1.428,12.436-14.307,12.436-14.307l3.324-.616c1.7-3.078,3.571-2.463,3.571-2.463,2.044,10.367-6.9,24.945-6.9,24.945C750.8,215.27,779.539,225.1,779.539,225.1c.443-16.179-7.585-32.185-7.585-32.185l1.7-4.58c5.516,4.925,12.559,19.971,12.559,19.971a53.73,53.73,0,0,0-5.934-19.946,157.8,157.8,0,0,0,15.637,9.456,76.339,76.339,0,0,0,7.117-16.3c4.088-11.8,8.717-39.917,8.717-39.917l-4.63-15.662c3.053,2.167,8.668,15.415,8.668,15.415C813.546,156.071,816.3,183.775,816.4,184.71Z" transform="translate(-643.849 64.858)"/><path class="al" d="M822.071,205.356a171.489,171.489,0,0,0-9.111-54.176A278.538,278.538,0,0,1,825.42,205.6s9.7,8.84,18.962,10.367c0,0-15.908,1.5-23.714-8.323C821.431,206.39,822.071,205.356,822.071,205.356Z" transform="translate(-521.319 101.787)"/><path class="am" d="M860.752,181.45a335.224,335.224,0,0,1-18.666,56.022,68.173,68.173,0,0,0-4.112,10.072c-10.416,2.167-18.2-8.274-18.2-8.274v-4.088s-5.245-3.054-5.245-5.861,3.078-4.088,5.245-7.88,1.5-33.81,1.305-38.588a7.067,7.067,0,0,0-.148-1.182c5.541,6.723,12.313,13.79,17.829,16.474C847.454,202.5,857.009,191.152,860.752,181.45Z" transform="translate(-519.023 146.058)"/><path class="an" d="M880.436,203.176l-9.85-17.829v8.964l-22.409,17.238c-3.644-.591-8.446-1.33-14.923-2.315-7.388-1.108-17.435-1.9-27.6-2.463a112.325,112.325,0,0,1,.394-19.7c1.182-6.944,7.388-30.56,7.388-30.56s18.37-3.226,31.767-14.11,13.3-31.446,13.3-31.446L834.313,109.6a138.6,138.6,0,0,1-12.756,6.476c-6.649,5.59-6.821,23.443-6.821,23.443s-5.368-5.615-4.925-10.195,2.118-19.134,2.118-19.134a4.6,4.6,0,0,1-.64.271,36.643,36.643,0,0,0-9.53,27.925,74.484,74.484,0,0,0,7.88,15.046s-6.3,34.672-6.477,42.823c0,3.054.123,6.723.369,10.49-19.7-1.059-38.982-1.305-38.982-1.305l.246,6.082s6.526-.394,36.47,0h2.463c.3,4.728.591,9.358.493,13.076-.148,8-2.463,40.115-2.463,40.115s-18.124-5.516-26.891-17.238a88.65,88.65,0,0,0,26.94,24.281s1.354,17.681,2.463,20.217a24.8,24.8,0,0,0,3.4,5.442s-25.143-6.452-32.456-11.549c.246,2.783,7.141,8.422,7.141,8.422s1.256,5.344,28.541,5.1a101.583,101.583,0,0,0,34.254-6.575h.3l2.463-.96.591-.246,1.9-.788.739-.345,1.4-.64.837-.394.985-.492.813-.419.64-.32.665-.369.394-.222.517-.3h.222a28.191,28.191,0,0,0,3.078-6.5v-.148c-2.118-4.063-3.127-4.063-3.127-4.063,1.921-19.873,10.318-54.643,10.318-54.643C871.94,215.907,876.151,209.628,880.436,203.176Zm-43.587,9.21,9.85,4.383s2.463,49.792-3.053,60.135h0a36.028,36.028,0,0,1-13.914,0,133.515,133.515,0,0,1-23.443-7.634s.517-31.594,0-46.788c-.123-3.768-.271-7.388-.394-10.835,11.3.074,22.114.419,30.954.739Zm-24.871,83.553s-5.467-3.571-5.959-7.658-.837-12.313-.837-12.313a75.7,75.7,0,0,0,25.979,4.408,48.316,48.316,0,0,0,12.928-2.463l5.393,8.717a109.579,109.579,0,0,1-37.5,9.308Z" transform="translate(-592.12 40.975)"/><path class="ao" d="M785.112,144.167s1.256-12.731,7.634-15.933c0,0,7.806,7.166,11.746,27.088,0,0,19.281-14.48,24.034-34.057,0,0-6.4-14.775-10.244-18.715a26.421,26.421,0,0,1-1.625,7.043c-1.157,2.462-17.065,12.879-26.3,16.031a30.09,30.09,0,0,0-5.246,18.543Z" transform="translate(-562.102 30.665)"/><path class="ao" d="M788.051,136.537l3.5-30.757a34.476,34.476,0,0,0-10.687,15.366,80.3,80.3,0,0,0-.887,22.754s.813-16.942,7.388-22.409C787.313,121.491,787.337,128.115,788.051,136.537Z" transform="translate(-570.187 35.388)"/><path class="ap" d="M786.3,241.54s0,2.684.246,7.043c-.148-1.453-.271-2.93-.419-4.383Z" transform="translate(-560.558 233.941)"/><path class="aq" d="M843.174,334.643a119.1,119.1,0,0,1-3.029,17.016L832.265,344c-16.031-.64-38.219,14.923-38.219,14.923s-.911,4.7-1.157,4.162-7.24-15.021-6.23-18.075,10.047-4.925,10.047-4.925-4.186,1.995,0,8.348C796.583,348.384,826.133,333.978,843.174,334.643Z" transform="translate(-559.93 370.074)"/><path class="ar" d="M837.056,472.973h0l-42.183,16.548s2.955-35.805,4.359-62.819-1.4-81.534-3.965-94.29-5.615-26.448-5.615-26.448c-.616-3.275-1.231-6.969-1.822-10.983,2.29,11.254,5.836,21.793,11.377,26.743,0,0,27.088,1.034,31.176-17.238,2.881-12.78.96-50.679-.468-72.127,2.463,32.456,5.1,62.45,6.624,69.566,3.571,16.3,12.091,52.427,12.091,52.427C851.264,390.035,837.5,470.338,837.056,472.973Z" transform="translate(-558.072 220.514)"/><path class="ap" d="M796,355.11a42.357,42.357,0,0,0,2.807,5.787A11.6,11.6,0,0,1,796,355.11Z" transform="translate(-546.123 400.04)"/><path class="e" d="M839.657,351.4c-15.145-2.463-35.46,5.91-36.544,14.012a22.321,22.321,0,0,0,.2,6.649,39.406,39.406,0,0,0,1.749,6.427,1.329,1.329,0,0,0,.246.542l-12.9-2.29c-.837-4.433-1.182-6.5-1.182-6.5s-2.881-10.121-1.354-16.671c0,0,21.646-18,38.218-14.923a13.643,13.643,0,0,1,5.664,4.309S836.086,346.767,839.657,351.4Z" transform="translate(-555.748 375.434)"/><path class="as" d="M809.78,151.174s15.613,27.974,31.767,42.183c0,0-23.172-38.908-28.344-53.757Z" transform="translate(-525.97 84.851)"/><path class="i" d="M796.664,237.043s-18.4-28.762-20.784-35.263c0,0,9.85,13.667,19.7,16.327Z" transform="translate(-575.549 175.791)"/><path class="at" d="M769.391,151.555s-10.367-4.063-19.035,0a197.637,197.637,0,0,0-19.7,11.352l-7.979,1.034s-14.775-.492-19.528,4.925c0-.246.96-2.315,5.664-4.285s14.775-2.142,14.775-2.142a6.873,6.873,0,0,0,1.182-3.4,46.788,46.788,0,0,0-27.851,4.383c.591-.369,10.416-6.5,27.851-6.329a6.4,6.4,0,0,0,2.044-5.442,101.358,101.358,0,0,0-30.265,4.408c1.748-.665,17.238-6.476,30.338-5.442a16.426,16.426,0,0,0,2.462-5.59h0c3.1-.468,6.353-.911,10.614-1.7a51.121,51.121,0,0,0,19.7-8.89h0a38.492,38.492,0,0,0,3.989,10.613C765.993,147.984,769.391,151.555,769.391,151.555Z" transform="translate(-691.571 77.304)"/><path class="au" d="M727.79,156.74a23,23,0,0,0,15.859-10.49,17.484,17.484,0,0,1-12.436,14.307Z" transform="translate(-645.882 94.577)"/><path class="av" d="M833.833,107.448a13.767,13.767,0,0,0,1.256,4.925,60.094,60.094,0,0,1-7.855,10.146c-.591.616-1.207,1.231-1.847,1.822-1.256,1.182-2.61,2.29-4.014,3.374-11.2,8.5-22.754,12.9-29.55,9.161s-18.346-21.055-19.7-33.269a57.308,57.308,0,0,1,1.5-20.217,26.67,26.67,0,0,0,13.47.788,10.723,10.723,0,0,0,1.4-.443h0c5.639-2.118,9.234-2.192,14.061.222,6.969,3.472,21.4,3.472,32.185.739h.3l-.222.64a34.477,34.477,0,0,0-1.5,9.185c0,.862,0,1.748,0,2.635V102.3a13.173,13.173,0,0,0,.172,2.635A12.818,12.818,0,0,1,833.833,107.448Z" transform="translate(-581.494 0.821)"/><path class="aw" d="M780.915,82.76A13.542,13.542,0,0,1,777,86.651a15.473,15.473,0,0,0,2.462-3.448A9.98,9.98,0,0,0,780.915,82.76Z" transform="translate(-573.911 1.721)"/><g transform="translate(192.13 82.942)"><path class="ax" d="M834.015,84.536a52.1,52.1,0,0,1-11.672,2.635c-1.995.246-4.014.345-6.009.443a33.382,33.382,0,0,1-6.058-.271,36.642,36.642,0,0,1-6.033-1.133,18.6,18.6,0,0,1-2.955-1.108,23.33,23.33,0,0,0-2.61-1.133,12.313,12.313,0,0,0-5.344-.714,27.928,27.928,0,0,0-5.491,1.231h-.148a17.413,17.413,0,0,1-3.842.763,18.839,18.839,0,0,1-3.916,0,37.778,37.778,0,0,1-7.388-1.872,26.67,26.67,0,0,0,13.47.788,10.721,10.721,0,0,0,1.4-.443h0c5.639-2.118,9.234-2.192,14.061.222C808.577,87.368,823.2,87.344,834.015,84.536Z" transform="translate(-772.55 -82.135)"/></g><path class="ay" d="M776.32,87.124s12.091-2.463,18.346.837a20.859,20.859,0,0,1-8.619,4.383S779.1,92.173,776.32,87.124Z" transform="translate(-574.906 6.813)"/><path class="az" d="M797.715,101.542a104.914,104.914,0,0,0,6.452-11.18l-.32-.862c-1.6,3.226-6.476,11.4-6.476,11.4Z" transform="translate(-544.12 11.579)"/><path class="az" d="M797.715,84.85s4.925-1.576,9.358-2.93l-.64.862c-3.349,1.354-9.062,3.078-9.062,3.078Z" transform="translate(-544.12 0.493)"/><path class="ba" d="M813.8,95.535h0v-1.8h0c0-1.084-.222-2.241-.271-3.448-.271,1.182-.616,2.463-.985,3.62a44.35,44.35,0,0,1-3.817,2.881,44.779,44.779,0,0,1-7.215,3.817,50.048,50.048,0,0,1-7.831,2.462,57.076,57.076,0,0,1-8.175,1.305,59.094,59.094,0,0,0,8.3-.714,46.788,46.788,0,0,0,15.883-5.344l1.749-1.034a63.363,63.363,0,0,1-9.85,18.469c1.4-1.084,2.758-2.192,4.014-3.374.64-.591,1.256-1.207,1.847-1.822a60.092,60.092,0,0,0,7.855-10.146,13.937,13.937,0,0,1-1.5-4.876Z" transform="translate(-561.465 12.734)"/><g class="bb" transform="translate(233.649 95.168)"><path class="bc" d="M807.633,87.1v2.635c-.591.32-1.207.591-1.847.887a38.387,38.387,0,0,1-5.368,1.847c-1.8.493-3.644.813-5.491,1.133a52.341,52.341,0,0,1-5.516.566q2.733-.468,5.393-1.182a48.241,48.241,0,0,0,5.245-1.7,35.923,35.923,0,0,0,4.925-2.315A25.864,25.864,0,0,0,807.633,87.1Z" transform="translate(-789.41 -87.1)"/></g><g class="bd" transform="translate(253.265 228.339) rotate(172)"><path class="be" d="M12.331,15.727.26,12.976a.261.261,0,0,1-.26-.26L3.79.26A.262.262,0,0,1,4.053,0L16.271,2.5a.263.263,0,0,1,.263.26L14.54,8.8,9.374,7.567,8.84,9.415,14,10.649l-1.4,4.815A.264.264,0,0,1,12.331,15.727Z"/><path class="bf" d="M 12.33077526092529 15.7269401550293 C 12.47503471374512 15.7269401550293 12.59353542327881 15.60844039916992 12.59353542327881 15.46417999267578 L 13.99822521209717 10.64894008636475 L 8.839685440063477 9.415040016174316 L 9.373555183410645 7.567059993743896 L 14.53982543945312 8.800960540771484 L 16.53363609313965 2.760869979858398 C 16.53363609313965 2.619189977645874 16.41513442993164 2.50068998336792 16.27087593078613 2.50068998336792 L 4.053245067596436 7.751464892180593e-08 C 3.908985137939453 7.751464892180593e-08 3.790485143661499 0.1159200742840767 3.790485143661499 0.2601800858974457 L 5.185546797292773e-06 12.716139793396 C 5.185546797292773e-06 12.86040019989014 0.1184951886534691 12.97632026672363 0.260185182094574 12.97632026672363 L 12.33077526092529 15.7269401550293 M 12.33077526092529 17.7269401550293 L 12.10578536987305 17.7269401550293 L -0.07103528082370758 14.95211219787598 C -1.160845637321472 14.79137706756592 -1.999994874000549 13.84990787506104 -1.999994874000549 12.716139793396 L -1.999994874000549 12.41857051849365 L 1.832969546318054 -0.1770122200250626 C 2.037430286407471 -1.214760184288025 2.95527195930481 -1.99999988079071 4.053245067596436 -1.99999988079071 L 4.255825042724609 -1.99999988079071 L 16.56868934631348 0.5201819539070129 C 17.67619132995605 0.6662144660949707 18.53363609313965 1.615387916564941 18.53363609313965 2.760869979858398 L 18.53363609313965 3.082430124282837 L 16.42843437194824 9.459964752197266 L 14.55461406707764 15.88334941864014 C 14.35751342773438 16.93149375915527 13.43529796600342 17.7269401550293 12.33077526092529 17.7269401550293 Z"/></g></svg>