<svg id="_1" data-name="1" xmlns="http://www.w3.org/2000/svg" xmlns:xlink="http://www.w3.org/1999/xlink" width="76.235" height="108" viewBox="0 0 76.235 108">
  <defs>
    <linearGradient id="linear-gradient" x2="1" y2="1" gradientUnits="objectBoundingBox">
      <stop offset="0" stop-color="#fe0"/>
      <stop offset="1" stop-color="#ffce00"/>
    </linearGradient>
  </defs>
  <rect id="Rectangle_4306" data-name="Rectangle 4306" width="76.235" height="108" rx="6" fill="url(#linear-gradient)"/>
  <path id="Path_31684" data-name="Path 31684" d="M50.622,59.552h.5q.158,0,.335-.011a2.426,2.426,0,0,0,.34-.045,1.421,1.421,0,0,0,.295-.093.463.463,0,0,0,.2-.153.341.341,0,0,0,.05-.19,1.07,1.07,0,0,0-.032-.261,2.785,2.785,0,0,0-.09-.3q-.056-.156-.121-.3t-.127-.277q-.063-.131-.1-.221l.751-.371a2.992,2.992,0,0,1,.172.372,4.567,4.567,0,0,1,.15.45q.064.232.1.458a2.311,2.311,0,0,1,.04.4,1.388,1.388,0,0,1-.106.557,1.21,1.21,0,0,1-.345.466,1.486,1.486,0,0,1-.528.272,1.466,1.466,0,0,1-.234.04q-.14.015-.285.023t-.276.01l-.2,0h-.57a.906.906,0,0,1-.134-.015,1.152,1.152,0,0,1-.156-.04.72.72,0,0,1-.164-.079,2.037,2.037,0,0,1-.246.778,3.306,3.306,0,0,1-.517.7,4.67,4.67,0,0,1-.7.6,6.241,6.241,0,0,1-.8.474l-.361-.744q.226-.116.453-.251a5.133,5.133,0,0,0,.433-.288,4.061,4.061,0,0,0,.385-.324,2.521,2.521,0,0,0,.309-.353,1.724,1.724,0,0,0,.206-.375,1.077,1.077,0,0,0,.076-.4c0-.017,0-.035,0-.053s0-.036,0-.053v0a2.418,2.418,0,0,0-.076-.366q-.053-.185-.114-.359T49,58.893q-.061-.16-.1-.288l.773-.322q.126.377.237.624a1.905,1.905,0,0,0,.224.39.679.679,0,0,0,.23.2A.593.593,0,0,0,50.622,59.552Zm.574,2.433-.548-.551.554-.551.548.548Zm1.218-.006-.548-.548.554-.554.548.551Zm-.6-.122.5.5-.506.506-.5-.5ZM44.9,59.111a2.678,2.678,0,0,0,.295.158q.172.081.358.147a3.148,3.148,0,0,0,.364.106,1.457,1.457,0,0,0,.314.04q.081,0,.217-.008a1.274,1.274,0,0,0,.269-.045.622.622,0,0,0,.229-.116.281.281,0,0,0,.1-.224.7.7,0,0,0-.071-.3,2.086,2.086,0,0,0-.2-.345,3.657,3.657,0,0,0-.29-.359q-.164-.18-.342-.346t-.356-.306a3.86,3.86,0,0,0-.334-.237l.48-.712a6.073,6.073,0,0,1,.585.458,5.173,5.173,0,0,1,.532.543,4.055,4.055,0,0,1,.422.6,2.418,2.418,0,0,1,.256.632,1.348,1.348,0,0,1,0,.661,1.17,1.17,0,0,1-.29.52,1.366,1.366,0,0,1-.532.334,1.85,1.85,0,0,1-.722.1,2.293,2.293,0,0,1-.432-.042,3.468,3.468,0,0,1-.43-.111,3.545,3.545,0,0,1-.406-.161,3.693,3.693,0,0,1-.363-.195ZM43.04,55.5l.828-.271a18.4,18.4,0,0,1,.168,2.285q.006,1.711-.048,2.723l-.844.129a24.869,24.869,0,0,0,.058-2.494Q43.149,56.561,43.04,55.5ZM37.6,59.553h.664a4.525,4.525,0,0,0,.814-.076,7.475,7.475,0,0,0,.823-.2q.409-.124.8-.285t.738-.332a2.92,2.92,0,0,1-.516-.163q-.238-.1-.451-.2t-.409-.168a1.145,1.145,0,0,0-.39-.071.55.55,0,0,0-.211.04.856.856,0,0,0-.182.1.951.951,0,0,0-.15.135,1.8,1.8,0,0,0-.116.143q-.05.069-.082.124l-.045.077-.67-.435a2.557,2.557,0,0,1,.261-.375,2.15,2.15,0,0,1,.337-.325,1.636,1.636,0,0,1,.4-.229,1.234,1.234,0,0,1,.458-.085,1.885,1.885,0,0,1,.493.066,3.912,3.912,0,0,1,.485.166q.24.1.482.217t.488.219a4.328,4.328,0,0,0,.5.171,2.03,2.03,0,0,0,.516.073l-.068.831q-.451.216-.941.458t-1.025.448a8.693,8.693,0,0,1-1.118.345,5.766,5.766,0,0,1-1.218.151h-.715a2.468,2.468,0,0,1-.49-.045,1.481,1.481,0,0,1-.406-.143,1.261,1.261,0,0,1-.327-.251,1.515,1.515,0,0,1-.25-.369,3.788,3.788,0,0,1-2.652.818,4.939,4.939,0,0,1-1.664-.251,1.856,1.856,0,0,1-.975-.748,1.538,1.538,0,0,1-.176-.429,1.872,1.872,0,0,1-.053-.435,1.942,1.942,0,0,1,.064-.5v0a2.828,2.828,0,0,1,.081-.276q.042-.118.077-.2a1.369,1.369,0,0,1,.061-.126l.035-.061.622.39q-.032.058-.074.126a1.074,1.074,0,0,0-.079.158,1.225,1.225,0,0,0-.063.213,1.409,1.409,0,0,0-.026.287.686.686,0,0,0,.042.23,1.136,1.136,0,0,0,.106.221.74.74,0,0,0,.274.258,1.77,1.77,0,0,0,.446.174,3.91,3.91,0,0,0,.591.1q.329.032.709.032.345,0,.654-.026a4.626,4.626,0,0,0,.575-.082,2.748,2.748,0,0,0,.48-.145,1.475,1.475,0,0,0,.372-.218.917.917,0,0,0,.229-.255,1.765,1.765,0,0,0,.145-.3,2.815,2.815,0,0,0,.1-.327q.039-.168.084-.322l.741.2q-.042.174-.089.346a1.271,1.271,0,0,0-.044.356v0a1.148,1.148,0,0,0,.061.322.616.616,0,0,0,.16.246.724.724,0,0,0,.276.156,1.329,1.329,0,0,0,.409.055Zm2.552-3.413-.615.615-.619-.619.615-.615Zm-6.529.97-.548.548-.554-.551.548-.551Zm1.218,0-.548.551-.554-.554.548-.548ZM28.028,55.5l.828-.271a18.378,18.378,0,0,1,.168,2.285q.007,1.711-.048,2.723l-.844.129a24.866,24.866,0,0,0,.058-2.494Q28.138,56.561,28.028,55.5ZM25.9,61.392l-.548.548-.554-.551.548-.551Zm1.218,0-.548.551-.554-.554.548-.548Zm-2.3-1.843H25.1q.158,0,.335-.011a2.427,2.427,0,0,0,.34-.045,1.421,1.421,0,0,0,.295-.093.462.462,0,0,0,.2-.153.341.341,0,0,0,.05-.19,1.07,1.07,0,0,0-.032-.261,2.812,2.812,0,0,0-.09-.3q-.056-.156-.121-.3t-.127-.277q-.063-.131-.1-.221l.751-.371a2.991,2.991,0,0,1,.172.372,4.594,4.594,0,0,1,.15.45q.064.232.1.458a2.311,2.311,0,0,1,.04.4,1.388,1.388,0,0,1-.106.557,1.21,1.21,0,0,1-.345.466,1.486,1.486,0,0,1-.528.272,1.464,1.464,0,0,1-.234.04q-.14.015-.285.023t-.276.01l-.2,0h-.5a.4.4,0,0,1-.156-.03.737.737,0,0,1-.4-.215l-.068-.074-.068.071a.827.827,0,0,1-.606.235,1.429,1.429,0,0,1-.445-.084,2.914,2.914,0,0,1-.432-.18,4.056,4.056,0,0,1-.454-.264,1.155,1.155,0,0,1-.277.274,1.416,1.416,0,0,1-.854.274.433.433,0,0,1-.077-.007,1.614,1.614,0,0,1-.642-.135,3.014,3.014,0,0,1-.045.548,2.427,2.427,0,0,1-.158.538,2.117,2.117,0,0,1-.282.479,1.529,1.529,0,0,1-.417.369h0a1.907,1.907,0,0,1-.325.177,2.443,2.443,0,0,1-.369.122,3.577,3.577,0,0,1-.411.076q-.216.027-.458.04a2.922,2.922,0,0,1-.923-.129,1.991,1.991,0,0,1-.669-.371,1.967,1.967,0,0,1-.509-.736,2.41,2.41,0,0,1-.168-.894,3.5,3.5,0,0,1,.035-.511,3.23,3.23,0,0,1,.106-.472A3.923,3.923,0,0,1,15.7,59q.11-.242.258-.519l.677.49q-.1.18-.2.395a3.979,3.979,0,0,0-.169.445,2.959,2.959,0,0,0-.106.462,1.585,1.585,0,0,0,0,.445,1.411,1.411,0,0,0,.047.185,1.154,1.154,0,0,0,.1.224,1.374,1.374,0,0,0,.168.23,1.078,1.078,0,0,0,.246.2,1.391,1.391,0,0,0,.34.145,1.623,1.623,0,0,0,.45.056h.055a.167.167,0,0,0,.032,0,4.905,4.905,0,0,0,.6-.064,2.017,2.017,0,0,0,.5-.15,1.246,1.246,0,0,0,.379-.264,1.112,1.112,0,0,0,.245-.4,1.2,1.2,0,0,0,.066-.479,2.3,2.3,0,0,0-.1-.527,4.618,4.618,0,0,0-.214-.567q-.132-.293-.284-.6l.715-.454.277.532a2.167,2.167,0,0,0,.28.441,1.074,1.074,0,0,0,.261.227.6.6,0,0,0,.24.084q.114.011.217.011a.449.449,0,0,1,.054,0,.86.86,0,0,0,.662-.348,2.366,2.366,0,0,0,.229-.338q.071-.129.184-.361l.081-.161a1.924,1.924,0,0,1,.416-.58.913.913,0,0,1,.628-.232,1.144,1.144,0,0,1,.777.293,1.338,1.338,0,0,1,.435.918v.029l0,.01v.006a.072.072,0,0,1,0,.023v.016a.1.1,0,0,0,0,.023c0,.024,0,.048.006.074a1.634,1.634,0,0,0,.039.229.44.44,0,0,0,.448.39h.006A.431.431,0,0,1,24.823,59.552Zm-1.429.045q.235-.068.248-.4a.917.917,0,0,0-.11-.5.811.811,0,0,0-.274-.3.473.473,0,0,0-.351-.074q-.106.023-.309.425l-.116.232-.035.077a.184.184,0,0,0-.016.032l-.032.077a3,3,0,0,0,.941.429A.2.2,0,0,0,23.394,59.6ZM18.37,58.431l-.615.616-.619-.619.615-.615Zm-6.215,1.122h.4q.135,0,.267-.011a1.2,1.2,0,0,0,.248-.047.684.684,0,0,0,.2-.1.428.428,0,0,0,.137-.168.494.494,0,0,0,.035-.213,1.162,1.162,0,0,0-.034-.235q-.034-.151-.093-.335t-.138-.38q-.079-.2-.166-.367l.744-.367q.081.184.161.39t.143.424a4.21,4.21,0,0,1,.1.437,2.459,2.459,0,0,1,.039.429,1.386,1.386,0,0,1-.106.557,1.21,1.21,0,0,1-.345.466,1.486,1.486,0,0,1-.528.272,1.735,1.735,0,0,1-.356.063q-.172.011-.321.011h-.489a1.927,1.927,0,0,1-.593-.091A1.227,1.227,0,0,1,11,60.006a.886.886,0,0,1-.179-.25,1.287,1.287,0,0,1-.092-.261,1.346,1.346,0,0,1-.034-.242q0-.115,0-.2,0-.1.008-.342t0-.577q0-.2,0-.433t0-.469q0-.238-.011-.478t-.023-.462q-.015-.222-.035-.417t-.05-.346l.809-.242q.035.187.061.451t.042.562q.016.3.026.609t.01.591q0,.084,0,.177l0,.185q0,.092,0,.179V58.2q0,.122,0,.23t0,.208q0,.1,0,.2t0,.2a2,2,0,0,0,.006.23.24.24,0,0,0,.064.159.684.684,0,0,0,.48.126H12.1A.388.388,0,0,1,12.155,59.552Zm1.506,1.94-.615.616-.619-.619.615-.615Z" transform="translate(7.391 16.029)" fill="#fff"/>
  <path id="Path_31685" data-name="Path 31685" d="M50.622,59.552h.5q.158,0,.335-.011a2.426,2.426,0,0,0,.34-.045,1.421,1.421,0,0,0,.295-.093.463.463,0,0,0,.2-.153.341.341,0,0,0,.05-.19,1.07,1.07,0,0,0-.032-.261,2.785,2.785,0,0,0-.09-.3q-.056-.156-.121-.3t-.127-.277q-.063-.131-.1-.221l.751-.371a2.992,2.992,0,0,1,.172.372,4.567,4.567,0,0,1,.15.45q.064.232.1.458a2.311,2.311,0,0,1,.04.4,1.388,1.388,0,0,1-.106.557,1.21,1.21,0,0,1-.345.466,1.486,1.486,0,0,1-.528.272,1.466,1.466,0,0,1-.234.04q-.14.015-.285.023t-.276.01l-.2,0h-.57a.906.906,0,0,1-.134-.015,1.152,1.152,0,0,1-.156-.04.72.72,0,0,1-.164-.079,2.037,2.037,0,0,1-.246.778,3.306,3.306,0,0,1-.517.7,4.67,4.67,0,0,1-.7.6,6.241,6.241,0,0,1-.8.474l-.361-.744q.226-.116.453-.251a5.133,5.133,0,0,0,.433-.288,4.061,4.061,0,0,0,.385-.324,2.521,2.521,0,0,0,.309-.353,1.724,1.724,0,0,0,.206-.375,1.077,1.077,0,0,0,.076-.4c0-.017,0-.035,0-.053s0-.036,0-.053v0a2.418,2.418,0,0,0-.076-.366q-.053-.185-.114-.359T49,58.893q-.061-.16-.1-.288l.773-.322q.126.377.237.624a1.905,1.905,0,0,0,.224.39.679.679,0,0,0,.23.2A.593.593,0,0,0,50.622,59.552Zm.574,2.433-.548-.551.554-.551.548.548Zm1.218-.006-.548-.548.554-.554.548.551Zm-.6-.122.5.5-.506.506-.5-.5ZM44.9,59.111a2.678,2.678,0,0,0,.295.158q.172.081.358.147a3.148,3.148,0,0,0,.364.106,1.457,1.457,0,0,0,.314.04q.081,0,.217-.008a1.274,1.274,0,0,0,.269-.045.622.622,0,0,0,.229-.116.281.281,0,0,0,.1-.224.7.7,0,0,0-.071-.3,2.086,2.086,0,0,0-.2-.345,3.657,3.657,0,0,0-.29-.359q-.164-.18-.342-.346t-.356-.306a3.86,3.86,0,0,0-.334-.237l.48-.712a6.073,6.073,0,0,1,.585.458,5.173,5.173,0,0,1,.532.543,4.055,4.055,0,0,1,.422.6,2.418,2.418,0,0,1,.256.632,1.348,1.348,0,0,1,0,.661,1.17,1.17,0,0,1-.29.52,1.366,1.366,0,0,1-.532.334,1.85,1.85,0,0,1-.722.1,2.293,2.293,0,0,1-.432-.042,3.468,3.468,0,0,1-.43-.111,3.545,3.545,0,0,1-.406-.161,3.693,3.693,0,0,1-.363-.195ZM43.04,55.5l.828-.271a18.4,18.4,0,0,1,.168,2.285q.006,1.711-.048,2.723l-.844.129a24.869,24.869,0,0,0,.058-2.494Q43.149,56.561,43.04,55.5ZM37.6,59.553h.664a4.525,4.525,0,0,0,.814-.076,7.475,7.475,0,0,0,.823-.2q.409-.124.8-.285t.738-.332a2.92,2.92,0,0,1-.516-.163q-.238-.1-.451-.2t-.409-.168a1.145,1.145,0,0,0-.39-.071.55.55,0,0,0-.211.04.856.856,0,0,0-.182.1.951.951,0,0,0-.15.135,1.8,1.8,0,0,0-.116.143q-.05.069-.082.124l-.045.077-.67-.435a2.557,2.557,0,0,1,.261-.375,2.15,2.15,0,0,1,.337-.325,1.636,1.636,0,0,1,.4-.229,1.234,1.234,0,0,1,.458-.085,1.885,1.885,0,0,1,.493.066,3.912,3.912,0,0,1,.485.166q.24.1.482.217t.488.219a4.328,4.328,0,0,0,.5.171,2.03,2.03,0,0,0,.516.073l-.068.831q-.451.216-.941.458t-1.025.448a8.693,8.693,0,0,1-1.118.345,5.766,5.766,0,0,1-1.218.151h-.715a2.468,2.468,0,0,1-.49-.045,1.481,1.481,0,0,1-.406-.143,1.261,1.261,0,0,1-.327-.251,1.515,1.515,0,0,1-.25-.369,3.788,3.788,0,0,1-2.652.818,4.939,4.939,0,0,1-1.664-.251,1.856,1.856,0,0,1-.975-.748,1.538,1.538,0,0,1-.176-.429,1.872,1.872,0,0,1-.053-.435,1.942,1.942,0,0,1,.064-.5v0a2.828,2.828,0,0,1,.081-.276q.042-.118.077-.2a1.369,1.369,0,0,1,.061-.126l.035-.061.622.39q-.032.058-.074.126a1.074,1.074,0,0,0-.079.158,1.225,1.225,0,0,0-.063.213,1.409,1.409,0,0,0-.026.287.686.686,0,0,0,.042.23,1.136,1.136,0,0,0,.106.221.74.74,0,0,0,.274.258,1.77,1.77,0,0,0,.446.174,3.91,3.91,0,0,0,.591.1q.329.032.709.032.345,0,.654-.026a4.626,4.626,0,0,0,.575-.082,2.748,2.748,0,0,0,.48-.145,1.475,1.475,0,0,0,.372-.218.917.917,0,0,0,.229-.255,1.765,1.765,0,0,0,.145-.3,2.815,2.815,0,0,0,.1-.327q.039-.168.084-.322l.741.2q-.042.174-.089.346a1.271,1.271,0,0,0-.044.356v0a1.148,1.148,0,0,0,.061.322.616.616,0,0,0,.16.246.724.724,0,0,0,.276.156,1.329,1.329,0,0,0,.409.055Zm2.552-3.413-.615.615-.619-.619.615-.615Zm-6.529.97-.548.548-.554-.551.548-.551Zm1.218,0-.548.551-.554-.554.548-.548ZM28.028,55.5l.828-.271a18.378,18.378,0,0,1,.168,2.285q.007,1.711-.048,2.723l-.844.129a24.866,24.866,0,0,0,.058-2.494Q28.138,56.561,28.028,55.5ZM25.9,61.392l-.548.548-.554-.551.548-.551Zm1.218,0-.548.551-.554-.554.548-.548Zm-2.3-1.843H25.1q.158,0,.335-.011a2.427,2.427,0,0,0,.34-.045,1.421,1.421,0,0,0,.295-.093.462.462,0,0,0,.2-.153.341.341,0,0,0,.05-.19,1.07,1.07,0,0,0-.032-.261,2.812,2.812,0,0,0-.09-.3q-.056-.156-.121-.3t-.127-.277q-.063-.131-.1-.221l.751-.371a2.991,2.991,0,0,1,.172.372,4.594,4.594,0,0,1,.15.45q.064.232.1.458a2.311,2.311,0,0,1,.04.4,1.388,1.388,0,0,1-.106.557,1.21,1.21,0,0,1-.345.466,1.486,1.486,0,0,1-.528.272,1.464,1.464,0,0,1-.234.04q-.14.015-.285.023t-.276.01l-.2,0h-.5a.4.4,0,0,1-.156-.03.737.737,0,0,1-.4-.215l-.068-.074-.068.071a.827.827,0,0,1-.606.235,1.429,1.429,0,0,1-.445-.084,2.914,2.914,0,0,1-.432-.18,4.056,4.056,0,0,1-.454-.264,1.155,1.155,0,0,1-.277.274,1.416,1.416,0,0,1-.854.274.433.433,0,0,1-.077-.007,1.614,1.614,0,0,1-.642-.135,3.014,3.014,0,0,1-.045.548,2.427,2.427,0,0,1-.158.538,2.117,2.117,0,0,1-.282.479,1.529,1.529,0,0,1-.417.369h0a1.907,1.907,0,0,1-.325.177,2.443,2.443,0,0,1-.369.122,3.577,3.577,0,0,1-.411.076q-.216.027-.458.04a2.922,2.922,0,0,1-.923-.129,1.991,1.991,0,0,1-.669-.371,1.967,1.967,0,0,1-.509-.736,2.41,2.41,0,0,1-.168-.894,3.5,3.5,0,0,1,.035-.511,3.23,3.23,0,0,1,.106-.472A3.923,3.923,0,0,1,15.7,59q.11-.242.258-.519l.677.49q-.1.18-.2.395a3.979,3.979,0,0,0-.169.445,2.959,2.959,0,0,0-.106.462,1.585,1.585,0,0,0,0,.445,1.411,1.411,0,0,0,.047.185,1.154,1.154,0,0,0,.1.224,1.374,1.374,0,0,0,.168.23,1.078,1.078,0,0,0,.246.2,1.391,1.391,0,0,0,.34.145,1.623,1.623,0,0,0,.45.056h.055a.167.167,0,0,0,.032,0,4.905,4.905,0,0,0,.6-.064,2.017,2.017,0,0,0,.5-.15,1.246,1.246,0,0,0,.379-.264,1.112,1.112,0,0,0,.245-.4,1.2,1.2,0,0,0,.066-.479,2.3,2.3,0,0,0-.1-.527,4.618,4.618,0,0,0-.214-.567q-.132-.293-.284-.6l.715-.454.277.532a2.167,2.167,0,0,0,.28.441,1.074,1.074,0,0,0,.261.227.6.6,0,0,0,.24.084q.114.011.217.011a.449.449,0,0,1,.054,0,.86.86,0,0,0,.662-.348,2.366,2.366,0,0,0,.229-.338q.071-.129.184-.361l.081-.161a1.924,1.924,0,0,1,.416-.58.913.913,0,0,1,.628-.232,1.144,1.144,0,0,1,.777.293,1.338,1.338,0,0,1,.435.918v.029l0,.01v.006a.072.072,0,0,1,0,.023v.016a.1.1,0,0,0,0,.023c0,.024,0,.048.006.074a1.634,1.634,0,0,0,.039.229.44.44,0,0,0,.448.39h.006A.431.431,0,0,1,24.823,59.552Zm-1.429.045q.235-.068.248-.4a.917.917,0,0,0-.11-.5.811.811,0,0,0-.274-.3.473.473,0,0,0-.351-.074q-.106.023-.309.425l-.116.232-.035.077a.184.184,0,0,0-.016.032l-.032.077a3,3,0,0,0,.941.429A.2.2,0,0,0,23.394,59.6ZM18.37,58.431l-.615.616-.619-.619.615-.615Zm-6.215,1.122h.4q.135,0,.267-.011a1.2,1.2,0,0,0,.248-.047.684.684,0,0,0,.2-.1.428.428,0,0,0,.137-.168.494.494,0,0,0,.035-.213,1.162,1.162,0,0,0-.034-.235q-.034-.151-.093-.335t-.138-.38q-.079-.2-.166-.367l.744-.367q.081.184.161.39t.143.424a4.21,4.21,0,0,1,.1.437,2.459,2.459,0,0,1,.039.429,1.386,1.386,0,0,1-.106.557,1.21,1.21,0,0,1-.345.466,1.486,1.486,0,0,1-.528.272,1.735,1.735,0,0,1-.356.063q-.172.011-.321.011h-.489a1.927,1.927,0,0,1-.593-.091A1.227,1.227,0,0,1,11,60.006a.886.886,0,0,1-.179-.25,1.287,1.287,0,0,1-.092-.261,1.346,1.346,0,0,1-.034-.242q0-.115,0-.2,0-.1.008-.342t0-.577q0-.2,0-.433t0-.469q0-.238-.011-.478t-.023-.462q-.015-.222-.035-.417t-.05-.346l.809-.242q.035.187.061.451t.042.562q.016.3.026.609t.01.591q0,.084,0,.177l0,.185q0,.092,0,.179V58.2q0,.122,0,.23t0,.208q0,.1,0,.2t0,.2a2,2,0,0,0,.006.23.24.24,0,0,0,.064.159.684.684,0,0,0,.48.126H12.1A.388.388,0,0,1,12.155,59.552Zm1.506,1.94-.615.616-.619-.619.615-.615Z" transform="translate(7.391 16.029)" fill="#222852"/>
  <path id="Path_31686" data-name="Path 31686" d="M63.791,88.813a1.249,1.249,0,0,1,1.268,1.229v6.61a1.268,1.268,0,0,1-2.536,0v-6.61A1.249,1.249,0,0,1,63.791,88.813Zm-42.953-5.7q.086,6.873.086,6.874v2.54a5.463,5.463,0,0,1-10.923,0v-2.4a1.268,1.268,0,0,1,2.536,0v2.4a2.926,2.926,0,0,0,5.852,0V90.057L18.3,83.148a1.268,1.268,0,0,1,2.536-.03Zm25.7,5.7h5.5a1.23,1.23,0,1,1,0,2.458h-5.5v1.053a5.732,5.732,0,0,1-11.459,0V90.136a1.268,1.268,0,0,1,2.536,0v2.189a3.2,3.2,0,0,0,6.388,0V88.256a1.268,1.268,0,0,1,2.536,0Zm-20.784,0h4.6a1.23,1.23,0,1,1,0,2.458H24.5a1.322,1.322,0,0,1-.254-.025c-.022,0-.042-.014-.064-.019a1.342,1.342,0,0,1-.173-.052c-.027-.011-.051-.027-.077-.04a1.327,1.327,0,0,1-.138-.072c-.025-.017-.047-.038-.071-.056a1.4,1.4,0,0,1-.116-.093c-.022-.021-.038-.045-.058-.067a1.218,1.218,0,0,1-.1-.114c-.017-.025-.029-.052-.045-.078a1.185,1.185,0,0,1-.072-.129c-.013-.03-.021-.062-.031-.093a1.092,1.092,0,0,1-.044-.136c-.008-.035-.008-.072-.013-.107a1.222,1.222,0,0,1-.015-.132l-.085-6.909a1.269,1.269,0,0,1,2.536-.03Zm32.422,0a1.249,1.249,0,0,1,1.268,1.229v6.61a1.268,1.268,0,0,1-2.536,0v-6.61A1.249,1.249,0,0,1,58.176,88.813ZM40.808,91.2a1.22,1.22,0,0,1-.841-.336,1.15,1.15,0,0,1-.351-.819,1.134,1.134,0,0,1,.351-.815,1.258,1.258,0,0,1,1.685,0,1.146,1.146,0,0,1,.347.815,1.161,1.161,0,0,1-.347.819A1.23,1.23,0,0,1,40.808,91.2Zm22.981-3.861A1.221,1.221,0,0,1,62.948,87a1.165,1.165,0,0,1-.351-.819,1.15,1.15,0,0,1,.351-.815,1.231,1.231,0,0,1,1.076-.318,1.178,1.178,0,0,1,.224.067,1.505,1.505,0,0,1,.2.1,1.353,1.353,0,0,1,.181.146,1.134,1.134,0,0,1,0,1.633,1.092,1.092,0,0,1-.181.142,1.532,1.532,0,0,1-.2.108,1.668,1.668,0,0,1-.224.064A1.257,1.257,0,0,1,63.789,87.336ZM28.662,96.157a1.093,1.093,0,0,1,.066.217,1.115,1.115,0,0,1,.027.224,1.151,1.151,0,0,1-.027.228,1.058,1.058,0,0,1-.066.213,1.309,1.309,0,0,1-.108.2,1.627,1.627,0,0,1-.151.176,1.111,1.111,0,0,1-.181.142,1.1,1.1,0,0,1-.428.172,1.211,1.211,0,0,1-.231.023,1.255,1.255,0,0,1-.235-.023,1.47,1.47,0,0,1-.219-.064,1.347,1.347,0,0,1-.208-.108,1.133,1.133,0,0,1-.182-.142,1.282,1.282,0,0,1-.147-.176,1.329,1.329,0,0,1-.112-.2,1.411,1.411,0,0,1-.066-.213,1.144,1.144,0,0,1-.023-.228,1.108,1.108,0,0,1,.023-.224,1.458,1.458,0,0,1,.066-.217,1.5,1.5,0,0,1,.112-.2,1.09,1.09,0,0,1,.147-.176,1.411,1.411,0,0,1,.182-.146,1.5,1.5,0,0,1,.2-.1,1.284,1.284,0,0,1,.224-.067,1.222,1.222,0,0,1,.466,0,1.173,1.173,0,0,1,.224.067,1.483,1.483,0,0,1,.2.1,1.379,1.379,0,0,1,.181.146,1.33,1.33,0,0,1,.151.176A1.474,1.474,0,0,1,28.662,96.157ZM49.11,93.305h3.41a.963.963,0,1,1,0,1.925H49.11a.963.963,0,1,1,0-1.925ZM29.268,92.92a.963.963,0,1,1,0,1.925h-3.41a.963.963,0,1,1,0-1.925ZM11.478,10h15.4a1.412,1.412,0,0,1,1.052,2.408L12.568,27.327a1.477,1.477,0,0,1-2.518-.987L10,11.421A1.445,1.445,0,0,1,11.478,10ZM63.6,63.262H48.183a1.411,1.411,0,0,1-1.053-2.408L62.488,45.935a1.478,1.478,0,0,1,2.52.987l.05,14.919A1.416,1.416,0,0,1,63.6,63.262ZM12.291,50.355,51.726,12.216a7.985,7.985,0,0,1,11.041,0,7.366,7.366,0,0,1,0,10.678L23.333,61.046a7.985,7.985,0,0,1-11.041,0A7.381,7.381,0,0,1,12.291,50.355Z" transform="translate(0.588 0.588)" fill="#222852" fill-rule="evenodd"/>
</svg>
