<svg width="296" height="59" viewBox="0 0 296 59" fill="none" xmlns="http://www.w3.org/2000/svg">
<g clip-path="url(#clip0_449_3007)">
<path d="M1.74118 36C3.01176 39.7969 8 41.4844 8 41.4844L5.92941 45C1.17647 44.7656 0 38.3906 0 38.3906L1.74118 36Z" fill="#FF437C"/>
<path d="M290.662 41C290.969 45.5937 296 47.3281 296 47.3281L294.556 50C290.137 49.7656 289 43.3906 289 43.3906L290.662 41Z" fill="#7943FE"/>
<path d="M61 44.073C64.1007 45.0623 66.6846 42 66.6846 42L68 43.7432C66.5906 46.8055 62.0805 45.8633 62.0805 45.8633L61 44.073Z" fill="#7943FE"/>
<path d="M185 13.2471C188.678 15.5974 192.788 12 192.788 12L194 14.8779C191.361 18.7631 185.865 16.125 185.865 16.125L185 13.2471Z" fill="#FF0072"/>
<path d="M95.5063 5.09327C97.3671 11.1554 101 12.3679 101 12.3679L99.8924 14C94.7089 11.2021 94 5 94 5L95.5063 5.09327Z" fill="#FFC293"/>
<path d="M152.254 55C157.947 58.2493 161.759 56.6482 161.759 56.6482L162 58.6731C155.776 60.18 151 55.9889 151 55.9889L152.254 55Z" fill="#FFC293"/>
<path d="M83.6892 24.7811L76.9292 40.8751C76.8967 40.9533 76.8839 41.0382 76.892 41.1224C76.9001 41.2067 76.9287 41.2876 76.9755 41.3581C77.0222 41.4287 77.0856 41.4866 77.16 41.5269C77.2344 41.5672 77.3175 41.5886 77.4022 41.5892H80.1482C80.25 41.5884 80.3494 41.5574 80.4336 41.5001C80.5178 41.4427 80.5831 41.3617 80.6212 41.2671L81.7382 38.5511C81.7774 38.4575 81.843 38.3772 81.927 38.32C82.0109 38.2629 82.1096 38.2313 82.2112 38.2291H88.4682C88.5701 38.2299 88.6694 38.2609 88.7537 38.3182C88.8379 38.3756 88.9032 38.4566 88.9412 38.5511L90.0582 41.2772C90.0975 41.3708 90.163 41.4511 90.247 41.5083C90.3309 41.5654 90.4297 41.597 90.5312 41.5991H93.2992C93.3842 41.5996 93.4679 41.5788 93.5429 41.5388C93.6179 41.4988 93.6817 41.4408 93.7286 41.3699C93.7755 41.2991 93.8041 41.2177 93.8117 41.1331C93.8193 41.0484 93.8058 40.9632 93.7722 40.8852L86.9892 24.8011C86.9495 24.7085 86.8835 24.6296 86.7995 24.5742C86.7154 24.5187 86.6169 24.4892 86.5162 24.4891H84.1562C84.0572 24.4802 83.9579 24.5039 83.8736 24.5566C83.7893 24.6093 83.7245 24.6882 83.6892 24.7811ZM83.5682 34.1261L84.8762 30.9581C84.9159 30.8642 84.9824 30.784 85.0675 30.7277C85.1525 30.6713 85.2522 30.6413 85.3542 30.6413C85.4562 30.6413 85.5559 30.6713 85.6409 30.7277C85.7259 30.784 85.7925 30.8642 85.8322 30.9581L87.1322 34.1261C87.1647 34.2043 87.1774 34.2892 87.1693 34.3734C87.1613 34.4576 87.1326 34.5386 87.0859 34.6091C87.0391 34.6797 86.9758 34.7376 86.9014 34.7779C86.827 34.8182 86.7438 34.8395 86.6592 34.8401H84.0452C83.9612 34.838 83.879 34.8156 83.8055 34.7749C83.732 34.7341 83.6694 34.6762 83.6231 34.6062C83.5767 34.5361 83.548 34.4558 83.5393 34.3723C83.5306 34.2887 83.5422 34.2042 83.5732 34.1261H83.5682Z" fill="white"/>
<path d="M106.285 26.0138C104.914 24.9268 103.194 24.3762 101.447 24.4648H94.9388C94.8029 24.4653 94.6727 24.5196 94.5766 24.6156C94.4805 24.7117 94.4263 24.8419 94.4258 24.9778V41.0649C94.4263 41.2008 94.4805 41.331 94.5766 41.427C94.6727 41.5231 94.8029 41.5774 94.9388 41.5779H97.5388C97.6747 41.5774 97.8049 41.5231 97.901 41.427C97.997 41.331 98.0513 41.2008 98.0518 41.0649V37.0649C98.0523 36.929 98.1065 36.7988 98.2026 36.7027C98.2987 36.6066 98.4289 36.5524 98.5648 36.5519H101.341C103.114 36.6402 104.857 36.0748 106.241 34.9629C106.873 34.3926 107.37 33.6885 107.695 32.9019C108.021 32.1153 108.166 31.266 108.122 30.4158C108.17 29.5908 108.029 28.7657 107.711 28.0031C107.393 27.2404 106.905 26.5601 106.285 26.0138ZM101.346 33.1049H98.5698C98.4339 33.1043 98.3037 33.0501 98.2076 32.954C98.1115 32.8579 98.0573 32.7277 98.0568 32.5918V28.4178C98.0573 28.2819 98.1115 28.1518 98.2076 28.0557C98.3037 27.9596 98.4339 27.9054 98.5698 27.9048H101.346C102.183 27.8501 103.014 28.0845 103.7 28.5688C103.963 28.8041 104.169 29.0974 104.299 29.4256C104.43 29.7537 104.483 30.1078 104.454 30.4598C104.455 31.6968 104.103 33.1049 101.346 33.1049Z" fill="white"/>
<path d="M121.313 26.0138C119.942 24.9268 118.222 24.3762 116.475 24.4648H109.967C109.831 24.4653 109.701 24.5196 109.605 24.6156C109.509 24.7117 109.455 24.8419 109.454 24.9778V41.0649C109.455 41.2008 109.509 41.331 109.605 41.427C109.701 41.5231 109.831 41.5774 109.967 41.5779H112.567C112.703 41.5774 112.833 41.5231 112.929 41.427C113.025 41.331 113.08 41.2008 113.08 41.0649V37.0649C113.081 36.929 113.135 36.7988 113.231 36.7027C113.327 36.6066 113.457 36.5524 113.593 36.5519H116.369C118.142 36.6403 119.886 36.0749 121.269 34.9629C121.901 34.3926 122.398 33.6885 122.723 32.9019C123.049 32.1153 123.195 31.266 123.15 30.4158C123.193 29.5913 123.051 28.7677 122.733 28.0057C122.415 27.2438 121.93 26.5631 121.313 26.0138ZM116.374 33.1049H113.598C113.462 33.1043 113.332 33.0501 113.236 32.954C113.14 32.8579 113.086 32.7277 113.085 32.5918V28.4178C113.086 28.2819 113.14 28.1518 113.236 28.0557C113.332 27.9596 113.462 27.9054 113.598 27.9048H116.374C117.212 27.8501 118.043 28.0845 118.728 28.5688C118.992 28.8041 119.197 29.0974 119.328 29.4256C119.459 29.7537 119.511 30.1078 119.482 30.4598C119.473 31.6968 119.12 33.1049 116.374 33.1049Z" fill="white"/>
<path d="M127.59 24.4653H124.99C124.854 24.4658 124.724 24.52 124.627 24.6161C124.531 24.7122 124.477 24.8424 124.477 24.9783V41.0653C124.477 41.2012 124.531 41.3314 124.627 41.4275C124.724 41.5236 124.854 41.5778 124.99 41.5783H135.532C135.668 41.5778 135.798 41.5236 135.894 41.4275C135.99 41.3314 136.044 41.2012 136.045 41.0653V38.6513C136.044 38.5154 135.99 38.3853 135.894 38.2892C135.798 38.1931 135.668 38.1389 135.532 38.1383H128.622C128.486 38.1378 128.356 38.0836 128.259 37.9875C128.163 37.8914 128.109 37.7612 128.109 37.6253V24.9783C128.104 24.8427 128.048 24.7139 127.951 24.6185C127.855 24.5231 127.725 24.4683 127.59 24.4653Z" fill="white"/>
<path d="M144.317 24.7266L141.028 30.4807C140.983 30.5598 140.917 30.6256 140.838 30.6713C140.759 30.717 140.67 30.7411 140.578 30.7411C140.487 30.7411 140.397 30.717 140.318 30.6713C140.239 30.6256 140.174 30.5598 140.128 30.4807L136.798 24.7166C136.754 24.6377 136.69 24.572 136.612 24.5259C136.534 24.4799 136.446 24.4553 136.355 24.4546H133.377C133.287 24.4543 133.197 24.478 133.119 24.5234C133.04 24.5688 132.975 24.6343 132.93 24.7131C132.885 24.7918 132.862 24.8812 132.862 24.9719C132.863 25.0627 132.888 25.1516 132.934 25.2296L138.668 34.9167C138.716 34.9956 138.74 35.0865 138.738 35.1787V41.0547C138.739 41.1906 138.793 41.3208 138.889 41.4169C138.985 41.513 139.115 41.5672 139.251 41.5677H141.877C142.013 41.5672 142.143 41.513 142.239 41.4169C142.336 41.3208 142.39 41.1906 142.39 41.0547V35.1807C142.388 35.0885 142.413 34.9976 142.46 34.9187L148.194 25.2316C148.241 25.1536 148.266 25.0647 148.266 24.9739C148.267 24.8832 148.244 24.7939 148.199 24.7151C148.154 24.6363 148.088 24.5708 148.01 24.5254C147.931 24.48 147.842 24.4563 147.751 24.4566H144.764C144.673 24.4619 144.585 24.4892 144.507 24.5362C144.429 24.5833 144.364 24.6487 144.317 24.7266Z" fill="white"/>
<path d="M167.896 34.1115H162.947C162.811 34.111 162.681 34.0568 162.585 33.9607C162.489 33.8646 162.435 33.7344 162.434 33.5985V32.6245C162.435 32.4886 162.489 32.3585 162.585 32.2624C162.681 32.1663 162.811 32.1121 162.947 32.1115H169.747C169.883 32.1121 170.013 32.1663 170.109 32.2624C170.205 32.3585 170.26 32.4886 170.26 32.6245V33.4795C170.371 35.6418 169.66 37.7659 168.268 39.4246C167.575 40.1675 166.728 40.7504 165.786 41.1326C164.845 41.5148 163.831 41.6871 162.816 41.6376C161.708 41.6855 160.602 41.4907 159.577 41.0668C158.552 40.643 157.632 40.0002 156.881 39.1836C155.439 37.4567 154.652 35.2761 154.659 33.0261C154.667 30.776 155.468 28.6007 156.922 26.8835C157.682 26.0678 158.61 25.4261 159.641 25.0025C160.672 24.5789 161.783 24.3834 162.897 24.4295C163.62 24.4247 164.342 24.4988 165.049 24.6505C165.625 24.7616 166.185 24.9405 166.719 25.1835C167.108 25.3709 167.484 25.5827 167.846 25.8175C168.094 25.9758 168.328 26.1541 168.546 26.3505L168.737 26.5715L167.389 28.3015C167.258 28.1705 167.089 28.0095 166.856 27.8185C166.388 27.4997 165.881 27.2429 165.347 27.0545C164.569 26.7326 163.735 26.5684 162.893 26.5715C162.086 26.5405 161.282 26.6907 160.541 27.011C159.799 27.3313 159.139 27.8136 158.608 28.4225C157.565 29.7318 156.994 31.3551 156.989 33.0293C156.983 34.7035 157.543 36.3305 158.578 37.6465C159.097 38.2535 159.747 38.7353 160.479 39.0558C161.21 39.3763 162.005 39.5273 162.803 39.4976C163.487 39.5291 164.169 39.4154 164.806 39.1639C165.442 38.9124 166.018 38.5289 166.495 38.0386C166.966 37.5257 167.331 36.925 167.569 36.2709C167.807 35.6167 167.914 34.922 167.883 34.2265V34.1155L167.896 34.1115Z" fill="#FFE163"/>
<path d="M183.004 33.9199H176.044C175.908 33.9204 175.778 33.9746 175.682 34.0707C175.586 34.1668 175.532 34.297 175.531 34.4329V38.6769C175.532 38.8128 175.586 38.943 175.682 39.0391C175.778 39.1352 175.908 39.1894 176.044 39.1899H184.383C184.519 39.1904 184.649 39.2447 184.746 39.3408C184.842 39.4368 184.896 39.567 184.896 39.7029V40.7289C184.896 40.8648 184.842 40.995 184.746 41.0911C184.649 41.1872 184.519 41.2414 184.383 41.2419H173.79C173.654 41.2414 173.524 41.1872 173.428 41.0911C173.332 40.995 173.278 40.8648 173.277 40.7289V25.2889C173.278 25.153 173.332 25.0228 173.428 24.9267C173.524 24.8306 173.654 24.7764 173.79 24.7759H184.372C184.508 24.7764 184.638 24.8306 184.735 24.9267C184.831 25.0228 184.885 25.153 184.885 25.2889V26.3149C184.885 26.4508 184.831 26.581 184.735 26.677C184.638 26.7731 184.508 26.8274 184.372 26.8279H176.033C175.897 26.8284 175.767 26.8826 175.671 26.9787C175.575 27.0748 175.521 27.205 175.52 27.3409V31.3949C175.521 31.5308 175.575 31.661 175.671 31.7571C175.767 31.8531 175.897 31.9074 176.033 31.9079H182.994C183.13 31.9084 183.26 31.9626 183.357 32.0587C183.453 32.1548 183.507 32.285 183.507 32.4209V33.3969C183.51 33.4647 183.5 33.5325 183.476 33.596C183.452 33.6596 183.415 33.7176 183.368 33.7665C183.321 33.8154 183.265 33.8543 183.202 33.8807C183.14 33.907 183.072 33.9204 183.004 33.9199Z" fill="#FFE163"/>
<path d="M194.742 24.7774C196.405 24.682 198.045 25.1929 199.359 26.2154C199.924 26.7223 200.367 27.3501 200.656 28.0519C200.945 28.7538 201.072 29.5117 201.028 30.2694C201.066 31.433 200.732 32.5782 200.073 33.5384C199.407 34.4307 198.473 35.0863 197.407 35.4094V35.5204L201.441 40.8204V41.2634H199.258C199.179 41.262 199.101 41.2433 199.03 41.2088C198.959 41.1743 198.896 41.1247 198.846 41.0634L195.034 36.0144C194.986 35.9514 194.923 35.9006 194.852 35.8659C194.78 35.8312 194.702 35.8136 194.622 35.8144H190.922C190.786 35.8149 190.656 35.8692 190.56 35.9652C190.464 36.0613 190.41 36.1915 190.409 36.3274V40.7334C190.409 40.8693 190.355 40.9995 190.258 41.0956C190.162 41.1917 190.032 41.2459 189.896 41.2464H188.669C188.533 41.2459 188.403 41.1917 188.307 41.0956C188.211 40.9995 188.157 40.8693 188.156 40.7334V25.2934C188.157 25.1575 188.211 25.0273 188.307 24.9312C188.403 24.8351 188.533 24.7809 188.669 24.7804L194.742 24.7774ZM197.629 27.7144C196.773 27.0856 195.723 26.7761 194.662 26.8394H190.92C190.784 26.8399 190.654 26.8941 190.558 26.9902C190.462 27.0863 190.408 27.2165 190.407 27.3524V33.2464C190.408 33.3823 190.462 33.5125 190.558 33.6086C190.654 33.7047 190.784 33.7589 190.92 33.7594H194.853C195.86 33.8111 196.851 33.5046 197.653 32.8944C198.329 32.2002 198.705 31.2688 198.701 30.3003C198.697 29.3318 198.314 28.4034 197.633 27.7144H197.629Z" fill="#FFE163"/>
<path d="M216.96 30.1889L212.876 35.45C212.827 35.5099 212.766 35.5587 212.697 35.5932C212.628 35.6277 212.553 35.6471 212.475 35.65H212.235C212.157 35.6513 212.08 35.6339 212.01 35.599C211.94 35.5642 211.88 35.5131 211.834 35.45L207.75 30.2289C207.684 30.1453 207.593 30.0844 207.491 30.0548C207.388 30.0251 207.279 30.0283 207.178 30.0637C207.078 30.0992 206.99 30.1652 206.929 30.2525C206.867 30.3398 206.835 30.4442 206.835 30.551V40.73C206.835 40.8659 206.781 40.9961 206.685 41.0922C206.589 41.1882 206.458 41.2425 206.323 41.243H205.075C204.94 41.2425 204.809 41.1882 204.713 41.0922C204.617 40.9961 204.563 40.8659 204.562 40.73L204.593 25.2899C204.593 25.154 204.647 25.0239 204.743 24.9278C204.839 24.8317 204.97 24.7775 205.105 24.7769H205.99C206.068 24.7756 206.145 24.793 206.215 24.8278C206.285 24.8627 206.345 24.9138 206.391 24.9769L211.983 32.159C212.031 32.2202 212.093 32.2697 212.164 32.3037C212.234 32.3377 212.312 32.3553 212.39 32.3553C212.468 32.3553 212.546 32.3377 212.616 32.3037C212.687 32.2697 212.749 32.2202 212.798 32.159L218.36 24.9769C218.407 24.9154 218.467 24.8654 218.536 24.8307C218.606 24.7961 218.682 24.7777 218.76 24.7769H219.645C219.78 24.7775 219.911 24.8317 220.007 24.9278C220.103 25.0239 220.157 25.154 220.158 25.2899V40.73C220.157 40.8659 220.103 40.9961 220.007 41.0922C219.911 41.1882 219.78 41.2425 219.645 41.243H218.418C218.282 41.2425 218.151 41.1882 218.055 41.0922C217.959 40.9961 217.905 40.8659 217.905 40.73V30.5C217.901 30.3915 217.864 30.2869 217.799 30.2001C217.734 30.1134 217.644 30.0487 217.541 30.0148C217.438 29.9809 217.327 29.9794 217.223 30.0105C217.119 30.0417 217.027 30.104 216.96 30.1889Z" fill="#FFE163"/>
<path d="M237.704 41.2429H236.436C236.334 41.2422 236.235 41.2112 236.15 41.1538C236.066 41.0965 236.001 41.0155 235.963 40.921L234.763 38.0139C234.723 37.9203 234.658 37.8401 234.574 37.783C234.49 37.7258 234.391 37.6942 234.29 37.6919H226.61C226.508 37.6927 226.409 37.7237 226.324 37.781C226.24 37.8384 226.175 37.9194 226.137 38.0139L224.937 40.921C224.898 41.0146 224.832 41.0949 224.748 41.152C224.664 41.2092 224.565 41.2408 224.464 41.2429H223.217C223.132 41.2434 223.048 41.2226 222.973 41.1826C222.898 41.1426 222.834 41.0845 222.787 41.0137C222.74 40.9429 222.712 40.8615 222.704 40.7768C222.697 40.6922 222.71 40.607 222.744 40.5289L229.232 25.0889C229.271 24.9963 229.337 24.9174 229.422 24.862C229.506 24.8065 229.604 24.777 229.705 24.7769H231.193C231.294 24.7756 231.393 24.8047 231.477 24.8603C231.561 24.9159 231.627 24.9955 231.666 25.0889L238.174 40.5289C238.206 40.6068 238.219 40.6915 238.211 40.7755C238.203 40.8595 238.175 40.9402 238.128 41.0107C238.082 41.0812 238.019 41.1392 237.945 41.1797C237.871 41.2202 237.788 41.2419 237.704 41.2429ZM227.856 35.7009H233.047C233.131 35.7004 233.215 35.679 233.289 35.6387C233.363 35.5984 233.427 35.5405 233.473 35.4699C233.52 35.3994 233.549 35.3184 233.557 35.2342C233.565 35.15 233.552 35.0651 233.52 34.9869L230.935 28.6999C230.895 28.606 230.829 28.5258 230.744 28.4695C230.659 28.4131 230.559 28.3831 230.457 28.3831C230.355 28.3831 230.255 28.4131 230.17 28.4695C230.085 28.5258 230.018 28.606 229.979 28.6999L227.374 34.9869C227.341 35.0658 227.329 35.1514 227.337 35.2363C227.346 35.3211 227.375 35.4025 227.423 35.4732C227.471 35.5439 227.535 35.6017 227.611 35.6414C227.686 35.6811 227.77 35.7016 227.856 35.7009Z" fill="#FFE163"/>
<path d="M254.241 41.2429H253.326C253.249 41.2429 253.173 41.2258 253.104 41.1927C253.035 41.1597 252.974 41.1116 252.926 41.0519L243.973 29.8969C243.906 29.8138 243.815 29.7534 243.713 29.7242C243.61 29.6949 243.501 29.6982 243.401 29.7336C243.301 29.7689 243.214 29.8346 243.152 29.9215C243.091 30.0085 243.058 30.1124 243.058 30.2189V40.7299C243.057 40.8658 243.003 40.996 242.907 41.0921C242.811 41.1882 242.681 41.2424 242.545 41.2429H241.318C241.182 41.2424 241.052 41.1882 240.955 41.0921C240.859 40.996 240.805 40.8658 240.805 40.7299V25.2899C240.805 25.154 240.859 25.0238 240.955 24.9277C241.052 24.8316 241.182 24.7774 241.318 24.7769H242.233C242.309 24.7779 242.385 24.7955 242.454 24.8284C242.523 24.8614 242.584 24.909 242.633 24.9679L251.555 36.0229C251.621 36.1064 251.712 36.1671 251.815 36.1966C251.917 36.2261 252.026 36.2229 252.127 36.1875C252.228 36.1521 252.315 36.0862 252.377 35.999C252.438 35.9118 252.471 35.8076 252.471 35.7009V25.2899C252.471 25.154 252.525 25.0238 252.622 24.9277C252.718 24.8316 252.848 24.7774 252.984 24.7769H254.231C254.367 24.7774 254.497 24.8316 254.593 24.9277C254.689 25.0238 254.743 25.154 254.744 25.2899V40.7299C254.745 40.7969 254.734 40.8636 254.709 40.9259C254.685 40.9883 254.648 41.0451 254.601 41.093C254.554 41.1408 254.498 41.1788 254.436 41.2045C254.374 41.2303 254.308 41.2433 254.241 41.2429Z" fill="#FFE163"/>
<path d="M269.107 24.7771H270.484C270.575 24.7768 270.665 24.8005 270.743 24.8459C270.822 24.8913 270.887 24.9568 270.932 25.0355C270.977 25.1143 271 25.2037 270.999 25.2944C270.999 25.3852 270.974 25.4741 270.928 25.5521L265.445 34.8162C265.398 34.8951 265.374 34.986 265.376 35.0782V40.7312C265.375 40.8671 265.321 40.9972 265.225 41.0933C265.129 41.1894 264.998 41.2436 264.862 41.2442H263.616C263.48 41.2436 263.349 41.1894 263.253 41.0933C263.157 40.9972 263.103 40.8671 263.102 40.7312V35.0672C263.104 34.9753 263.08 34.8848 263.033 34.8062L257.55 25.5421C257.504 25.4642 257.479 25.3753 257.479 25.2847C257.478 25.194 257.501 25.1047 257.546 25.026C257.591 24.9472 257.656 24.8818 257.734 24.8363C257.813 24.7908 257.902 24.767 257.992 24.7671H259.371C259.461 24.7677 259.55 24.7923 259.627 24.8383C259.705 24.8843 259.769 24.9502 259.814 25.0291L263.686 31.7291C263.699 31.7429 263.706 31.7606 263.706 31.7791L264.22 32.9062H264.269L264.812 31.7692C264.822 31.7592 264.822 31.7492 264.832 31.7392L268.655 25.0391C268.701 24.9595 268.766 24.8934 268.846 24.8474C268.925 24.8013 269.015 24.7771 269.107 24.7771Z" fill="#FFE163"/>
<path d="M62.549 48.9991H31.5723C31.4213 48.9991 31.2771 48.9395 31.1699 48.8331C31.0628 48.7267 31.0011 48.5818 31 48.4308V17.5762C31.0005 17.4243 31.0609 17.2787 31.168 17.1709C31.275 17.0631 31.4204 17.0016 31.5723 17H62.549C62.7016 17.0005 62.8473 17.061 62.9552 17.1689C63.0631 17.2769 63.1246 17.4236 63.1251 17.5762V31.5684H49.9259V34.4288H63.1251V48.4288C63.1247 48.5041 63.1094 48.5792 63.0802 48.6485C63.0511 48.7179 63.0087 48.7802 62.9552 48.8331C62.9017 48.886 62.8393 48.9287 62.7697 48.9571C62.7 48.9856 62.6242 48.9995 62.549 48.9991Z" fill="#FFE163"/>
<path d="M30.1309 38.8324C28.7972 41.7148 25.8875 45.1969 24.3784 46.8631C23.8694 47.4131 22.5921 45.7863 21.9518 45.3749C22.1974 42.4406 19.1115 34.7435 18.4001 28.0747C18.2292 26.5334 18.2098 23.6008 18.7826 21.167L19.0077 21.4576C19.0622 22.6442 19.2792 23.8331 19.6848 25.0318C20.5164 27.5139 21.7177 29.8278 23.2117 31.9678C24.8406 34.2822 26.6577 36.3756 28.7825 38.2432C29.2165 38.6283 29.673 38.4909 30.1309 38.8324Z" fill="#BD0C34"/>
<path d="M23.8198 43.4806C23.9325 43.9637 23.6295 44.309 23.5462 44.8083C23.478 45.2556 23.2212 45.6932 22.8268 45.888C22.4911 45.6102 22.1902 45.3482 21.9698 45.1772C22.0652 42.1204 19.117 34.6659 18.4033 28.1597C20.4504 33.1006 22.6351 38.2841 23.8198 43.4806Z" fill="url(#paint0_linear_449_3007)"/>
<path d="M47.6109 14.09C44.0551 14.8006 40.3065 15.6128 37.657 18.0843C34.7017 20.8328 33.7851 24.9903 32.13 28.6292C30.9867 31.1279 30.6919 34.1154 30.2564 37.0058C30.0712 36.9331 29.8884 36.8518 29.7082 36.7619C27.4352 35.9263 26.546 36.8159 24.6624 35.435C22.7877 34.0622 20.4678 29.8076 19.6724 27.3754C19.0144 25.3997 18.3601 22.637 18.7363 20.6469C19.1214 18.665 19.8786 15.2491 21.2554 13.9215C22.5166 12.7011 28.9274 11.2898 30.6499 10.9409C36.1743 9.82908 42.516 10.6098 46.1245 13.0272L46.6667 13.1174C46.5813 13.1207 46.4884 13.15 46.4132 13.1956L46.6667 13.1174C47.186 13.0545 47.7448 13.5717 47.6109 14.09Z" fill="url(#paint1_linear_449_3007)"/>
<g style="mix-blend-mode:soft-light" opacity="0.5">
<path d="M24.6634 35.4349C22.7887 34.0622 20.4688 29.8075 19.6734 27.3753C19.0154 25.3996 18.3611 22.637 18.7373 20.6469C19.0433 19.0529 19.5958 16.5343 20.5167 14.9165C19.6633 19.8242 21.1735 24.153 24.4585 29.0373C25.7192 30.8956 26.1491 28.5272 26.2788 30.7714C26.3728 32.538 26.0044 34.2883 25.7214 36.0354C25.3999 35.9024 25.0592 35.7189 24.6634 35.4349Z" fill="#F5F197"/>
</g>
<g style="mix-blend-mode:soft-light" opacity="0.3">
<path d="M47.6114 14.09C45.1249 14.5882 42.5379 15.1416 40.2986 16.2802C39.263 16.2604 38.2248 16.1723 37.201 16.0153C34.1537 15.5004 31.269 14.3292 28.2581 13.6504C26.2913 13.2135 24.1965 13.0038 22.2246 13.3196C24.4672 12.2664 29.208 11.2362 30.6504 10.9409C36.1748 9.82908 42.5164 10.6098 46.1249 13.0272L46.6672 13.1174C46.5818 13.1207 46.4889 13.15 46.4137 13.1956L46.6672 13.1174C47.1864 13.0545 47.7452 13.5717 47.6114 14.09Z" fill="#3DFFFF"/>
</g>
<path d="M49.1443 17.2373C46.4647 17.6061 40.1422 18.8686 33.9484 27.4295C32.9336 28.8286 32.2609 30.2315 31.807 31.5405C30.9497 33.6946 30.4669 36.2447 30.6537 38.6406C30.0472 39.1002 28.9506 39.271 26.9055 37.0325C25.2549 36.1471 25.3355 38.2307 23.6135 32.8497C23.2904 31.7932 23.2891 30.6558 23.4176 29.5562C23.9984 24.6761 26.4792 20.056 30.2131 16.8755C33.964 13.6943 38.9181 11.9888 43.8266 12.2007C45.1887 12.2592 46.5997 12.4782 47.7162 13.2645C48.4547 13.7833 48.9562 16.3552 49.1443 17.2373Z" fill="#DACFE5"/>
<path d="M29.032 38.7378C27.7571 37.8378 26.3988 35.4445 26.4517 31.5085C23.7657 31.4928 23.3417 30.2606 23.4171 29.5564C23.9978 24.6763 26.4787 20.0562 30.2126 16.8757C30.4665 16.6606 30.7236 16.454 30.9839 16.2558C33.2285 15.2538 34.5818 15.7487 37.0241 17.2021C40.4697 15.632 44.9993 16.2178 44.8458 18.2163C40.7375 20.3424 36.7892 23.5055 33.9479 27.4298C32.933 28.8288 32.2604 30.2318 31.8065 31.5407C30.9492 33.6948 30.4664 36.2449 30.6532 38.6408C30.3038 38.8938 29.7892 39.0762 29.032 38.7378Z" fill="url(#paint2_radial_449_3007)"/>
<path d="M51.3918 16.7486C51.4756 16.9249 51.5443 17.1532 51.5953 17.365C51.6361 17.5345 51.4794 17.6859 51.3155 17.6495C50.479 17.4681 48.7853 17.679 48.471 17.734C45.4728 18.2691 42.6922 19.5655 40.2662 21.404C37.9475 23.1443 35.9706 25.3161 34.2652 27.657C33.3955 28.8281 32.7018 30.1292 32.1994 31.5084C31.6962 32.8706 31.2696 34.2212 31.0607 35.6746C30.9676 36.3624 30.91 37.083 30.9111 37.7757C30.9129 38.0407 30.9665 38.3208 30.9511 38.5866C30.9475 38.715 30.875 38.829 30.7669 38.9101C29.2928 39.9336 27.5622 38.0849 26.8834 37.3415C26.8207 37.2669 26.7415 37.2101 26.6541 37.1622C26.349 37.0115 26.0573 36.9886 25.7226 36.9588C25.6252 36.9455 25.5303 36.9235 25.4379 36.8929C25.4256 36.8705 25.4076 36.8484 25.384 36.8265C25.2578 36.6604 25.4023 36.4153 25.6174 36.4498C25.9876 36.5124 26.3653 36.5491 26.7328 36.5434C26.9529 36.7801 27.1871 37.0133 27.4355 37.2431C27.7193 37.5058 28.0032 37.7685 28.3116 38.0046C28.7866 38.3454 29.4009 38.7492 30.02 38.614C30.2154 38.5808 30.3425 38.5503 30.3346 38.3453C30.3056 38.0386 30.3108 37.7305 30.3077 37.4313C30.3078 36.3281 30.4192 35.2291 30.6514 34.1596C31.0245 32.5288 31.5758 30.8655 32.3387 29.365C32.99 28.0741 33.8351 26.9296 34.7062 25.7927C37.6142 22.0454 42.3351 18.955 46.2191 17.4448C48.9071 16.4086 48.5713 15.6861 48.0247 15.2626C43.2988 11.5971 40.4667 12.6646 40.4667 12.6646C39.394 12.7916 38.3336 13.0123 37.2935 13.3176C35.881 13.723 34.5174 14.2889 33.2275 14.9888C32.7251 15.2648 32.1891 15.5592 31.7051 15.8687C30.4792 16.6773 30.2645 16.8737 30.2132 16.8757C30.2858 16.7617 31.5037 15.7482 31.6288 15.6664C32.0938 15.3063 32.5512 14.9722 33.0442 14.6709C35.309 13.3089 37.8316 12.4159 40.4429 12.0497C41.9228 11.8385 43.451 11.7708 44.9201 11.9448C45.7534 12.0409 47.035 12.453 47.7531 12.8871C49.7763 14.1172 50.8904 15.7246 51.3918 16.7486Z" fill="url(#paint3_linear_449_3007)"/>
<path d="M18.9098 45.8857C18.3189 45.8658 18.4229 45.2375 18.6077 44.931C18.9452 44.3706 19.7565 44.5616 20.2577 44.6961C19.4578 42.589 22.6722 43.8842 23.1067 43.8418C23.7885 43.7812 23.9945 42.918 24.9491 43.2744C25.5916 43.5232 26.0292 44.2247 25.9703 44.9111C26.7518 44.3335 27.5049 45.6727 26.6826 46.0808C28.0171 46.3114 29.6573 48.9161 27.5524 49.1088C29.1029 50.2803 27.842 52.8348 25.9744 52.3085C26.4868 53.8366 24.1413 54.6629 23.5872 53.162C23.2168 54.8611 20.5406 54.2122 20.9888 52.5357C20.9043 53.4455 19.7317 53.2001 19.3122 52.746C18.688 52.086 18.7309 50.545 18.7309 50.545C18.7309 50.545 18.2715 50.8279 17.8552 50.0144C17.614 49.5277 18.3568 48.8319 18.3369 48.3196C17.0894 47.906 17.6125 45.953 18.9098 45.8857Z" fill="url(#paint4_radial_449_3007)"/>
<path d="M26.0427 44.7798C26.2772 44.651 26.5176 44.6759 26.7019 44.7971C26.8766 44.8929 27.0035 45.0762 27.0708 45.2703C27.13 45.4732 27.1297 45.687 27.0175 45.8795C26.98 45.9437 26.928 45.9999 26.8615 46.048C27.0058 46.0938 27.148 46.1595 27.2882 46.2453C27.6206 46.4377 27.9228 46.7339 28.1663 47.058C28.4097 47.3821 28.578 47.7519 28.6165 48.0839C28.651 48.3135 28.6166 48.5286 28.5126 48.7122C28.3756 48.9313 28.1172 49.1038 27.7264 49.1703C28.0716 49.4733 28.2576 49.8595 28.307 50.251C28.3584 50.6937 28.2478 51.1513 28.0232 51.5363C27.822 51.8605 27.5333 52.1368 27.1806 52.3044C26.8526 52.4453 26.487 52.5023 26.0732 52.4157C26.1725 52.771 26.1078 53.0899 25.9552 53.3438C25.7621 53.6592 25.4456 53.8767 25.0984 53.9671C24.7431 54.0664 24.3572 54.0386 24.0418 53.8455C23.8316 53.7168 23.6529 53.5185 23.5392 53.2321C23.5296 53.2068 23.5372 53.1809 23.5536 53.1632C23.7875 53.462 24.0605 53.6652 24.4484 53.7443C24.4885 53.7484 24.5315 53.7553 24.5775 53.7649C24.583 53.759 24.5857 53.7561 24.5857 53.7561C24.5971 53.7556 24.6114 53.7579 24.6287 53.7629C24.6515 53.7621 24.68 53.761 24.7141 53.7596C24.7255 53.7592 24.7312 53.759 24.7312 53.759C24.754 53.7581 24.7767 53.7572 24.7995 53.7563C24.8278 53.7495 24.8533 53.7457 24.876 53.7448C24.9043 53.738 24.9325 53.7312 24.9608 53.7244C25.1555 53.6741 25.3483 53.5726 25.5131 53.4123C25.5624 53.3591 25.6057 53.3004 25.6431 53.2362C25.686 53.1661 25.7201 53.0878 25.7452 53.0013C25.7649 52.9208 25.7703 52.8379 25.7613 52.7527L25.7586 52.6844L25.7376 52.5826C25.7108 52.481 25.6811 52.3767 25.6485 52.2696L25.639 52.2443C25.6199 52.1937 25.635 52.1418 25.6589 52.0982L25.6754 52.0804C25.7164 52.0361 25.767 52.017 25.8271 52.0232L25.8612 52.0219L25.8701 52.0301C25.8783 52.0212 25.9562 52.0439 25.9562 52.0439L26.1201 52.0803C26.172 52.0954 26.2321 52.1016 26.258 52.1092C26.2751 52.1085 26.3523 52.1141 26.3523 52.1141C26.4552 52.1215 26.5549 52.1205 26.6515 52.111C26.864 52.0772 27.0663 52.0009 27.2495 51.8741C27.4245 51.7561 27.5887 51.5787 27.7092 51.3774C27.8379 51.1672 27.9229 50.933 27.9478 50.6925C27.9727 50.4521 27.9457 50.1966 27.8517 49.9779C27.8018 49.8658 27.7377 49.7571 27.6595 49.6518L27.6056 49.5855L27.4378 49.4466C27.3402 49.3563 27.1989 49.242 27.0665 49.136C27.0222 49.0949 27.0025 49.0273 27.0169 48.9583L27.0409 48.9146C27.0648 48.8709 27.1065 48.8436 27.166 48.8328L27.4126 48.7976C27.5062 48.7854 27.5828 48.7739 27.6422 48.763C27.7187 48.7515 27.8035 48.7311 27.8629 48.7203L27.9388 48.6917C28.0481 48.6447 28.1397 48.5813 28.1883 48.511L28.213 48.4844C28.2766 48.3622 28.2763 48.1313 28.2164 47.9113C28.13 47.6666 27.9923 47.4239 27.83 47.2078C27.6595 47.0006 27.4726 46.8112 27.2699 46.6565C27.2171 46.6187 27.1616 46.5838 27.1033 46.5518C27.051 46.5253 27.0014 46.4959 26.9545 46.4635L26.8678 46.4326C26.833 46.4169 26.764 46.4025 26.6862 46.3798C26.5394 46.3427 26.4014 46.3139 26.2717 46.2761C26.2489 46.277 26.2316 46.272 26.2198 46.261C26.1761 46.2371 26.1488 46.1954 26.138 46.1359C26.1278 46.0936 26.1435 46.0587 26.1593 46.0239C26.1698 46.0007 26.1889 45.98 26.2167 45.9618C26.3254 45.8978 26.4423 45.8248 26.5258 45.7703L26.6584 45.6625C26.6694 45.6507 26.6805 45.6445 26.6919 45.6441C26.6913 45.627 26.7159 45.6004 26.7159 45.6004L26.7228 45.5574C26.731 45.5485 26.7392 45.5397 26.7392 45.5397L26.7303 45.5314C26.7353 45.5141 26.7374 45.4941 26.7365 45.4713C26.7408 45.36 26.6754 45.2171 26.586 45.118C26.5624 45.0961 26.5389 45.0799 26.5157 45.0694C26.4516 45.032 26.3828 45.0232 26.3095 45.0432L26.2924 45.0438L26.2671 45.0534L26.2418 45.0629C26.2336 45.0718 26.1078 45.1365 26.1078 45.1365L25.9909 45.2094L25.9239 45.2462L25.9068 45.2469L25.8986 45.2558L25.8904 45.2646C25.8481 45.2748 25.788 45.2686 25.7443 45.2446L25.7265 45.2282C25.6828 45.2043 25.6549 45.1455 25.6611 45.0854L25.6605 45.0683L25.6592 45.0341C25.6723 44.931 25.669 44.8456 25.6745 44.7684L25.6774 44.6229L25.6768 44.6058L25.6755 44.5717C25.6376 44.2567 25.4897 43.9717 25.3022 43.7651C25.2189 43.6771 25.1277 43.6037 25.0285 43.5448C24.8974 43.4729 24.7759 43.4263 24.655 43.3968C24.4392 43.3453 24.2616 43.3949 24.1112 43.4863C23.8774 43.6321 23.6721 43.8539 23.392 43.9075C23.0866 43.9706 22.9098 43.8235 22.9269 43.8229C23.1243 43.8409 23.302 43.7913 23.503 43.6809C23.6034 43.6256 23.6944 43.5452 23.7942 43.4729C23.8106 43.4551 23.8328 43.4372 23.8606 43.419C23.9433 43.3474 24.026 43.2758 24.1006 43.213C24.1765 43.1844 24.2523 43.1558 24.337 43.1354C24.5154 43.1029 24.721 43.112 24.9729 43.2134C25.0653 43.2441 25.1495 43.2836 25.2255 43.3319C25.7245 43.6291 26.0455 44.1896 26.0427 44.7798Z" fill="#B89DC2"/>
<path opacity="0.5" d="M19.8584 25.9825C19.858 25.7516 19.6652 25.4084 19.6053 25.1884C19.5256 24.895 19.4544 24.6041 19.392 24.3158C19.272 23.7218 19.192 23.1262 19.1518 22.5291C19.0802 21.3431 19.1699 20.1253 19.4153 18.9527C19.5609 18.2971 19.7312 17.6149 19.9984 17.0059C20.1014 17.6775 19.9869 18.4773 19.971 19.1706C19.9605 19.9293 19.9472 20.691 19.9312 21.4556C19.9097 22.9616 19.8854 24.4705 19.8584 25.9825Z" fill="white"/>
<path d="M20.7261 52.3578C20.2745 52.4009 19.8301 52.1872 19.5348 51.848C19.4201 51.7584 19.3219 51.651 19.2237 51.5436C19.2011 51.402 19.1846 51.2715 19.1743 51.1522C19.1221 50.9831 19.0898 50.8105 19.0773 50.6342C18.942 50.6737 18.6175 50.6862 18.3033 50.0827C18.0717 49.6213 18.7809 48.9439 18.7706 48.4568C17.5573 48.0419 18.0659 46.1579 19.312 46.0926C18.747 46.0802 18.8517 45.469 19.0283 45.1714C19.3576 44.6198 20.1347 44.8121 20.6271 44.9384C20.0361 43.3706 21.7182 43.7417 22.7282 43.9848C22.7996 44.0618 22.8568 44.1423 22.9 44.2261C22.8827 44.2211 22.8656 44.2218 22.8488 44.2281C22.3958 44.2371 21.9837 44.4155 21.7556 44.9289C21.5829 45.329 21.648 45.6857 21.8396 45.9947C21.6987 46.1113 21.549 46.2198 21.4081 46.3364C21.1517 46.5601 20.9231 46.8426 20.9104 47.1767C20.9048 47.2538 20.9246 47.3215 20.9443 47.3891C20.9371 47.646 21.0147 47.8824 21.2023 48.089C20.6936 48.4251 20.2832 48.8686 20.3963 49.5826C20.4322 49.8463 20.5337 50.0391 20.6675 50.1793C20.6803 50.29 20.7279 50.4164 20.792 50.5251C20.6767 50.6379 20.5818 50.7641 20.5074 50.9039C20.3252 51.2787 20.3184 51.7664 20.5707 52.0987C20.5885 52.1151 20.6062 52.1315 20.6239 52.148C20.6498 52.2268 20.6839 52.2967 20.7261 52.3578Z" fill="url(#paint5_linear_449_3007)"/>
<path d="M26.6166 31.7588C26.4766 32.782 26.5478 33.737 26.6507 34.4087C26.6899 34.7578 26.7517 35.0291 26.7767 35.2333C26.7929 35.4294 26.7886 35.5407 26.7552 35.5591C26.7128 35.5693 26.6494 35.4777 26.5485 35.302C26.4647 35.1257 26.3346 34.8571 26.2353 34.5017C26.0292 33.817 25.87 32.7969 26.0149 31.6795C26.0962 31.129 26.2301 30.6107 26.4089 30.1505C26.5796 29.6992 26.7789 29.3238 26.9808 29.0166C27.3675 28.403 27.6979 28.0994 27.7593 28.1398C27.9258 28.2446 26.8788 29.6962 26.6166 31.7588Z" fill="#D9CFE4"/>
</g>
<defs>
<linearGradient id="paint0_linear_449_3007" x1="12.3397" y1="33.6797" x2="16.088" y2="28.8822" gradientUnits="userSpaceOnUse">
<stop offset="0.4" stop-color="#FF1C30"/>
<stop offset="1" stop-color="#E30040"/>
</linearGradient>
<linearGradient id="paint1_linear_449_3007" x1="17.3323" y1="18.1784" x2="28.4162" y2="4.04888" gradientUnits="userSpaceOnUse">
<stop offset="0.4" stop-color="#FF1C30"/>
<stop offset="1" stop-color="#E30040"/>
</linearGradient>
<radialGradient id="paint2_radial_449_3007" cx="0" cy="0" r="1" gradientUnits="userSpaceOnUse" gradientTransform="translate(30.4752 29.4029) rotate(-47.2169) scale(20.9803)">
<stop stop-color="white"/>
<stop offset="0.8" stop-color="#EBE1EF"/>
</radialGradient>
<linearGradient id="paint3_linear_449_3007" x1="14.4968" y1="7.43546" x2="35.3411" y2="16.566" gradientUnits="userSpaceOnUse">
<stop stop-color="white"/>
<stop offset="0.7" stop-color="#FF9BA2"/>
<stop offset="1" stop-color="#B89DC2"/>
</linearGradient>
<radialGradient id="paint4_radial_449_3007" cx="0" cy="0" r="1" gradientUnits="userSpaceOnUse" gradientTransform="translate(20.0378 46.7485) rotate(-47.2169) scale(7.58964)">
<stop offset="0.2" stop-color="#F1EDF5"/>
<stop offset="0.7" stop-color="#DACFE5"/>
<stop offset="1" stop-color="#C9B9DC"/>
</radialGradient>
<linearGradient id="paint5_linear_449_3007" x1="20.8714" y1="43.5179" x2="27.8646" y2="50.7473" gradientUnits="userSpaceOnUse">
<stop stop-color="white"/>
<stop offset="1" stop-color="#EBE1EF"/>
</linearGradient>
<clipPath id="clip0_449_3007">
<rect width="296" height="59" fill="white"/>
</clipPath>
</defs>
</svg>
