<svg width="296" height="59" viewBox="0 0 296 59" fill="none" xmlns="http://www.w3.org/2000/svg">
<path d="M1.74118 36C3.01176 39.7969 8 41.4844 8 41.4844L5.92941 45C1.17647 44.7656 0 38.3906 0 38.3906L1.74118 36Z" fill="#FF437C"/>
<path d="M290.662 41C290.969 45.5937 296 47.3281 296 47.3281L294.556 50C290.137 49.7656 289 43.3906 289 43.3906L290.662 41Z" fill="#7943FE"/>
<path d="M61 44.073C64.1007 45.0623 66.6846 42 66.6846 42L68 43.7432C66.5906 46.8055 62.0805 45.8633 62.0805 45.8633L61 44.073Z" fill="#7943FE"/>
<path d="M185 13.2471C188.678 15.5974 192.788 12 192.788 12L194 14.8779C191.361 18.7631 185.865 16.125 185.865 16.125L185 13.2471Z" fill="#FF0072"/>
<path d="M95.5063 5.09327C97.3671 11.1554 101 12.3679 101 12.3679L99.8924 14C94.7089 11.2021 94 5 94 5L95.5063 5.09327Z" fill="#FFC293"/>
<path d="M152.254 55C157.947 58.2493 161.759 56.6482 161.759 56.6482L162 58.6731C155.776 60.18 151 55.9889 151 55.9889L152.254 55Z" fill="#FFC293"/>
<path d="M83.6892 24.7809L76.9292 40.8749C76.8967 40.9531 76.8839 41.038 76.892 41.1222C76.9001 41.2065 76.9287 41.2874 76.9755 41.3579C77.0222 41.4285 77.0856 41.4864 77.16 41.5267C77.2344 41.567 77.3175 41.5884 77.4022 41.589H80.1482C80.25 41.5882 80.3494 41.5572 80.4336 41.4999C80.5178 41.4425 80.5831 41.3615 80.6212 41.2669L81.7382 38.5509C81.7774 38.4573 81.843 38.377 81.927 38.3198C82.0109 38.2627 82.1096 38.2311 82.2112 38.2289H88.4682C88.5701 38.2297 88.6694 38.2607 88.7537 38.318C88.8379 38.3754 88.9032 38.4564 88.9412 38.5509L90.0582 41.277C90.0975 41.3706 90.163 41.4509 90.247 41.5081C90.3309 41.5652 90.4297 41.5968 90.5312 41.5989H93.2992C93.3842 41.5994 93.4679 41.5786 93.5429 41.5386C93.6179 41.4986 93.6817 41.4406 93.7286 41.3697C93.7755 41.2989 93.8041 41.2175 93.8117 41.1329C93.8193 41.0482 93.8058 40.963 93.7722 40.885L86.9892 24.8009C86.9495 24.7083 86.8835 24.6294 86.7995 24.574C86.7154 24.5185 86.6169 24.489 86.5162 24.4889H84.1562C84.0572 24.48 83.9579 24.5037 83.8736 24.5564C83.7893 24.6091 83.7245 24.688 83.6892 24.7809ZM83.5682 34.1259L84.8762 30.9579C84.9159 30.864 84.9824 30.7838 85.0675 30.7275C85.1525 30.6711 85.2522 30.6411 85.3542 30.6411C85.4562 30.6411 85.5559 30.6711 85.6409 30.7275C85.7259 30.7838 85.7925 30.864 85.8322 30.9579L87.1322 34.1259C87.1647 34.2041 87.1774 34.289 87.1693 34.3732C87.1613 34.4574 87.1326 34.5384 87.0859 34.6089C87.0391 34.6795 86.9758 34.7374 86.9014 34.7777C86.827 34.818 86.7438 34.8393 86.6592 34.8399H84.0452C83.9612 34.8378 83.879 34.8154 83.8055 34.7747C83.732 34.7339 83.6694 34.676 83.6231 34.606C83.5767 34.5359 83.548 34.4556 83.5393 34.3721C83.5306 34.2885 83.5422 34.204 83.5732 34.1259H83.5682Z" fill="black"/>
<path d="M106.285 26.0138C104.914 24.9268 103.194 24.3762 101.447 24.4648H94.9388C94.8029 24.4653 94.6727 24.5196 94.5766 24.6156C94.4805 24.7117 94.4263 24.8419 94.4258 24.9778V41.0649C94.4263 41.2008 94.4805 41.331 94.5766 41.427C94.6727 41.5231 94.8029 41.5774 94.9388 41.5779H97.5388C97.6747 41.5774 97.8049 41.5231 97.901 41.427C97.997 41.331 98.0513 41.2008 98.0518 41.0649V37.0649C98.0523 36.929 98.1065 36.7988 98.2026 36.7027C98.2987 36.6066 98.4289 36.5524 98.5648 36.5519H101.341C103.114 36.6402 104.857 36.0748 106.241 34.9629C106.873 34.3926 107.37 33.6885 107.695 32.9019C108.021 32.1153 108.166 31.266 108.122 30.4158C108.17 29.5908 108.029 28.7657 107.711 28.0031C107.393 27.2404 106.905 26.5601 106.285 26.0138V26.0138ZM101.346 33.1049H98.5698C98.4339 33.1043 98.3037 33.0501 98.2076 32.954C98.1115 32.8579 98.0573 32.7277 98.0568 32.5918V28.4178C98.0573 28.2819 98.1115 28.1518 98.2076 28.0557C98.3037 27.9596 98.4339 27.9054 98.5698 27.9048H101.346C102.183 27.8501 103.014 28.0845 103.7 28.5688V28.5688C103.963 28.8041 104.169 29.0974 104.299 29.4256C104.43 29.7537 104.483 30.1078 104.454 30.4598C104.455 31.6968 104.103 33.1049 101.346 33.1049Z" fill="black"/>
<path d="M121.313 26.0138C119.942 24.9268 118.222 24.3762 116.475 24.4648H109.967C109.831 24.4653 109.701 24.5196 109.605 24.6156C109.509 24.7117 109.455 24.8419 109.454 24.9778V41.0649C109.455 41.2008 109.509 41.331 109.605 41.427C109.701 41.5231 109.831 41.5774 109.967 41.5779H112.567C112.703 41.5774 112.833 41.5231 112.929 41.427C113.025 41.331 113.08 41.2008 113.08 41.0649V37.0649C113.081 36.929 113.135 36.7988 113.231 36.7027C113.327 36.6066 113.457 36.5524 113.593 36.5519H116.369C118.142 36.6403 119.886 36.0749 121.269 34.9629C121.901 34.3926 122.398 33.6885 122.723 32.9019C123.049 32.1153 123.195 31.266 123.15 30.4158C123.193 29.5913 123.051 28.7677 122.733 28.0057C122.415 27.2438 121.93 26.5631 121.313 26.0138V26.0138ZM116.374 33.1049H113.598C113.462 33.1043 113.332 33.0501 113.236 32.954C113.14 32.8579 113.086 32.7277 113.085 32.5918V28.4178C113.086 28.2819 113.14 28.1518 113.236 28.0557C113.332 27.9596 113.462 27.9054 113.598 27.9048H116.374C117.212 27.8501 118.043 28.0845 118.728 28.5688V28.5688C118.992 28.8041 119.197 29.0974 119.328 29.4256C119.459 29.7537 119.511 30.1078 119.482 30.4598C119.473 31.6968 119.12 33.1049 116.374 33.1049Z" fill="black"/>
<path d="M127.59 24.4651H124.99C124.854 24.4656 124.724 24.5198 124.627 24.6159C124.531 24.712 124.477 24.8422 124.477 24.9781V41.0651C124.477 41.201 124.531 41.3312 124.627 41.4273C124.724 41.5234 124.854 41.5776 124.99 41.5781H135.532C135.668 41.5776 135.798 41.5234 135.894 41.4273C135.99 41.3312 136.044 41.201 136.045 41.0651V38.6511C136.044 38.5152 135.99 38.3851 135.894 38.289C135.798 38.1929 135.668 38.1387 135.532 38.1381H128.622C128.486 38.1376 128.356 38.0834 128.259 37.9873C128.163 37.8912 128.109 37.761 128.109 37.6251V24.9781C128.104 24.8425 128.048 24.7137 127.951 24.6183C127.855 24.5229 127.725 24.4681 127.59 24.4651V24.4651Z" fill="black"/>
<path d="M144.317 24.7268L141.028 30.4809C140.983 30.56 140.917 30.6258 140.838 30.6715C140.759 30.7172 140.67 30.7413 140.578 30.7413C140.487 30.7413 140.397 30.7172 140.318 30.6715C140.239 30.6258 140.174 30.56 140.128 30.4809L136.798 24.7168C136.754 24.6379 136.69 24.5722 136.612 24.5261C136.534 24.4801 136.446 24.4555 136.355 24.4548H133.377C133.287 24.4545 133.197 24.4782 133.119 24.5236C133.04 24.569 132.975 24.6345 132.93 24.7133C132.885 24.792 132.862 24.8814 132.862 24.9721C132.863 25.0629 132.888 25.1518 132.934 25.2298L138.668 34.9169C138.716 34.9958 138.74 35.0867 138.738 35.1789V41.0549C138.739 41.1908 138.793 41.321 138.889 41.4171C138.985 41.5132 139.115 41.5674 139.251 41.5679H141.877C142.013 41.5674 142.143 41.5132 142.239 41.4171C142.336 41.321 142.39 41.1908 142.39 41.0549V35.1809C142.388 35.0887 142.413 34.9978 142.46 34.9189L148.194 25.2318C148.241 25.1538 148.266 25.0649 148.266 24.9741C148.267 24.8834 148.244 24.7941 148.199 24.7153C148.154 24.6365 148.088 24.571 148.01 24.5256C147.931 24.4802 147.842 24.4565 147.751 24.4568H144.764C144.673 24.4621 144.585 24.4894 144.507 24.5364C144.429 24.5835 144.364 24.6489 144.317 24.7268V24.7268Z" fill="black"/>
<path d="M167.896 34.1117H162.947C162.811 34.1112 162.681 34.057 162.585 33.9609C162.489 33.8648 162.435 33.7346 162.434 33.5987V32.6247C162.435 32.4888 162.489 32.3587 162.585 32.2626C162.681 32.1665 162.811 32.1123 162.947 32.1117H169.747C169.883 32.1123 170.013 32.1665 170.109 32.2626C170.205 32.3587 170.26 32.4888 170.26 32.6247V33.4797C170.371 35.642 169.66 37.7661 168.268 39.4248C167.575 40.1677 166.728 40.7506 165.786 41.1328C164.845 41.515 163.831 41.6873 162.816 41.6378C161.708 41.6857 160.602 41.4909 159.577 41.067C158.552 40.6432 157.632 40.0004 156.881 39.1838C155.439 37.4569 154.652 35.2763 154.659 33.0263C154.667 30.7762 155.468 28.6009 156.922 26.8837C157.682 26.068 158.61 25.4263 159.641 25.0027C160.672 24.5791 161.783 24.3836 162.897 24.4297C163.62 24.4249 164.342 24.499 165.049 24.6507C165.625 24.7618 166.185 24.9407 166.719 25.1837C167.108 25.3711 167.484 25.5829 167.846 25.8177C168.094 25.976 168.328 26.1543 168.546 26.3507L168.737 26.5717L167.389 28.3017C167.258 28.1707 167.089 28.0097 166.856 27.8187C166.388 27.4999 165.881 27.2431 165.347 27.0547C164.569 26.7328 163.735 26.5686 162.893 26.5717C162.086 26.5407 161.282 26.6909 160.541 27.0112C159.799 27.3315 159.139 27.8138 158.608 28.4227C157.565 29.732 156.994 31.3553 156.989 33.0295C156.983 34.7037 157.543 36.3307 158.578 37.6467C159.097 38.2537 159.747 38.7355 160.479 39.056C161.21 39.3765 162.005 39.5275 162.803 39.4978C163.487 39.5293 164.169 39.4156 164.806 39.1641C165.442 38.9126 166.018 38.5291 166.495 38.0388C166.966 37.5259 167.331 36.9252 167.569 36.2711C167.807 35.6169 167.914 34.9222 167.883 34.2267V34.1157L167.896 34.1117Z" fill="#E8B535"/>
<path d="M183.004 33.9199H176.044C175.908 33.9204 175.778 33.9746 175.682 34.0707C175.586 34.1668 175.532 34.297 175.531 34.4329V38.6769C175.532 38.8128 175.586 38.943 175.682 39.0391C175.778 39.1352 175.908 39.1894 176.044 39.1899H184.383C184.519 39.1904 184.649 39.2447 184.746 39.3408C184.842 39.4368 184.896 39.567 184.896 39.7029V40.7289C184.896 40.8648 184.842 40.995 184.746 41.0911C184.649 41.1872 184.519 41.2414 184.383 41.2419H173.79C173.654 41.2414 173.524 41.1872 173.428 41.0911C173.332 40.995 173.278 40.8648 173.277 40.7289V25.2889C173.278 25.153 173.332 25.0228 173.428 24.9267C173.524 24.8306 173.654 24.7764 173.79 24.7759H184.372C184.508 24.7764 184.638 24.8306 184.735 24.9267C184.831 25.0228 184.885 25.153 184.885 25.2889V26.3149C184.885 26.4508 184.831 26.581 184.735 26.677C184.638 26.7731 184.508 26.8274 184.372 26.8279H176.033C175.897 26.8284 175.767 26.8826 175.671 26.9787C175.575 27.0748 175.521 27.205 175.52 27.3409V31.3949C175.521 31.5308 175.575 31.661 175.671 31.7571C175.767 31.8531 175.897 31.9074 176.033 31.9079H182.994C183.13 31.9084 183.26 31.9626 183.357 32.0587C183.453 32.1548 183.507 32.285 183.507 32.4209V33.3969C183.51 33.4647 183.5 33.5325 183.476 33.596C183.452 33.6596 183.415 33.7176 183.368 33.7665C183.321 33.8154 183.265 33.8543 183.202 33.8807C183.14 33.907 183.072 33.9204 183.004 33.9199Z" fill="#E8B535"/>
<path d="M194.742 24.7772C196.405 24.6818 198.045 25.1927 199.359 26.2152C199.924 26.7221 200.367 27.3499 200.656 28.0517C200.945 28.7536 201.072 29.5115 201.028 30.2692C201.066 31.4328 200.732 32.578 200.073 33.5382C199.407 34.4305 198.473 35.0861 197.407 35.4092V35.5202L201.441 40.8202V41.2632H199.258C199.179 41.2618 199.101 41.2431 199.03 41.2086C198.959 41.1741 198.896 41.1245 198.846 41.0632L195.034 36.0142C194.986 35.9512 194.923 35.9004 194.852 35.8657C194.78 35.831 194.702 35.8134 194.622 35.8142H190.922C190.786 35.8147 190.656 35.869 190.56 35.965C190.464 36.0611 190.41 36.1913 190.409 36.3272V40.7332C190.409 40.8691 190.355 40.9993 190.258 41.0954C190.162 41.1915 190.032 41.2457 189.896 41.2462H188.669C188.533 41.2457 188.403 41.1915 188.307 41.0954C188.211 40.9993 188.157 40.8691 188.156 40.7332V25.2932C188.157 25.1573 188.211 25.0271 188.307 24.931C188.403 24.8349 188.533 24.7807 188.669 24.7802L194.742 24.7772ZM197.629 27.7142C196.773 27.0854 195.723 26.7759 194.662 26.8392H190.92C190.784 26.8397 190.654 26.8939 190.558 26.99C190.462 27.0861 190.408 27.2163 190.407 27.3522V33.2462C190.408 33.3821 190.462 33.5123 190.558 33.6084C190.654 33.7045 190.784 33.7587 190.92 33.7592H194.853C195.86 33.8109 196.851 33.5044 197.653 32.8942C198.329 32.2 198.705 31.2686 198.701 30.3001C198.697 29.3316 198.314 28.4032 197.633 27.7142H197.629Z" fill="#E8B535"/>
<path d="M216.96 30.1889L212.876 35.45C212.827 35.5099 212.766 35.5587 212.697 35.5932C212.628 35.6277 212.553 35.6471 212.475 35.65H212.235C212.157 35.6513 212.08 35.6339 212.01 35.599C211.94 35.5642 211.88 35.5131 211.834 35.45L207.75 30.2289C207.684 30.1453 207.593 30.0844 207.491 30.0548C207.388 30.0251 207.279 30.0283 207.178 30.0637C207.078 30.0992 206.99 30.1652 206.929 30.2525C206.867 30.3398 206.835 30.4442 206.835 30.551V40.73C206.835 40.8659 206.781 40.9961 206.685 41.0922C206.589 41.1882 206.458 41.2425 206.323 41.243H205.075C204.94 41.2425 204.809 41.1882 204.713 41.0922C204.617 40.9961 204.563 40.8659 204.562 40.73L204.593 25.2899C204.593 25.154 204.647 25.0239 204.743 24.9278C204.839 24.8317 204.97 24.7775 205.105 24.7769H205.99C206.068 24.7756 206.145 24.793 206.215 24.8278C206.285 24.8627 206.345 24.9138 206.391 24.9769L211.983 32.159C212.031 32.2202 212.093 32.2697 212.164 32.3037C212.234 32.3377 212.312 32.3553 212.39 32.3553C212.468 32.3553 212.546 32.3377 212.616 32.3037C212.687 32.2697 212.749 32.2202 212.798 32.159L218.36 24.9769C218.407 24.9154 218.467 24.8654 218.536 24.8307C218.606 24.7961 218.682 24.7777 218.76 24.7769H219.645C219.78 24.7775 219.911 24.8317 220.007 24.9278C220.103 25.0239 220.157 25.154 220.158 25.2899V40.73C220.157 40.8659 220.103 40.9961 220.007 41.0922C219.911 41.1882 219.78 41.2425 219.645 41.243H218.418C218.282 41.2425 218.151 41.1882 218.055 41.0922C217.959 40.9961 217.905 40.8659 217.905 40.73V30.5C217.901 30.3915 217.864 30.2869 217.799 30.2001C217.734 30.1134 217.644 30.0487 217.541 30.0148C217.438 29.9809 217.327 29.9794 217.223 30.0105C217.119 30.0417 217.027 30.104 216.96 30.1889V30.1889Z" fill="#E8B535"/>
<path d="M237.704 41.2429H236.436C236.334 41.2422 236.235 41.2112 236.15 41.1538C236.066 41.0965 236.001 41.0155 235.963 40.921L234.763 38.0139C234.723 37.9203 234.658 37.8401 234.574 37.783C234.49 37.7258 234.391 37.6942 234.29 37.6919H226.61C226.508 37.6927 226.409 37.7237 226.324 37.781C226.24 37.8384 226.175 37.9194 226.137 38.0139L224.937 40.921C224.898 41.0146 224.832 41.0949 224.748 41.152C224.664 41.2092 224.565 41.2408 224.464 41.2429H223.217C223.132 41.2434 223.048 41.2226 222.973 41.1826C222.898 41.1426 222.834 41.0845 222.787 41.0137C222.74 40.9429 222.712 40.8615 222.704 40.7768C222.697 40.6922 222.71 40.607 222.744 40.5289L229.232 25.0889C229.271 24.9963 229.337 24.9174 229.422 24.862C229.506 24.8065 229.604 24.777 229.705 24.7769H231.193C231.294 24.7756 231.393 24.8047 231.477 24.8603C231.561 24.9159 231.627 24.9955 231.666 25.0889L238.174 40.5289C238.206 40.6068 238.219 40.6915 238.211 40.7755C238.203 40.8595 238.175 40.9402 238.128 41.0107C238.082 41.0812 238.019 41.1392 237.945 41.1797C237.871 41.2202 237.788 41.2419 237.704 41.2429ZM227.856 35.7009H233.047C233.131 35.7004 233.215 35.679 233.289 35.6387C233.363 35.5984 233.427 35.5405 233.473 35.4699C233.52 35.3994 233.549 35.3184 233.557 35.2342C233.565 35.15 233.552 35.0651 233.52 34.9869L230.935 28.6999C230.895 28.606 230.829 28.5258 230.744 28.4695C230.659 28.4131 230.559 28.3831 230.457 28.3831C230.355 28.3831 230.255 28.4131 230.17 28.4695C230.085 28.5258 230.018 28.606 229.979 28.6999L227.374 34.9869C227.341 35.0658 227.329 35.1514 227.337 35.2363C227.346 35.3211 227.375 35.4025 227.423 35.4732C227.471 35.5439 227.535 35.6017 227.611 35.6414C227.686 35.6811 227.77 35.7016 227.856 35.7009V35.7009Z" fill="#E8B535"/>
<path d="M254.241 41.2429H253.326C253.249 41.2429 253.173 41.2258 253.104 41.1927C253.035 41.1597 252.974 41.1116 252.926 41.0519L243.973 29.8969C243.906 29.8138 243.815 29.7534 243.713 29.7242C243.61 29.6949 243.501 29.6982 243.401 29.7336C243.301 29.7689 243.214 29.8346 243.152 29.9215C243.091 30.0085 243.058 30.1124 243.058 30.2189V40.7299C243.057 40.8658 243.003 40.996 242.907 41.0921C242.811 41.1882 242.681 41.2424 242.545 41.2429H241.318C241.182 41.2424 241.052 41.1882 240.955 41.0921C240.859 40.996 240.805 40.8658 240.805 40.7299V25.2899C240.805 25.154 240.859 25.0238 240.955 24.9277C241.052 24.8316 241.182 24.7774 241.318 24.7769H242.233C242.309 24.7779 242.385 24.7955 242.454 24.8284C242.523 24.8614 242.584 24.909 242.633 24.9679L251.555 36.0229C251.621 36.1064 251.712 36.1671 251.815 36.1966C251.917 36.2261 252.026 36.2229 252.127 36.1875C252.228 36.1521 252.315 36.0862 252.377 35.999C252.438 35.9118 252.471 35.8076 252.471 35.7009V25.2899C252.471 25.154 252.525 25.0238 252.622 24.9277C252.718 24.8316 252.848 24.7774 252.984 24.7769H254.231C254.367 24.7774 254.497 24.8316 254.593 24.9277C254.689 25.0238 254.743 25.154 254.744 25.2899V40.7299C254.745 40.7969 254.734 40.8636 254.709 40.9259C254.685 40.9883 254.648 41.0451 254.601 41.093C254.554 41.1408 254.498 41.1788 254.436 41.2045C254.374 41.2303 254.308 41.2433 254.241 41.2429V41.2429Z" fill="#E8B535"/>
<path d="M269.107 24.7773H270.484C270.575 24.777 270.665 24.8007 270.743 24.8461C270.822 24.8915 270.887 24.957 270.932 25.0357C270.977 25.1145 271 25.2039 270.999 25.2946C270.999 25.3854 270.974 25.4743 270.928 25.5523L265.445 34.8164C265.398 34.8953 265.374 34.9862 265.376 35.0784V40.7314C265.375 40.8673 265.321 40.9974 265.225 41.0935C265.129 41.1896 264.998 41.2438 264.862 41.2444H263.616C263.48 41.2438 263.349 41.1896 263.253 41.0935C263.157 40.9974 263.103 40.8673 263.102 40.7314V35.0674C263.104 34.9755 263.08 34.885 263.033 34.8064L257.55 25.5423C257.504 25.4644 257.479 25.3755 257.479 25.2849C257.478 25.1942 257.501 25.1049 257.546 25.0262C257.591 24.9474 257.656 24.882 257.734 24.8365C257.813 24.791 257.902 24.7672 257.992 24.7673H259.371C259.461 24.7679 259.55 24.7925 259.627 24.8385C259.705 24.8845 259.769 24.9504 259.814 25.0293L263.686 31.7293C263.699 31.7431 263.706 31.7608 263.706 31.7793L264.22 32.9064H264.269L264.812 31.7694C264.822 31.7594 264.822 31.7494 264.832 31.7394L268.655 25.0393C268.701 24.9597 268.766 24.8936 268.846 24.8476C268.925 24.8015 269.015 24.7773 269.107 24.7773V24.7773Z" fill="#E8B535"/>
<path d="M62.549 48.9991H31.5723C31.4213 48.9991 31.2771 48.9395 31.1699 48.8331C31.0628 48.7267 31.0011 48.5818 31 48.4308V17.5762C31.0005 17.4243 31.0609 17.2787 31.168 17.1709C31.275 17.0631 31.4204 17.0016 31.5723 17H62.549C62.7016 17.0005 62.8473 17.061 62.9552 17.1689C63.0631 17.2769 63.1246 17.4236 63.1251 17.5762V31.5684H49.9259V34.4288H63.1251V48.4288C63.1247 48.5041 63.1094 48.5792 63.0802 48.6485C63.0511 48.7179 63.0087 48.7802 62.9552 48.8331C62.9017 48.886 62.8393 48.9287 62.7697 48.9571C62.7 48.9856 62.6242 48.9995 62.549 48.9991Z" fill="#E8B535"/>
<path d="M30.1307 38.8323C28.797 41.7147 25.8873 45.1968 24.3782 46.863C23.8692 47.413 22.5919 45.7862 21.9516 45.3748C22.1972 42.4405 19.1113 34.7434 18.3999 28.0746C18.229 26.5333 18.2096 23.6007 18.7824 21.1669L19.0075 21.4575C19.062 22.6441 19.279 23.833 19.6846 25.0317C20.5162 27.5138 21.7175 29.8277 23.2115 31.9677C24.8404 34.2821 26.6575 36.3755 28.7823 38.2431C29.2163 38.6282 29.6728 38.4908 30.1307 38.8323V38.8323Z" fill="#BD0C34"/>
<path d="M23.8198 43.4806C23.9325 43.9637 23.6295 44.309 23.5462 44.8083C23.478 45.2556 23.2212 45.6932 22.8268 45.888C22.4911 45.6102 22.1902 45.3482 21.9698 45.1772C22.0652 42.1204 19.117 34.6659 18.4033 28.1597C20.4504 33.1006 22.6351 38.2841 23.8198 43.4806V43.4806Z" fill="url(#paint0_linear_439_29358)"/>
<path d="M47.6113 14.0898C44.0555 14.8004 40.3069 15.6126 37.6574 18.0841C34.7021 20.8326 33.7855 24.9901 32.1304 28.629C30.9871 31.1277 30.6923 34.1152 30.2568 37.0056C30.0716 36.9329 29.8888 36.8516 29.7086 36.7617C27.4356 35.9261 26.5464 36.8157 24.6628 35.4348C22.7881 34.062 20.4682 29.8074 19.6728 27.3752C19.0148 25.3995 18.3605 22.6368 18.7367 20.6467C19.1218 18.6648 19.879 15.2489 21.2558 13.9213C22.517 12.7009 28.9278 11.2896 30.6503 10.9407C36.1747 9.82888 42.5164 10.6096 46.1249 13.027L46.6671 13.1172C46.5817 13.1205 46.4888 13.1498 46.4136 13.1954L46.6671 13.1172C47.1864 13.0543 47.7452 13.5715 47.6113 14.0898V14.0898Z" fill="url(#paint1_linear_439_29358)"/>
<g style="mix-blend-mode:soft-light" opacity="0.5">
<path d="M24.6633 35.4347C22.7886 34.062 20.4687 29.8073 19.6733 27.3751C19.0153 25.3994 18.361 22.6368 18.7372 20.6467C19.0432 19.0527 19.5957 16.5341 20.5166 14.9163C19.6632 19.824 21.1734 24.1528 24.4584 29.0371C25.7191 30.8954 26.149 28.527 26.2787 30.7712C26.3727 32.5378 26.0043 34.2881 25.7213 36.0352C25.3998 35.9022 25.0591 35.7187 24.6633 35.4347V35.4347Z" fill="#F5F197"/>
</g>
<g style="mix-blend-mode:soft-light" opacity="0.3">
<path d="M47.6114 14.09C45.1249 14.5882 42.5379 15.1416 40.2986 16.2802C39.263 16.2604 38.2248 16.1723 37.201 16.0153C34.1537 15.5004 31.269 14.3292 28.2581 13.6504C26.2913 13.2135 24.1965 13.0038 22.2246 13.3196C24.4672 12.2664 29.208 11.2362 30.6504 10.9409C36.1748 9.82908 42.5164 10.6098 46.1249 13.0272L46.6672 13.1174C46.5818 13.1207 46.4889 13.15 46.4137 13.1956L46.6672 13.1174C47.1864 13.0545 47.7452 13.5717 47.6114 14.09Z" fill="#3DFFFF"/>
</g>
<path d="M49.1448 17.2374C46.4652 17.6062 40.1427 18.8687 33.9489 27.4296C32.9341 28.8287 32.2614 30.2316 31.8075 31.5406C30.9502 33.6947 30.4674 36.2448 30.6542 38.6407C30.0477 39.1003 28.9511 39.2711 26.906 37.0326C25.2554 36.1472 25.336 38.2308 23.614 32.8498C23.2909 31.7933 23.2896 30.6559 23.4181 29.5563C23.9989 24.6762 26.4797 20.0561 30.2136 16.8756C33.9645 13.6944 38.9186 11.9889 43.8271 12.2008C45.1892 12.2593 46.6002 12.4783 47.7167 13.2646C48.4552 13.7834 48.9567 16.3553 49.1448 17.2374V17.2374Z" fill="#DACFE5"/>
<path d="M29.0323 38.7379C27.7574 37.8379 26.3991 35.4446 26.452 31.5086C23.766 31.4929 23.342 30.2607 23.4174 29.5565C23.9981 24.6764 26.479 20.0563 30.2129 16.8758C30.4668 16.6607 30.7239 16.4541 30.9842 16.2559C33.2288 15.2539 34.5821 15.7488 37.0244 17.2022C40.47 15.6321 44.9996 16.2179 44.8461 18.2164C40.7378 20.3425 36.7895 23.5056 33.9482 27.4299C32.9333 28.8289 32.2607 30.2319 31.8068 31.5408C30.9495 33.6949 30.4667 36.245 30.6535 38.6409C30.3041 38.8939 29.7895 39.0763 29.0323 38.7379V38.7379Z" fill="url(#paint2_radial_439_29358)"/>
<path d="M51.392 16.7487C51.4758 16.925 51.5445 17.1533 51.5955 17.3651C51.6363 17.5346 51.4796 17.686 51.3157 17.6496C50.4792 17.4682 48.7855 17.6791 48.4712 17.7341C45.473 18.2692 42.6924 19.5656 40.2664 21.4041C37.9477 23.1444 35.9708 25.3162 34.2654 27.6571C33.3957 28.8282 32.702 30.1293 32.1996 31.5085C31.6964 32.8707 31.2698 34.2213 31.0609 35.6747C30.9678 36.3625 30.9102 37.0831 30.9113 37.7758C30.9131 38.0408 30.9667 38.3209 30.9513 38.5867C30.9477 38.7151 30.8752 38.8291 30.7671 38.9102C29.293 39.9337 27.5624 38.085 26.8836 37.3416C26.8209 37.267 26.7417 37.2102 26.6543 37.1623C26.3492 37.0116 26.0575 36.9887 25.7228 36.9589C25.6254 36.9456 25.5305 36.9236 25.4381 36.893C25.4258 36.8706 25.4078 36.8485 25.3842 36.8266C25.258 36.6605 25.4025 36.4154 25.6176 36.4499C25.9878 36.5125 26.3655 36.5492 26.733 36.5435C26.9531 36.7802 27.1873 37.0134 27.4357 37.2432C27.7195 37.5059 28.0034 37.7686 28.3118 38.0047C28.7868 38.3455 29.4011 38.7493 30.0202 38.6141C30.2156 38.5809 30.3427 38.5504 30.3348 38.3454C30.3058 38.0387 30.311 37.7306 30.3079 37.4314C30.308 36.3282 30.4194 35.2292 30.6516 34.1597C31.0247 32.5289 31.576 30.8656 32.3389 29.3651C32.9902 28.0742 33.8353 26.9297 34.7064 25.7928C37.6144 22.0455 42.3353 18.9551 46.2193 17.4449C48.9073 16.4087 48.5715 15.6862 48.0249 15.2627C43.299 11.5972 40.4669 12.6647 40.4669 12.6647C39.3942 12.7917 38.3338 13.0124 37.2937 13.3177C35.8812 13.7231 34.5176 14.289 33.2277 14.9889C32.7253 15.2649 32.1893 15.5593 31.7053 15.8688C30.4794 16.6774 30.2647 16.8738 30.2134 16.8758C30.286 16.7618 31.5039 15.7483 31.629 15.6665C32.094 15.3064 32.5514 14.9723 33.0444 14.671C35.3092 13.309 37.8318 12.416 40.4431 12.0498C41.923 11.8386 43.4512 11.7709 44.9203 11.9449C45.7536 12.041 47.0352 12.4531 47.7533 12.8872C49.7765 14.1173 50.8906 15.7247 51.392 16.7487V16.7487Z" fill="url(#paint3_linear_439_29358)"/>
<path d="M18.9099 45.8855C18.319 45.8656 18.423 45.2373 18.6078 44.9308C18.9453 44.3704 19.7566 44.5614 20.2578 44.6959C19.4579 42.5888 22.6723 43.884 23.1068 43.8416C23.7886 43.781 23.9946 42.9178 24.9492 43.2742C25.5917 43.523 26.0293 44.2245 25.9704 44.9109C26.7519 44.3333 27.505 45.6725 26.6827 46.0806C28.0172 46.3112 29.6574 48.9159 27.5525 49.1086C29.103 50.2801 27.8421 52.8346 25.9745 52.3083C26.4869 53.8364 24.1414 54.6627 23.5873 53.1618C23.2169 54.8609 20.5407 54.212 20.9889 52.5355C20.9044 53.4453 19.7318 53.1999 19.3123 52.7458C18.6881 52.0858 18.731 50.5448 18.731 50.5448C18.731 50.5448 18.2716 50.8277 17.8553 50.0142C17.6141 49.5275 18.3569 48.8317 18.337 48.3194C17.0895 47.9058 17.6126 45.9528 18.9099 45.8855Z" fill="url(#paint4_radial_439_29358)"/>
<path d="M26.0424 44.7798C26.2769 44.651 26.5173 44.6759 26.7016 44.7971C26.8763 44.8929 27.0032 45.0762 27.0705 45.2703C27.1297 45.4732 27.1294 45.687 27.0172 45.8795C26.9797 45.9437 26.9277 45.9999 26.8612 46.048C27.0055 46.0938 27.1477 46.1595 27.2879 46.2453C27.6203 46.4377 27.9225 46.7339 28.166 47.058C28.4094 47.3821 28.5777 47.7519 28.6162 48.0839C28.6507 48.3135 28.6163 48.5286 28.5123 48.7122C28.3753 48.9313 28.1169 49.1038 27.7261 49.1703C28.0713 49.4733 28.2573 49.8595 28.3067 50.251C28.3581 50.6937 28.2475 51.1513 28.0229 51.5363C27.8217 51.8605 27.533 52.1368 27.1803 52.3044C26.8523 52.4453 26.4867 52.5023 26.0729 52.4157C26.1722 52.771 26.1075 53.0899 25.9549 53.3438C25.7618 53.6592 25.4453 53.8767 25.0981 53.9671C24.7428 54.0664 24.3569 54.0386 24.0415 53.8455C23.8313 53.7168 23.6526 53.5185 23.5389 53.2321C23.5293 53.2068 23.5369 53.1809 23.5533 53.1632C23.7872 53.462 24.0602 53.6652 24.4481 53.7443C24.4882 53.7484 24.5312 53.7553 24.5772 53.7649C24.5827 53.759 24.5854 53.7561 24.5854 53.7561C24.5968 53.7556 24.6111 53.7579 24.6284 53.7629C24.6512 53.7621 24.6797 53.761 24.7138 53.7596C24.7252 53.7592 24.7309 53.759 24.7309 53.759C24.7537 53.7581 24.7764 53.7572 24.7992 53.7563C24.8275 53.7495 24.853 53.7457 24.8757 53.7448C24.904 53.738 24.9322 53.7312 24.9605 53.7244C25.1552 53.6741 25.348 53.5726 25.5128 53.4123C25.5621 53.3591 25.6054 53.3004 25.6428 53.2362C25.6857 53.1661 25.7198 53.0878 25.7449 53.0013C25.7646 52.9208 25.77 52.8379 25.761 52.7527L25.7583 52.6844L25.7373 52.5826C25.7105 52.481 25.6808 52.3767 25.6482 52.2696L25.6387 52.2443C25.6196 52.1937 25.6347 52.1418 25.6586 52.0982L25.6751 52.0804C25.7161 52.0361 25.7667 52.017 25.8268 52.0232L25.8609 52.0219L25.8698 52.0301C25.878 52.0212 25.9559 52.0439 25.9559 52.0439L26.1198 52.0803C26.1717 52.0954 26.2318 52.1016 26.2577 52.1092C26.2748 52.1085 26.352 52.1141 26.352 52.1141C26.4549 52.1215 26.5546 52.1205 26.6512 52.111C26.8637 52.0772 27.066 52.0009 27.2492 51.8741C27.4242 51.7561 27.5884 51.5787 27.7089 51.3774C27.8376 51.1672 27.9226 50.933 27.9475 50.6925C27.9724 50.4521 27.9454 50.1966 27.8514 49.9779C27.8015 49.8658 27.7374 49.7571 27.6592 49.6518L27.6053 49.5855L27.4375 49.4466C27.3399 49.3563 27.1986 49.242 27.0662 49.136C27.0219 49.0949 27.0022 49.0273 27.0166 48.9583L27.0406 48.9146C27.0645 48.8709 27.1062 48.8436 27.1657 48.8328L27.4123 48.7976C27.5059 48.7854 27.5825 48.7739 27.6419 48.763C27.7184 48.7515 27.8032 48.7311 27.8626 48.7203L27.9385 48.6917C28.0478 48.6447 28.1394 48.5813 28.188 48.511L28.2127 48.4844C28.2763 48.3622 28.276 48.1313 28.2161 47.9113C28.1297 47.6666 27.992 47.4239 27.8297 47.2078C27.6592 47.0006 27.4723 46.8112 27.2696 46.6565C27.2168 46.6187 27.1613 46.5838 27.103 46.5518C27.0507 46.5253 27.0011 46.4959 26.9542 46.4635L26.8675 46.4326C26.8327 46.4169 26.7637 46.4025 26.6859 46.3798C26.5391 46.3427 26.4011 46.3139 26.2714 46.2761C26.2486 46.277 26.2313 46.272 26.2195 46.261C26.1758 46.2371 26.1485 46.1954 26.1377 46.1359C26.1275 46.0936 26.1432 46.0587 26.159 46.0239C26.1695 46.0007 26.1886 45.98 26.2164 45.9618C26.3251 45.8978 26.442 45.8248 26.5255 45.7703L26.6581 45.6625C26.6691 45.6507 26.6802 45.6445 26.6916 45.6441C26.691 45.627 26.7156 45.6004 26.7156 45.6004L26.7225 45.5574C26.7307 45.5485 26.7389 45.5397 26.7389 45.5397L26.73 45.5314C26.735 45.5141 26.7371 45.4941 26.7362 45.4713C26.7405 45.36 26.6751 45.2171 26.5857 45.118C26.5621 45.0961 26.5386 45.0799 26.5154 45.0694C26.4513 45.032 26.3825 45.0232 26.3092 45.0432L26.2921 45.0438L26.2668 45.0534L26.2415 45.0629C26.2333 45.0718 26.1075 45.1365 26.1075 45.1365L25.9906 45.2094L25.9236 45.2462L25.9065 45.2469L25.8983 45.2558L25.8901 45.2646C25.8478 45.2748 25.7877 45.2686 25.744 45.2446L25.7262 45.2282C25.6825 45.2043 25.6546 45.1455 25.6608 45.0854L25.6602 45.0683L25.6589 45.0341C25.672 44.931 25.6687 44.8456 25.6742 44.7684L25.6771 44.6229L25.6765 44.6058L25.6752 44.5717C25.6373 44.2567 25.4894 43.9717 25.3019 43.7651C25.2186 43.6771 25.1274 43.6037 25.0282 43.5448C24.8971 43.4729 24.7756 43.4263 24.6547 43.3968C24.4389 43.3453 24.2613 43.3949 24.1109 43.4863C23.8771 43.6321 23.6718 43.8539 23.3917 43.9075C23.0863 43.9706 22.9095 43.8235 22.9266 43.8229C23.124 43.8409 23.3017 43.7913 23.5027 43.6809C23.6031 43.6256 23.6941 43.5452 23.7939 43.4729C23.8103 43.4551 23.8325 43.4372 23.8603 43.419C23.943 43.3474 24.0257 43.2758 24.1003 43.213C24.1762 43.1844 24.252 43.1558 24.3367 43.1354C24.5151 43.1029 24.7207 43.112 24.9726 43.2134C25.065 43.2441 25.1492 43.2836 25.2252 43.3319C25.7242 43.6291 26.0452 44.1896 26.0424 44.7798V44.7798Z" fill="#B89DC2"/>
<path opacity="0.5" d="M19.8584 25.9827C19.858 25.7518 19.6652 25.4086 19.6053 25.1886C19.5256 24.8952 19.4544 24.6043 19.392 24.316C19.272 23.722 19.192 23.1264 19.1518 22.5293C19.0802 21.3433 19.1699 20.1255 19.4153 18.9529C19.5609 18.2973 19.7312 17.6151 19.9984 17.0061C20.1014 17.6777 19.9869 18.4775 19.971 19.1708C19.9605 19.9295 19.9472 20.6912 19.9312 21.4558C19.9097 22.9618 19.8854 24.4707 19.8584 25.9827V25.9827Z" fill="white"/>
<path d="M20.7258 52.3578C20.2742 52.4009 19.8298 52.1872 19.5345 51.848C19.4198 51.7584 19.3216 51.651 19.2234 51.5436C19.2008 51.402 19.1843 51.2715 19.174 51.1522C19.1218 50.9831 19.0895 50.8105 19.077 50.6342C18.9417 50.6737 18.6172 50.6862 18.303 50.0827C18.0714 49.6213 18.7806 48.9439 18.7703 48.4568C17.557 48.0419 18.0656 46.1579 19.3117 46.0926C18.7467 46.0802 18.8514 45.469 19.028 45.1714C19.3573 44.6198 20.1344 44.8121 20.6268 44.9384C20.0358 43.3706 21.7179 43.7417 22.7279 43.9848C22.7993 44.0618 22.8565 44.1423 22.8997 44.2261C22.8824 44.2211 22.8653 44.2218 22.8485 44.2281C22.3955 44.2371 21.9834 44.4155 21.7553 44.9289C21.5826 45.329 21.6477 45.6857 21.8393 45.9947C21.6984 46.1113 21.5487 46.2198 21.4078 46.3364C21.1514 46.5601 20.9228 46.8426 20.9101 47.1767C20.9045 47.2538 20.9243 47.3215 20.944 47.3891C20.9368 47.646 21.0144 47.8824 21.202 48.089C20.6933 48.4251 20.2829 48.8686 20.396 49.5826C20.4319 49.8463 20.5334 50.0391 20.6672 50.1793C20.68 50.29 20.7276 50.4164 20.7917 50.5251C20.6764 50.6379 20.5815 50.7641 20.5071 50.9039C20.3249 51.2787 20.3181 51.7664 20.5704 52.0987C20.5882 52.1151 20.6059 52.1315 20.6236 52.148C20.6495 52.2268 20.6836 52.2967 20.7258 52.3578V52.3578Z" fill="url(#paint5_linear_439_29358)"/>
<path d="M26.6165 31.7586C26.4765 32.7818 26.5477 33.7368 26.6506 34.4085C26.6898 34.7576 26.7516 35.0289 26.7766 35.2331C26.7928 35.4292 26.7885 35.5405 26.7551 35.5589C26.7127 35.5691 26.6493 35.4775 26.5484 35.3018C26.4646 35.1255 26.3345 34.8569 26.2352 34.5015C26.0291 33.8168 25.8699 32.7967 26.0148 31.6793C26.0961 31.1288 26.23 30.6105 26.4088 30.1503C26.5795 29.699 26.7788 29.3236 26.9807 29.0164C27.3674 28.4028 27.6978 28.0992 27.7592 28.1396C27.9257 28.2444 26.8787 29.696 26.6165 31.7586V31.7586Z" fill="#D9CFE4"/>
<defs>
<linearGradient id="paint0_linear_439_29358" x1="12.3397" y1="33.6797" x2="16.088" y2="28.8822" gradientUnits="userSpaceOnUse">
<stop offset="0.4" stop-color="#FF1C30"/>
<stop offset="1" stop-color="#E30040"/>
</linearGradient>
<linearGradient id="paint1_linear_439_29358" x1="17.3327" y1="18.1782" x2="28.4166" y2="4.04868" gradientUnits="userSpaceOnUse">
<stop offset="0.4" stop-color="#FF1C30"/>
<stop offset="1" stop-color="#E30040"/>
</linearGradient>
<radialGradient id="paint2_radial_439_29358" cx="0" cy="0" r="1" gradientUnits="userSpaceOnUse" gradientTransform="translate(30.4755 29.403) rotate(-47.2169) scale(20.9803)">
<stop stop-color="white"/>
<stop offset="0.8" stop-color="#EBE1EF"/>
</radialGradient>
<linearGradient id="paint3_linear_439_29358" x1="14.497" y1="7.43554" x2="35.3413" y2="16.5661" gradientUnits="userSpaceOnUse">
<stop stop-color="white"/>
<stop offset="0.7" stop-color="#FF9BA2"/>
<stop offset="1" stop-color="#B89DC2"/>
</linearGradient>
<radialGradient id="paint4_radial_439_29358" cx="0" cy="0" r="1" gradientUnits="userSpaceOnUse" gradientTransform="translate(20.0379 46.7483) rotate(-47.2169) scale(7.58964 7.58964)">
<stop offset="0.2" stop-color="#F1EDF5"/>
<stop offset="0.7" stop-color="#DACFE5"/>
<stop offset="1" stop-color="#C9B9DC"/>
</radialGradient>
<linearGradient id="paint5_linear_439_29358" x1="20.8711" y1="43.5179" x2="27.8643" y2="50.7473" gradientUnits="userSpaceOnUse">
<stop stop-color="white"/>
<stop offset="1" stop-color="#EBE1EF"/>
</linearGradient>
</defs>
</svg>
