<svg xmlns="http://www.w3.org/2000/svg" width="22" height="35.999" viewBox="0 0 22 35.999">
  <path id="Icon" d="M-19158-280a3,3,0,0,1-3-3v-30a3,3,0,0,1,3-3h16a3,3,0,0,1,3,3v30a3,3,0,0,1-3,3Zm-.5-33v30a.5.5,0,0,0,.5.5h16a.5.5,0,0,0,.5-.5v-30a.5.5,0,0,0-.5-.5h-16A.5.5,0,0,0-19158.5-313Zm6.5,25a2,2,0,0,1,2-2,2,2,0,0,1,2,2,2,2,0,0,1-2,2A2,2,0,0,1-19152-288Zm-2-10a4,4,0,0,1,4-4,4,4,0,0,1,4,4,4,4,0,0,1-4,4A4,4,0,0,1-19154-298Zm2,0a2,2,0,0,0,2,2,2.006,2.006,0,0,0,2-2,2.006,2.006,0,0,0-2-2A2,2,0,0,0-19152-298Zm0-10a2,2,0,0,1,2-2,2,2,0,0,1,2,2,2,2,0,0,1-2,2A2,2,0,0,1-19152-308Z" transform="translate(19161.002 315.999)" fill="#e2ad42"/>
</svg>
