<svg xmlns="http://www.w3.org/2000/svg" width="20" height="14.002" viewBox="0 0 20 14.002">
  <path id="Path_32888" data-name="Path 32888" d="M15243-14757.594c-.062,0-6.263,0-7.827-.428a2.5,2.5,0,0,1-1.762-1.762,26.534,26.534,0,0,1-.411-4.811,26.676,26.676,0,0,1,.411-4.814,2.559,2.559,0,0,1,1.762-1.777c1.549-.4,7.765-.41,7.827-.41s6.278.006,7.823.426a2.514,2.514,0,0,1,1.766,1.762,25.452,25.452,0,0,1,.411,4.826,26.635,26.635,0,0,1-.411,4.814,2.508,2.508,0,0,1-1.766,1.762C15249.277-14757.6,15243.063-14757.594,15243-14757.594Zm-2.271-10.324v6.645l5.766-3.32-5.766-3.322Z" transform="translate(-15233 14771.596)" fill="#fff"/>
</svg>
