<svg width="322" height="58" viewBox="0 0 322 58" fill="none" xmlns="http://www.w3.org/2000/svg">
<g clip-path="url(#clip0)">
<path d="M79.03 8.57002L81.07 10.61L83.54 8.16002L81.07 5.71002L79.03 7.75002L76.96 5.71002L74.5 8.16002L76.96 10.61L79.03 8.57002Z" fill="#1E2749"/>
<path d="M121.43 9.89002C120.943 9.41051 120.37 9.02715 119.74 8.76002C119.087 8.47823 118.382 8.33521 117.67 8.34002C116.959 8.33722 116.254 8.48016 115.6 8.76002C114.968 9.032 114.388 9.41466 113.89 9.89002C113.42 10.385 113.038 10.9565 112.76 11.58C112.475 12.2433 112.329 12.958 112.33 13.68V16.29C112.343 16.6014 112.289 16.9119 112.17 17.2C112.057 17.4332 111.897 17.6407 111.7 17.81C111.485 17.9616 111.245 18.0734 110.99 18.14C110.703 18.1893 110.412 18.2128 110.12 18.21H106.12C106.105 18.047 106.105 17.883 106.12 17.72V16.94C106.12 16.64 106.12 16.22 106.12 15.7V13.7C106.129 12.9752 105.976 12.2575 105.67 11.6C105.392 10.9765 105.01 10.405 104.54 9.91002C104.042 9.43466 103.463 9.052 102.83 8.78002C102.177 8.49625 101.472 8.35315 100.76 8.36002C100.049 8.35722 99.3443 8.50016 98.6902 8.78002C98.0609 9.04715 97.4875 9.43051 97.0002 9.91002C96.5148 10.3967 96.1248 10.9699 95.8502 11.6C95.5606 12.2619 95.4141 12.9776 95.4202 13.7V16.7C95.409 17.3811 95.5208 18.0586 95.7502 18.7C95.9609 19.2409 96.2732 19.7365 96.6702 20.16C97.0686 20.5056 97.517 20.7888 98.0002 21C98.4665 21.2234 98.9562 21.3945 99.4602 21.51C99.9363 21.6198 100.422 21.6834 100.91 21.7C101.345 21.7092 101.78 21.6791 102.21 21.61C102.075 22.1776 101.751 22.6821 101.29 23.04C100.855 23.3771 100.349 23.6097 99.8102 23.72C99.2283 23.8262 98.6321 23.8262 98.0502 23.72C97.457 23.6603 96.8767 23.5084 96.3302 23.27V26.7C97.3083 26.9564 98.3211 27.0543 99.3302 26.99C100.289 26.9282 101.225 26.6695 102.08 26.23C102.942 25.8209 103.699 25.2187 104.29 24.47C104.944 23.6097 105.402 22.6163 105.63 21.56H110.07C110.781 21.5575 111.489 21.4531 112.17 21.25C112.851 21.0298 113.471 20.6531 113.98 20.15C114.468 20.599 115.034 20.9549 115.65 21.2C116.284 21.4625 116.965 21.5919 117.65 21.58C118.362 21.5848 119.067 21.4418 119.72 21.16C120.358 20.8942 120.933 20.4993 121.41 20C121.909 19.5242 122.3 18.9482 122.56 18.31C122.848 17.6581 122.995 16.9526 122.99 16.24V13.68C122.996 12.9576 122.85 12.2419 122.56 11.58C122.286 10.9499 121.896 10.3767 121.41 9.89002H121.43ZM102.75 18.26H100.82C100.577 18.2402 100.338 18.1864 100.11 18.1C99.897 18.0067 99.7009 17.8782 99.5302 17.72C99.3422 17.5522 99.1951 17.3435 99.1002 17.11C98.9897 16.851 98.9352 16.5716 98.9402 16.29V13.75C98.9334 13.4586 98.9879 13.169 99.1002 12.9C99.1951 12.6665 99.3422 12.4578 99.5302 12.29C99.6975 12.1224 99.8941 11.9868 100.11 11.89C100.336 11.8006 100.577 11.7531 100.82 11.75C101.057 11.7356 101.295 11.7661 101.52 11.84C101.754 11.9054 101.967 12.0293 102.14 12.2C102.329 12.3773 102.479 12.5918 102.58 12.83C102.694 13.1234 102.751 13.4354 102.75 13.75V18.26ZM119.55 16.26C119.564 16.5649 119.509 16.869 119.39 17.15C119.311 17.3946 119.165 17.6126 118.97 17.78C118.797 17.9444 118.588 18.0674 118.36 18.14C118.129 18.2043 117.89 18.2346 117.65 18.23C117.417 18.2124 117.187 18.1584 116.97 18.07C116.738 17.9773 116.523 17.8491 116.33 17.69C116.161 17.5084 116.02 17.3029 115.91 17.08C115.794 16.8228 115.739 16.5421 115.75 16.26V13.75C115.739 13.4582 115.793 13.1676 115.91 12.9C116.02 12.6772 116.161 12.4717 116.33 12.29C116.519 12.1213 116.736 11.986 116.97 11.89C117.185 11.7987 117.416 11.7511 117.65 11.75C117.89 11.7355 118.131 11.766 118.36 11.84C118.588 11.9126 118.797 12.0357 118.97 12.2C119.165 12.3675 119.311 12.5854 119.39 12.83C119.51 13.1214 119.565 13.4354 119.55 13.75V16.26Z" fill="#1E2749"/>
<path d="M149.52 9.88999C149.02 9.41677 148.441 9.03437 147.81 8.75999C147.157 8.47622 146.452 8.33312 145.74 8.33999C145.029 8.33719 144.324 8.48013 143.67 8.75999C143.048 9.0293 142.481 9.41255 142 9.88999C141.515 10.3767 141.125 10.9499 140.85 11.58C140.56 12.2419 140.414 12.9575 140.42 13.68V16.29C140.428 16.601 140.374 16.9105 140.26 17.2C140.153 17.4372 139.992 17.646 139.79 17.81C139.577 17.9657 139.336 18.0778 139.08 18.14C138.793 18.1893 138.501 18.2127 138.21 18.21H131C130.766 18.2109 130.534 18.1632 130.32 18.07C130.098 17.9892 129.892 17.8708 129.71 17.72C129.522 17.5544 129.377 17.3448 129.29 17.11C129.171 16.8535 129.112 16.5728 129.12 16.29V4.17999H125.69V16.33C125.69 17.0392 125.826 17.7417 126.09 18.4C126.353 19.0365 126.744 19.6119 127.24 20.09C127.739 20.5688 128.322 20.9518 128.96 21.22C129.59 21.4996 130.271 21.646 130.96 21.65H138.2C138.908 21.6513 139.613 21.5468 140.29 21.34C140.979 21.1183 141.608 20.7421 142.13 20.24C142.605 20.6905 143.162 21.0468 143.77 21.29C145.067 21.8229 146.523 21.8229 147.82 21.29C148.459 21.0159 149.039 20.6222 149.53 20.13C150.012 19.641 150.402 19.0683 150.68 18.44C150.968 17.7881 151.114 17.0826 151.11 16.37V13.68C151.116 12.9575 150.97 12.2419 150.68 11.58C150.387 10.96 149.999 10.3898 149.53 9.88999H149.52ZM147.68 16.29C147.681 16.5948 147.623 16.8969 147.51 17.18C147.409 17.4208 147.255 17.636 147.06 17.81C146.893 17.9825 146.682 18.1069 146.45 18.17C146.222 18.2343 145.986 18.2647 145.75 18.26C145.516 18.2413 145.287 18.1873 145.07 18.1C144.844 18.0142 144.637 17.8851 144.46 17.72C144.272 17.5472 144.12 17.3402 144.01 17.11C143.9 16.8505 143.842 16.5719 143.84 16.29V13.75C143.841 13.4583 143.899 13.1697 144.01 12.9C144.12 12.6698 144.272 12.4628 144.46 12.29C144.633 12.1153 144.841 11.979 145.07 11.89C145.285 11.7996 145.516 11.7521 145.75 11.75C145.987 11.7355 146.224 11.7661 146.45 11.84C146.682 11.9031 146.893 12.0275 147.06 12.2C147.255 12.374 147.409 12.5892 147.51 12.83C147.624 13.1234 147.681 13.4354 147.68 13.75V16.29Z" fill="#1E2749"/>
<path d="M166.85 20.61C166.86 21.0571 166.76 21.4998 166.56 21.9C166.398 22.2546 166.159 22.5688 165.86 22.82C165.56 23.055 165.222 23.2375 164.86 23.36C164.486 23.483 164.094 23.547 163.7 23.55C163.301 23.5509 162.904 23.4798 162.53 23.34C162.166 23.224 161.827 23.0409 161.53 22.8C161.225 22.5615 160.981 22.2527 160.82 21.9C160.624 21.499 160.528 21.0563 160.54 20.61V15.28H157V20.68C156.986 21.5599 157.182 22.4305 157.57 23.22C157.935 23.9782 158.444 24.6577 159.07 25.22C159.698 25.7623 160.416 26.192 161.19 26.49C161.97 26.7826 162.797 26.9316 163.63 26.93C164.46 26.9324 165.284 26.7833 166.06 26.49C166.833 26.1947 167.547 25.7647 168.17 25.22C168.793 24.6596 169.296 23.9794 169.65 23.22C170.055 22.4354 170.257 21.5625 170.24 20.68V10.68H166.81L166.85 20.61Z" fill="#1E2749"/>
<path d="M164.92 9.68002L162.43 7.21002L159.98 9.68002L162.43 12.13L164.92 9.68002Z" fill="#1E2749"/>
<path d="M211.23 25.55L209.16 23.48L206.72 25.93L209.16 28.39L211.23 26.35L213.27 28.39L215.74 25.93L213.27 23.48L211.23 25.55Z" fill="#1E2749"/>
<path d="M228.65 6.39L231.09 8.86L233.56 6.39L231.09 3.94L228.65 6.39Z" fill="#1E2749"/>
<path d="M229.33 16.29C229.337 16.5728 229.279 16.8535 229.16 17.11C229.058 17.3369 228.915 17.5436 228.74 17.72C228.551 17.8711 228.338 17.9894 228.11 18.07C227.903 18.1649 227.678 18.2127 227.45 18.21H220.21C219.976 18.2127 219.744 18.1649 219.53 18.07C219.304 17.9913 219.094 17.8728 218.91 17.72C218.741 17.5384 218.599 17.3328 218.49 17.11C218.388 16.8484 218.334 16.5707 218.33 16.29V10.67H214.89V16.29C214.901 16.572 214.846 16.8528 214.73 17.11C214.62 17.3402 214.467 17.5472 214.28 17.72C214.104 17.8789 213.896 17.9982 213.67 18.07C213.463 18.1649 213.237 18.2127 213.01 18.21H203.45C203.661 17.6712 203.773 17.0986 203.78 16.52C203.803 15.9778 203.728 15.4358 203.56 14.92C203.417 14.4041 203.18 13.9192 202.86 13.49C202.538 13.0565 202.158 12.6695 201.73 12.34C201.273 12.004 200.767 11.7408 200.23 11.56C199.66 11.3669 199.061 11.2722 198.46 11.28H191.46L196.11 5.99999L193.53 3.73999L189.27 8.64999C189.06 8.88999 188.85 9.11999 188.66 9.35999C188.474 9.58357 188.3 9.81726 188.14 10.06C187.976 10.3066 187.836 10.5677 187.72 10.84C187.611 11.1275 187.534 11.4259 187.49 11.73C187.428 12.1561 187.465 12.5909 187.6 13C187.734 13.3656 187.962 13.6897 188.26 13.94C188.566 14.2222 188.937 14.4248 189.34 14.53C189.776 14.6476 190.229 14.6949 190.68 14.67H198.42C198.787 14.663 199.149 14.7527 199.47 14.93C199.746 15.0858 199.974 15.314 200.13 15.59C200.279 15.8455 200.361 16.1343 200.37 16.43C200.39 16.7257 200.324 17.0208 200.18 17.28C200.031 17.5491 199.809 17.7709 199.54 17.92C199.193 18.0934 198.808 18.1793 198.42 18.17H178.18C177.952 18.1717 177.727 18.1239 177.52 18.03C177.294 17.9582 177.086 17.8389 176.91 17.68C176.722 17.5072 176.57 17.3001 176.46 17.07C176.358 16.8084 176.304 16.5307 176.3 16.25V4.17999H172.86V16.33C172.861 17.0421 173.007 17.7465 173.29 18.4C173.553 19.0365 173.944 19.6119 174.44 20.09C174.93 20.5661 175.503 20.949 176.13 21.22C176.776 21.505 177.474 21.6515 178.18 21.65H213C213.686 21.6618 214.366 21.5325 215 21.27C215.604 21.041 216.16 20.7019 216.64 20.27C217.11 20.7056 217.66 21.0453 218.26 21.27C218.894 21.5298 219.574 21.659 220.26 21.65H227.5C228.189 21.6438 228.869 21.4975 229.5 21.22C230.134 20.9566 230.711 20.5729 231.2 20.09C231.695 19.6119 232.087 19.0365 232.35 18.4C232.636 17.7472 232.786 17.0428 232.79 16.33V10.67H229.34L229.33 16.29Z" fill="#1E2749"/>
<path d="M255.43 25.54L253.38 23.48L250.91 25.93L253.38 28.4L255.43 26.36L257.49 28.4L259.95 25.93L257.49 23.48L255.43 25.54Z" fill="#1E2749"/>
<path d="M261.39 16.28C261.397 16.5649 261.342 16.8479 261.23 17.11C261.134 17.3399 260.987 17.5451 260.8 17.71C260.621 17.8689 260.414 17.9942 260.19 18.08C259.971 18.1682 259.736 18.2124 259.5 18.21H251.31C251.066 18.2139 250.824 18.1662 250.6 18.07C250.38 17.9846 250.175 17.8666 249.99 17.72C249.812 17.5462 249.669 17.3389 249.57 17.11C249.451 16.8535 249.393 16.5728 249.4 16.29V13.68C249.406 12.9618 249.263 12.2502 248.98 11.59C248.439 10.3124 247.42 9.29689 246.14 8.76002C245.487 8.47625 244.782 8.33314 244.07 8.34002C243.359 8.33722 242.654 8.48015 242 8.76002C241.371 9.02714 240.797 9.4105 240.31 9.89002C239.822 10.3807 239.429 10.957 239.15 11.59C238.867 12.2502 238.724 12.9618 238.73 13.68V20.24H242.16V13.75C242.161 13.4584 242.219 13.1697 242.33 12.9C242.442 12.6786 242.583 12.4734 242.75 12.29C242.93 12.124 243.136 11.9888 243.36 11.89C243.586 11.8006 243.827 11.7531 244.07 11.75C244.307 11.7356 244.545 11.7661 244.77 11.84C244.997 11.915 245.205 12.0378 245.38 12.2C245.563 12.3805 245.709 12.5944 245.81 12.83C245.924 13.123 245.979 13.4358 245.97 13.75V16.33C245.967 17.0415 246.11 17.7459 246.39 18.4C246.656 19.0374 247.051 19.6128 247.55 20.09C248.039 20.5672 248.612 20.9502 249.24 21.22C249.892 21.5078 250.598 21.6543 251.31 21.65H259.5C260.201 21.6523 260.896 21.5146 261.543 21.245C262.191 20.9755 262.778 20.5794 263.27 20.08C263.755 19.5948 264.142 19.0211 264.41 18.39C264.692 17.7365 264.835 17.0317 264.83 16.32V10.67H261.39V16.28Z" fill="#1E2749"/>
<path d="M88.6202 16.27C88.627 16.5614 88.5725 16.851 88.4602 17.12C88.3624 17.3461 88.2155 17.5477 88.0302 17.71C87.8523 17.8711 87.6453 17.9967 87.4202 18.08C87.2062 18.1749 86.9743 18.2227 86.7402 18.22H71.2902C71.0565 18.2189 70.8253 18.1713 70.6102 18.08C70.3897 17.9873 70.1842 17.8627 70.0002 17.71C69.8058 17.5252 69.6527 17.3014 69.551 17.0532C69.4493 16.805 69.4013 16.5381 69.4102 16.27V10.68H66.0002V16.32C65.9943 17.0328 66.1409 17.7385 66.4302 18.39C66.6926 19.0194 67.0727 19.593 67.5502 20.08C68.036 20.571 68.6136 20.9618 69.2502 21.23C69.9007 21.5099 70.602 21.6528 71.3102 21.65H86.7402C87.4516 21.6528 88.1561 21.5099 88.8102 21.23C90.0828 20.6847 91.0939 19.6664 91.6302 18.39C91.912 17.7365 92.055 17.0316 92.0502 16.32V10.68H88.6202V16.27Z" fill="#1E2749"/>
<path d="M290.63 25.55L288.57 23.48L286.1 25.93L288.57 28.39L290.63 26.35L292.68 28.39L295.15 25.93L292.68 23.48L290.63 25.55Z" fill="#1E2749"/>
<path d="M319.88 13.89C319.327 13.6315 318.792 13.3341 318.28 13C317.76 12.64 317.2 12.27 316.66 11.87C316.12 11.47 315.55 11.07 314.99 10.69C314.43 10.31 313.86 9.99003 313.3 9.69003C312.761 9.40808 312.18 9.21238 311.58 9.11003C311.378 9.08523 311.173 9.08523 310.97 9.11003H304.43V12.99H310C310.213 12.9698 310.427 12.9698 310.64 12.99C311.064 13.0274 311.483 13.1078 311.89 13.23C312.523 13.4337 313.13 13.7089 313.7 14.05C314.303 14.4111 314.881 14.812 315.43 15.25C314.43 15.86 313.55 16.35 312.83 16.75C312.16 17.0934 311.468 17.394 310.76 17.65C310.14 17.8676 309.5 18.025 308.85 18.12C308.186 18.1947 307.518 18.2314 306.85 18.23H299.61C299.383 18.2308 299.158 18.1831 298.95 18.09C298.726 18.0137 298.519 17.8948 298.34 17.74C298.152 17.5744 298.008 17.3649 297.92 17.13C297.801 16.8735 297.743 16.5928 297.75 16.31V10.67H294.3V16.29C294.296 16.5707 294.242 16.8484 294.14 17.11C294.03 17.3402 293.878 17.5472 293.69 17.72C293.506 17.8666 293.3 17.9846 293.08 18.07C292.866 18.1633 292.634 18.2109 292.4 18.21H275C275 17.91 275 17.6 275 17.3V10.67H271.54V15.91C271.54 16.91 271.54 17.91 271.54 18.78C271.54 19.65 271.47 20.52 271.4 21.34C271.315 21.9471 271.022 22.5057 270.57 22.92C270.154 23.3072 269.644 23.5794 269.09 23.71C268.491 23.8538 267.871 23.8877 267.26 23.81C266.638 23.7502 266.028 23.5986 265.45 23.36V26.79C266.381 27.0033 267.336 27.0907 268.29 27.05C269.073 27.0389 269.85 26.9211 270.6 26.7C271.238 26.4892 271.839 26.1787 272.38 25.78C272.87 25.4126 273.298 24.9705 273.65 24.47C273.903 24.0617 274.108 23.6254 274.26 23.17C274.437 22.6758 274.571 22.1672 274.66 21.65H292.4C293.086 21.6654 293.768 21.5359 294.4 21.27C295.005 21.0421 295.561 20.7029 296.04 20.27C296.528 20.6966 297.086 21.035 297.69 21.27C298.307 21.5291 298.971 21.6584 299.64 21.65H306.88C307.919 21.6842 308.959 21.6037 309.98 21.41C310.854 21.2298 311.712 20.9858 312.55 20.68C313.291 20.3928 314.012 20.0588 314.71 19.68C315.37 19.33 316 19 316.61 18.68C317.191 18.4134 317.789 18.1863 318.4 18C319.013 17.8028 319.656 17.7148 320.3 17.74H321.41V14.24C320.882 14.2232 320.363 14.1044 319.88 13.89Z" fill="#1E2749"/>
<path d="M310.75 3.83L308.29 1.37L305.84 3.83L308.29 6.29L310.75 3.83Z" fill="#1E2749"/>
<path d="M68.3 37.57C68.37 39.16 68.43 40.57 68.43 42.68V52.13H66V34.47H69.35L74.62 44.47C75.35 45.88 76.15 47.42 76.78 48.85H76.94C76.86 46.99 76.86 45.13 76.86 43.54V34.54H79.25V52.13H76L70.57 42C69.81 40.56 69.16 39.13 68.45 37.59L68.3 37.57Z" fill="#1E2749"/>
<path d="M84.6498 32.68C84.8719 32.6743 85.0928 32.7144 85.2988 32.7977C85.5047 32.881 85.6914 33.0058 85.847 33.1643C86.0027 33.3228 86.1242 33.5116 86.2038 33.7191C86.2834 33.9265 86.3195 34.1481 86.3098 34.37C86.314 34.5878 86.2738 34.8042 86.1914 35.0058C86.1091 35.2075 85.9865 35.3902 85.8311 35.5428C85.6757 35.6954 85.4907 35.8147 85.2876 35.8933C85.0845 35.9719 84.8674 36.0082 84.6498 36C84.4337 36.004 84.219 35.9648 84.0183 35.8845C83.8176 35.8043 83.635 35.6847 83.4812 35.5328C83.3275 35.3809 83.2057 35.1998 83.123 35.0001C83.0403 34.8004 82.9984 34.5862 82.9998 34.37C82.9931 34.1505 83.0306 33.9318 83.11 33.7271C83.1894 33.5223 83.3091 33.3355 83.4621 33.1779C83.615 33.0203 83.7981 32.895 84.0004 32.8095C84.2027 32.724 84.4201 32.6799 84.6398 32.68H84.6498ZM83.4798 38.27H85.9998V52.13H83.4998L83.4798 38.27Z" fill="#1E2749"/>
<path d="M92.3398 52.13H89.8398V33H92.3398V52.13ZM92.6098 44.85L97.2498 38.27H100.25L95.4298 44.8V44.9L100.43 52.13H97.3998L92.6098 45V44.85Z" fill="#1E2749"/>
<path d="M111.76 42.38V48.38C111.76 49.48 112.11 50.17 113 50.17H113.37V52C113.044 52.1735 112.679 52.2629 112.31 52.26C111.77 52.2964 111.233 52.156 110.78 51.8601C110.328 51.5642 109.983 51.1289 109.8 50.62H109.69C109.214 51.2134 108.602 51.6832 107.905 51.9896C107.209 52.296 106.449 52.4299 105.69 52.38C105.181 52.4155 104.67 52.3464 104.188 52.1769C103.707 52.0074 103.265 51.7412 102.89 51.3946C102.515 51.048 102.216 50.6283 102.009 50.1614C101.803 49.6946 101.694 49.1904 101.69 48.68C101.69 45.55 104.69 44.07 109.4 44.19V42.81C109.4 40.81 108.4 40.16 106.75 40.16C106.158 40.1323 105.571 40.2714 105.055 40.5613C104.539 40.8513 104.114 41.2805 103.83 41.8L102.04 40.41C102.576 39.6533 103.291 39.0415 104.122 38.6296C104.953 38.2176 105.873 38.0185 106.8 38.05C109.93 38.05 111.74 39.33 111.74 42.38H111.76ZM109.42 46C106.42 45.85 104.18 46.61 104.18 48.42C104.179 48.6994 104.236 48.976 104.348 49.2319C104.46 49.4878 104.625 49.7174 104.831 49.9059C105.038 50.0943 105.281 50.2374 105.546 50.3259C105.811 50.4145 106.092 50.4465 106.37 50.42C106.965 50.4089 107.549 50.254 108.071 49.9684C108.594 49.6828 109.039 49.2751 109.37 48.78L109.42 46Z" fill="#1E2749"/>
<path d="M126.55 52.13H124.06V43.13C124.06 41.24 123.12 40.13 121.39 40.13C120.693 40.126 120.012 40.3397 119.442 40.7412C118.872 41.1428 118.441 41.7122 118.21 42.37V52.12H115.72V38.27H117.63L118.14 39.68H118.24C118.734 39.1444 119.334 38.7181 120.002 38.4288C120.67 38.1394 121.392 37.9933 122.12 38C124.86 38 126.5 39.51 126.55 42.59V52.13Z" fill="#1E2749"/>
<path d="M145.67 46.16L150.23 34.47H154.23V52.13H151.76V37.47H151.63C150.04 41.52 148.38 45.68 146.8 49.71H144.35L139.5 37.47H139.35V52.13H137V34.47H141L145.56 46.16H145.67Z" fill="#1E2749"/>
<path d="M167.24 42.38V48.38C167.24 49.48 167.59 50.17 168.47 50.17H168.85V52C168.524 52.1735 168.16 52.2629 167.79 52.26C167.249 52.2953 166.712 52.1547 166.257 51.8591C165.803 51.5634 165.457 51.1288 165.27 50.62H165.17C164.699 51.2062 164.095 51.6717 163.408 51.9778C162.721 52.2839 161.971 52.4218 161.22 52.38C160.711 52.4155 160.2 52.3464 159.718 52.1769C159.237 52.0074 158.795 51.7412 158.42 51.3946C158.046 51.048 157.746 50.6283 157.54 50.1614C157.333 49.6946 157.224 49.1904 157.22 48.68C157.22 45.55 160.22 44.07 164.93 44.19V42.81C164.93 40.81 163.93 40.16 162.28 40.16C161.689 40.1323 161.101 40.2714 160.585 40.5613C160.069 40.8513 159.644 41.2805 159.36 41.8L157.57 40.41C158.105 39.6519 158.82 39.0392 159.651 38.6271C160.482 38.215 161.403 38.0167 162.33 38.05C165.45 38.05 167.27 39.33 167.27 42.38H167.24ZM164.9 46C161.85 45.85 159.66 46.61 159.66 48.42C159.659 48.6994 159.716 48.976 159.828 49.2319C159.941 49.4878 160.105 49.7174 160.311 49.9059C160.518 50.0943 160.761 50.2374 161.026 50.3259C161.291 50.4145 161.572 50.4465 161.85 50.42C162.454 50.417 163.048 50.2659 163.58 49.98C164.111 49.6941 164.565 49.282 164.9 48.78V46Z" fill="#1E2749"/>
<path d="M185.13 38C187.85 38 189.38 39.54 189.38 42.61V52.16H186.89V43.06C186.89 41.06 185.89 40.14 184.45 40.14C183.807 40.1503 183.183 40.3557 182.66 40.7289C182.137 41.1022 181.739 41.6257 181.52 42.23V52.13H179V43.24C179 41.24 178.12 40.14 176.48 40.14C175.831 40.1579 175.205 40.3859 174.697 40.7898C174.188 41.1937 173.824 41.7518 173.66 42.38V52.13H171.16V38.27H173.16L173.64 39.68H173.74C174.161 39.1288 174.707 38.686 175.333 38.3885C175.959 38.091 176.647 37.9476 177.34 37.97C178.098 37.874 178.867 38.0295 179.528 38.4124C180.189 38.7954 180.706 39.3848 181 40.09H181.1C181.524 39.4135 182.121 38.8629 182.83 38.4954C183.539 38.1278 184.333 37.9568 185.13 38Z" fill="#1E2749"/>
<path d="M206.72 38C209.44 38 210.98 39.54 210.98 42.61V52.16H208.48V43.06C208.48 41.06 207.53 40.14 206.04 40.14C205.398 40.1495 204.775 40.3547 204.253 40.7282C203.731 41.1017 203.336 41.6257 203.12 42.23V52.13H200.62V43.24C200.62 41.24 199.74 40.14 198.1 40.14C197.451 40.1579 196.825 40.3859 196.317 40.7898C195.808 41.1937 195.444 41.7517 195.28 42.38V52.13H192.79V38.27H194.79L195.27 39.68H195.37C195.79 39.1287 196.336 38.6859 196.963 38.3885C197.589 38.091 198.277 37.9476 198.97 37.97C199.72 37.8855 200.477 38.0464 201.128 38.4286C201.779 38.8109 202.288 39.3938 202.58 40.09H202.68C203.105 39.412 203.704 38.8604 204.414 38.4927C205.125 38.1251 205.921 37.9549 206.72 38Z" fill="#1E2749"/>
<path d="M214.3 38.27H216.8V47.27C216.8 49.27 217.71 50.32 219.52 50.32C219.917 50.3514 220.317 50.3015 220.695 50.1735C221.072 50.0455 221.42 49.842 221.717 49.5754C222.013 49.3088 222.252 48.9847 222.42 48.6228C222.587 48.2608 222.679 47.8686 222.69 47.47V38.27H225.19V52.13H223.19L222.78 50.74H222.68C222.202 51.2947 221.605 51.7333 220.932 52.0227C220.26 52.312 219.531 52.4445 218.8 52.41C215.93 52.41 214.39 50.9 214.34 47.7L214.3 38.27Z" fill="#1E2749"/>
<path d="M229 48.22V40.22H227V38.68L229 38.17L229.8 34.67H231.47V38.27H235.17V40.27H231.47V48.2C231.47 49.56 232.17 50.2 233.3 50.2C234.028 50.2415 234.751 50.0563 235.37 49.67L236.03 51.61C235.012 52.1633 233.855 52.4099 232.7 52.32C230.38 52.32 229 51.11 229 48.32" fill="#1E2749"/>
<path d="M251.42 34.22C253.214 34.1056 254.982 34.6938 256.35 35.86L254.72 37.77C254.258 37.3197 253.707 36.9706 253.103 36.745C252.499 36.5195 251.854 36.4224 251.21 36.46C248.32 36.46 246.63 38.58 246.63 43.26C246.63 47.7 248.27 50.11 251.44 50.11C252.049 50.1515 252.66 50.0683 253.236 49.8654C253.812 49.6625 254.341 49.3442 254.79 48.93L256.2 50.72C255.45 51.52 253.81 52.38 251.14 52.38C246.14 52.38 244.03 48.83 244.03 43.44C244.03 37.72 246.58 34.22 251.42 34.22Z" fill="#1E2749"/>
<path d="M269.4 42.61V52.13H266.91V43.06C266.91 41.4 266.08 40.26 264.37 40.26C263.668 40.262 262.983 40.4683 262.397 40.8537C261.811 41.2391 261.35 41.7868 261.07 42.43V52.13H258.57V33H261.07V39.75H261.17C261.661 39.206 262.264 38.7736 262.937 38.4821C263.609 38.1906 264.337 38.0466 265.07 38.06C267.74 38.06 269.4 39.7 269.4 42.6" fill="#1E2749"/>
<path d="M282.08 42.38V48.38C282.08 49.48 282.43 50.17 283.31 50.17H283.69V52C283.363 52.1727 282.999 52.262 282.63 52.26C282.089 52.297 281.55 52.157 281.096 51.8612C280.641 51.5653 280.295 51.1297 280.11 50.62H280C279.529 51.2062 278.925 51.6717 278.238 51.9778C277.551 52.2839 276.801 52.4218 276.05 52.38C275.541 52.4155 275.03 52.3464 274.548 52.1769C274.067 52.0074 273.625 51.7412 273.25 51.3946C272.875 51.048 272.576 50.6283 272.369 50.1614C272.163 49.6946 272.054 49.1904 272.05 48.68C272.05 45.55 275.05 44.07 279.75 44.19V42.81C279.75 40.81 278.75 40.16 277.11 40.16C276.518 40.1323 275.931 40.2714 275.415 40.5613C274.898 40.8513 274.474 41.2805 274.19 41.8L272.4 40.41C272.935 39.6519 273.65 39.0392 274.481 38.6271C275.312 38.215 276.233 38.0167 277.16 38.05C280.28 38.05 282.1 39.33 282.1 42.38H282.08ZM279.73 46C276.68 45.85 274.49 46.61 274.49 48.42C274.489 48.6994 274.546 48.976 274.658 49.2319C274.77 49.4878 274.935 49.7174 275.141 49.9059C275.347 50.0943 275.591 50.2374 275.856 50.3259C276.121 50.4145 276.402 50.4465 276.68 50.42C277.284 50.4196 277.879 50.2697 278.411 49.9835C278.943 49.6974 279.396 49.2839 279.73 48.78V46Z" fill="#1E2749"/>
<path d="M293.42 40.69C292.906 40.5642 292.379 40.4971 291.85 40.49C291.205 40.4649 290.563 40.5965 289.98 40.8733C289.396 41.1502 288.889 41.5642 288.5 42.08V52.13H286V38.27H288L288.53 39.96H288.63C288.98 39.3477 289.492 38.8431 290.109 38.501C290.726 38.159 291.425 37.9926 292.13 38.02C292.58 38.0095 293.03 38.0531 293.47 38.15L293.42 40.69Z" fill="#1E2749"/>
<path d="M296.69 32.68C296.912 32.6743 297.133 32.7144 297.339 32.7977C297.545 32.881 297.732 33.0058 297.887 33.1643C298.043 33.3228 298.164 33.5116 298.244 33.7191C298.324 33.9265 298.36 34.1481 298.35 34.37C298.35 34.8076 298.176 35.2273 297.867 35.5368C297.557 35.8462 297.138 36.02 296.7 36.02C296.262 36.02 295.843 35.8462 295.533 35.5368C295.224 35.2273 295.05 34.8076 295.05 34.37C295.042 34.1501 295.078 33.9309 295.157 33.7255C295.236 33.5201 295.356 33.3328 295.509 33.1748C295.662 33.0169 295.846 32.8917 296.049 32.8066C296.252 32.7216 296.47 32.6785 296.69 32.68ZM295.53 38.27H298V52.13H295.5L295.53 38.27Z" fill="#1E2749"/>
<path d="M302.26 48.22V40.22H300.26V38.68L302.26 38.17L303.06 34.67H304.73V38.27H308.43V40.27H304.73V48.2C304.73 49.56 305.43 50.2 306.57 50.2C307.295 50.24 308.014 50.0549 308.63 49.67L309.29 51.61C308.272 52.1633 307.115 52.4099 305.96 52.32C303.64 52.32 302.26 51.11 302.26 48.32" fill="#1E2749"/>
<path d="M310 55C310.434 55.1701 310.894 55.2616 311.36 55.27C312.95 55.27 313.86 54.39 314.36 52.48L309.3 38.29H312L314 44.47C314.74 46.68 315.16 48.25 315.47 49.47H315.57C315.898 47.7796 316.325 46.1101 316.85 44.47L318.77 38.29H321.34L316.59 53C315.76 55.57 314.38 57.41 311.4 57.41C310.793 57.4189 310.19 57.3172 309.62 57.11L310 55Z" fill="#1E2749"/>
<path d="M5.56998 24.51C5.56998 24.51 7.12998 17.75 11.9 18.72C15.73 19.5 17.35 23.02 14.43 31.38C14.43 31.38 11.37 39.38 9.64998 41.38C9.64998 41.38 22.38 21.26 32.28 23.26C34.2 23.65 35.89 25.26 37.05 29.17C37.8235 33.2856 38.3577 37.4426 38.65 41.62C39.35 51.62 45.01 45.01 45.38 45.46C45.75 45.91 40.76 54.28 35.24 52.97C31.81 52.15 32.43 44.77 32.12 38.55C31.85 32.9 31.65 27.08 28.81 26.34C26.75 25.81 22.97 27.66 16.33 38.22C11 46.7 7.88998 51.18 5.50998 53.45C2.50998 56.34 0.839981 55.45 0.229981 53.73C-1.39002 49 5.99998 43.12 11 32.2C16.51 20.26 5.56998 24.51 5.56998 24.51Z" fill="#14AAE2"/>
<path d="M25.3599 7.29004C25.3599 7.29004 20.1899 6.81004 19.3599 11.05C18.5299 15.29 17.7599 18.63 21.0699 19.26C24.3799 19.89 27.4599 19.63 28.6099 17.52C29.6614 15.2828 30.0501 12.7912 29.7299 10.34C29.3599 9.15004 28.7299 7.34004 25.3799 7.34004" fill="#14AAE2"/>
<path d="M13.76 17.44C13.76 17.44 14.36 14.91 14.76 14.73C15.16 14.55 7 14.17 7 14.39C7 14.61 12.13 17.03 13.8 17.44" fill="#14AAE2"/>
<path d="M15.1701 11.72C15.1701 11.72 14.1001 13.02 11.4201 11.23C8.74006 9.44 7.11006 7.7 9.11006 7.63C10.8428 7.72332 12.5502 8.08775 14.1701 8.71C14.1701 8.71 17.1701 9.63 15.1701 11.71" fill="#14AAE2"/>
<path d="M19.3002 7.89001C19.3002 7.89001 17.7402 8.89001 16.7402 7.62001C15.7402 6.35001 14.0002 2.79001 14.8202 1.90001C15.6402 1.01001 18.1402 4.21001 18.6102 4.65001C19.0802 5.09001 20.3802 7.00001 19.3002 7.89001Z" fill="#14AAE2"/>
<path d="M23.5401 5.83999C23.5401 5.83999 21.7501 6.28999 21.2701 4.83999C20.7901 3.38999 20.3401 1.48999 21.2701 1.26999C21.5011 1.18061 21.749 1.1431 21.9961 1.16012C22.2432 1.17715 22.4836 1.24828 22.7001 1.3685C22.9167 1.48871 23.1042 1.65506 23.2494 1.85578C23.3945 2.05649 23.4938 2.28666 23.5401 2.52999C24.0201 3.90999 24.7701 5.31999 23.5401 5.83999Z" fill="#14AAE2"/>
<path d="M26.1798 4.21002C26.5229 3.26855 26.9725 2.36938 27.5198 1.53002C28.1498 0.750015 28.8598 -0.219985 29.1498 1.53184e-05C29.4398 0.220015 28.9998 3.58002 28.6698 4.21002C28.3398 4.84002 27.8498 6.07001 27.1098 5.47002C26.3698 4.87002 25.9998 4.59002 26.1798 4.21002Z" fill="#14AAE2"/>
<path d="M31.05 8.25004C30.9203 7.77284 30.9787 7.26404 31.2131 6.82862C31.4476 6.3932 31.8402 6.06439 32.3101 5.91004C34.1001 5.00004 37 3.46004 37.78 4.00004C38.56 4.54004 35.3601 6.87004 34.8801 7.26004C34.4001 7.65004 32.09 10.11 31.05 8.26004" fill="#14AAE2"/>
<path d="M31.4201 14.32C31.4201 14.32 30.2301 13.08 32.5001 12.17C34.7701 11.26 41.6801 8.97001 43.5001 9.75001C45.3201 10.53 39.5001 12.68 38.7801 12.98C38.0601 13.28 32.6101 16.37 31.3801 14.32" fill="#14AAE2"/>
<path d="M33.3901 19C33.3901 19 32.0501 17.66 34.7701 17.4C37.4901 17.14 39.7701 17.22 39.9001 17.85C39.7925 18.4711 39.5107 19.049 39.0877 19.5163C38.6646 19.9837 38.1175 20.3213 37.5101 20.49C36.1401 20.67 34.7901 21.08 34.3401 20.42L33.3401 19" fill="#14AAE2"/>
</g>
<defs>
<clipPath id="clip0">
<rect width="321.41" height="57.42" fill="white"/>
</clipPath>
</defs>
</svg>
