<svg xmlns="http://www.w3.org/2000/svg" xmlns:xlink="http://www.w3.org/1999/xlink" width="120" height="120" viewBox="0 0 120 120"><defs><style>.a,.b{fill:#f1f0f0;}.b{stroke:#e4e3e1;}.c{clip-path:url(#a);}.d{fill:#dedddb;}.e{stroke:none;}.f{fill:none;}</style><clipPath id="a"><circle class="a" cx="60" cy="60" r="60" transform="translate(540 1099)"/></clipPath></defs><g class="b"><circle class="e" cx="60" cy="60" r="60"/><circle class="f" cx="60" cy="60" r="59.5"/></g><g class="c" transform="translate(-540 -1099)"><path class="d" d="M317.15,162.7c-.211-3.289.217-6.751-.7-9.823-1.175-3.973-.811-7.882-.932-11.822-.07-2.516-1.022-4.222-3.494-4.956a58.646,58.646,0,0,1-14.051-6.387,39.356,39.356,0,0,1-8.495-7.1,20.12,20.12,0,0,0-3.673-2.555s1.718,7.147.415,9.906c-1.807,3.832-4.956,14.128-7.664,23.555l1.277-12.506a.639.639,0,0,0-.07-.364l-2.74-5.384,2.146-5.691a.639.639,0,0,0-.1-.607.741.741,0,0,0-.568-.294H276.35l8.508-5.972v-2.823c2.791-2.881,4.867-9.951,4.867-9.951s.837-.07.8-1.916,3.123-8.993.683-10.187c0,0-.524-.07-.1-1.737,2.874-11.152-1.788-15.38-5.748-15.469a3.73,3.73,0,0,0-1.629-1.629,4.624,4.624,0,0,1,1.405,1.546l-.319-.109c-2.5-2.887-4.835-3.085-4.835-3.085a10.159,10.159,0,0,1,3.864,2.606,21.573,21.573,0,0,0-12.174-4.126h-.045c-6.31,0-17.692,5.589-13.911,20.26.428,1.667-.1,1.737-.1,1.737-2.44,1.194.722,8.341.683,10.187s.8,1.916.8,1.916,2.076,7.07,4.867,9.951v2.842l8.514,5.972H270.32a.715.715,0,0,0-.562.294.639.639,0,0,0-.1.607l2.146,5.691-2.74,5.384a.639.639,0,0,0-.07.364l1.277,12.506c-2.714-9.427-5.863-19.736-7.664-23.555-1.277-2.759.415-9.906.415-9.906a18.845,18.845,0,0,0-3.673,2.555,39.057,39.057,0,0,1-8.495,7.1,58.537,58.537,0,0,1-14.051,6.387c-2.472.735-3.417,2.44-3.494,4.956-.121,3.941.243,7.85-.933,11.822-.913,3.072-.485,6.534-.69,9.823-.351,5.429-.734,10.858-1.1,16.268h87.668C317.878,173.548,317.495,168.132,317.15,162.7Z" transform="translate(325.586 1043.098)"/></g></svg>