<svg xmlns="http://www.w3.org/2000/svg" width="240" height="32" viewBox="0 0 240 32">
  <g id="Logo" transform="translate(-852 -39.25)">
    <g id="final-03" transform="translate(897.894 46.678)">
      <g id="Group_9139" data-name="Group 9139" transform="translate(0 0.03)">
        <path id="Path_31696" data-name="Path 31696" d="M38.8,118.772l-6.76,16.094a.516.516,0,0,0,.473.714h2.746a.514.514,0,0,0,.473-.322l1.117-2.716a.525.525,0,0,1,.473-.322h6.257a.514.514,0,0,1,.473.322l1.117,2.726a.525.525,0,0,0,.473.322H48.41a.512.512,0,0,0,.473-.714L42.1,118.792a.515.515,0,0,0-.473-.312H39.267A.456.456,0,0,0,38.8,118.772Zm-.121,9.345,1.308-3.168a.519.519,0,0,1,.956,0l1.3,3.168a.516.516,0,0,1-.473.714H39.156A.522.522,0,0,1,38.684,128.117Z" transform="translate(-32.005 -118.45)"/>
        <path id="Path_31697" data-name="Path 31697" d="M218.159,119.849a7.2,7.2,0,0,0-4.838-1.549h-6.508a.515.515,0,0,0-.513.513V134.9a.515.515,0,0,0,.513.513h2.6a.515.515,0,0,0,.513-.513V130.9a.515.515,0,0,1,.513-.513h2.776a7.246,7.246,0,0,0,4.9-1.589,5.721,5.721,0,0,0,1.881-4.547A5.447,5.447,0,0,0,218.159,119.849Zm-4.939,7.091h-2.776a.515.515,0,0,1-.513-.513v-4.174a.515.515,0,0,1,.513-.513h2.776a3.665,3.665,0,0,1,2.354.664h0a2.281,2.281,0,0,1,.754,1.891C216.329,125.532,215.977,126.94,213.22,126.94Z" transform="translate(-188.768 -118.29)"/>
        <path id="Path_31698" data-name="Path 31698" d="M367.559,119.849a7.2,7.2,0,0,0-4.838-1.549h-6.508a.515.515,0,0,0-.513.513V134.9a.515.515,0,0,0,.513.513h2.6a.515.515,0,0,0,.513-.513V130.9a.515.515,0,0,1,.513-.513h2.776a7.245,7.245,0,0,0,4.9-1.589,5.721,5.721,0,0,0,1.881-4.547A5.51,5.51,0,0,0,367.559,119.849Zm-4.939,7.091h-2.776a.515.515,0,0,1-.513-.513v-4.174a.515.515,0,0,1,.513-.513h2.776a3.665,3.665,0,0,1,2.354.664h0a2.281,2.281,0,0,1,.754,1.891C365.719,125.532,365.366,126.94,362.62,126.94Z" transform="translate(-323.14 -118.29)"/>
        <path id="Path_31699" data-name="Path 31699" d="M508.208,118.3h-2.6a.515.515,0,0,0-.513.513V134.9a.515.515,0,0,0,.513.513h10.542a.515.515,0,0,0,.513-.513v-2.414a.515.515,0,0,0-.513-.513h-6.91a.515.515,0,0,1-.513-.513V118.813A.531.531,0,0,0,508.208,118.3Z" transform="translate(-457.513 -118.29)"/>
        <path id="Path_31700" data-name="Path 31700" d="M599.84,118.472l-3.289,5.754a.519.519,0,0,1-.9,0l-3.33-5.764a.512.512,0,0,0-.443-.262H588.9a.513.513,0,0,0-.443.775l5.734,9.687a.487.487,0,0,1,.07.262V134.8a.515.515,0,0,0,.513.513H597.4a.515.515,0,0,0,.513-.513v-5.874a.487.487,0,0,1,.07-.262l5.734-9.687a.513.513,0,0,0-.443-.775h-2.987A.559.559,0,0,0,599.84,118.472Z" transform="translate(-532.417 -118.2)"/>
      </g>
      <g id="Group_9140" data-name="Group 9140" transform="translate(77.764)">
        <path id="Path_31701" data-name="Path 31701" d="M818.338,127.587h-4.949a.515.515,0,0,1-.513-.513V126.1a.515.515,0,0,1,.513-.513h6.8a.515.515,0,0,1,.513.513v.855a8.565,8.565,0,0,1-1.992,5.945,6.991,6.991,0,0,1-5.452,2.213,7.615,7.615,0,0,1-5.935-2.454,9.555,9.555,0,0,1,.041-12.3,7.73,7.73,0,0,1,5.975-2.454,9.948,9.948,0,0,1,2.152.221,7.421,7.421,0,0,1,1.67.533,10.249,10.249,0,0,1,1.127.634,5.4,5.4,0,0,1,.7.533l.191.221-1.348,1.73c-.131-.131-.3-.292-.533-.483a6.547,6.547,0,0,0-1.509-.764,6.357,6.357,0,0,0-2.454-.483,5.409,5.409,0,0,0-4.285,1.851,7.431,7.431,0,0,0-.03,9.224,5.3,5.3,0,0,0,4.225,1.851,4.841,4.841,0,0,0,3.692-1.459,5.29,5.29,0,0,0,1.388-3.812v-.111Z" transform="translate(-805.1 -117.9)" fill="#e2ad42"/>
        <path id="Path_31702" data-name="Path 31702" d="M999.927,130.543h-6.96a.515.515,0,0,0-.513.513V135.3a.515.515,0,0,0,.513.513h8.339a.515.515,0,0,1,.513.513v1.026a.515.515,0,0,1-.513.513H990.713a.515.515,0,0,1-.513-.513v-15.44a.515.515,0,0,1,.513-.513h10.582a.515.515,0,0,1,.513.513v1.026a.515.515,0,0,1-.513.513h-8.339a.515.515,0,0,0-.513.513v4.054a.515.515,0,0,0,.513.513h6.961a.515.515,0,0,1,.513.513v.976A.5.5,0,0,1,999.927,130.543Z" transform="translate(-971.581 -121.048)" fill="#e2ad42"/>
        <path id="Path_31703" data-name="Path 31703" d="M1144.689,121.4a6.877,6.877,0,0,1,4.617,1.438,5.052,5.052,0,0,1,1.669,4.054,5.466,5.466,0,0,1-.955,3.269,5.216,5.216,0,0,1-2.666,1.871v.111l4.034,5.3v.443h-2.183a.545.545,0,0,1-.412-.2l-3.812-5.049a.513.513,0,0,0-.412-.2h-3.7a.515.515,0,0,0-.513.513v4.406a.515.515,0,0,1-.513.513h-1.227a.515.515,0,0,1-.513-.513v-15.44a.515.515,0,0,1,.513-.513Zm2.887,2.937a4.556,4.556,0,0,0-2.967-.875h-3.742a.515.515,0,0,0-.513.513v5.894a.515.515,0,0,0,.513.513h3.933a4.262,4.262,0,0,0,2.8-.865,3.7,3.7,0,0,0-.02-5.18Z" transform="translate(-1104.605 -121.048)" fill="#e2ad42"/>
        <path id="Path_31704" data-name="Path 31704" d="M1313.6,126.812l-4.084,5.261a.541.541,0,0,1-.4.2h-.241a.483.483,0,0,1-.4-.2l-4.084-5.221a.513.513,0,0,0-.915.322v10.179a.515.515,0,0,1-.513.513h-1.247a.515.515,0,0,1-.513-.513l.03-15.44a.515.515,0,0,1,.513-.513h.885a.483.483,0,0,1,.4.2l5.592,7.182a.521.521,0,0,0,.815,0L1315,121.6a.51.51,0,0,1,.4-.2h.885a.515.515,0,0,1,.513.513v15.44a.515.515,0,0,1-.513.513h-1.227a.515.515,0,0,1-.513-.513v-10.23A.53.53,0,0,0,1313.6,126.812Z" transform="translate(-1251.299 -121.048)" fill="#e2ad42"/>
        <path id="Path_31705" data-name="Path 31705" d="M1496.594,137.866h-1.268a.514.514,0,0,1-.473-.322l-1.2-2.907a.526.526,0,0,0-.473-.322H1485.5a.514.514,0,0,0-.473.322l-1.2,2.907a.525.525,0,0,1-.473.322h-1.247a.512.512,0,0,1-.473-.714l6.488-15.44a.515.515,0,0,1,.473-.312h1.488a.505.505,0,0,1,.473.312l6.508,15.44A.516.516,0,0,1,1496.594,137.866Zm-9.848-5.542h5.191a.516.516,0,0,0,.473-.714l-2.585-6.287a.519.519,0,0,0-.956,0l-2.605,6.287A.517.517,0,0,0,1486.746,132.324Z" transform="translate(-1413.549 -121.048)" fill="#e2ad42"/>
        <path id="Path_31706" data-name="Path 31706" d="M1674.939,137.866h-.915a.514.514,0,0,1-.4-.191l-8.953-11.155a.514.514,0,0,0-.915.322v10.511a.515.515,0,0,1-.513.513h-1.227a.515.515,0,0,1-.513-.513v-15.44a.515.515,0,0,1,.513-.513h.915a.529.529,0,0,1,.4.191l8.922,11.055a.514.514,0,0,0,.916-.322V121.913a.515.515,0,0,1,.513-.513h1.247a.515.515,0,0,1,.513.513v15.44A.5.5,0,0,1,1674.939,137.866Z" transform="translate(-1575.357 -121.048)" fill="#e2ad42"/>
        <path id="Path_31707" data-name="Path 31707" d="M1838.911,121.31h1.378a.513.513,0,0,1,.443.775l-5.482,9.264a.489.489,0,0,0-.07.262v5.653a.515.515,0,0,1-.513.513h-1.247a.515.515,0,0,1-.513-.513V131.6a.488.488,0,0,0-.07-.261l-5.482-9.264a.513.513,0,0,1,.442-.775h1.378a.511.511,0,0,1,.443.262l3.873,6.7a.077.077,0,0,1,.02.05l.513,1.127h.05l.543-1.137c.01-.01.01-.02.02-.03l3.823-6.7A.519.519,0,0,1,1838.911,121.31Z" transform="translate(-1724.463 -120.958)" fill="#e2ad42"/>
      </g>
    </g>
    <path id="Path_31708" data-name="Path 31708" d="M18118.553-14867h-30.977a.572.572,0,0,1-.572-.568v-30.855a.578.578,0,0,1,.572-.576h30.977a.578.578,0,0,1,.576.576v13.992h-13.2v2.861h13.2v14A.573.573,0,0,1,18118.553-14867Z" transform="translate(-17235.004 14938.252)" fill="#e2ad42"/>
  </g>
</svg>
