<svg xmlns="http://www.w3.org/2000/svg" width="255.847" height="24" viewBox="0 0 255.847 24"><defs><style>.a{fill:#e2ad42;}</style></defs><g transform="translate(-816.508 -36.866)"><path d="M-95.955-3.99h-5.88q-.33,1.08-.615,2.13t-.5,1.86q-.39.12-.81.21a4.949,4.949,0,0,1-1.02.09,3.521,3.521,0,0,1-2-.465,1.523,1.523,0,0,1-.675-1.335,2.739,2.739,0,0,1,.12-.81q.12-.39.27-.9.21-.81.6-2.01t.855-2.6q.465-1.395.975-2.865t.99-2.805q.48-1.335.87-2.445t.66-1.77a5.463,5.463,0,0,1,1.4-.51,7.594,7.594,0,0,1,1.875-.24,6.983,6.983,0,0,1,2.385.375,2.033,2.033,0,0,1,1.335,1.245q.57,1.59,1.23,3.69t1.335,4.32q.675,2.22,1.305,4.38t1.11,3.87a2.292,2.292,0,0,1-.975.63A4.438,4.438,0,0,1-92.655.3,2.817,2.817,0,0,1-94.47-.15a2.644,2.644,0,0,1-.765-1.41Zm-2.91-10.26q-.42,1.35-1.035,3.075t-1.155,3.525h4.29q-.51-1.89-1.035-3.615t-.885-2.985Zm15.81,8.43V-.03a7.07,7.07,0,0,1-.93.165,10.162,10.162,0,0,1-1.26.075A3.05,3.05,0,0,1-87.21-.27a2.224,2.224,0,0,1-.555-1.74V-16.56a1.293,1.293,0,0,1,.315-.93,2.054,2.054,0,0,1,.915-.51,6.885,6.885,0,0,1,1.1-.3q.615-.12,1.26-.21t1.29-.12q.645-.03,1.215-.03,4.08,0,6.18,1.725a5.786,5.786,0,0,1,2.1,4.725,6.41,6.41,0,0,1-.525,2.625A5.6,5.6,0,0,1-75.435-7.56,6.888,6.888,0,0,1-77.85-6.27a10.7,10.7,0,0,1-3.225.45Zm1.68-3.69a3.719,3.719,0,0,0,2.34-.675,2.4,2.4,0,0,0,.87-2.025q0-2.67-3.18-2.67-.54,0-.945.03t-.795.09v5.25Zm15.36,3.69V-.03a7.07,7.07,0,0,1-.93.165A10.162,10.162,0,0,1-68.2.21,3.05,3.05,0,0,1-70.17-.27a2.224,2.224,0,0,1-.555-1.74V-16.56a1.293,1.293,0,0,1,.315-.93,2.054,2.054,0,0,1,.915-.51,6.885,6.885,0,0,1,1.1-.3q.615-.12,1.26-.21t1.29-.12q.645-.03,1.215-.03,4.08,0,6.18,1.725a5.786,5.786,0,0,1,2.1,4.725,6.41,6.41,0,0,1-.525,2.625A5.6,5.6,0,0,1-58.395-7.56,6.888,6.888,0,0,1-60.81-6.27a10.7,10.7,0,0,1-3.225.45Zm1.68-3.69a3.719,3.719,0,0,0,2.34-.675,2.4,2.4,0,0,0,.87-2.025q0-2.67-3.18-2.67-.54,0-.945.03t-.795.09v5.25ZM-51.195.06A2.453,2.453,0,0,1-53.01-.615a2.453,2.453,0,0,1-.675-1.815V-18.24q.33-.06.945-.15a8.383,8.383,0,0,1,1.215-.09,3.3,3.3,0,0,1,1.95.45,2.114,2.114,0,0,1,.6,1.77V-3.75h7.2a4.178,4.178,0,0,1,.345.78,3.211,3.211,0,0,1,.165,1.05A2.194,2.194,0,0,1-41.7-.435a1.5,1.5,0,0,1-1.185.5Zm25.08-16.38a3.1,3.1,0,0,1-.255,1.02,17.475,17.475,0,0,1-.885,1.83q-.63,1.17-1.695,2.97t-2.685,4.41V-.03a7.081,7.081,0,0,1-.915.165A9.551,9.551,0,0,1-33.765.21a2.983,2.983,0,0,1-1.95-.48,2.17,2.17,0,0,1-.54-1.68V-6.12q-.78-1.14-1.68-2.565t-1.77-2.88q-.87-1.455-1.62-2.865a27.331,27.331,0,0,1-1.2-2.52,3.353,3.353,0,0,1,.945-.93,2.623,2.623,0,0,1,1.515-.42,3.055,3.055,0,0,1,1.71.435A4.129,4.129,0,0,1-37.1-16.23q.06.09.3.555t.555,1.08q.315.615.675,1.335t.675,1.335q.315.615.555,1.065t.3.54h.15q.48-.99.885-1.89T-32.2-14q.39-.885.795-1.8t.855-1.995a4.773,4.773,0,0,1,1.065-.375,4.884,4.884,0,0,1,1.095-.135,2.57,2.57,0,0,1,1.62.51A1.746,1.746,0,0,1-26.115-16.32ZM-3.2-2.1a1.317,1.317,0,0,1-.315.9,3.254,3.254,0,0,1-.945.69,9.186,9.186,0,0,1-2.07.63A13.29,13.29,0,0,1-9.2.39a12.281,12.281,0,0,1-3.84-.57,8.007,8.007,0,0,1-3-1.74,7.791,7.791,0,0,1-1.95-2.955,11.672,11.672,0,0,1-.69-4.215,11.263,11.263,0,0,1,.72-4.2,8.311,8.311,0,0,1,1.965-2.985,8.051,8.051,0,0,1,2.9-1.77,10.426,10.426,0,0,1,3.51-.585,12.032,12.032,0,0,1,2.325.21,8.131,8.131,0,0,1,1.815.555,4.017,4.017,0,0,1,1.17.765,1.21,1.21,0,0,1,.42.84,1.117,1.117,0,0,1-.24.72,1.541,1.541,0,0,1-.57.45A11.416,11.416,0,0,0-6.585-16.1a7.445,7.445,0,0,0-2.85-.465,7.281,7.281,0,0,0-2.67.48,5.923,5.923,0,0,0-2.13,1.41,6.478,6.478,0,0,0-1.41,2.34,9.5,9.5,0,0,0-.51,3.24,9.511,9.511,0,0,0,.525,3.345,6.054,6.054,0,0,0,1.47,2.3,5.972,5.972,0,0,0,2.22,1.335,8.543,8.543,0,0,0,2.775.435,11.062,11.062,0,0,0,2.04-.18,5.868,5.868,0,0,0,1.5-.45V-7.83h-4.53a2.282,2.282,0,0,1-.18-.405,1.657,1.657,0,0,1-.09-.555,1.2,1.2,0,0,1,.24-.8A.852.852,0,0,1-9.5-9.87h5.01a1.3,1.3,0,0,1,.915.345A1.184,1.184,0,0,1-3.2-8.61ZM2.565,0A1.3,1.3,0,0,1,1.6-.36a1.3,1.3,0,0,1-.36-.96v-15.6a1.3,1.3,0,0,1,.36-.96,1.3,1.3,0,0,1,.96-.36h9.96a2.282,2.282,0,0,1,.18.405,1.657,1.657,0,0,1,.09.555,1.26,1.26,0,0,1-.24.81.832.832,0,0,1-.69.3H3.675v5.79h7.92a2.282,2.282,0,0,1,.18.4,1.657,1.657,0,0,1,.09.555,1.2,1.2,0,0,1-.24.795.852.852,0,0,1-.69.285H3.675v6.3h9a2.429,2.429,0,0,1,.18.39,1.624,1.624,0,0,1,.09.57,1.2,1.2,0,0,1-.24.8.852.852,0,0,1-.69.285Zm16.77-.06q-.18.06-.48.135a2.72,2.72,0,0,1-.66.075q-1.32,0-1.32-1.11V-16.92a1.033,1.033,0,0,1,.24-.735,1.654,1.654,0,0,1,.75-.405,10.751,10.751,0,0,1,2.145-.39q1.275-.12,2.475-.12,3.78,0,5.625,1.515a5.255,5.255,0,0,1,1.845,4.305A5.608,5.608,0,0,1,28.89-9.27a5.836,5.836,0,0,1-3.225,2.01l1.5,1.92q.75.96,1.425,1.815t1.2,1.545q.525.69.825,1.08a1.362,1.362,0,0,1-.525.81,1.375,1.375,0,0,1-.825.3,1.392,1.392,0,0,1-.84-.24,3.214,3.214,0,0,1-.69-.75L23.355-6.9h-4.02Zm3.42-8.88a5.621,5.621,0,0,0,3.48-.96,3.359,3.359,0,0,0,1.26-2.85,3.258,3.258,0,0,0-1.32-2.835,6.434,6.434,0,0,0-3.78-.945q-.81,0-1.635.075T19.3-16.26v7.32ZM44.5-4.74a2.208,2.208,0,0,1-.555.27,2.317,2.317,0,0,1-.765.12,2.287,2.287,0,0,1-.855-.15.924.924,0,0,1-.525-.48q-1.62-3.36-2.79-6.15t-1.89-4.62H37q-.09,2.25-.195,4.185t-.225,3.78q-.12,1.845-.24,3.735T36.1,0a4.349,4.349,0,0,1-.465.12,2.984,2.984,0,0,1-.615.06,1.292,1.292,0,0,1-.93-.27,1.056,1.056,0,0,1-.27-.78q0-.3.045-1.29T34-4.56q.09-1.41.195-3.12t.24-3.48q.135-1.77.27-3.48t.255-3.12a2.416,2.416,0,0,1,.69-.39,2.728,2.728,0,0,1,1.02-.18,1.951,1.951,0,0,1,1.92,1.11q.57,1.17,1.155,2.475t1.17,2.655q.585,1.35,1.14,2.67T43.125-6.9h.12q.66-1.59,1.32-3.135t1.29-2.985q.63-1.44,1.2-2.7t1.02-2.31a2.235,2.235,0,0,1,.69-.225,4.456,4.456,0,0,1,.78-.075q1.41,0,1.62.96.12.54.27,1.785t.3,2.865q.15,1.62.285,3.48t.255,3.585q.12,1.725.21,3.18t.15,2.3a2.218,2.218,0,0,1-1.26.36,1.423,1.423,0,0,1-.8-.225,1.044,1.044,0,0,1-.4-.825q-.15-2.19-.27-4.35T49.68-9.33q-.1-1.95-.195-3.585t-.15-2.775h-.12q-.33.84-.765,1.89t-1.02,2.37q-.585,1.32-1.3,2.985T44.5-4.74Zm23.04-.12H59.5q-.21.6-.45,1.3t-.465,1.38q-.225.675-.435,1.26t-.33.975a2.5,2.5,0,0,1-.99.18,1.485,1.485,0,0,1-.855-.255A.925.925,0,0,1,55.6-.84a1.838,1.838,0,0,1,.09-.555q.09-.285.21-.615.45-1.26,1.155-3.24t1.53-4.215q.825-2.235,1.68-4.5t1.575-4.065a3.719,3.719,0,0,1,.72-.24,4.066,4.066,0,0,1,.99-.12,3.72,3.72,0,0,1,1.155.18,1.012,1.012,0,0,1,.705.6q.72,1.74,1.545,3.975T68.625-9.06q.84,2.34,1.605,4.605t1.365,4.1a1.879,1.879,0,0,1-.57.435,1.654,1.654,0,0,1-.75.165,1.309,1.309,0,0,1-.87-.255,1.953,1.953,0,0,1-.51-.855Zm-4.02-11.49q-.33.9-.75,2.055T61.9-11.88q-.45,1.26-.9,2.55t-.84,2.46h6.75q-.45-1.35-.93-2.715T65.07-12.21q-.435-1.26-.81-2.325t-.615-1.815ZM76.155.15q-1.32,0-1.32-1.08V-17.88a2.2,2.2,0,0,1,1.62-.54,2.485,2.485,0,0,1,1.23.285,2.584,2.584,0,0,1,.93,1.035l5.73,9.6q.36.63.75,1.335t.75,1.41l.675,1.32q.315.615.525,1.035l.12-.03q-.24-2.43-.285-4.89t-.045-4.8v-6.06q.18-.06.48-.135a2.72,2.72,0,0,1,.66-.075q1.32,0,1.32,1.08V-.33a1.9,1.9,0,0,1-.69.375,3.028,3.028,0,0,1-.93.135,2.485,2.485,0,0,1-1.23-.285,2.584,2.584,0,0,1-.93-1.035l-5.7-9.6q-.36-.6-.765-1.32t-.78-1.41q-.375-.69-.69-1.32l-.525-1.05-.12.03q.15,1.44.24,3.285t.09,3.495V-.06A3.609,3.609,0,0,1,76.8.075,2.775,2.775,0,0,1,76.155.15Zm31.2-17.55a3.89,3.89,0,0,1-.45,1.275q-.45.945-1.26,2.355t-1.935,3.21q-1.125,1.8-2.475,3.81V-.06a3.609,3.609,0,0,1-.465.135,2.775,2.775,0,0,1-.645.075q-1.32,0-1.32-1.11V-6.75q-.84-1.23-1.725-2.61t-1.755-2.79q-.87-1.41-1.65-2.76t-1.38-2.55a1.725,1.725,0,0,1,.45-.645,1.208,1.208,0,0,1,.87-.315,1.232,1.232,0,0,1,.885.3,3.743,3.743,0,0,1,.645.9q.48.84,1.125,1.98t1.32,2.31q.675,1.17,1.305,2.265t1.08,1.815h.12q1.56-2.61,2.775-4.86t2.415-4.5a1.129,1.129,0,0,1,.435-.165,2.847,2.847,0,0,1,.5-.045Q107.355-18.42,107.355-17.4Z" transform="translate(965 58)"/><path class="a" d="M5738.045,943.983a1.233,1.233,0,0,1,.189-.628c-.009.012-.016.017-.02.025l.8-4.934,10.2,6.2,10.4-6.2.9,4.546a8.407,8.407,0,0,1,.17.991c0,1.871-9.172,7.635-11.791,7.635S5738.045,945.854,5738.045,943.983Zm-4.757.418.959-11.558a.581.581,0,0,1,.317-.5,1.536,1.536,0,0,1,.542-.174l14.284-4.555,15.993,5.04-16.036,9.761-14.588-8.975.376,10.958-.889,3.185Zm1.46-11.286h13.486a1.147,1.147,0,0,0,.776.275c.567,0,1.026-.339,1.026-.754s-.459-.752-1.026-.752a1.079,1.079,0,0,0-.945.462h-11.907Z" transform="translate(-4916.78 -890.752)"/></g></svg>