<svg xmlns="http://www.w3.org/2000/svg" xmlns:xlink="http://www.w3.org/1999/xlink" width="258" height="415" viewBox="0 0 258 415"><defs><style>.a{fill:#585650;}.a,.aa,.ac,.af,.ag,.ah,.ai,.aj,.ak,.al,.am,.an,.ao,.ap,.aq,.ar,.as,.at,.au,.av,.aw,.ay,.az,.ba,.bb,.bc,.bd,.be,.bf,.bg,.bh,.bi,.bj,.bk,.bl,.bm,.bn,.bo,.bp,.c,.d,.f,.g,.h,.i,.l,.m,.n,.o,.p,.q,.r,.s,.t,.u,.v,.w,.x,.y,.z{fill-rule:evenodd;}.b{fill:url(#a);}.c{fill:#767580;}.d{fill:url(#b);}.e{fill:#ff926d;}.f{fill:#323232;}.g{fill:#c2444b;opacity:0.45;}.h{fill:#bf8433;}.am,.an,.bc,.bg,.bo,.h,.i,.m{opacity:0.5;}.i{fill:#c3883c;}.j{fill:url(#c);}.k{fill:url(#d);}.l{fill:url(#e);}.m{fill:url(#f);}.n{fill:url(#g);}.aa,.ap,.at,.aw,.bb,.bg,.bi,.bn,.bo,.o,.y{mix-blend-mode:multiply;isolation:isolate;}.o{fill:url(#h);}.p{fill:#5f5e65;}.q{fill:#56544f;}.r{fill:url(#i);}.s{fill:#44423c;}.t{fill:#efefef;}.u{fill:#f1f1f1;}.aa,.aq,.as,.at,.au,.aw,.ay,.az,.ba,.bb,.v,.y{opacity:0.6;}.v{fill:url(#j);}.w{fill:#373f46;}.x{fill:#c44a4c;}.y{fill:url(#k);}.z{fill:#dd6668;}.aa{fill:url(#l);}.ab,.ap{opacity:0.2;}.ab{fill:url(#m);}.ac{fill:url(#n);}.ad{fill:url(#o);}.ae{fill:url(#p);}.af{fill:url(#q);}.ag{fill:url(#r);}.ah{fill:url(#s);}.ai{fill:url(#t);}.aj{fill:url(#u);}.ak{fill:url(#v);}.al,.am{fill:#313131;}.an{fill:#3a3a39;}.ao{fill:#fff;}.ap{fill:url(#w);}.aq{fill:url(#x);}.ar,.bd{opacity:0.3;}.ar{fill:url(#y);}.as{fill:url(#z);}.at{fill:url(#aa);}.au{fill:url(#ab);}.av{opacity:0.35;fill:url(#ad);}.aw{fill:url(#ae);}.ax{fill:url(#af);}.ay{fill:#c75c64;}.az{fill:url(#ag);}.ba{fill:#d67474;}.bb{fill:url(#ah);}.bc{fill:#ad7f4d;}.bd{fill:url(#ai);}.be{fill:#905c3a;}.be,.bn{opacity:0.68;}.bf{fill:#734840;opacity:0.54;}.bg{fill:url(#aj);}.bh{fill:url(#ak);}.bi{fill:#d9d9d9;}.bj{fill:#f6f6f6;}.bk{fill:url(#al);}.bl{fill:url(#am);}.bm{fill:url(#an);}.bn{fill:url(#ao);}.bo{fill:url(#ap);}.bp{opacity:0.15;}</style><linearGradient id="a" x1="0.502" y1="1" x2="0.502" y2="-0.001" gradientUnits="objectBoundingBox"><stop offset="0.02" stop-color="#ffae78"/><stop offset="1" stop-color="#ff957c"/></linearGradient><radialGradient id="b" cx="0.129" cy="0.236" r="0.431" gradientTransform="translate(-0.082 2.514) scale(1.635 1.33)" gradientUnits="objectBoundingBox"><stop offset="0" stop-color="#fae380"/><stop offset="1" stop-color="#e2ad42"/></radialGradient><linearGradient id="c" x1="0.5" y1="1" x2="0.5" y2="0" xlink:href="#a"/><linearGradient id="d" x1="0.502" y1="1.002" x2="0.502" y2="0.001" gradientUnits="objectBoundingBox"><stop offset="0.02" stop-color="#ff8359"/><stop offset="1" stop-color="#ff8b7c"/></linearGradient><radialGradient id="e" cx="0.176" cy="0.257" r="0.636" gradientTransform="translate(-0.429) scale(1.858 1)" gradientUnits="objectBoundingBox"><stop offset="0" stop-color="#939393"/><stop offset="1" stop-color="#767580"/></radialGradient><linearGradient id="f" x1="0.5" y1="1" x2="0.5" gradientUnits="objectBoundingBox"><stop offset="0" stop-color="#c695c7"/><stop offset="0.01" stop-color="#c9893a"/><stop offset="1" stop-color="#b68c4f"/></linearGradient><linearGradient id="g" x1="0.023" y1="0.195" x2="0.936" y2="0.968" gradientUnits="objectBoundingBox"><stop offset="0" stop-color="#404049"/><stop offset="1" stop-color="#474748"/></linearGradient><linearGradient id="h" x1="0.5" y1="1" x2="0.5" gradientUnits="objectBoundingBox"><stop offset="0.01" stop-color="#bd89c4"/><stop offset="0.98" stop-color="#c09dd6"/></linearGradient><linearGradient id="i" x1="1.107" y1="0.335" x2="0.5" y2="1" gradientUnits="objectBoundingBox"><stop offset="0" stop-color="#ebc950"/><stop offset="1" stop-color="#ffe594"/></linearGradient><linearGradient id="j" x1="0.543" x2="0.543" y2="0.95" gradientUnits="objectBoundingBox"><stop offset="0" stop-color="#d16078"/><stop offset="1" stop-color="#fda26e"/></linearGradient><linearGradient id="k" x1="0.502" y1="0.995" x2="0.502" gradientUnits="objectBoundingBox"><stop offset="0.01" stop-color="#b060f4"/><stop offset="1" stop-color="#ffeadb"/></linearGradient><linearGradient id="l" y1="0.497" x2="1" y2="0.497" gradientUnits="objectBoundingBox"><stop offset="0" stop-color="#ffeadb"/><stop offset="0.99" stop-color="#b060f4"/></linearGradient><linearGradient id="m" x1="0.5" y1="1.011" x2="0.5" y2="0.009" gradientUnits="objectBoundingBox"><stop offset="0" stop-color="#ffa978"/><stop offset="1" stop-color="#964125"/></linearGradient><radialGradient id="n" cx="0.5" cy="0.5" r="0.5" gradientUnits="objectBoundingBox"><stop offset="0" stop-color="#44423c"/><stop offset="1" stop-color="#444"/></radialGradient><linearGradient id="o" x1="0.501" y1="1.002" x2="0.501" y2="-0.001" gradientUnits="objectBoundingBox"><stop offset="0" stop-color="#e1dbfb"/><stop offset="1" stop-color="#fff"/></linearGradient><linearGradient id="p" x1="0.502" y1="1.001" x2="0.502" y2="0" xlink:href="#o"/><radialGradient id="q" cx="0.698" cy="0.789" r="0.462" gradientTransform="translate(0 -0.009) scale(1 1.019)" gradientUnits="objectBoundingBox"><stop offset="0" stop-color="#c4d6c1"/><stop offset="0.82" stop-color="#628642"/><stop offset="1" stop-color="#5e7652"/></radialGradient><linearGradient id="r" x1="0.502" y1="1.019" x2="0.502" y2="-0.003" gradientUnits="objectBoundingBox"><stop offset="0" stop-color="#403060"/><stop offset="0.99" stop-color="#2a0e51"/></linearGradient><radialGradient id="s" cx="0.54" cy="0.818" r="0.327" gradientTransform="translate(-0.38) scale(1.704 1)" xlink:href="#q"/><linearGradient id="t" x1="0.495" y1="0.995" x2="0.495" y2="-0.005" xlink:href="#r"/><linearGradient id="u" x1="0.5" y1="0.992" x2="0.5" y2="-0.008" xlink:href="#r"/><linearGradient id="v" x1="0.5" y1="1.004" x2="0.5" y2="0.001" xlink:href="#r"/><linearGradient id="w" x1="0.501" y1="0.998" x2="0.501" y2="0" xlink:href="#k"/><linearGradient id="x" x1="0.501" y1="1" x2="0.501" gradientUnits="objectBoundingBox"><stop offset="0" stop-color="#ffa878"/><stop offset="1" stop-color="#e36655"/></linearGradient><linearGradient id="y" x1="0.5" y1="1" x2="0.5" gradientUnits="objectBoundingBox"><stop offset="0" stop-color="#cd8f74"/><stop offset="1" stop-color="#e36654"/></linearGradient><linearGradient id="z" x1="0.5" y1="1" x2="0.5" y2="0.001" gradientUnits="objectBoundingBox"><stop offset="0" stop-color="#e36553"/><stop offset="1" stop-color="#ea7a64"/></linearGradient><linearGradient id="aa" x1="0.5" y1="1.001" x2="0.5" y2="0.001" gradientUnits="objectBoundingBox"><stop offset="0" stop-color="#eb9fad"/><stop offset="1" stop-color="#e9e9e9"/></linearGradient><linearGradient id="ab" x1="-2.818" y1="1" x2="-2.818" y2="0" xlink:href="#l"/><linearGradient id="ad" x1="0.5" y1="1" x2="0.5" gradientUnits="objectBoundingBox"><stop offset="0" stop-color="#f08269"/><stop offset="1" stop-color="#c95d6c"/></linearGradient><linearGradient id="ae" x1="0.499" y1="1" x2="0.499" gradientUnits="objectBoundingBox"><stop offset="0" stop-color="#fdcabf"/><stop offset="1" stop-color="#f5b3a9"/></linearGradient><linearGradient id="af" x1="0.501" y1="0.999" x2="0.501" y2="-0.001" xlink:href="#a"/><linearGradient id="ag" x1="0.499" y1="1" x2="0.499" gradientUnits="objectBoundingBox"><stop offset="0" stop-color="#fe9f6c"/><stop offset="1" stop-color="#d46876"/></linearGradient><linearGradient id="ah" x1="0.499" y1="1" x2="0.499" y2="0" xlink:href="#l"/><linearGradient id="ai" x1="0.5" y1="0.998" x2="0.5" gradientUnits="objectBoundingBox"><stop offset="0.01" stop-color="#c695c7"/><stop offset="1" stop-color="#8e81f4"/></linearGradient><linearGradient id="aj" x1="-0.007" y1="0.5" x2="0.999" y2="0.5" xlink:href="#ai"/><linearGradient id="ak" x1="0.462" y1="1" x2="0.661" gradientUnits="objectBoundingBox"><stop offset="0" stop-color="#e3c274"/><stop offset="1" stop-color="#e4b649"/></linearGradient><linearGradient id="al" y1="0.498" x2="1.001" y2="0.498" gradientUnits="objectBoundingBox"><stop offset="0" stop-color="#c72a16"/><stop offset="1" stop-color="#90062c"/></linearGradient><linearGradient id="am" y1="0.5" x2="1" y2="0.5" gradientUnits="objectBoundingBox"><stop offset="0" stop-color="#ff5c1b"/><stop offset="1" stop-color="#e03347"/></linearGradient><radialGradient id="an" cx="0.447" cy="0.132" r="0.609" gradientTransform="translate(-1.65) scale(4.3 1)" gradientUnits="objectBoundingBox"><stop offset="0" stop-color="#e1e1e1"/><stop offset="1" stop-color="#b6b6b6"/></radialGradient><linearGradient id="ao" x1="0" y1="0.5" x2="1" y2="0.5" xlink:href="#ai"/><linearGradient id="ap" x1="-0.005" y1="0.499" x2="0.995" y2="0.499" xlink:href="#ai"/></defs><path class="a" d="M533.35,148.29s10.508,7.993,13.939,17.642a108.645,108.645,0,0,1,4.682,19.262s-2.073,6.385-4.587,6.933-16.262-16.748-15.011-39.107Z" transform="translate(-310.416 -2.393)"/><path class="b" d="M569.786,108.508a10.436,10.436,0,0,1-3.967,4.193l-3.574,10.387s0,3.776-.262,8.529v.488c-.3,6.337-.882,14.211-2.013,17.308l-7.148,6.075s-.405,5.36-1.132,12.508c-.929,8.994-2.383,20.81-4.265,28.255l-12.259-28.279a36.033,36.033,0,0,0,1.43-8.708,19.7,19.7,0,0,0-.143-3.359s-12.08-4.324-13.772-9.053-.953-16.391-1.191-20.7a42.561,42.561,0,0,0-2.121-8.505h0c-1.346-4.074-2.8-7.945-2.728-8.338.131-.75,2.561-.81,5.4,0s6.612,7.35,6.743,8.779-2.168,7.755-2.168,7.755l.75,4.253,3.109.477.119-3.859c0-1.834.143-4.217.226-6.945h0c.25-7.016.6-16.272,1.036-24.05a1.667,1.667,0,0,0,0-.226v-.25c.334-5.956.7-11.114,1.1-13.52,0,0,2.287-1.013,3.574,0,0,0,2.871,9.244,3.2,11.912.262,2.144-.751,7.052-1.191,8.839-.107.429-.155.679-.155.679l.143,15.486h1.191s.893-10.792,2.025-22.144h0c.8-8.076,1.739-16.462,2.573-21.441,0,0,2.847-.81,4.062,0a19.891,19.891,0,0,1,1.275,4.384,5.516,5.516,0,0,1,4.134,1.191,46.274,46.274,0,0,1,1.072,8.612v.1a.535.535,0,0,1,0,.131h0c0,1.3,0,2.692-.071,4.1h0a29.192,29.192,0,0,1-1.013,5.956v19.059h2.895s5.016-9.2,8.911-16.3h0c1.191-2.263,2.383-4.3,3.157-5.777,0,0,2.24.536,2.573,1.346S571.144,105.745,569.786,108.508Z" transform="translate(-313.41 -16.465)"/><path class="c" d="M534.011,153.671l.965-4.181s5.957,10.983,14.892,10.554a190.484,190.484,0,0,1-4.515,28,108.812,108.812,0,0,1-10,25.372l-12.688-29.97S532.594,161.8,534.011,153.671Z" transform="translate(-312.257 -2.163)"/><path class="d" d="M578.71,190.922v.071a35.468,35.468,0,0,1-2.954,8.612c-.107.2-.214.381-.322.6a16.725,16.725,0,0,1-1.013,1.846,4.75,4.75,0,0,1-.334.572c-.238.393-.429.679-.524.822l-.119.2-.071.071a26.974,26.974,0,0,1-1.847,2.5c-.381.465-.786.917-1.191,1.37,0,0-14.7,37.344-29.867,37.582s-36.4-53.02-36.4-53.02l-.167.322c-.846,1.549-4.6,8.517-7.148,13.746-.7,1.429-1.3,2.74-1.716,3.752-2.168,5.229-11.544,52.555-11.091,75.772v3.7c.345,26.206.083,108.97,0,133.652H424.266l-.87-6.254V423.1H409.1l-2.383-40.977v-.655l-1.692-29.292-.5-8.862a1.618,1.618,0,0,0-.119-.5h0c-.477-2.1-2.383-10.3-4.765-18.63a122.392,122.392,0,0,0-4.467-12.984c-.572-1.334-1.191-2.549-1.716-3.574a18.621,18.621,0,0,0-1.048-1.632l2.383-4.765v2.549l2.776.619,3.455.75,1.525.345s-.226-5.337-.56-13.5h0a17.323,17.323,0,0,0-.071-1.882c0-.941-.072-1.906-.119-2.883v-1.191c-.429-10.888-.977-24.836-1.418-37.82v-.655c-.524-14.687-.917-28.053-.941-34.247V211.2c0-.8.06-1.62.119-2.382v-.548c.06-.822.143-1.668.25-2.525a158.294,158.294,0,0,1,5.123-23.752,1.188,1.188,0,0,0,.071-.226.322.322,0,0,1,.06-.143.333.333,0,0,0,0-.071l-7.827-14.294a41.516,41.516,0,0,1,10.841-10.363h0a20.829,20.829,0,0,1,2.156-1.191l.191-.083a10.559,10.559,0,0,0,1.191-.655,55.11,55.11,0,0,0,9.149-8.243c7.255-7.683,14.808-17.427,15.178-17.868h0l6.517-1.8,1.8-.357,13.033-2.668,20.979-4.276,2.228-.524,3.371-.774s.7.8,1.787,1.906l.81.822h.1a4.854,4.854,0,0,0,.429.429l.083.06c.119.131.25.25.393.381a2.608,2.608,0,0,0,.262.238l.643.56a22.637,22.637,0,0,0,3.479,2.454h.238a22.841,22.841,0,0,0,6.743,1.036c3.681.2,8.22.322,12.306.679h.214c4.1.381,7.767,1,9.685,2.287h0a.214.214,0,0,1,.083.1.6.6,0,0,1,.083.155,1.951,1.951,0,0,1,.214.619c0,.179.06.393.083.655a3.273,3.273,0,0,1,0,.488V134.2a5.069,5.069,0,0,1,0,.608V136c-.3,5.408-1.013,12.615-.489,15.771l.072.381c1.084,4.765,11.21,23.347,19.3,29.411a19.549,19.549,0,0,1,3.383-1.739c.226,0,.572.917.882,1.965.179.655.357,1.358.5,1.918l.131.524v.453s7.243-8.9,10.519-17.546v-.143a26.2,26.2,0,0,0,1.322-4.765h0l-1.251-5.718,4.027-2.621h0l-.977,4.681h0v.369a1.746,1.746,0,0,0,0,.25,10.844,10.844,0,0,0,.191,1.191,112.827,112.827,0,0,0,2.776,12.841c1.787,6.373,4.491,13.591,8.447,19.059a26.275,26.275,0,0,0,4.17,4.6l3.574-5.67.3-.453Z" transform="translate(-337.179 -8.098)"/><path class="e" d="M469.635,92.934s-.214,8.231,0,15.926a121.958,121.958,0,0,0,1.7,15.8s-10.805,14.7-21.158,23.752c-9.721,8.493-16.321,6.206-19.919,3.514s1.7-14.652,1.7-14.652l2.692-.953a126.452,126.452,0,0,0,2.442-15.712c.727-8.338-.893-22.132-.893-22.132S465.3,91.183,469.635,92.934Z" transform="translate(-330.178 -13.028)"/><path class="f" d="M424.651,41s-4.42,2.787-5.147,4.765,1.346,10.578,1.346,10.578,7.482-3.574,8.339-7.671S424.651,41,424.651,41Z" transform="translate(-332.025 -22.906)"/><path class="g" d="M435.782,122.374l-.822,6.242s1.835,6.385,5.718,6.79,22.921-20.691,27.329-36.034l.441-4.241-1.894-2.251Z" transform="translate(-329.039 -12.987)"/><path class="h" d="M421.516,405.169v6.254h-14.3l-4.134-70.912-.536-9.363h0l-.25-4.193,5.039-53.282,3.967-42-4.694-28.66-3.479-23.562,8.339,17.463h0l1.787,3.764-1.787,6.349c-.107.429-.167.643-.167.643l4.992,55.986.334,9.2,2.5,67.279.083,2.18.083,2.442Z" transform="translate(-335.288 3.565)"/><path class="i" d="M119.256,361.182h-7.422L74.7,322.409l-3.955-28.172-.465-6.289,1.442.905L74.7,281.42l.6,1.048,4.372,7.588,2.549,4.431,14.5,38.047Z" transform="translate(13.448 53.806)"/><path class="j" d="M479.479,59.632c0,5.384-2.037,15.617-4.36,25.361-.608,2.573-1.191,5.11-1.847,7.5-1.12,4.336-2.2,8.255-3.038,11.138-.691,2.382-1.191,4.1-1.489,4.765a34.22,34.22,0,0,1-4.527,6.456c-4.289,5.206-10.829,11.912-16.56,15.343l-.977.536a15.12,15.12,0,0,1-2.228,1.013c-9.316,3.371-18.311,2.108-19.3,1.3a3.229,3.229,0,0,1-.441-1.12c-.31-1-.691-2.609-1.132-4.562-1.918-8.553-4.765-23.824-5.182-25.087-.536-1.715-2.692-8-2.609-9.72a12.282,12.282,0,0,1,.822-2.752c1.191-3,3.05-7.147,3.05-7.147.631-2.883.453-14.938.453-14.938a12.506,12.506,0,0,1-.989-5.682,11.21,11.21,0,0,1,.274-1.965,20.315,20.315,0,0,0,1.406-1.7c.238-.322.465-.643.691-1a20.742,20.742,0,0,0,1.453-2.525,29.147,29.147,0,0,0,1.382-3.717,3.012,3.012,0,0,0,.143-.429c.763-2.454,1.406-5,1.632-5.884a1.959,1.959,0,0,0,.072-.322,27.4,27.4,0,0,1,19.538-7.921,47.561,47.561,0,0,1,26.007,9.351h0C476.3,49.578,479.479,54.212,479.479,59.632Z" transform="translate(-332.708 -23.753)"/><path class="k" d="M478.826,81.757v.238a13.2,13.2,0,0,1-.322,1.775h0a24.774,24.774,0,0,1-4.11,8.66c-2.966,3.859-8.339,7.373-9.531,7.29s-3.336-3.121-3.336-3.121a52.307,52.307,0,0,1,0-11.114h0a8.338,8.338,0,0,1,1.191-3.574s1.6-1.93,3.574-3.967c2.275-2.311,5.1-4.765,6.8-4.765,1,0,5.135,5.217,5.587,7.385A3.98,3.98,0,0,1,478.826,81.757Z" transform="translate(-324.012 -16.753)"/><path class="l" d="M434.835,130.11H432.7s-4.611,3.848-11.091,21.847-7.922,41.751-7.553,44.634c0,0,21.813-41.5,35.74-52.555,0,0-10.519,4.1-15.118-.083S434.835,130.11,434.835,130.11Z" transform="translate(-333.049 -5.868)"/><path class="m" d="M567.681,206.234c-.381.465-.786.917-1.191,1.37,0,0-14.7,37.344-29.867,37.582s-36.4-53.02-36.4-53.02l-.167.322c-.846,1.549-4.6,8.517-7.148,13.746-.7,1.429-1.3,2.74-1.716,3.752-2.168,5.229-11.544,52.555-11.091,75.772v3.7c.346,26.206.083,108.97,0,133.652h-.929l-11.639-78.357S451.395,339.41,451.2,338.8s-5.063-29.577-5.373-31.4l6.934,30.09s8.244,1.275,14.677,1.942a34.554,34.554,0,0,0,7.041.262l5.182-40.608-4.11-3.836-15.261,6.659-16.81-6.063h0l31.38-58.714,9.531-31.376-16.857,6.158-19.2,7.4,25.995-20.524,10.353-23.276,6.123-29.458-.715.119h0l-31.654,5.36h0l2.6,3.18h0l4.861,5.956h0l-38.8,47.552L412.45,222.518v-5.956l35.74-57,2.192-5.67,2.383-6.17,23.946-28.589,3.371-.774s.608.691,1.584,1.68h0c0,.071.131.143.191.214l.81.822h.1a4.845,4.845,0,0,0,.429.429l.083.06c.119.131.25.25.393.381a2.605,2.605,0,0,0,.262.238l.643.56a22.632,22.632,0,0,0,3.479,2.454h.238a22.841,22.841,0,0,0,6.743,1.036c3.681.2,8.22.322,12.307.679h.214c4.11.381,7.779,1,9.7,2.287a.214.214,0,0,1,.083.1.6.6,0,0,1,.083.155,1.951,1.951,0,0,1,.214.619c0,.179.06.393.083.655a3.265,3.265,0,0,1,0,.488V134.1a5.068,5.068,0,0,1,0,.607v1.191c-.31,5.646-1.072,13.222-.417,16.153h0c-.715.179-12.283,3.323-17.787,10.387,0,0,8.232,17.391,14.3,20.632s22.028-1.382,22.766-1.608c-.548.274-9.709,4.55-12.688,4.765s-12.6,0-12.6,0,14.594,4.324,18.537,4.681,11.056-9.279,11.056-9.279l.5,1.918.131.524v.453s-5.4,3.776-6.028,4.5-5.849,8.66-6.564,8.541-17.989-1.358-17.989-1.358,12.211,31.138,18.883,35.283,22.564-4.467,26.483-7.755c.953-.786,1.346-3.5,1.382-7.147.119-10.566-2.692-28.91-3.026-30.971.381,1.453,3,11.316,8.911,17.284a17.011,17.011,0,0,0,4.122,3.335Z" transform="translate(-333.345 -8.115)"/><path class="n" d="M346.05,327.35l88.159-2.192,5.635-68.089s-48.845,2.668-90.708,12.4Z" transform="translate(-346.05 18.405)"/><path class="o" d="M59.485,233.64l-4.92,65.944-19.883.739L30,273.378Z" transform="translate(5.741 44.671)"/><path class="p" d="M79.625,231.26l2.347,1.989-2.49,66.433-5.492-.334Z" transform="translate(14.158 44.216)"/><path class="q" d="M362.121,277.752s8.685,11.221,25.9,13.187c0,0-8.423-12.829-16.893-14.854s-10.257,0-10.257,0Z" transform="translate(-343.214 21.869)"/><path class="r" d="M408.44,278.575c.262,5.956-10.043,32.007-10.043,32.007l-8.649-.4-.834,1.394c-1.013-.691-1.978-1.346-2.931-1.965-16.917-11.138-25.113-11.388-25.113-11.388l1.263,1.668-1.263-1.668,9.531-10.78c5.837-11.912,13.76-36.772,19.728-58.714h0c4.134-15.212,7.351-29.006,8.268-36.081,2.24-17.284,4.849-33.222,4.849-33.222l7.839,14.294a206.618,206.618,0,0,0-5.3,24.515C404.1,210.141,408.44,278.575,408.44,278.575Z" transform="translate(-343.214 -0.265)"/><path class="s" d="M529.821,150.9l1.251,5.742-1.382,4.884s.965,33.068,15.559,38.988l2-2.692s4.587-7.052,5.218-12.627c0,0-1.668,3.061-3.943,3.145,0,0-13.438-10.888-15.654-35.319l.977-4.765Z" transform="translate(-310.914 -2.398)"/><path class="t" d="M414.8,276.015l-4.98-55.986s9.173-36.308,25.232-56.689,39.957-42.883,39.957-42.883l-.87-5.777h3.3s1.31,3.073,6.862,8.207,12.5,16.677,12.5,16.677-26.209,2.382-42.948,10.625a29.664,29.664,0,0,1,14.415,9.827s-25.018,19.452-37.575,35.343-17.87,24.717-17.87,24.717Z" transform="translate(-333.848 -8.819)"/><path class="u" d="M440.515,125.66l-6.54,1.775s-19.168,17.689-29.069,22.228c0,0,7.005,6.385,11.2,7.826,0,0-11.282,16.558-13.1,32.162,0,0,4.491,13.234,10.079,21.287l4.551-13.544s-1.62-12.6,4.11-36.927,15.178-29.589,15.178-29.589l2.692-.953Z" transform="translate(-335.154 -6.719)"/><path class="v" d="M487,87.565v.2h0l-.322,1.775h0a24.774,24.774,0,0,1-4.11,8.66c-2.966,3.859-8.339,7.373-9.531,7.29s-3.336-3.121-3.336-3.121c-.691,2.382-1.191,4.1-1.489,4.765-1.191,3-12.128,16.486-21.087,21.8l-.977.536a52.411,52.411,0,0,0,8.149-15.486c3.121-9.41,3.169-21.811,3.169-21.811l3.788-4.491-2.263-4.312c-7.648,4.443-16.286,1.715-16.286,1.715-4.122-8.136-2.085-31.042-2.085-31.042-4.062-.31-9.316,2.978-9.316,2.978l-2.68-2.883-2.871,1.906c3.348,6.421,1.68,14.783,1.68,14.783,2.835,10.471-.727,14.116-.727,14.116s-2.919,3.7-4.944,2.621-2.669-6.111-2.669-6.111c.631-2.883.453-14.938.453-14.938a12.505,12.505,0,0,1-.989-5.682l1.727-3.657c.238-.322.465-.643.691-1a30.968,30.968,0,0,0,2.835-6.242,3.016,3.016,0,0,0,.143-.429,52.906,52.906,0,0,0,1.632-5.884,1.965,1.965,0,0,0,.072-.322l10-.5L471.2,44.73h0l6.183,10.494s-5.957,29.625-6.362,32.555c-.1.7-1.346,3.038-1.191,3.574h0a3.788,3.788,0,0,0,1.394,2.382,13.933,13.933,0,0,1,1.584-2.382,23.552,23.552,0,0,1,9.03-6.373c.679-.119,4.932,2.382,5.254,2.621Z" transform="translate(-332.182 -22.562)"/><path class="w" d="M418.965,62.269s5.79,1.668,8.494,6.266a25.859,25.859,0,0,0-.81-9.089l-.453,1.62a9.947,9.947,0,0,0-5.957-6.206l-1.37,1.7S417.416,58.517,418.965,62.269Z" transform="translate(-332.236 -20.256)"/><path class="w" d="M437.109,52.32s-1.275,5.575,2.025,8.648c0,0,7.708.786,10.388,1.191a50.875,50.875,0,0,1,7.219,2.966s-1.525-5.765-3.872-7.921v.905L440.957,54.19Z" transform="translate(-328.675 -20.742)"/><path class="x" d="M430.61,89.026s1.108-3.24,5.325-1.537a5.85,5.85,0,0,0-1.906.691C433.648,88.55,432.087,89.991,430.61,89.026Z" transform="translate(-329.872 -14.112)"/><path class="y" d="M421.22,85.128s-.083,1.191,6.4.822,9.376-1.834,11.127-1.6a4.312,4.312,0,0,1,.476,3.574,44.079,44.079,0,0,0-6.814,3.3,10.89,10.89,0,0,1-5.957,0,7.147,7.147,0,0,1-5.23-6.1Z" transform="translate(-331.667 -14.622)"/><path class="z" d="M423.394,94.637l-.834,1.418.834.476s2.788,3.371,4.432,3.371c4.325,0,9.721-2.382,12.223-3.919s4.861-5.479,4.861-5.479l-1.692-.393a1.417,1.417,0,0,1,.3,1.191c-.167.465-.5.917-1.573,1.787-2.144,1.739-7.148,3.8-12.426,4.05s-6.123-1.549-6.123-1.549Z" transform="translate(-331.411 -13.516)"/><path class="z" d="M463.185,85.53s4.36-6.647,10.126-7.35c0,0,3.074,5.884,1.191,10.494,0,0-.167-7.088-2.383-8.219l-2.978,2.275a9.815,9.815,0,0,1,0,5.956,8.7,8.7,0,0,1-4.253,4.36,6.908,6.908,0,0,1-1.7-7.516Z" transform="translate(-323.728 -15.797)"/><path class="aa" d="M438.83,90.322s4.527.572,6.85,2.633A8.744,8.744,0,0,0,441.248,89,6.469,6.469,0,0,0,438.83,90.322Z" transform="translate(-328.299 -13.729)"/><path class="ab" d="M427.73,100.13a32.278,32.278,0,0,1,6.1-.81s-1.394,3.776-2.669,3.907S427.73,100.13,427.73,100.13Z" transform="translate(-330.421 -11.755)"/><path class="ac" d="M478.648,82.844a56.457,56.457,0,0,1,4.217-15.057c3.24-6.885-.667-14.58-8.911-20.107,0,0-20.646-11.912-30.641-21.87a13.1,13.1,0,0,0,0,6.349l-7.291,1.751-4.587-.941s-6.481,2.013-7.553,5.658c0,0-1.287,13.032,6.409,21.739l.2-2.907s14.713-9.291,18.311-9.375,15.976.81,19.883,3.776,0,12.15,0,12.15A97.414,97.414,0,0,1,469.88,79.58a96.791,96.791,0,0,1-1.191,13.175S474.944,84.56,478.648,82.844Z" transform="translate(-331.174 -25.81)"/><path class="ad" d="M452.872,75.211c-.369,2.382-6.171,7.147-11.425,4.372,0,0-2.943-1.465-2.907-5.956a18.336,18.336,0,0,1,.346-3.574c.465-2.228,1.406-3.5,2.752-3.717a8.615,8.615,0,0,1,1.7,0,12.593,12.593,0,0,1,6.016,1.846A7.506,7.506,0,0,1,451,69.636a7.4,7.4,0,0,1,1.87,5.575Z" transform="translate(-328.353 -18.07)"/><path class="ae" d="M428.225,74.6a6.408,6.408,0,0,1-2.383,4.872,4.051,4.051,0,0,1-3.217,1.132c-2.263-.345-3.026-12.472-.2-13.806,1.406-.655,2.8.25,3.86,1.823a11.591,11.591,0,0,1,1.489,3.228h0a11.778,11.778,0,0,1,.417,2.442v.226Z" transform="translate(-331.786 -18.015)"/><path class="af" d="M451.579,72.843a5.135,5.135,0,1,1-5.123-5.253,5.194,5.194,0,0,1,5.123,5.253Z" transform="translate(-327.823 -17.822)"/><path class="ag" d="M449.671,72.574A3.491,3.491,0,1,1,446.192,69a3.574,3.574,0,0,1,3.479,3.574Z" transform="translate(-327.56 -17.552)"/><path class="ah" d="M427.924,74.117v.191a5.67,5.67,0,0,1-2.085,4.264,1.191,1.191,0,0,1-.417,0c-1.8,0-3.252-2.192-3.252-4.9s1.453-4.9,3.252-4.9a2.383,2.383,0,0,1,.81.143,10.006,10.006,0,0,1,1.287,2.895h0a4.359,4.359,0,0,1,.405,1.989v.345Z" transform="translate(-331.485 -17.594)"/><path class="ai" d="M427.712,73.535v.345h0c-.131,1.68-1.06,2.978-2.216,2.978s-2.216-1.489-2.216-3.335,1-3.323,2.216-3.323a2.144,2.144,0,0,1,1.835,1.465,4.359,4.359,0,0,1,.381,1.87Z" transform="translate(-331.273 -17.323)"/><path class="aj" d="M438.83,70.148s.346-2.251,4.4-2.6,8.494,2.549,9.531,5.956c0,0-.179-7.516-12.128-7.647A7.29,7.29,0,0,0,438.83,70.148Z" transform="translate(-328.299 -18.153)"/><path class="ak" d="M420.757,71.246s-.774-4.527.512-5.956c0,0,6.338.274,6.945,9.53,0,0-1.263-7.147-5.73-7.552A5.467,5.467,0,0,0,420.757,71.246Z" transform="translate(-331.801 -18.262)"/><path class="z" d="M439.76,76.774a6.505,6.505,0,0,0,5.861,2.7c4.61-.322,6.814-5.158,6.814-5.158a9.185,9.185,0,0,1-6.183,4.074A7.149,7.149,0,0,1,439.76,76.774Z" transform="translate(-328.121 -16.535)"/><path class="z" d="M420.83,75s.822,3.764,2.061,3.824,3.026-1.036,4.205-2.382c0,0-1.8,3.2-4.205,3.228C421.461,79.681,420.83,75,420.83,75Z" transform="translate(-331.743 -16.405)"/><path class="al" d="M431.465,31.82s-5.349,15.2-1.191,27.4c0,0-8.03-7.433-6.409-21.739a18.524,18.524,0,0,1,7.6-5.658Z" transform="translate(-331.203 -24.661)"/><path class="f" d="M467.132,49.684S453.872,37.5,449.071,37.2,431.94,53.437,431.94,53.437s8.923-6.814,15.309-7.528S467.132,49.684,467.132,49.684Z" transform="translate(-329.616 -23.633)"/><path class="al" d="M431.94,54.22s5.111-19.059,8.208-20.894,18.716,7.755,23.707,14.294c0,0-9.936-8.851-15.606-9.53S431.94,54.22,431.94,54.22Z" transform="translate(-329.616 -24.417)"/><path class="am" d="M462.826,53.81s5.1,7.147,13.1,7.6l-2.847,7.612s-7.219-1.191-11.044-12.341Z" transform="translate(-323.858 -20.457)"/><path class="an" d="M461.87,60.6s2.18,9.661,10.579,9.827l-.894,4.324A15.939,15.939,0,0,1,462.1,66.2Z" transform="translate(-323.889 -19.159)"/><path class="ao" d="M442.88,73.09a1.12,1.12,0,1,1-1.12-1.12,1.132,1.132,0,0,1,1.12,1.12Z" transform="translate(-327.952 -16.985)"/><path class="ao" d="M423.086,73.336a.8.8,0,1,1-.786-.786.8.8,0,0,1,.786.786Z" transform="translate(-331.616 -16.874)"/><path class="ap" d="M437.206,86.938,433.918,83.6,435,71.25l-6.719,1.191L426.388,81.4s-5.135,5.051-4.765,7.957a20.9,20.9,0,0,0,15.583-2.418Z" transform="translate(-331.595 -17.122)"/><path class="z" d="M426.571,93.358s-4.61-2.251-4.479-5.527c0,0,.727-3.038,4.479-6.814a31.075,31.075,0,0,0,1.644-7.9,46.24,46.24,0,0,1-2.526,7.457s-4.479,3.74-5.039,7.016a9.2,9.2,0,0,0,5.921,5.765Z" transform="translate(-331.776 -16.765)"/><path class="aq" d="M561.58,125.213c-.3,6.337-.882,14.211-2.013,17.308l-7.148,6.075s-.405,5.36-1.132,12.508l-15.13-8.743a19.7,19.7,0,0,0-.143-3.359s-12.08-4.324-13.772-9.053-.953-16.391-1.191-20.7a42.556,42.556,0,0,0-2.121-8.505c.226.286,3.979,4.658,4.682,4.681a7.9,7.9,0,0,0,4.765-4.276c.143,1.418-2.168,7.755-2.168,7.755l.751,4.253,3.109.476s-6.969,8.338-7.4,12.329c0,0,12.533,7.231,22.016,6.837s14.749-4.467,14.749-4.467A119.568,119.568,0,0,0,561.58,125.213Z" transform="translate(-312.972 -9.572)"/><path class="ar" d="M542.9,132.559s-6.946-8.029-14.618-10.185l.119-3.859s18.49-3.431,24.339,1.251c0,0-.631,7.147-2.252,9.446S542.9,132.559,542.9,132.559Z" transform="translate(-311.182 -8.317)"/><path class="as" d="M528.57,116.421h0l7.827-1.191-.143-15.486a2.233,2.233,0,0,1,.155-.679,15.573,15.573,0,0,1-5.325.608c-1.537-.3-1.513-5.67-1.477-7.326a1.7,1.7,0,0,0,0-.226q0-.25,0-.25Z" transform="translate(-311.128 -13.18)"/><path class="at" d="M550.269,98.675v19.059H536.14s.893-10.792,2.025-22.144c2.275,3.883,6.433,0,6.433,0,1.287-6.278,1.477-17.07,1.477-17.07.715,2.859-.417,17.07-.417,17.07l3.86,1.191a9.3,9.3,0,0,0,1.7-4.014,29.2,29.2,0,0,1-.953,5.908Z" transform="translate(-309.68 -15.732)"/><path class="au" d="M548.85,86.833a1.523,1.523,0,0,1,0,.226v-.226Z" transform="translate(-307.247 -14.17)"/><path class="as" d="M557.071,107.111l2.3,1.191L555.8,118.69l-5.4-4.574s5.016-9.2,8.911-16.3h0Z" transform="translate(-306.951 -12.042)"/><path class="av" d="M533.27,143.094c5.957-1.6,10.091-2.1,16.4-.4L548.543,155.2l-15.13-8.743Z" transform="translate(-310.229 -3.665)"/><path class="aw" d="M528.28,122.179s8.518,2.132,13.1,8.553a24.493,24.493,0,0,0-12.95-12.412Z" transform="translate(-311.182 -8.123)"/><path class="ax" d="M399.434,322.835a3.884,3.884,0,0,1-3.371,1.882,40.122,40.122,0,0,1-5.849-4.014,6.087,6.087,0,0,1-1.942-2.5c-.667-2.513,1.191-7.636,1.191-7.636v-4.491l-3.133-3.8c-1.835,6.8-.262,19.059-.262,19.059l1.43,1.6-.7,2.859-6.231.6-2.383-2.466-14.3.191-1.025,1.429a19.3,19.3,0,0,1-7.41,0s0-1.251.167-3.454a143.1,143.1,0,0,1,3.3-22c.608-2.621,1.287-5.1,1.966-7.409l.06-.179c.893-3.014,1.811-5.706,2.669-8,1.751-4.765,3.24-7.838,3.574-8.636l.107-.214a28.594,28.594,0,0,1,14.749,4.9,27.63,27.63,0,0,1,3.24,2.442l-.786,2.382s.905.6,2.2,1.489c3.217,2.192,8.78,6.17,8.995,7.409.25,1.56-1.191,10.721-.953,15.879a12.877,12.877,0,0,0,.167,1.68C395.836,316.248,399.434,322.835,399.434,322.835Z" transform="translate(-344.251 21.956)"/><path class="ay" d="M385.934,286.763l-.691-.226c-11.056-.893-17.953.476-25.173,6.039l.06-.179,2.49-7.564,3.3-8.338.5-.715,14.856,4.681a27.635,27.635,0,0,1,3.24,2.442l-.786,2.382Z" transform="translate(-343.368 21.983)"/><path class="az" d="M389.611,307.119a5.016,5.016,0,0,0-4.241,3.109c-1.013,2.382-.691,5.682-.405,7.493a6.087,6.087,0,0,1-1.942-2.5c-.667-2.513,1.191-7.636,1.191-7.636v-4.491c4-3.836,6.374-11.852,6.374-11.852C390.815,292.8,389.349,301.985,389.611,307.119Z" transform="translate(-339.004 24.939)"/><path class="ba" d="M386.067,317.059l1.43,1.6-.7,2.859-6.231.6-2.383-2.466-14.3.191-1.025,1.429a19.3,19.3,0,0,1-7.41,0s0-1.251.167-3.454l6.1.572L362.741,316H369.5l.56,1.191,7.339-.465,1.62,2.752,5.587-.691V303.063L386.258,298C384.495,304.778,386.067,317.059,386.067,317.059Z" transform="translate(-344.251 26.231)"/><path class="bb" d="M424.7,122.929l-1.132-4.562c-1.918-8.553-4.765-23.824-5.182-25.087-.536-1.715-2.692-8-2.609-9.72l4.146,7.8Z" transform="translate(-332.71 -14.769)"/><path class="bc" d="M144.2,154.682l-14.034-1.072L128.412,168.3,118.5,202.044l18.406-33.294Z" transform="translate(22.674 29.369)"/><path class="bd" d="M438.52,268.627,463.9,260.92h11.282a24.362,24.362,0,0,1-9.793,9.005C459.035,272.927,438.52,268.627,438.52,268.627Z" transform="translate(-328.357 19.142)"/><path class="be" d="M77.243,288.42l-4.17,4.729v13.032L58.646,318.867,56.99,288.92Z" transform="translate(10.905 55.144)"/><path class="bf" d="M132.431,159.634l-3.276-15.843,2.1-20.131-4.182,20.131,1.453,15.545Z" transform="translate(24.313 23.643)"/><path class="bg" d="M503.839,131.242v1.334a5.069,5.069,0,0,1,0,.607v1.191c-.3,5.408-1.013,12.615-.488,15.771,0,.25,0,.381.06.381-.512.083-11.651,2.12-17.81,10.387l8.816-26.313,8.9-6.921h0a.214.214,0,0,1,.083.1.6.6,0,0,1,.083.155,1.953,1.953,0,0,1,.214.619c0,.179.06.393.083.655a3.265,3.265,0,0,1,0,.488A10.519,10.519,0,0,1,503.839,131.242Z" transform="translate(-319.35 -6.333)"/><path class="bh" d="M406.909,278.575c.262,5.956-10.043,32.007-10.043,32.007l-8.649-.4-.834,1.394c-1.013-.691-1.978-1.346-2.931-1.965L368.87,287.438c6.85,2.871,21.515,14.354,21.515,14.354l6.481,1.906,4.849-18.309c-.262.584-4.467,9.946-4.849,10.471s-10.388,1.453-10.388,1.453,4.98-1.584,6.8-5.1,10.055-33.473,9.531-45.492-5.957-30.09-5.957-30.09l-8.268,12.091h0c4.134-15.212,7.351-29.006,8.268-36.081,2.24-17.284,4.849-33.222,4.849-33.222l7.839,14.294a206.617,206.617,0,0,0-5.289,24.515C402.573,210.141,406.909,278.575,406.909,278.575Z" transform="translate(-341.684 -0.265)"/><path class="s" d="M370.4,266.89s15.487,7.147,19.347,22.752l-.834,1.394S376.322,280.9,360.87,277.67Z" transform="translate(-343.214 20.283)"/><path class="bi" d="M70.132,159.621l-4.384,16.01L63.77,172.5l6.612-22.728Z" transform="translate(12.203 28.635)"/><path class="bj" d="M100.425,244.491l-.965-10.614,6.076-1.477,1.751,12.686Z" transform="translate(19.031 44.433)"/><path class="bk" d="M452.361,271.087,450.61,258.4l15.38-1.191,1.191,10.268s-2.454,3.192-5.4,3.669A57.671,57.671,0,0,1,452.361,271.087Z" transform="translate(-326.043 18.432)"/><path class="bl" d="M100.425,244.491l-.965-10.614,6.076-1.477,1.751,12.686-1.561.369-.917-11.578-4.384.774.774,10.328Z" transform="translate(19.031 44.433)"/><path class="bm" d="M461.07,271.99V250.12l4.134,2.073.953,13.389H465.2l-.667-7.969-.488.071v12.388a11.911,11.911,0,0,1-2.978,1.918Z" transform="translate(-324.043 17.077)"/><path class="bn" d="M98.97,284.2l29.092,8.91-.119-49.732L122.237,285.1Z" transform="translate(18.937 46.533)"/><path class="bo" d="M409.154,149.1l-3.574,1.918,6.707,7.528,3.371-5.539S410.357,150.029,409.154,149.1Z" transform="translate(-334.661 -2.238)"/><path class="bp" d="M434.836,130.11s-8.673,12.627-10.639,19.512-2.8,32.77-2.8,32.77l-5.957,11.781L414,185.87l4.98-36.474S429.487,130.586,434.836,130.11Z" transform="translate(-333.049 -5.868)"/><path class="s" d="M438.52,268.627,440.9,280.1s21.23,1.954,28.246-2.1c0,0,5.17-4.384,6.135-7.231V260.92s-7.148,7.862-9.793,9.005C460.715,271.927,438.52,268.627,438.52,268.627Z" transform="translate(-328.357 19.142)"/></svg>