<svg xmlns="http://www.w3.org/2000/svg" xmlns:xlink="http://www.w3.org/1999/xlink" width="111.002" height="114" viewBox="0 0 111.002 114"><defs><style>.a{fill:#fff;}.b{filter:url(#a);}</style><filter id="a" x="0" y="0" width="111.002" height="114" filterUnits="userSpaceOnUse"><feOffset dy="6" input="SourceAlpha"/><feGaussianBlur result="b"/><feFlood flood-color="#fff" flood-opacity="0.161"/><feComposite operator="in" in2="b"/><feComposite in="SourceGraphic"/></filter></defs><g class="b" transform="matrix(1, 0, 0, 1, 0, 0)"><path class="a" d="M-11768.477,2287.434a7.845,7.845,0,0,1-6.091,2.354,20.8,20.8,0,0,1-4.969-.569.409.409,0,0,1-.325-.307.265.265,0,0,1,.259-.292c2.084-.5,2.641-2.414,4.585-3.027l.32-.082c-1.362-.182-2.656-.392-4.045-.668-1.323,2.315-4.032,3.009-7.621,2.315a20.4,20.4,0,0,1-4.722-1.646.386.386,0,0,1-.249-.363.286.286,0,0,1,.3-.239c2.156-.024,3.115-1.783,5.147-1.936h.331c-1.293-.459-2.561-.962-3.81-1.518-1.81,1.91-4.589,1.992-7.934.6a21.221,21.221,0,0,1-4.251-2.649.387.387,0,0,1-.157-.4.257.257,0,0,1,.148-.148.234.234,0,0,1,.2,0,5.2,5.2,0,0,0,2.858-.379,5.362,5.362,0,0,1,2.59-.417h.319c-1.168-.725-2.295-1.506-3.395-2.313-2.2,1.463-4.927,1-7.875-1.145a20.392,20.392,0,0,1-3.57-3.486.407.407,0,0,1-.073-.445.293.293,0,0,1,.374-.071,5.24,5.24,0,0,0,2.886.26,5.406,5.406,0,0,1,2.614.161l.286.111c-.942-.963-1.89-1.967-2.778-3.009-2.48.961-5.012,0-7.432-2.788a20.212,20.212,0,0,1-2.783-4.182.431.431,0,0,1,0-.448.269.269,0,0,1,.188-.079.282.282,0,0,1,.191.079c1.734,1.283,3.54.489,5.274,1.593l.256.192c-.707-1.168-1.444-2.354-2.1-3.554-2.643.363-4.879-1.171-6.649-4.362a20.473,20.473,0,0,1-1.769-4.684.4.4,0,0,1,.132-.42.275.275,0,0,1,.37.086c1.411,1.631,3.395,1.31,4.794,2.7l.223.252c-.48-1.3-.91-2.549-1.282-3.945-2.7-.235-4.521-2.186-5.566-5.687a20.78,20.78,0,0,1-.7-4.96.371.371,0,0,1,.207-.378.28.28,0,0,1,.35.167c1.015,1.894,3.008,1.937,4.091,3.678l.171.281c-.2-1.324-.331-2.72-.407-4.113-2.544-.837-3.919-3.109-4.175-6.748a21.432,21.432,0,0,1,.367-4.989.39.39,0,0,1,.294-.335.281.281,0,0,1,.3.238c.58,2.076,2.514,2.55,3.21,4.473l.1.32c.1-1.392.281-2.788.5-4.18-2.341-1.382-3.173-3.875-2.63-7.486a19.919,19.919,0,0,1,1.39-4.792.387.387,0,0,1,.358-.268.284.284,0,0,1,.244.306c.122,2.148,1.89,3.027,2.148,5.075v.321c.417-1.325.893-2.635,1.39-3.917-1.953-1.88-2.224-4.472-.93-7.873a21.492,21.492,0,0,1,2.468-4.366.383.383,0,0,1,.4-.177.26.26,0,0,1,.153.135.248.248,0,0,1,.007.21c-.385,2.133,1.2,3.375,1.008,5.423v.321c.689-1.2,1.427-2.382,2.215-3.525-1.525-2.315-1.231-4.837.786-7.892a20.781,20.781,0,0,1,3.332-3.721.4.4,0,0,1,.43-.082.284.284,0,0,1,.1.374c-.8,2.08.442,3.626-.2,5.578l-.11.306q1.421-1.576,2.917-2.967c-.959-2.582-.153-4.992,2.467-7.528a21.659,21.659,0,0,1,4.059-2.913.406.406,0,0,1,.453,0,.3.3,0,0,1,0,.388c-1.23,1.77-.367,3.554-1.4,5.327l-.173.278c1.137-.794,2.31-1.563,3.5-2.272-.377-2.73.923-4.892,4.022-6.8a20.629,20.629,0,0,1,4.608-1.964.415.415,0,0,1,.431.11.275.275,0,0,1-.076.376c-1.569,1.478-1.1,3.4-2.5,4.907l-.235.235.7-.292c.594-.238,1.348-.5,2.14-.75a7.422,7.422,0,0,1,3.884-2.359,6.678,6.678,0,0,1,5.568.794,8.374,8.374,0,0,1-4.667,2.86,9.124,9.124,0,0,1-4.293.139l-2.067.822-.661.263h.307c1.992.14,2.864,1.923,4.686,2.259a.309.309,0,0,1,.252.277.355.355,0,0,1-.228.321c-1.23.477-3,1.032-3.863,1.256-2.9.709-5.014.6-7.226-1.075-1.154.684-2.276,1.424-3.379,2.2h.306a4.768,4.768,0,0,1,2.729.573,5.267,5.267,0,0,0,2.335.609.312.312,0,0,1,.308.21.368.368,0,0,1-.136.363,37.406,37.406,0,0,1-3.526,2.075c-2.67,1.325-4.772,1.688-7.274.531-.925.905-1.872,1.866-2.783,2.87l.295-.138a4.747,4.747,0,0,1,2.779-.021,5.2,5.2,0,0,0,2.409.093.282.282,0,0,1,.345.139.334.334,0,0,1,0,.374,35.805,35.805,0,0,1-2.977,2.789c-2.264,1.883-4.284,2.706-6.959,2.09-.749,1.118-1.475,2.261-2.136,3.415l.259-.178c1.658-1.061,3.44-.224,5.079-1.061a.311.311,0,0,1,.378,0,.353.353,0,0,1,0,.392,39.49,39.49,0,0,1-2.312,3.358c-1.846,2.328-3.659,3.568-6.367,3.568a38.438,38.438,0,0,0-1.4,3.793,2.693,2.693,0,0,1,.209-.239c1.383-1.435,3.34-.961,4.733-2.147a.3.3,0,0,1,.376,0,.3.3,0,0,1,.1.363,36.8,36.8,0,0,1-1.52,3.793c-1.283,2.674-2.8,4.32-5.45,4.878-.211,1.325-.383,2.593-.48,3.985l.146-.278c1.06-1.741,3.043-1.659,4.167-3.137a.319.319,0,0,1,.37-.1.342.342,0,0,1,.174.349,37.325,37.325,0,0,1-.665,4.027c-.7,2.9-1.782,4.85-4.274,5.951.069,1.339.21,2.678.391,4l.085-.306c.6-1.9,2.586-2.272,3.382-3.946a.305.305,0,0,1,.332-.182.314.314,0,0,1,.254.292c.151,1.3.227,3.194.227,4.084-.114,2.97-.726,5.143-2.9,6.734.38,1.282.787,2.563,1.242,3.8v-.305c.22-1.995,2.043-2.789,2.444-4.6a.283.283,0,0,1,.282-.238.327.327,0,0,1,.308.238,40.1,40.1,0,0,1,1.094,3.914c.544,2.927.384,5.213-1.389,7.222.64,1.171,1.309,2.314,2.029,3.443a2.5,2.5,0,0,1,0-.32c-.21-1.98,1.395-3.166,1.395-5.017a.3.3,0,0,1,.221-.3.317.317,0,0,1,.352.167,38.271,38.271,0,0,1,1.929,3.583c1.22,2.735,1.563,5.017.251,7.345.933,1,1.84,1.981,2.787,2.914a1.544,1.544,0,0,1-.109-.292c-.641-1.895.66-3.388.26-5.2a.309.309,0,0,1,.17-.334.327.327,0,0,1,.372.085c.917.962,2.118,2.368,2.662,3.081,1.763,2.4,2.612,4.568,1.831,7.122,1.057.794,2.159,1.546,3.286,2.258-.06-.087-.127-.175-.18-.267-1.026-1.713-.068-3.454-.853-5.128a.35.35,0,0,1,0-.377.342.342,0,0,1,.391,0,40.552,40.552,0,0,1,3.257,2.438c2.252,1.967,3.576,3.918,3.345,6.553,1.2.559,2.447,1.033,3.687,1.491l-.225-.224c-1.379-1.449-.82-3.344-1.95-4.822a.286.286,0,0,1,0-.377.335.335,0,0,1,.38-.082,39.339,39.339,0,0,1,3.7,1.67c2.609,1.478,4.352,3.04,4.68,5.662,1.3.263,2.608.474,3.924.641l-.271-.154c-1.659-1.114-1.559-3.109-2.949-4.295a.3.3,0,0,1-.084-.363.336.336,0,0,1,.344-.167c1.324.2,3.133.587,3.994.822a8.85,8.85,0,0,1,5,2.971,8.893,8.893,0,0,1,5.007-2.971,39.872,39.872,0,0,1,3.984-.822.331.331,0,0,1,.342.167.309.309,0,0,1-.085.363c-1.415,1.186-1.292,3.181-2.952,4.295l-.257.154c1.3-.167,2.612-.377,3.909-.641.332-2.622,2.069-4.266,4.684-5.662a39.47,39.47,0,0,1,3.7-1.67.335.335,0,0,1,.379.082.279.279,0,0,1,0,.377c-1.116,1.463-.539,3.429-1.935,4.822-.065.054-.121.147-.179.189,1.229-.44,2.437-.921,3.629-1.457-.227-2.635,1.1-4.6,3.34-6.553.666-.568,2.141-1.7,3.257-2.438a.335.335,0,0,1,.387,0,.316.316,0,0,1,.085.377c-.779,1.674.169,3.416-.864,5.128l-.181.267c1.126-.712,2.228-1.464,3.284-2.258-.781-2.554.07-4.725,1.851-7.122a38.256,38.256,0,0,1,2.657-3.094.349.349,0,0,1,.379,0,.3.3,0,0,1,.148.334c-.4,1.81.906,3.3.27,5.2-.034.1-.072.2-.111.292a39.312,39.312,0,0,0,2.778-2.913c-1.3-2.328-.957-4.629.251-7.347.376-.808,1.239-2.453,1.938-3.6a.314.314,0,0,1,.343-.154.29.29,0,0,1,.227.292c0,1.856,1.6,3.038,1.391,5.018a2.925,2.925,0,0,1,0,.321c.652-1.129,1.406-2.272,2.046-3.444-1.824-2-1.992-4.291-1.394-7.218.2-.865.669-2.664,1.1-3.917a.337.337,0,0,1,.306-.239.28.28,0,0,1,.278.239c.4,1.813,2.225,2.607,2.451,4.6a2.288,2.288,0,0,1,0,.306c.459-1.253.876-2.525,1.234-3.806-2.17-1.589-2.892-3.765-2.892-6.745,0-.894.069-2.678.223-4.071a.33.33,0,0,1,.248-.292.3.3,0,0,1,.336.168c.793,1.684,2.726,2.061,3.382,3.956a.986.986,0,0,1,.081.306c.183-1.325.319-2.606.393-4-2.494-1.1-3.575-3.052-4.272-5.95a38.922,38.922,0,0,1-.669-4.031.332.332,0,0,1,.181-.345.3.3,0,0,1,.361.1c1.143,1.463,3.132,1.421,4.177,3.137a.734.734,0,0,1,.148.253c-.111-1.331-.277-2.647-.486-3.964-2.671-.556-4.144-2.2-5.449-4.879a37.812,37.812,0,0,1-1.52-3.788.323.323,0,0,1,.1-.364.288.288,0,0,1,.374,0c1.42,1.186,3.338.752,4.731,2.147a1.25,1.25,0,0,1,.21.235c-.446-1.282-.89-2.549-1.394-3.789-2.711.014-4.521-1.242-6.374-3.568a40.221,40.221,0,0,1-2.3-3.361.322.322,0,0,1,0-.388.29.29,0,0,1,.357,0c1.645.847,3.425-.029,5.094,1.072l.253.181c-.67-1.157-1.395-2.3-2.145-3.415-2.629.612-4.646-.21-6.959-2.091a36.191,36.191,0,0,1-2.977-2.788.321.321,0,0,1,0-.378.266.266,0,0,1,.335-.138,5.2,5.2,0,0,0,2.412-.093,4.718,4.718,0,0,1,2.777.025,1.273,1.273,0,0,1,.292.14,36.969,36.969,0,0,0-2.783-2.874c-2.5,1.157-4.622.794-7.278-.527a38.657,38.657,0,0,1-3.5-2.079.341.341,0,0,1-.152-.36.317.317,0,0,1,.306-.21,5.275,5.275,0,0,0,2.333-.612,4.785,4.785,0,0,1,2.73-.574h.308c-1.1-.793-2.229-1.506-3.386-2.187-2.212,1.671-4.326,1.785-7.217,1.073-.865-.225-2.627-.781-3.87-1.254a.366.366,0,0,1-.22-.334.293.293,0,0,1,.248-.263c1.824-.335,2.7-2.119,4.693-2.272h.306l-.672-.267-2.056-.823a9.073,9.073,0,0,1-4.3-.138,8.357,8.357,0,0,1-4.658-2.856,6.674,6.674,0,0,1,5.563-.8,7.392,7.392,0,0,1,3.883,2.358c.753.249,1.543.516,2.146.751l.7.3-.239-.239c-1.39-1.507-.935-3.429-2.5-4.908a.275.275,0,0,1-.068-.373.417.417,0,0,1,.432-.114,20.383,20.383,0,0,1,4.591,1.965c3.117,1.909,4.409,4.014,4.033,6.8,1.2.712,2.365,1.478,3.51,2.272l-.185-.277c-1.045-1.77-.181-3.554-1.39-5.324-.11-.153-.11-.292,0-.392a.39.39,0,0,1,.442,0,21.516,21.516,0,0,1,4.119,2.914c2.619,2.539,3.424,4.949,2.464,7.527q1.531,1.421,2.981,2.871l-.111-.307c-.643-2.019.6-3.582-.2-5.572a.275.275,0,0,1,.1-.377.4.4,0,0,1,.433.082,20.961,20.961,0,0,1,3.322,3.722c2.019,3.04,2.311,5.6.794,7.89.823,1.144,1.517,2.329,2.212,3.526v-.321c-.193-2.047,1.348-3.29,1-5.423a.273.273,0,0,1,.163-.345.376.376,0,0,1,.407.181,21.391,21.391,0,0,1,2.461,4.362c1.3,3.4,1.031,5.993-.93,7.874.526,1.281.983,2.592,1.389,3.917v-.334c.266-2.034,2.033-2.913,2.156-5.075a.272.272,0,0,1,.059-.2.271.271,0,0,1,.179-.1.389.389,0,0,1,.361.267,20.212,20.212,0,0,1,1.394,4.793c.54,3.611-.294,6.093-2.619,7.485.211,1.325.392,2.717.5,4.113l.094-.307c.687-1.926,2.619-2.4,3.2-4.476a.277.277,0,0,1,.306-.235.381.381,0,0,1,.291.321,20.662,20.662,0,0,1,.367,5c-.255,3.622-1.631,5.907-4.179,6.73-.068,1.4-.207,2.788-.388,4.184l.153-.281c1.085-1.741,3.086-1.785,4.094-3.679a.276.276,0,0,1,.347-.167.363.363,0,0,1,.221.377,20.871,20.871,0,0,1-.709,4.961c-1.073,3.5-2.895,5.451-5.566,5.687-.376,1.325-.807,2.65-1.281,3.932l.224-.239c1.432-1.449,3.4-1.071,4.787-2.7a.276.276,0,0,1,.376-.082.354.354,0,0,1,.12.417,19.347,19.347,0,0,1-1.765,4.682c-1.767,3.194-4,4.725-6.647,4.348-.713,1.214-1.353,2.4-2.1,3.557l.277-.182c1.711-1.1,3.52-.307,5.261-1.591a.28.28,0,0,1,.387,0,.449.449,0,0,1,0,.449,20.991,20.991,0,0,1-2.783,4.179c-2.418,2.717-4.953,3.736-7.443,2.789a39.8,39.8,0,0,1-2.783,3.009l.3-.11a5.306,5.306,0,0,1,2.625-.163,5.176,5.176,0,0,0,2.858-.254.29.29,0,0,1,.378.069.42.42,0,0,1-.069.444,21.211,21.211,0,0,1-3.577,3.487c-2.952,2.146-5.676,2.592-7.86,1.129-1.1.822-2.241,1.6-3.395,2.328h.32a5.39,5.39,0,0,1,2.589.417,5.164,5.164,0,0,0,2.849.377.248.248,0,0,1,.207,0,.252.252,0,0,1,.142.15.385.385,0,0,1-.151.4,20.734,20.734,0,0,1-4.246,2.635c-3.349,1.464-6.135,1.311-7.943-.584-1.24.555-2.518,1.057-3.815,1.516h.335c2.034.168,2.994,1.951,5.148,1.951.171.016.308.1.308.239a.391.391,0,0,1-.247.363,20.454,20.454,0,0,1-4.719,1.646c-3.577.694-6.233-.058-7.624-2.315-1.337.276-2.661.487-4.052.668l.319.082c1.95.613,2.506,2.525,4.6,3.027a.29.29,0,0,1,.244.292.375.375,0,0,1-.306.307,20.733,20.733,0,0,1-4.968.569c-.155.011-.319.015-.474.015A7.887,7.887,0,0,1-11768.477,2287.434Zm49.3-56.715Zm-49.215,41.525a37.409,37.409,0,0,1-36.7-30.108,37.412,37.412,0,0,1,22.371-41.855,37.41,37.41,0,0,1,45.419,13.774,37.412,37.412,0,0,1-4.651,47.237,37.154,37.154,0,0,1-26.347,10.953Zm-15.294-21.612a1.87,1.87,0,0,0,1.873,1.869h27.621a1.868,1.868,0,0,0,1.867-1.869,1.868,1.868,0,0,0-1.867-1.869h-27.621A1.87,1.87,0,0,0-11783.687,2250.631Zm-2.35-24.962a1.992,1.992,0,0,0-.77,1.912l2.881,16.677a1.954,1.954,0,0,0,1.939,1.659h27.185a2,2,0,0,0,1.96-1.659l2.859-16.677a1.968,1.968,0,0,0-.766-1.912,1.96,1.96,0,0,0-1.181-.392,1.9,1.9,0,0,0-.875.21l-9.148,5.228-4.7-12.777a2.06,2.06,0,0,0-1.729-.933,2.054,2.054,0,0,0-1.718.933l-4.727,12.777-9.146-5.228a1.944,1.944,0,0,0-.887-.21h-.007A1.92,1.92,0,0,0-11786.037,2225.669Z" transform="translate(11823.97 -2181.8)"/></g></svg>