<svg xmlns="http://www.w3.org/2000/svg" xmlns:xlink="http://www.w3.org/1999/xlink" width="228" height="207" viewBox="0 0 228 207">
  <defs>
    <clipPath id="clip-path">
      <path id="Rectangle_4231" data-name="Rectangle 4231" d="M0,0H228a0,0,0,0,1,0,0V197a10,10,0,0,1-10,10H0a0,0,0,0,1,0,0V0A0,0,0,0,1,0,0Z" stroke="#f1f0ef" stroke-width="1"/>
    </clipPath>
    <radialGradient id="radial-gradient" cx="0.716" cy="0.724" r="0.764" gradientTransform="translate(-0.864) scale(2.728 1)" gradientUnits="objectBoundingBox">
      <stop offset="0" stop-color="#7b5e23"/>
      <stop offset="1" stop-color="#e2ad42"/>
    </radialGradient>
    <linearGradient id="linear-gradient" x1="0.002" y1="0.5" x2="1.133" y2="0.5" gradientUnits="objectBoundingBox">
      <stop offset="0" stop-color="#b82cb4"/>
      <stop offset="0.06" stop-color="#de4ac2"/>
      <stop offset="0.07" stop-color="#e953c6"/>
      <stop offset="0.13" stop-color="#c436b8"/>
      <stop offset="0.29" stop-color="#b82cb4"/>
      <stop offset="0.67" stop-color="#d644bf"/>
      <stop offset="1" stop-color="#ec55c7"/>
    </linearGradient>
    <radialGradient id="radial-gradient-2" cx="0.844" cy="0.172" r="0.617" gradientTransform="translate(-0.237) scale(1.473 1)" gradientUnits="objectBoundingBox">
      <stop offset="0" stop-color="#551841"/>
      <stop offset="0.05" stop-color="#4a1539"/>
      <stop offset="0.18" stop-color="#2f0d24"/>
      <stop offset="0.33" stop-color="#1a0714"/>
      <stop offset="0.5" stop-color="#0b0309"/>
      <stop offset="0.7" stop-color="#030102"/>
      <stop offset="1"/>
    </radialGradient>
    <linearGradient id="linear-gradient-2" x1="0.002" y1="0.5" x2="1.133" y2="0.5" gradientUnits="objectBoundingBox">
      <stop offset="0" stop-color="#b48424"/>
      <stop offset="0.29" stop-color="#c29334"/>
      <stop offset="1" stop-color="#c4963b"/>
    </linearGradient>
    <linearGradient id="linear-gradient-3" x1="1.027" y1="0.301" x2="0.325" y2="0.566" gradientUnits="objectBoundingBox">
      <stop offset="0" stop-color="#bd1341"/>
      <stop offset="1" stop-color="#ff2a6a"/>
    </linearGradient>
    <radialGradient id="radial-gradient-3" cx="0.546" cy="0.541" r="0.436" gradientTransform="translate(-0.192) scale(1.384 1)" gradientUnits="objectBoundingBox">
      <stop offset="0" stop-color="#8770b8"/>
      <stop offset="1" stop-color="#fff"/>
    </radialGradient>
    <linearGradient id="linear-gradient-4" x1="0.999" y1="0.5" x2="0.001" y2="0.5" gradientUnits="objectBoundingBox">
      <stop offset="0" stop-color="#e2ad42"/>
      <stop offset="0.1" stop-color="#fcc669"/>
      <stop offset="0.97" stop-color="#ffe163"/>
      <stop offset="1" stop-color="#e2ad42"/>
    </linearGradient>
    <radialGradient id="radial-gradient-4" cx="0.73" cy="0.674" r="0.355" gradientTransform="matrix(1.219, 0.71, -1.219, 0.698, 90.17, 42.818)" gradientUnits="objectBoundingBox">
      <stop offset="0.22" stop-color="#8770b8"/>
      <stop offset="0.46" stop-color="#b4a6d3"/>
      <stop offset="0.71" stop-color="#dcd6eb"/>
      <stop offset="0.89" stop-color="#f6f4f9"/>
      <stop offset="1" stop-color="#fff"/>
    </radialGradient>
    <linearGradient id="linear-gradient-5" x1="0.955" y1="0.887" x2="0.107" y2="0.025" gradientUnits="objectBoundingBox">
      <stop offset="0" stop-color="#222"/>
      <stop offset="0.56" stop-color="#6d6d6d"/>
      <stop offset="0.68" stop-color="#a8a8a8"/>
      <stop offset="0.79" stop-color="#6f6f6f"/>
      <stop offset="1" stop-color="#353535"/>
    </linearGradient>
    <linearGradient id="linear-gradient-6" x1="0.466" y1="0.202" x2="0.549" y2="0.936" gradientUnits="objectBoundingBox">
      <stop offset="0" stop-color="#5d5d5d"/>
      <stop offset="1" stop-color="#333"/>
    </linearGradient>
    <linearGradient id="linear-gradient-7" y1="0.5" x2="1" y2="0.5" gradientUnits="objectBoundingBox">
      <stop offset="0" stop-color="#ffe163"/>
      <stop offset="0.86" stop-color="#e2ad42"/>
      <stop offset="1" stop-color="#e2ad42"/>
    </linearGradient>
    <radialGradient id="radial-gradient-5" cx="0.5" cy="0.516" r="0.055" gradientTransform="translate(37171.016 -4.059) scale(9.338 9.091)" gradientUnits="objectBoundingBox">
      <stop offset="0" stop-color="#ff63ce"/>
      <stop offset="0.02" stop-color="#f760c8"/>
      <stop offset="0.13" stop-color="#be4a99"/>
      <stop offset="0.25" stop-color="#8b3670"/>
      <stop offset="0.37" stop-color="#60254e"/>
      <stop offset="0.49" stop-color="#3e1832"/>
      <stop offset="0.62" stop-color="#230d1c"/>
      <stop offset="0.74" stop-color="#0f060c"/>
      <stop offset="0.87" stop-color="#040103"/>
      <stop offset="1"/>
    </radialGradient>
  </defs>
  <g id="Group_8901" data-name="Group 8901" transform="translate(-272 -96)">
    <g id="Mask_Group_55" data-name="Mask Group 55" transform="translate(272 96)" clip-path="url(#clip-path)" style="isolation: isolate">
      <g id="Group_8878" data-name="Group 8878" transform="translate(-0.427 0.006)">
        <path id="Path_31080" data-name="Path 31080" d="M-31.9-75.2,131.457,88.111a139.778,139.778,0,0,1-2.942,13.826L-45.68-72.258A139.768,139.768,0,0,1-31.9-75.2Z" transform="translate(151.312 77.055)" fill="none" stroke="#f1f0ef" stroke-miterlimit="10" stroke-width="1.08"/>
        <path id="Path_31081" data-name="Path 31081" d="M-30.451-72.71,143.743,101.484c-1.182,4.313-2.47,8.544-4.006,12.691L-43.19-68.7C-38.995-70.24-34.765-71.564-30.451-72.71Z" transform="translate(136.083 77.508)" fill="none" stroke="#f1f0ef" stroke-miterlimit="10" stroke-width="1.08"/>
        <path id="Path_31082" data-name="Path 31082" d="M-10.267-48.49,190.255,152c-2.541,3.013-5.188,5.909-7.965,8.733L-19-40.525Q-14.8-44.7-10.267-48.49Z" transform="translate(60.986 81.908)" fill="none" stroke="#f1f0ef" stroke-miterlimit="10" stroke-width="1.08"/>
        <path id="Path_31083" data-name="Path 31083" d="M-15.7-54.65,182.637,143.687q-3.456,4.857-7.279,9.454L-25.13-47.371C-22.093-49.923-18.938-52.346-15.7-54.65Z" transform="translate(75.849 80.789)" fill="none" stroke="#f1f0ef" stroke-miterlimit="10" stroke-width="1.08"/>
        <path id="Path_31084" data-name="Path 31084" d="M-24.7-65.12,164.958,124.543c-1.773,3.734-3.722,7.362-5.814,10.9L-35.6-59.306C-32.067-61.433-28.439-63.347-24.7-65.12Z" transform="translate(105.899 78.887)" fill="none" stroke="#f1f0ef" stroke-miterlimit="10" stroke-width="1.08"/>
        <path id="Path_31085" data-name="Path 31085" d="M-20.529-60.2,174.215,134.544q-3.061,5.235-6.558,10.151L-30.68-53.642Q-25.752-57.128-20.529-60.2Z" transform="translate(90.829 79.781)" fill="none" stroke="#f1f0ef" stroke-miterlimit="10" stroke-width="1.08"/>
        <path id="Path_31086" data-name="Path 31086" d="M-28.1-69.32,154.826,113.56c-1.477,4.006-3.143,7.917-4.963,11.746L-39.8-64.357C-35.971-66.177-32.06-67.843-28.1-69.32Z" transform="translate(120.995 78.124)" fill="none" stroke="#f1f0ef" stroke-miterlimit="10" stroke-width="1.08"/>
        <path id="Path_31087" data-name="Path 31087" d="M41.71,12.185-39-68.49A142.738,142.738,0,0,1,41.71,12.185Z" transform="translate(233.165 78.274)" fill="none" stroke="#f1f0ef" stroke-miterlimit="10" stroke-width="1.08"/>
        <path id="Path_31088" data-name="Path 31088" d="M-21.227-67.414,59.483,13.26a141.414,141.414,0,0,1,7,23.634L-44.92-74.41a141.081,141.081,0,0,1,23.693,7Z" transform="translate(215.392 77.199)" fill="none" stroke="#f1f0ef" stroke-miterlimit="10" stroke-width="1.08"/>
        <path id="Path_31089" data-name="Path 31089" d="M-31.993-76.58,117.929,73.342A140.18,140.18,0,0,1,116.3,88.362L-47.06-74.949A140.183,140.183,0,0,1-31.993-76.58Z" transform="translate(166.471 76.805)" fill="none" stroke="#f1f0ef" stroke-miterlimit="10" stroke-width="1.08"/>
        <path id="Path_31090" data-name="Path 31090" d="M-39.425-76.77c3.013,0,5.991.118,8.957.307L102.591,56.585c.189,2.966.307,5.909.307,8.957,0,2.635-.083,5.235-.225,7.835L-47.26-76.545C-44.66-76.687-42.049-76.77-39.425-76.77Z" transform="translate(181.737 76.77)" fill="none" stroke="#f1f0ef" stroke-miterlimit="10" stroke-width="1.08"/>
        <path id="Path_31091" data-name="Path 31091" d="M-27.8-74.028,83.566,37.335a142.386,142.386,0,0,1,2.493,19.2L-47-76.51a142.382,142.382,0,0,1,19.2,2.482Z" transform="translate(198.269 76.817)" fill="none" stroke="#f1f0ef" stroke-miterlimit="10" stroke-width="1.08"/>
        <path id="Path_31092" data-name="Path 31092" d="M54.665,23.42l164.2,164.256A141.8,141.8,0,0,1,203.89,189.4L52.94,38.392A141.809,141.809,0,0,1,54.665,23.42Z" transform="translate(-52.633 94.975)" fill="none" stroke="#f1f0ef" stroke-miterlimit="10" stroke-width="1.08"/>
        <path id="Path_31093" data-name="Path 31093" d="M65.61,45.035c0-3,.118-5.979.307-8.945l150.95,150.95c-2.966.189-5.908.307-8.945.307q-3.864,0-7.669-.213L65.823,52.7Q65.61,48.9,65.61,45.035Z" transform="translate(-65.61 97.277)" fill="none" stroke="#f1f0ef" stroke-miterlimit="10" stroke-width="1.08"/>
        <path id="Path_31094" data-name="Path 31094" d="M79.67,50.15,214.1,184.58a143.951,143.951,0,0,1-19.037-2.363L81.986,69.14A143.954,143.954,0,0,1,79.67,50.15Z" transform="translate(-79.457 99.831)" fill="none" stroke="#f1f0ef" stroke-miterlimit="10" stroke-width="1.08"/>
        <path id="Path_31095" data-name="Path 31095" d="M95.78,66.26,208.857,179.4a142.523,142.523,0,0,1-23.185-6.476L102.244,89.445A142.522,142.522,0,0,1,95.78,66.26Z" transform="translate(-93.251 102.759)" fill="none" stroke="#f1f0ef" stroke-miterlimit="10" stroke-width="1.08"/>
        <path id="Path_31096" data-name="Path 31096" d="M115.4,85.88,198.828,169.3A142.785,142.785,0,0,1,115.4,85.88Z" transform="translate(-106.407 106.324)" fill="none" stroke="#f1f0ef" stroke-miterlimit="10" stroke-width="1.08"/>
        <path id="Path_31097" data-name="Path 31097" d="M44.379,11.84,219.27,186.732q-6.724,1.843-13.684,3.025L41.33,25.56Q42.535,18.552,44.379,11.84Z" transform="translate(-39.321 92.87)" fill="none" stroke="#f1f0ef" stroke-miterlimit="10" stroke-width="1.08"/>
        <path id="Path_31098" data-name="Path 31098" d="M9.7-26.45,208.225,172.076c-3.273,2.363-6.629,4.561-10.092,6.629L3.07-16.37C5.138-19.832,7.36-23.189,9.7-26.45Z" transform="translate(16.936 85.913)" fill="none" stroke="#f1f0ef" stroke-miterlimit="10" stroke-width="1.08"/>
        <path id="Path_31099" data-name="Path 31099" d="M2.457-34.39l200.57,200.57q-4.538,3.864-9.371,7.338L-4.87-25.007Q-1.408-29.864,2.457-34.39Z" transform="translate(31.517 84.47)" fill="none" stroke="#f1f0ef" stroke-miterlimit="10" stroke-width="1.08"/>
        <path id="Path_31100" data-name="Path 31100" d="M34.8,1.16,218.192,184.548a132.262,132.262,0,0,1-12.621,4.089L30.68,13.745C31.885,9.491,33.244,5.272,34.8,1.16Z" transform="translate(-25.658 90.93)" fill="none" stroke="#f1f0ef" stroke-miterlimit="10" stroke-width="1.08"/>
        <path id="Path_31101" data-name="Path 31101" d="M-4.218-41.75,197.037,159.505c-2.789,2.8-5.7,5.459-8.7,8.012L-12.23-33.053C-9.678-36.054-7.019-38.961-4.218-41.75Z" transform="translate(46.204 83.133)" fill="none" stroke="#f1f0ef" stroke-miterlimit="10" stroke-width="1.08"/>
        <path id="Path_31102" data-name="Path 31102" d="M25.769-8.75l190.1,190.1a124.929,124.929,0,0,1-11.711,5L20.77,2.961C22.271-1.033,23.925-4.945,25.769-8.75Z" transform="translate(-11.624 89.129)" fill="none" stroke="#f1f0ef" stroke-miterlimit="10" stroke-width="1.08"/>
        <path id="Path_31103" data-name="Path 31103" d="M17.461-17.92,212.536,177.155c-3.545,2.092-7.09,4.065-10.836,5.909L11.6-7.084C13.4-10.794,15.37-14.4,17.461-17.92Z" transform="translate(2.545 87.463)" fill="none" stroke="#f1f0ef" stroke-miterlimit="10" stroke-width="1.08"/>
      </g>
    </g>
    <g id="Group_8873" data-name="Group 8873" transform="translate(230.015 -256.877)">
      <path id="Path_30771" data-name="Path 30771" d="M516.136,493.145l-2.536-.755.286,12.843,3.885.339.836-8.885a3.406,3.406,0,0,0-2.47-3.543Z" transform="translate(-324.708 -59.842)" fill="url(#radial-gradient)"/>
      <path id="Path_30772" data-name="Path 30772" d="M406.675,402.182a14.078,14.078,0,0,0-12.382,0c-3.409,1.919-3.358,4.763-.264,6.676l12.646,64.316,72.611,40.485a3.266,3.266,0,0,0,3.167.008,3.022,3.022,0,0,0,1.583-2.64v-61.6a7.715,7.715,0,0,0-4.032-6.7Z" transform="translate(-292.176 -32.87)" fill="url(#linear-gradient)"/>
      <path id="Path_30773" data-name="Path 30773" d="M418.506,473.094l-2.023-1.157a3.476,3.476,0,0,1-.433-.3v-61.5L485.655,448.5a3.7,3.7,0,0,1,1.935,3.218V511.6Z" transform="translate(-298.669 -35.635)" fill="url(#radial-gradient-2)"/>
      <path id="Path_30774" data-name="Path 30774" d="M406.675,402.182a14.078,14.078,0,0,0-12.382,0c-3.409,1.919-3.358,4.763-.264,6.676l12.646,64.316,73.2,40.93a3.266,3.266,0,0,0,3.167.008,3.023,3.023,0,0,0,1.583-2.64V449.907a7.673,7.673,0,0,0-4.032-6.7Z" transform="translate(-292.176 -32.87)" fill="#ffe163"/>
      <path id="Path_30775" data-name="Path 30775" d="M406.728,403.192a14.062,14.062,0,0,0-12.374,0c-3.409,1.919-3.358,4.763-.264,6.676l12.646,64.316,72.611,40.485a3.266,3.266,0,0,0,3.167.008,3.023,3.023,0,0,0,1.583-2.64v-61.6a7.715,7.715,0,0,0-4.032-6.7Z" transform="translate(-292.192 -33.167)" fill="url(#linear-gradient-2)"/>
      <path id="Path_30776" data-name="Path 30776" d="M394.717,442.38s-3.357,4.763-.264,6.676l12.646,36.35L479.71,525.89a3.266,3.266,0,0,0,3.167.008,3.023,3.023,0,0,0,1.583-2.64V489.646Z" transform="translate(-292.555 -45.123)" fill="#e2ad42"/>
      <path id="Path_30777" data-name="Path 30777" d="M394.717,447.37s-3.357,4.763-.264,6.676L407.1,483.684l72.611,40.485a3.266,3.266,0,0,0,3.167.008,3.023,3.023,0,0,0,1.583-2.64v-26.9Z" transform="translate(-292.555 -46.592)" fill="#d09726"/>
      <path id="Path_30779" data-name="Path 30779" d="M203.757,463.449l-3.585-15.172L162.83,441.89Z" transform="translate(-17.042 -21.783)" fill="#e84364"/>
      <path id="Path_30780" data-name="Path 30780" d="M202.467,462.609l-3.511-14.354L161.54,441.05Z" transform="translate(-16.698 -21.536)" fill="url(#linear-gradient-3)"/>
      <g id="Group_8855" data-name="Group 8855" transform="translate(101.202 369.396)">
        <path id="Path_30791" data-name="Path 30791" d="M481.465,513.162h0a1.568,1.568,0,0,1-.777-.212l-.66-.367a.347.347,0,0,1-.02-.633.379.379,0,0,1,.387.027l.66.367a.852.852,0,0,0,.425.113.384.384,0,0,1,.4.339.323.323,0,0,1-.074.245.348.348,0,0,1-.234.122Zm1.166-.811a.3.3,0,0,1-.11,0,.35.35,0,0,1-.235-.445.923.923,0,0,0,0-.254v-1.044a.367.367,0,0,1,.733,0v1.037a1.452,1.452,0,0,1-.073.473.365.365,0,0,1-.315.233Zm-3.665-.423a.415.415,0,0,1-.183-.049l-1.268-.706a.352.352,0,0,1-.132-.487.357.357,0,0,1,.221-.165.371.371,0,0,1,.277.038l1.268.706a.352.352,0,0,1,.132.487.37.37,0,0,1-.345.176Zm-2.536-1.411a.34.34,0,0,1-.183-.049l-1.268-.706a.347.347,0,0,1-.02-.633.378.378,0,0,1,.387.027l1.268.706a.347.347,0,0,1,.167.4.365.365,0,0,1-.35.261Zm6.268-.988a.36.36,0,0,1-.367-.353v-1.411a.367.367,0,0,1,.733,0v1.411A.36.36,0,0,1,482.7,509.528Zm-8.8-.438a.415.415,0,0,1-.183-.049l-1.268-.706a.36.36,0,0,1-.139-.487.382.382,0,0,1,.506-.127l1.268.706a.353.353,0,0,1,.132.487.369.369,0,0,1-.315.184Zm-2.536-1.411a.325.325,0,0,1-.183-.049l-1.276-.706a.346.346,0,0,1-.128-.483.375.375,0,0,1,.5-.123l1.268.706a.347.347,0,0,1,.167.4.364.364,0,0,1-.35.261Zm11.333-.974a.36.36,0,0,1-.367-.353v-1.411a.367.367,0,0,1,.733,0v1.411A.36.36,0,0,1,482.7,506.706Zm-13.928-.445a.444.444,0,0,1-.183-.049l-1.268-.706a.347.347,0,0,1-.136-.483.376.376,0,0,1,.5-.131l1.276.706a.348.348,0,0,1,.18.4.366.366,0,0,1-.371.258Zm-2.536-1.411a.354.354,0,0,1-.183-.05l-1.268-.706a.345.345,0,0,1-.1-.463.374.374,0,0,1,.468-.144l1.268.706a.353.353,0,0,1,.139.48.376.376,0,0,1-.308.177Zm16.465-.967a.36.36,0,0,1-.367-.353v-1.411a.367.367,0,0,1,.733,0v1.411A.36.36,0,0,1,482.7,503.883Zm-18.979-.452a.444.444,0,0,1-.183-.049l-1.268-.706a.347.347,0,0,1-.136-.483.376.376,0,0,1,.5-.13l1.268.706a.352.352,0,0,1,.132.487.369.369,0,0,1-.323.183Zm-2.536-1.411a.354.354,0,0,1-.183-.049l-1.268-.706a.344.344,0,0,1-.1-.463.374.374,0,0,1,.468-.144l1.268.706a.347.347,0,0,1,.167.4.364.364,0,0,1-.35.261Zm21.516-.96a.36.36,0,0,1-.367-.353V499.3a.367.367,0,0,1,.733,0v1.411A.36.36,0,0,1,482.7,501.06Zm-24.052-.459a.415.415,0,0,1-.183-.049l-1.268-.706a.352.352,0,0,1-.132-.487.358.358,0,0,1,.221-.165.371.371,0,0,1,.277.038l1.268.706a.352.352,0,0,1,.132.487.369.369,0,0,1-.322.184Zm-2.536-1.411a.339.339,0,0,1-.183-.049l-1.268-.706a.344.344,0,0,1-.1-.463.374.374,0,0,1,.468-.144l1.268.706a.347.347,0,0,1,.167.4.364.364,0,0,1-.35.261Zm26.589-.953a.36.36,0,0,1-.367-.353v-1.411a.367.367,0,0,1,.733,0v1.411A.36.36,0,0,1,482.7,498.237Zm-29.125-.466a.339.339,0,0,1-.183-.049l-1.268-.706a.347.347,0,0,1-.136-.483.376.376,0,0,1,.5-.13l1.268.706a.352.352,0,0,1,.132.487.369.369,0,0,1-.323.183Zm-2.544-1.411a.354.354,0,0,1-.183-.049l-1.268-.706a.345.345,0,0,1-.128-.483.375.375,0,0,1,.5-.124l1.268.706a.348.348,0,0,1,.171.213.335.335,0,0,1-.04.267.37.37,0,0,1-.33.176Zm31.669-.946a.36.36,0,0,1-.367-.353V493.65a.367.367,0,0,1,.733,0v1.411A.36.36,0,0,1,482.7,495.415Zm-34.205-.473a.354.354,0,0,1-.183-.049l-1.268-.706a.347.347,0,0,1-.136-.483.376.376,0,0,1,.5-.131l1.276.706a.348.348,0,0,1,.18.405.366.366,0,0,1-.371.258Zm-2.536-1.411a.355.355,0,0,1-.183-.049l-1.268-.706a.345.345,0,0,1-.1-.463.374.374,0,0,1,.468-.144l1.268.706a.353.353,0,0,1,.139.48.385.385,0,0,1-.33.176Zm36.742-.939a.36.36,0,0,1-.367-.353v-1.411a.367.367,0,0,1,.733,0v1.411A.36.36,0,0,1,482.7,492.592Zm-39.278-.48a.355.355,0,0,1-.183-.049l-1.268-.706a.347.347,0,0,1-.136-.483.376.376,0,0,1,.5-.131l1.268.706a.352.352,0,0,1,.132.487.369.369,0,0,1-.322.183Zm-2.536-1.411a.355.355,0,0,1-.183-.049l-1.268-.706a.344.344,0,0,1-.1-.463.374.374,0,0,1,.468-.144l1.268.706a.347.347,0,0,1,.167.4A.364.364,0,0,1,440.882,490.7Zm41.814-.932a.36.36,0,0,1-.367-.353v-1.411a.367.367,0,0,1,.733,0v1.411A.36.36,0,0,1,482.7,489.769Zm-44.351-.487a.339.339,0,0,1-.183-.049l-1.268-.706a.352.352,0,0,1-.132-.487.374.374,0,0,1,.5-.127l1.268.706a.353.353,0,0,1,.132.487.369.369,0,0,1-.323.183Zm-2.536-1.411a.409.409,0,0,1-.183-.042l-1.268-.706a.347.347,0,0,1-.02-.633.379.379,0,0,1,.387.027l1.268.706a.347.347,0,0,1,.167.4.364.364,0,0,1-.35.261Zm46.917-.917a.36.36,0,0,1-.367-.353v-1.411a.367.367,0,0,1,.733,0V486.6a.347.347,0,0,1-.12.255.376.376,0,0,1-.276.09ZM433.3,486.46a.325.325,0,0,1-.183-.049l-1.268-.706a.353.353,0,0,1-.139-.487.382.382,0,0,1,.506-.127l1.268.706a.347.347,0,0,1,.167.4.365.365,0,0,1-.35.261Zm-2.544-1.411a.429.429,0,0,1-.183-.042l-1.268-.706a.346.346,0,0,1-.132-.48.358.358,0,0,1,.221-.165.371.371,0,0,1,.277.038l1.276.706a.347.347,0,0,1,.166.4.365.365,0,0,1-.357.258Zm51.938-.924a.36.36,0,0,1-.367-.353V482.36a.367.367,0,0,1,.733,0v1.411A.36.36,0,0,1,482.7,484.124Zm-54.5-.5a.355.355,0,0,1-.183-.049l-1.268-.706a.347.347,0,0,1-.136-.483.376.376,0,0,1,.5-.131l1.268.706a.349.349,0,0,1,.176.211.335.335,0,0,1-.036.268.376.376,0,0,1-.33.191Zm-2.536-1.411a.431.431,0,0,1-.183-.042l-1.268-.706a.347.347,0,0,1-.02-.633.379.379,0,0,1,.387.027l1.268.706a.353.353,0,0,1,.139.48.371.371,0,0,1-.33.169Zm57.04-.91a.36.36,0,0,1-.367-.353v-1.411a.367.367,0,0,1,.733,0v1.411A.36.36,0,0,1,482.7,481.3Zm-59.577-.508a.354.354,0,0,1-.183-.049l-1.268-.706a.347.347,0,0,1-.136-.483.376.376,0,0,1,.5-.131l1.268.706a.347.347,0,0,1,.167.4.364.364,0,0,1-.35.261Zm-2.536-1.411a.408.408,0,0,1-.183-.042l-1.268-.706a.345.345,0,0,1-.1-.463.374.374,0,0,1,.468-.144l1.268.706a.352.352,0,0,1,.132.487.363.363,0,0,1-.323.162Zm62.113-.9a.36.36,0,0,1-.367-.353v-1.411a.367.367,0,0,1,.733,0v1.411A.36.36,0,0,1,482.7,478.478Zm-64.65-.515a.339.339,0,0,1-.183-.049l-1.268-.706a.347.347,0,0,1-.136-.483.376.376,0,0,1,.5-.131l1.268.706a.347.347,0,0,1,.167.4.364.364,0,0,1-.35.261Zm-2.536-1.411a.41.41,0,0,1-.183-.042l-1.268-.706a.347.347,0,0,1-.02-.633.378.378,0,0,1,.387.027l1.268.706a.352.352,0,0,1,.132.487.363.363,0,0,1-.322.162Zm67.186-.9a.36.36,0,0,1-.367-.353v-1.411a.367.367,0,0,1,.733,0V475.3A.36.36,0,0,1,482.7,475.656Zm-69.723-.522a.325.325,0,0,1-.183-.049l-1.268-.706a.346.346,0,0,1-.139-.48.382.382,0,0,1,.506-.134l1.268.706a.347.347,0,0,1,.167.4.364.364,0,0,1-.35.261Zm-2.544-1.411a.434.434,0,0,1-.183-.042l-1.268-.706a.348.348,0,0,1-.171-.213.335.335,0,0,1,.04-.267.382.382,0,0,1,.506-.127l1.268.706a.352.352,0,0,1,.132.487.371.371,0,0,1-.33.162Zm72.266-.889a.36.36,0,0,1-.367-.353v-1.411a.367.367,0,0,1,.733,0v1.411A.36.36,0,0,1,482.7,472.833ZM408.751,471.7a.356.356,0,0,1-.352-.275l-.308-1.411a.335.335,0,0,1,.048-.265.36.36,0,0,1,.23-.152.379.379,0,0,1,.278.046.353.353,0,0,1,.162.222l.3,1.411a.335.335,0,0,1-.048.265.36.36,0,0,1-.23.152ZM482.7,470.01a.36.36,0,0,1-.367-.353v-1.411a.367.367,0,0,1,.733,0v1.411A.36.36,0,0,1,482.7,470.01Zm-74.554-1.066a.363.363,0,0,1-.359-.282l-.308-1.376a.367.367,0,0,1,.286-.423.374.374,0,0,1,.433.275l.308,1.411a.353.353,0,0,1-.286.416Zm74.554-1.757a.36.36,0,0,1-.367-.353v-1.411a.367.367,0,0,1,.733,0v1.411A.36.36,0,0,1,482.7,467.187Zm-75.155-1.009a.356.356,0,0,1-.359-.282l-.308-1.376a.341.341,0,0,1,.048-.268.367.367,0,0,1,.231-.156.381.381,0,0,1,.44.275l.3,1.411a.342.342,0,0,1-.048.268.366.366,0,0,1-.231.156Zm75.155-1.814a.36.36,0,0,1-.367-.353V462.6a.367.367,0,0,1,.733,0v1.411A.36.36,0,0,1,482.7,464.365Zm-75.77-.946a.371.371,0,0,1-.359-.282l-.3-1.411a.335.335,0,0,1,.048-.265.36.36,0,0,1,.23-.152.374.374,0,0,1,.433.275l.308,1.376a.342.342,0,0,1-.048.268.366.366,0,0,1-.231.156Zm75.77-1.877a.36.36,0,0,1-.367-.353v-1.411a.367.367,0,0,1,.733,0v1.411A.36.36,0,0,1,482.7,461.542Zm-76.386-.882a.364.364,0,0,1-.359-.275l-.308-1.411a.361.361,0,0,1,.29-.427.375.375,0,0,1,.443.279l.308,1.411a.353.353,0,0,1-.286.416Zm76.386-1.941a.36.36,0,0,1-.367-.353v-1.411a.367.367,0,0,1,.733,0v1.411A.36.36,0,0,1,482.7,458.719Zm-76.973-.826a.349.349,0,0,1-.352-.275l-.308-1.411a.335.335,0,0,1,.048-.265.36.36,0,0,1,.231-.152.378.378,0,0,1,.278.046.353.353,0,0,1,.162.222l.3,1.411a.335.335,0,0,1-.048.265.36.36,0,0,1-.23.152Zm76.973-2a.36.36,0,0,1-.367-.353v-1.411a.367.367,0,0,1,.733,0v1.411A.36.36,0,0,1,482.7,455.9Zm-77.6-.762a.363.363,0,0,1-.359-.282l-.308-1.376a.353.353,0,0,1,.286-.416.371.371,0,0,1,.275.046.346.346,0,0,1,.158.222l.308,1.411a.354.354,0,0,1-.286.416Zm77.6-2.061a.36.36,0,0,1-.367-.353V451.31a.367.367,0,0,1,.733,0v1.411A.36.36,0,0,1,482.7,453.074Zm-78.219-.706a.356.356,0,0,1-.359-.282l-.308-1.376a.342.342,0,0,1,.048-.268.367.367,0,0,1,.231-.156.381.381,0,0,1,.44.275l.3,1.411a.342.342,0,0,1-.048.268.366.366,0,0,1-.231.156Zm78.219-2.117a.353.353,0,0,1-.367-.339,5.331,5.331,0,0,0-.205-1.313.364.364,0,0,1,.271-.445.38.38,0,0,1,.462.261,5.908,5.908,0,0,1,.235,1.475.359.359,0,0,1-.359.36Zm-78.827-.635a.363.363,0,0,1-.359-.282l-.3-1.411a.335.335,0,0,1,.048-.265.359.359,0,0,1,.23-.152.366.366,0,0,1,.433.275l.308,1.376a.342.342,0,0,1-.048.268.367.367,0,0,1-.231.156Zm78.058-2.061a.37.37,0,0,1-.323-.176,5.869,5.869,0,0,0-.806-1.073.345.345,0,0,1-.1-.353.361.361,0,0,1,.279-.25.374.374,0,0,1,.359.123,6.139,6.139,0,0,1,.909,1.207.346.346,0,0,1-.139.48.4.4,0,0,1-.183.049Zm-78.666-.706a.364.364,0,0,1-.359-.275l-.308-1.411a.361.361,0,0,1,.29-.427.375.375,0,0,1,.444.279l.308,1.411a.354.354,0,0,1-.286.416Zm76.687-1.341a.362.362,0,0,1-.205-.056l-.279-.169-.968-.529a.352.352,0,0,1-.132-.487.357.357,0,0,1,.221-.165.371.371,0,0,1,.277.038l.96.529.323.19a.352.352,0,0,1,.11.494.385.385,0,0,1-.315.162Zm-2.536-1.411a.339.339,0,0,1-.183-.049l-1.276-.706a.344.344,0,0,1-.1-.463.374.374,0,0,1,.468-.144l1.276.706a.352.352,0,0,1,.132.487.37.37,0,0,1-.323.176Zm-74.773,0a.364.364,0,0,1-.359-.275l-.3-1.411a.335.335,0,0,1,.048-.265.359.359,0,0,1,.23-.152.378.378,0,0,1,.278.046.353.353,0,0,1,.162.222l.3,1.411a.335.335,0,0,1-.048.265.36.36,0,0,1-.23.152Zm72.222-1.411a.407.407,0,0,1-.183-.042l-1.268-.706a.342.342,0,0,1-.136-.476.37.37,0,0,1,.495-.131l1.275.706a.348.348,0,0,1,.172.213.335.335,0,0,1-.039.267.355.355,0,0,1-.315.177Zm-72.8-1.348a.363.363,0,0,1-.359-.282l-.308-1.411a.367.367,0,0,1,.286-.423.374.374,0,0,1,.433.275l.308,1.411a.353.353,0,0,1-.286.416Zm70.287-.049a.408.408,0,0,1-.183-.042l-1.268-.706a.346.346,0,0,1-.139-.48.382.382,0,0,1,.5-.134l1.276.706a.347.347,0,0,1,.167.4.364.364,0,0,1-.35.261Zm-2.544-1.411a.431.431,0,0,1-.183-.042l-1.268-.706a.347.347,0,0,1-.136-.483.376.376,0,0,1,.5-.131l1.268.706a.347.347,0,0,1,.167.4A.364.364,0,0,1,469.8,439.878Zm-68.359-1.305a.356.356,0,0,1-.352-.282l-.308-1.376a.341.341,0,0,1,.048-.268.367.367,0,0,1,.231-.156.381.381,0,0,1,.44.275l.3,1.411a.342.342,0,0,1-.048.268.367.367,0,0,1-.231.156Zm65.815-.1a.355.355,0,0,1-.183-.049l-1.268-.706a.36.36,0,0,1-.139-.487.382.382,0,0,1,.506-.127l1.268.706a.346.346,0,0,1,.139.48.377.377,0,0,1-.352.191Zm-2.544-1.411a.356.356,0,0,1-.183-.049l-1.268-.706a.345.345,0,0,1-.1-.463.374.374,0,0,1,.468-.144l1.268.706a.36.36,0,0,1,.139.487.377.377,0,0,1-.352.183Zm-63.88-1.256a.371.371,0,0,1-.359-.282l-.3-1.411a.335.335,0,0,1,.048-.265.36.36,0,0,1,.23-.152.366.366,0,0,1,.433.275l.308,1.376a.342.342,0,0,1-.048.268.367.367,0,0,1-.231.156Zm61.336-.155a.377.377,0,0,1-.176-.042l-1.276-.706a.347.347,0,0,1-.02-.633.378.378,0,0,1,.387.027l1.268.706a.346.346,0,0,1,.139.48.354.354,0,0,1-.323.184Zm-2.536-1.411a.408.408,0,0,1-.183-.042l-1.276-.706a.348.348,0,0,1-.171-.213.335.335,0,0,1,.04-.267.374.374,0,0,1,.5-.134l1.276.706a.346.346,0,0,1,.132.48.369.369,0,0,1-.345.2Zm-59.379-1.207a.364.364,0,0,1-.359-.275l-.308-1.411a.361.361,0,0,1,.29-.427.375.375,0,0,1,.443.279l.308,1.411a.353.353,0,0,1-.286.416Zm56.865-.2a.339.339,0,0,1-.183-.049l-1.276-.706a.346.346,0,0,1-.132-.48.374.374,0,0,1,.5-.134l1.276.706a.347.347,0,0,1,.167.4.364.364,0,0,1-.35.261Zm-2.544-1.411a.34.34,0,0,1-.183-.049l-1.268-.706a.353.353,0,0,1-.139-.487.358.358,0,0,1,.221-.165.371.371,0,0,1,.277.038l1.276.706a.352.352,0,0,1,.132.487.369.369,0,0,1-.374.2Zm-54.936-1.157a.364.364,0,0,1-.359-.275l-.3-1.411a.361.361,0,0,1,.29-.427.375.375,0,0,1,.444.279l.308,1.411a.335.335,0,0,1-.048.265.359.359,0,0,1-.23.152Zm52.393-.247a.355.355,0,0,1-.183-.049l-1.268-.706a.342.342,0,0,1-.136-.476.37.37,0,0,1,.495-.131l1.275.706a.352.352,0,0,1,.132.487.37.37,0,0,1-.374.2Zm-2.544-1.411a.445.445,0,0,1-.183-.049l-1.268-.706a.347.347,0,0,1-.02-.633.378.378,0,0,1,.387.027l1.268.706a.353.353,0,0,1,.139.48.376.376,0,0,1-.381.212ZM399.031,427.5a.363.363,0,0,1-.359-.282l-.308-1.411a.361.361,0,0,1,.29-.427.374.374,0,0,1,.443.279l.308,1.411a.354.354,0,0,1-.286.416Zm47.914-.3a.433.433,0,0,1-.183-.042l-1.268-.706a.353.353,0,0,1-.139-.48.39.39,0,0,1,.506-.134l1.268.706a.353.353,0,0,1,.139.48.376.376,0,0,1-.381.212Zm-2.544-1.411a.318.318,0,0,1-.176-.049l-1.275-.706a.347.347,0,0,1-.136-.483.376.376,0,0,1,.5-.13l1.268.706a.349.349,0,0,1,.176.211.334.334,0,0,1-.036.268.368.368,0,0,1-.381.226Zm-46.008-1.009a.356.356,0,0,1-.352-.282l-.308-1.376a.342.342,0,0,1,.048-.268.367.367,0,0,1,.231-.156.382.382,0,0,1,.44.275l.3,1.411a.342.342,0,0,1-.048.268.367.367,0,0,1-.231.156Zm43.449-.353a.34.34,0,0,1-.183-.049l-1.276-.706a.353.353,0,0,1-.132-.487.358.358,0,0,1,.221-.165.371.371,0,0,1,.277.038l1.268.706a.353.353,0,0,1,.139.487.37.37,0,0,1-.352.176Zm-2.544-1.411a.415.415,0,0,1-.183-.049l-1.276-.706a.345.345,0,0,1-.1-.463.374.374,0,0,1,.468-.144l1.276.706a.353.353,0,0,1,.132.487.371.371,0,0,1-.352.176Zm-41.551-.988a.371.371,0,0,1-.359-.282l-.308-1.411a.36.36,0,0,1,.286-.416.367.367,0,0,1,.433.268l.308,1.411a.335.335,0,0,1-.048.265.36.36,0,0,1-.23.152Zm38.97-.409a.407.407,0,0,1-.183-.042l-1.276-.706a.347.347,0,0,1-.136-.483.376.376,0,0,1,.5-.131l1.276.706a.347.347,0,0,1,.167.4A.364.364,0,0,1,436.718,421.615Zm-2.544-1.411a.407.407,0,0,1-.183-.042l-1.268-.706a.346.346,0,0,1-.139-.48.382.382,0,0,1,.5-.134l1.275.706a.347.347,0,0,1,.167.4.364.364,0,0,1-.35.261Zm-37.035-.953a.364.364,0,0,1-.359-.275l-.308-1.411a.361.361,0,0,1,.29-.427.374.374,0,0,1,.443.279l.308,1.411a.36.36,0,0,1-.286.416Zm34.454-.452a.355.355,0,0,1-.183-.049l-1.268-.706a.347.347,0,0,1-.136-.483.376.376,0,0,1,.5-.131l1.268.706a.347.347,0,0,1,.167.4.364.364,0,0,1-.35.261Zm-2.544-1.411a.355.355,0,0,1-.183-.049l-1.268-.706a.359.359,0,0,1-.139-.487.382.382,0,0,1,.506-.127l1.268.706a.359.359,0,0,1,.139.487.382.382,0,0,1-.286.184Zm-32.563-.9a.364.364,0,0,1-.359-.275l-.3-1.411a.361.361,0,0,1,.29-.427.375.375,0,0,1,.444.279l.308,1.411a.335.335,0,0,1-.048.265.36.36,0,0,1-.23.152Zm30.019-.5a.445.445,0,0,1-.183-.049l-1.268-.706a.344.344,0,0,1-.1-.463.374.374,0,0,1,.468-.144l1.268.706a.353.353,0,0,1,.139.487.368.368,0,0,1-.286.177Zm-2.544-1.411a.377.377,0,0,1-.176-.042l-1.276-.706a.348.348,0,0,1-.171-.213.335.335,0,0,1,.04-.267.374.374,0,0,1,.5-.134l1.268.706a.347.347,0,0,1,.167.4A.364.364,0,0,1,423.963,414.572Zm-28.084-.847a.364.364,0,0,1-.359-.282l-.308-1.411a.361.361,0,0,1,.29-.427.375.375,0,0,1,.444.279l.308,1.376a.36.36,0,0,1-.286.423Zm25.548-.557a.408.408,0,0,1-.183-.042l-1.276-.706a.347.347,0,0,1-.136-.483.376.376,0,0,1,.5-.131l1.276.706a.346.346,0,0,1,.132.48.367.367,0,0,1-.279.184Zm-2.544-1.411a.34.34,0,0,1-.183-.049L417.424,411a.352.352,0,0,1-.132-.487.358.358,0,0,1,.221-.165.371.371,0,0,1,.277.038l1.276.706a.347.347,0,0,1,.167.4.364.364,0,0,1-.35.261Zm-23.62-.8a.356.356,0,0,1-.352-.282L394.6,409.3a.342.342,0,0,1,.048-.268.366.366,0,0,1,.231-.156.381.381,0,0,1,.44.275l.3,1.411a.342.342,0,0,1-.048.268.366.366,0,0,1-.231.156Zm21.076-.607a.339.339,0,0,1-.183-.049l-1.268-.706a.353.353,0,0,1-.139-.487.357.357,0,0,1,.221-.165.371.371,0,0,1,.277.038l1.276.706a.352.352,0,0,1,.132.487.366.366,0,0,1-.279.191Zm-2.544-1.411a.447.447,0,0,1-.183-.049l-1.268-.706a.348.348,0,0,1-.176-.211.334.334,0,0,1,.036-.268.365.365,0,0,1,.225-.166.379.379,0,0,1,.281.039l1.268.706a.346.346,0,0,1,.132.48.359.359,0,0,1-.279.2Zm-19.067-.734a.364.364,0,0,1-.359-.275l-.308-1.411a.409.409,0,0,1,0-.162.358.358,0,0,1-.081-.226,2.1,2.1,0,0,1,.85-1.411.377.377,0,0,1,.513,0,.344.344,0,0,1,0,.5,1.5,1.5,0,0,0-.6.924.339.339,0,0,1,0,.085.293.293,0,0,1,.073.141l.308,1.411a.335.335,0,0,1-.051.267.36.36,0,0,1-.235.149Zm16.6-.656a.431.431,0,0,1-.183-.042l-1.268-.706a.353.353,0,0,1-.139-.48.389.389,0,0,1,.506-.134l1.268.706a.353.353,0,0,1,.139.48.386.386,0,0,1-.359.176Zm-2.544-1.411a.43.43,0,0,1-.183-.042l-1.268-.706a.347.347,0,0,1-.136-.483.376.376,0,0,1,.5-.131l1.268.706a.353.353,0,0,1,.139.48.378.378,0,0,1-.359.183Zm-2.544-1.411a.4.4,0,0,1-.176-.042,7.485,7.485,0,0,0-1.283-.536.357.357,0,0,1-.227-.452.37.37,0,0,1,.462-.219,8.134,8.134,0,0,1,1.408.586.346.346,0,0,1,.139.48.362.362,0,0,1-.359.2Zm-9.933-.176a.376.376,0,0,1-.33-.191.341.341,0,0,1-.018-.27.357.357,0,0,1,.186-.2,8.765,8.765,0,0,1,1.422-.529.38.38,0,0,1,.283.026.35.35,0,0,1-.071.651,8.786,8.786,0,0,0-1.312.48.317.317,0,0,1-.2.049Zm7.177-.741h-.073a12.966,12.966,0,0,0-1.408-.176.364.364,0,0,1-.25-.119.337.337,0,0,1-.087-.255.348.348,0,0,1,.123-.243.376.376,0,0,1,.266-.088,12.919,12.919,0,0,1,1.466.191.354.354,0,0,1,.293.409.37.37,0,0,1-.367.3Zm-4.4-.071a.351.351,0,0,1-.059-.7,13.179,13.179,0,0,1,1.5-.141.353.353,0,1,1,0,.706,13.3,13.3,0,0,0-1.422.134Z" transform="translate(-393.98 -402.9)" fill="#fff"/>
      </g>
      <g id="Group_8856" data-name="Group 8856" transform="translate(114.553 403.798)">
        <path id="Path_30792" data-name="Path 30792" d="M485.483,492.826a.379.379,0,0,1-.176-.042l-.447-.247h0l-1.268-.706a.36.36,0,0,1-.139-.487.382.382,0,0,1,.506-.127l.44.247h0l1.268.706a.347.347,0,0,1,.167.4A.364.364,0,0,1,485.483,492.826Zm-2.536-1.411a.339.339,0,0,1-.183-.049l-1.276-.706h0l-.455-.254a.347.347,0,0,1-.02-.633.378.378,0,0,1,.387.027l1.268.706h0l.462.254a.347.347,0,0,1,.167.4A.364.364,0,0,1,482.947,491.415ZM480.4,490a.342.342,0,0,1-.176,0l-1.276-.706h0l-.454-.254a.348.348,0,0,1-.172-.213.334.334,0,0,1,.04-.267.374.374,0,0,1,.5-.134l1.268.706h0l.455.247a.352.352,0,0,1,.132.487A.373.373,0,0,1,480.4,490Zm-2.544-1.411a.416.416,0,0,1-.183-.049l-1.268-.706h0l-.454-.254a.347.347,0,0,1-.136-.483.375.375,0,0,1,.5-.131l1.268.706h0l.454.247a.352.352,0,0,1,.132.487A.369.369,0,0,1,477.859,488.592Zm-2.544-1.411a.408.408,0,0,1-.183-.042l-1.268-.706h0l-.454-.247a.352.352,0,0,1-.132-.487.358.358,0,0,1,.221-.165.371.371,0,0,1,.277.038l1.268.706h0l.454.254a.347.347,0,0,1,.167.4.364.364,0,0,1-.35.261Zm-2.544-1.411a.431.431,0,0,1-.183-.042l-1.268-.706h0l-.462-.254a.344.344,0,0,1-.1-.463.374.374,0,0,1,.468-.144l1.276.706h0l.455.254a.347.347,0,0,1,.167.4.364.364,0,0,1-.35.261Zm-2.544-1.411a.355.355,0,0,1-.183-.049l-1.268-.706h0l-.454-.254a.342.342,0,0,1-.136-.476.37.37,0,0,1,.495-.131l1.276.706h0l.454.254a.346.346,0,0,1,.139.48.374.374,0,0,1-.323.219Zm-2.544-1.411a.355.355,0,0,1-.183-.049l-1.73-.96a.346.346,0,0,1-.139-.48.382.382,0,0,1,.5-.134l.454.254h0l.806.445h0l.454.247a.36.36,0,0,1,.139.487.371.371,0,0,1-.3.24Zm-2.544-1.411a.385.385,0,0,1-.176-.049l-.447-.247h0l-1.268-.706a.347.347,0,0,1-.136-.483.376.376,0,0,1,.5-.131l.44.247h0l1.268.706a.346.346,0,0,1,.139.48.357.357,0,0,1-.322.24Zm-2.536-1.411a.408.408,0,0,1-.183-.042l-.454-.254h0l-.8-.409h0l-.454-.247a.359.359,0,0,1-.139-.487.382.382,0,0,1,.506-.127l1.737.96a.346.346,0,0,1,.132.48.369.369,0,0,1-.315.183Zm-2.544-1.411a.408.408,0,0,1-.183-.042l-1.276-.706h0l-.455-.247a.353.353,0,0,1-.132-.487.357.357,0,0,1,.221-.165.371.371,0,0,1,.277.038l1.268.706h0l.455.254a.348.348,0,0,1,.167.4.364.364,0,0,1-.35.261Zm-2.544-1.411a.339.339,0,0,1-.183-.049l-1.3-.656h0l-.455-.254a.345.345,0,0,1-.1-.463.374.374,0,0,1,.468-.144l1.268.706h0l.454.254a.347.347,0,0,1,.167.4.364.364,0,0,1-.35.261Zm-2.544-1.411a.355.355,0,0,1-.183-.049l-1.268-.706h0l-.454-.254a.348.348,0,0,1-.171-.213.335.335,0,0,1,.039-.267.382.382,0,0,1,.5-.134l1.276.706h0l.454.247a.352.352,0,0,1,.132.487.363.363,0,0,1-.323.261Zm-2.544-1.411a.445.445,0,0,1-.183-.049l-1.268-.706h0l-.462-.247a.346.346,0,0,1-.132-.48.374.374,0,0,1,.5-.134l1.276.706h0l.454.247a.353.353,0,0,1,.139.48.37.37,0,0,1-.322.268Zm-2.544-1.411a.432.432,0,0,1-.183-.042l-1.268-.706h0l-.454-.247a.353.353,0,0,1-.139-.487.358.358,0,0,1,.221-.165.371.371,0,0,1,.277.038l1.276.706h0l.455.254a.353.353,0,0,1,.139.48.371.371,0,0,1-.323.254Zm-2.544-1.411a.317.317,0,0,1-.176-.049l-1.276-.706h0l-.455-.254a.347.347,0,0,1-.02-.633.379.379,0,0,1,.387.027l1.268.706h0l.455.254a.348.348,0,0,1,.176.211.335.335,0,0,1-.036.268.363.363,0,0,1-.323.268Zm-2.536-1.411a.339.339,0,0,1-.183-.049l-.447-.247h0l-1.268-.706a.347.347,0,0,1-.02-.633.379.379,0,0,1,.387.027l.447.247h0l1.268.706a.348.348,0,0,1,.168.392.364.364,0,0,1-.344.265Zm-2.544-1.411a.416.416,0,0,1-.183-.049l-.447-.247h0l-1.268-.706a.347.347,0,0,1-.136-.483.376.376,0,0,1,.5-.131l.447.254h0l1.276.706a.352.352,0,0,1,.132.487.362.362,0,0,1-.322.275Zm-2.544-1.411a.416.416,0,0,1-.183-.049l-1.276-.706h0l-.454-.247a.347.347,0,0,1-.136-.483.376.376,0,0,1,.5-.13l1.268.706h0l.454.247a.346.346,0,0,1,.132.48.353.353,0,0,1-.308.3Zm-2.544-1.411a.409.409,0,0,1-.183-.042l-1.737-.96a.352.352,0,0,1-.132-.487.358.358,0,0,1,.221-.165.371.371,0,0,1,.277.038l.462.254h0l.806.452h0l.462.254a.347.347,0,0,1,.167.4.364.364,0,0,1-.35.261ZM434.63,464.6a.355.355,0,0,1-.183-.049l-1.268-.706h0l-.462-.254a.344.344,0,0,1-.1-.463.374.374,0,0,1,.468-.144l1.276.706h0l.454.254a.347.347,0,0,1,.167.4.364.364,0,0,1-.35.261Zm-2.544-1.411a.355.355,0,0,1-.183-.049l-1.268-.706h0l-.454-.254a.346.346,0,0,1-.139-.48.382.382,0,0,1,.5-.134l1.276.706h0l.455.254a.346.346,0,0,1,.139.48.367.367,0,0,1-.323.311Zm-2.544-1.411a.354.354,0,0,1-.183-.049l-1.268-.706h0l-.455-.254a.345.345,0,0,1-.122-.471.374.374,0,0,1,.481-.143l1.276.706h0l.455.247a.353.353,0,0,1,.139.487.359.359,0,0,1-.323.318ZM427,460.365a.378.378,0,0,1-.176-.042l-1.276-.706h0l-.455-.247a.359.359,0,0,1-.139-.487.382.382,0,0,1,.506-.127l1.268.706h0l.454.254a.347.347,0,0,1,.167.4.364.364,0,0,1-.35.261Zm-2.536-1.411a.407.407,0,0,1-.183-.042l-1.737-.96a.36.36,0,0,1-.139-.487.382.382,0,0,1,.506-.127l.447.247h0l.806.445h0l.462.254a.346.346,0,0,1,.132.48.357.357,0,0,1-.293.332Zm-2.544-1.411a.339.339,0,0,1-.183-.049l-.447-.247h0l-1.268-.706a.347.347,0,0,1-.02-.633.379.379,0,0,1,.387.027l.447.247h0l1.276.706a.347.347,0,0,1,.167.4.364.364,0,0,1-.35.261Zm-2.544-1.411a.34.34,0,0,1-.183-.049l-.454-.247h0l-.806-.445h0l-.454-.254a.348.348,0,0,1-.171-.213.334.334,0,0,1,.039-.267.374.374,0,0,1,.5-.134l1.737.96a.352.352,0,0,1,.132.487.36.36,0,0,1-.33.318Zm-2.544-1.411a.354.354,0,0,1-.183-.049l-1.268-.706h0l-.454-.254a.347.347,0,0,1-.136-.483.376.376,0,0,1,.5-.131l1.275.706h0l.455.247a.352.352,0,0,1,.132.487.358.358,0,0,1-.323.346Zm-2.544-1.411a.43.43,0,0,1-.183-.042l-1.268-.706h0l-.462-.247a.352.352,0,0,1-.132-.487.358.358,0,0,1,.221-.165.371.371,0,0,1,.277.038l1.276.706h0l.454.254a.353.353,0,0,1,.139.48.373.373,0,0,1-.323.332Z" transform="translate(-412.193 -451.65)" fill="#fff"/>
      </g>
      <path id="Path_30793" data-name="Path 30793" d="M394.9,410.27c-1.576-.882-2.866-2.477-3-3.62v70.215c-.147,1.348,1.144,3.19,3,4.234h0l72.574,40.485a3.274,3.274,0,0,0,3.166,0,3.029,3.029,0,0,0,1.584-2.639V457.4a7.674,7.674,0,0,0-4.039-6.7Z" transform="translate(-292.222 -34.607)" fill="#ffe163"/>
      <path id="Path_30794" data-name="Path 30794" d="M470.289,449.939l-73.307-40.421a4.381,4.381,0,0,1-2.522-3.147v4.587c.117.085.235.169.359.247l12.646,64.316,66.878,37.288V456.643A7.675,7.675,0,0,0,470.289,449.939Z" transform="translate(-292.906 -34.525)" fill="url(#radial-gradient-3)" style="mix-blend-mode: multiply;isolation: isolate"/>
      <path id="Path_30796" data-name="Path 30796" d="M394.346,411.177a4.368,4.368,0,0,1-2.522-3.147v70.215c-.147,1.341.667,2.717,2.522,3.747h0l72.574,40.485a3.266,3.266,0,0,0,3.167.008,3.022,3.022,0,0,0,1.583-2.64V458.3a7.673,7.673,0,0,0-4.032-6.7Z" transform="translate(-292.198 -35.013)" fill="url(#linear-gradient-4)"/>
      <path id="Path_30798" data-name="Path 30798" d="M468.305,523.324a2.162,2.162,0,0,1-1.041-.275l-71.4-39.814-2.786-1.729c-1.32-.706-2.045-1.736-1.935-2.717v-.12a1.4,1.4,0,0,1,2.778.12,2.539,2.539,0,0,0,.594.43l2.786,1.729,70.3,39.2v-60.42a4,4,0,0,0-2.1-3.486l-73.784-40.831a1.318,1.318,0,0,1-.05-2.369,1.439,1.439,0,0,1,1.436.048l73.8,40.8a6.67,6.67,0,0,1,3.5,5.808v61.578a1.913,1.913,0,0,1-.638,1.447,2.174,2.174,0,0,1-1.459.6Z" transform="translate(-291.971 -36.439)" opacity="0.02"/>
      <path id="Path_30799" data-name="Path 30799" d="M391.589,413.861a.812.812,0,0,1,.279-.282.945.945,0,0,1,.169-.085,1.8,1.8,0,0,1,1.43.141l73.454,40.654a6.418,6.418,0,0,1,3.372,5.6v61.394a2.486,2.486,0,0,1-.11.741,1.65,1.65,0,0,1-.447.706,1.954,1.954,0,0,1-1.29.5,1.828,1.828,0,0,1-.916-.24l-70.866-39.518-2.141-1.3-.645-.4a5.262,5.262,0,0,1-1.869-1.672,1.983,1.983,0,0,1-.3-.833v-.113a1.137,1.137,0,0,1,.455-1.1c.037,0,.066-.056.1-.064a.922.922,0,0,1,.55-.134,1.111,1.111,0,0,1,1.026,1.087,1.711,1.711,0,0,0,.447.353c0,.049,2.2,1.454,2.368,1.574l2.742,1.567,67.971,37.944.528-1.411a.417.417,0,0,1,.044-.078c.007,0,.037-.169.059-.183a1.44,1.44,0,0,0,0-.2V460.57a5.206,5.206,0,0,0-.6-2.421,3.959,3.959,0,0,0-1.056-1.27,19.965,19.965,0,0,0-2.866-1.927L392.366,415.59c-.367-.2-.9-.776-.872-1.157A.806.806,0,0,1,391.589,413.861Z" transform="translate(-292.11 -36.596)" opacity="0.02"/>
      <path id="Path_30800" data-name="Path 30800" d="M391.9,414.086a.616.616,0,0,1,.469-.289c.22-.134,1.151.2,1.386.332L466.885,454.6a6.186,6.186,0,0,1,3.24,5.391v61.2a4.167,4.167,0,0,1-.066.706,1.4,1.4,0,0,1-.411.706,1.668,1.668,0,0,1-1.114.438,1.6,1.6,0,0,1-.792-.212l-70.324-39.215-2.148-1.235-.638-.4a8.077,8.077,0,0,1-1.95-1.553,2.058,2.058,0,0,1-.462-.706,1.094,1.094,0,0,0-.051-.113,1.046,1.046,0,0,1,.11-1.108.543.543,0,0,1,.066-.092.65.65,0,0,1,.5-.2.874.874,0,0,1,.814.861,1.009,1.009,0,0,0,.286.275,14.274,14.274,0,0,0,1.95,1.411l2.749,1.616,68.4,38.107,1.07-.557h.073c.015,0,.088-.12.117-.148a.509.509,0,0,0,.044-.212V461.282a8.047,8.047,0,0,0-.4-2.47,4.232,4.232,0,0,0-.806-1.411,10.053,10.053,0,0,0-2.676-2.159l-71.555-39.6c-.242-.134-1.063-.769-1.041-1.023a.526.526,0,0,1,.022-.536Z" transform="translate(-292.2 -36.702)" opacity="0.02"/>
      <path id="Path_30801" data-name="Path 30801" d="M392.209,414.3a.476.476,0,0,1,.315-.219.533.533,0,0,1,.183,0,5.476,5.476,0,0,1,1.334.529l72.809,40.287a5.962,5.962,0,0,1,3.116,5.18V521.1a4.162,4.162,0,0,1-.037.706,1.149,1.149,0,0,1-.367.706,1.407,1.407,0,0,1-.938.367,1.3,1.3,0,0,1-.66-.176l-69.8-38.82-2.141-1.235-.638-.388a17.626,17.626,0,0,1-2.038-1.411,3.2,3.2,0,0,1-.623-.642.905.905,0,0,0-.081-.106,1.179,1.179,0,0,1-.235-1.129.648.648,0,0,1,.044-.106.471.471,0,0,1,.447-.268.63.63,0,0,1,.586.635s.059.162.139.2a5.529,5.529,0,0,0,1.532,1.249l2.749,1.658,68.828,38.375,1.6.318h.117c.029,0,.125-.085.176-.127a.351.351,0,0,0,.066-.212V462.007a15.921,15.921,0,0,0-.205-2.533,4.389,4.389,0,0,0-.557-1.56,6.614,6.614,0,0,0-2.485-2.392l-71.944-39.807c-.125-.071-1.232-.776-1.217-.9a.412.412,0,0,1-.081-.515Z" transform="translate(-292.29 -36.791)" opacity="0.02"/>
      <path id="Path_30802" data-name="Path 30802" d="M468.687,522.756a1.056,1.056,0,0,1-.535-.148l-71.4-39.807L394,481.12c-.975-.543-1.539-1.228-1.466-1.792V479.2a.383.383,0,0,1,.4-.234.375.375,0,0,1,.335.311v.127c0,.184.293.628,1.114,1.087l2.742,1.708L468.512,522a.28.28,0,0,0,.154.042.374.374,0,0,0,.235-.092.263.263,0,0,0,.088-.212v-61.6a4.958,4.958,0,0,0-2.6-4.325l-73.755-40.831a.364.364,0,0,1-.232-.435.381.381,0,0,1,.422-.271.445.445,0,0,1,.191.049l73.777,40.831a5.71,5.71,0,0,1,2.984,4.94v61.578a.97.97,0,0,1-.323.741,1.132,1.132,0,0,1-.762.339Z" transform="translate(-292.353 -36.852)" opacity="0.02"/>
      <g id="Group_8857" data-name="Group 8857" transform="translate(100.095 377.45)">
        <path id="Path_30803" data-name="Path 30803" d="M468.71,522.767a1.033,1.033,0,0,1-.528-.148l-.432-.24a.347.347,0,0,1-.021-.633.378.378,0,0,1,.387.027l.433.24a.332.332,0,0,0,.411-.056.392.392,0,0,1,.52,0,.323.323,0,0,1,.037.473l-.066.063A1.109,1.109,0,0,1,468.71,522.767Zm-2.045-1.044a.356.356,0,0,1-.183-.049l-1.268-.706a.347.347,0,0,1-.136-.483.376.376,0,0,1,.5-.13l1.268.706a.347.347,0,0,1,.167.395.364.364,0,0,1-.35.261Zm2.749-.565a.36.36,0,0,1-.367-.353v-1.411a.367.367,0,0,1,.367-.353.36.36,0,0,1,.367.353v1.411a.36.36,0,0,1-.367.346Zm-5.285-.854a.408.408,0,0,1-.183-.042l-1.268-.706a.344.344,0,0,1-.1-.463.374.374,0,0,1,.468-.144l1.268.706a.346.346,0,0,1,.132.48.356.356,0,0,1-.315.162Zm-2.536-1.411a.34.34,0,0,1-.183-.049l-1.268-.706a.347.347,0,0,1-.136-.483.376.376,0,0,1,.5-.131l1.268.706a.347.347,0,0,1,.167.4.364.364,0,0,1-.35.261Zm7.822-.558a.36.36,0,0,1-.366-.353v-1.411a.367.367,0,0,1,.366-.353.36.36,0,0,1,.367.353v1.411a.36.36,0,0,1-.367.346Zm-10.358-.861a.409.409,0,0,1-.183-.042l-1.268-.706a.347.347,0,0,1-.02-.633.378.378,0,0,1,.387.027l1.268.706a.352.352,0,0,1,.132.487.364.364,0,0,1-.315.155Zm-2.536-1.411a.325.325,0,0,1-.183-.049l-1.276-.706a.349.349,0,0,1-.132-.487.378.378,0,0,1,.506-.127l1.268.706a.347.347,0,0,1,.167.4.364.364,0,0,1-.35.261Zm12.895-.55a.36.36,0,0,1-.366-.353v-1.411a.367.367,0,0,1,.366-.353.36.36,0,0,1,.367.353v1.411a.36.36,0,0,1-.367.346Zm-15.439-.868a.431.431,0,0,1-.183-.042l-1.268-.706a.348.348,0,0,1-.171-.213.334.334,0,0,1,.039-.267.382.382,0,0,1,.506-.127l1.268.706a.352.352,0,0,1,.132.487.371.371,0,0,1-.323.155Zm-2.536-1.411a.355.355,0,0,1-.183-.049l-1.268-.706a.347.347,0,0,1-.136-.483.376.376,0,0,1,.5-.13l1.268.706a.353.353,0,0,1,.139.48.377.377,0,0,1-.323.176Zm17.975-.544a.36.36,0,0,1-.366-.353v-1.411a.367.367,0,0,1,.366-.353.36.36,0,0,1,.367.353v1.411a.36.36,0,0,1-.367.346Zm-20.526-.875a.43.43,0,0,1-.183-.042l-1.268-.706a.344.344,0,0,1-.1-.463.374.374,0,0,1,.468-.144l1.268.706a.352.352,0,0,1,.132.487.363.363,0,0,1-.3.155Zm-2.536-1.411a.355.355,0,0,1-.183-.049l-1.268-.706a.347.347,0,0,1-.136-.483.376.376,0,0,1,.5-.131l1.268.706a.347.347,0,0,1,.167.4.364.364,0,0,1-.35.261Zm23.048-.536a.36.36,0,0,1-.366-.353V508.1a.367.367,0,0,1,.366-.353.36.36,0,0,1,.367.353v1.411a.36.36,0,0,1-.352.346Zm-25.584-.882a.409.409,0,0,1-.183-.042l-1.268-.706a.345.345,0,0,1-.1-.463.374.374,0,0,1,.468-.144l1.268.706a.353.353,0,0,1,.132.487.363.363,0,0,1-.3.155Zm-2.536-1.411a.338.338,0,0,1-.183-.049l-1.268-.706a.347.347,0,0,1-.136-.483.376.376,0,0,1,.5-.131l1.268.706a.347.347,0,0,1,.167.4.364.364,0,0,1-.35.261Zm28.121-.529a.36.36,0,0,1-.366-.353V505.28a.367.367,0,0,1,.366-.353.36.36,0,0,1,.367.353v1.411a.36.36,0,0,1-.352.346Zm-30.657-.882a.416.416,0,0,1-.183-.049l-1.268-.706a.347.347,0,0,1-.02-.633.378.378,0,0,1,.387.027l1.268.706a.352.352,0,0,1,.132.487.37.37,0,0,1-.3.162Zm-2.536-1.411a.324.324,0,0,1-.183-.049L434.746,504a.346.346,0,0,1-.132-.48.382.382,0,0,1,.506-.134l1.268.706a.347.347,0,0,1,.167.4.364.364,0,0,1-.35.261Zm33.194-.522a.36.36,0,0,1-.366-.353v-1.411a.367.367,0,0,1,.366-.353.36.36,0,0,1,.367.353v1.411a.36.36,0,0,1-.352.339Zm-35.737-.889a.447.447,0,0,1-.183-.049l-1.268-.706a.353.353,0,0,1-.132-.487.374.374,0,0,1,.5-.127l1.276.706a.348.348,0,0,1,.18.4.365.365,0,0,1-.371.258Zm-2.536-1.411a.355.355,0,0,1-.183-.049l-1.268-.706a.348.348,0,0,1-.171-.213.335.335,0,0,1,.04-.267.382.382,0,0,1,.5-.134l1.268.706a.353.353,0,0,1,.139.48.378.378,0,0,1-.308.162Zm38.274-.515a.36.36,0,0,1-.366-.353v-1.411a.367.367,0,0,1,.366-.353.36.36,0,0,1,.367.353v1.411a.36.36,0,0,1-.352.332Zm-40.81-.9a.446.446,0,0,1-.183-.049l-1.268-.706a.352.352,0,0,1-.132-.487.357.357,0,0,1,.221-.165.371.371,0,0,1,.277.038l1.268.706a.352.352,0,0,1,.132.487.37.37,0,0,1-.3.155Zm-2.536-1.411a.354.354,0,0,1-.183-.049l-1.268-.706a.347.347,0,0,1-.021-.633.379.379,0,0,1,.387.027l1.268.706a.347.347,0,0,1,.167.4A.364.364,0,0,1,426.052,499.105ZM469.4,498.6a.36.36,0,0,1-.366-.353v-1.411a.367.367,0,0,1,.366-.353.36.36,0,0,1,.367.353v1.411a.361.361,0,0,1-.352.325Zm-45.883-.9a.414.414,0,0,1-.183-.049l-1.268-.706a.352.352,0,0,1-.132-.487.358.358,0,0,1,.221-.165.372.372,0,0,1,.277.038l1.268.706a.352.352,0,0,1,.132.487.371.371,0,0,1-.3.148Zm-2.536-1.411a.34.34,0,0,1-.183-.049l-1.268-.706a.347.347,0,0,1-.02-.633.379.379,0,0,1,.387.027l1.268.706a.347.347,0,0,1,.167.4A.364.364,0,0,1,420.979,496.283Zm48.42-.5a.36.36,0,0,1-.367-.353v-1.411a.367.367,0,0,1,.367-.353.36.36,0,0,1,.367.353v1.411a.361.361,0,0,1-.352.317Zm-50.956-.91a.414.414,0,0,1-.183-.049l-1.268-.706a.347.347,0,0,1-.136-.483.376.376,0,0,1,.5-.131l1.268.706a.353.353,0,0,1,.132.487.372.372,0,0,1-.3.141Zm-2.536-1.411a.325.325,0,0,1-.183-.049l-1.276-.706a.345.345,0,0,1-.128-.483.375.375,0,0,1,.5-.124l1.268.706a.347.347,0,0,1,.167.4A.365.365,0,0,1,415.906,493.46Zm53.514-.494a.36.36,0,0,1-.367-.353V491.2a.367.367,0,0,1,.367-.353.36.36,0,0,1,.367.353v1.411a.362.362,0,0,1-.374.311Zm-56.036-.96a.444.444,0,0,1-.183-.049l-1.268-.706a.353.353,0,0,1-.132-.487.374.374,0,0,1,.5-.127l1.268.706a.348.348,0,0,1,.18.4.365.365,0,0,1-.364.262Zm-2.536-1.411a.354.354,0,0,1-.183-.049l-1.268-.706a.347.347,0,0,1-.02-.633.379.379,0,0,1,.387.027l1.268.706a.353.353,0,0,1,.139.48.378.378,0,0,1-.33.169Zm58.573-.487a.36.36,0,0,1-.367-.353v-1.411a.367.367,0,0,1,.367-.353.36.36,0,0,1,.367.353v1.411a.361.361,0,0,1-.374.346Zm-61.109-.924a.355.355,0,0,1-.183-.049l-1.268-.706a.347.347,0,0,1-.136-.483.376.376,0,0,1,.5-.131l1.268.706a.353.353,0,0,1,.132.487.371.371,0,0,1-.323.169Zm-2.536-1.411a.339.339,0,0,1-.183-.049l-1.268-.706a.344.344,0,0,1-.1-.463.374.374,0,0,1,.468-.144l1.268.706a.347.347,0,0,1,.167.4A.364.364,0,0,1,405.775,487.772Zm63.645-.48a.36.36,0,0,1-.367-.353v-1.411a.367.367,0,0,1,.367-.353.36.36,0,0,1,.367.353v1.411a.361.361,0,0,1-.374.339Zm-66.182-.931a.34.34,0,0,1-.183-.049l-1.268-.706a.353.353,0,0,1-.132-.487.375.375,0,0,1,.5-.127l1.268.706a.352.352,0,0,1,.132.487.371.371,0,0,1-.323.162Zm-2.536-1.411a.339.339,0,0,1-.183-.049l-1.268-.706a.347.347,0,0,1-.02-.633.379.379,0,0,1,.387.026l1.268.706a.347.347,0,0,1,.167.4A.364.364,0,0,1,400.7,484.949Zm68.718-.473a.36.36,0,0,1-.367-.353v-1.411a.367.367,0,0,1,.367-.353.36.36,0,0,1,.367.353v1.411a.361.361,0,0,1-.374.332Zm-71.255-.939a.325.325,0,0,1-.183-.049l-1.283-.706a.347.347,0,0,1,.019-.623.379.379,0,0,1,.376.03l.073.042,1.18.656a.353.353,0,0,1,.132.487.372.372,0,0,1-.323.141Zm-2.5-1.475a.4.4,0,0,1-.2-.056l-1.232-.769a.346.346,0,0,1-.163-.221.335.335,0,0,1,.053-.266.375.375,0,0,1,.506-.106l1.232.769a.345.345,0,0,1,.11.487.379.379,0,0,1-.315.141Zm73.755-.409a.36.36,0,0,1-.367-.353V479.89a.367.367,0,0,1,.367-.353.36.36,0,0,1,.367.353V481.3a.361.361,0,0,1-.374.332Zm-76.159-1.228a.358.358,0,0,1-.271-.12,1.389,1.389,0,0,1-.433-.9s0-.085,0-.1v-.557a.36.36,0,0,1,.366-.353h0a.367.367,0,0,1,.259.1.34.34,0,0,1,.108.247v.649a.733.733,0,0,0,.249.445.337.337,0,0,1-.037.494A.344.344,0,0,1,393.262,480.426Zm76.152-1.616a.36.36,0,0,1-.367-.353v-1.411a.367.367,0,0,1,.367-.353.36.36,0,0,1,.367.353v1.411A.36.36,0,0,1,469.413,478.81ZM392.939,477.7a.367.367,0,0,1-.367-.353v-1.411a.36.36,0,0,1,.367-.353h0a.36.36,0,0,1,.367.346v1.411a.346.346,0,0,1-.1.254A.373.373,0,0,1,392.939,477.7Zm76.474-1.708a.36.36,0,0,1-.367-.353v-1.411a.367.367,0,0,1,.367-.353.36.36,0,0,1,.367.353v1.411A.36.36,0,0,1,469.413,475.987Zm-76.474-1.115a.36.36,0,0,1-.367-.353v-1.411a.36.36,0,0,1,.367-.353h0a.367.367,0,0,1,.259.1.34.34,0,0,1,.108.247v1.411A.367.367,0,0,1,392.939,474.872Zm76.474-1.708a.36.36,0,0,1-.367-.353V471.4a.367.367,0,0,1,.367-.353.36.36,0,0,1,.367.353v1.411A.36.36,0,0,1,469.413,473.165Zm-76.482-1.115a.36.36,0,0,1-.367-.353v-1.411a.36.36,0,0,1,.367-.353h0a.36.36,0,0,1,.367.346v1.411a.346.346,0,0,1-.1.254A.374.374,0,0,1,392.932,472.05Zm76.482-1.708a.36.36,0,0,1-.367-.353v-1.411a.367.367,0,0,1,.367-.353.36.36,0,0,1,.367.353v1.411A.36.36,0,0,1,469.413,470.342Zm-76.489-1.115a.367.367,0,0,1-.367-.353v-1.411a.36.36,0,0,1,.366-.353h0a.367.367,0,0,1,.259.1.34.34,0,0,1,.108.247v1.411a.346.346,0,0,1-.1.254A.374.374,0,0,1,392.924,469.227Zm76.489-1.708a.36.36,0,0,1-.367-.353v-1.411a.367.367,0,0,1,.367-.353.36.36,0,0,1,.367.353v1.411A.36.36,0,0,1,469.413,467.519ZM392.924,466.4a.36.36,0,0,1-.366-.353V464.64a.36.36,0,0,1,.366-.353h0a.367.367,0,0,1,.259.1.339.339,0,0,1,.108.247v1.411A.367.367,0,0,1,392.924,466.4Zm76.489-1.708a.36.36,0,0,1-.367-.353v-1.411a.367.367,0,0,1,.367-.353.36.36,0,0,1,.367.353v1.411A.36.36,0,0,1,469.413,464.7Zm-76.5-1.115a.367.367,0,0,1-.367-.353v-1.411a.36.36,0,0,1,.367-.353h0a.36.36,0,0,1,.367.346v1.411a.346.346,0,0,1-.1.254A.374.374,0,0,1,392.917,463.581Zm76.5-1.708a.36.36,0,0,1-.367-.353v-1.369a.381.381,0,0,1,.366-.374.36.36,0,0,1,.256.092.333.333,0,0,1,.111.24v1.411A.36.36,0,0,1,469.413,461.874Zm-76.5-1.115a.36.36,0,0,1-.367-.353v-1.411a.36.36,0,0,1,.367-.353h0a.367.367,0,0,1,.259.1.339.339,0,0,1,.108.247V460.4A.367.367,0,0,1,392.917,460.759Zm76.291-1.687a.364.364,0,0,1-.352-.261,4.7,4.7,0,0,0-.535-1.207.352.352,0,0,1,.132-.487.371.371,0,0,1,.277-.038.357.357,0,0,1,.221.165,5.6,5.6,0,0,1,.616,1.411.352.352,0,0,1-.257.43Zm-76.3-1.136a.36.36,0,0,1-.366-.353v-1.411a.36.36,0,0,1,.366-.353h0a.36.36,0,0,1,.367.346v1.411a.346.346,0,0,1-.1.254A.373.373,0,0,1,392.91,457.936Zm74.825-1.27a.352.352,0,0,1-.257-.1,5.118,5.118,0,0,0-1.041-.755l.125-.339.183-.3h.059a5.893,5.893,0,0,1,1.188.868.337.337,0,0,1,0,.494A.378.378,0,0,1,467.735,456.666Zm-2.441-1.545a.407.407,0,0,1-.183-.042l-1.268-.706a.346.346,0,0,1-.139-.48.382.382,0,0,1,.5-.134l1.276.706a.347.347,0,0,1,.167.4A.364.364,0,0,1,465.293,455.12Zm-72.391,0a.367.367,0,0,1-.367-.353v-1.411A.36.36,0,0,1,392.9,453h0a.367.367,0,0,1,.259.1.34.34,0,0,1,.108.247v1.411a.346.346,0,0,1-.1.254A.374.374,0,0,1,392.9,455.12Zm69.847-1.411a.356.356,0,0,1-.183-.049l-1.268-.706a.359.359,0,0,1-.139-.487.382.382,0,0,1,.506-.127l1.268.706a.347.347,0,0,1,.167.4.364.364,0,0,1-.35.261Zm-2.544-1.411a.446.446,0,0,1-.183-.049l-1.268-.706a.345.345,0,0,1-.1-.463.374.374,0,0,1,.468-.144l1.268.706a.359.359,0,0,1,.139.487.376.376,0,0,1-.323.183Zm-67.3,0a.36.36,0,0,1-.367-.353v-1.411a.36.36,0,0,1,.367-.353h0a.367.367,0,0,1,.259.1.339.339,0,0,1,.108.247v1.411a.367.367,0,0,1-.367.36Zm64.767-1.411a.409.409,0,0,1-.183-.042l-1.276-.706a.347.347,0,0,1-.136-.483.376.376,0,0,1,.5-.131l1.276.706a.347.347,0,0,1,.167.4A.364.364,0,0,1,457.669,450.886Zm-2.544-1.411a.339.339,0,0,1-.183-.049l-1.268-.706a.353.353,0,0,1-.139-.487.358.358,0,0,1,.221-.165.371.371,0,0,1,.277.038l1.276.706a.347.347,0,0,1,.167.4.364.364,0,0,1-.35.261Zm-62.231,0a.367.367,0,0,1-.367-.353v-1.411a.36.36,0,0,1,.367-.353h0a.36.36,0,0,1,.367.346v1.411a.346.346,0,0,1-.1.254A.374.374,0,0,1,392.9,449.475Zm59.687-1.376a.444.444,0,0,1-.183-.049l-1.268-.706a.347.347,0,0,1-.02-.634.379.379,0,0,1,.387.027l1.268.706a.346.346,0,0,1,.132.48.362.362,0,0,1-.315.169Zm-2.544-1.411a.431.431,0,0,1-.183-.042l-1.268-.706a.347.347,0,0,1-.136-.483.376.376,0,0,1,.5-.13l1.268.706a.353.353,0,0,1,.139.48.377.377,0,0,1-.323.169Zm-57.143-.035a.36.36,0,0,1-.367-.353v-1.411a.36.36,0,0,1,.367-.353h0a.366.366,0,0,1,.259.1.34.34,0,0,1,.108.247v1.411A.367.367,0,0,1,392.9,446.652Zm54.6-1.369a.317.317,0,0,1-.176-.049l-1.276-.706a.345.345,0,0,1-.1-.463.374.374,0,0,1,.468-.144l1.268.706a.353.353,0,0,1,.139.487.371.371,0,0,1-.323.162Zm-2.536-1.411a.416.416,0,0,1-.183-.049l-1.276-.706a.348.348,0,0,1-.171-.213.335.335,0,0,1,.039-.267.382.382,0,0,1,.5-.134l1.276.706a.346.346,0,0,1,.132.48.361.361,0,0,1-.315.184Zm-52.048-.049a.36.36,0,0,1-.367-.353v-1.411a.36.36,0,0,1,.367-.353h0a.36.36,0,0,1,.367.346v1.411a.346.346,0,0,1-.1.254A.373.373,0,0,1,392.91,443.822Zm49.526-1.362a.34.34,0,0,1-.183-.049l-1.268-.706a.346.346,0,0,1-.139-.48.357.357,0,0,1,.22-.169.371.371,0,0,1,.279.035l1.276.706a.347.347,0,0,1,.167.4.364.364,0,0,1-.35.261Zm-2.544-1.411a.354.354,0,0,1-.183-.049l-1.268-.706a.347.347,0,0,1-.021-.633.379.379,0,0,1,.387.027l1.268.706a.36.36,0,0,1,.139.487.385.385,0,0,1-.345.176Zm-46.99-.056a.367.367,0,0,1-.367-.353v-1.411a.36.36,0,0,1,.366-.353h0a.367.367,0,0,1,.259.1.34.34,0,0,1,.108.247v1.411a.346.346,0,0,1-.1.254A.374.374,0,0,1,392.9,440.993Zm44.446-1.355a.43.43,0,0,1-.183-.042l-1.268-.706a.349.349,0,0,1-.171-.213.334.334,0,0,1,.04-.267.374.374,0,0,1,.5-.134l1.268.706a.346.346,0,0,1,.139.48.377.377,0,0,1-.345.183Zm-2.536-1.411a.34.34,0,0,1-.183-.049l-1.276-.706a.352.352,0,0,1-.132-.487.357.357,0,0,1,.221-.165.371.371,0,0,1,.277.038l1.276.706a.347.347,0,0,1,.167.4.364.364,0,0,1-.35.261Zm-41.954-.049a.36.36,0,0,1-.367-.353v-1.411a.36.36,0,0,1,.367-.353h0a.367.367,0,0,1,.259.1.34.34,0,0,1,.108.247v1.411a.367.367,0,0,1-.367.36Zm39.366-1.341a.339.339,0,0,1-.183-.049l-1.268-.706a.342.342,0,0,1-.136-.476.37.37,0,0,1,.495-.131l1.276.706a.353.353,0,0,1,.132.487.369.369,0,0,1-.293.169Zm-2.544-1.411a.43.43,0,0,1-.183-.042l-1.268-.706a.353.353,0,0,1-.139-.48.39.39,0,0,1,.506-.134l1.268.706a.347.347,0,0,1,.167.4A.364.364,0,0,1,429.681,435.425Zm-36.83-.071a.367.367,0,0,1-.367-.353V433.59a.36.36,0,0,1,.366-.353h0a.36.36,0,0,1,.367.346v1.411a.346.346,0,0,1-.1.254A.374.374,0,0,1,392.851,435.354Zm34.286-1.334a.354.354,0,0,1-.183-.049l-1.268-.706a.352.352,0,0,1-.132-.487.357.357,0,0,1,.221-.165.371.371,0,0,1,.277.038l1.268.706a.346.346,0,0,1,.139.48.375.375,0,0,1-.3.183Zm-2.544-1.411a.384.384,0,0,1-.176-.049l-1.276-.706a.344.344,0,0,1-.1-.463.374.374,0,0,1,.468-.144l1.268.706a.353.353,0,0,1,.139.487.369.369,0,0,1-.3.176Zm-31.742-.085a.36.36,0,0,1-.366-.353V430.76a.36.36,0,0,1,.366-.353h0a.367.367,0,0,1,.259.1.34.34,0,0,1,.108.247v1.411a.367.367,0,0,1-.367.36Zm29.206-1.327a.408.408,0,0,1-.183-.042l-1.276-.706a.347.347,0,0,1-.136-.483.376.376,0,0,1,.5-.13l1.276.706a.347.347,0,0,1,.167.4A.364.364,0,0,1,422.057,431.2Zm-2.544-1.411a.34.34,0,0,1-.183-.049l-1.268-.706a.353.353,0,0,1-.139-.487.375.375,0,0,1,.5-.127l1.275.706a.347.347,0,0,1,.167.4.364.364,0,0,1-.35.261Zm-26.655-.078a.36.36,0,0,1-.367-.353v-1.411a.36.36,0,0,1,.367-.353h0a.36.36,0,0,1,.367.346v1.411a.346.346,0,0,1-.1.254A.374.374,0,0,1,392.858,429.709Zm24.125-1.32a.433.433,0,0,1-.183-.042l-1.268-.706a.353.353,0,0,1-.139-.48.39.39,0,0,1,.506-.134l1.268.706a.353.353,0,0,1,.139.48.384.384,0,0,1-.315.176Zm-2.544-1.411a.378.378,0,0,1-.176-.042l-1.276-.706a.347.347,0,0,1-.136-.483.376.376,0,0,1,.5-.131l1.268.706a.346.346,0,0,1,.139.48.376.376,0,0,1-.315.183Zm-21.582-.092a.367.367,0,0,1-.367-.353v-1.411a.36.36,0,0,1,.367-.353h0a.367.367,0,0,1,.259.1.339.339,0,0,1,.108.247v1.411a.346.346,0,0,1-.1.254A.374.374,0,0,1,392.858,426.886Zm19.06-1.305a.34.34,0,0,1-.183-.049l-1.276-.706a.347.347,0,0,1-.021-.633.379.379,0,0,1,.387.027l1.275.706a.352.352,0,0,1,.132.487A.37.37,0,0,1,411.918,425.581Zm-2.544-1.411a.41.41,0,0,1-.183-.042l-1.268-.706a.346.346,0,0,1-.139-.48.382.382,0,0,1,.5-.134l1.276.706a.347.347,0,0,1,.167.4.364.364,0,0,1-.35.261Zm-16.516-.106a.36.36,0,0,1-.367-.353V422.3a.36.36,0,0,1,.367-.353h0a.367.367,0,0,1,.259.1.34.34,0,0,1,.108.247V423.7a.367.367,0,0,1-.367.36Zm13.965-1.3a.355.355,0,0,1-.183-.049l-1.268-.706a.36.36,0,0,1-.139-.487.382.382,0,0,1,.506-.127l1.268.706a.347.347,0,0,1,.167.4.364.364,0,0,1-.35.261Zm-2.544-1.411a.355.355,0,0,1-.183-.049l-1.268-.706a.344.344,0,0,1-.1-.463.374.374,0,0,1,.468-.144l1.268.706a.36.36,0,0,1,.139.487.377.377,0,0,1-.323.176Zm-11.421-.113a.367.367,0,0,1-.367-.353v-1.411a.36.36,0,0,1,.367-.353h0a.36.36,0,0,1,.367.346v1.411a.346.346,0,0,1-.1.254A.374.374,0,0,1,392.858,421.241Zm8.885-1.291a.377.377,0,0,1-.176-.042l-1.276-.706a.347.347,0,0,1-.136-.483.375.375,0,0,1,.5-.13l1.268.706a.347.347,0,0,1,.167.4A.364.364,0,0,1,401.743,419.949Zm-2.536-1.411a.339.339,0,0,1-.183-.049l-1.276-.706a.352.352,0,0,1-.132-.487.357.357,0,0,1,.221-.165.371.371,0,0,1,.277.038l1.276.706a.347.347,0,0,1,.167.4.364.364,0,0,1-.35.261Zm-6.348-.127a.36.36,0,0,1-.367-.353v-1.411a.36.36,0,0,1,.367-.353h0a.367.367,0,0,1,.259.1.339.339,0,0,1,.108.247v1.411A.367.367,0,0,1,392.858,418.411Zm3.8-1.277a.414.414,0,0,1-.183-.049l-1.268-.706a.346.346,0,0,1-.139-.48.382.382,0,0,1,.5-.134l1.276.706a.346.346,0,0,1,.132.48.361.361,0,0,1-.323.191Zm-2.544-1.411a.432.432,0,0,1-.183-.042l-.733-.4a.377.377,0,0,1-.367.31h0a.36.36,0,0,1-.367-.353v-.565a.35.35,0,0,1,.181-.309.379.379,0,0,1,.369,0l1.268.706a.353.353,0,0,1,.139.48.384.384,0,0,1-.315.184Z" transform="translate(-392.47 -414.313)" fill="#fff"/>
      </g>
      <path id="Path_31104" data-name="Path 31104" d="M5.976.1c3.3.054,6.052,4.645,6.146,10.254S9.616,20.463,6.316,20.409.264,15.764.17,10.155,2.675.044,5.976.1Z" transform="translate(158.124 442.887) rotate(-30.31)" opacity="0.7" fill="url(#radial-gradient-4)" style="mix-blend-mode: multiply;isolation: isolate"/>
      <path id="Path_30804" data-name="Path 30804" d="M488.273,515.086a2.39,2.39,0,0,1-1.012,2.209l-.836.536c-.652.353-.235-.445-1.224-1a7.607,7.607,0,0,1-3.614-6c0-1.087-1.041-1.094-.4-1.461l.96-.55a2.664,2.664,0,0,1,2.522.268A7.6,7.6,0,0,1,488.273,515.086Z" transform="translate(-316 -64.621)" fill="url(#linear-gradient-5)"/>
      <path id="Path_31105" data-name="Path 31105" d="M2.912.048C4.52.074,5.86,2.31,5.906,5.042S4.685,9.966,3.077,9.94.129,7.677.083,4.946,1.3.021,2.912.048Z" transform="translate(162.627 446.229) rotate(-30.31)" fill="url(#linear-gradient-6)"/>
      <path id="Path_30806" data-name="Path 30806" d="M514.947,493.11v.706a3.4,3.4,0,0,1,1.356,1.729l-10.446,33.2a4.446,4.446,0,0,0,1.3,4.643h0a4.876,4.876,0,0,0,4.6,1.052,4.646,4.646,0,0,0,3.259-3.3l1.847-8.927-.352-18.447.674-7.2A3.387,3.387,0,0,0,514.947,493.11Z" transform="translate(-322.587 -60.054)" fill="#ffe163"/>
      <path id="Path_30807" data-name="Path 30807" d="M517.307,496.35l-10.49,33.343a4.439,4.439,0,0,0,1.3,4.643h0a4.884,4.884,0,0,0,4.6,1.045,4.653,4.653,0,0,0,3.261-3.29l1.847-8.927Z" transform="translate(-322.844 -61.008)" fill="url(#linear-gradient-7)"/>
      <g id="Group_8858" data-name="Group 8858" transform="translate(185.264 442.462)">
        <path id="Path_30819" data-name="Path 30819" d="M511.582,537.116h0a3.249,3.249,0,0,1-1.532-.564.345.345,0,0,1-.081-.494.377.377,0,0,1,.513-.078,2.513,2.513,0,0,0,1.18.438.359.359,0,0,1,.344.374.362.362,0,0,1-.388.332Zm1.466-.2a.374.374,0,0,1-.337-.219.348.348,0,0,1,.2-.459,2.564,2.564,0,0,0,1.019-.706.377.377,0,0,1,.517-.053.345.345,0,0,1,.055.5,3.279,3.279,0,0,1-1.312.932.327.327,0,0,1-.169.007Zm-3.731-1.355a.368.368,0,0,1-.33-.2,3.019,3.019,0,0,1-.337-1.411v-.155a.319.319,0,0,1,.111-.251.346.346,0,0,1,.27-.081.372.372,0,0,1,.255.113.345.345,0,0,1,.1.254v.12a2.372,2.372,0,0,0,.257,1.115.341.341,0,0,1,.018.27.357.357,0,0,1-.186.2.334.334,0,0,1-.183.021Zm5.5-.748h-.088a.353.353,0,0,1-.271-.423l.33-1.376a.347.347,0,0,1,.162-.22.372.372,0,0,1,.278-.041.366.366,0,0,1,.231.156.342.342,0,0,1,.048.268l-.337,1.369a.358.358,0,0,1-.4.268Zm-5.454-1.983h-.1a.357.357,0,0,1-.222-.168.334.334,0,0,1-.028-.27l.425-1.348a.384.384,0,0,1,.473-.251.366.366,0,0,1,.26.455l-.425,1.348a.361.361,0,0,1-.411.233Zm6.114-.762h-.081a.367.367,0,0,1-.231-.156.342.342,0,0,1-.048-.268l.33-1.411a.375.375,0,0,1,.44-.261.366.366,0,0,1,.231.156.343.343,0,0,1,.048.268l-.33,1.411a.373.373,0,0,1-.389.261Zm-5.293-1.941h-.1a.364.364,0,0,1-.222-.172.341.341,0,0,1-.027-.273l.425-1.348a.357.357,0,0,1,.18-.209.38.38,0,0,1,.281-.023.351.351,0,0,1,.242.437l-.425,1.348A.359.359,0,0,1,510.182,530.123Zm5.923-.812h-.081a.36.36,0,0,1-.279-.423l.337-1.411a.376.376,0,0,1,.447-.275.361.361,0,0,1,.286.43l-.33,1.411A.365.365,0,0,1,516.105,529.311Zm-5.073-1.891h-.1a.357.357,0,0,1-.242-.445l.425-1.348a.384.384,0,0,1,.473-.251.366.366,0,0,1,.26.455l-.425,1.355a.368.368,0,0,1-.388.233Zm5.733-.861h-.081a.359.359,0,0,1-.229-.156.335.335,0,0,1-.042-.267l.33-1.411a.367.367,0,0,1,.44-.261.359.359,0,0,1,.229.156.335.335,0,0,1,.042.267l-.33,1.369a.36.36,0,0,1-.359.339Zm-4.882-1.842a.276.276,0,0,1-.1,0,.351.351,0,0,1-.242-.437l.425-1.355a.384.384,0,0,1,.473-.25.366.366,0,0,1,.26.455l-.425,1.355a.368.368,0,0,1-.388.233Zm5.549-.91h-.088a.353.353,0,0,1-.271-.423l.323-1.334h0a.339.339,0,0,1,.1-.254.373.373,0,0,1,.633.24v.078a.333.333,0,0,1,0,.085l-.33,1.376A.367.367,0,0,1,517.432,523.807Zm-4.7-1.792a.274.274,0,0,1-.1,0,.351.351,0,0,1-.242-.438l.425-1.348a.348.348,0,0,1,.174-.213.372.372,0,0,1,.28-.027.357.357,0,0,1,.242.445l-.425,1.348A.352.352,0,0,1,512.733,522.014Zm4.97-1.066a.36.36,0,0,1-.367-.346v-1.411a.346.346,0,0,1,.1-.254.374.374,0,0,1,.262-.106h0a.367.367,0,0,1,.259.1.339.339,0,0,1,.108.247v1.411a.359.359,0,0,1-.359.36Zm-4.149-1.63h-.1a.357.357,0,0,1-.242-.445l.425-1.348a.384.384,0,0,1,.473-.25.365.365,0,0,1,.26.455l-.425,1.348a.359.359,0,0,1-.359.24Zm4.149-1.193a.367.367,0,0,1-.259-.1.34.34,0,0,1-.108-.247v-1.411a.339.339,0,0,1,.1-.254.366.366,0,0,1,.259-.106.375.375,0,0,1,.374.346v1.411A.367.367,0,0,1,517.7,518.126Zm-3.24-1.51h-.11a.357.357,0,0,1-.242-.445l.425-1.348a.384.384,0,0,1,.473-.251.366.366,0,0,1,.26.455l-.5,1.334a.357.357,0,0,1-.33.254Zm3.182-1.313a.367.367,0,0,1-.367-.346v-1.411a.339.339,0,0,1,.1-.254.366.366,0,0,1,.259-.106h0a.367.367,0,0,1,.366.346v1.411a.339.339,0,0,1-.1.254.366.366,0,0,1-.259.106Zm-2.331-1.411h-.11a.351.351,0,0,1-.242-.438l.425-1.355a.369.369,0,0,1,.454-.233.357.357,0,0,1,.217.17.334.334,0,0,1,.025.268l-.425,1.348a.359.359,0,0,1-.367.24Zm2.28-1.411a.36.36,0,0,1-.367-.346v-1.411a.366.366,0,0,1,.359-.36h0a.36.36,0,0,1,.366.346v1.411A.359.359,0,0,1,517.593,512.481Zm-1.466-1.27a.3.3,0,0,1-.11,0,.351.351,0,0,1-.242-.437l.425-1.355a.369.369,0,0,1,.455-.233.357.357,0,0,1,.217.17.334.334,0,0,1,.025.268l-.425,1.355a.358.358,0,0,1-.33.233Zm1.371-1.552a.367.367,0,0,1-.367-.346v-.833a.334.334,0,0,1-.249,0,.351.351,0,0,1-.242-.437l.425-1.348a.369.369,0,0,1,.454-.24.356.356,0,0,1,.22.172.334.334,0,0,1,.022.272l-.2.635a.364.364,0,0,1,.293.339v1.411a.338.338,0,0,1-.1.254.366.366,0,0,1-.259.106Z" transform="translate(-508.65 -506.44)" fill="#fff"/>
      </g>
      <path id="Path_30820" data-name="Path 30820" d="M397.938,434.918c0,11.538-1.041,20.888-2.324,20.888s-2.324-9.35-2.324-20.888,1.041-20.888,2.324-20.888S397.938,423.387,397.938,434.918Z" transform="translate(-292.594 -36.779)" fill="url(#radial-gradient-5)" style="mix-blend-mode: color-dodge;isolation: isolate"/>
    </g>
  </g>
</svg>
